G04*
G04 #@! TF.GenerationSoftware,Altium Limited,Altium Designer,21.6.1 (37)*
G04*
G04 Layer_Color=2752767*
%FSTAX24Y24*%
%MOIN*%
G70*
G04*
G04 #@! TF.SameCoordinates,B7BCD236-E72C-41E6-AEDC-B20C2DB60F4C*
G04*
G04*
G04 #@! TF.FilePolarity,Positive*
G04*
G01*
G75*
%ADD60C,0.0020*%
%ADD61C,0.0027*%
D60*
X01257Y015497D02*
Y015657D01*
X01273D01*
Y015497D01*
X01257D01*
Y016048D02*
Y016208D01*
X01273D01*
Y016048D01*
X01257D01*
X00435Y021273D02*
X00427Y021433D01*
X00443D01*
X00435Y021273D01*
Y016548D02*
X00427Y016708D01*
X00443D01*
X00435Y016548D01*
X01152Y010894D02*
X01156Y010934D01*
X0116D01*
X01156Y010974D01*
X0116Y011014D01*
X01156D01*
X01152Y011054D01*
X01148Y011014D01*
X01144D01*
X01148Y010974D01*
X01144Y010934D01*
X01148D01*
X01152Y010894D01*
Y012833D02*
X01156Y012873D01*
X0116D01*
X01156Y012913D01*
X0116Y012953D01*
X01156D01*
X01152Y012993D01*
X01148Y012953D01*
X01144D01*
X01148Y012913D01*
X01144Y012873D01*
X01148D01*
X01152Y012833D01*
X002188Y015873D02*
X002228Y015913D01*
X002268D01*
X002228Y015953D01*
X002268Y015993D01*
X002228D01*
X002188Y016033D01*
X002148Y015993D01*
X002108D01*
X002148Y015953D01*
X002108Y015913D01*
X002148D01*
X002188Y015873D01*
X0014D02*
X00144Y015913D01*
X00148D01*
X00144Y015953D01*
X00148Y015993D01*
X00144D01*
X0014Y016033D01*
X00136Y015993D01*
X00132D01*
X00136Y015953D01*
X00132Y015913D01*
X00136D01*
X0014Y015873D01*
X000613D02*
X000653Y015913D01*
X000693D01*
X000653Y015953D01*
X000693Y015993D01*
X000653D01*
X000613Y016033D01*
X000573Y015993D01*
X000533D01*
X000573Y015953D01*
X000533Y015913D01*
X000573D01*
X000613Y015873D01*
Y014101D02*
X000653Y014141D01*
X000693D01*
X000653Y014181D01*
X000693Y014221D01*
X000653D01*
X000613Y014261D01*
X000573Y014221D01*
X000533D01*
X000573Y014181D01*
X000533Y014141D01*
X000573D01*
X000613Y014101D01*
X0014D02*
X00144Y014141D01*
X00148D01*
X00144Y014181D01*
X00148Y014221D01*
X00144D01*
X0014Y014261D01*
X00136Y014221D01*
X00132D01*
X00136Y014181D01*
X00132Y014141D01*
X00136D01*
X0014Y014101D01*
X002188D02*
X002228Y014141D01*
X002268D01*
X002228Y014181D01*
X002268Y014221D01*
X002228D01*
X002188Y014261D01*
X002148Y014221D01*
X002108D01*
X002148Y014181D01*
X002108Y014141D01*
X002148D01*
X002188Y014101D01*
X02282Y00317D02*
X02286Y00325D01*
X02282Y00333D01*
X0229Y00329D01*
X02298Y00333D01*
X02294Y00325D01*
X02298Y00317D01*
X0229Y00321D01*
X02282Y00317D01*
X02342Y022433D02*
X02346Y022513D01*
X02342Y022593D01*
X0235Y022553D01*
X02358Y022593D01*
X02354Y022513D01*
X02358Y022433D01*
X0235Y022473D01*
X02342Y022433D01*
X01706Y011393D02*
X0171Y011473D01*
X01706Y011553D01*
X01714Y011513D01*
X01722Y011553D01*
X01718Y011473D01*
X01722Y011393D01*
X01714Y011433D01*
X01706Y011393D01*
X00697Y006723D02*
X00701Y006803D01*
X00697Y006883D01*
X00705Y006843D01*
X00713Y006883D01*
X00709Y006803D01*
X00713Y006723D01*
X00705Y006763D01*
X00697Y006723D01*
X01097Y016623D02*
X01101Y016703D01*
X01097Y016783D01*
X01105Y016743D01*
X01113Y016783D01*
X01109Y016703D01*
X01113Y016623D01*
X01105Y016663D01*
X01097Y016623D01*
X00827Y017273D02*
X00831Y017353D01*
X00827Y017433D01*
X00835Y017393D01*
X00843Y017433D01*
X00839Y017353D01*
X00843Y017273D01*
X00835Y017313D01*
X00827Y017273D01*
X00692Y016623D02*
X00696Y016703D01*
X00692Y016783D01*
X007Y016743D01*
X00708Y016783D01*
X00704Y016703D01*
X00708Y016623D01*
X007Y016663D01*
X00692Y016623D01*
X01457Y011873D02*
X01461Y011953D01*
X01457Y012033D01*
X01465Y011993D01*
X01473Y012033D01*
X01469Y011953D01*
X01473Y011873D01*
X01465Y011913D01*
X01457Y011873D01*
X01477Y012123D02*
X01481Y012203D01*
X01477Y012283D01*
X01485Y012243D01*
X01493Y012283D01*
X01489Y012203D01*
X01493Y012123D01*
X01485Y012163D01*
X01477Y012123D01*
X00782Y017823D02*
X00786Y017903D01*
X00782Y017983D01*
X0079Y017943D01*
X00798Y017983D01*
X00794Y017903D01*
X00798Y017823D01*
X0079Y017863D01*
X00782Y017823D01*
X016173Y016292D02*
X016213Y016372D01*
X016173Y016452D01*
X016253Y016412D01*
X016333Y016452D01*
X016293Y016372D01*
X016333Y016292D01*
X016253Y016332D01*
X016173Y016292D01*
X01711Y022433D02*
X01715Y022513D01*
X01711Y022593D01*
X01719Y022553D01*
X01727Y022593D01*
X01723Y022513D01*
X01727Y022433D01*
X01719Y022473D01*
X01711Y022433D01*
X02029D02*
X02033Y022513D01*
X02029Y022593D01*
X02037Y022553D01*
X02045Y022593D01*
X02041Y022513D01*
X02045Y022433D01*
X02037Y022473D01*
X02029Y022433D01*
X01404Y022443D02*
X01408Y022523D01*
X01404Y022603D01*
X01412Y022563D01*
X0142Y022603D01*
X01416Y022523D01*
X0142Y022443D01*
X01412Y022483D01*
X01404Y022443D01*
X00532Y011973D02*
X00536Y012053D01*
X00532Y012133D01*
X0054Y012093D01*
X00548Y012133D01*
X00544Y012053D01*
X00548Y011973D01*
X0054Y012013D01*
X00532Y011973D01*
X02447Y004473D02*
X02451Y004553D01*
X02447Y004633D01*
X02455Y004593D01*
X02463Y004633D01*
X02459Y004553D01*
X02463Y004473D01*
X02455Y004513D01*
X02447Y004473D01*
X00872Y004223D02*
X00876Y004303D01*
X00872Y004383D01*
X0088Y004343D01*
X00888Y004383D01*
X00884Y004303D01*
X00888Y004223D01*
X0088Y004263D01*
X00872Y004223D01*
X02797Y010623D02*
X02801Y010703D01*
X02797Y010783D01*
X02805Y010743D01*
X02813Y010783D01*
X02809Y010703D01*
X02813Y010623D01*
X02805Y010663D01*
X02797Y010623D01*
X02822Y010842D02*
X02826Y010922D01*
X02822Y011002D01*
X0283Y010962D01*
X02838Y011002D01*
X02834Y010922D01*
X02838Y010842D01*
X0283Y010882D01*
X02822Y010842D01*
X02847Y011073D02*
X02851Y011153D01*
X02847Y011233D01*
X02855Y011193D01*
X02863Y011233D01*
X02859Y011153D01*
X02863Y011073D01*
X02855Y011113D01*
X02847Y011073D01*
D61*
X01432Y01942D02*
G03*
X01432Y01942I-00008J0D01*
G01*
X01532D02*
G03*
X01532Y01942I-00008J0D01*
G01*
Y01842D02*
G03*
X01532Y01842I-00008J0D01*
G01*
X01632D02*
G03*
X01632Y01842I-00008J0D01*
G01*
Y01942D02*
G03*
X01632Y01942I-00008J0D01*
G01*
X01932Y01842D02*
G03*
X01932Y01842I-00008J0D01*
G01*
Y01942D02*
G03*
X01932Y01942I-00008J0D01*
G01*
X01832Y01842D02*
G03*
X01832Y01842I-00008J0D01*
G01*
Y01942D02*
G03*
X01832Y01942I-00008J0D01*
G01*
X01732D02*
G03*
X01732Y01942I-00008J0D01*
G01*
Y01842D02*
G03*
X01732Y01842I-00008J0D01*
G01*
X01332Y01942D02*
G03*
X01332Y01942I-00008J0D01*
G01*
Y01842D02*
G03*
X01332Y01842I-00008J0D01*
G01*
X01432D02*
G03*
X01432Y01842I-00008J0D01*
G01*
X01232D02*
G03*
X01232Y01842I-00008J0D01*
G01*
Y01942D02*
G03*
X01232Y01942I-00008J0D01*
G01*
X02332Y01342D02*
G03*
X02332Y01342I-00008J0D01*
G01*
Y01242D02*
G03*
X02332Y01242I-00008J0D01*
G01*
X02232D02*
G03*
X02232Y01242I-00008J0D01*
G01*
Y01142D02*
G03*
X02232Y01142I-00008J0D01*
G01*
X02332D02*
G03*
X02332Y01142I-00008J0D01*
G01*
X02232Y00842D02*
G03*
X02232Y00842I-00008J0D01*
G01*
X02332D02*
G03*
X02332Y00842I-00008J0D01*
G01*
X02232Y00942D02*
G03*
X02232Y00942I-00008J0D01*
G01*
X02332D02*
G03*
X02332Y00942I-00008J0D01*
G01*
Y01042D02*
G03*
X02332Y01042I-00008J0D01*
G01*
X02232D02*
G03*
X02232Y01042I-00008J0D01*
G01*
X02332Y01442D02*
G03*
X02332Y01442I-00008J0D01*
G01*
X02232D02*
G03*
X02232Y01442I-00008J0D01*
G01*
Y01342D02*
G03*
X02232Y01342I-00008J0D01*
G01*
Y01542D02*
G03*
X02232Y01542I-00008J0D01*
G01*
X02332D02*
G03*
X02332Y01542I-00008J0D01*
G01*
X01732Y00442D02*
G03*
X01732Y00442I-00008J0D01*
G01*
X01632D02*
G03*
X01632Y00442I-00008J0D01*
G01*
Y00542D02*
G03*
X01632Y00542I-00008J0D01*
G01*
X01532D02*
G03*
X01532Y00542I-00008J0D01*
G01*
Y00442D02*
G03*
X01532Y00442I-00008J0D01*
G01*
X01232Y00542D02*
G03*
X01232Y00542I-00008J0D01*
G01*
Y00442D02*
G03*
X01232Y00442I-00008J0D01*
G01*
X01332Y00542D02*
G03*
X01332Y00542I-00008J0D01*
G01*
Y00442D02*
G03*
X01332Y00442I-00008J0D01*
G01*
X01432D02*
G03*
X01432Y00442I-00008J0D01*
G01*
Y00542D02*
G03*
X01432Y00542I-00008J0D01*
G01*
X01832Y00442D02*
G03*
X01832Y00442I-00008J0D01*
G01*
Y00542D02*
G03*
X01832Y00542I-00008J0D01*
G01*
X01732D02*
G03*
X01732Y00542I-00008J0D01*
G01*
X01932D02*
G03*
X01932Y00542I-00008J0D01*
G01*
Y00442D02*
G03*
X01932Y00442I-00008J0D01*
G01*
X00832Y01042D02*
G03*
X00832Y01042I-00008J0D01*
G01*
Y01142D02*
G03*
X00832Y01142I-00008J0D01*
G01*
X00932D02*
G03*
X00932Y01142I-00008J0D01*
G01*
Y01242D02*
G03*
X00932Y01242I-00008J0D01*
G01*
X00832D02*
G03*
X00832Y01242I-00008J0D01*
G01*
X00932Y01542D02*
G03*
X00932Y01542I-00008J0D01*
G01*
X00832D02*
G03*
X00832Y01542I-00008J0D01*
G01*
X00932Y01442D02*
G03*
X00932Y01442I-00008J0D01*
G01*
X00832D02*
G03*
X00832Y01442I-00008J0D01*
G01*
Y01342D02*
G03*
X00832Y01342I-00008J0D01*
G01*
X00932D02*
G03*
X00932Y01342I-00008J0D01*
G01*
X00832Y00942D02*
G03*
X00832Y00942I-00008J0D01*
G01*
X00932D02*
G03*
X00932Y00942I-00008J0D01*
G01*
Y01042D02*
G03*
X00932Y01042I-00008J0D01*
G01*
Y00842D02*
G03*
X00932Y00842I-00008J0D01*
G01*
X00832D02*
G03*
X00832Y00842I-00008J0D01*
G01*
X001599Y004428D02*
G03*
X001599Y004428I-00008J0D01*
G01*
X002599D02*
G03*
X002599Y004428I-00008J0D01*
G01*
Y005428D02*
G03*
X002599Y005428I-00008J0D01*
G01*
X001599D02*
G03*
X001599Y005428I-00008J0D01*
G01*
X002598Y008428D02*
G03*
X002598Y008428I-00008J0D01*
G01*
X001598D02*
G03*
X001598Y008428I-00008J0D01*
G01*
X002599Y007428D02*
G03*
X002599Y007428I-00008J0D01*
G01*
X001599D02*
G03*
X001599Y007428I-00008J0D01*
G01*
Y006428D02*
G03*
X001599Y006428I-00008J0D01*
G01*
X002599D02*
G03*
X002599Y006428I-00008J0D01*
G01*
X006241Y018499D02*
G03*
X006241Y018499I-00008J0D01*
G01*
X005454Y019483D02*
G03*
X005454Y019483I-00008J0D01*
G01*
Y018499D02*
G03*
X005454Y018499I-00008J0D01*
G01*
X006241Y019483D02*
G03*
X006241Y019483I-00008J0D01*
G01*
X01085Y023009D02*
G03*
X01085Y023009I-00008J0D01*
G01*
Y021237D02*
G03*
X01085Y021237I-00008J0D01*
G01*
X008291Y023009D02*
G03*
X008291Y023009I-00008J0D01*
G01*
Y021237D02*
G03*
X008291Y021237I-00008J0D01*
G01*
X02937Y002849D02*
G03*
X02937Y002849I-00008J0D01*
G01*
X02837D02*
G03*
X02837Y002849I-00008J0D01*
G01*
X02937Y003849D02*
G03*
X02937Y003849I-00008J0D01*
G01*
X02837D02*
G03*
X02837Y003849I-00008J0D01*
G01*
X02937Y004849D02*
G03*
X02937Y004849I-00008J0D01*
G01*
X02837D02*
G03*
X02837Y004849I-00008J0D01*
G01*
X02937Y005849D02*
G03*
X02937Y005849I-00008J0D01*
G01*
X02837D02*
G03*
X02837Y005849I-00008J0D01*
G01*
X02937Y006849D02*
G03*
X02937Y006849I-00008J0D01*
G01*
X02837D02*
G03*
X02837Y006849I-00008J0D01*
G01*
X02937Y007849D02*
G03*
X02937Y007849I-00008J0D01*
G01*
X02837D02*
G03*
X02837Y007849I-00008J0D01*
G01*
X02937Y008849D02*
G03*
X02937Y008849I-00008J0D01*
G01*
X02837D02*
G03*
X02837Y008849I-00008J0D01*
G01*
X02937Y009849D02*
G03*
X02937Y009849I-00008J0D01*
G01*
X02837D02*
G03*
X02837Y009849I-00008J0D01*
G01*
X00688Y003303D02*
G03*
X00688Y003303I-00008J0D01*
G01*
X00588D02*
G03*
X00588Y003303I-00008J0D01*
G01*
X00488D02*
G03*
X00488Y003303I-00008J0D01*
G01*
X00688Y005303D02*
G03*
X00688Y005303I-00008J0D01*
G01*
X00588D02*
G03*
X00588Y005303I-00008J0D01*
G01*
X00488D02*
G03*
X00488Y005303I-00008J0D01*
G01*
X01833Y008403D02*
G03*
X01833Y008403I-00008J0D01*
G01*
X01933D02*
G03*
X01933Y008403I-00008J0D01*
G01*
X02033D02*
G03*
X02033Y008403I-00008J0D01*
G01*
X01833Y015403D02*
G03*
X01833Y015403I-00008J0D01*
G01*
X01933D02*
G03*
X01933Y015403I-00008J0D01*
G01*
X02033D02*
G03*
X02033Y015403I-00008J0D01*
G01*
X008291Y000598D02*
G03*
X008291Y000598I-00008J0D01*
G01*
Y00237D02*
G03*
X008291Y00237I-00008J0D01*
G01*
X01085Y000598D02*
G03*
X01085Y000598I-00008J0D01*
G01*
Y00237D02*
G03*
X01085Y00237I-00008J0D01*
G01*
X014611Y000598D02*
G03*
X014611Y000598I-00008J0D01*
G01*
Y00237D02*
G03*
X014611Y00237I-00008J0D01*
G01*
X01717Y000598D02*
G03*
X01717Y000598I-00008J0D01*
G01*
Y00237D02*
G03*
X01717Y00237I-00008J0D01*
G01*
X020861Y000598D02*
G03*
X020861Y000598I-00008J0D01*
G01*
Y00237D02*
G03*
X020861Y00237I-00008J0D01*
G01*
X02342Y000598D02*
G03*
X02342Y000598I-00008J0D01*
G01*
Y00237D02*
G03*
X02342Y00237I-00008J0D01*
G01*
X034095Y009849D02*
G03*
X034095Y009849I-00008J0D01*
G01*
X033095D02*
G03*
X033095Y009849I-00008J0D01*
G01*
Y008849D02*
G03*
X033095Y008849I-00008J0D01*
G01*
X034095D02*
G03*
X034095Y008849I-00008J0D01*
G01*
X033095Y007849D02*
G03*
X033095Y007849I-00008J0D01*
G01*
X034095D02*
G03*
X034095Y007849I-00008J0D01*
G01*
X033095Y006849D02*
G03*
X033095Y006849I-00008J0D01*
G01*
X034095D02*
G03*
X034095Y006849I-00008J0D01*
G01*
X033095Y005849D02*
G03*
X033095Y005849I-00008J0D01*
G01*
X034095D02*
G03*
X034095Y005849I-00008J0D01*
G01*
X033095Y004849D02*
G03*
X033095Y004849I-00008J0D01*
G01*
X034095D02*
G03*
X034095Y004849I-00008J0D01*
G01*
X033095Y003849D02*
G03*
X033095Y003849I-00008J0D01*
G01*
X034095D02*
G03*
X034095Y003849I-00008J0D01*
G01*
X033095Y002849D02*
G03*
X033095Y002849I-00008J0D01*
G01*
X034095D02*
G03*
X034095Y002849I-00008J0D01*
G01*
X02837Y020873D02*
G03*
X02837Y020873I-00008J0D01*
G01*
X02937Y013873D02*
G03*
X02937Y013873I-00008J0D01*
G01*
X02837D02*
G03*
X02837Y013873I-00008J0D01*
G01*
X02937Y014873D02*
G03*
X02937Y014873I-00008J0D01*
G01*
X02837D02*
G03*
X02837Y014873I-00008J0D01*
G01*
X02937Y015873D02*
G03*
X02937Y015873I-00008J0D01*
G01*
X02837D02*
G03*
X02837Y015873I-00008J0D01*
G01*
X02937Y016873D02*
G03*
X02937Y016873I-00008J0D01*
G01*
X02837D02*
G03*
X02837Y016873I-00008J0D01*
G01*
X02937Y017873D02*
G03*
X02937Y017873I-00008J0D01*
G01*
X02837D02*
G03*
X02837Y017873I-00008J0D01*
G01*
X02937Y018873D02*
G03*
X02937Y018873I-00008J0D01*
G01*
X02837D02*
G03*
X02837Y018873I-00008J0D01*
G01*
X02937Y019873D02*
G03*
X02937Y019873I-00008J0D01*
G01*
X02837D02*
G03*
X02837Y019873I-00008J0D01*
G01*
X02937Y020873D02*
G03*
X02937Y020873I-00008J0D01*
G01*
X033095D02*
G03*
X033095Y020873I-00008J0D01*
G01*
X034095Y014873D02*
G03*
X034095Y014873I-00008J0D01*
G01*
Y013873D02*
G03*
X034095Y013873I-00008J0D01*
G01*
X033095D02*
G03*
X033095Y013873I-00008J0D01*
G01*
Y014873D02*
G03*
X033095Y014873I-00008J0D01*
G01*
X034095Y015873D02*
G03*
X034095Y015873I-00008J0D01*
G01*
X033095D02*
G03*
X033095Y015873I-00008J0D01*
G01*
X034095Y016873D02*
G03*
X034095Y016873I-00008J0D01*
G01*
X033095D02*
G03*
X033095Y016873I-00008J0D01*
G01*
X034095Y017873D02*
G03*
X034095Y017873I-00008J0D01*
G01*
X033095D02*
G03*
X033095Y017873I-00008J0D01*
G01*
X034095Y018873D02*
G03*
X034095Y018873I-00008J0D01*
G01*
X033095D02*
G03*
X033095Y018873I-00008J0D01*
G01*
X034095Y019873D02*
G03*
X034095Y019873I-00008J0D01*
G01*
X033095D02*
G03*
X033095Y019873I-00008J0D01*
G01*
X034095Y020873D02*
G03*
X034095Y020873I-00008J0D01*
G01*
M02*
