G04*
G04 #@! TF.GenerationSoftware,Altium Limited,Altium Designer,21.6.1 (37)*
G04*
G04 Layer_Physical_Order=1*
G04 Layer_Color=255*
%FSTAX24Y24*%
%MOIN*%
G70*
G04*
G04 #@! TF.SameCoordinates,B7BCD236-E72C-41E6-AEDC-B20C2DB60F4C*
G04*
G04*
G04 #@! TF.FilePolarity,Positive*
G04*
G01*
G75*
G04:AMPARAMS|DCode=13|XSize=100mil|YSize=80mil|CornerRadius=20mil|HoleSize=0mil|Usage=FLASHONLY|Rotation=180.000|XOffset=0mil|YOffset=0mil|HoleType=Round|Shape=RoundedRectangle|*
%AMROUNDEDRECTD13*
21,1,0.1000,0.0400,0,0,180.0*
21,1,0.0600,0.0800,0,0,180.0*
1,1,0.0400,-0.0300,0.0200*
1,1,0.0400,0.0300,0.0200*
1,1,0.0400,0.0300,-0.0200*
1,1,0.0400,-0.0300,-0.0200*
%
%ADD13ROUNDEDRECTD13*%
%ADD14R,0.0300X0.0488*%
%ADD15R,0.0591X0.1181*%
%ADD16R,0.0394X0.0276*%
%ADD17R,0.0315X0.0197*%
%ADD18R,0.0591X0.1260*%
%ADD19R,0.0488X0.0300*%
%ADD41C,0.0060*%
%ADD42C,0.0150*%
%ADD43O,0.0600X0.0400*%
%ADD44C,0.0600*%
G04:AMPARAMS|DCode=45|XSize=60mil|YSize=60mil|CornerRadius=15mil|HoleSize=0mil|Usage=FLASHONLY|Rotation=90.000|XOffset=0mil|YOffset=0mil|HoleType=Round|Shape=RoundedRectangle|*
%AMROUNDEDRECTD45*
21,1,0.0600,0.0300,0,0,90.0*
21,1,0.0300,0.0600,0,0,90.0*
1,1,0.0300,0.0150,0.0150*
1,1,0.0300,0.0150,-0.0150*
1,1,0.0300,-0.0150,-0.0150*
1,1,0.0300,-0.0150,0.0150*
%
%ADD45ROUNDEDRECTD45*%
%ADD46O,0.0800X0.0600*%
G04:AMPARAMS|DCode=47|XSize=60mil|YSize=80mil|CornerRadius=15mil|HoleSize=0mil|Usage=FLASHONLY|Rotation=90.000|XOffset=0mil|YOffset=0mil|HoleType=Round|Shape=RoundedRectangle|*
%AMROUNDEDRECTD47*
21,1,0.0600,0.0500,0,0,90.0*
21,1,0.0300,0.0800,0,0,90.0*
1,1,0.0300,0.0250,0.0150*
1,1,0.0300,0.0250,-0.0150*
1,1,0.0300,-0.0250,-0.0150*
1,1,0.0300,-0.0250,0.0150*
%
%ADD47ROUNDEDRECTD47*%
G04:AMPARAMS|DCode=48|XSize=70mil|YSize=60mil|CornerRadius=15mil|HoleSize=0mil|Usage=FLASHONLY|Rotation=90.000|XOffset=0mil|YOffset=0mil|HoleType=Round|Shape=RoundedRectangle|*
%AMROUNDEDRECTD48*
21,1,0.0700,0.0300,0,0,90.0*
21,1,0.0400,0.0600,0,0,90.0*
1,1,0.0300,0.0150,0.0200*
1,1,0.0300,0.0150,-0.0200*
1,1,0.0300,-0.0150,-0.0200*
1,1,0.0300,-0.0150,0.0200*
%
%ADD48ROUNDEDRECTD48*%
%ADD49O,0.0600X0.0700*%
G04:AMPARAMS|DCode=50|XSize=60mil|YSize=137.8mil|CornerRadius=15mil|HoleSize=0mil|Usage=FLASHONLY|Rotation=90.000|XOffset=0mil|YOffset=0mil|HoleType=Round|Shape=RoundedRectangle|*
%AMROUNDEDRECTD50*
21,1,0.0600,0.1078,0,0,90.0*
21,1,0.0300,0.1378,0,0,90.0*
1,1,0.0300,0.0539,0.0150*
1,1,0.0300,0.0539,-0.0150*
1,1,0.0300,-0.0539,-0.0150*
1,1,0.0300,-0.0539,0.0150*
%
%ADD50ROUNDEDRECTD50*%
%ADD51O,0.0800X0.0600*%
G04:AMPARAMS|DCode=52|XSize=80mil|YSize=60mil|CornerRadius=15mil|HoleSize=0mil|Usage=FLASHONLY|Rotation=180.000|XOffset=0mil|YOffset=0mil|HoleType=Round|Shape=RoundedRectangle|*
%AMROUNDEDRECTD52*
21,1,0.0800,0.0300,0,0,180.0*
21,1,0.0500,0.0600,0,0,180.0*
1,1,0.0300,-0.0250,0.0150*
1,1,0.0300,0.0250,0.0150*
1,1,0.0300,0.0250,-0.0150*
1,1,0.0300,-0.0250,-0.0150*
%
%ADD52ROUNDEDRECTD52*%
%ADD53O,0.0500X0.0700*%
G04:AMPARAMS|DCode=54|XSize=50mil|YSize=70mil|CornerRadius=12.5mil|HoleSize=0mil|Usage=FLASHONLY|Rotation=180.000|XOffset=0mil|YOffset=0mil|HoleType=Round|Shape=RoundedRectangle|*
%AMROUNDEDRECTD54*
21,1,0.0500,0.0450,0,0,180.0*
21,1,0.0250,0.0700,0,0,180.0*
1,1,0.0250,-0.0125,0.0225*
1,1,0.0250,0.0125,0.0225*
1,1,0.0250,0.0125,-0.0225*
1,1,0.0250,-0.0125,-0.0225*
%
%ADD54ROUNDEDRECTD54*%
%ADD55O,0.0600X0.0800*%
G04:AMPARAMS|DCode=56|XSize=80mil|YSize=60mil|CornerRadius=15mil|HoleSize=0mil|Usage=FLASHONLY|Rotation=270.000|XOffset=0mil|YOffset=0mil|HoleType=Round|Shape=RoundedRectangle|*
%AMROUNDEDRECTD56*
21,1,0.0800,0.0300,0,0,270.0*
21,1,0.0500,0.0600,0,0,270.0*
1,1,0.0300,-0.0150,-0.0250*
1,1,0.0300,-0.0150,0.0250*
1,1,0.0300,0.0150,0.0250*
1,1,0.0300,0.0150,-0.0250*
%
%ADD56ROUNDEDRECTD56*%
%ADD57C,0.0236*%
G36*
X03734Y000161D02*
X023555D01*
X023544Y000209D01*
X023642Y000249D01*
X023725Y000313D01*
X023789Y000397D01*
X02383Y000494D01*
X023837Y000548D01*
X022843D01*
X02285Y000494D01*
X022891Y000397D01*
X022955Y000313D01*
X023038Y000249D01*
X023136Y000209D01*
X023125Y000161D01*
X017305D01*
X017294Y000209D01*
X017392Y000249D01*
X017475Y000313D01*
X017539Y000397D01*
X01758Y000494D01*
X017587Y000548D01*
X016593D01*
X0166Y000494D01*
X016641Y000397D01*
X016705Y000313D01*
X016788Y000249D01*
X016886Y000209D01*
X016875Y000161D01*
X010984D01*
X010974Y000209D01*
X011071Y000249D01*
X011155Y000313D01*
X011219Y000397D01*
X011259Y000494D01*
X011267Y000548D01*
X010273D01*
X01028Y000494D01*
X01032Y000397D01*
X010384Y000313D01*
X010468Y000249D01*
X010565Y000209D01*
X010555Y000161D01*
X000161D01*
Y023561D01*
X03734D01*
Y000161D01*
D02*
G37*
%LPC*%
G36*
X008311Y023412D02*
X008261D01*
Y023059D01*
X008708D01*
X0087Y023113D01*
X00866Y02321D01*
X008596Y023294D01*
X008512Y023358D01*
X008415Y023398D01*
X008311Y023412D01*
D02*
G37*
G36*
X008161D02*
X008111D01*
X008006Y023398D01*
X007909Y023358D01*
X007825Y023294D01*
X007761Y02321D01*
X007721Y023113D01*
X007714Y023059D01*
X008161D01*
Y023412D01*
D02*
G37*
G36*
X01087Y023371D02*
X01067D01*
X010576Y023358D01*
X010489Y023322D01*
X010414Y023265D01*
X010356Y02319D01*
X01032Y023102D01*
X010308Y023009D01*
X01032Y022915D01*
X010356Y022828D01*
X010414Y022753D01*
X010489Y022695D01*
X010576Y022659D01*
X01067Y022647D01*
X01087D01*
X010963Y022659D01*
X011051Y022695D01*
X011126Y022753D01*
X011183Y022828D01*
X011219Y022915D01*
X011232Y023009D01*
X011219Y023102D01*
X011183Y02319D01*
X011126Y023265D01*
X011051Y023322D01*
X010963Y023358D01*
X01087Y023371D01*
D02*
G37*
G36*
X008708Y022959D02*
X008261D01*
Y022605D01*
X008311D01*
X008415Y022619D01*
X008512Y022659D01*
X008596Y022723D01*
X00866Y022807D01*
X0087Y022904D01*
X008708Y022959D01*
D02*
G37*
G36*
X008161D02*
X007714D01*
X007721Y022904D01*
X007761Y022807D01*
X007825Y022723D01*
X007909Y022659D01*
X008006Y022619D01*
X008111Y022605D01*
X008161D01*
Y022959D01*
D02*
G37*
G36*
X023845Y022151D02*
X02355D01*
Y021951D01*
X023845D01*
Y022151D01*
D02*
G37*
G36*
X02345D02*
X023156D01*
Y021951D01*
X02345D01*
Y022151D01*
D02*
G37*
G36*
X03627Y023194D02*
X036133Y02318D01*
X036001Y02314D01*
X03588Y023075D01*
X035773Y022988D01*
X035686Y022882D01*
X035621Y02276D01*
X035581Y022628D01*
X035567Y022491D01*
X035581Y022354D01*
X035621Y022222D01*
X035686Y0221D01*
X035773Y021994D01*
X03588Y021906D01*
X036001Y021841D01*
X036133Y021801D01*
X03627Y021788D01*
X036408Y021801D01*
X036539Y021841D01*
X036661Y021906D01*
X036768Y021994D01*
X036855Y0221D01*
X03692Y022222D01*
X03696Y022354D01*
X036973Y022491D01*
X03696Y022628D01*
X03692Y02276D01*
X036855Y022882D01*
X036768Y022988D01*
X036661Y023075D01*
X036539Y02314D01*
X036408Y02318D01*
X03627Y023194D01*
D02*
G37*
G36*
X026034D02*
X025897Y02318D01*
X025765Y02314D01*
X025644Y023075D01*
X025537Y022988D01*
X02545Y022882D01*
X025385Y02276D01*
X025345Y022628D01*
X025331Y022491D01*
X025345Y022354D01*
X025385Y022222D01*
X02545Y0221D01*
X025537Y021994D01*
X025644Y021906D01*
X025765Y021841D01*
X025897Y021801D01*
X026034Y021788D01*
X026171Y021801D01*
X026303Y021841D01*
X026425Y021906D01*
X026531Y021994D01*
X026619Y0221D01*
X026684Y022222D01*
X026724Y022354D01*
X026737Y022491D01*
X026724Y022628D01*
X026684Y02276D01*
X026619Y022882D01*
X026531Y022988D01*
X026425Y023075D01*
X026303Y02314D01*
X026171Y02318D01*
X026034Y023194D01*
D02*
G37*
G36*
X001231D02*
X001094Y02318D01*
X000962Y02314D01*
X000841Y023075D01*
X000734Y022988D01*
X000647Y022882D01*
X000582Y02276D01*
X000542Y022628D01*
X000528Y022491D01*
X000542Y022354D01*
X000582Y022222D01*
X000647Y0221D01*
X000734Y021994D01*
X000841Y021906D01*
X000962Y021841D01*
X001094Y021801D01*
X001231Y021788D01*
X001368Y021801D01*
X0015Y021841D01*
X001622Y021906D01*
X001728Y021994D01*
X001816Y0221D01*
X001881Y022222D01*
X001921Y022354D01*
X001934Y022491D01*
X001921Y022628D01*
X001881Y02276D01*
X001816Y022882D01*
X001728Y022988D01*
X001622Y023075D01*
X0015Y02314D01*
X001368Y02318D01*
X001231Y023194D01*
D02*
G37*
G36*
X023804Y02151D02*
X023197D01*
Y021392D01*
X02304D01*
Y02151D01*
X022434D01*
Y021092D01*
X02304D01*
Y02121D01*
X023197D01*
Y021092D01*
X023804D01*
Y02151D01*
D02*
G37*
G36*
X016787Y021485D02*
X01618D01*
Y021067D01*
X016787D01*
Y021182D01*
X016887D01*
Y021064D01*
X017493D01*
Y021482D01*
X016887D01*
Y021364D01*
X016787D01*
Y021485D01*
D02*
G37*
G36*
X01366Y021465D02*
X013054D01*
Y021047D01*
X01366D01*
Y02116D01*
X013817D01*
Y021042D01*
X014424D01*
Y02146D01*
X013817D01*
Y021342D01*
X01366D01*
Y021465D01*
D02*
G37*
G36*
X004889Y021716D02*
X003811D01*
X00373Y0217D01*
X00366Y021654D01*
X003614Y021584D01*
X003598Y021503D01*
Y021203D01*
X003614Y021121D01*
X00366Y021052D01*
X00373Y021006D01*
X003811Y02099D01*
X004889D01*
X004971Y021006D01*
X00504Y021052D01*
X005086Y021121D01*
X005102Y021203D01*
Y021503D01*
X005086Y021584D01*
X00504Y021654D01*
X004971Y0217D01*
X004889Y021716D01*
D02*
G37*
G36*
X023725Y023241D02*
X013557D01*
X013523Y023234D01*
X013493Y023214D01*
X013293Y023014D01*
X013273Y022984D01*
X013266Y02295D01*
Y022365D01*
X013054D01*
Y022247D01*
X010194D01*
X010159Y02224D01*
X010129Y022221D01*
X009719Y02181D01*
X009699Y02178D01*
X009692Y021746D01*
Y017656D01*
X009291D01*
Y017444D01*
X008504D01*
X0085Y017453D01*
X008451Y017503D01*
X008385Y01753D01*
X008315D01*
X00825Y017503D01*
X0082Y017453D01*
X008173Y017388D01*
Y017318D01*
X0082Y017252D01*
X00825Y017203D01*
X008315Y017176D01*
X008385D01*
X008451Y017203D01*
X0085Y017252D01*
X008504Y017262D01*
X009291D01*
Y01705D01*
X009692D01*
Y016856D01*
X009291D01*
Y016644D01*
X008038D01*
X007991Y01669D01*
Y017749D01*
X008001Y017753D01*
X00805Y017802D01*
X008077Y017868D01*
Y017938D01*
X00805Y018003D01*
X008001Y018053D01*
X007935Y01808D01*
X007865D01*
X0078Y018053D01*
X007755Y018008D01*
X007731Y018012D01*
X007705Y018024D01*
Y020019D01*
X008275Y020589D01*
X008295Y020618D01*
X008301Y020653D01*
Y020875D01*
X008311D01*
X008404Y020887D01*
X008492Y020923D01*
X008567Y020981D01*
X008624Y021056D01*
X00866Y021143D01*
X008673Y021237D01*
X00866Y021331D01*
X008624Y021418D01*
X008567Y021493D01*
X008492Y021551D01*
X008404Y021587D01*
X008311Y021599D01*
X008111D01*
X008017Y021587D01*
X00793Y021551D01*
X007855Y021493D01*
X007797Y021418D01*
X007761Y021331D01*
X007748Y021237D01*
X007761Y021143D01*
X007797Y021056D01*
X007855Y020981D01*
X00793Y020923D01*
X008017Y020887D01*
X008111Y020875D01*
X00812D01*
Y02069D01*
X00755Y020121D01*
X00753Y020091D01*
X007523Y020056D01*
Y012539D01*
X00753Y012504D01*
X00755Y012475D01*
X007669Y012356D01*
X007698Y012336D01*
X007733Y012329D01*
X007893D01*
X007905Y012281D01*
X007953Y0122D01*
X00802Y012133D01*
X008101Y012085D01*
X008193Y012061D01*
X008287D01*
X008379Y012085D01*
X00846Y012133D01*
X008527Y0122D01*
X008575Y012281D01*
X008599Y012373D01*
Y012467D01*
X008575Y012559D01*
X008527Y01264D01*
X00846Y012707D01*
X008379Y012755D01*
X008287Y012779D01*
X008193D01*
X008101Y012755D01*
X00802Y012707D01*
X007953Y01264D01*
X007905Y012559D01*
X007893Y012511D01*
X007771D01*
X007705Y012576D01*
Y017782D01*
X007731Y017794D01*
X007755Y017797D01*
X0078Y017753D01*
X007809Y017749D01*
Y016653D01*
X007816Y016618D01*
X007836Y016589D01*
X007936Y016489D01*
X007965Y016469D01*
X008Y016462D01*
X009291D01*
Y01625D01*
X009692D01*
Y012603D01*
X009631Y012542D01*
X009575Y012557D01*
X009575Y012559D01*
X009527Y01264D01*
X00946Y012707D01*
X009379Y012755D01*
X009287Y012779D01*
X009193D01*
X009101Y012755D01*
X00902Y012707D01*
X008953Y01264D01*
X008905Y012559D01*
X008881Y012467D01*
Y012373D01*
X008905Y012281D01*
X008953Y0122D01*
X00902Y012133D01*
X009101Y012085D01*
X009183Y012064D01*
X009176Y012014D01*
X008743D01*
X008708Y012007D01*
X008679Y011987D01*
X008421Y01173D01*
X008379Y011755D01*
X008287Y011779D01*
X008193D01*
X008101Y011755D01*
X00802Y011707D01*
X007953Y01164D01*
X007905Y011559D01*
X007881Y011467D01*
Y011373D01*
X007905Y011281D01*
X007953Y0112D01*
X00802Y011133D01*
X008101Y011085D01*
X008193Y011061D01*
X008287D01*
X008379Y011085D01*
X00846Y011133D01*
X008527Y0112D01*
X008575Y011281D01*
X008599Y011373D01*
Y011467D01*
X008575Y011559D01*
X00855Y011601D01*
X00878Y011832D01*
X00972D01*
X009755Y011839D01*
X009784Y011859D01*
X009884Y011958D01*
X00993Y011939D01*
Y011651D01*
X00979Y011511D01*
X009587D01*
X009575Y011559D01*
X009527Y01164D01*
X00946Y011707D01*
X009379Y011755D01*
X009287Y011779D01*
X009193D01*
X009101Y011755D01*
X00902Y011707D01*
X008953Y01164D01*
X008905Y011559D01*
X008881Y011467D01*
Y011373D01*
X008905Y011281D01*
X008953Y0112D01*
X00902Y011133D01*
X009101Y011085D01*
X009193Y011061D01*
X009287D01*
X009379Y011085D01*
X00946Y011133D01*
X009527Y0112D01*
X009575Y011281D01*
X009587Y011329D01*
X009827D01*
X009862Y011336D01*
X009892Y011356D01*
X010003Y011467D01*
X010049Y011448D01*
Y01107D01*
X009973Y010994D01*
X008723D01*
X008688Y010987D01*
X008659Y010967D01*
X008421Y01073D01*
X008379Y010755D01*
X008287Y010779D01*
X008193D01*
X008101Y010755D01*
X00802Y010707D01*
X007953Y01064D01*
X007905Y010559D01*
X007881Y010467D01*
Y010373D01*
X007905Y010281D01*
X007953Y0102D01*
X00802Y010133D01*
X008101Y010085D01*
X008193Y010061D01*
X008287D01*
X008379Y010085D01*
X00846Y010133D01*
X008527Y0102D01*
X008575Y010281D01*
X008599Y010373D01*
Y010467D01*
X008575Y010559D01*
X00855Y010601D01*
X00876Y010812D01*
X009019D01*
X009032Y010762D01*
X008994Y01074D01*
X00892Y010666D01*
X008867Y010574D01*
X00884Y010473D01*
Y01047D01*
X00924D01*
X00964D01*
Y010473D01*
X009613Y010574D01*
X00956Y010666D01*
X009486Y01074D01*
X009448Y010762D01*
X009461Y010812D01*
X01001D01*
X010045Y010819D01*
X010074Y010839D01*
X010204Y010969D01*
X010224Y010998D01*
X010231Y011033D01*
Y011978D01*
X010277Y011997D01*
X010386Y011889D01*
X010415Y011869D01*
X01045Y011862D01*
X014496D01*
X0145Y011852D01*
X01455Y011803D01*
X014615Y011776D01*
X014685D01*
X014751Y011803D01*
X0148Y011852D01*
X014827Y011918D01*
Y011988D01*
X014866Y012026D01*
X014885D01*
X014951Y012053D01*
X015Y012102D01*
X015027Y012168D01*
Y012238D01*
X015Y012303D01*
X014951Y012353D01*
X014885Y01238D01*
X014815D01*
X01475Y012353D01*
X0147Y012303D01*
X014696Y012294D01*
X010538D01*
X010491Y01234D01*
Y015565D01*
X010814Y015889D01*
X010834Y015918D01*
X010841Y015953D01*
Y016614D01*
X010891Y016624D01*
X0109Y016602D01*
X01095Y016553D01*
X011015Y016526D01*
X011085D01*
X011151Y016553D01*
X011164Y016566D01*
X012031D01*
Y01638D01*
X01237D01*
X012387Y01633D01*
X012365Y016313D01*
X012324Y016259D01*
X012298Y016196D01*
X012289Y016128D01*
X012298Y016061D01*
X012324Y015998D01*
X012365Y015944D01*
X01242Y015902D01*
X012476Y015879D01*
X01248Y015853D01*
X012476Y015827D01*
X01242Y015804D01*
X012365Y015762D01*
X012324Y015708D01*
X012298Y015645D01*
X012289Y015577D01*
X012298Y01551D01*
X012324Y015447D01*
X012365Y015392D01*
X01242Y015351D01*
X012483Y015325D01*
X01255Y015316D01*
X01275D01*
X012818Y015325D01*
X012881Y015351D01*
X012935Y015392D01*
X012976Y015447D01*
X012993Y015486D01*
X014338D01*
X014409Y015415D01*
Y015156D01*
X014291D01*
Y01455D01*
X014709D01*
Y015156D01*
X014591D01*
Y015453D01*
X014584Y015488D01*
X014564Y015517D01*
X01444Y015641D01*
X014411Y015661D01*
X014376Y015668D01*
X012993D01*
X012976Y015708D01*
X012935Y015762D01*
X012881Y015804D01*
X012825Y015827D01*
X01282Y015853D01*
X012825Y015879D01*
X012881Y015902D01*
X012935Y015944D01*
X012976Y015998D01*
X012993Y016038D01*
X014276D01*
X01431Y016045D01*
X01434Y016064D01*
X014564Y016289D01*
X014584Y016318D01*
X014591Y016353D01*
Y01655D01*
X014709D01*
Y017156D01*
X014291D01*
Y01655D01*
X014409D01*
Y01639D01*
X014238Y016219D01*
X012993D01*
X012976Y016259D01*
X012954Y016289D01*
X012978Y016339D01*
X01309D01*
Y016633D01*
X01289D01*
Y016405D01*
X01284Y016372D01*
X012818Y016381D01*
X01275Y01639D01*
X01255D01*
X012499Y016383D01*
X01246Y016408D01*
X012449Y016421D01*
Y016986D01*
X012377D01*
Y01705D01*
X012459D01*
Y017656D01*
X012377D01*
Y018085D01*
X012379Y018085D01*
X01246Y018133D01*
X012527Y018199D01*
X012575Y018281D01*
X012599Y018373D01*
Y018467D01*
X012575Y018559D01*
X012527Y01864D01*
X01246Y018707D01*
X012379Y018755D01*
X012287Y018779D01*
X012193D01*
X012101Y018755D01*
X01202Y018707D01*
X011953Y01864D01*
X011905Y018559D01*
X011881Y018467D01*
Y018373D01*
X011905Y018281D01*
X011953Y018199D01*
X01202Y018133D01*
X012101Y018085D01*
X012103Y018085D01*
Y017656D01*
X012041D01*
Y01705D01*
X012103D01*
Y016986D01*
X012031D01*
Y01684D01*
X011164D01*
X011151Y016853D01*
X011085Y01688D01*
X011015D01*
X01095Y016853D01*
X0109Y016803D01*
X010891Y016781D01*
X010841Y016791D01*
Y017318D01*
X010834Y017352D01*
X010814Y017382D01*
X010779Y017417D01*
X01075Y017437D01*
X010715Y017444D01*
X010609D01*
Y017656D01*
X010231D01*
Y021485D01*
X010267Y021522D01*
X010296Y021518D01*
X010322Y02147D01*
X010322Y021465D01*
X010307Y021387D01*
Y021087D01*
X010323Y021005D01*
X010369Y020936D01*
X010438Y02089D01*
X01052Y020874D01*
X01102D01*
X011101Y02089D01*
X01117Y020936D01*
X011217Y021005D01*
X011233Y021087D01*
Y021387D01*
X011217Y021469D01*
X011201Y021492D01*
X011228Y021542D01*
X019299D01*
X019307Y021495D01*
X019307Y021492D01*
Y021077D01*
X019914D01*
Y021196D01*
X020067D01*
Y021082D01*
X020674D01*
Y021492D01*
X020674Y0215D01*
X020693Y021542D01*
X02103D01*
X021065Y021549D01*
X021094Y021569D01*
X021638Y022112D01*
X022434D01*
Y021992D01*
X02304D01*
Y02241D01*
X022828D01*
Y022662D01*
X022868Y022702D01*
X02331D01*
X023331Y022652D01*
X023315Y022636D01*
X023285Y022563D01*
X0235D01*
Y022463D01*
X023278D01*
X02327Y022451D01*
X023156D01*
Y022251D01*
X0235D01*
X023845D01*
Y022315D01*
X023891Y022334D01*
X025105Y02112D01*
X025134Y0211D01*
X025169Y021093D01*
X02682D01*
X026839Y021047D01*
X025746Y019954D01*
X02266D01*
X022625Y019947D01*
X022596Y019927D01*
X020451Y017782D01*
X0184D01*
X018331Y017851D01*
Y018073D01*
X018379Y018085D01*
X01846Y018133D01*
X018527Y018199D01*
X018575Y018281D01*
X018599Y018373D01*
Y018467D01*
X018575Y018559D01*
X018527Y01864D01*
X01846Y018707D01*
X018379Y018755D01*
X018287Y018779D01*
X018193D01*
X018101Y018755D01*
X01802Y018707D01*
X017953Y01864D01*
X017905Y018559D01*
X017891Y018505D01*
X017841Y018511D01*
Y018892D01*
X018059Y01911D01*
X018101Y019085D01*
X018193Y019061D01*
X018287D01*
X018379Y019085D01*
X01846Y019133D01*
X018527Y019199D01*
X018575Y019281D01*
X018599Y019373D01*
Y019467D01*
X018575Y019559D01*
X018527Y01964D01*
X01846Y019707D01*
X018379Y019755D01*
X018287Y019779D01*
X018193D01*
X018101Y019755D01*
X01802Y019707D01*
X017953Y01964D01*
X017905Y019559D01*
X017881Y019467D01*
Y019373D01*
X017905Y019281D01*
X01793Y019239D01*
X017686Y018994D01*
X017666Y018965D01*
X017659Y01893D01*
Y017803D01*
X017666Y017768D01*
X017686Y017739D01*
X017835Y01759D01*
X017816Y017544D01*
X016988D01*
X016841Y01769D01*
Y018329D01*
X016891Y018335D01*
X016905Y018281D01*
X016953Y018199D01*
X01702Y018133D01*
X017101Y018085D01*
X017193Y018061D01*
X017287D01*
X017379Y018085D01*
X01746Y018133D01*
X017527Y018199D01*
X017575Y018281D01*
X017599Y018373D01*
Y018467D01*
X017575Y018559D01*
X017527Y01864D01*
X01746Y018707D01*
X017379Y018755D01*
X017287Y018779D01*
X017193D01*
X017101Y018755D01*
X01702Y018707D01*
X016953Y01864D01*
X016905Y018559D01*
X016891Y018505D01*
X016841Y018511D01*
Y018892D01*
X017059Y01911D01*
X017101Y019085D01*
X017193Y019061D01*
X017287D01*
X017379Y019085D01*
X01746Y019133D01*
X017527Y019199D01*
X017575Y019281D01*
X017599Y019373D01*
Y019467D01*
X017575Y019559D01*
X017527Y01964D01*
X01746Y019707D01*
X017379Y019755D01*
X017287Y019779D01*
X017193D01*
X017101Y019755D01*
X01702Y019707D01*
X016953Y01964D01*
X016905Y019559D01*
X016881Y019467D01*
Y019373D01*
X016905Y019281D01*
X01693Y019239D01*
X016686Y018994D01*
X016666Y018965D01*
X016659Y01893D01*
Y017653D01*
X016666Y017618D01*
X016686Y017589D01*
X016886Y017389D01*
X016915Y017369D01*
X01695Y017362D01*
X020587D01*
X020588Y017362D01*
X020638Y017324D01*
Y015763D01*
X020588Y015748D01*
X020551Y015804D01*
X020482Y01585D01*
X0204Y015866D01*
X0201D01*
X020019Y01585D01*
X019949Y015804D01*
X019903Y015734D01*
X019887Y015653D01*
Y015153D01*
X019903Y015071D01*
X019949Y015002D01*
X020019Y014956D01*
X0201Y01494D01*
X020159D01*
Y014262D01*
X019947D01*
Y013844D01*
X020553D01*
Y014262D01*
X020341D01*
Y01494D01*
X0204D01*
X020482Y014956D01*
X020551Y015002D01*
X020588Y015057D01*
X020638Y015042D01*
Y013418D01*
X020594Y013403D01*
X020588Y013403D01*
X0203D01*
Y013153D01*
Y012903D01*
X020588D01*
X020594Y012903D01*
X020638Y012887D01*
Y011018D01*
X020594Y011003D01*
X020588Y011003D01*
X0203D01*
Y010753D01*
Y010503D01*
X020588D01*
X020594Y010503D01*
X020638Y010487D01*
Y008763D01*
X020588Y008748D01*
X020551Y008804D01*
X020482Y00885D01*
X0204Y008866D01*
X020341D01*
Y009644D01*
X020553D01*
Y010062D01*
X019947D01*
Y009644D01*
X020159D01*
Y008866D01*
X0201D01*
X020019Y00885D01*
X019949Y008804D01*
X019903Y008734D01*
X019887Y008653D01*
Y008153D01*
X019903Y008071D01*
X019949Y008002D01*
X020019Y007956D01*
X0201Y00794D01*
X0204D01*
X020482Y007956D01*
X020551Y008002D01*
X020588Y008057D01*
X020638Y008042D01*
Y007934D01*
X020447Y007744D01*
X010088D01*
X01001Y007821D01*
Y009334D01*
X010003Y009369D01*
X009983Y009398D01*
X009897Y009484D01*
X009868Y009504D01*
X009833Y009511D01*
X009587D01*
X009575Y009559D01*
X009527Y00964D01*
X00946Y009707D01*
X009445Y009716D01*
X009459Y009766D01*
X010344D01*
X010513Y009596D01*
Y009306D01*
X010441D01*
Y0087D01*
X010859D01*
Y009306D01*
X010787D01*
Y009653D01*
X010776Y009705D01*
X010747Y00975D01*
X010497Y009999D01*
X010452Y010029D01*
X0104Y01004D01*
X009481D01*
X009468Y01009D01*
X009486Y0101D01*
X00956Y010174D01*
X009613Y010266D01*
X00964Y010367D01*
Y01037D01*
X00924D01*
X00884D01*
Y010367D01*
X008867Y010266D01*
X00892Y010174D01*
X008994Y0101D01*
X009012Y01009D01*
X008999Y01004D01*
X008723D01*
X008671Y010029D01*
X008626Y009999D01*
X00838Y009754D01*
X008379Y009755D01*
X008287Y009779D01*
X008193D01*
X008101Y009755D01*
X00802Y009707D01*
X007953Y00964D01*
X007905Y009559D01*
X007905Y009557D01*
X00734D01*
X00724Y009656D01*
Y01104D01*
X00723Y011093D01*
X0072Y011137D01*
X007063Y011274D01*
X007018Y011304D01*
X006966Y011315D01*
X006059D01*
Y011481D01*
X005641D01*
Y011315D01*
X005635D01*
X005583Y011304D01*
X005539Y011274D01*
X005414Y011149D01*
X005384Y011105D01*
X005373Y011053D01*
Y009879D01*
X005174Y009679D01*
X005144Y009635D01*
X005133Y009583D01*
Y008524D01*
X004966Y008356D01*
X004741D01*
Y00819D01*
X00455D01*
X004498Y008179D01*
X004454Y008149D01*
X004204Y007899D01*
X004174Y007855D01*
X004163Y007803D01*
Y006403D01*
X004174Y006351D01*
X004204Y006306D01*
X004663Y005846D01*
Y005766D01*
X00465D01*
X004569Y00575D01*
X004499Y005704D01*
X004453Y005634D01*
X004437Y005553D01*
Y005053D01*
X004453Y004971D01*
X004499Y004902D01*
X004569Y004856D01*
X00465Y00484D01*
X004663D01*
Y003766D01*
X00465D01*
X004569Y00375D01*
X004499Y003704D01*
X004453Y003634D01*
X004437Y003553D01*
Y003053D01*
X004453Y002971D01*
X004499Y002902D01*
X004569Y002856D01*
X00465Y00284D01*
X004663D01*
Y002083D01*
X004674Y002031D01*
X004704Y001986D01*
X005054Y001636D01*
X005098Y001607D01*
X00515Y001596D01*
X00965D01*
X009702Y001607D01*
X009746Y001636D01*
X009966Y001856D01*
X009996Y001901D01*
X010006Y001953D01*
Y002967D01*
X010079D01*
Y003573D01*
X010006D01*
Y003666D01*
X010007Y003666D01*
X016063D01*
Y003573D01*
X015981D01*
Y002967D01*
X016399D01*
Y003573D01*
X016337D01*
Y003666D01*
X017402D01*
X017626Y003442D01*
X01767Y003413D01*
X017722Y003402D01*
X019258D01*
X019495Y003164D01*
X01954Y003135D01*
X019592Y003124D01*
X022231D01*
Y002958D01*
X02265D01*
Y003564D01*
X02265D01*
X022655Y003612D01*
X023126D01*
X023131Y003564D01*
X023131Y003562D01*
Y003341D01*
X023054D01*
X02305Y00335D01*
X023Y0034D01*
X022935Y003427D01*
X022865D01*
X0228Y0034D01*
X02275Y00335D01*
X022723Y003285D01*
Y003215D01*
X02275Y00315D01*
X0228Y0031D01*
X022865Y003073D01*
X022935D01*
X023Y0031D01*
X02305Y00315D01*
X023054Y003159D01*
X023131D01*
Y002958D01*
X023249D01*
Y002732D01*
X02324D01*
X023146Y00272D01*
X023059Y002684D01*
X022984Y002626D01*
X022926Y002551D01*
X02289Y002464D01*
X022878Y00237D01*
X02289Y002276D01*
X022926Y002189D01*
X022984Y002114D01*
X023059Y002056D01*
X0231Y00204D01*
X02309Y00199D01*
X021152D01*
X021137Y00204D01*
X021182Y002069D01*
X021228Y002138D01*
X021244Y00222D01*
Y00252D01*
X021228Y002602D01*
X021182Y002671D01*
X021113Y002717D01*
X021031Y002733D01*
X020531D01*
X020449Y002717D01*
X02038Y002671D01*
X020334Y002602D01*
X020318Y00252D01*
Y00222D01*
X020334Y002138D01*
X02038Y002069D01*
X020425Y00204D01*
X02041Y00199D01*
X01734D01*
X01733Y00204D01*
X017371Y002056D01*
X017446Y002114D01*
X017504Y002189D01*
X01754Y002276D01*
X01754Y002279D01*
X017837D01*
Y002161D01*
X018443D01*
Y002579D01*
X017837D01*
Y002461D01*
X01754D01*
X01754Y002464D01*
X017504Y002551D01*
X017446Y002626D01*
X017371Y002684D01*
X017284Y00272D01*
X01719Y002732D01*
X017181D01*
Y002967D01*
X017299D01*
Y003573D01*
X016881D01*
Y002967D01*
X016999D01*
Y002732D01*
X01699D01*
X016896Y00272D01*
X016809Y002684D01*
X016734Y002626D01*
X016676Y002551D01*
X01664Y002464D01*
X016628Y00237D01*
X01664Y002276D01*
X016676Y002189D01*
X016734Y002114D01*
X016809Y002056D01*
X01685Y00204D01*
X01684Y00199D01*
X014902D01*
X014887Y00204D01*
X014932Y002069D01*
X014978Y002138D01*
X014994Y00222D01*
Y00252D01*
X014978Y002602D01*
X014932Y002671D01*
X014863Y002717D01*
X014781Y002733D01*
X014281D01*
X014199Y002717D01*
X01413Y002671D01*
X014084Y002602D01*
X014068Y00252D01*
Y00222D01*
X014084Y002138D01*
X01413Y002069D01*
X014175Y00204D01*
X01416Y00199D01*
X01102D01*
X01101Y00204D01*
X011051Y002056D01*
X011126Y002114D01*
X011183Y002189D01*
X01122Y002276D01*
X01122Y002279D01*
X011537D01*
Y002161D01*
X012143D01*
Y002579D01*
X011537D01*
Y002461D01*
X01122D01*
X01122Y002464D01*
X011183Y002551D01*
X011126Y002626D01*
X011051Y002684D01*
X010963Y00272D01*
X01087Y002732D01*
X010861D01*
Y002967D01*
X010979D01*
Y003573D01*
X010561D01*
Y002967D01*
X010679D01*
Y002732D01*
X01067D01*
X010576Y00272D01*
X010489Y002684D01*
X010414Y002626D01*
X010356Y002551D01*
X01032Y002464D01*
X010308Y00237D01*
X01032Y002276D01*
X010356Y002189D01*
X010414Y002114D01*
X010489Y002056D01*
X010558Y002028D01*
X010562Y002006D01*
X01056Y001974D01*
X010524Y001949D01*
X010004Y00143D01*
X004607D01*
X004367Y00167D01*
Y004183D01*
X004356Y004235D01*
X004327Y004279D01*
X004082Y004525D01*
X004037Y004554D01*
X003985Y004565D01*
X002951D01*
X002932Y004609D01*
X002875Y004684D01*
X0028Y004742D01*
X002712Y004778D01*
X002619Y00479D01*
X002419D01*
X002325Y004778D01*
X002237Y004742D01*
X002162Y004684D01*
X002105Y004609D01*
X002086Y004565D01*
X001951D01*
X001932Y004609D01*
X001875Y004684D01*
X0018Y004742D01*
X001712Y004778D01*
X001619Y00479D01*
X001419D01*
X001325Y004778D01*
X001237Y004742D01*
X001162Y004684D01*
X001105Y004609D01*
X001086Y004565D01*
X001032D01*
X000937Y004659D01*
Y010946D01*
X001657Y011666D01*
X00365D01*
X003702Y011677D01*
X003747Y011706D01*
X003947Y011906D01*
X003976Y011951D01*
X003987Y012003D01*
Y013003D01*
X003976Y013055D01*
X003947Y013099D01*
X003784Y013262D01*
X00374Y013292D01*
X003688Y013302D01*
X003593D01*
Y013362D01*
X003081D01*
Y013302D01*
X002439D01*
X002232Y013509D01*
X002188Y013539D01*
X002135Y01355D01*
X001297D01*
X001147Y013699D01*
Y013825D01*
X001197Y013848D01*
X001244Y013811D01*
X001319Y01378D01*
X0014Y013769D01*
X001481Y01378D01*
X001556Y013811D01*
X001621Y013861D01*
X00167Y013925D01*
X001701Y014001D01*
X001712Y014081D01*
Y014281D01*
X001701Y014362D01*
X00167Y014437D01*
X001621Y014502D01*
X001556Y014551D01*
X001537Y014559D01*
Y014746D01*
X001607Y014816D01*
X0028D01*
X002852Y014827D01*
X002897Y014856D01*
X003307Y015266D01*
X004596D01*
Y014714D01*
X004813D01*
Y014503D01*
X004741D01*
Y013897D01*
X005159D01*
Y014503D01*
X005087D01*
Y014714D01*
X005304D01*
Y015266D01*
X0056D01*
X005652Y015277D01*
X005697Y015306D01*
X005897Y015506D01*
X005926Y015551D01*
X005937Y015603D01*
Y016446D01*
X006057Y016566D01*
X006886D01*
X0069Y016553D01*
X006965Y016526D01*
X007035D01*
X007101Y016553D01*
X00715Y016602D01*
X007177Y016668D01*
Y016738D01*
X00715Y016803D01*
X007101Y016853D01*
X007035Y01688D01*
X006965D01*
X0069Y016853D01*
X006886Y01684D01*
X006D01*
X005948Y016829D01*
X005904Y016799D01*
X005704Y016599D01*
X005674Y016555D01*
X005663Y016503D01*
Y015659D01*
X005544Y01554D01*
X005304D01*
Y016092D01*
X004596D01*
Y01554D01*
X00325D01*
X003198Y015529D01*
X003153Y015499D01*
X002744Y01509D01*
X00155D01*
X001498Y015079D01*
X001454Y015049D01*
X001304Y014899D01*
X001274Y014855D01*
X001263Y014803D01*
Y014559D01*
X001244Y014551D01*
X001197Y014515D01*
X001147Y014537D01*
Y015156D01*
X001197Y015206D01*
X00259D01*
X002642Y015217D01*
X002687Y015246D01*
X002897Y015456D01*
X002926Y015501D01*
X002937Y015553D01*
Y019896D01*
X003207Y020166D01*
X006844D01*
X007013Y019996D01*
Y018659D01*
X006989Y018635D01*
X006524D01*
Y018699D01*
X006508Y01878D01*
X006462Y018849D01*
X006393Y018895D01*
X006311Y018912D01*
X006011D01*
X00593Y018895D01*
X00586Y018849D01*
X005814Y01878D01*
X005798Y018699D01*
X005748Y01869D01*
X005723Y01875D01*
X005659Y018834D01*
X005576Y018898D01*
X005478Y018938D01*
X005424Y018945D01*
Y018499D01*
Y018052D01*
X005478Y018059D01*
X005576Y018099D01*
X005659Y018163D01*
X005723Y018247D01*
X005748Y018307D01*
X005798Y018299D01*
X005814Y018217D01*
X00586Y018148D01*
X00593Y018102D01*
X006011Y018085D01*
X006311D01*
X006393Y018102D01*
X006462Y018148D01*
X006508Y018217D01*
X006524Y018299D01*
Y018362D01*
X007046D01*
X007098Y018372D01*
X007142Y018402D01*
X007247Y018506D01*
X007276Y018551D01*
X007287Y018603D01*
Y020053D01*
X007276Y020105D01*
X007247Y020149D01*
X006997Y020399D01*
X006952Y020429D01*
X0069Y02044D01*
X00315D01*
X003098Y020429D01*
X003054Y020399D01*
X002704Y020049D01*
X002674Y020005D01*
X002663Y019953D01*
Y015609D01*
X002534Y01548D01*
X00114D01*
X001088Y015469D01*
X001044Y015439D01*
X000914Y015309D01*
X000884Y015265D01*
X000873Y015213D01*
Y014524D01*
X000823Y014509D01*
X000769Y014551D01*
X000693Y014582D01*
X000613Y014593D01*
X000532Y014582D01*
X000457Y014551D01*
X000392Y014502D01*
X000343Y014437D01*
X000312Y014362D01*
X000301Y014281D01*
Y014081D01*
X000312Y014001D01*
X000343Y013925D01*
X000392Y013861D01*
X000457Y013811D01*
X000476Y013803D01*
Y01335D01*
X000486Y013298D01*
X000516Y013253D01*
X000733Y013036D01*
X000778Y013007D01*
X00083Y012996D01*
X001854D01*
X002696Y012153D01*
X002741Y012124D01*
X002793Y012113D01*
X003081D01*
Y012053D01*
X003593D01*
Y012447D01*
X003081D01*
Y012387D01*
X00285D01*
X00201Y013226D01*
X002011Y01324D01*
X002027Y013276D01*
X002079D01*
X002286Y013069D01*
X00233Y013039D01*
X002383Y013029D01*
X003081D01*
Y012969D01*
X003593D01*
Y013D01*
X003643Y013017D01*
X003713Y012946D01*
Y012059D01*
X003594Y01194D01*
X0016D01*
X001548Y011929D01*
X001504Y011899D01*
X000704Y011099D01*
X000674Y011055D01*
X000663Y011003D01*
Y004603D01*
X000674Y004551D01*
X000704Y004506D01*
X000878Y004331D01*
X000923Y004302D01*
X000975Y004291D01*
X001086D01*
X001105Y004247D01*
X001162Y004172D01*
X001237Y004114D01*
X001325Y004078D01*
X001419Y004066D01*
X001619D01*
X001712Y004078D01*
X0018Y004114D01*
X001875Y004172D01*
X001932Y004247D01*
X001951Y004291D01*
X002086D01*
X002105Y004247D01*
X002162Y004172D01*
X002237Y004114D01*
X002325Y004078D01*
X002419Y004066D01*
X002619D01*
X002712Y004078D01*
X0028Y004114D01*
X002875Y004172D01*
X002932Y004247D01*
X002951Y004291D01*
X003928D01*
X004093Y004126D01*
Y001614D01*
X004104Y001561D01*
X004134Y001517D01*
X004454Y001197D01*
X004498Y001168D01*
X00455Y001157D01*
X010061D01*
X010113Y001168D01*
X010158Y001197D01*
X010677Y001716D01*
X011496D01*
Y00152D01*
X01184D01*
X012184D01*
Y001716D01*
X017796D01*
Y00152D01*
X01814D01*
X018484D01*
Y001716D01*
X02383D01*
X023882Y001727D01*
X023927Y001756D01*
X02404Y001869D01*
X025641D01*
X025653Y001821D01*
X025644Y001816D01*
X025537Y001728D01*
X02545Y001622D01*
X025385Y0015D01*
X025345Y001368D01*
X025331Y001231D01*
X025345Y001094D01*
X025385Y000962D01*
X02545Y000841D01*
X025537Y000734D01*
X025644Y000647D01*
X025765Y000582D01*
X025897Y000542D01*
X026034Y000528D01*
X026171Y000542D01*
X026303Y000582D01*
X026425Y000647D01*
X026531Y000734D01*
X026619Y000841D01*
X026684Y000962D01*
X026724Y001094D01*
X026737Y001231D01*
X026724Y001368D01*
X026699Y00145D01*
X026743Y001477D01*
X026828Y001392D01*
X026872Y001363D01*
X026924Y001352D01*
X033726D01*
X033778Y001363D01*
X033823Y001392D01*
X034111Y001681D01*
X034141Y001725D01*
X034151Y001777D01*
Y002492D01*
X034208Y002499D01*
X034296Y002536D01*
X034371Y002593D01*
X034428Y002668D01*
X034464Y002755D01*
X034477Y002849D01*
X034464Y002943D01*
X034428Y00303D01*
X034371Y003105D01*
X034296Y003163D01*
X034208Y003199D01*
X034151Y003207D01*
Y003492D01*
X034208Y003499D01*
X034296Y003536D01*
X034371Y003593D01*
X034428Y003668D01*
X034464Y003755D01*
X034477Y003849D01*
X034464Y003943D01*
X034428Y00403D01*
X034371Y004105D01*
X034296Y004163D01*
X034208Y004199D01*
X034151Y004207D01*
Y004492D01*
X034208Y004499D01*
X034296Y004536D01*
X034371Y004593D01*
X034428Y004668D01*
X034464Y004755D01*
X034477Y004849D01*
X034464Y004943D01*
X034428Y00503D01*
X034371Y005105D01*
X034296Y005163D01*
X034208Y005199D01*
X034115Y005211D01*
X033915D01*
X033821Y005199D01*
X033733Y005163D01*
X033658Y005105D01*
X033601Y00503D01*
X033565Y004943D01*
X03356Y00491D01*
X03351D01*
X033504Y004954D01*
X033464Y005051D01*
X0334Y005134D01*
X033316Y005199D01*
X033219Y005239D01*
X033115Y005253D01*
X033065D01*
Y004849D01*
Y004446D01*
X033115D01*
X033219Y00446D01*
X033316Y0045D01*
X0334Y004564D01*
X033464Y004647D01*
X033504Y004745D01*
X03351Y004788D01*
X03356D01*
X033565Y004755D01*
X033601Y004668D01*
X033658Y004593D01*
X033733Y004536D01*
X033821Y004499D01*
X033878Y004492D01*
Y004207D01*
X033821Y004199D01*
X033733Y004163D01*
X033658Y004105D01*
X033601Y00403D01*
X033565Y003943D01*
X03356Y00391D01*
X03351D01*
X033504Y003954D01*
X033464Y004051D01*
X0334Y004134D01*
X033316Y004199D01*
X033219Y004239D01*
X033115Y004253D01*
X033065D01*
Y003849D01*
Y003446D01*
X033115D01*
X033219Y00346D01*
X033316Y0035D01*
X0334Y003564D01*
X033464Y003647D01*
X033504Y003745D01*
X03351Y003788D01*
X03356D01*
X033565Y003755D01*
X033601Y003668D01*
X033658Y003593D01*
X033733Y003536D01*
X033821Y003499D01*
X033878Y003492D01*
Y003207D01*
X033821Y003199D01*
X033733Y003163D01*
X033658Y003105D01*
X033601Y00303D01*
X033565Y002943D01*
X03356Y00291D01*
X03351D01*
X033504Y002954D01*
X033464Y003051D01*
X0334Y003134D01*
X033316Y003199D01*
X033219Y003239D01*
X033115Y003253D01*
X033065D01*
Y002849D01*
Y002446D01*
X033115D01*
X033219Y002459D01*
X033316Y0025D01*
X0334Y002564D01*
X033464Y002647D01*
X033504Y002745D01*
X03351Y002788D01*
X03356D01*
X033565Y002755D01*
X033601Y002668D01*
X033658Y002593D01*
X033733Y002536D01*
X033821Y002499D01*
X033878Y002492D01*
Y001834D01*
X033669Y001625D01*
X030567D01*
X030547Y001672D01*
X030914Y002039D01*
X030934Y002068D01*
X030941Y002103D01*
Y010003D01*
X030934Y010038D01*
X030914Y010067D01*
X030614Y010367D01*
X030585Y010387D01*
X03055Y010394D01*
X028844D01*
X028809Y010387D01*
X02878Y010367D01*
X028611Y010198D01*
X02854Y010212D01*
X02804D01*
X027959Y010196D01*
X027889Y01015D01*
X027843Y010081D01*
X027827Y009999D01*
Y009699D01*
X027843Y009618D01*
X027889Y009548D01*
X027959Y009502D01*
X02804Y009486D01*
X02854D01*
X028622Y009502D01*
X028691Y009548D01*
X028737Y009618D01*
X028753Y009699D01*
Y009999D01*
X028739Y01007D01*
X028881Y010212D01*
X028997D01*
X029008Y010165D01*
X029008Y010162D01*
X028934Y010105D01*
X028877Y01003D01*
X02884Y009943D01*
X028828Y009849D01*
X02884Y009755D01*
X028877Y009668D01*
X028934Y009593D01*
X029009Y009536D01*
X029096Y009499D01*
X02919Y009487D01*
X02939D01*
X029484Y009499D01*
X029571Y009536D01*
X029646Y009593D01*
X029704Y009668D01*
X02974Y009755D01*
X02974Y009758D01*
X030416D01*
X03064Y009534D01*
Y009256D01*
X030594Y009237D01*
X030464Y009367D01*
X030435Y009387D01*
X0304Y009394D01*
X028844D01*
X028809Y009387D01*
X02878Y009367D01*
X028574Y009161D01*
X028571Y009163D01*
X028484Y009199D01*
X02839Y009211D01*
X02819D01*
X028096Y009199D01*
X028009Y009163D01*
X027934Y009105D01*
X027877Y00903D01*
X02784Y008943D01*
X027828Y008849D01*
X02784Y008755D01*
X027877Y008668D01*
X027934Y008593D01*
X028009Y008536D01*
X028096Y008499D01*
X02819Y008487D01*
X02839D01*
X028484Y008499D01*
X028571Y008536D01*
X028646Y008593D01*
X028704Y008668D01*
X02874Y008755D01*
X028752Y008849D01*
X02874Y008943D01*
X028704Y00903D01*
X028702Y009033D01*
X028881Y009212D01*
X028997D01*
X029008Y009165D01*
X029008Y009162D01*
X028934Y009105D01*
X028877Y00903D01*
X02884Y008943D01*
X028828Y008849D01*
X02884Y008755D01*
X028877Y008668D01*
X028934Y008593D01*
X029009Y008536D01*
X029096Y008499D01*
X02919Y008487D01*
X02939D01*
X029484Y008499D01*
X029571Y008536D01*
X029646Y008593D01*
X029704Y008668D01*
X02974Y008755D01*
X029752Y008849D01*
X02974Y008943D01*
X029704Y00903D01*
X029646Y009105D01*
X029572Y009162D01*
X029572Y009165D01*
X029583Y009212D01*
X030363D01*
X030521Y009053D01*
Y002239D01*
X030264Y001982D01*
X027168D01*
X027164Y001988D01*
X02719Y002038D01*
X029876D01*
X029911Y002045D01*
X029941Y002065D01*
X030064Y002189D01*
X030084Y002218D01*
X030091Y002253D01*
Y003753D01*
X030084Y003788D01*
X030064Y003817D01*
X029968Y003913D01*
X029939Y003933D01*
X029904Y00394D01*
X02974D01*
X02974Y003943D01*
X029704Y00403D01*
X029646Y004105D01*
X029571Y004163D01*
X029484Y004199D01*
X02939Y004211D01*
X02919D01*
X029096Y004199D01*
X029009Y004163D01*
X028934Y004105D01*
X028877Y00403D01*
X02884Y003943D01*
X028828Y003849D01*
X02884Y003755D01*
X028877Y003668D01*
X028934Y003593D01*
X029009Y003536D01*
X029096Y003499D01*
X02914Y003494D01*
X029137Y003444D01*
X028924D01*
X028702Y003666D01*
X028704Y003668D01*
X02874Y003755D01*
X028752Y003849D01*
X02874Y003943D01*
X028704Y00403D01*
X028646Y004105D01*
X028571Y004163D01*
X028484Y004199D01*
X02839Y004211D01*
X02819D01*
X028096Y004199D01*
X028009Y004163D01*
X027934Y004105D01*
X027877Y00403D01*
X02784Y003943D01*
X027828Y003849D01*
X02784Y003755D01*
X027877Y003668D01*
X027934Y003593D01*
X028009Y003536D01*
X028096Y003499D01*
X02819Y003487D01*
X02839D01*
X028484Y003499D01*
X028571Y003536D01*
X028574Y003537D01*
X028822Y003289D01*
X028852Y003269D01*
X028887Y003262D01*
X029713D01*
X029759Y003215D01*
Y003027D01*
X029709Y003017D01*
X029704Y00303D01*
X029646Y003105D01*
X029571Y003163D01*
X029484Y003199D01*
X02939Y003211D01*
X02919D01*
X029096Y003199D01*
X029009Y003163D01*
X028934Y003105D01*
X028877Y00303D01*
X02884Y002943D01*
X028828Y002849D01*
X02884Y002755D01*
X028877Y002668D01*
X028922Y002609D01*
X028771Y002458D01*
X028515D01*
X028505Y002508D01*
X028571Y002536D01*
X028646Y002593D01*
X028704Y002668D01*
X02874Y002755D01*
X028752Y002849D01*
X02874Y002943D01*
X028704Y00303D01*
X028646Y003105D01*
X028571Y003163D01*
X028484Y003199D01*
X02839Y003211D01*
X02819D01*
X028096Y003199D01*
X028009Y003163D01*
X027934Y003105D01*
X027877Y00303D01*
X02784Y002943D01*
X02784Y00294D01*
X026844D01*
X026698Y003086D01*
Y009293D01*
X026691Y009327D01*
X026672Y009357D01*
X026544Y009484D01*
X026515Y009504D01*
X02648Y009511D01*
X023587D01*
X023575Y009559D01*
X023527Y00964D01*
X02346Y009707D01*
X023452Y009712D01*
X023466Y009762D01*
X02397D01*
X024005Y009769D01*
X024034Y009789D01*
X025998Y011752D01*
X034732D01*
X034767Y011759D01*
X034797Y011779D01*
X035294Y012277D01*
X035314Y012306D01*
X035321Y012341D01*
Y012683D01*
Y018703D01*
X035314Y018738D01*
X035294Y018767D01*
X035124Y018937D01*
X035095Y018957D01*
X03506Y018964D01*
X034465D01*
X034464Y018967D01*
X034428Y019054D01*
X034371Y019129D01*
X034296Y019186D01*
X034208Y019223D01*
X034115Y019235D01*
X033915D01*
X033821Y019223D01*
X033733Y019186D01*
X033658Y019129D01*
X033601Y019054D01*
X033565Y018967D01*
X033552Y018873D01*
X033565Y018779D01*
X033601Y018692D01*
X033658Y018617D01*
X033733Y018559D01*
X033771Y018544D01*
X033761Y018494D01*
X033622D01*
X033426Y018689D01*
X033428Y018692D01*
X033464Y018779D01*
X033477Y018873D01*
X033464Y018967D01*
X033428Y019054D01*
X033371Y019129D01*
X033296Y019186D01*
X033208Y019223D01*
X033115Y019235D01*
X032915D01*
X032821Y019223D01*
X032733Y019186D01*
X032658Y019129D01*
X032601Y019054D01*
X032565Y018967D01*
X032552Y018873D01*
X032565Y018779D01*
X032601Y018692D01*
X032658Y018617D01*
X032733Y018559D01*
X032821Y018523D01*
X032915Y018511D01*
X033115D01*
X033208Y018523D01*
X033296Y018559D01*
X033298Y018561D01*
X033455Y018404D01*
X033461Y018348D01*
X033298Y018185D01*
X033296Y018186D01*
X033208Y018223D01*
X033115Y018235D01*
X032915D01*
X032821Y018223D01*
X032733Y018186D01*
X032658Y018129D01*
X032601Y018054D01*
X032565Y017967D01*
X032552Y017873D01*
X032565Y017779D01*
X032601Y017692D01*
X032658Y017617D01*
X032733Y017559D01*
X032821Y017523D01*
X032915Y017511D01*
X033115D01*
X033208Y017523D01*
X033296Y017559D01*
X033371Y017617D01*
X033428Y017692D01*
X033464Y017779D01*
X033477Y017873D01*
X033464Y017967D01*
X033428Y018054D01*
X033426Y018056D01*
X033563Y018193D01*
X03366D01*
X033677Y018143D01*
X033658Y018129D01*
X033601Y018054D01*
X033565Y017967D01*
X033552Y017873D01*
X033565Y017779D01*
X033601Y017692D01*
X033658Y017617D01*
X033733Y017559D01*
X033821Y017523D01*
X033915Y017511D01*
X034115D01*
X034208Y017523D01*
X034296Y017559D01*
X034371Y017617D01*
X034428Y017692D01*
X034464Y017779D01*
X034465Y017782D01*
X034723D01*
X034782Y017722D01*
Y017365D01*
X034736Y017345D01*
X034664Y017417D01*
X034635Y017437D01*
X0346Y017444D01*
X033595D01*
X03356Y017437D01*
X03353Y017417D01*
X033298Y017185D01*
X033296Y017186D01*
X033208Y017223D01*
X033115Y017235D01*
X032915D01*
X032821Y017223D01*
X032733Y017186D01*
X032658Y017129D01*
X032601Y017054D01*
X032565Y016967D01*
X032552Y016873D01*
X032565Y016779D01*
X032601Y016692D01*
X032658Y016617D01*
X032733Y016559D01*
X032821Y016523D01*
X032915Y016511D01*
X033115D01*
X033208Y016523D01*
X033296Y016559D01*
X033371Y016617D01*
X033428Y016692D01*
X033464Y016779D01*
X033477Y016873D01*
X033464Y016967D01*
X033428Y017054D01*
X033426Y017056D01*
X033632Y017262D01*
X033785D01*
X033795Y017212D01*
X033733Y017186D01*
X033658Y017129D01*
X033601Y017054D01*
X033565Y016967D01*
X033552Y016873D01*
X033565Y016779D01*
X033601Y016692D01*
X033658Y016617D01*
X033733Y016559D01*
X033821Y016523D01*
X033915Y016511D01*
X034115D01*
X034208Y016523D01*
X034296Y016559D01*
X034298Y016561D01*
X034544Y016315D01*
Y012625D01*
X034448Y012529D01*
X029925D01*
X029906Y012576D01*
X030514Y013184D01*
X030534Y013213D01*
X030541Y013248D01*
Y017103D01*
X030534Y017138D01*
X030514Y017167D01*
X030264Y017417D01*
X030235Y017437D01*
X0302Y017444D01*
X028955D01*
X028936Y01749D01*
X029007Y017561D01*
X029009Y017559D01*
X029096Y017523D01*
X02919Y017511D01*
X02939D01*
X029484Y017523D01*
X029571Y017559D01*
X029646Y017617D01*
X029704Y017692D01*
X02974Y017779D01*
X029752Y017873D01*
X02974Y017967D01*
X029704Y018054D01*
X029646Y018129D01*
X029571Y018186D01*
X029484Y018223D01*
X02939Y018235D01*
X02919D01*
X029096Y018223D01*
X029009Y018186D01*
X028934Y018129D01*
X028877Y018054D01*
X02884Y017967D01*
X028828Y017873D01*
X02884Y017779D01*
X028877Y017692D01*
X028878Y017689D01*
X028683Y017494D01*
X028544D01*
X028534Y017544D01*
X028571Y017559D01*
X028646Y017617D01*
X028704Y017692D01*
X02874Y017779D01*
X028752Y017873D01*
X02874Y017967D01*
X028704Y018054D01*
X028646Y018129D01*
X028571Y018186D01*
X02851Y018212D01*
X028519Y018262D01*
X02867D01*
X028705Y018269D01*
X028734Y018289D01*
X029007Y018561D01*
X029009Y018559D01*
X029096Y018523D01*
X02919Y018511D01*
X02939D01*
X029484Y018523D01*
X029571Y018559D01*
X029646Y018617D01*
X029704Y018692D01*
X02974Y018779D01*
X029752Y018873D01*
X02974Y018967D01*
X029704Y019054D01*
X029646Y019129D01*
X029571Y019186D01*
X029484Y019223D01*
X02939Y019235D01*
X02919D01*
X029096Y019223D01*
X029009Y019186D01*
X028934Y019129D01*
X028877Y019054D01*
X02884Y018967D01*
X028828Y018873D01*
X02884Y018779D01*
X028877Y018692D01*
X028878Y018689D01*
X028633Y018444D01*
X027488D01*
X027193Y018738D01*
X027218Y018785D01*
X02723Y018782D01*
X02784D01*
X02784Y018779D01*
X027877Y018692D01*
X027934Y018617D01*
X028009Y018559D01*
X028096Y018523D01*
X02819Y018511D01*
X02839D01*
X028484Y018523D01*
X028571Y018559D01*
X028646Y018617D01*
X028704Y018692D01*
X02874Y018779D01*
X028752Y018873D01*
X02874Y018967D01*
X028704Y019054D01*
X028646Y019129D01*
X028571Y019186D01*
X02851Y019212D01*
X028519Y019262D01*
X02867D01*
X028705Y019269D01*
X028734Y019289D01*
X029007Y019561D01*
X029009Y019559D01*
X029096Y019523D01*
X02919Y019511D01*
X02939D01*
X029484Y019523D01*
X029571Y019559D01*
X029646Y019617D01*
X029704Y019692D01*
X02974Y019779D01*
X029752Y019873D01*
X02974Y019967D01*
X029704Y020054D01*
X029646Y020129D01*
X029571Y020186D01*
X029484Y020223D01*
X02939Y020235D01*
X02919D01*
X029096Y020223D01*
X029009Y020186D01*
X028934Y020129D01*
X028877Y020054D01*
X02884Y019967D01*
X028828Y019873D01*
X02884Y019779D01*
X028877Y019692D01*
X028878Y019689D01*
X028633Y019444D01*
X02725D01*
X027229Y019494D01*
X027518Y019782D01*
X02784D01*
X02784Y019779D01*
X027877Y019692D01*
X027934Y019617D01*
X028009Y019559D01*
X028096Y019523D01*
X02819Y019511D01*
X02839D01*
X028484Y019523D01*
X028571Y019559D01*
X028646Y019617D01*
X028704Y019692D01*
X02874Y019779D01*
X028752Y019873D01*
X02874Y019967D01*
X028704Y020054D01*
X028646Y020129D01*
X028571Y020186D01*
X02851Y020212D01*
X028519Y020262D01*
X02867D01*
X028705Y020269D01*
X028734Y020289D01*
X029007Y020561D01*
X029009Y020559D01*
X029096Y020523D01*
X02919Y020511D01*
X02939D01*
X029484Y020523D01*
X029571Y020559D01*
X029646Y020617D01*
X029704Y020692D01*
X02974Y020779D01*
X029752Y020873D01*
X02974Y020967D01*
X029704Y021054D01*
X029646Y021129D01*
X029571Y021186D01*
X029544Y021198D01*
X029554Y021248D01*
X029867D01*
X031749Y019366D01*
Y015113D01*
X031756Y015079D01*
X031775Y015049D01*
X032016Y014809D01*
X032045Y014789D01*
X03208Y014782D01*
X032564D01*
X032565Y014779D01*
X032601Y014692D01*
X032658Y014617D01*
X032733Y014559D01*
X032821Y014523D01*
X032915Y014511D01*
X033115D01*
X033208Y014523D01*
X033296Y014559D01*
X033371Y014617D01*
X033428Y014692D01*
X033464Y014779D01*
X033477Y014873D01*
X033464Y014967D01*
X033428Y015054D01*
X033371Y015129D01*
X033296Y015186D01*
X033208Y015223D01*
X033115Y015235D01*
X032915D01*
X032821Y015223D01*
X032733Y015186D01*
X032658Y015129D01*
X032601Y015054D01*
X032565Y014967D01*
X032564Y014964D01*
X032118D01*
X03193Y015151D01*
Y015879D01*
X031977Y015898D01*
X032066Y015809D01*
X032095Y015789D01*
X03213Y015782D01*
X032564D01*
X032565Y015779D01*
X032601Y015692D01*
X032658Y015617D01*
X032733Y015559D01*
X032821Y015523D01*
X032915Y015511D01*
X033115D01*
X033208Y015523D01*
X033296Y015559D01*
X033371Y015617D01*
X033428Y015692D01*
X033464Y015779D01*
X033477Y015873D01*
X033464Y015967D01*
X033428Y016054D01*
X033371Y016129D01*
X033296Y016186D01*
X033234Y016212D01*
X033244Y016262D01*
X033397D01*
X033603Y016056D01*
X033601Y016054D01*
X033565Y015967D01*
X033552Y015873D01*
X033565Y015779D01*
X033601Y015692D01*
X033658Y015617D01*
X033733Y015559D01*
X033821Y015523D01*
X033915Y015511D01*
X034115D01*
X034208Y015523D01*
X034296Y015559D01*
X034371Y015617D01*
X034428Y015692D01*
X034464Y015779D01*
X034477Y015873D01*
X034464Y015967D01*
X034428Y016054D01*
X034371Y016129D01*
X034296Y016186D01*
X034208Y016223D01*
X034115Y016235D01*
X033915D01*
X033821Y016223D01*
X033733Y016186D01*
X033731Y016185D01*
X033499Y016417D01*
X033469Y016437D01*
X033435Y016444D01*
X032288D01*
X032191Y01654D01*
Y019363D01*
X032237Y019383D01*
X032281Y019339D01*
X032311Y019319D01*
X032345Y019312D01*
X033445D01*
X033479Y019319D01*
X033509Y019339D01*
X033731Y019561D01*
X033733Y019559D01*
X033821Y019523D01*
X033915Y019511D01*
X034115D01*
X034208Y019523D01*
X034296Y019559D01*
X034371Y019617D01*
X034428Y019692D01*
X034464Y019779D01*
X034477Y019873D01*
X034464Y019967D01*
X034428Y020054D01*
X034371Y020129D01*
X034296Y020186D01*
X034208Y020223D01*
X034115Y020235D01*
X033915D01*
X033821Y020223D01*
X033733Y020186D01*
X033658Y020129D01*
X033601Y020054D01*
X033565Y019967D01*
X033552Y019873D01*
X033565Y019779D01*
X033601Y019692D01*
X033603Y019689D01*
X033407Y019494D01*
X033268D01*
X033258Y019544D01*
X033296Y019559D01*
X033371Y019617D01*
X033428Y019692D01*
X033464Y019779D01*
X033477Y019873D01*
X033464Y019967D01*
X033428Y020054D01*
X033371Y020129D01*
X033296Y020186D01*
X033234Y020212D01*
X033244Y020262D01*
X033395D01*
X033429Y020269D01*
X033459Y020289D01*
X033731Y020561D01*
X033733Y020559D01*
X033821Y020523D01*
X033915Y020511D01*
X034115D01*
X034208Y020523D01*
X034296Y020559D01*
X034371Y020617D01*
X034428Y020692D01*
X034464Y020779D01*
X034477Y020873D01*
X034464Y020967D01*
X034428Y021054D01*
X034371Y021129D01*
X034296Y021186D01*
X034208Y021223D01*
X034115Y021235D01*
X033915D01*
X033821Y021223D01*
X033733Y021186D01*
X033658Y021129D01*
X033601Y021054D01*
X033565Y020967D01*
X033552Y020873D01*
X033565Y020779D01*
X033601Y020692D01*
X033603Y020689D01*
X033357Y020444D01*
X03177D01*
X031477Y020736D01*
X031497Y020782D01*
X032551D01*
Y020723D01*
X032568Y020641D01*
X032614Y020572D01*
X032683Y020526D01*
X032765Y02051D01*
X033265D01*
X033346Y020526D01*
X033415Y020572D01*
X033461Y020641D01*
X033478Y020723D01*
Y021023D01*
X033461Y021104D01*
X033415Y021174D01*
X033346Y02122D01*
X033265Y021236D01*
X032765D01*
X032683Y02122D01*
X032614Y021174D01*
X032568Y021104D01*
X032551Y021023D01*
Y020964D01*
X031418D01*
X030265Y022117D01*
X030235Y022137D01*
X0302Y022144D01*
X0273D01*
X027265Y022137D01*
X027236Y022117D01*
X026763Y021644D01*
X02536D01*
X023789Y023214D01*
X02376Y023234D01*
X023725Y023241D01*
D02*
G37*
G36*
X012293Y01982D02*
X01229D01*
Y01947D01*
X01264D01*
Y019473D01*
X012613Y019574D01*
X01256Y019666D01*
X012486Y01974D01*
X012394Y019793D01*
X012293Y01982D01*
D02*
G37*
G36*
X01219D02*
X012187D01*
X012086Y019793D01*
X011994Y01974D01*
X01192Y019666D01*
X011867Y019574D01*
X01184Y019473D01*
Y01947D01*
X01219D01*
Y01982D01*
D02*
G37*
G36*
X006161Y019895D02*
X006067Y019883D01*
X00598Y019846D01*
X005905Y019789D01*
X005848Y019714D01*
X005811Y019626D01*
X005799Y019533D01*
Y019433D01*
X005811Y019339D01*
X005848Y019252D01*
X005905Y019177D01*
X00598Y019119D01*
X006067Y019083D01*
X006161Y019071D01*
X006255Y019083D01*
X006342Y019119D01*
X006417Y019177D01*
X006475Y019252D01*
X006511Y019339D01*
X006523Y019433D01*
Y019533D01*
X006511Y019626D01*
X006475Y019714D01*
X006417Y019789D01*
X006342Y019846D01*
X006255Y019883D01*
X006161Y019895D01*
D02*
G37*
G36*
X005374D02*
X00528Y019883D01*
X005193Y019846D01*
X005118Y019789D01*
X00506Y019714D01*
X005024Y019626D01*
X005012Y019533D01*
Y019433D01*
X005024Y019339D01*
X00506Y019252D01*
X005118Y019177D01*
X005193Y019119D01*
X00528Y019083D01*
X005374Y019071D01*
X005468Y019083D01*
X005555Y019119D01*
X00563Y019177D01*
X005687Y019252D01*
X005724Y019339D01*
X005736Y019433D01*
Y019533D01*
X005724Y019626D01*
X005687Y019714D01*
X00563Y019789D01*
X005555Y019846D01*
X005468Y019883D01*
X005374Y019895D01*
D02*
G37*
G36*
X019287Y019779D02*
X019193D01*
X019101Y019755D01*
X019019Y019707D01*
X018953Y01964D01*
X018905Y019559D01*
X018881Y019467D01*
Y019373D01*
X018905Y019281D01*
X018953Y0192D01*
X019019Y019133D01*
X019101Y019085D01*
X019193Y019061D01*
X019287D01*
X019379Y019085D01*
X01946Y019133D01*
X019527Y0192D01*
X019575Y019281D01*
X019599Y019373D01*
Y019467D01*
X019575Y019559D01*
X019527Y01964D01*
X01946Y019707D01*
X019379Y019755D01*
X019287Y019779D01*
D02*
G37*
G36*
X016287Y019779D02*
X016193D01*
X016101Y019755D01*
X01602Y019707D01*
X015953Y01964D01*
X015905Y019559D01*
X015881Y019467D01*
Y019373D01*
X015905Y019281D01*
X015953Y019199D01*
X01602Y019133D01*
X016101Y019085D01*
X016193Y019061D01*
X016287D01*
X016379Y019085D01*
X01646Y019133D01*
X016527Y019199D01*
X016575Y019281D01*
X016599Y019373D01*
Y019467D01*
X016575Y019559D01*
X016527Y01964D01*
X01646Y019707D01*
X016379Y019755D01*
X016287Y019779D01*
D02*
G37*
G36*
X015287D02*
X015193D01*
X015101Y019755D01*
X01502Y019707D01*
X014953Y01964D01*
X014905Y019559D01*
X014881Y019467D01*
Y019373D01*
X014905Y019281D01*
X014953Y019199D01*
X01502Y019133D01*
X015101Y019085D01*
X015193Y019061D01*
X015287D01*
X015379Y019085D01*
X01546Y019133D01*
X015527Y019199D01*
X015575Y019281D01*
X015599Y019373D01*
Y019467D01*
X015575Y019559D01*
X015527Y01964D01*
X01546Y019707D01*
X015379Y019755D01*
X015287Y019779D01*
D02*
G37*
G36*
X014287D02*
X014193D01*
X014101Y019755D01*
X01402Y019707D01*
X013953Y01964D01*
X013905Y019559D01*
X013881Y019467D01*
Y019373D01*
X013905Y019281D01*
X013953Y019199D01*
X01402Y019133D01*
X014101Y019085D01*
X014193Y019061D01*
X014287D01*
X014379Y019085D01*
X01446Y019133D01*
X014527Y019199D01*
X014575Y019281D01*
X014599Y019373D01*
Y019467D01*
X014575Y019559D01*
X014527Y01964D01*
X01446Y019707D01*
X014379Y019755D01*
X014287Y019779D01*
D02*
G37*
G36*
X013287D02*
X013193D01*
X013101Y019755D01*
X01302Y019707D01*
X012953Y01964D01*
X012905Y019559D01*
X012881Y019467D01*
Y019373D01*
X012905Y019281D01*
X012953Y019199D01*
X01302Y019133D01*
X013101Y019085D01*
X013193Y019061D01*
X013287D01*
X013379Y019085D01*
X01346Y019133D01*
X013527Y019199D01*
X013575Y019281D01*
X013599Y019373D01*
Y019467D01*
X013575Y019559D01*
X013527Y01964D01*
X01346Y019707D01*
X013379Y019755D01*
X013287Y019779D01*
D02*
G37*
G36*
X01264Y01937D02*
X01229D01*
Y01902D01*
X012293D01*
X012394Y019047D01*
X012486Y0191D01*
X01256Y019174D01*
X012613Y019266D01*
X01264Y019367D01*
Y01937D01*
D02*
G37*
G36*
X01219D02*
X01184D01*
Y019367D01*
X011867Y019266D01*
X01192Y019174D01*
X011994Y0191D01*
X012086Y019047D01*
X012187Y01902D01*
X01219D01*
Y01937D01*
D02*
G37*
G36*
X005324Y018945D02*
X005269Y018938D01*
X005172Y018898D01*
X005088Y018834D01*
X005024Y01875D01*
X004984Y018653D01*
X00497Y018549D01*
Y018549D01*
X005324D01*
Y018945D01*
D02*
G37*
G36*
X019287Y018779D02*
X019193D01*
X019101Y018755D01*
X019019Y018707D01*
X018953Y01864D01*
X018905Y018559D01*
X018881Y018467D01*
Y018373D01*
X018905Y018281D01*
X018953Y0182D01*
X019019Y018133D01*
X019101Y018085D01*
X019193Y018061D01*
X019287D01*
X019379Y018085D01*
X01946Y018133D01*
X019527Y0182D01*
X019575Y018281D01*
X019599Y018373D01*
Y018467D01*
X019575Y018559D01*
X019527Y01864D01*
X01946Y018707D01*
X019379Y018755D01*
X019287Y018779D01*
D02*
G37*
G36*
X016287Y018779D02*
X016193D01*
X016101Y018755D01*
X01602Y018707D01*
X015953Y01864D01*
X015905Y018559D01*
X015881Y018467D01*
Y018373D01*
X015905Y018281D01*
X015953Y018199D01*
X01602Y018133D01*
X016101Y018085D01*
X016193Y018061D01*
X016287D01*
X016379Y018085D01*
X01646Y018133D01*
X016527Y018199D01*
X016575Y018281D01*
X016599Y018373D01*
Y018467D01*
X016575Y018559D01*
X016527Y01864D01*
X01646Y018707D01*
X016379Y018755D01*
X016287Y018779D01*
D02*
G37*
G36*
X015287D02*
X015193D01*
X015101Y018755D01*
X01502Y018707D01*
X014953Y01864D01*
X014905Y018559D01*
X014881Y018467D01*
Y018373D01*
X014905Y018281D01*
X014953Y018199D01*
X01502Y018133D01*
X015101Y018085D01*
X015193Y018061D01*
X015287D01*
X015379Y018085D01*
X01546Y018133D01*
X015527Y018199D01*
X015575Y018281D01*
X015599Y018373D01*
Y018467D01*
X015575Y018559D01*
X015527Y01864D01*
X01546Y018707D01*
X015379Y018755D01*
X015287Y018779D01*
D02*
G37*
G36*
X013287D02*
X013193D01*
X013101Y018755D01*
X01302Y018707D01*
X012953Y01864D01*
X012905Y018559D01*
X012881Y018467D01*
Y018373D01*
X012905Y018281D01*
X012953Y018199D01*
X01302Y018133D01*
X013101Y018085D01*
X013193Y018061D01*
X013287D01*
X013379Y018085D01*
X01346Y018133D01*
X013527Y018199D01*
X013575Y018281D01*
X013599Y018373D01*
Y018467D01*
X013575Y018559D01*
X013527Y01864D01*
X01346Y018707D01*
X013379Y018755D01*
X013287Y018779D01*
D02*
G37*
G36*
X005324Y018449D02*
X00497D01*
X004984Y018344D01*
X005024Y018247D01*
X005088Y018163D01*
X005172Y018099D01*
X005269Y018059D01*
X005324Y018052D01*
Y018449D01*
D02*
G37*
G36*
X0134Y017697D02*
X0132D01*
Y017403D01*
X0134D01*
Y017697D01*
D02*
G37*
G36*
X0131D02*
X0129D01*
Y017403D01*
X0131D01*
Y017697D01*
D02*
G37*
G36*
X01565Y017197D02*
X01545D01*
Y016903D01*
X01565D01*
Y017197D01*
D02*
G37*
G36*
X01535D02*
X01515D01*
Y016903D01*
X01535D01*
Y017197D01*
D02*
G37*
G36*
X0134Y017303D02*
X01315D01*
X0129D01*
Y017027D01*
X01289D01*
Y016733D01*
X01339D01*
Y017009D01*
X0134D01*
Y017303D01*
D02*
G37*
G36*
X01565Y016803D02*
X01545D01*
Y016509D01*
X01565D01*
Y016803D01*
D02*
G37*
G36*
X01535D02*
X01515D01*
Y016509D01*
X01535D01*
Y016803D01*
D02*
G37*
G36*
X01339Y016633D02*
X01319D01*
Y016339D01*
X01339D01*
Y016633D01*
D02*
G37*
G36*
X004889Y016992D02*
X003811D01*
X00373Y016975D01*
X00366Y016929D01*
X003614Y01686D01*
X003598Y016778D01*
Y016478D01*
X003614Y016397D01*
X00366Y016328D01*
X00373Y016281D01*
X003811Y016265D01*
X004889D01*
X004971Y016281D01*
X00504Y016328D01*
X005086Y016397D01*
X005102Y016478D01*
Y016778D01*
X005086Y01686D01*
X00504Y016929D01*
X004971Y016975D01*
X004889Y016992D01*
D02*
G37*
G36*
X014287Y018779D02*
X014193D01*
X014101Y018755D01*
X01402Y018707D01*
X013953Y01864D01*
X013905Y018559D01*
X013881Y018467D01*
Y018373D01*
X013905Y018281D01*
X013953Y018199D01*
X01402Y018133D01*
X014101Y018085D01*
X014149Y018073D01*
Y017903D01*
X014156Y017868D01*
X014176Y017839D01*
X014316Y017699D01*
X014345Y017679D01*
X01438Y017672D01*
X016103D01*
X016162Y017613D01*
Y016526D01*
X016152Y016522D01*
X016102Y016472D01*
X016075Y016407D01*
Y016337D01*
X016102Y016272D01*
X016152Y016222D01*
X016217Y016195D01*
X016288D01*
X016353Y016222D01*
X016403Y016272D01*
X01643Y016337D01*
Y016407D01*
X016403Y016472D01*
X016353Y016522D01*
X016343Y016526D01*
Y01765D01*
X016337Y017685D01*
X016317Y017715D01*
X016204Y017827D01*
X016175Y017847D01*
X01614Y017854D01*
X014418D01*
X014331Y017941D01*
Y018073D01*
X014379Y018085D01*
X01446Y018133D01*
X014527Y018199D01*
X014575Y018281D01*
X014599Y018373D01*
Y018467D01*
X014575Y018559D01*
X014527Y01864D01*
X01446Y018707D01*
X014379Y018755D01*
X014287Y018779D01*
D02*
G37*
G36*
X0157Y016355D02*
X01545D01*
Y015903D01*
X016003D01*
Y016053D01*
X015992Y016131D01*
X015962Y016204D01*
X015914Y016267D01*
X015851Y016315D01*
X015778Y016345D01*
X0157Y016355D01*
D02*
G37*
G36*
X01535D02*
X0151D01*
X015022Y016345D01*
X014949Y016315D01*
X014886Y016267D01*
X014838Y016204D01*
X014808Y016131D01*
X014798Y016053D01*
Y015903D01*
X01535D01*
Y016355D01*
D02*
G37*
G36*
X002188Y016365D02*
X002107Y016354D01*
X002032Y016323D01*
X001967Y016273D01*
X001918Y016209D01*
X001886Y016134D01*
X001876Y016053D01*
Y015853D01*
X001886Y015772D01*
X001918Y015697D01*
X001967Y015632D01*
X002032Y015583D01*
X002107Y015552D01*
X002188Y015541D01*
X002268Y015552D01*
X002343Y015583D01*
X002408Y015632D01*
X002458Y015697D01*
X002489Y015772D01*
X002499Y015853D01*
Y016053D01*
X002489Y016134D01*
X002458Y016209D01*
X002408Y016273D01*
X002343Y016323D01*
X002268Y016354D01*
X002188Y016365D01*
D02*
G37*
G36*
X0014D02*
X001319Y016354D01*
X001244Y016323D01*
X00118Y016273D01*
X00113Y016209D01*
X001099Y016134D01*
X001088Y016053D01*
Y015853D01*
X001099Y015772D01*
X00113Y015697D01*
X00118Y015632D01*
X001244Y015583D01*
X001319Y015552D01*
X0014Y015541D01*
X001481Y015552D01*
X001556Y015583D01*
X001621Y015632D01*
X00167Y015697D01*
X001701Y015772D01*
X001712Y015853D01*
Y016053D01*
X001701Y016134D01*
X00167Y016209D01*
X001621Y016273D01*
X001556Y016323D01*
X001481Y016354D01*
X0014Y016365D01*
D02*
G37*
G36*
X000613D02*
X000532Y016354D01*
X000457Y016323D01*
X000392Y016273D01*
X000343Y016209D01*
X000312Y016134D01*
X000301Y016053D01*
Y015853D01*
X000312Y015772D01*
X000343Y015697D01*
X000392Y015632D01*
X000457Y015583D01*
X000532Y015552D01*
X000613Y015541D01*
X000693Y015552D01*
X000769Y015583D01*
X000833Y015632D01*
X000883Y015697D01*
X000914Y015772D01*
X000924Y015853D01*
Y016053D01*
X000914Y016134D01*
X000883Y016209D01*
X000833Y016273D01*
X000769Y016323D01*
X000693Y016354D01*
X000613Y016365D01*
D02*
G37*
G36*
X0183Y0159D02*
Y015453D01*
X018654D01*
Y015503D01*
X01864Y015607D01*
X0186Y015705D01*
X018535Y015788D01*
X018452Y015852D01*
X018355Y015893D01*
X0183Y0159D01*
D02*
G37*
G36*
X0182D02*
X018146Y015893D01*
X018048Y015852D01*
X017965Y015788D01*
X017901Y015705D01*
X01786Y015607D01*
X017847Y015503D01*
Y015453D01*
X0182D01*
Y0159D01*
D02*
G37*
G36*
X007117Y016133D02*
X006772D01*
Y015453D01*
X007117D01*
Y016133D01*
D02*
G37*
G36*
X006672D02*
X006327D01*
Y015453D01*
X006672D01*
Y016133D01*
D02*
G37*
G36*
X016003Y015803D02*
X01545D01*
Y01535D01*
X0157D01*
X015778Y015361D01*
X015851Y015391D01*
X015914Y015439D01*
X015962Y015502D01*
X015992Y015575D01*
X016003Y015653D01*
Y015803D01*
D02*
G37*
G36*
X01535D02*
X014798D01*
Y015653D01*
X014808Y015575D01*
X014838Y015502D01*
X014886Y015439D01*
X014949Y015391D01*
X015022Y015361D01*
X0151Y01535D01*
X01535D01*
Y015803D01*
D02*
G37*
G36*
X009287Y015779D02*
X009193D01*
X009101Y015755D01*
X009019Y015707D01*
X008953Y01564D01*
X008905Y015559D01*
X008881Y015467D01*
Y015373D01*
X008905Y015281D01*
X008953Y015199D01*
X009019Y015133D01*
X009101Y015085D01*
X009193Y015061D01*
X009287D01*
X009379Y015085D01*
X00946Y015133D01*
X009527Y015199D01*
X009575Y015281D01*
X009599Y015373D01*
Y015467D01*
X009575Y015559D01*
X009527Y01564D01*
X00946Y015707D01*
X009379Y015755D01*
X009287Y015779D01*
D02*
G37*
G36*
X00839Y015783D02*
X00809D01*
X008008Y015767D01*
X007939Y015721D01*
X007893Y015652D01*
X007877Y01557D01*
Y01527D01*
X007893Y015188D01*
X007939Y015119D01*
X008008Y015073D01*
X00809Y015057D01*
X00839D01*
X008472Y015073D01*
X008541Y015119D01*
X008587Y015188D01*
X008603Y01527D01*
Y01557D01*
X008587Y015652D01*
X008541Y015721D01*
X008472Y015767D01*
X00839Y015783D01*
D02*
G37*
G36*
X01925Y015865D02*
X019156Y015853D01*
X019069Y015816D01*
X018994Y015759D01*
X018937Y015684D01*
X0189Y015597D01*
X018888Y015503D01*
Y015303D01*
X0189Y015209D01*
X018937Y015122D01*
X018994Y015047D01*
X019069Y014989D01*
X019156Y014953D01*
X01925Y014941D01*
X019344Y014953D01*
X019431Y014989D01*
X019506Y015047D01*
X019564Y015122D01*
X0196Y015209D01*
X019612Y015303D01*
Y015503D01*
X0196Y015597D01*
X019564Y015684D01*
X019506Y015759D01*
X019431Y015816D01*
X019344Y015853D01*
X01925Y015865D01*
D02*
G37*
G36*
X018654Y015353D02*
X0183D01*
Y014906D01*
X018355Y014913D01*
X018452Y014953D01*
X018535Y015018D01*
X0186Y015101D01*
X01864Y015198D01*
X018654Y015303D01*
Y015353D01*
D02*
G37*
G36*
X0182D02*
X017847D01*
Y015303D01*
X01786Y015198D01*
X017901Y015101D01*
X017965Y015018D01*
X018048Y014953D01*
X018146Y014913D01*
X0182Y014906D01*
Y015353D01*
D02*
G37*
G36*
X01565Y015197D02*
X01545D01*
Y014903D01*
X01565D01*
Y015197D01*
D02*
G37*
G36*
X01535D02*
X01515D01*
Y014903D01*
X01535D01*
Y015197D01*
D02*
G37*
G36*
X01246Y015065D02*
X01226D01*
Y014771D01*
X01246D01*
Y015065D01*
D02*
G37*
G36*
X01216D02*
X01196D01*
Y014771D01*
X01216D01*
Y015065D01*
D02*
G37*
G36*
X007117Y015353D02*
X006772D01*
Y014673D01*
X007117D01*
Y015353D01*
D02*
G37*
G36*
X006672D02*
X006327D01*
Y014673D01*
X006672D01*
Y015353D01*
D02*
G37*
G36*
X034115Y015235D02*
X033915D01*
X033821Y015223D01*
X033733Y015186D01*
X033658Y015129D01*
X033601Y015054D01*
X033565Y014967D01*
X033552Y014873D01*
X033565Y014779D01*
X033601Y014692D01*
X033658Y014617D01*
X033733Y014559D01*
X033821Y014523D01*
X033915Y014511D01*
X034115D01*
X034208Y014523D01*
X034296Y014559D01*
X034371Y014617D01*
X034428Y014692D01*
X034464Y014779D01*
X034477Y014873D01*
X034464Y014967D01*
X034428Y015054D01*
X034371Y015129D01*
X034296Y015186D01*
X034208Y015223D01*
X034115Y015235D01*
D02*
G37*
G36*
X01565Y014803D02*
X01545D01*
Y014509D01*
X01565D01*
Y014803D01*
D02*
G37*
G36*
X01535D02*
X01515D01*
Y014509D01*
X01535D01*
Y014803D01*
D02*
G37*
G36*
X01246Y014671D02*
X01226D01*
Y014377D01*
X01246D01*
Y014671D01*
D02*
G37*
G36*
X01216D02*
X01196D01*
Y014377D01*
X01216D01*
Y014671D01*
D02*
G37*
G36*
X0185Y014397D02*
X0183D01*
Y014103D01*
X0185D01*
Y014397D01*
D02*
G37*
G36*
X0182D02*
X018D01*
Y014103D01*
X0182D01*
Y014397D01*
D02*
G37*
G36*
X009287Y014779D02*
X009193D01*
X009101Y014755D01*
X00902Y014707D01*
X008953Y01464D01*
X008905Y014559D01*
X008881Y014467D01*
Y014373D01*
X008905Y014281D01*
X008953Y0142D01*
X00902Y014133D01*
X009101Y014085D01*
X009193Y014061D01*
X009287D01*
X009379Y014085D01*
X00946Y014133D01*
X009527Y0142D01*
X009575Y014281D01*
X009599Y014373D01*
Y014467D01*
X009575Y014559D01*
X009527Y01464D01*
X00946Y014707D01*
X009379Y014755D01*
X009287Y014779D01*
D02*
G37*
G36*
X008287D02*
X008193D01*
X008101Y014755D01*
X00802Y014707D01*
X007953Y01464D01*
X007905Y014559D01*
X007881Y014467D01*
Y014373D01*
X007905Y014281D01*
X007953Y0142D01*
X00802Y014133D01*
X008101Y014085D01*
X008193Y014061D01*
X008287D01*
X008379Y014085D01*
X00846Y014133D01*
X008527Y0142D01*
X008575Y014281D01*
X008599Y014373D01*
Y014467D01*
X008575Y014559D01*
X008527Y01464D01*
X00846Y014707D01*
X008379Y014755D01*
X008287Y014779D01*
D02*
G37*
G36*
X002313Y014594D02*
X002063D01*
X001991Y01458D01*
X00193Y014539D01*
X001889Y014478D01*
X001875Y014406D01*
Y013956D01*
X001889Y013884D01*
X00193Y013823D01*
X001991Y013783D01*
X002063Y013769D01*
X002313D01*
X002384Y013783D01*
X002445Y013823D01*
X002486Y013884D01*
X0025Y013956D01*
Y014406D01*
X002486Y014478D01*
X002445Y014539D01*
X002384Y01458D01*
X002313Y014594D01*
D02*
G37*
G36*
X0185Y014003D02*
X0183D01*
Y013709D01*
X0185D01*
Y014003D01*
D02*
G37*
G36*
X0182D02*
X018D01*
Y013709D01*
X0182D01*
Y014003D01*
D02*
G37*
G36*
X034115Y014235D02*
X033915D01*
X033821Y014223D01*
X033733Y014186D01*
X033658Y014129D01*
X033601Y014054D01*
X033565Y013967D01*
X033552Y013873D01*
X033565Y013779D01*
X033601Y013692D01*
X033658Y013617D01*
X033733Y013559D01*
X033821Y013523D01*
X033915Y013511D01*
X034115D01*
X034208Y013523D01*
X034296Y013559D01*
X034371Y013617D01*
X034428Y013692D01*
X034464Y013779D01*
X034477Y013873D01*
X034464Y013967D01*
X034428Y014054D01*
X034371Y014129D01*
X034296Y014186D01*
X034208Y014223D01*
X034115Y014235D01*
D02*
G37*
G36*
X033115D02*
X032915D01*
X032821Y014223D01*
X032733Y014186D01*
X032658Y014129D01*
X032601Y014054D01*
X032565Y013967D01*
X032552Y013873D01*
X032565Y013779D01*
X032601Y013692D01*
X032658Y013617D01*
X032733Y013559D01*
X032821Y013523D01*
X032915Y013511D01*
X033115D01*
X033208Y013523D01*
X033296Y013559D01*
X033371Y013617D01*
X033428Y013692D01*
X033464Y013779D01*
X033477Y013873D01*
X033464Y013967D01*
X033428Y014054D01*
X033371Y014129D01*
X033296Y014186D01*
X033208Y014223D01*
X033115Y014235D01*
D02*
G37*
G36*
X0052Y013644D02*
X005D01*
Y01335D01*
X0052D01*
Y013644D01*
D02*
G37*
G36*
X0049D02*
X0047D01*
Y01335D01*
X0049D01*
Y013644D01*
D02*
G37*
G36*
X0202Y013403D02*
X019906D01*
Y013203D01*
X0202D01*
Y013403D01*
D02*
G37*
G36*
X009287Y013779D02*
X009193D01*
X009101Y013755D01*
X00902Y013707D01*
X008953Y01364D01*
X008905Y013559D01*
X008881Y013467D01*
Y013373D01*
X008905Y013281D01*
X008953Y0132D01*
X00902Y013133D01*
X009101Y013085D01*
X009193Y013061D01*
X009287D01*
X009379Y013085D01*
X00946Y013133D01*
X009527Y0132D01*
X009575Y013281D01*
X009599Y013373D01*
Y013467D01*
X009575Y013559D01*
X009527Y01364D01*
X00946Y013707D01*
X009379Y013755D01*
X009287Y013779D01*
D02*
G37*
G36*
X008287D02*
X008193D01*
X008101Y013755D01*
X00802Y013707D01*
X007953Y01364D01*
X007905Y013559D01*
X007881Y013467D01*
Y013373D01*
X007905Y013281D01*
X007953Y0132D01*
X00802Y013133D01*
X008101Y013085D01*
X008193Y013061D01*
X008287D01*
X008379Y013085D01*
X00846Y013133D01*
X008527Y0132D01*
X008575Y013281D01*
X008599Y013373D01*
Y013467D01*
X008575Y013559D01*
X008527Y01364D01*
X00846Y013707D01*
X008379Y013755D01*
X008287Y013779D01*
D02*
G37*
G36*
X013319Y015024D02*
X012901D01*
Y014418D01*
X01302D01*
Y013076D01*
X012948Y013004D01*
X01197D01*
X01197Y013007D01*
X011934Y013094D01*
X011876Y013169D01*
X011801Y013226D01*
X011714Y013263D01*
X01162Y013275D01*
X01142D01*
X011326Y013263D01*
X011239Y013226D01*
X011164Y013169D01*
X011107Y013094D01*
X01107Y013007D01*
X011058Y012913D01*
X01107Y012819D01*
X011107Y012732D01*
X011164Y012657D01*
X011239Y012599D01*
X011326Y012563D01*
X01142Y012551D01*
X01162D01*
X011714Y012563D01*
X011801Y012599D01*
X011876Y012657D01*
X011934Y012732D01*
X01197Y012819D01*
X01197Y012822D01*
X012985D01*
X01302Y012829D01*
X013049Y012849D01*
X013175Y012974D01*
X013194Y013003D01*
X013201Y013038D01*
Y014418D01*
X013319D01*
Y015024D01*
D02*
G37*
G36*
X006059Y014503D02*
X005641D01*
Y013897D01*
X005759D01*
Y013603D01*
X005641D01*
Y012997D01*
X006059D01*
Y013603D01*
X005941D01*
Y013897D01*
X006059D01*
Y014503D01*
D02*
G37*
G36*
X0052Y01325D02*
X005D01*
Y012956D01*
X0052D01*
Y01325D01*
D02*
G37*
G36*
X0049D02*
X0047D01*
Y012956D01*
X0049D01*
Y01325D01*
D02*
G37*
G36*
X0202Y013103D02*
X019906D01*
Y012903D01*
X0202D01*
Y013103D01*
D02*
G37*
G36*
X01644Y012717D02*
X01624D01*
Y012423D01*
X01644D01*
Y012717D01*
D02*
G37*
G36*
X01614D02*
X01594D01*
Y012423D01*
X01614D01*
Y012717D01*
D02*
G37*
G36*
X0058Y012397D02*
X0056D01*
Y012164D01*
X005551Y012153D01*
X00555Y012153D01*
X005501Y012203D01*
X005435Y01223D01*
X005365D01*
X0053Y012203D01*
X00525Y012153D01*
X005246Y012144D01*
X005159D01*
Y012356D01*
X004741D01*
Y01175D01*
X004859D01*
Y011481D01*
X004741D01*
Y010875D01*
X004859D01*
Y010606D01*
X004741D01*
Y010394D01*
X00171D01*
X001675Y010387D01*
X001646Y010367D01*
X001454Y010175D01*
X001435Y010146D01*
X001428Y010111D01*
Y008791D01*
X001268D01*
X001187Y008775D01*
X001118Y008729D01*
X001072Y008659D01*
X001055Y008578D01*
Y008278D01*
X001072Y008196D01*
X001118Y008127D01*
X001187Y008081D01*
X001268Y008065D01*
X001768D01*
X00185Y008081D01*
X001919Y008127D01*
X001965Y008196D01*
X001982Y008278D01*
Y008578D01*
X001965Y008659D01*
X001919Y008729D01*
X00185Y008775D01*
X001768Y008791D01*
X001609D01*
Y010074D01*
X001748Y010212D01*
X004741D01*
Y01D01*
X005159D01*
Y010606D01*
X005041D01*
Y010875D01*
X005159D01*
Y011481D01*
X005041D01*
Y01175D01*
X005159D01*
Y011962D01*
X005246D01*
X00525Y011952D01*
X0053Y011903D01*
X005365Y011876D01*
X005435D01*
X005501Y011903D01*
X00555Y011952D01*
X005551Y011952D01*
X0056Y011942D01*
Y011709D01*
X0058D01*
Y012053D01*
Y012397D01*
D02*
G37*
G36*
X0061D02*
X0059D01*
Y012103D01*
X0061D01*
Y012397D01*
D02*
G37*
G36*
X01644Y012323D02*
X01624D01*
Y012029D01*
X01644D01*
Y012323D01*
D02*
G37*
G36*
X01614D02*
X01594D01*
Y012029D01*
X01614D01*
Y012323D01*
D02*
G37*
G36*
X0061Y012003D02*
X0059D01*
Y011709D01*
X0061D01*
Y012003D01*
D02*
G37*
G36*
X019359Y014356D02*
X018941D01*
Y01375D01*
X019013D01*
Y01161D01*
X017254D01*
X017241Y011623D01*
X017175Y01165D01*
X017105D01*
X01704Y011623D01*
X017026Y01161D01*
X016399D01*
Y011776D01*
X015981D01*
Y01117D01*
X016399D01*
Y011336D01*
X017026D01*
X01704Y011323D01*
X017105Y011296D01*
X017175D01*
X017241Y011323D01*
X017254Y011336D01*
X019013D01*
Y010156D01*
X018941D01*
Y00955D01*
X019359D01*
Y010156D01*
X019287D01*
Y011473D01*
Y01375D01*
X019359D01*
Y014356D01*
D02*
G37*
G36*
X001004Y0129D02*
X000296D01*
Y0116D01*
X001004D01*
Y0129D01*
D02*
G37*
G36*
X003644Y011582D02*
X003397D01*
Y011394D01*
X003644D01*
Y011582D01*
D02*
G37*
G36*
X003297D02*
X00305D01*
Y011394D01*
X003297D01*
Y011582D01*
D02*
G37*
G36*
X015499Y012676D02*
X015081D01*
Y01207D01*
X015199D01*
Y011776D01*
X015081D01*
Y01117D01*
X015499D01*
Y011776D01*
X015381D01*
Y01207D01*
X015499D01*
Y012676D01*
D02*
G37*
G36*
X003644Y011294D02*
X003397D01*
Y011107D01*
X003644D01*
Y011294D01*
D02*
G37*
G36*
X003297D02*
X00305D01*
Y011107D01*
X003297D01*
Y011294D01*
D02*
G37*
G36*
X0202Y011003D02*
X019906D01*
Y010803D01*
X0202D01*
Y011003D01*
D02*
G37*
G36*
Y010703D02*
X019906D01*
Y010503D01*
X0202D01*
Y010703D01*
D02*
G37*
G36*
X0185Y010197D02*
X0183D01*
Y009903D01*
X0185D01*
Y010197D01*
D02*
G37*
G36*
X0182D02*
X018D01*
Y009903D01*
X0182D01*
Y010197D01*
D02*
G37*
G36*
X0185Y009803D02*
X0183D01*
Y009509D01*
X0185D01*
Y009803D01*
D02*
G37*
G36*
X0182D02*
X018D01*
Y009509D01*
X0182D01*
Y009803D01*
D02*
G37*
G36*
X005005Y009375D02*
X004798D01*
Y009227D01*
X005005D01*
Y009375D01*
D02*
G37*
G36*
X004698D02*
X00449D01*
Y009227D01*
X004698D01*
Y009375D01*
D02*
G37*
G36*
X028585Y01133D02*
X028515D01*
X02845Y011303D01*
X0284Y011253D01*
X028373Y011188D01*
Y011138D01*
X028341Y011105D01*
X028327Y011099D01*
X028265D01*
X0282Y011072D01*
X02815Y011022D01*
X028123Y010957D01*
Y010919D01*
X028087Y010881D01*
X028077Y01088D01*
X028015D01*
X02795Y010853D01*
X0279Y010803D01*
X027873Y010738D01*
Y010668D01*
X0279Y010602D01*
X02795Y010553D01*
X028015Y010526D01*
X028085D01*
X028151Y010553D01*
X0282Y010602D01*
X028204Y010612D01*
X032813D01*
X032924Y010501D01*
Y010212D01*
X032765D01*
X032683Y010196D01*
X032614Y01015D01*
X032568Y010081D01*
X032551Y009999D01*
Y009699D01*
X032568Y009618D01*
X032614Y009548D01*
X032683Y009502D01*
X032765Y009486D01*
X033265D01*
X033346Y009502D01*
X033415Y009548D01*
X033461Y009618D01*
X033478Y009699D01*
Y009999D01*
X033461Y010081D01*
X033415Y01015D01*
X033346Y010196D01*
X033265Y010212D01*
X033105D01*
Y010538D01*
X033098Y010573D01*
X033079Y010603D01*
X032914Y010767D01*
X032893Y010781D01*
X032897Y01082D01*
X032902Y010831D01*
X033744D01*
X033924Y010651D01*
Y010211D01*
X033915D01*
X033821Y010199D01*
X033733Y010163D01*
X033658Y010105D01*
X033601Y01003D01*
X033565Y009943D01*
X033552Y009849D01*
X033565Y009755D01*
X033601Y009668D01*
X033658Y009593D01*
X033733Y009536D01*
X033821Y009499D01*
X033864Y009494D01*
X033861Y009444D01*
X033618D01*
X033583Y009437D01*
X033554Y009417D01*
X033298Y009161D01*
X033296Y009163D01*
X033208Y009199D01*
X033115Y009211D01*
X032915D01*
X032821Y009199D01*
X032733Y009163D01*
X032658Y009105D01*
X032601Y00903D01*
X032565Y008943D01*
X032552Y008849D01*
X032565Y008755D01*
X032601Y008668D01*
X032658Y008593D01*
X032733Y008536D01*
X032821Y008499D01*
X032915Y008487D01*
X033115D01*
X033208Y008499D01*
X033296Y008536D01*
X033371Y008593D01*
X033428Y008668D01*
X033464Y008755D01*
X033477Y008849D01*
X033464Y008943D01*
X033428Y00903D01*
X033426Y009033D01*
X033656Y009262D01*
X03445D01*
X034485Y009269D01*
X034514Y009289D01*
X034639Y009414D01*
X034659Y009443D01*
X034666Y009478D01*
Y010978D01*
X034659Y011013D01*
X034639Y011042D01*
X034464Y011217D01*
X034435Y011237D01*
X0344Y011244D01*
X028704D01*
X0287Y011253D01*
X028651Y011303D01*
X028585Y01133D01*
D02*
G37*
G36*
X0118Y009347D02*
X0116D01*
Y009053D01*
X0118D01*
Y009347D01*
D02*
G37*
G36*
X0125D02*
X0123D01*
Y009053D01*
X0125D01*
Y009347D01*
D02*
G37*
G36*
X0122D02*
X012D01*
Y009053D01*
X0122D01*
Y009347D01*
D02*
G37*
G36*
X0115D02*
X0113D01*
Y009053D01*
X0115D01*
Y009347D01*
D02*
G37*
G36*
X005005Y009127D02*
X004798D01*
Y008978D01*
X005005D01*
Y009127D01*
D02*
G37*
G36*
X004698D02*
X00449D01*
Y008978D01*
X004698D01*
Y009127D01*
D02*
G37*
G36*
X01162Y011336D02*
X01142D01*
X011326Y011324D01*
X011239Y011288D01*
X011164Y01123D01*
X011107Y011155D01*
X01107Y011068D01*
X011058Y010974D01*
X01107Y01088D01*
X011107Y010793D01*
X011164Y010718D01*
X011239Y01066D01*
X011326Y010624D01*
X01142Y010612D01*
X01162D01*
X011714Y010624D01*
X011801Y01066D01*
X011876Y010718D01*
X011934Y010793D01*
X01197Y01088D01*
X01197Y010883D01*
X012967D01*
X013059Y01079D01*
Y009306D01*
X012941D01*
Y0087D01*
X013359D01*
Y009306D01*
X013241D01*
Y010828D01*
X013234Y010863D01*
X013214Y010892D01*
X013068Y011038D01*
X013039Y011058D01*
X013004Y011065D01*
X01197D01*
X01197Y011068D01*
X011934Y011155D01*
X011876Y01123D01*
X011801Y011288D01*
X011714Y011324D01*
X01162Y011336D01*
D02*
G37*
G36*
X0125Y008953D02*
X0123D01*
Y008659D01*
X0125D01*
Y008953D01*
D02*
G37*
G36*
X0122D02*
X012D01*
Y008659D01*
X0122D01*
Y008953D01*
D02*
G37*
G36*
X0118D02*
X0116D01*
Y008659D01*
X0118D01*
Y008953D01*
D02*
G37*
G36*
X0115D02*
X0113D01*
Y008659D01*
X0115D01*
Y008953D01*
D02*
G37*
G36*
X0183Y0089D02*
Y008453D01*
X018654D01*
Y008503D01*
X01864Y008607D01*
X0186Y008705D01*
X018535Y008788D01*
X018452Y008852D01*
X018355Y008893D01*
X0183Y0089D01*
D02*
G37*
G36*
X0182D02*
X018146Y008893D01*
X018048Y008852D01*
X017965Y008788D01*
X017901Y008705D01*
X01786Y008607D01*
X017847Y008503D01*
Y008453D01*
X0182D01*
Y0089D01*
D02*
G37*
G36*
X002618Y00879D02*
X002418D01*
X002325Y008778D01*
X002237Y008742D01*
X002162Y008684D01*
X002105Y008609D01*
X002069Y008522D01*
X002056Y008428D01*
X002069Y008334D01*
X002105Y008247D01*
X002162Y008172D01*
X002237Y008114D01*
X002325Y008078D01*
X002418Y008066D01*
X002618D01*
X002712Y008078D01*
X0028Y008114D01*
X002875Y008172D01*
X002932Y008247D01*
X002968Y008334D01*
X002981Y008428D01*
X002968Y008522D01*
X002932Y008609D01*
X002875Y008684D01*
X0028Y008742D01*
X002712Y008778D01*
X002618Y00879D01*
D02*
G37*
G36*
X01925Y008865D02*
X019156Y008853D01*
X019069Y008816D01*
X018994Y008759D01*
X018937Y008684D01*
X0189Y008597D01*
X018888Y008503D01*
Y008303D01*
X0189Y008209D01*
X018937Y008122D01*
X018994Y008047D01*
X019069Y007989D01*
X019156Y007953D01*
X01925Y007941D01*
X019344Y007953D01*
X019431Y007989D01*
X019506Y008047D01*
X019564Y008122D01*
X0196Y008209D01*
X019612Y008303D01*
Y008503D01*
X0196Y008597D01*
X019564Y008684D01*
X019506Y008759D01*
X019431Y008816D01*
X019344Y008853D01*
X01925Y008865D01*
D02*
G37*
G36*
X034115Y009211D02*
X033915D01*
X033821Y009199D01*
X033733Y009163D01*
X033658Y009105D01*
X033601Y00903D01*
X033565Y008943D01*
X033552Y008849D01*
X033565Y008755D01*
X033601Y008668D01*
X033658Y008593D01*
X033733Y008536D01*
X033821Y008499D01*
X033878Y008492D01*
Y008207D01*
X033821Y008199D01*
X033733Y008163D01*
X033658Y008105D01*
X033601Y00803D01*
X033565Y007943D01*
X03356Y00791D01*
X03351D01*
X033504Y007954D01*
X033464Y008051D01*
X0334Y008134D01*
X033316Y008199D01*
X033219Y008239D01*
X033115Y008253D01*
X033065D01*
Y007849D01*
Y007446D01*
X033115D01*
X033219Y007459D01*
X033316Y0075D01*
X0334Y007564D01*
X033464Y007647D01*
X033504Y007745D01*
X03351Y007788D01*
X03356D01*
X033565Y007755D01*
X033601Y007668D01*
X033658Y007593D01*
X033733Y007536D01*
X033821Y007499D01*
X033878Y007492D01*
Y007207D01*
X033821Y007199D01*
X033733Y007163D01*
X033658Y007105D01*
X033601Y00703D01*
X033565Y006943D01*
X03356Y00691D01*
X03351D01*
X033504Y006954D01*
X033464Y007051D01*
X0334Y007134D01*
X033316Y007199D01*
X033219Y007239D01*
X033115Y007253D01*
X033065D01*
Y006849D01*
Y006446D01*
X033115D01*
X033219Y006459D01*
X033316Y0065D01*
X0334Y006564D01*
X033464Y006647D01*
X033504Y006745D01*
X03351Y006788D01*
X03356D01*
X033565Y006755D01*
X033601Y006668D01*
X033658Y006593D01*
X033733Y006536D01*
X033821Y006499D01*
X033878Y006492D01*
Y006207D01*
X033821Y006199D01*
X033733Y006163D01*
X033658Y006105D01*
X033601Y00603D01*
X033565Y005943D01*
X03356Y00591D01*
X03351D01*
X033504Y005954D01*
X033464Y006051D01*
X0334Y006134D01*
X033316Y006199D01*
X033219Y006239D01*
X033115Y006253D01*
X033065D01*
Y005849D01*
Y005446D01*
X033115D01*
X033219Y005459D01*
X033316Y0055D01*
X0334Y005564D01*
X033464Y005647D01*
X033504Y005745D01*
X03351Y005788D01*
X03356D01*
X033565Y005755D01*
X033601Y005668D01*
X033658Y005593D01*
X033733Y005536D01*
X033821Y005499D01*
X033915Y005487D01*
X034115D01*
X034208Y005499D01*
X034296Y005536D01*
X034371Y005593D01*
X034428Y005668D01*
X034464Y005755D01*
X034477Y005849D01*
X034464Y005943D01*
X034428Y00603D01*
X034371Y006105D01*
X034296Y006163D01*
X034208Y006199D01*
X034151Y006207D01*
Y006492D01*
X034208Y006499D01*
X034296Y006536D01*
X034371Y006593D01*
X034428Y006668D01*
X034464Y006755D01*
X034477Y006849D01*
X034464Y006943D01*
X034428Y00703D01*
X034371Y007105D01*
X034296Y007163D01*
X034208Y007199D01*
X034151Y007207D01*
Y007492D01*
X034208Y007499D01*
X034296Y007536D01*
X034371Y007593D01*
X034428Y007668D01*
X034464Y007755D01*
X034477Y007849D01*
X034464Y007943D01*
X034428Y00803D01*
X034371Y008105D01*
X034296Y008163D01*
X034208Y008199D01*
X034151Y008207D01*
Y008492D01*
X034208Y008499D01*
X034296Y008536D01*
X034371Y008593D01*
X034428Y008668D01*
X034464Y008755D01*
X034477Y008849D01*
X034464Y008943D01*
X034428Y00903D01*
X034371Y009105D01*
X034296Y009163D01*
X034208Y009199D01*
X034115Y009211D01*
D02*
G37*
G36*
X018654Y008353D02*
X0183D01*
Y007906D01*
X018355Y007913D01*
X018452Y007953D01*
X018535Y008018D01*
X0186Y008101D01*
X01864Y008198D01*
X018654Y008303D01*
Y008353D01*
D02*
G37*
G36*
X0182D02*
X017847D01*
Y008303D01*
X01786Y008198D01*
X017901Y008101D01*
X017965Y008018D01*
X018048Y007953D01*
X018146Y007913D01*
X0182Y007906D01*
Y008353D01*
D02*
G37*
G36*
X032965Y008253D02*
X032915D01*
X03281Y008239D01*
X032713Y008199D01*
X032629Y008134D01*
X032565Y008051D01*
X032525Y007954D01*
X032518Y007899D01*
X032965D01*
Y008253D01*
D02*
G37*
G36*
X02939Y008211D02*
X02919D01*
X029096Y008199D01*
X029009Y008163D01*
X028934Y008105D01*
X028877Y00803D01*
X02884Y007943D01*
X028828Y007849D01*
X02884Y007755D01*
X028877Y007668D01*
X028934Y007593D01*
X029009Y007536D01*
X029096Y007499D01*
X02919Y007487D01*
X02939D01*
X029484Y007499D01*
X029571Y007536D01*
X029646Y007593D01*
X029704Y007668D01*
X02974Y007755D01*
X029752Y007849D01*
X02974Y007943D01*
X029704Y00803D01*
X029646Y008105D01*
X029571Y008163D01*
X029484Y008199D01*
X02939Y008211D01*
D02*
G37*
G36*
X02839D02*
X02819D01*
X028096Y008199D01*
X028009Y008163D01*
X027934Y008105D01*
X027877Y00803D01*
X02784Y007943D01*
X027828Y007849D01*
X02784Y007755D01*
X027877Y007668D01*
X027934Y007593D01*
X028009Y007536D01*
X028096Y007499D01*
X02819Y007487D01*
X02839D01*
X028484Y007499D01*
X028571Y007536D01*
X028646Y007593D01*
X028704Y007668D01*
X02874Y007755D01*
X028752Y007849D01*
X02874Y007943D01*
X028704Y00803D01*
X028646Y008105D01*
X028571Y008163D01*
X028484Y008199D01*
X02839Y008211D01*
D02*
G37*
G36*
X032965Y007799D02*
X032518D01*
X032525Y007745D01*
X032565Y007647D01*
X032629Y007564D01*
X032713Y0075D01*
X03281Y007459D01*
X032915Y007446D01*
X032965D01*
Y007799D01*
D02*
G37*
G36*
X002619Y00779D02*
X002419D01*
X002325Y007778D01*
X002237Y007742D01*
X002162Y007684D01*
X002105Y007609D01*
X002069Y007522D01*
X002056Y007428D01*
X002069Y007334D01*
X002105Y007247D01*
X002162Y007172D01*
X002237Y007114D01*
X002325Y007078D01*
X002419Y007066D01*
X002619D01*
X002712Y007078D01*
X0028Y007114D01*
X002875Y007172D01*
X002932Y007247D01*
X002968Y007334D01*
X002981Y007428D01*
X002968Y007522D01*
X002932Y007609D01*
X002875Y007684D01*
X0028Y007742D01*
X002712Y007778D01*
X002619Y00779D01*
D02*
G37*
G36*
X001619D02*
X001419D01*
X001325Y007778D01*
X001237Y007742D01*
X001162Y007684D01*
X001105Y007609D01*
X001069Y007522D01*
X001056Y007428D01*
X001069Y007334D01*
X001105Y007247D01*
X001162Y007172D01*
X001237Y007114D01*
X001325Y007078D01*
X001419Y007066D01*
X001619D01*
X001712Y007078D01*
X0018Y007114D01*
X001875Y007172D01*
X001932Y007247D01*
X001968Y007334D01*
X001981Y007428D01*
X001968Y007522D01*
X001932Y007609D01*
X001875Y007684D01*
X0018Y007742D01*
X001712Y007778D01*
X001619Y00779D01*
D02*
G37*
G36*
X032965Y007253D02*
X032915D01*
X03281Y007239D01*
X032713Y007199D01*
X032629Y007134D01*
X032565Y007051D01*
X032525Y006954D01*
X032518Y006899D01*
X032965D01*
Y007253D01*
D02*
G37*
G36*
X002469Y006831D02*
X002419D01*
X002314Y006818D01*
X002217Y006777D01*
X002133Y006713D01*
X002069Y00663D01*
X002046Y006573D01*
X001991D01*
X001968Y00663D01*
X001904Y006713D01*
X00182Y006777D01*
X001723Y006818D01*
X001619Y006831D01*
X001569D01*
Y006428D01*
Y006025D01*
X001619D01*
X001723Y006038D01*
X00182Y006079D01*
X001904Y006143D01*
X001968Y006226D01*
X001991Y006283D01*
X002046D01*
X002069Y006226D01*
X002133Y006143D01*
X002217Y006079D01*
X002314Y006038D01*
X002419Y006025D01*
X002469D01*
Y006428D01*
Y006831D01*
D02*
G37*
G36*
X02939Y007211D02*
X02919D01*
X029096Y007199D01*
X029009Y007163D01*
X028934Y007105D01*
X028877Y00703D01*
X02884Y006943D01*
X028828Y006849D01*
X02884Y006755D01*
X028877Y006668D01*
X028934Y006593D01*
X029009Y006536D01*
X029096Y006499D01*
X02919Y006487D01*
X02939D01*
X029484Y006499D01*
X029571Y006536D01*
X029646Y006593D01*
X029704Y006668D01*
X02974Y006755D01*
X029752Y006849D01*
X02974Y006943D01*
X029704Y00703D01*
X029646Y007105D01*
X029571Y007163D01*
X029484Y007199D01*
X02939Y007211D01*
D02*
G37*
G36*
X02839D02*
X02819D01*
X028096Y007199D01*
X028009Y007163D01*
X027934Y007105D01*
X027877Y00703D01*
X02784Y006943D01*
X027828Y006849D01*
X02784Y006755D01*
X027877Y006668D01*
X027934Y006593D01*
X028009Y006536D01*
X028096Y006499D01*
X02819Y006487D01*
X02839D01*
X028484Y006499D01*
X028571Y006536D01*
X028646Y006593D01*
X028704Y006668D01*
X02874Y006755D01*
X028752Y006849D01*
X02874Y006943D01*
X028704Y00703D01*
X028646Y007105D01*
X028571Y007163D01*
X028484Y007199D01*
X02839Y007211D01*
D02*
G37*
G36*
X002619Y006831D02*
X002569D01*
Y006478D01*
X003015D01*
X003008Y006532D01*
X002968Y00663D01*
X002904Y006713D01*
X00282Y006777D01*
X002723Y006818D01*
X002619Y006831D01*
D02*
G37*
G36*
X001469D02*
X001419D01*
X001314Y006818D01*
X001217Y006777D01*
X001133Y006713D01*
X001069Y00663D01*
X001029Y006532D01*
X001022Y006478D01*
X001469D01*
Y006831D01*
D02*
G37*
G36*
X032965Y006799D02*
X032518D01*
X032525Y006745D01*
X032565Y006647D01*
X032629Y006564D01*
X032713Y0065D01*
X03281Y006459D01*
X032915Y006446D01*
X032965D01*
Y006799D01*
D02*
G37*
G36*
X003015Y006378D02*
X002569D01*
Y006025D01*
X002619D01*
X002723Y006038D01*
X00282Y006079D01*
X002904Y006143D01*
X002968Y006226D01*
X003008Y006324D01*
X003015Y006378D01*
D02*
G37*
G36*
X001469D02*
X001022D01*
X001029Y006324D01*
X001069Y006226D01*
X001133Y006143D01*
X001217Y006079D01*
X001314Y006038D01*
X001419Y006025D01*
X001469D01*
Y006378D01*
D02*
G37*
G36*
X032965Y006253D02*
X032915D01*
X03281Y006239D01*
X032713Y006199D01*
X032629Y006134D01*
X032565Y006051D01*
X032525Y005954D01*
X032518Y005899D01*
X032965D01*
Y006253D01*
D02*
G37*
G36*
X002619Y00579D02*
X002419D01*
X002325Y005778D01*
X002237Y005742D01*
X002162Y005684D01*
X002105Y005609D01*
X002086Y005565D01*
X001951D01*
X001932Y005609D01*
X001875Y005684D01*
X0018Y005742D01*
X001712Y005778D01*
X001619Y00579D01*
X001419D01*
X001325Y005778D01*
X001237Y005742D01*
X001162Y005684D01*
X001105Y005609D01*
X001069Y005522D01*
X001056Y005428D01*
X001069Y005334D01*
X001105Y005247D01*
X001162Y005172D01*
X001237Y005114D01*
X001325Y005078D01*
X001419Y005066D01*
X001619D01*
X001712Y005078D01*
X0018Y005114D01*
X001875Y005172D01*
X001932Y005247D01*
X001951Y005291D01*
X002086D01*
X002105Y005247D01*
X002162Y005172D01*
X002237Y005114D01*
X002325Y005078D01*
X002419Y005066D01*
X002619D01*
X002712Y005078D01*
X0028Y005114D01*
X002875Y005172D01*
X002932Y005247D01*
X002968Y005334D01*
X002981Y005428D01*
X002968Y005522D01*
X002932Y005609D01*
X002875Y005684D01*
X0028Y005742D01*
X002712Y005778D01*
X002619Y00579D01*
D02*
G37*
G36*
X02939Y006211D02*
X02919D01*
X029096Y006199D01*
X029009Y006163D01*
X028934Y006105D01*
X028877Y00603D01*
X02884Y005943D01*
X028828Y005849D01*
X02884Y005755D01*
X028877Y005668D01*
X028934Y005593D01*
X029009Y005536D01*
X029096Y005499D01*
X02919Y005487D01*
X02939D01*
X029484Y005499D01*
X029571Y005536D01*
X029646Y005593D01*
X029704Y005668D01*
X02974Y005755D01*
X029752Y005849D01*
X02974Y005943D01*
X029704Y00603D01*
X029646Y006105D01*
X029571Y006163D01*
X029484Y006199D01*
X02939Y006211D01*
D02*
G37*
G36*
X02839D02*
X02819D01*
X028096Y006199D01*
X028009Y006163D01*
X027934Y006105D01*
X027877Y00603D01*
X02784Y005943D01*
X027828Y005849D01*
X02784Y005755D01*
X027877Y005668D01*
X027934Y005593D01*
X028009Y005536D01*
X028096Y005499D01*
X02819Y005487D01*
X02839D01*
X028484Y005499D01*
X028571Y005536D01*
X028646Y005593D01*
X028704Y005668D01*
X02874Y005755D01*
X028752Y005849D01*
X02874Y005943D01*
X028704Y00603D01*
X028646Y006105D01*
X028571Y006163D01*
X028484Y006199D01*
X02839Y006211D01*
D02*
G37*
G36*
X032965Y005799D02*
X032518D01*
X032525Y005745D01*
X032565Y005647D01*
X032629Y005564D01*
X032713Y0055D01*
X03281Y005459D01*
X032915Y005446D01*
X032965D01*
Y005799D01*
D02*
G37*
G36*
Y005253D02*
X032915D01*
X03281Y005239D01*
X032713Y005199D01*
X032629Y005134D01*
X032565Y005051D01*
X032525Y004954D01*
X032518Y004899D01*
X032965D01*
Y005253D01*
D02*
G37*
G36*
X02939Y005211D02*
X02919D01*
X029096Y005199D01*
X029009Y005163D01*
X028934Y005105D01*
X028877Y00503D01*
X02884Y004943D01*
X028828Y004849D01*
X02884Y004755D01*
X028877Y004668D01*
X028934Y004593D01*
X029009Y004536D01*
X029096Y004499D01*
X02919Y004487D01*
X02939D01*
X029484Y004499D01*
X029571Y004536D01*
X029646Y004593D01*
X029704Y004668D01*
X02974Y004755D01*
X029752Y004849D01*
X02974Y004943D01*
X029704Y00503D01*
X029646Y005105D01*
X029571Y005163D01*
X029484Y005199D01*
X02939Y005211D01*
D02*
G37*
G36*
X02839D02*
X02819D01*
X028096Y005199D01*
X028009Y005163D01*
X027934Y005105D01*
X027877Y00503D01*
X02784Y004943D01*
X027828Y004849D01*
X02784Y004755D01*
X027877Y004668D01*
X027934Y004593D01*
X028009Y004536D01*
X028096Y004499D01*
X02819Y004487D01*
X02839D01*
X028484Y004499D01*
X028571Y004536D01*
X028646Y004593D01*
X028704Y004668D01*
X02874Y004755D01*
X028752Y004849D01*
X02874Y004943D01*
X028704Y00503D01*
X028646Y005105D01*
X028571Y005163D01*
X028484Y005199D01*
X02839Y005211D01*
D02*
G37*
G36*
X032965Y004799D02*
X032518D01*
X032525Y004745D01*
X032565Y004647D01*
X032629Y004564D01*
X032713Y0045D01*
X03281Y00446D01*
X032915Y004446D01*
X032965D01*
Y004799D01*
D02*
G37*
G36*
Y004253D02*
X032915D01*
X03281Y004239D01*
X032713Y004199D01*
X032629Y004134D01*
X032565Y004051D01*
X032525Y003954D01*
X032518Y003899D01*
X032965D01*
Y004253D01*
D02*
G37*
G36*
Y003799D02*
X032518D01*
X032525Y003745D01*
X032565Y003647D01*
X032629Y003564D01*
X032713Y0035D01*
X03281Y00346D01*
X032915Y003446D01*
X032965D01*
Y003799D01*
D02*
G37*
G36*
Y003253D02*
X032915D01*
X03281Y003239D01*
X032713Y003199D01*
X032629Y003134D01*
X032565Y003051D01*
X032525Y002954D01*
X032518Y002899D01*
X032965D01*
Y003253D01*
D02*
G37*
G36*
Y002799D02*
X032518D01*
X032525Y002745D01*
X032565Y002647D01*
X032629Y002564D01*
X032713Y0025D01*
X03281Y002459D01*
X032915Y002446D01*
X032965D01*
Y002799D01*
D02*
G37*
G36*
X024734Y00172D02*
X02444D01*
Y00152D01*
X024734D01*
Y00172D01*
D02*
G37*
G36*
X02434D02*
X024046D01*
Y00152D01*
X02434D01*
Y00172D01*
D02*
G37*
G36*
X024734Y00142D02*
X02444D01*
Y00122D01*
X024734D01*
Y00142D01*
D02*
G37*
G36*
X02434D02*
X024046D01*
Y00122D01*
X02434D01*
Y00142D01*
D02*
G37*
G36*
X018484D02*
X01819D01*
Y00122D01*
X018484D01*
Y00142D01*
D02*
G37*
G36*
X01809D02*
X017796D01*
Y00122D01*
X01809D01*
Y00142D01*
D02*
G37*
G36*
X012184D02*
X01189D01*
Y00122D01*
X012184D01*
Y00142D01*
D02*
G37*
G36*
X01179D02*
X011496D01*
Y00122D01*
X01179D01*
Y00142D01*
D02*
G37*
G36*
X02344Y001002D02*
X02339D01*
Y000648D01*
X023837D01*
X02383Y000703D01*
X023789Y0008D01*
X023725Y000884D01*
X023642Y000948D01*
X023544Y000988D01*
X02344Y001002D01*
D02*
G37*
G36*
X02329D02*
X02324D01*
X023136Y000988D01*
X023038Y000948D01*
X022955Y000884D01*
X022891Y0008D01*
X02285Y000703D01*
X022843Y000648D01*
X02329D01*
Y001002D01*
D02*
G37*
G36*
X01719D02*
X01714D01*
Y000648D01*
X017587D01*
X01758Y000703D01*
X017539Y0008D01*
X017475Y000884D01*
X017392Y000948D01*
X017294Y000988D01*
X01719Y001002D01*
D02*
G37*
G36*
X01704D02*
X01699D01*
X016886Y000988D01*
X016788Y000948D01*
X016705Y000884D01*
X016641Y0008D01*
X0166Y000703D01*
X016593Y000648D01*
X01704D01*
Y001002D01*
D02*
G37*
G36*
X01087D02*
X01082D01*
Y000648D01*
X011267D01*
X011259Y000703D01*
X011219Y0008D01*
X011155Y000884D01*
X011071Y000948D01*
X010974Y000988D01*
X01087Y001002D01*
D02*
G37*
G36*
X01072D02*
X01067D01*
X010565Y000988D01*
X010468Y000948D01*
X010384Y000884D01*
X01032Y0008D01*
X01028Y000703D01*
X010273Y000648D01*
X01072D01*
Y001002D01*
D02*
G37*
G36*
X03627Y001934D02*
X036133Y001921D01*
X036001Y001881D01*
X03588Y001816D01*
X035773Y001728D01*
X035686Y001622D01*
X035621Y0015D01*
X035581Y001368D01*
X035567Y001231D01*
X035581Y001094D01*
X035621Y000962D01*
X035686Y000841D01*
X035773Y000734D01*
X03588Y000647D01*
X036001Y000582D01*
X036133Y000542D01*
X03627Y000528D01*
X036408Y000542D01*
X036539Y000582D01*
X036661Y000647D01*
X036768Y000734D01*
X036855Y000841D01*
X03692Y000962D01*
X03696Y001094D01*
X036973Y001231D01*
X03696Y001368D01*
X03692Y0015D01*
X036855Y001622D01*
X036768Y001728D01*
X036661Y001816D01*
X036539Y001881D01*
X036408Y001921D01*
X03627Y001934D01*
D02*
G37*
G36*
X001231D02*
X001094Y001921D01*
X000962Y001881D01*
X000841Y001816D01*
X000734Y001728D01*
X000647Y001622D01*
X000582Y0015D01*
X000542Y001368D01*
X000528Y001231D01*
X000542Y001094D01*
X000582Y000962D01*
X000647Y000841D01*
X000734Y000734D01*
X000841Y000647D01*
X000962Y000582D01*
X001094Y000542D01*
X001231Y000528D01*
X001368Y000542D01*
X0015Y000582D01*
X001622Y000647D01*
X001728Y000734D01*
X001816Y000841D01*
X001881Y000962D01*
X001921Y001094D01*
X001934Y001231D01*
X001921Y001368D01*
X001881Y0015D01*
X001816Y001622D01*
X001728Y001728D01*
X001622Y001816D01*
X0015Y001881D01*
X001368Y001921D01*
X001231Y001934D01*
D02*
G37*
G36*
X020881Y00096D02*
X020681D01*
X020587Y000948D01*
X0205Y000912D01*
X020425Y000854D01*
X020367Y000779D01*
X020331Y000692D01*
X020319Y000598D01*
X020331Y000505D01*
X020367Y000417D01*
X020425Y000342D01*
X0205Y000285D01*
X020587Y000249D01*
X020681Y000236D01*
X020881D01*
X020975Y000249D01*
X021062Y000285D01*
X021137Y000342D01*
X021195Y000417D01*
X021231Y000505D01*
X021243Y000598D01*
X021231Y000692D01*
X021195Y000779D01*
X021137Y000854D01*
X021062Y000912D01*
X020975Y000948D01*
X020881Y00096D01*
D02*
G37*
G36*
X014631D02*
X014431D01*
X014337Y000948D01*
X01425Y000912D01*
X014175Y000854D01*
X014117Y000779D01*
X014081Y000692D01*
X014069Y000598D01*
X014081Y000505D01*
X014117Y000417D01*
X014175Y000342D01*
X01425Y000285D01*
X014337Y000249D01*
X014431Y000236D01*
X014631D01*
X014725Y000249D01*
X014812Y000285D01*
X014887Y000342D01*
X014945Y000417D01*
X014981Y000505D01*
X014993Y000598D01*
X014981Y000692D01*
X014945Y000779D01*
X014887Y000854D01*
X014812Y000912D01*
X014725Y000948D01*
X014631Y00096D01*
D02*
G37*
G36*
X008311D02*
X008111D01*
X008017Y000948D01*
X00793Y000912D01*
X007855Y000854D01*
X007797Y000779D01*
X007761Y000692D01*
X007748Y000598D01*
X007761Y000505D01*
X007797Y000417D01*
X007855Y000342D01*
X00793Y000285D01*
X008017Y000249D01*
X008111Y000236D01*
X008311D01*
X008404Y000249D01*
X008492Y000285D01*
X008567Y000342D01*
X008624Y000417D01*
X00866Y000505D01*
X008673Y000598D01*
X00866Y000692D01*
X008624Y000779D01*
X008567Y000854D01*
X008492Y000912D01*
X008404Y000948D01*
X008311Y00096D01*
D02*
G37*
%LPD*%
G36*
X036395Y022955D02*
X036511Y022907D01*
X03661Y022831D01*
X036687Y022731D01*
X036735Y022615D01*
X036751Y022491D01*
X036735Y022367D01*
X036687Y022251D01*
X03661Y022151D01*
X036511Y022075D01*
X036395Y022027D01*
X03627Y02201D01*
X036146Y022027D01*
X03603Y022075D01*
X035931Y022151D01*
X035854Y022251D01*
X035806Y022367D01*
X03579Y022491D01*
X035806Y022615D01*
X035854Y022731D01*
X035931Y022831D01*
X03603Y022907D01*
X036146Y022955D01*
X03627Y022972D01*
X036395Y022955D01*
D02*
G37*
G36*
X026159D02*
X026275Y022907D01*
X026374Y022831D01*
X02645Y022731D01*
X026498Y022615D01*
X026515Y022491D01*
X026498Y022367D01*
X02645Y022251D01*
X026374Y022151D01*
X026275Y022075D01*
X026159Y022027D01*
X026034Y02201D01*
X02591Y022027D01*
X025794Y022075D01*
X025694Y022151D01*
X025618Y022251D01*
X02557Y022367D01*
X025554Y022491D01*
X02557Y022615D01*
X025618Y022731D01*
X025694Y022831D01*
X025794Y022907D01*
X02591Y022955D01*
X026034Y022972D01*
X026159Y022955D01*
D02*
G37*
G36*
X001355D02*
X001471Y022907D01*
X001571Y022831D01*
X001647Y022731D01*
X001695Y022615D01*
X001712Y022491D01*
X001695Y022367D01*
X001647Y022251D01*
X001571Y022151D01*
X001471Y022075D01*
X001355Y022027D01*
X001231Y02201D01*
X001107Y022027D01*
X000991Y022075D01*
X000891Y022151D01*
X000815Y022251D01*
X000767Y022367D01*
X00075Y022491D01*
X000767Y022615D01*
X000815Y022731D01*
X000891Y022831D01*
X000991Y022907D01*
X001107Y022955D01*
X001231Y022972D01*
X001355Y022955D01*
D02*
G37*
G36*
X022684Y022775D02*
X022673Y022764D01*
X022653Y022735D01*
X022646Y0227D01*
Y02241D01*
X022434D01*
Y022294D01*
X0216D01*
X021565Y022287D01*
X021536Y022267D01*
X020993Y021724D01*
X018365D01*
X018346Y02177D01*
X018671Y022096D01*
X019307D01*
Y021977D01*
X019914D01*
Y022395D01*
X019701D01*
Y022735D01*
X019787Y022821D01*
X022665D01*
X022684Y022775D01*
D02*
G37*
G36*
X019603Y022894D02*
X019546Y022837D01*
X019526Y022808D01*
X01952Y022773D01*
Y022395D01*
X019307D01*
Y022277D01*
X018634D01*
X018599Y02227D01*
X018569Y022251D01*
X018162Y021843D01*
X015434D01*
X015415Y021889D01*
X015611Y022086D01*
X01618D01*
Y021967D01*
X016787D01*
Y022385D01*
X016574D01*
Y022819D01*
X016696Y02294D01*
X019584D01*
X019603Y022894D01*
D02*
G37*
G36*
X016512Y023013D02*
X016419Y022921D01*
X0164Y022891D01*
X016393Y022856D01*
Y022385D01*
X01618D01*
Y022267D01*
X015574D01*
X015539Y02226D01*
X015509Y022241D01*
X015231Y021962D01*
X014465D01*
Y022101D01*
X01412D01*
X013776D01*
Y021962D01*
X01366D01*
Y022365D01*
X013448D01*
Y022912D01*
X013595Y023059D01*
X016493D01*
X016512Y023013D01*
D02*
G37*
G36*
X013054Y021962D02*
X010198D01*
X010177Y022012D01*
X010231Y022066D01*
X013054D01*
Y021962D01*
D02*
G37*
G36*
X029036Y021198D02*
X029009Y021186D01*
X028934Y021129D01*
X028877Y021054D01*
X02884Y020967D01*
X028828Y020873D01*
X02884Y020779D01*
X028877Y020692D01*
X028878Y020689D01*
X028633Y020444D01*
X027135D01*
X027116Y02049D01*
X027408Y020782D01*
X027827D01*
Y020723D01*
X027843Y020641D01*
X027889Y020572D01*
X027959Y020526D01*
X02804Y02051D01*
X02854D01*
X028622Y020526D01*
X028691Y020572D01*
X028737Y020641D01*
X028753Y020723D01*
Y021023D01*
X028737Y021104D01*
X028691Y021174D01*
X028655Y021198D01*
X02867Y021248D01*
X029026D01*
X029036Y021198D01*
D02*
G37*
G36*
X028071Y020212D02*
X028009Y020186D01*
X027934Y020129D01*
X027877Y020054D01*
X02784Y019967D01*
X02784Y019964D01*
X02748D01*
X027445Y019957D01*
X027416Y019937D01*
X026837Y019358D01*
X026249D01*
X02623Y019405D01*
X027088Y020262D01*
X028061D01*
X028071Y020212D01*
D02*
G37*
G36*
X027836Y017339D02*
X027865Y017319D01*
X0279Y017312D01*
X028636D01*
X028655Y017266D01*
X028574Y017185D01*
X028571Y017186D01*
X028484Y017223D01*
X02839Y017235D01*
X02819D01*
X028096Y017223D01*
X028009Y017186D01*
X027934Y017129D01*
X027877Y017054D01*
X02784Y016967D01*
X027828Y016873D01*
X02784Y016779D01*
X027877Y016692D01*
X027934Y016617D01*
X028009Y016559D01*
X028096Y016523D01*
X02819Y016511D01*
X02839D01*
X028484Y016523D01*
X028571Y016559D01*
X028646Y016617D01*
X028704Y016692D01*
X02874Y016779D01*
X028752Y016873D01*
X02874Y016967D01*
X028704Y017054D01*
X028702Y017056D01*
X028908Y017262D01*
X029061D01*
X029071Y017212D01*
X029009Y017186D01*
X028934Y017129D01*
X028877Y017054D01*
X02884Y016967D01*
X028828Y016873D01*
X02884Y016779D01*
X028877Y016692D01*
X028934Y016617D01*
X029009Y016559D01*
X029096Y016523D01*
X02919Y016511D01*
X02939D01*
X029484Y016523D01*
X029571Y016559D01*
X029646Y016617D01*
X029704Y016692D01*
X02974Y016779D01*
X02974Y016782D01*
X030043D01*
X030209Y016615D01*
Y016287D01*
X030163Y016268D01*
X030014Y016417D01*
X029985Y016437D01*
X02995Y016444D01*
X02887D01*
X028835Y016437D01*
X028806Y016417D01*
X028574Y016185D01*
X028571Y016186D01*
X028484Y016223D01*
X02839Y016235D01*
X02819D01*
X028096Y016223D01*
X028009Y016186D01*
X027934Y016129D01*
X027877Y016054D01*
X02784Y015967D01*
X027828Y015873D01*
X02784Y015779D01*
X027877Y015692D01*
X027934Y015617D01*
X028009Y015559D01*
X028096Y015523D01*
X02819Y015511D01*
X02839D01*
X028484Y015523D01*
X028571Y015559D01*
X028646Y015617D01*
X028704Y015692D01*
X02874Y015779D01*
X028752Y015873D01*
X02874Y015967D01*
X028704Y016054D01*
X028702Y016056D01*
X028908Y016262D01*
X029061D01*
X029071Y016212D01*
X029009Y016186D01*
X028934Y016129D01*
X028877Y016054D01*
X02884Y015967D01*
X028828Y015873D01*
X02884Y015779D01*
X028877Y015692D01*
X028934Y015617D01*
X029009Y015559D01*
X029096Y015523D01*
X02919Y015511D01*
X02939D01*
X029484Y015523D01*
X029571Y015559D01*
X029646Y015617D01*
X029704Y015692D01*
X02974Y015779D01*
X02974Y015782D01*
X029843D01*
X029959Y015665D01*
Y015234D01*
X029913Y015215D01*
X029711Y015417D01*
X029682Y015437D01*
X029647Y015444D01*
X02887D01*
X028835Y015437D01*
X028806Y015417D01*
X028574Y015185D01*
X028571Y015186D01*
X028484Y015223D01*
X02839Y015235D01*
X02819D01*
X028096Y015223D01*
X028009Y015186D01*
X027934Y015129D01*
X027877Y015054D01*
X02784Y014967D01*
X027828Y014873D01*
X02784Y014779D01*
X027877Y014692D01*
X027934Y014617D01*
X028009Y014559D01*
X028096Y014523D01*
X02819Y014511D01*
X02839D01*
X028484Y014523D01*
X028571Y014559D01*
X028646Y014617D01*
X028704Y014692D01*
X02874Y014779D01*
X028752Y014873D01*
X02874Y014967D01*
X028704Y015054D01*
X028702Y015056D01*
X028908Y015262D01*
X029061D01*
X029071Y015212D01*
X029009Y015186D01*
X028934Y015129D01*
X028877Y015054D01*
X02884Y014967D01*
X028828Y014873D01*
X02884Y014779D01*
X028877Y014692D01*
X028934Y014617D01*
X029009Y014559D01*
X029096Y014523D01*
X02919Y014511D01*
X02939D01*
X029484Y014523D01*
X029571Y014559D01*
X029574Y014561D01*
X02969Y014444D01*
Y014145D01*
X02964Y014133D01*
X029571Y014186D01*
X029484Y014223D01*
X02939Y014235D01*
X02919D01*
X029096Y014223D01*
X029009Y014186D01*
X028934Y014129D01*
X028877Y014054D01*
X02884Y013967D01*
X028828Y013873D01*
X02884Y013779D01*
X028877Y013692D01*
X028934Y013617D01*
X029009Y013559D01*
X029096Y013523D01*
X02919Y013511D01*
X02939D01*
X029484Y013523D01*
X029571Y013559D01*
X02964Y013612D01*
X02969Y013601D01*
Y013521D01*
X029413Y013244D01*
X026101D01*
X024378Y014967D01*
X024348Y014987D01*
X024313Y014994D01*
X022723D01*
X022688Y014987D01*
X022659Y014967D01*
X022421Y01473D01*
X022379Y014755D01*
X022287Y014779D01*
X022193D01*
X022101Y014755D01*
X02202Y014707D01*
X021953Y01464D01*
X021905Y014559D01*
X021881Y014467D01*
Y014373D01*
X021905Y014281D01*
X021953Y014199D01*
X02202Y014133D01*
X022101Y014085D01*
X022193Y014061D01*
X022287D01*
X022379Y014085D01*
X02246Y014133D01*
X022527Y014199D01*
X022575Y014281D01*
X022599Y014373D01*
Y014467D01*
X022575Y014559D01*
X02255Y014601D01*
X02276Y014812D01*
X023123D01*
X023129Y014762D01*
X023101Y014755D01*
X023019Y014707D01*
X022953Y01464D01*
X022905Y014559D01*
X022881Y014467D01*
Y014373D01*
X022905Y014281D01*
X022953Y014199D01*
X023019Y014133D01*
X023101Y014085D01*
X023193Y014061D01*
X023287D01*
X023379Y014085D01*
X02346Y014133D01*
X023527Y014199D01*
X023575Y014281D01*
X023587Y014329D01*
X02459D01*
X02488Y01404D01*
X024861Y013994D01*
X022723D01*
X022688Y013987D01*
X022659Y013967D01*
X022421Y01373D01*
X022379Y013755D01*
X022287Y013779D01*
X022193D01*
X022101Y013755D01*
X02202Y013707D01*
X021953Y01364D01*
X021905Y013559D01*
X021881Y013467D01*
Y013373D01*
X021905Y013281D01*
X021953Y013199D01*
X02202Y013133D01*
X022101Y013085D01*
X022193Y013061D01*
X022287D01*
X022379Y013085D01*
X02246Y013133D01*
X022527Y013199D01*
X022575Y013281D01*
X022599Y013373D01*
Y013467D01*
X022575Y013559D01*
X02255Y013601D01*
X02276Y013812D01*
X023123D01*
X023129Y013762D01*
X023101Y013755D01*
X023019Y013707D01*
X022953Y01364D01*
X022905Y013559D01*
X022881Y013467D01*
Y013373D01*
X022905Y013281D01*
X022953Y013199D01*
X023019Y013133D01*
X023101Y013085D01*
X023164Y013069D01*
X023157Y013019D01*
X022748D01*
X022713Y013012D01*
X022684Y012992D01*
X022421Y01273D01*
X022379Y012755D01*
X022287Y012779D01*
X022193D01*
X022101Y012755D01*
X02202Y012707D01*
X021953Y01264D01*
X021905Y012559D01*
X021881Y012467D01*
Y012373D01*
X021905Y012281D01*
X021953Y012199D01*
X02202Y012133D01*
X022101Y012085D01*
X022193Y012061D01*
X022287D01*
X022379Y012085D01*
X02246Y012133D01*
X022527Y012199D01*
X022575Y012281D01*
X022599Y012373D01*
Y012467D01*
X022575Y012559D01*
X02255Y012601D01*
X022785Y012837D01*
X025577D01*
X02572Y012695D01*
X025701Y012648D01*
X025605D01*
X02557Y012641D01*
X025541Y012622D01*
X02543Y012511D01*
X023587D01*
X023575Y012559D01*
X023527Y01264D01*
X02346Y012707D01*
X023379Y012755D01*
X023287Y012779D01*
X023193D01*
X023101Y012755D01*
X023019Y012707D01*
X022953Y01264D01*
X022905Y012559D01*
X022881Y012467D01*
Y012373D01*
X022905Y012281D01*
X022953Y012199D01*
X023019Y012133D01*
X023101Y012085D01*
X023193Y012061D01*
X023287D01*
X023379Y012085D01*
X02346Y012133D01*
X023527Y012199D01*
X023575Y012281D01*
X023587Y012329D01*
X025351D01*
X02537Y012283D01*
X025081Y011994D01*
X022723D01*
X022688Y011987D01*
X022659Y011967D01*
X022421Y01173D01*
X022379Y011755D01*
X022287Y011779D01*
X022193D01*
X022101Y011755D01*
X02202Y011707D01*
X021953Y01164D01*
X021905Y011559D01*
X021881Y011467D01*
Y011373D01*
X021905Y011281D01*
X021953Y011199D01*
X02202Y011133D01*
X022101Y011085D01*
X022193Y011061D01*
X022287D01*
X022379Y011085D01*
X02246Y011133D01*
X022527Y011199D01*
X022575Y011281D01*
X022599Y011373D01*
Y011467D01*
X022575Y011559D01*
X02255Y011601D01*
X02276Y011812D01*
X023123D01*
X023129Y011762D01*
X023101Y011755D01*
X023019Y011707D01*
X022953Y01164D01*
X022905Y011559D01*
X022881Y011467D01*
Y011373D01*
X022905Y011281D01*
X022953Y011199D01*
X023019Y011133D01*
X023101Y011085D01*
X023164Y011069D01*
X023157Y011019D01*
X022748D01*
X022713Y011012D01*
X022684Y010992D01*
X022421Y01073D01*
X022379Y010755D01*
X022287Y010779D01*
X022193D01*
X022101Y010755D01*
X02202Y010707D01*
X021953Y01064D01*
X021905Y010559D01*
X021881Y010467D01*
Y010373D01*
X021905Y010281D01*
X021953Y010199D01*
X02202Y010133D01*
X022052Y010114D01*
X022039Y010064D01*
X021908D01*
X021873Y010057D01*
X021844Y010037D01*
X021699Y009892D01*
X021653Y009911D01*
Y017043D01*
X023191Y018581D01*
X026593D01*
X027836Y017339D01*
D02*
G37*
G36*
X024531Y014557D02*
X024512Y014511D01*
X023587D01*
X023575Y014559D01*
X023527Y01464D01*
X02346Y014707D01*
X023379Y014755D01*
X023351Y014762D01*
X023357Y014812D01*
X024276D01*
X024531Y014557D01*
D02*
G37*
G36*
X025194Y013557D02*
X025175Y013511D01*
X023587D01*
X023575Y013559D01*
X023527Y01364D01*
X02346Y013707D01*
X023379Y013755D01*
X023351Y013762D01*
X023357Y013812D01*
X024939D01*
X025194Y013557D01*
D02*
G37*
G36*
X025518Y013065D02*
X025499Y013019D01*
X023323D01*
X023316Y013069D01*
X023379Y013085D01*
X02346Y013133D01*
X023527Y013199D01*
X023575Y013281D01*
X023587Y013329D01*
X025254D01*
X025518Y013065D01*
D02*
G37*
G36*
X014475Y012062D02*
X014462Y012044D01*
X010506D01*
X010491Y012063D01*
X010493Y012075D01*
X010517Y012112D01*
X014448D01*
X014475Y012062D01*
D02*
G37*
G36*
X025077Y011762D02*
X024826Y011511D01*
X023587D01*
X023575Y011559D01*
X023527Y01164D01*
X02346Y011707D01*
X023379Y011755D01*
X023351Y011762D01*
X023357Y011812D01*
X025057D01*
X025077Y011762D01*
D02*
G37*
G36*
X024767Y011283D02*
X024502Y011019D01*
X023323D01*
X023316Y011069D01*
X023379Y011085D01*
X02346Y011133D01*
X023527Y011199D01*
X023575Y011281D01*
X023587Y011329D01*
X024748D01*
X024767Y011283D01*
D02*
G37*
G36*
X024443Y010791D02*
X024163Y010511D01*
X023587D01*
X023575Y010559D01*
X023527Y01064D01*
X02346Y010707D01*
X023379Y010755D01*
X023287Y010779D01*
X023193D01*
X023101Y010755D01*
X023019Y010707D01*
X022953Y01064D01*
X022905Y010559D01*
X022881Y010467D01*
Y010373D01*
X022905Y010281D01*
X022953Y010199D01*
X023019Y010133D01*
X023052Y010114D01*
X023039Y010064D01*
X022441D01*
X022428Y010114D01*
X02246Y010133D01*
X022527Y010199D01*
X022575Y010281D01*
X022599Y010373D01*
Y010467D01*
X022575Y010559D01*
X02255Y010601D01*
X022785Y010837D01*
X024424D01*
X024443Y010791D01*
D02*
G37*
G36*
X030759Y009965D02*
Y009737D01*
X030713Y009718D01*
X030518Y009913D01*
X030489Y009933D01*
X030454Y00994D01*
X02974D01*
X02974Y009943D01*
X029704Y01003D01*
X029646Y010105D01*
X029572Y010162D01*
X029572Y010165D01*
X029583Y010212D01*
X030513D01*
X030759Y009965D01*
D02*
G37*
G36*
X023028Y009712D02*
X023019Y009707D01*
X022953Y00964D01*
X022905Y009559D01*
X022881Y009467D01*
Y009373D01*
X022905Y009281D01*
X022953Y009199D01*
X023019Y009133D01*
X023101Y009085D01*
X023138Y009076D01*
X023131Y009026D01*
X022763D01*
X02255Y009239D01*
X022575Y009281D01*
X022599Y009373D01*
Y009467D01*
X022575Y009559D01*
X022527Y00964D01*
X02246Y009707D01*
X022452Y009712D01*
X022466Y009762D01*
X023014D01*
X023028Y009712D01*
D02*
G37*
G36*
X026517Y009255D02*
Y008977D01*
X02647Y008958D01*
X026429Y008999D01*
X0264Y009019D01*
X026365Y009026D01*
X023348D01*
X023342Y009076D01*
X023379Y009085D01*
X02346Y009133D01*
X023527Y009199D01*
X023575Y009281D01*
X023587Y009329D01*
X026442D01*
X026517Y009255D01*
D02*
G37*
G36*
X006967Y010984D02*
Y009599D01*
X006977Y009547D01*
X007007Y009503D01*
X007186Y009323D01*
X007231Y009294D01*
X007283Y009283D01*
X007905D01*
X007905Y009281D01*
X007953Y0092D01*
X00802Y009133D01*
X008101Y009085D01*
X008193Y009061D01*
X008287D01*
X008379Y009085D01*
X00846Y009133D01*
X008527Y0092D01*
X008575Y009281D01*
X008599Y009373D01*
Y009467D01*
X008575Y009559D01*
X008574Y00956D01*
X008779Y009766D01*
X009021D01*
X009035Y009716D01*
X00902Y009707D01*
X008953Y00964D01*
X008905Y009559D01*
X008881Y009467D01*
Y009373D01*
X008905Y009281D01*
X008953Y0092D01*
X00902Y009133D01*
X009101Y009085D01*
X009193Y009061D01*
X009287D01*
X009379Y009085D01*
X00946Y009133D01*
X009527Y0092D01*
X009575Y009281D01*
X009587Y009329D01*
X009795D01*
X009828Y009296D01*
Y008918D01*
X009782Y008899D01*
X009714Y008967D01*
X009685Y008987D01*
X00965Y008994D01*
X008723D01*
X008688Y008987D01*
X008659Y008967D01*
X008421Y00873D01*
X008379Y008755D01*
X008287Y008779D01*
X008193D01*
X008101Y008755D01*
X00802Y008707D01*
X007953Y00864D01*
X007905Y008559D01*
X007881Y008467D01*
Y008373D01*
X007905Y008281D01*
X007953Y0082D01*
X00802Y008133D01*
X008101Y008085D01*
X008193Y008061D01*
X008287D01*
X008379Y008085D01*
X00846Y008133D01*
X008527Y0082D01*
X008575Y008281D01*
X008599Y008373D01*
Y008467D01*
X008575Y008559D01*
X00855Y008601D01*
X00876Y008812D01*
X009123D01*
X009129Y008762D01*
X009101Y008755D01*
X00902Y008707D01*
X008953Y00864D01*
X008905Y008559D01*
X008881Y008467D01*
Y008373D01*
X008905Y008281D01*
X008953Y0082D01*
X00902Y008133D01*
X009101Y008085D01*
X009193Y008061D01*
X009287D01*
X009379Y008085D01*
X009421Y00811D01*
X00959Y007941D01*
Y007509D01*
X009597Y007474D01*
X009617Y007445D01*
X009711Y007351D01*
X00974Y007331D01*
X009775Y007324D01*
X012808D01*
X012827Y007278D01*
X012686Y007137D01*
X012666Y007108D01*
X012659Y007073D01*
Y005612D01*
X012652Y005607D01*
X012586Y005621D01*
X01256Y005666D01*
X012486Y00574D01*
X012394Y005793D01*
X012293Y00582D01*
X01229D01*
Y00542D01*
Y00502D01*
X012293D01*
X012394Y005047D01*
X012486Y0051D01*
X01256Y005174D01*
X012586Y005219D01*
X012652Y005233D01*
X012659Y005228D01*
Y004968D01*
X012421Y00473D01*
X012379Y004755D01*
X012287Y004779D01*
X012193D01*
X012101Y004755D01*
X01202Y004707D01*
X011953Y00464D01*
X011905Y004559D01*
X011881Y004467D01*
Y004373D01*
X011905Y004281D01*
X011953Y0042D01*
X01202Y004133D01*
X012101Y004085D01*
X012193Y004061D01*
X012287D01*
X012379Y004085D01*
X01246Y004133D01*
X012527Y0042D01*
X012575Y004281D01*
X012599Y004373D01*
Y004467D01*
X012575Y004559D01*
X01255Y004601D01*
X012814Y004866D01*
X012834Y004895D01*
X012841Y00493D01*
Y005329D01*
X012891Y005335D01*
X012905Y005281D01*
X012953Y0052D01*
X013019Y005133D01*
X013101Y005085D01*
X013193Y005061D01*
X013287D01*
X013379Y005085D01*
X01346Y005133D01*
X013527Y0052D01*
X013575Y005281D01*
X013599Y005373D01*
Y005467D01*
X013575Y005559D01*
X013527Y00564D01*
X01346Y005707D01*
X013379Y005755D01*
X013331Y005767D01*
Y006929D01*
X013488Y007086D01*
X013789D01*
X013809Y00704D01*
X013686Y006917D01*
X013666Y006888D01*
X013659Y006853D01*
Y00491D01*
X013666Y004875D01*
X013686Y004846D01*
X01393Y004601D01*
X013905Y004559D01*
X013881Y004467D01*
Y004373D01*
X013905Y004281D01*
X013953Y0042D01*
X014019Y004133D01*
X014101Y004085D01*
X014193Y004061D01*
X014287D01*
X014379Y004085D01*
X01446Y004133D01*
X014527Y0042D01*
X014575Y004281D01*
X014599Y004373D01*
Y004467D01*
X014575Y004559D01*
X014527Y00464D01*
X01446Y004707D01*
X014379Y004755D01*
X014287Y004779D01*
X014193D01*
X014101Y004755D01*
X014059Y00473D01*
X013841Y004947D01*
Y005329D01*
X013891Y005335D01*
X013905Y005281D01*
X013953Y0052D01*
X014019Y005133D01*
X014101Y005085D01*
X014193Y005061D01*
X014287D01*
X014379Y005085D01*
X01446Y005133D01*
X014527Y0052D01*
X014575Y005281D01*
X014599Y005373D01*
Y005467D01*
X014575Y005559D01*
X014527Y00564D01*
X01446Y005707D01*
X014379Y005755D01*
X014331Y005767D01*
Y006765D01*
X014413Y006848D01*
X014771D01*
X01479Y006802D01*
X014686Y006697D01*
X014666Y006668D01*
X014659Y006633D01*
Y004803D01*
X014666Y004768D01*
X014686Y004739D01*
X014897Y004528D01*
X014881Y004467D01*
Y004373D01*
X014905Y004281D01*
X014953Y0042D01*
X015019Y004133D01*
X015101Y004085D01*
X015193Y004061D01*
X015287D01*
X015379Y004085D01*
X01546Y004133D01*
X015527Y0042D01*
X015575Y004281D01*
X015599Y004373D01*
Y004467D01*
X015575Y004559D01*
X015527Y00464D01*
X01546Y004707D01*
X015379Y004755D01*
X015287Y004779D01*
X015193D01*
X015101Y004755D01*
X015019Y004707D01*
X014997Y004685D01*
X014841Y00484D01*
Y005329D01*
X014891Y005335D01*
X014905Y005281D01*
X014953Y0052D01*
X015019Y005133D01*
X015101Y005085D01*
X015193Y005061D01*
X015287D01*
X015379Y005085D01*
X01546Y005133D01*
X015527Y0052D01*
X015575Y005281D01*
X015599Y005373D01*
Y005467D01*
X015575Y005559D01*
X015527Y00564D01*
X01546Y005707D01*
X015379Y005755D01*
X015331Y005767D01*
Y006505D01*
X015435Y00661D01*
X015733D01*
X015752Y006563D01*
X015686Y006497D01*
X015666Y006468D01*
X015659Y006433D01*
Y00491D01*
X015666Y004875D01*
X015686Y004846D01*
X01593Y004601D01*
X015905Y004559D01*
X015881Y004467D01*
Y004373D01*
X015905Y004281D01*
X015953Y0042D01*
X016019Y004133D01*
X016101Y004085D01*
X016193Y004061D01*
X016287D01*
X016379Y004085D01*
X01646Y004133D01*
X016527Y0042D01*
X016575Y004281D01*
X016599Y004373D01*
Y004467D01*
X016575Y004559D01*
X016527Y00464D01*
X01646Y004707D01*
X016379Y004755D01*
X016287Y004779D01*
X016193D01*
X016101Y004755D01*
X016059Y00473D01*
X015841Y004947D01*
Y005329D01*
X015891Y005335D01*
X015905Y005281D01*
X015953Y0052D01*
X016019Y005133D01*
X016101Y005085D01*
X016193Y005061D01*
X016287D01*
X016379Y005085D01*
X016421Y00511D01*
X016659Y004872D01*
Y004103D01*
X016666Y004068D01*
X016686Y004039D01*
X016739Y003986D01*
X01672Y00394D01*
X013377D01*
Y004085D01*
X013379Y004085D01*
X01346Y004133D01*
X013527Y0042D01*
X013575Y004281D01*
X013599Y004373D01*
Y004467D01*
X013575Y004559D01*
X013527Y00464D01*
X01346Y004707D01*
X013379Y004755D01*
X013287Y004779D01*
X013193D01*
X013101Y004755D01*
X013019Y004707D01*
X012953Y00464D01*
X012905Y004559D01*
X012881Y004467D01*
Y004373D01*
X012905Y004281D01*
X012953Y0042D01*
X013019Y004133D01*
X013101Y004085D01*
X013103Y004085D01*
Y00394D01*
X00995D01*
X009898Y003929D01*
X009854Y003899D01*
X009773Y003819D01*
X009743Y003775D01*
X009733Y003722D01*
Y003573D01*
X009661D01*
Y002967D01*
X009733D01*
Y002009D01*
X009593Y00187D01*
X005207D01*
X004937Y002139D01*
Y00284D01*
X00495D01*
X005032Y002856D01*
X005101Y002902D01*
X005147Y002971D01*
X005163Y003053D01*
Y003553D01*
X005147Y003634D01*
X005101Y003704D01*
X005032Y00375D01*
X00495Y003766D01*
X004937D01*
Y00484D01*
X00495D01*
X005032Y004856D01*
X005101Y004902D01*
X005147Y004971D01*
X005163Y005053D01*
Y005553D01*
X005147Y005634D01*
X005101Y005704D01*
X005032Y00575D01*
X00495Y005766D01*
X004937D01*
Y005903D01*
X004926Y005955D01*
X004897Y005999D01*
X004437Y006459D01*
Y007746D01*
X004607Y007916D01*
X004741D01*
Y00775D01*
X005159D01*
Y008163D01*
X005356Y008359D01*
X005399Y008346D01*
X005406Y008341D01*
Y007304D01*
X005375Y007269D01*
X005159D01*
Y007481D01*
X004741D01*
Y006875D01*
X005159D01*
Y007087D01*
X005375D01*
X005375Y007087D01*
X005425D01*
X00546Y007094D01*
X005489Y007113D01*
X005561Y007185D01*
X00558Y007215D01*
X005587Y007249D01*
Y008636D01*
X005634Y008645D01*
Y008645D01*
X006067D01*
Y008712D01*
X0062D01*
X006235Y008719D01*
X006264Y008739D01*
X006364Y008839D01*
X006384Y008868D01*
X006391Y008903D01*
Y010203D01*
X006384Y010238D01*
X006364Y010267D01*
X006264Y010367D01*
X006235Y010387D01*
X0062Y010394D01*
X006059D01*
Y010606D01*
X005647D01*
Y010875D01*
X006059D01*
Y011041D01*
X006909D01*
X006967Y010984D01*
D02*
G37*
G36*
X006209Y010165D02*
Y00894D01*
X006163Y008894D01*
X006067D01*
Y00896D01*
X005634D01*
Y00896D01*
X005587Y008969D01*
Y009219D01*
X005762Y009393D01*
X006067D01*
Y009708D01*
X005655D01*
X005626Y009755D01*
X005636Y009771D01*
X005647Y009823D01*
Y01D01*
X006059D01*
Y010212D01*
X006163D01*
X006209Y010165D01*
D02*
G37*
G36*
X021953Y009199D02*
X02202Y009133D01*
X022101Y009085D01*
X022193Y009061D01*
X022287D01*
X022379Y009085D01*
X022421Y00911D01*
X022661Y008871D01*
X02269Y008851D01*
X022725Y008844D01*
X026328D01*
X026397Y008774D01*
Y008446D01*
X026351Y008427D01*
X026294Y008484D01*
X026265Y008504D01*
X02623Y008511D01*
X023587D01*
X023575Y008559D01*
X023527Y00864D01*
X02346Y008707D01*
X023379Y008755D01*
X023287Y008779D01*
X023193D01*
X023101Y008755D01*
X02302Y008707D01*
X022953Y00864D01*
X022905Y008559D01*
X022881Y008467D01*
Y008373D01*
X022905Y008281D01*
X022953Y0082D01*
X02302Y008133D01*
X023081Y008097D01*
X023068Y008047D01*
X022741D01*
X02255Y008239D01*
X022575Y008281D01*
X022599Y008373D01*
Y008467D01*
X022575Y008559D01*
X022527Y00864D01*
X02246Y008707D01*
X022379Y008755D01*
X022287Y008779D01*
X022193D01*
X022101Y008755D01*
X02202Y008707D01*
X021953Y00864D01*
X021941Y00862D01*
X021891Y008634D01*
Y009206D01*
X021941Y00922D01*
X021953Y009199D01*
D02*
G37*
G36*
X026278Y008243D02*
Y00799D01*
X026232Y007971D01*
X026183Y008021D01*
X026153Y00804D01*
X026119Y008047D01*
X023412D01*
X023399Y008097D01*
X02346Y008133D01*
X023527Y0082D01*
X023575Y008281D01*
X023587Y008329D01*
X026192D01*
X026278Y008243D01*
D02*
G37*
G36*
X015251Y006682D02*
X015176Y006607D01*
X015156Y006577D01*
X015149Y006543D01*
Y005767D01*
X015101Y005755D01*
X015019Y005707D01*
X014953Y00564D01*
X014905Y005559D01*
X014891Y005505D01*
X014841Y005511D01*
Y006595D01*
X014974Y006729D01*
X015232D01*
X015251Y006682D01*
D02*
G37*
G36*
X014229Y006921D02*
X014176Y006867D01*
X014156Y006838D01*
X014149Y006803D01*
Y005767D01*
X014101Y005755D01*
X014019Y005707D01*
X013953Y00564D01*
X013905Y005559D01*
X013891Y005505D01*
X013841Y005511D01*
Y006815D01*
X013992Y006967D01*
X01421D01*
X014229Y006921D01*
D02*
G37*
G36*
X013304Y007159D02*
X013176Y007031D01*
X013156Y007001D01*
X013149Y006966D01*
Y005767D01*
X013101Y005755D01*
X013019Y005707D01*
X012953Y00564D01*
X012905Y005559D01*
X012891Y005505D01*
X012841Y005511D01*
Y007035D01*
X013011Y007205D01*
X013285D01*
X013304Y007159D01*
D02*
G37*
G36*
X022231Y003564D02*
X022231D01*
Y003398D01*
X019648D01*
X01948Y003566D01*
X0195Y003612D01*
X022226D01*
X022231Y003564D01*
D02*
G37*
G36*
X021953Y0082D02*
X02202Y008133D01*
X022101Y008085D01*
X022193Y008061D01*
X022287D01*
X022379Y008085D01*
X022421Y00811D01*
X022639Y007892D01*
X022669Y007872D01*
X022704Y007866D01*
X026081D01*
X026159Y007787D01*
Y003016D01*
X026113Y002997D01*
X025105Y004005D01*
X025076Y004025D01*
X025041Y004032D01*
X019371D01*
X019365Y004082D01*
X019379Y004085D01*
X01946Y004133D01*
X019527Y0042D01*
X019575Y004281D01*
X019599Y004373D01*
Y004467D01*
X019575Y004559D01*
X019527Y00464D01*
X01946Y004707D01*
X019379Y004755D01*
X019287Y004779D01*
X019193D01*
X019101Y004755D01*
X019019Y004707D01*
X018953Y00464D01*
X018905Y004559D01*
X018881Y004467D01*
Y004373D01*
X018905Y004281D01*
X018953Y0042D01*
X019019Y004133D01*
X019101Y004085D01*
X019115Y004082D01*
X019109Y004032D01*
X018371D01*
X018365Y004082D01*
X018379Y004085D01*
X01846Y004133D01*
X018527Y0042D01*
X018575Y004281D01*
X018599Y004373D01*
Y004467D01*
X018575Y004559D01*
X018527Y00464D01*
X01846Y004707D01*
X018379Y004755D01*
X018287Y004779D01*
X018193D01*
X018101Y004755D01*
X018019Y004707D01*
X017953Y00464D01*
X017905Y004559D01*
X017891Y004505D01*
X017841Y004511D01*
Y00491D01*
X017834Y004945D01*
X017814Y004974D01*
X01755Y005239D01*
X017575Y005281D01*
X017599Y005373D01*
Y005467D01*
X017575Y005559D01*
X017527Y00564D01*
X01746Y005707D01*
X017379Y005755D01*
X017287Y005779D01*
X017193D01*
X017101Y005755D01*
X017019Y005707D01*
X016953Y00564D01*
X016905Y005559D01*
X016881Y005467D01*
Y005373D01*
X016905Y005281D01*
X016953Y0052D01*
X017019Y005133D01*
X017101Y005085D01*
X017193Y005061D01*
X017287D01*
X017379Y005085D01*
X017421Y00511D01*
X017659Y004872D01*
Y0042D01*
X017609Y004179D01*
X01755Y004239D01*
X017575Y004281D01*
X017599Y004373D01*
Y004467D01*
X017575Y004559D01*
X017527Y00464D01*
X01746Y004707D01*
X017379Y004755D01*
X017287Y004779D01*
X017193D01*
X017101Y004755D01*
X017019Y004707D01*
X016953Y00464D01*
X016905Y004559D01*
X016891Y004505D01*
X016841Y004511D01*
Y00491D01*
X016834Y004945D01*
X016814Y004974D01*
X01655Y005239D01*
X016575Y005281D01*
X016599Y005373D01*
Y005467D01*
X016575Y005559D01*
X016527Y00564D01*
X01646Y005707D01*
X016379Y005755D01*
X016287Y005779D01*
X016193D01*
X016101Y005755D01*
X016019Y005707D01*
X015953Y00564D01*
X015905Y005559D01*
X015891Y005505D01*
X015841Y005511D01*
Y006395D01*
X015936Y006491D01*
X020929D01*
X020963Y006497D01*
X020993Y006517D01*
X021864Y007389D01*
X021884Y007418D01*
X021891Y007453D01*
Y008206D01*
X021941Y00822D01*
X021953Y0082D01*
D02*
G37*
G36*
X02784Y002755D02*
X027877Y002668D01*
X027934Y002593D01*
X028009Y002536D01*
X028076Y002508D01*
X028066Y002458D01*
X027157D01*
X026903Y002712D01*
X026922Y002758D01*
X02784D01*
X02784Y002755D01*
D02*
G37*
G36*
X026328Y002189D02*
X026309Y002142D01*
X024735D01*
X024693Y002161D01*
X024693Y002192D01*
Y002579D01*
X024087D01*
Y002461D01*
X02379D01*
X02379Y002464D01*
X023754Y002551D01*
X023696Y002626D01*
X023621Y002684D01*
X023534Y00272D01*
X02344Y002732D01*
X023431D01*
Y002958D01*
X023549D01*
Y003562D01*
X023549Y003564D01*
X023555Y003612D01*
X024905D01*
X026328Y002189D01*
D02*
G37*
G36*
X026159Y001695D02*
X026275Y001647D01*
X026374Y001571D01*
X02645Y001471D01*
X026498Y001355D01*
X026515Y001231D01*
X026498Y001107D01*
X02645Y000991D01*
X026374Y000891D01*
X026275Y000815D01*
X026159Y000767D01*
X026034Y00075D01*
X02591Y000767D01*
X025794Y000815D01*
X025694Y000891D01*
X025618Y000991D01*
X02557Y001107D01*
X025554Y001231D01*
X02557Y001355D01*
X025618Y001471D01*
X025694Y001571D01*
X025794Y001647D01*
X02591Y001695D01*
X026034Y001712D01*
X026159Y001695D01*
D02*
G37*
%LPC*%
G36*
X02042Y022728D02*
Y022563D01*
X020586D01*
X020555Y022636D01*
X020494Y022698D01*
X02042Y022728D01*
D02*
G37*
G36*
X02032D02*
X020247Y022698D01*
X020185Y022636D01*
X020155Y022563D01*
X02032D01*
Y022728D01*
D02*
G37*
G36*
X020593Y022463D02*
X020148D01*
X020133Y022441D01*
X020026D01*
Y022241D01*
X02037D01*
X020715D01*
Y022441D01*
X020607D01*
X020593Y022463D01*
D02*
G37*
G36*
X020715Y022141D02*
X02042D01*
Y021941D01*
X020715D01*
Y022141D01*
D02*
G37*
G36*
X02032D02*
X020026D01*
Y021941D01*
X02032D01*
Y022141D01*
D02*
G37*
G36*
X01724Y022728D02*
Y022563D01*
X017406D01*
X017375Y022636D01*
X017314Y022698D01*
X01724Y022728D01*
D02*
G37*
G36*
X01714D02*
X017067Y022698D01*
X017005Y022636D01*
X016975Y022563D01*
X01714D01*
Y022728D01*
D02*
G37*
G36*
X017407Y022463D02*
X016973D01*
X016946Y022423D01*
X016846D01*
Y022223D01*
X01719D01*
X017534D01*
Y022423D01*
X017434D01*
X017407Y022463D01*
D02*
G37*
G36*
X017534Y022123D02*
X01724D01*
Y021923D01*
X017534D01*
Y022123D01*
D02*
G37*
G36*
X01714D02*
X016846D01*
Y021923D01*
X01714D01*
Y022123D01*
D02*
G37*
G36*
X01417Y022738D02*
Y022573D01*
X014336D01*
X014305Y022646D01*
X014244Y022708D01*
X01417Y022738D01*
D02*
G37*
G36*
X01407D02*
X013997Y022708D01*
X013935Y022646D01*
X013905Y022573D01*
X01407D01*
Y022738D01*
D02*
G37*
G36*
X014336Y022473D02*
X013905D01*
X013917Y022443D01*
X013889Y022401D01*
X013776D01*
Y022201D01*
X01412D01*
X014465D01*
Y022401D01*
X014351D01*
X014323Y022443D01*
X014336Y022473D01*
D02*
G37*
G36*
X023287Y015779D02*
X023193D01*
X023101Y015755D01*
X023019Y015707D01*
X022953Y01564D01*
X022905Y015559D01*
X022881Y015467D01*
Y015373D01*
X022905Y015281D01*
X022953Y015199D01*
X023019Y015133D01*
X023101Y015085D01*
X023193Y015061D01*
X023287D01*
X023379Y015085D01*
X02346Y015133D01*
X023527Y015199D01*
X023575Y015281D01*
X023599Y015373D01*
Y015467D01*
X023575Y015559D01*
X023527Y01564D01*
X02346Y015707D01*
X023379Y015755D01*
X023287Y015779D01*
D02*
G37*
G36*
X022287D02*
X022193D01*
X022101Y015755D01*
X02202Y015707D01*
X021953Y01564D01*
X021905Y015559D01*
X021881Y015467D01*
Y015373D01*
X021905Y015281D01*
X021953Y015199D01*
X02202Y015133D01*
X022101Y015085D01*
X022193Y015061D01*
X022287D01*
X022379Y015085D01*
X02246Y015133D01*
X022527Y015199D01*
X022575Y015281D01*
X022599Y015373D01*
Y015467D01*
X022575Y015559D01*
X022527Y01564D01*
X02246Y015707D01*
X022379Y015755D01*
X022287Y015779D01*
D02*
G37*
G36*
X02839Y014235D02*
X02819D01*
X028096Y014223D01*
X028009Y014186D01*
X027934Y014129D01*
X027877Y014054D01*
X02784Y013967D01*
X027828Y013873D01*
X02784Y013779D01*
X027877Y013692D01*
X027934Y013617D01*
X028009Y013559D01*
X028096Y013523D01*
X02819Y013511D01*
X02839D01*
X028484Y013523D01*
X028571Y013559D01*
X028646Y013617D01*
X028704Y013692D01*
X02874Y013779D01*
X028752Y013873D01*
X02874Y013967D01*
X028704Y014054D01*
X028646Y014129D01*
X028571Y014186D01*
X028484Y014223D01*
X02839Y014235D01*
D02*
G37*
G36*
X006059Y008356D02*
X005641D01*
Y00775D01*
X005759D01*
Y007481D01*
X005641D01*
Y006875D01*
X006059D01*
Y007481D01*
X005941D01*
Y00775D01*
X006059D01*
Y008356D01*
D02*
G37*
G36*
X007085Y00698D02*
X007015D01*
X00695Y006953D01*
X0069Y006903D01*
X006873Y006838D01*
Y006768D01*
X0069Y006702D01*
X006946Y006656D01*
X006945Y00664D01*
X006932Y006606D01*
X006841D01*
Y006D01*
X007259D01*
Y006606D01*
X007169D01*
X007155Y00664D01*
X007154Y006656D01*
X0072Y006702D01*
X007227Y006768D01*
Y006838D01*
X0072Y006903D01*
X007151Y006953D01*
X007085Y00698D01*
D02*
G37*
G36*
X006359Y006606D02*
X005941D01*
Y006394D01*
X0059D01*
X005865Y006387D01*
X005836Y006367D01*
X005736Y006267D01*
X005716Y006238D01*
X005709Y006203D01*
Y005753D01*
X005706Y005753D01*
X005619Y005716D01*
X005544Y005659D01*
X005487Y005584D01*
X00545Y005497D01*
X005438Y005403D01*
Y005203D01*
X00545Y005109D01*
X005487Y005022D01*
X005544Y004947D01*
X005619Y004889D01*
X005706Y004853D01*
X0058Y004841D01*
X005894Y004853D01*
X005981Y004889D01*
X006056Y004947D01*
X006114Y005022D01*
X00615Y005109D01*
X006162Y005203D01*
Y005403D01*
X00615Y005497D01*
X006114Y005584D01*
X006056Y005659D01*
X005981Y005716D01*
X005894Y005753D01*
X005891Y005753D01*
Y006111D01*
X005891Y006111D01*
X005941Y006085D01*
Y006D01*
X006359D01*
Y006606D01*
D02*
G37*
G36*
X01219Y00582D02*
X012187D01*
X012086Y005793D01*
X011994Y00574D01*
X01192Y005666D01*
X011867Y005574D01*
X01184Y005473D01*
Y00547D01*
X01219D01*
Y00582D01*
D02*
G37*
G36*
X00685Y0058D02*
Y005353D01*
X007204D01*
Y005403D01*
X00719Y005507D01*
X00715Y005605D01*
X007085Y005688D01*
X007002Y005752D01*
X006905Y005793D01*
X00685Y0058D01*
D02*
G37*
G36*
X00675D02*
X006696Y005793D01*
X006598Y005752D01*
X006515Y005688D01*
X006451Y005605D01*
X00641Y005507D01*
X006397Y005403D01*
Y005353D01*
X00675D01*
Y0058D01*
D02*
G37*
G36*
X01219Y00537D02*
X01184D01*
Y005367D01*
X011867Y005266D01*
X01192Y005174D01*
X011994Y0051D01*
X012086Y005047D01*
X012187Y00502D01*
X01219D01*
Y00537D01*
D02*
G37*
G36*
X007204Y005253D02*
X00685D01*
Y004806D01*
X006905Y004813D01*
X007002Y004853D01*
X007085Y004918D01*
X00715Y005001D01*
X00719Y005098D01*
X007204Y005203D01*
Y005253D01*
D02*
G37*
G36*
X00675D02*
X006397D01*
Y005203D01*
X00641Y005098D01*
X006451Y005001D01*
X006515Y004918D01*
X006598Y004853D01*
X006696Y004813D01*
X00675Y004806D01*
Y005253D01*
D02*
G37*
G36*
X007259Y004606D02*
X006841D01*
Y004D01*
X007259D01*
Y004212D01*
X008646D01*
X00865Y004202D01*
X0087Y004153D01*
X008765Y004126D01*
X008835D01*
X008901Y004153D01*
X00895Y004202D01*
X008977Y004268D01*
Y004338D01*
X00895Y004403D01*
X008901Y004453D01*
X008835Y00448D01*
X008765D01*
X0087Y004453D01*
X00865Y004403D01*
X008646Y004394D01*
X007259D01*
Y004606D01*
D02*
G37*
G36*
X006359D02*
X005941D01*
Y004394D01*
X0059D01*
X005865Y004387D01*
X005836Y004367D01*
X005736Y004267D01*
X005716Y004238D01*
X005709Y004203D01*
Y003753D01*
X005706Y003753D01*
X005619Y003716D01*
X005544Y003659D01*
X005487Y003584D01*
X00545Y003497D01*
X005438Y003403D01*
Y003203D01*
X00545Y003109D01*
X005487Y003022D01*
X005544Y002947D01*
X005619Y002889D01*
X005706Y002853D01*
X0058Y002841D01*
X005894Y002853D01*
X005981Y002889D01*
X006056Y002947D01*
X006114Y003022D01*
X00615Y003109D01*
X006162Y003203D01*
Y003403D01*
X00615Y003497D01*
X006114Y003584D01*
X006056Y003659D01*
X005981Y003716D01*
X005894Y003753D01*
X005891Y003753D01*
Y004111D01*
X005891Y004111D01*
X005941Y004085D01*
Y004D01*
X006359D01*
Y004606D01*
D02*
G37*
G36*
X00685Y0038D02*
Y003353D01*
X007204D01*
Y003403D01*
X00719Y003507D01*
X00715Y003605D01*
X007085Y003688D01*
X007002Y003752D01*
X006905Y003793D01*
X00685Y0038D01*
D02*
G37*
G36*
X00675D02*
X006696Y003793D01*
X006598Y003752D01*
X006515Y003688D01*
X006451Y003605D01*
X00641Y003507D01*
X006397Y003403D01*
Y003353D01*
X00675D01*
Y0038D01*
D02*
G37*
G36*
X007204Y003253D02*
X00685D01*
Y002806D01*
X006905Y002813D01*
X007002Y002853D01*
X007085Y002918D01*
X00715Y003001D01*
X00719Y003098D01*
X007204Y003203D01*
Y003253D01*
D02*
G37*
G36*
X00675D02*
X006397D01*
Y003203D01*
X00641Y003098D01*
X006451Y003001D01*
X006515Y002918D01*
X006598Y002853D01*
X006696Y002813D01*
X00675Y002806D01*
Y003253D01*
D02*
G37*
G36*
X008461Y002733D02*
X007961D01*
X007879Y002717D01*
X00781Y002671D01*
X007764Y002602D01*
X007747Y00252D01*
Y00222D01*
X007764Y002138D01*
X00781Y002069D01*
X007879Y002023D01*
X007961Y002007D01*
X008461D01*
X008542Y002023D01*
X008611Y002069D01*
X008658Y002138D01*
X008674Y00222D01*
Y00252D01*
X008658Y002602D01*
X008611Y002671D01*
X008542Y002717D01*
X008461Y002733D01*
D02*
G37*
G36*
X018287Y005779D02*
X018193D01*
X018101Y005755D01*
X018019Y005707D01*
X017953Y00564D01*
X017905Y005559D01*
X017881Y005467D01*
Y005373D01*
X017905Y005281D01*
X017953Y0052D01*
X018019Y005133D01*
X018101Y005085D01*
X018193Y005061D01*
X018287D01*
X018379Y005085D01*
X01846Y005133D01*
X018527Y0052D01*
X018575Y005281D01*
X018599Y005373D01*
Y005467D01*
X018575Y005559D01*
X018527Y00564D01*
X01846Y005707D01*
X018379Y005755D01*
X018287Y005779D01*
D02*
G37*
G36*
X019287D02*
X019193D01*
X019101Y005755D01*
X019019Y005707D01*
X018953Y00564D01*
X018905Y005559D01*
X018881Y005467D01*
Y005373D01*
X018905Y005281D01*
X018953Y0052D01*
X019019Y005133D01*
X019101Y005085D01*
X019193Y005061D01*
X019287D01*
X019379Y005085D01*
X01946Y005133D01*
X019527Y0052D01*
X019575Y005281D01*
X019575Y005283D01*
X024276D01*
X024413Y005146D01*
Y004667D01*
X0244Y004653D01*
X024373Y004588D01*
Y004518D01*
X0244Y004452D01*
X02445Y004403D01*
X024515Y004376D01*
X024585D01*
X024651Y004403D01*
X0247Y004452D01*
X024727Y004518D01*
Y004588D01*
X0247Y004653D01*
X024687Y004667D01*
Y005203D01*
X024676Y005255D01*
X024647Y005299D01*
X02443Y005517D01*
X024385Y005546D01*
X024333Y005557D01*
X019575D01*
X019575Y005559D01*
X019527Y00564D01*
X01946Y005707D01*
X019379Y005755D01*
X019287Y005779D01*
D02*
G37*
%LPD*%
G36*
X034484Y01094D02*
Y010025D01*
X034434Y010015D01*
X034428Y01003D01*
X034371Y010105D01*
X034296Y010163D01*
X034208Y010199D01*
X034115Y010211D01*
X034105D01*
Y010688D01*
X034098Y010723D01*
X034079Y010753D01*
X033845Y010986D01*
X033816Y011006D01*
X033781Y011013D01*
X033783Y011062D01*
X034363D01*
X034484Y01094D01*
D02*
G37*
G36*
X036395Y001695D02*
X036511Y001647D01*
X03661Y001571D01*
X036687Y001471D01*
X036735Y001355D01*
X036751Y001231D01*
X036735Y001107D01*
X036687Y000991D01*
X03661Y000891D01*
X036511Y000815D01*
X036395Y000767D01*
X03627Y00075D01*
X036146Y000767D01*
X03603Y000815D01*
X035931Y000891D01*
X035854Y000991D01*
X035806Y001107D01*
X03579Y001231D01*
X035806Y001355D01*
X035854Y001471D01*
X035931Y001571D01*
X03603Y001647D01*
X036146Y001695D01*
X03627Y001712D01*
X036395Y001695D01*
D02*
G37*
G36*
X001355D02*
X001471Y001647D01*
X001571Y001571D01*
X001647Y001471D01*
X001695Y001355D01*
X001712Y001231D01*
X001695Y001107D01*
X001647Y000991D01*
X001571Y000891D01*
X001471Y000815D01*
X001355Y000767D01*
X001231Y00075D01*
X001107Y000767D01*
X000991Y000815D01*
X000891Y000891D01*
X000815Y000991D01*
X000767Y001107D01*
X00075Y001231D01*
X000767Y001355D01*
X000815Y001471D01*
X000891Y001571D01*
X000991Y001647D01*
X001107Y001695D01*
X001231Y001712D01*
X001355Y001695D01*
D02*
G37*
D13*
X0154Y015853D02*
D03*
D14*
X01221Y014721D02*
D03*
X01311D02*
D03*
X01529Y012373D02*
D03*
X01619D02*
D03*
X01915Y014053D02*
D03*
X01825D02*
D03*
X0095Y017353D02*
D03*
X0104D02*
D03*
X00615Y004303D02*
D03*
X00705D02*
D03*
X00615Y006303D02*
D03*
X00705D02*
D03*
X01314Y016683D02*
D03*
X01224D02*
D03*
X01225Y017353D02*
D03*
X01315D02*
D03*
X0095Y016553D02*
D03*
X0104D02*
D03*
X01915Y009853D02*
D03*
X01825D02*
D03*
X00585Y010303D02*
D03*
X00495D02*
D03*
X01529Y011473D02*
D03*
X01619D02*
D03*
X0154Y014853D02*
D03*
X0145D02*
D03*
X01225Y009003D02*
D03*
X01315D02*
D03*
X00495Y008053D02*
D03*
X00585D02*
D03*
X00495Y007178D02*
D03*
X00585D02*
D03*
X02334Y003261D02*
D03*
X02244D02*
D03*
X01709Y00327D02*
D03*
X01619D02*
D03*
X00987D02*
D03*
X01077D02*
D03*
X00495Y011178D02*
D03*
X00585D02*
D03*
X00585Y0142D02*
D03*
X00495D02*
D03*
X00585Y0133D02*
D03*
X00495D02*
D03*
X01155Y009003D02*
D03*
X01065D02*
D03*
X0145Y016853D02*
D03*
X0154D02*
D03*
X00585Y012053D02*
D03*
X00495D02*
D03*
D15*
X00065Y01225D02*
D03*
D16*
X003337Y013165D02*
D03*
Y01225D02*
D03*
X003347Y011344D02*
D03*
D17*
X004748Y009177D02*
D03*
X00585Y008803D02*
D03*
Y009551D02*
D03*
D18*
X006722Y015403D02*
D03*
X00495D02*
D03*
D19*
X02025Y009853D02*
D03*
Y010753D02*
D03*
Y014053D02*
D03*
Y013153D02*
D03*
X022737Y021301D02*
D03*
Y022201D02*
D03*
X0235Y021301D02*
D03*
Y022201D02*
D03*
X01184Y00237D02*
D03*
Y00147D02*
D03*
X01814Y00237D02*
D03*
Y00147D02*
D03*
X02439Y00237D02*
D03*
Y00147D02*
D03*
X01961Y021286D02*
D03*
Y022186D02*
D03*
X016484Y021276D02*
D03*
Y022176D02*
D03*
X013357Y021256D02*
D03*
Y022156D02*
D03*
X02037Y021291D02*
D03*
Y022191D02*
D03*
X01719Y021273D02*
D03*
Y022173D02*
D03*
X01412Y021251D02*
D03*
Y022151D02*
D03*
D41*
X026607Y003048D02*
Y009293D01*
X02324Y00942D02*
X02648D01*
X026607Y009293D01*
X022725Y008935D02*
X026365D01*
X026488Y002999D02*
Y008812D01*
X026365Y008935D02*
X026488Y008812D01*
X026369Y002949D02*
Y008281D01*
X02623Y00842D02*
X026369Y008281D01*
X02324Y00842D02*
X02623D01*
X022704Y007956D02*
X026119D01*
X02625Y0029D02*
Y007825D01*
X026119Y007956D02*
X02625Y007825D01*
X02712Y002367D02*
X028808D01*
X02929Y002849D01*
X0229Y00325D02*
X023329D01*
X02334Y003261D01*
X026992Y001653D02*
X0304D01*
X02975Y003353D02*
X02985Y003253D01*
X026607Y003048D02*
X026806Y002849D01*
X02707Y002248D02*
X029695D01*
X02625Y0029D02*
X027021Y002129D01*
X03Y002253D02*
Y003753D01*
X030302Y001891D02*
X030612Y002201D01*
X028887Y003353D02*
X02975D01*
X030351Y001772D02*
X030731Y002152D01*
X027041Y001772D02*
X030351D01*
X026806Y002849D02*
X02829D01*
X02985Y002403D02*
Y003253D01*
X0304Y001653D02*
X03085Y002103D01*
X027021Y002129D02*
X029876D01*
X03085Y002103D02*
Y010003D01*
X026369Y002949D02*
X02707Y002248D01*
X027091Y001891D02*
X030302D01*
X02839Y003849D02*
X028887Y003353D01*
X026488Y002999D02*
X02712Y002367D01*
X017912Y003941D02*
X025041D01*
X02929Y003849D02*
X029904D01*
X029876Y002129D02*
X03Y002253D01*
X025041Y003941D02*
X027091Y001891D01*
X030612Y002201D02*
Y009091D01*
X029904Y003849D02*
X03Y003753D01*
X024991Y003822D02*
X027041Y001772D01*
X02224Y00842D02*
X022704Y007956D01*
X024942Y003703D02*
X026992Y001653D01*
X030731Y002152D02*
Y009572D01*
X017839Y003822D02*
X024991D01*
X01779Y003703D02*
X024942D01*
X029695Y002248D02*
X02985Y002403D01*
X02224Y00942D02*
X022725Y008935D01*
X02224Y01042D02*
X022748Y010928D01*
X02454D02*
X025813Y0122D01*
X022748Y010928D02*
X02454D01*
X025615Y012928D02*
X025866Y012677D01*
X02224Y01242D02*
X022748Y012928D01*
X025615D01*
X009775Y007415D02*
X020583D01*
X009681Y007509D02*
X009775Y007415D01*
X0098Y007653D02*
X009919Y007534D01*
X020534D01*
X009919Y007784D02*
Y009334D01*
X01005Y007653D02*
X020485D01*
X009919Y007784D02*
X01005Y007653D01*
X0098Y007653D02*
Y008753D01*
X009681Y007509D02*
Y007979D01*
X00924Y00842D02*
X009681Y007979D01*
X013004Y010974D02*
X01315Y010828D01*
X01152Y010974D02*
X013004D01*
X01315Y009003D02*
Y010828D01*
X01311Y013038D02*
Y014721D01*
X01152Y012913D02*
X012985D01*
X01311Y013038D01*
X025322Y021553D02*
X0268D01*
X02283Y022793D02*
X02356D01*
X025219Y021303D02*
X026887D01*
X023609Y022912D02*
X025219Y021303D01*
X013557Y02315D02*
X023725D01*
X022737Y022201D02*
Y0227D01*
X016658Y023031D02*
X023666D01*
X019749Y022912D02*
X023609D01*
X023725Y02315D02*
X025322Y021553D01*
X02356Y022793D02*
X025169Y021184D01*
X023666Y023031D02*
X02527Y021427D01*
X026842D01*
X022737Y0227D02*
X02283Y022793D01*
X01961Y022773D02*
X019749Y022912D01*
X013357Y02295D02*
X013557Y02315D01*
X016484Y022856D02*
X016658Y023031D01*
X0104Y012303D02*
Y015603D01*
Y012303D02*
X0105Y012203D01*
X0104Y015603D02*
X01075Y015953D01*
X009833Y00942D02*
X009919Y009334D01*
X00965Y008903D02*
X0098Y008753D01*
X008723Y008903D02*
X00965D01*
X022723Y014903D02*
X024313D01*
X02224Y01442D02*
X022723Y014903D01*
X01675Y017653D02*
Y01893D01*
X01695Y017453D02*
X020587D01*
X01675Y017653D02*
X01695Y017453D01*
X01775Y017803D02*
Y01893D01*
X017981Y017572D02*
X020538D01*
X01775Y017803D02*
X017981Y017572D01*
X018362Y017691D02*
X020488D01*
X01824Y017813D02*
X018362Y017691D01*
X01824Y017813D02*
Y01842D01*
X020587Y017453D02*
X022759Y019625D01*
X020538Y017572D02*
X022709Y019744D01*
X020488Y017691D02*
X02266Y019863D01*
X00924Y00942D02*
X009833D01*
X020848Y007847D02*
Y017377D01*
X020682Y007177D02*
X021205Y007699D01*
X020633Y007296D02*
X021086Y007749D01*
X020967Y007798D02*
Y017328D01*
X020583Y007415D02*
X020967Y007798D01*
X020729Y007897D02*
Y017426D01*
X021086Y007749D02*
Y017278D01*
X021205Y007699D02*
Y017229D01*
X020485Y007653D02*
X020729Y007897D01*
X020534Y007534D02*
X020848Y007847D01*
X03523Y012341D02*
Y012683D01*
X034391Y011843D02*
X034732D01*
X035111Y01239D02*
Y012732D01*
X034634Y012081D02*
X034992Y01244D01*
X034683Y011962D02*
X035111Y01239D01*
X034279Y012081D02*
X034634D01*
X03418Y012319D02*
X034535D01*
X034584Y0122D02*
X034873Y012489D01*
Y012844D01*
X034535Y012319D02*
X034754Y012538D01*
X034635Y012588D02*
Y016353D01*
X034754Y012538D02*
Y012893D01*
X034341Y011962D02*
X034683D01*
X034229Y0122D02*
X034584D01*
X034486Y012439D02*
X034635Y012588D01*
X025654Y012439D02*
X034486D01*
X034732Y011843D02*
X03523Y012341D01*
X034992Y01244D02*
Y012795D01*
X034754Y012893D02*
Y017199D01*
X034873Y012844D02*
Y01776D01*
X025862Y012081D02*
X034279D01*
X034992Y012795D02*
Y018202D01*
X025813Y0122D02*
X034229D01*
X025763Y012319D02*
X03418D01*
X0058Y005303D02*
Y006203D01*
X0059Y006303D02*
X00615D01*
X0058Y006203D02*
X0059Y006303D01*
X00705Y004303D02*
X00715D01*
X0058Y003303D02*
Y004203D01*
X0059Y004303D02*
X00615D01*
X0058Y004203D02*
X0059Y004303D01*
X00715D02*
X0087D01*
X0088D01*
X0105Y012203D02*
X01485D01*
X01045Y011953D02*
X01465D01*
X010259Y012144D02*
Y015803D01*
Y012144D02*
X01045Y011953D01*
X010715Y017353D02*
X01075Y017318D01*
Y015953D02*
Y017318D01*
X0104Y017353D02*
X010715D01*
X0104Y015944D02*
Y016553D01*
X010259Y015803D02*
X0104Y015944D01*
X0095Y017353D02*
X00955D01*
X00835D02*
X0095D01*
X0079Y016653D02*
Y017903D01*
X008Y016553D02*
X0095D01*
X0079Y016653D02*
X008Y016553D01*
X007614Y012539D02*
Y020056D01*
X007733Y01242D02*
X00824D01*
X007614Y012539D02*
X007733Y01242D01*
X007614Y020056D02*
X008211Y020653D01*
X00705Y006303D02*
Y006803D01*
X022723Y013903D02*
X024977D01*
X02919Y015873D02*
X02929D01*
X02224Y01342D02*
X022723Y013903D01*
X024977D02*
X025965Y012915D01*
X024313Y014903D02*
X026063Y013153D01*
X02945D01*
X02929Y015873D02*
X02988D01*
X009902Y021481D02*
Y021621D01*
X009783Y012566D02*
Y021746D01*
X00924Y01242D02*
X009637D01*
X009902Y012105D02*
Y021481D01*
X010292Y021871D02*
X015268D01*
X010341Y021752D02*
X018199D01*
X010021Y021432D02*
Y021572D01*
X01014Y011033D02*
Y021523D01*
X01025Y021633D02*
X02103D01*
X010194Y022156D02*
X013357D01*
X009827Y01142D02*
X010021Y011614D01*
Y021572D02*
X010201Y021752D01*
X010152Y021871D02*
X010292D01*
X010021Y011614D02*
Y021432D01*
X009637Y01242D02*
X009783Y012566D01*
X01014Y021523D02*
X01025Y021633D01*
X01001Y010903D02*
X01014Y011033D01*
X010201Y021752D02*
X010341D01*
X009783Y021746D02*
X010194Y022156D01*
X009902Y021621D02*
X010152Y021871D01*
X00972Y011923D02*
X009902Y012105D01*
X00171Y010303D02*
X00495D01*
X001518Y010111D02*
X00171Y010303D01*
X001518Y008428D02*
Y010111D01*
X008211Y020653D02*
Y021237D01*
X015899Y006581D02*
X020929D01*
X01575Y006433D02*
X015899Y006581D01*
X01575Y00491D02*
Y006433D01*
X012973Y007296D02*
X020633D01*
X01275Y007073D02*
X012973Y007296D01*
X01275Y00493D02*
Y007073D01*
X015398Y0067D02*
X020879D01*
X01524Y006543D02*
X015398Y0067D01*
X01524Y00542D02*
Y006543D01*
X01475Y004803D02*
Y006633D01*
X014937Y006819D02*
X02083D01*
X01475Y006633D02*
X014937Y006819D01*
X034015Y018873D02*
X03506D01*
X03523Y018703D01*
Y012683D02*
Y018703D01*
X023922Y009973D02*
X025911Y011962D01*
X021681Y009746D02*
X021908Y009973D01*
X023922D01*
X025833Y019744D02*
X025901Y019811D01*
X026812Y018791D02*
X02773Y017873D01*
X023055Y01891D02*
X026893D01*
X02745Y018353D01*
X023153Y018672D02*
X026631D01*
X026003Y019506D02*
X02737Y020873D01*
X022808Y019506D02*
X026003D01*
X021324Y01718D02*
X023055Y01891D01*
X026996Y019149D02*
X0272Y019353D01*
X021562Y017081D02*
X023153Y018672D01*
X022759Y019625D02*
X02589D01*
X026084Y019387D02*
X02705Y020353D01*
X022956Y019149D02*
X026996D01*
X020848Y017377D02*
X022857Y019387D01*
X022709Y019744D02*
X025833D01*
X027074Y019029D02*
X02723Y018873D01*
X02266Y019863D02*
X025784D01*
X021205Y017229D02*
X023005Y019029D01*
X022857Y019387D02*
X026084D01*
X025901Y019811D02*
X025909D01*
X023005Y019029D02*
X027074D01*
X023104Y018791D02*
X026812D01*
X026875Y019268D02*
X02748Y019873D01*
X022907Y019268D02*
X026875D01*
X02589Y019625D02*
X027604Y021339D01*
X025784Y019863D02*
X027497Y021577D01*
X020729Y017426D02*
X022808Y019506D01*
X021086Y017278D02*
X022956Y019149D01*
X021443Y01713D02*
X023104Y018791D01*
X026631Y018672D02*
X0279Y017403D01*
X020967Y017328D02*
X022907Y019268D01*
X025909Y019811D02*
X027555Y021458D01*
X031959Y016044D02*
Y019453D01*
X029954Y021458D02*
X031959Y019453D01*
X030151Y021934D02*
X031732Y020353D01*
X0273Y022053D02*
X0302D01*
X030003Y021577D02*
X0321Y01948D01*
X030052Y021696D02*
X032345Y019403D01*
X033445D01*
X031732Y020353D02*
X033395D01*
X030102Y021815D02*
X032044Y019873D01*
X033015D01*
X03184Y015113D02*
Y019403D01*
X0302Y022053D02*
X03138Y020873D01*
X033015D01*
X027555Y021458D02*
X029954D01*
X027399Y021815D02*
X030102D01*
X027497Y021577D02*
X030003D01*
X027448Y021696D02*
X030052D01*
X0321Y016503D02*
Y01948D01*
X027349Y021934D02*
X030151D01*
X027604Y021339D02*
X029904D01*
X03184Y019403D01*
X025911Y011962D02*
X034341D01*
X024864Y01142D02*
X025763Y012319D01*
X022Y009853D02*
X02397D01*
X02324Y01142D02*
X024864D01*
X02324Y01042D02*
X024201D01*
X02397Y009853D02*
X025961Y011843D01*
X034391D01*
X024201Y01042D02*
X025862Y012081D01*
X0346Y017353D02*
X034754Y017199D01*
X03498Y018403D02*
X035111Y018272D01*
X03476Y017873D02*
X034873Y01776D01*
X035111Y012732D02*
Y018272D01*
X034115Y016873D02*
X034635Y016353D01*
X03491Y018284D02*
X034992Y018202D01*
X033585Y018403D02*
X03498D01*
X034015Y017873D02*
X03476D01*
X033526Y018284D02*
X03491D01*
X033595Y017353D02*
X0346D01*
X034015Y016873D02*
X034115D01*
X02748Y019873D02*
X02829D01*
X01961Y022186D02*
Y022773D01*
X016484Y022176D02*
Y022856D01*
X013357Y022156D02*
Y02295D01*
X01675Y004103D02*
X016886Y003967D01*
X017526D01*
X01779Y003703D01*
X017588Y004072D02*
X017589D01*
X017839Y003822D01*
X01724Y00442D02*
X017588Y004072D01*
X01775Y004103D02*
X017912Y003941D01*
X01775Y004103D02*
Y00491D01*
X008743Y011923D02*
X00972D01*
X00824Y01142D02*
X008743Y011923D01*
X00924Y01142D02*
X009827D01*
X018199Y021752D02*
X018634Y022186D01*
X02103Y021633D02*
X0216Y022203D01*
X015268Y021871D02*
X015574Y022176D01*
X008723Y010903D02*
X01001D01*
X01424Y017903D02*
X01438Y017763D01*
X01424Y017903D02*
Y01842D01*
X01438Y017763D02*
X01614D01*
X016253Y01765D01*
Y016372D02*
Y01765D01*
X02976Y012558D02*
X03045Y013248D01*
X025119Y011903D02*
X025654Y012439D01*
X02324Y01242D02*
X025467D01*
X026014Y013034D02*
X029499D01*
X025605Y012558D02*
X02976D01*
X025965Y012915D02*
X029612D01*
X025866Y012677D02*
X029711D01*
X029661Y012796D02*
X030169Y013304D01*
X025915Y012796D02*
X029661D01*
X025467Y01242D02*
X025605Y012558D01*
X029711Y012677D02*
X0303Y013266D01*
X029612Y012915D02*
X03005Y013353D01*
X025291Y01342D02*
X025915Y012796D01*
X02945Y013153D02*
X029781Y013484D01*
X024628Y01442D02*
X026014Y013034D01*
X018634Y022186D02*
X01961D01*
X022735Y022203D02*
X022737Y022201D01*
X0216Y022203D02*
X022735D01*
X022737Y021301D02*
X0235D01*
X020366Y021286D02*
X02037Y021291D01*
X01961Y021286D02*
X020366D01*
X016487Y021273D02*
X01719D01*
X016484Y021276D02*
X016487Y021273D01*
X013357Y021256D02*
X013362Y021251D01*
X01412D01*
X00495Y012053D02*
X0054D01*
X00585Y007178D02*
Y008053D01*
X00495Y007178D02*
X005375D01*
X005497Y009256D02*
X005791Y009551D01*
X005375Y007178D02*
X005425D01*
X005497Y007249D01*
X005375Y007178D02*
X005375Y007178D01*
X005497Y007249D02*
Y009256D01*
X005791Y009551D02*
X00585D01*
Y008803D02*
X0062D01*
X0063Y008903D01*
Y010203D01*
X0062Y010303D02*
X0063Y010203D01*
X00585Y010303D02*
X0062D01*
X00585Y0133D02*
Y0142D01*
X00495Y011178D02*
Y012053D01*
Y010303D02*
Y011178D01*
X0272Y019353D02*
X02867D01*
X026842Y021427D02*
X027349Y021934D01*
X026887Y021303D02*
X027399Y021815D01*
X0268Y021553D02*
X0273Y022053D01*
X025169Y021184D02*
X026936D01*
X027448Y021696D01*
X03225Y016353D02*
X033435D01*
X0321Y016503D02*
X03225Y016353D01*
X031959Y016044D02*
X03213Y015873D01*
X033015D01*
X033115Y018873D02*
X033585Y018403D01*
X033115Y017873D02*
X033526Y018284D01*
X033015Y018873D02*
X033115D01*
X0344Y011153D02*
X034575Y010978D01*
X033618Y009353D02*
X03445D01*
X034575Y009478D02*
Y010978D01*
X03445Y009353D02*
X034575Y009478D01*
X033115Y008849D02*
X033618Y009353D01*
X02805Y010703D02*
X03285D01*
X033015Y010538D01*
Y009849D02*
Y010538D01*
X0283Y010922D02*
X033781D01*
X034015Y009849D02*
Y010688D01*
X033781Y010922D02*
X034015Y010688D01*
X02855Y011153D02*
X0344D01*
X01077Y00237D02*
X01184D01*
X01077D02*
Y00327D01*
X01675Y004103D02*
Y00491D01*
X020731Y007058D02*
X021324Y00765D01*
X01324Y00542D02*
Y006966D01*
X021681Y007502D02*
Y009746D01*
X01375Y00491D02*
Y006853D01*
X020879Y0067D02*
X021681Y007502D01*
X01324Y006966D02*
X01345Y007177D01*
X0218Y007453D02*
Y009653D01*
X020929Y006581D02*
X0218Y007453D01*
X014376Y006939D02*
X020781D01*
X013955Y007058D02*
X020731D01*
X01424Y00542D02*
Y006803D01*
X020781Y006939D02*
X021443Y007601D01*
X01345Y007177D02*
X020682D01*
X01375Y006853D02*
X013955Y007058D01*
X01424Y006803D02*
X014376Y006939D01*
X01709Y00237D02*
X01814D01*
X01709D02*
Y00327D01*
X02025Y008403D02*
Y009853D01*
X021443Y007601D02*
Y01713D01*
X021562Y007551D02*
Y017081D01*
X021324Y00765D02*
Y01718D01*
X01265Y016128D02*
X014276D01*
X0145Y016353D02*
Y016853D01*
X014276Y016128D02*
X0145Y016353D01*
Y014853D02*
Y015453D01*
X01265Y015577D02*
X014376D01*
X0145Y015453D01*
X01529Y011473D02*
Y012373D01*
X02025Y014053D02*
Y015403D01*
X033015Y008849D02*
X033115D01*
X028844Y010303D02*
X03055D01*
X03085Y010003D01*
X02839Y009849D02*
X028844Y010303D01*
X02829Y009849D02*
X02839D01*
X033115Y016873D02*
X033595Y017353D01*
X022723Y011903D02*
X025119D01*
X02224Y01142D02*
X022723Y011903D01*
X02324Y01342D02*
X025291D01*
X029499Y013034D02*
X0299Y013434D01*
X030169Y013304D02*
Y016134D01*
X0303Y013266D02*
Y016653D01*
X03005Y013353D02*
Y015703D01*
X03045Y013248D02*
Y017103D01*
X029781Y013484D02*
Y014482D01*
X0299Y013434D02*
Y0151D01*
X02083Y006819D02*
X021562Y007551D01*
X0218Y009653D02*
X022Y009853D01*
X01575Y00491D02*
X01624Y00442D01*
X03208Y014873D02*
X033015D01*
X03184Y015113D02*
X03208Y014873D01*
X033435Y016353D02*
X033915Y015873D01*
X034015D01*
X01675Y01893D02*
X01724Y01942D01*
X01775Y01893D02*
X01824Y01942D01*
X02334Y00237D02*
X02439D01*
X02334D02*
Y003261D01*
X033395Y020353D02*
X033915Y020873D01*
X034015D01*
X033015Y016873D02*
X033115D01*
X033015Y017873D02*
X033115D01*
X033445Y019403D02*
X033915Y019873D01*
X034015D01*
X015574Y022176D02*
X016484D01*
X00824Y01042D02*
X008723Y010903D01*
X01724Y00542D02*
X01775Y00491D01*
X02839Y008849D02*
X028844Y009303D01*
X02829Y008849D02*
X02839D01*
X028844Y009303D02*
X0304D01*
X030612Y009091D01*
X030454Y009849D02*
X030731Y009572D01*
X02929Y009849D02*
X030454D01*
X01624Y00542D02*
X01675Y00491D01*
X02829Y003849D02*
X02839D01*
X02872Y017403D02*
X02919Y017873D01*
X02929D01*
X0279Y017403D02*
X02872D01*
X02773Y017873D02*
X02829D01*
X02723Y018873D02*
X02829D01*
X02745Y018353D02*
X02867D01*
X02919Y018873D02*
X02929D01*
X02867Y018353D02*
X02919Y018873D01*
X02867Y019353D02*
X02919Y019873D01*
X02929D01*
X02919Y020873D02*
X02929D01*
X02867Y020353D02*
X02919Y020873D01*
X02705Y020353D02*
X02867D01*
X02737Y020873D02*
X02829D01*
X02887Y017353D02*
X0302D01*
X03045Y017103D01*
X02988Y015873D02*
X03005Y015703D01*
X03008Y016873D02*
X0303Y016653D01*
X02995Y016353D02*
X030169Y016134D01*
X02929Y016873D02*
X03008D01*
X02887Y016353D02*
X02995D01*
X02939Y014873D02*
X029781Y014482D01*
X029647Y015353D02*
X0299Y0151D01*
X02887Y015353D02*
X029647D01*
X02324Y01442D02*
X024628D01*
X02929Y014873D02*
X02939D01*
X02919Y013873D02*
X02929D01*
X02839Y014873D02*
X02887Y015353D01*
X02829Y014873D02*
X02839D01*
Y015873D02*
X02887Y016353D01*
X02829Y015873D02*
X02839D01*
Y016873D02*
X02887Y017353D01*
X02829Y016873D02*
X02839D01*
X015133Y00442D02*
X01524D01*
X01475Y004803D02*
X015133Y00442D01*
X01375Y00491D02*
X01424Y00442D01*
X01224Y00442D02*
X01275Y00493D01*
X00824Y00842D02*
X008723Y008903D01*
D42*
X033726Y001489D02*
X034015Y001777D01*
X026924Y001489D02*
X033726D01*
X026407Y002006D02*
X026924Y001489D01*
X01062Y001853D02*
X02383D01*
X023983Y002006D02*
X026407D01*
X010061Y001294D02*
X01062Y001853D01*
X02383D02*
X023983Y002006D01*
X0124Y008403D02*
X01825D01*
X01225Y008553D02*
X0124Y008403D01*
X0235Y022513D02*
X0235Y022513D01*
Y022201D02*
Y022513D01*
X01395Y014403D02*
X01415Y014203D01*
X01221Y014721D02*
Y015113D01*
Y014721D02*
X012279Y01479D01*
X01395Y014403D02*
Y015053D01*
X01385Y015153D02*
X01395Y015053D01*
X0138Y015203D02*
X01385Y015153D01*
X0123Y015203D02*
X0138D01*
X01221Y015113D02*
X0123Y015203D01*
X01155Y009003D02*
X01225D01*
X008723Y009903D02*
X0104D01*
X00824Y00942D02*
X008723Y009903D01*
X0104D02*
X01065Y009653D01*
Y009003D02*
Y009653D01*
X01714Y011473D02*
X01915D01*
X01619D02*
X01714D01*
X01105Y016703D02*
X01222D01*
X006D02*
X007D01*
X0058Y016503D02*
X006Y016703D01*
X01222D02*
X01224Y016683D01*
X00745Y015403D02*
Y01734D01*
X007362Y017428D02*
X00745Y01734D01*
X005575Y017428D02*
X007362D01*
X00745Y010103D02*
Y012053D01*
X00765Y009903D02*
X008363D01*
X00745Y010103D02*
X00765Y009903D01*
X007104Y009599D02*
X007283Y00942D01*
X00824D01*
X006966Y011178D02*
X007104Y01104D01*
Y009599D02*
Y01104D01*
X00585Y011178D02*
X006966D01*
X00745Y012053D02*
Y015403D01*
X00585Y012053D02*
X00745D01*
X006722Y015403D02*
X00745D01*
X01415Y014203D02*
X0154D01*
X005635Y011178D02*
X00585D01*
X002519Y004428D02*
X003985D01*
X00423Y004183D01*
X001519Y004428D02*
X002519D01*
X00423Y001614D02*
Y004183D01*
X01224Y016683D02*
Y017363D01*
X004927Y014223D02*
X00495Y014246D01*
X01975Y013153D02*
X02025D01*
X01825Y014653D02*
Y015403D01*
Y014053D02*
Y014653D01*
X0196Y013303D02*
X01975Y013153D01*
X0196Y013303D02*
Y014503D01*
X01945Y014653D02*
X0196Y014503D01*
X01825Y014653D02*
X01945D01*
X01225Y009003D02*
Y010203D01*
X01049Y010423D02*
X01203D01*
X01225Y010203D01*
Y008553D02*
Y009003D01*
X00715Y018603D02*
Y020053D01*
X007046Y018499D02*
X00715Y018603D01*
X0028Y019953D02*
X00315Y020303D01*
X0069D02*
X00715Y020053D01*
X00315Y020303D02*
X0069D01*
X000975Y004428D02*
X001519D01*
X0008Y004603D02*
X000975Y004428D01*
X0008Y004603D02*
Y011003D01*
X0016Y011803D01*
X00365D01*
X00385Y012003D01*
Y013003D01*
X003688Y013165D02*
X00385Y013003D01*
X003337Y013165D02*
X003688D01*
X00124Y013413D02*
X002135D01*
X002383Y013165D02*
X003337D01*
X002135Y013413D02*
X002383Y013165D01*
X000613Y01335D02*
X00083Y013133D01*
X000613Y01335D02*
Y014181D01*
X0028Y015553D02*
Y019953D01*
X0058Y015603D02*
Y016503D01*
X00495Y015403D02*
X0056D01*
X0058Y015603D01*
X005374Y017629D02*
X005575Y017428D01*
X005374Y017629D02*
Y018499D01*
X00495Y014246D02*
Y015403D01*
X00495Y015403D01*
X00259Y015343D02*
X0028Y015553D01*
X006161Y018499D02*
X007046D01*
X0014Y014803D02*
X00155Y014953D01*
X0028D01*
X00325Y015403D01*
X00495D01*
X0014Y014181D02*
Y014803D01*
X00425Y012603D02*
X00495D01*
X00415Y011503D02*
Y012503D01*
X00425Y012603D01*
X0053Y010003D02*
Y011403D01*
X005775Y011978D02*
X00585Y012053D01*
X005775Y011878D02*
Y011978D01*
X0053Y011403D02*
X005775Y011878D01*
X034015Y003849D02*
Y004849D01*
Y002849D02*
Y003849D01*
Y001777D02*
Y002849D01*
Y007849D02*
Y008849D01*
Y006849D02*
Y007849D01*
Y005849D02*
Y006849D01*
X00987Y001953D02*
Y00327D01*
X0048Y002083D02*
Y003303D01*
X00965Y001733D02*
X00987Y001953D01*
X00515Y001733D02*
X00965D01*
X0048Y002083D02*
X00515Y001733D01*
X00455Y001294D02*
X010061D01*
X00423Y001614D02*
X00455Y001294D01*
X0048Y003303D02*
Y005303D01*
X00114Y015343D02*
X00259D01*
X017458Y003803D02*
X017722Y003539D01*
X0162Y003803D02*
X017458D01*
X017722Y003539D02*
X019314D01*
X019592Y003261D01*
X01275Y017847D02*
Y01891D01*
X01315Y017353D02*
Y017447D01*
X01275Y017847D02*
X01315Y017447D01*
X0154Y016853D02*
Y017213D01*
X01526Y017353D02*
X0154Y017213D01*
X01315Y017353D02*
X01526D01*
X0154Y014203D02*
X01601D01*
X0154D02*
Y014853D01*
X01619Y012373D02*
Y014023D01*
X01601Y014203D02*
X01619Y014023D01*
X00944Y005173D02*
X009687Y00542D01*
X00944Y003523D02*
Y005173D01*
X009687Y00542D02*
X01224D01*
X0068Y003303D02*
X00922D01*
X00944Y003523D01*
X00495Y008053D02*
Y008147D01*
X00527Y008467D01*
Y009583D01*
X00551Y009823D01*
Y011053D01*
X005635Y011178D01*
X00924Y01042D02*
X010487D01*
X01049Y010423D01*
X00101Y015213D02*
X00114Y015343D01*
X00083Y013133D02*
X00191D01*
X002793Y01225D01*
X003337D01*
X00101Y013643D02*
X00124Y013413D01*
X00101Y013643D02*
Y015213D01*
X004927Y014223D02*
X00495Y0142D01*
X01719Y022173D02*
Y022513D01*
X02037Y022191D02*
Y022513D01*
X02037Y022513D02*
X02037Y022513D01*
X01412Y022523D02*
X01412Y022523D01*
Y022151D02*
Y022523D01*
X01314Y016683D02*
Y017343D01*
X01315Y017353D01*
X01224Y017363D02*
X01224Y017363D01*
X00885Y010389D02*
X009209D01*
X008363Y009903D02*
X00885Y010389D01*
X009209D02*
X00924Y01042D01*
X00455Y008053D02*
X00495D01*
X0043Y007803D02*
X00455Y008053D01*
X0043Y006403D02*
X0048Y005903D01*
X0043Y006403D02*
Y007803D01*
X0048Y005303D02*
Y005903D01*
X004748Y00945D02*
X0053Y010003D01*
X004748Y009177D02*
Y00945D01*
X00495Y012603D02*
X0058D01*
X00495Y012603D02*
Y0133D01*
Y012603D02*
X00495Y012603D01*
X002519Y006428D02*
X003675D01*
X00385Y006603D02*
Y008953D01*
X003675Y006428D02*
X00385Y006603D01*
Y008953D02*
X004074Y009177D01*
X004748D01*
X00585Y012053D02*
Y012553D01*
X0058Y012603D02*
X00585Y012553D01*
X003992Y011344D02*
X00415Y011503D01*
X003347Y011344D02*
X003992D01*
X01924Y00542D02*
X024333D01*
X02455Y004553D02*
Y005203D01*
X024333Y00542D02*
X02455Y005203D01*
X01324Y003803D02*
X0162D01*
X00995D02*
X01324D01*
X001519Y005428D02*
X002519D01*
X001519Y006428D02*
X002519D01*
X01184Y00147D02*
X01814D01*
X01077Y000598D02*
Y001372D01*
X010867Y00147D01*
X01184D01*
X00987Y00327D02*
Y003722D01*
X00995Y003803D01*
X01324D02*
Y00442D01*
X0162Y00328D02*
Y003803D01*
X01619Y00327D02*
X0162Y00328D01*
X019592Y003261D02*
X02244D01*
X023417Y00147D02*
X02439D01*
X01814D02*
X023417D01*
X01709Y000598D02*
Y001463D01*
X01825Y009128D02*
Y009853D01*
Y008403D02*
Y009128D01*
X0197Y010603D02*
X01985Y010753D01*
X02025D01*
X019525Y009128D02*
X0197Y009303D01*
X019525Y009128D02*
X019525Y009128D01*
X0197Y009303D02*
Y010603D01*
X01825Y009128D02*
X019525D01*
X01915Y009853D02*
Y011473D01*
Y014053D01*
X02025Y010753D02*
Y013153D01*
X01224Y01942D02*
X01275Y01891D01*
X01224Y017363D02*
Y01842D01*
X0154Y015853D02*
Y016853D01*
Y014853D02*
Y015853D01*
X01762Y015403D02*
X01825D01*
X01717Y015853D02*
X01762Y015403D01*
X0154Y015853D02*
X01717D01*
X02334Y000598D02*
Y001393D01*
X023417Y00147D01*
D43*
X01265Y015577D02*
D03*
Y016128D02*
D03*
D44*
X01424Y01942D02*
D03*
X01524D02*
D03*
Y01842D02*
D03*
X01624D02*
D03*
Y01942D02*
D03*
X01924Y01842D02*
D03*
Y01942D02*
D03*
X01824Y01842D02*
D03*
Y01942D02*
D03*
X01724D02*
D03*
Y01842D02*
D03*
X01324Y01942D02*
D03*
Y01842D02*
D03*
X01424D02*
D03*
X01224D02*
D03*
Y01942D02*
D03*
X02324Y01342D02*
D03*
Y01242D02*
D03*
X02224D02*
D03*
Y01142D02*
D03*
X02324D02*
D03*
X02224Y00842D02*
D03*
X02324D02*
D03*
X02224Y00942D02*
D03*
X02324D02*
D03*
Y01042D02*
D03*
X02224D02*
D03*
X02324Y01442D02*
D03*
X02224D02*
D03*
Y01342D02*
D03*
Y01542D02*
D03*
X02324D02*
D03*
X01724Y00442D02*
D03*
X01624D02*
D03*
Y00542D02*
D03*
X01524D02*
D03*
Y00442D02*
D03*
X01224Y00542D02*
D03*
Y00442D02*
D03*
X01324Y00542D02*
D03*
Y00442D02*
D03*
X01424D02*
D03*
Y00542D02*
D03*
X01824Y00442D02*
D03*
Y00542D02*
D03*
X01724D02*
D03*
X01924D02*
D03*
Y00442D02*
D03*
X00824Y01042D02*
D03*
Y01142D02*
D03*
X00924D02*
D03*
Y01242D02*
D03*
X00824D02*
D03*
X00924Y01542D02*
D03*
X00924Y01442D02*
D03*
X00824D02*
D03*
Y01342D02*
D03*
X00924D02*
D03*
X00824Y00942D02*
D03*
X00924D02*
D03*
Y01042D02*
D03*
Y00842D02*
D03*
X00824D02*
D03*
D45*
X00824Y01542D02*
D03*
D46*
X001519Y004428D02*
D03*
X002519D02*
D03*
Y005428D02*
D03*
X001519D02*
D03*
X002518Y008428D02*
D03*
X002519Y007428D02*
D03*
X001519D02*
D03*
Y006428D02*
D03*
X002519D02*
D03*
X01152Y010974D02*
D03*
Y012913D02*
D03*
D47*
X001518Y008428D02*
D03*
D48*
X006161Y018499D02*
D03*
D49*
X005374Y019483D02*
D03*
Y018499D02*
D03*
X006161Y019483D02*
D03*
D50*
X00435Y021353D02*
D03*
Y016628D02*
D03*
D51*
X01077Y023009D02*
D03*
X008211D02*
D03*
Y021237D02*
D03*
X02929Y002849D02*
D03*
X02829D02*
D03*
X02929Y003849D02*
D03*
X02829D02*
D03*
X02929Y004849D02*
D03*
X02829D02*
D03*
X02929Y005849D02*
D03*
X02829D02*
D03*
X02929Y006849D02*
D03*
X02829D02*
D03*
X02929Y007849D02*
D03*
X02829D02*
D03*
X02929Y008849D02*
D03*
X02829D02*
D03*
X02929Y009849D02*
D03*
X008211Y000598D02*
D03*
X01077D02*
D03*
Y00237D02*
D03*
X014531Y000598D02*
D03*
X01709D02*
D03*
Y00237D02*
D03*
X020781Y000598D02*
D03*
X02334D02*
D03*
Y00237D02*
D03*
X034015Y009849D02*
D03*
X033015Y008849D02*
D03*
X034015D02*
D03*
X033015Y007849D02*
D03*
X034015D02*
D03*
X033015Y006849D02*
D03*
X034015D02*
D03*
X033015Y005849D02*
D03*
X034015D02*
D03*
X033015Y004849D02*
D03*
X034015D02*
D03*
X033015Y003849D02*
D03*
X034015D02*
D03*
X033015Y002849D02*
D03*
X034015D02*
D03*
X02929Y013873D02*
D03*
X02829D02*
D03*
X02929Y014873D02*
D03*
X02829D02*
D03*
X02929Y015873D02*
D03*
X02829D02*
D03*
X02929Y016873D02*
D03*
X02829D02*
D03*
X02929Y017873D02*
D03*
X02829D02*
D03*
X02929Y018873D02*
D03*
X02829D02*
D03*
X02929Y019873D02*
D03*
X02829D02*
D03*
X02929Y020873D02*
D03*
X034015Y014873D02*
D03*
Y013873D02*
D03*
X033015D02*
D03*
Y014873D02*
D03*
X034015Y015873D02*
D03*
X033015D02*
D03*
X034015Y016873D02*
D03*
X033015D02*
D03*
X034015Y017873D02*
D03*
X033015D02*
D03*
X034015Y018873D02*
D03*
X033015D02*
D03*
X034015Y019873D02*
D03*
X033015D02*
D03*
X034015Y020873D02*
D03*
D52*
X01077Y021237D02*
D03*
X02829Y009849D02*
D03*
X008211Y00237D02*
D03*
X014531D02*
D03*
X020781D02*
D03*
X033015Y009849D02*
D03*
X02829Y020873D02*
D03*
X033015D02*
D03*
D53*
X002188Y015953D02*
D03*
X0014D02*
D03*
X000613D02*
D03*
Y014181D02*
D03*
X0014D02*
D03*
D54*
X002188D02*
D03*
D55*
X0068Y003303D02*
D03*
X0058D02*
D03*
X0068Y005303D02*
D03*
X0058D02*
D03*
X01825Y008403D02*
D03*
X01925D02*
D03*
X01825Y015403D02*
D03*
X01925D02*
D03*
D56*
X0048Y003303D02*
D03*
Y005303D02*
D03*
X02025Y008403D02*
D03*
Y015403D02*
D03*
D57*
X0229Y00325D02*
D03*
X0235Y022513D02*
D03*
X01714Y011473D02*
D03*
X00705Y006803D02*
D03*
X01105Y016703D02*
D03*
X00835Y017353D02*
D03*
X007Y016703D02*
D03*
X01465Y011953D02*
D03*
X01485Y012203D02*
D03*
X0079Y017903D02*
D03*
X016253Y016372D02*
D03*
X01719Y022513D02*
D03*
X02037D02*
D03*
X01412Y022523D02*
D03*
X0054Y012053D02*
D03*
X02455Y004553D02*
D03*
X0088Y004303D02*
D03*
X02805Y010703D02*
D03*
X0283Y010922D02*
D03*
X02855Y011153D02*
D03*
M02*
