G04*
G04 #@! TF.GenerationSoftware,Altium Limited,Altium Designer,21.6.1 (37)*
G04*
G04 Layer_Physical_Order=2*
G04 Layer_Color=16711680*
%FSTAX24Y24*%
%MOIN*%
G70*
G04*
G04 #@! TF.SameCoordinates,B7BCD236-E72C-41E6-AEDC-B20C2DB60F4C*
G04*
G04*
G04 #@! TF.FilePolarity,Positive*
G04*
G01*
G75*
%ADD10C,0.0100*%
%ADD41C,0.0060*%
%ADD42C,0.0150*%
%ADD43O,0.0600X0.0400*%
%ADD44C,0.0600*%
G04:AMPARAMS|DCode=45|XSize=60mil|YSize=60mil|CornerRadius=15mil|HoleSize=0mil|Usage=FLASHONLY|Rotation=90.000|XOffset=0mil|YOffset=0mil|HoleType=Round|Shape=RoundedRectangle|*
%AMROUNDEDRECTD45*
21,1,0.0600,0.0300,0,0,90.0*
21,1,0.0300,0.0600,0,0,90.0*
1,1,0.0300,0.0150,0.0150*
1,1,0.0300,0.0150,-0.0150*
1,1,0.0300,-0.0150,-0.0150*
1,1,0.0300,-0.0150,0.0150*
%
%ADD45ROUNDEDRECTD45*%
%ADD46O,0.0800X0.0600*%
G04:AMPARAMS|DCode=47|XSize=60mil|YSize=80mil|CornerRadius=15mil|HoleSize=0mil|Usage=FLASHONLY|Rotation=90.000|XOffset=0mil|YOffset=0mil|HoleType=Round|Shape=RoundedRectangle|*
%AMROUNDEDRECTD47*
21,1,0.0600,0.0500,0,0,90.0*
21,1,0.0300,0.0800,0,0,90.0*
1,1,0.0300,0.0250,0.0150*
1,1,0.0300,0.0250,-0.0150*
1,1,0.0300,-0.0250,-0.0150*
1,1,0.0300,-0.0250,0.0150*
%
%ADD47ROUNDEDRECTD47*%
G04:AMPARAMS|DCode=48|XSize=70mil|YSize=60mil|CornerRadius=15mil|HoleSize=0mil|Usage=FLASHONLY|Rotation=90.000|XOffset=0mil|YOffset=0mil|HoleType=Round|Shape=RoundedRectangle|*
%AMROUNDEDRECTD48*
21,1,0.0700,0.0300,0,0,90.0*
21,1,0.0400,0.0600,0,0,90.0*
1,1,0.0300,0.0150,0.0200*
1,1,0.0300,0.0150,-0.0200*
1,1,0.0300,-0.0150,-0.0200*
1,1,0.0300,-0.0150,0.0200*
%
%ADD48ROUNDEDRECTD48*%
%ADD49O,0.0600X0.0700*%
G04:AMPARAMS|DCode=50|XSize=60mil|YSize=137.8mil|CornerRadius=15mil|HoleSize=0mil|Usage=FLASHONLY|Rotation=90.000|XOffset=0mil|YOffset=0mil|HoleType=Round|Shape=RoundedRectangle|*
%AMROUNDEDRECTD50*
21,1,0.0600,0.1078,0,0,90.0*
21,1,0.0300,0.1378,0,0,90.0*
1,1,0.0300,0.0539,0.0150*
1,1,0.0300,0.0539,-0.0150*
1,1,0.0300,-0.0539,-0.0150*
1,1,0.0300,-0.0539,0.0150*
%
%ADD50ROUNDEDRECTD50*%
%ADD51O,0.0800X0.0600*%
G04:AMPARAMS|DCode=52|XSize=80mil|YSize=60mil|CornerRadius=15mil|HoleSize=0mil|Usage=FLASHONLY|Rotation=180.000|XOffset=0mil|YOffset=0mil|HoleType=Round|Shape=RoundedRectangle|*
%AMROUNDEDRECTD52*
21,1,0.0800,0.0300,0,0,180.0*
21,1,0.0500,0.0600,0,0,180.0*
1,1,0.0300,-0.0250,0.0150*
1,1,0.0300,0.0250,0.0150*
1,1,0.0300,0.0250,-0.0150*
1,1,0.0300,-0.0250,-0.0150*
%
%ADD52ROUNDEDRECTD52*%
%ADD53O,0.0500X0.0700*%
G04:AMPARAMS|DCode=54|XSize=50mil|YSize=70mil|CornerRadius=12.5mil|HoleSize=0mil|Usage=FLASHONLY|Rotation=180.000|XOffset=0mil|YOffset=0mil|HoleType=Round|Shape=RoundedRectangle|*
%AMROUNDEDRECTD54*
21,1,0.0500,0.0450,0,0,180.0*
21,1,0.0250,0.0700,0,0,180.0*
1,1,0.0250,-0.0125,0.0225*
1,1,0.0250,0.0125,0.0225*
1,1,0.0250,0.0125,-0.0225*
1,1,0.0250,-0.0125,-0.0225*
%
%ADD54ROUNDEDRECTD54*%
%ADD55O,0.0600X0.0800*%
G04:AMPARAMS|DCode=56|XSize=80mil|YSize=60mil|CornerRadius=15mil|HoleSize=0mil|Usage=FLASHONLY|Rotation=270.000|XOffset=0mil|YOffset=0mil|HoleType=Round|Shape=RoundedRectangle|*
%AMROUNDEDRECTD56*
21,1,0.0800,0.0300,0,0,270.0*
21,1,0.0500,0.0600,0,0,270.0*
1,1,0.0300,-0.0150,-0.0250*
1,1,0.0300,-0.0150,0.0250*
1,1,0.0300,0.0150,0.0250*
1,1,0.0300,0.0150,-0.0250*
%
%ADD56ROUNDEDRECTD56*%
%ADD57C,0.0236*%
G04:AMPARAMS|DCode=58|XSize=78.7mil|YSize=118.1mil|CornerRadius=19.7mil|HoleSize=0mil|Usage=FLASHONLY|Rotation=90.000|XOffset=0mil|YOffset=0mil|HoleType=Round|Shape=RoundedRectangle|*
%AMROUNDEDRECTD58*
21,1,0.0787,0.0787,0,0,90.0*
21,1,0.0394,0.1181,0,0,90.0*
1,1,0.0394,0.0394,0.0197*
1,1,0.0394,0.0394,-0.0197*
1,1,0.0394,-0.0394,-0.0197*
1,1,0.0394,-0.0394,0.0197*
%
%ADD58ROUNDEDRECTD58*%
G36*
X03734Y000161D02*
X023555D01*
X023544Y000209D01*
X023642Y000249D01*
X023725Y000313D01*
X023789Y000397D01*
X02383Y000494D01*
X023837Y000548D01*
X022843D01*
X02285Y000494D01*
X022891Y000397D01*
X022955Y000313D01*
X023038Y000249D01*
X023136Y000209D01*
X023125Y000161D01*
X017305D01*
X017294Y000209D01*
X017392Y000249D01*
X017475Y000313D01*
X017539Y000397D01*
X01758Y000494D01*
X017587Y000548D01*
X016593D01*
X0166Y000494D01*
X016641Y000397D01*
X016705Y000313D01*
X016788Y000249D01*
X016886Y000209D01*
X016875Y000161D01*
X010984D01*
X010974Y000209D01*
X011071Y000249D01*
X011155Y000313D01*
X011219Y000397D01*
X011259Y000494D01*
X011267Y000548D01*
X010273D01*
X01028Y000494D01*
X01032Y000397D01*
X010384Y000313D01*
X010468Y000249D01*
X010565Y000209D01*
X010555Y000161D01*
X000161D01*
Y023561D01*
X03734D01*
Y000161D01*
D02*
G37*
%LPC*%
G36*
X008311Y023412D02*
X008261D01*
Y023059D01*
X008708D01*
X0087Y023113D01*
X00866Y02321D01*
X008596Y023294D01*
X008512Y023358D01*
X008415Y023398D01*
X008311Y023412D01*
D02*
G37*
G36*
X008161D02*
X008111D01*
X008006Y023398D01*
X007909Y023358D01*
X007825Y023294D01*
X007761Y02321D01*
X007721Y023113D01*
X007714Y023059D01*
X008161D01*
Y023412D01*
D02*
G37*
G36*
X01087Y023371D02*
X01067D01*
X010576Y023358D01*
X010489Y023322D01*
X010414Y023265D01*
X010356Y02319D01*
X01032Y023102D01*
X010308Y023009D01*
X01032Y022915D01*
X010356Y022828D01*
X010414Y022753D01*
X010489Y022695D01*
X010576Y022659D01*
X01067Y022647D01*
X01087D01*
X010963Y022659D01*
X011051Y022695D01*
X011126Y022753D01*
X011183Y022828D01*
X011219Y022915D01*
X011232Y023009D01*
X011219Y023102D01*
X011183Y02319D01*
X011126Y023265D01*
X011051Y023322D01*
X010963Y023358D01*
X01087Y023371D01*
D02*
G37*
G36*
X008708Y022959D02*
X008261D01*
Y022605D01*
X008311D01*
X008415Y022619D01*
X008512Y022659D01*
X008596Y022723D01*
X00866Y022807D01*
X0087Y022904D01*
X008708Y022959D01*
D02*
G37*
G36*
X008161D02*
X007714D01*
X007721Y022904D01*
X007761Y022807D01*
X007825Y022723D01*
X007909Y022659D01*
X008006Y022619D01*
X008111Y022605D01*
X008161D01*
Y022959D01*
D02*
G37*
G36*
X01417Y022738D02*
Y022573D01*
X014336D01*
X014305Y022646D01*
X014244Y022708D01*
X01417Y022738D01*
D02*
G37*
G36*
X01407D02*
X013997Y022708D01*
X013935Y022646D01*
X013905Y022573D01*
X01407D01*
Y022738D01*
D02*
G37*
G36*
X02355Y022728D02*
Y022563D01*
X023716D01*
X023685Y022636D01*
X023624Y022698D01*
X02355Y022728D01*
D02*
G37*
G36*
X02345D02*
X023377Y022698D01*
X023315Y022636D01*
X023285Y022563D01*
X02345D01*
Y022728D01*
D02*
G37*
G36*
X02042D02*
Y022563D01*
X020586D01*
X020555Y022636D01*
X020494Y022698D01*
X02042Y022728D01*
D02*
G37*
G36*
X02032D02*
X020247Y022698D01*
X020185Y022636D01*
X020155Y022563D01*
X02032D01*
Y022728D01*
D02*
G37*
G36*
X01724D02*
Y022563D01*
X017406D01*
X017375Y022636D01*
X017314Y022698D01*
X01724Y022728D01*
D02*
G37*
G36*
X01714D02*
X017067Y022698D01*
X017005Y022636D01*
X016975Y022563D01*
X01714D01*
Y022728D01*
D02*
G37*
G36*
X014336Y022473D02*
X01417D01*
Y022307D01*
X014244Y022338D01*
X014305Y022399D01*
X014336Y022473D01*
D02*
G37*
G36*
X01407D02*
X013905D01*
X013935Y022399D01*
X013997Y022338D01*
X01407Y022307D01*
Y022473D01*
D02*
G37*
G36*
X023716Y022463D02*
X02355D01*
Y022297D01*
X023624Y022328D01*
X023685Y022389D01*
X023716Y022463D01*
D02*
G37*
G36*
X02345D02*
X023285D01*
X023315Y022389D01*
X023377Y022328D01*
X02345Y022297D01*
Y022463D01*
D02*
G37*
G36*
X020586D02*
X02042D01*
Y022297D01*
X020494Y022328D01*
X020555Y022389D01*
X020586Y022463D01*
D02*
G37*
G36*
X02032D02*
X020155D01*
X020185Y022389D01*
X020247Y022328D01*
X02032Y022297D01*
Y022463D01*
D02*
G37*
G36*
X017406D02*
X01724D01*
Y022297D01*
X017314Y022328D01*
X017375Y022389D01*
X017406Y022463D01*
D02*
G37*
G36*
X01714D02*
X016975D01*
X017005Y022389D01*
X017067Y022328D01*
X01714Y022297D01*
Y022463D01*
D02*
G37*
G36*
X03627Y023194D02*
X036133Y02318D01*
X036001Y02314D01*
X03588Y023075D01*
X035773Y022988D01*
X035686Y022882D01*
X035621Y02276D01*
X035581Y022628D01*
X035567Y022491D01*
X035581Y022354D01*
X035621Y022222D01*
X035686Y0221D01*
X035773Y021994D01*
X03588Y021906D01*
X036001Y021841D01*
X036133Y021801D01*
X03627Y021788D01*
X036408Y021801D01*
X036539Y021841D01*
X036661Y021906D01*
X036768Y021994D01*
X036855Y0221D01*
X03692Y022222D01*
X03696Y022354D01*
X036973Y022491D01*
X03696Y022628D01*
X03692Y02276D01*
X036855Y022882D01*
X036768Y022988D01*
X036661Y023075D01*
X036539Y02314D01*
X036408Y02318D01*
X03627Y023194D01*
D02*
G37*
G36*
X026034D02*
X025897Y02318D01*
X025765Y02314D01*
X025644Y023075D01*
X025537Y022988D01*
X02545Y022882D01*
X025385Y02276D01*
X025345Y022628D01*
X025331Y022491D01*
X025345Y022354D01*
X025385Y022222D01*
X02545Y0221D01*
X025537Y021994D01*
X025644Y021906D01*
X025765Y021841D01*
X025897Y021801D01*
X026034Y021788D01*
X026171Y021801D01*
X026303Y021841D01*
X026425Y021906D01*
X026531Y021994D01*
X026619Y0221D01*
X026684Y022222D01*
X026724Y022354D01*
X026737Y022491D01*
X026724Y022628D01*
X026684Y02276D01*
X026619Y022882D01*
X026531Y022988D01*
X026425Y023075D01*
X026303Y02314D01*
X026171Y02318D01*
X026034Y023194D01*
D02*
G37*
G36*
X001231D02*
X001094Y02318D01*
X000962Y02314D01*
X000841Y023075D01*
X000734Y022988D01*
X000647Y022882D01*
X000582Y02276D01*
X000542Y022628D01*
X000528Y022491D01*
X000542Y022354D01*
X000582Y022222D01*
X000647Y0221D01*
X000734Y021994D01*
X000841Y021906D01*
X000962Y021841D01*
X001094Y021801D01*
X001231Y021788D01*
X001368Y021801D01*
X0015Y021841D01*
X001622Y021906D01*
X001728Y021994D01*
X001816Y0221D01*
X001881Y022222D01*
X001921Y022354D01*
X001934Y022491D01*
X001921Y022628D01*
X001881Y02276D01*
X001816Y022882D01*
X001728Y022988D01*
X001622Y023075D01*
X0015Y02314D01*
X001368Y02318D01*
X001231Y023194D01*
D02*
G37*
G36*
X004889Y021716D02*
X003811D01*
X00373Y0217D01*
X00366Y021654D01*
X003614Y021584D01*
X003598Y021503D01*
Y021203D01*
X003614Y021121D01*
X00366Y021052D01*
X00373Y021006D01*
X003811Y02099D01*
X004889D01*
X004971Y021006D01*
X00504Y021052D01*
X005086Y021121D01*
X005102Y021203D01*
Y021503D01*
X005086Y021584D01*
X00504Y021654D01*
X004971Y0217D01*
X004889Y021716D01*
D02*
G37*
G36*
X008311Y021599D02*
X008111D01*
X008017Y021587D01*
X00793Y021551D01*
X007855Y021493D01*
X007797Y021418D01*
X007761Y021331D01*
X007748Y021237D01*
X007761Y021143D01*
X007797Y021056D01*
X007855Y020981D01*
X00793Y020923D01*
X008017Y020887D01*
X008111Y020875D01*
X008311D01*
X008404Y020887D01*
X008492Y020923D01*
X008567Y020981D01*
X008624Y021056D01*
X00866Y021143D01*
X008673Y021237D01*
X00866Y021331D01*
X008624Y021418D01*
X008567Y021493D01*
X008492Y021551D01*
X008404Y021587D01*
X008311Y021599D01*
D02*
G37*
G36*
X01102Y0216D02*
X01052D01*
X010438Y021584D01*
X010369Y021538D01*
X010323Y021469D01*
X010307Y021387D01*
Y021087D01*
X010323Y021005D01*
X010369Y020936D01*
X010438Y02089D01*
X01052Y020874D01*
X01102D01*
X011101Y02089D01*
X01117Y020936D01*
X011217Y021005D01*
X011233Y021087D01*
Y021387D01*
X011217Y021469D01*
X01117Y021538D01*
X011101Y021584D01*
X01102Y0216D01*
D02*
G37*
G36*
X034115Y021235D02*
X033915D01*
X033821Y021223D01*
X033733Y021186D01*
X033658Y021129D01*
X033601Y021054D01*
X033565Y020967D01*
X033552Y020873D01*
X033565Y020779D01*
X033601Y020692D01*
X033658Y020617D01*
X033733Y020559D01*
X033821Y020523D01*
X033915Y020511D01*
X034115D01*
X034208Y020523D01*
X034296Y020559D01*
X034371Y020617D01*
X034428Y020692D01*
X034464Y020779D01*
X034477Y020873D01*
X034464Y020967D01*
X034428Y021054D01*
X034371Y021129D01*
X034296Y021186D01*
X034208Y021223D01*
X034115Y021235D01*
D02*
G37*
G36*
X033265Y021236D02*
X032765D01*
X032683Y02122D01*
X032614Y021174D01*
X032568Y021104D01*
X032551Y021023D01*
Y020723D01*
X032568Y020641D01*
X032614Y020572D01*
X032683Y020526D01*
X032765Y02051D01*
X033265D01*
X033346Y020526D01*
X033415Y020572D01*
X033461Y020641D01*
X033478Y020723D01*
Y021023D01*
X033461Y021104D01*
X033415Y021174D01*
X033346Y02122D01*
X033265Y021236D01*
D02*
G37*
G36*
X034115Y020235D02*
X033915D01*
X033821Y020223D01*
X033733Y020186D01*
X033658Y020129D01*
X033601Y020054D01*
X033565Y019967D01*
X033552Y019873D01*
X033565Y019779D01*
X033601Y019692D01*
X033658Y019617D01*
X033733Y019559D01*
X033821Y019523D01*
X033915Y019511D01*
X034115D01*
X034208Y019523D01*
X034296Y019559D01*
X034371Y019617D01*
X034428Y019692D01*
X034464Y019779D01*
X034477Y019873D01*
X034464Y019967D01*
X034428Y020054D01*
X034371Y020129D01*
X034296Y020186D01*
X034208Y020223D01*
X034115Y020235D01*
D02*
G37*
G36*
X033115D02*
X032915D01*
X032821Y020223D01*
X032733Y020186D01*
X032658Y020129D01*
X032601Y020054D01*
X032565Y019967D01*
X032552Y019873D01*
X032565Y019779D01*
X032601Y019692D01*
X032658Y019617D01*
X032733Y019559D01*
X032821Y019523D01*
X032915Y019511D01*
X033115D01*
X033208Y019523D01*
X033296Y019559D01*
X033371Y019617D01*
X033428Y019692D01*
X033464Y019779D01*
X033477Y019873D01*
X033464Y019967D01*
X033428Y020054D01*
X033371Y020129D01*
X033296Y020186D01*
X033208Y020223D01*
X033115Y020235D01*
D02*
G37*
G36*
X005324Y018945D02*
X005269Y018938D01*
X005172Y018898D01*
X005088Y018834D01*
X005024Y01875D01*
X004984Y018653D01*
X00497Y018549D01*
Y018549D01*
X005324D01*
Y018945D01*
D02*
G37*
G36*
X034115Y019235D02*
X033915D01*
X033821Y019223D01*
X033733Y019186D01*
X033658Y019129D01*
X033601Y019054D01*
X033565Y018967D01*
X033552Y018873D01*
X033565Y018779D01*
X033601Y018692D01*
X033658Y018617D01*
X033733Y018559D01*
X033821Y018523D01*
X033915Y018511D01*
X034115D01*
X034208Y018523D01*
X034296Y018559D01*
X034371Y018617D01*
X034428Y018692D01*
X034464Y018779D01*
X034477Y018873D01*
X034464Y018967D01*
X034428Y019054D01*
X034371Y019129D01*
X034296Y019186D01*
X034208Y019223D01*
X034115Y019235D01*
D02*
G37*
G36*
X033115D02*
X032915D01*
X032821Y019223D01*
X032733Y019186D01*
X032658Y019129D01*
X032601Y019054D01*
X032565Y018967D01*
X032552Y018873D01*
X032565Y018779D01*
X032601Y018692D01*
X032658Y018617D01*
X032733Y018559D01*
X032821Y018523D01*
X032915Y018511D01*
X033115D01*
X033208Y018523D01*
X033296Y018559D01*
X033371Y018617D01*
X033428Y018692D01*
X033464Y018779D01*
X033477Y018873D01*
X033464Y018967D01*
X033428Y019054D01*
X033371Y019129D01*
X033296Y019186D01*
X033208Y019223D01*
X033115Y019235D01*
D02*
G37*
G36*
X005424Y018945D02*
Y018499D01*
Y018052D01*
X005478Y018059D01*
X005576Y018099D01*
X005659Y018163D01*
X005723Y018247D01*
X005748Y018307D01*
X005798Y018299D01*
X005814Y018217D01*
X00586Y018148D01*
X00593Y018102D01*
X006011Y018085D01*
X006311D01*
X006393Y018102D01*
X006462Y018148D01*
X006508Y018217D01*
X006524Y018299D01*
Y018699D01*
X006508Y01878D01*
X006462Y018849D01*
X006393Y018895D01*
X006311Y018912D01*
X006011D01*
X00593Y018895D01*
X00586Y018849D01*
X005814Y01878D01*
X005798Y018699D01*
X005748Y01869D01*
X005723Y01875D01*
X005659Y018834D01*
X005576Y018898D01*
X005478Y018938D01*
X005424Y018945D01*
D02*
G37*
G36*
X005324Y018449D02*
X00497D01*
X004984Y018344D01*
X005024Y018247D01*
X005088Y018163D01*
X005172Y018099D01*
X005269Y018059D01*
X005324Y018052D01*
Y018449D01*
D02*
G37*
G36*
X006161Y019895D02*
X006067Y019883D01*
X00598Y019846D01*
X005905Y019789D01*
X005848Y019714D01*
X005811Y019626D01*
X005799Y019533D01*
Y019433D01*
X005811Y019339D01*
X005848Y019252D01*
X005905Y019177D01*
X00598Y019119D01*
X006067Y019083D01*
X006161Y019071D01*
X006255Y019083D01*
X006342Y019119D01*
X006417Y019177D01*
X006475Y019252D01*
X006511Y019339D01*
X006518Y019392D01*
X007683D01*
X007809Y019265D01*
Y018057D01*
X0078Y018053D01*
X00775Y018003D01*
X007723Y017938D01*
Y017868D01*
X00775Y017802D01*
X0078Y017753D01*
X007865Y017726D01*
X007935D01*
X008001Y017753D01*
X00805Y017802D01*
X008077Y017868D01*
Y017938D01*
X00805Y018003D01*
X008001Y018053D01*
X007991Y018057D01*
Y019303D01*
X007984Y019338D01*
X007964Y019367D01*
X007784Y019547D01*
X007755Y019567D01*
X00772Y019574D01*
X006518D01*
X006511Y019626D01*
X006475Y019714D01*
X006417Y019789D01*
X006342Y019846D01*
X006255Y019883D01*
X006161Y019895D01*
D02*
G37*
G36*
X034115Y018235D02*
X033915D01*
X033821Y018223D01*
X033733Y018186D01*
X033658Y018129D01*
X033601Y018054D01*
X033565Y017967D01*
X033552Y017873D01*
X033565Y017779D01*
X033601Y017692D01*
X033658Y017617D01*
X033733Y017559D01*
X033821Y017523D01*
X033915Y017511D01*
X034115D01*
X034208Y017523D01*
X034296Y017559D01*
X034371Y017617D01*
X034428Y017692D01*
X034464Y017779D01*
X034477Y017873D01*
X034464Y017967D01*
X034428Y018054D01*
X034371Y018129D01*
X034296Y018186D01*
X034208Y018223D01*
X034115Y018235D01*
D02*
G37*
G36*
X033115D02*
X032915D01*
X032821Y018223D01*
X032733Y018186D01*
X032658Y018129D01*
X032601Y018054D01*
X032565Y017967D01*
X032552Y017873D01*
X032565Y017779D01*
X032601Y017692D01*
X032658Y017617D01*
X032733Y017559D01*
X032821Y017523D01*
X032915Y017511D01*
X033115D01*
X033208Y017523D01*
X033296Y017559D01*
X033371Y017617D01*
X033428Y017692D01*
X033464Y017779D01*
X033477Y017873D01*
X033464Y017967D01*
X033428Y018054D01*
X033371Y018129D01*
X033296Y018186D01*
X033208Y018223D01*
X033115Y018235D01*
D02*
G37*
G36*
X00815Y020544D02*
X0056D01*
X005565Y020537D01*
X005536Y020517D01*
X00531Y020291D01*
X00529Y020261D01*
X005283Y020226D01*
Y019883D01*
X00528Y019883D01*
X005193Y019846D01*
X005118Y019789D01*
X00506Y019714D01*
X005024Y019626D01*
X005012Y019533D01*
Y019433D01*
X005024Y019339D01*
X00506Y019252D01*
X005118Y019177D01*
X005193Y019119D01*
X00528Y019083D01*
X005374Y019071D01*
X005468Y019083D01*
X005555Y019119D01*
X00563Y019177D01*
X005687Y019252D01*
X005724Y019339D01*
X005736Y019433D01*
Y019533D01*
X005724Y019626D01*
X005687Y019714D01*
X00563Y019789D01*
X005555Y019846D01*
X005468Y019883D01*
X005465Y019883D01*
Y020189D01*
X005638Y020362D01*
X008113D01*
X008259Y020215D01*
Y017507D01*
X00825Y017503D01*
X0082Y017453D01*
X008173Y017388D01*
Y017318D01*
X0082Y017252D01*
X00825Y017203D01*
X008315Y017176D01*
X008385D01*
X008451Y017203D01*
X0085Y017252D01*
X008527Y017318D01*
Y017388D01*
X0085Y017453D01*
X008451Y017503D01*
X008441Y017507D01*
Y020253D01*
X008434Y020288D01*
X008414Y020317D01*
X008214Y020517D01*
X008185Y020537D01*
X00815Y020544D01*
D02*
G37*
G36*
X03002Y022544D02*
X02745D01*
X027415Y022537D01*
X027386Y022517D01*
X026234Y021365D01*
X011682D01*
X011647Y021358D01*
X011617Y021339D01*
X011286Y021007D01*
X011266Y020978D01*
X011259Y020943D01*
Y016791D01*
X011209Y016781D01*
X0112Y016803D01*
X011151Y016853D01*
X011085Y01688D01*
X011015D01*
X01095Y016853D01*
X010936Y01684D01*
X007114D01*
X007101Y016853D01*
X007035Y01688D01*
X006965D01*
X0069Y016853D01*
X00685Y016803D01*
X006823Y016738D01*
Y016668D01*
X00685Y016602D01*
X0069Y016553D01*
X006965Y016526D01*
X007035D01*
X007101Y016553D01*
X007114Y016566D01*
X010936D01*
X01095Y016553D01*
X011015Y016526D01*
X011085D01*
X011151Y016553D01*
X0112Y016602D01*
X011209Y016624D01*
X011259Y016614D01*
Y01559D01*
X01118Y015511D01*
X009587D01*
X009575Y015559D01*
X009527Y01564D01*
X00946Y015707D01*
X009379Y015755D01*
X009287Y015779D01*
X009193D01*
X009101Y015755D01*
X009019Y015707D01*
X008953Y01564D01*
X008905Y015559D01*
X008881Y015467D01*
Y015373D01*
X008905Y015281D01*
X008953Y015199D01*
X009019Y015133D01*
X009101Y015085D01*
X009193Y015061D01*
X009287D01*
X009379Y015085D01*
X00946Y015133D01*
X009527Y015199D01*
X009575Y015281D01*
X009587Y015329D01*
X011217D01*
X011252Y015336D01*
X011281Y015356D01*
X011332Y015406D01*
X011378Y015387D01*
Y015059D01*
X011313Y014994D01*
X008723D01*
X008688Y014987D01*
X008659Y014967D01*
X008421Y01473D01*
X008379Y014755D01*
X008287Y014779D01*
X008193D01*
X008101Y014755D01*
X00802Y014707D01*
X007953Y01464D01*
X007905Y014559D01*
X007881Y014467D01*
Y014373D01*
X007905Y014281D01*
X007953Y0142D01*
X00802Y014133D01*
X008101Y014085D01*
X008193Y014061D01*
X008287D01*
X008379Y014085D01*
X008421Y01411D01*
X008693Y013839D01*
X008722Y013819D01*
X008757Y013812D01*
X009123D01*
X009129Y013762D01*
X009101Y013755D01*
X00902Y013707D01*
X008953Y01364D01*
X008905Y013559D01*
X008881Y013467D01*
Y013373D01*
X008905Y013281D01*
X008953Y0132D01*
X00898Y013172D01*
X00896Y013122D01*
X008667D01*
X00855Y013239D01*
X008575Y013281D01*
X008599Y013373D01*
Y013467D01*
X008575Y013559D01*
X008527Y01364D01*
X00846Y013707D01*
X008379Y013755D01*
X008287Y013779D01*
X008193D01*
X008101Y013755D01*
X00802Y013707D01*
X007953Y01364D01*
X007905Y013559D01*
X007881Y013467D01*
Y013373D01*
X007905Y013281D01*
X007953Y0132D01*
X00802Y013133D01*
X008101Y013085D01*
X008193Y013061D01*
X008287D01*
X008379Y013085D01*
X008421Y01311D01*
X008518Y013014D01*
X008497Y012964D01*
X007946D01*
X007761Y013149D01*
Y014784D01*
X008043Y015066D01*
X00809Y015057D01*
X00839D01*
X008472Y015073D01*
X008541Y015119D01*
X008587Y015188D01*
X008603Y01527D01*
Y01557D01*
X008587Y015652D01*
X008541Y015721D01*
X008472Y015767D01*
X00839Y015783D01*
X00809D01*
X008008Y015767D01*
X007939Y015721D01*
X007893Y015652D01*
X007877Y01557D01*
Y01527D01*
X007886Y015223D01*
X007572Y014909D01*
X007547Y014873D01*
X007539Y01483D01*
X007539Y01483D01*
Y013103D01*
X007539Y013103D01*
X007547Y01306D01*
X007572Y013024D01*
X007822Y012774D01*
X007822Y012774D01*
X007858Y01275D01*
X0079Y012742D01*
X007983D01*
X008004Y012692D01*
X007953Y01264D01*
X007905Y012559D01*
X007893Y012511D01*
X005767D01*
X005733Y012504D01*
X005703Y012484D01*
X005445Y012226D01*
X005435Y01223D01*
X005365D01*
X0053Y012203D01*
X00525Y012153D01*
X005223Y012088D01*
Y012018D01*
X00525Y011952D01*
X0053Y011903D01*
X005365Y011876D01*
X005435D01*
X005501Y011903D01*
X00555Y011952D01*
X005577Y012018D01*
Y012088D01*
X005573Y012098D01*
X005805Y012329D01*
X007893D01*
X007905Y012281D01*
X007953Y0122D01*
X00802Y012133D01*
X008101Y012085D01*
X008193Y012061D01*
X008287D01*
X008379Y012085D01*
X00846Y012133D01*
X008527Y0122D01*
X008575Y012281D01*
X008599Y012373D01*
Y012467D01*
X008575Y012559D01*
X008527Y01264D01*
X008476Y012692D01*
X008497Y012742D01*
X008983D01*
X009004Y012692D01*
X008953Y01264D01*
X008905Y012559D01*
X008881Y012467D01*
Y012373D01*
X008905Y012281D01*
X008953Y0122D01*
X00902Y012133D01*
X009101Y012085D01*
X009193Y012061D01*
X009287D01*
X009379Y012085D01*
X00946Y012133D01*
X009527Y0122D01*
X009575Y012281D01*
X009599Y012373D01*
Y012467D01*
X009575Y012559D01*
X009527Y01264D01*
X009476Y012692D01*
X009497Y012742D01*
X010194D01*
X010299Y012637D01*
Y010543D01*
X010299Y010543D01*
X010307Y0105D01*
X010332Y010464D01*
X010472Y010324D01*
X010508Y0103D01*
X01055Y010292D01*
X01055Y010292D01*
X01251D01*
X01251Y010292D01*
X012553Y0103D01*
X012589Y010324D01*
X012699Y010434D01*
X012699Y010434D01*
X012723Y01047D01*
X012731Y010513D01*
X012731Y010513D01*
Y011448D01*
X013014D01*
X01308Y011457D01*
X013143Y011482D01*
X013196Y011523D01*
X013237Y011577D01*
X013263Y011639D01*
X013272Y011706D01*
Y0121D01*
X013263Y012167D01*
X013237Y012229D01*
X013196Y012282D01*
X01317Y012302D01*
X013187Y012352D01*
X013723D01*
X013758Y012359D01*
X013787Y012379D01*
X013875Y012466D01*
X013921Y012447D01*
Y008172D01*
X013753Y008004D01*
X004248D01*
X003759Y008492D01*
X00373Y008512D01*
X003695Y008519D01*
X002969D01*
X002968Y008522D01*
X002932Y008609D01*
X002875Y008684D01*
X0028Y008742D01*
X002712Y008778D01*
X002618Y00879D01*
X002418D01*
X002325Y008778D01*
X002237Y008742D01*
X002162Y008684D01*
X002105Y008609D01*
X002069Y008522D01*
X002056Y008428D01*
X002069Y008334D01*
X002105Y008247D01*
X002162Y008172D01*
X002237Y008114D01*
X002325Y008078D01*
X002418Y008066D01*
X002618D01*
X002712Y008078D01*
X0028Y008114D01*
X002875Y008172D01*
X002932Y008247D01*
X002968Y008334D01*
X002969Y008337D01*
X003657D01*
X004142Y007853D01*
X003823Y007534D01*
X002963D01*
X002932Y007609D01*
X002875Y007684D01*
X0028Y007742D01*
X002712Y007778D01*
X002619Y00779D01*
X002419D01*
X002325Y007778D01*
X002237Y007742D01*
X002162Y007684D01*
X002105Y007609D01*
X002069Y007522D01*
X002056Y007428D01*
X002069Y007334D01*
X002105Y007247D01*
X002162Y007172D01*
X002237Y007114D01*
X002325Y007078D01*
X002419Y007066D01*
X002619D01*
X002712Y007078D01*
X0028Y007114D01*
X002875Y007172D01*
X002932Y007247D01*
X002968Y007334D01*
X002971Y007352D01*
X00386D01*
X003895Y007359D01*
X003924Y007379D01*
X004249Y007703D01*
X006985D01*
X007004Y007657D01*
X006986Y007639D01*
X006966Y007609D01*
X006959Y007575D01*
Y006957D01*
X00695Y006953D01*
X0069Y006903D01*
X006873Y006838D01*
Y006768D01*
X0069Y006702D01*
X00695Y006653D01*
X007015Y006626D01*
X007085D01*
X007151Y006653D01*
X0072Y006702D01*
X007227Y006768D01*
Y006838D01*
X0072Y006903D01*
X007151Y006953D01*
X007141Y006957D01*
Y007537D01*
X007188Y007584D01*
X013889D01*
X013924Y007591D01*
X013953Y007611D01*
X014314Y007972D01*
X014334Y008001D01*
X014341Y008036D01*
Y013399D01*
X014387Y013418D01*
X014552Y013253D01*
Y012104D01*
X01455Y012103D01*
X0145Y012053D01*
X014473Y011988D01*
Y011918D01*
X0145Y011852D01*
X01455Y011803D01*
X014615Y011776D01*
X014685D01*
X014751Y011803D01*
X0148Y011852D01*
X014827Y011918D01*
Y011988D01*
X014866Y012026D01*
X014885D01*
X014951Y012053D01*
X015Y012102D01*
X015027Y012168D01*
Y012238D01*
X015Y012303D01*
X014951Y012353D01*
X014941Y012357D01*
Y013253D01*
X014934Y013288D01*
X014914Y013317D01*
X014591Y01364D01*
Y015815D01*
X014638Y015862D01*
X01655D01*
X016585Y015869D01*
X016614Y015889D01*
X017288Y016562D01*
X024903Y016562D01*
X025009Y016456D01*
Y01464D01*
X02488Y014511D01*
X023587D01*
X023575Y014559D01*
X023527Y01464D01*
X02346Y014707D01*
X023379Y014755D01*
X023287Y014779D01*
X023193D01*
X023101Y014755D01*
X023019Y014707D01*
X022953Y01464D01*
X022905Y014559D01*
X022881Y014467D01*
Y014373D01*
X022905Y014281D01*
X022953Y014199D01*
X023019Y014133D01*
X023101Y014085D01*
X023193Y014061D01*
X023287D01*
X023379Y014085D01*
X02346Y014133D01*
X023527Y014199D01*
X023575Y014281D01*
X023587Y014329D01*
X024917D01*
X024952Y014336D01*
X024981Y014356D01*
X025082Y014456D01*
X025128Y014437D01*
Y014059D01*
X025063Y013994D01*
X022723D01*
X022688Y013987D01*
X022659Y013967D01*
X022421Y01373D01*
X022379Y013755D01*
X022287Y013779D01*
X022193D01*
X022101Y013755D01*
X02202Y013707D01*
X021953Y01364D01*
X021905Y013559D01*
X021881Y013467D01*
Y013373D01*
X021905Y013281D01*
X021953Y013199D01*
X02202Y013133D01*
X022101Y013085D01*
X022193Y013061D01*
X022287D01*
X022379Y013085D01*
X02246Y013133D01*
X022527Y013199D01*
X022575Y013281D01*
X022599Y013373D01*
Y013467D01*
X022575Y013559D01*
X02255Y013601D01*
X02276Y013812D01*
X023123D01*
X023129Y013762D01*
X023101Y013755D01*
X023019Y013707D01*
X022953Y01364D01*
X022905Y013559D01*
X022881Y013467D01*
Y013373D01*
X022905Y013281D01*
X022953Y013199D01*
X023019Y013133D01*
X023101Y013085D01*
X023193Y013061D01*
X023287D01*
X023379Y013085D01*
X02346Y013133D01*
X023527Y013199D01*
X023575Y013281D01*
X023599Y013373D01*
Y013467D01*
X023575Y013559D01*
X023527Y01364D01*
X02346Y013707D01*
X023379Y013755D01*
X023351Y013762D01*
X023357Y013812D01*
X0251D01*
X025135Y013819D01*
X025164Y013839D01*
X025283Y013958D01*
X025303Y013987D01*
X02531Y014022D01*
Y016542D01*
X025303Y016577D01*
X025283Y016607D01*
X025124Y016766D01*
X025143Y016812D01*
X025243D01*
X025419Y016635D01*
Y011099D01*
X025426Y011065D01*
X025446Y011035D01*
X026202Y010279D01*
X026232Y010259D01*
X026267Y010252D01*
X027983D01*
X027988Y010202D01*
X027959Y010196D01*
X027889Y01015D01*
X027843Y010081D01*
X027827Y009999D01*
Y009699D01*
X027843Y009618D01*
X027889Y009548D01*
X027959Y009502D01*
X02804Y009486D01*
X02854D01*
X028622Y009502D01*
X028691Y009548D01*
X028737Y009618D01*
X028753Y009699D01*
Y009999D01*
X028737Y010081D01*
X028691Y01015D01*
X028622Y010196D01*
X028592Y010202D01*
X028597Y010252D01*
X029116D01*
X029119Y010202D01*
X029096Y010199D01*
X029009Y010163D01*
X028934Y010105D01*
X028877Y01003D01*
X02884Y009943D01*
X028828Y009849D01*
X02884Y009755D01*
X028877Y009668D01*
X028934Y009593D01*
X029009Y009536D01*
X029096Y009499D01*
X02919Y009487D01*
X02939D01*
X029484Y009499D01*
X029571Y009536D01*
X029646Y009593D01*
X029704Y009668D01*
X02974Y009755D01*
X029752Y009849D01*
X02974Y009943D01*
X029704Y01003D01*
X029646Y010105D01*
X029571Y010163D01*
X029484Y010199D01*
X029461Y010202D01*
X029464Y010252D01*
X029809D01*
X029843Y010259D01*
X029873Y010279D01*
X029982Y010388D01*
X030028Y010368D01*
Y008959D01*
X030009Y00894D01*
X02974D01*
X02974Y008943D01*
X029704Y00903D01*
X029646Y009105D01*
X029571Y009163D01*
X029484Y009199D01*
X02939Y009211D01*
X02919D01*
X029096Y009199D01*
X029009Y009163D01*
X028934Y009105D01*
X028877Y00903D01*
X02884Y008943D01*
X028828Y008849D01*
X02884Y008755D01*
X028877Y008668D01*
X028934Y008593D01*
X029009Y008536D01*
X029096Y008499D01*
X02914Y008494D01*
X029137Y008444D01*
X028894D01*
X028859Y008437D01*
X02883Y008417D01*
X028574Y008161D01*
X028571Y008163D01*
X028484Y008199D01*
X02839Y008211D01*
X02819D01*
X028096Y008199D01*
X028009Y008163D01*
X027934Y008105D01*
X027877Y00803D01*
X02784Y007943D01*
X027828Y007849D01*
X02784Y007755D01*
X027877Y007668D01*
X027934Y007593D01*
X028009Y007536D01*
X028096Y007499D01*
X02819Y007487D01*
X02839D01*
X028484Y007499D01*
X028571Y007536D01*
X028646Y007593D01*
X028704Y007668D01*
X02874Y007755D01*
X028752Y007849D01*
X02874Y007943D01*
X028704Y00803D01*
X028702Y008033D01*
X028931Y008262D01*
X03015D01*
X030185Y008269D01*
X030214Y008289D01*
X03022Y008294D01*
X030266Y008275D01*
Y00794D01*
X02974D01*
X02974Y007943D01*
X029704Y00803D01*
X029646Y008105D01*
X029571Y008163D01*
X029484Y008199D01*
X02939Y008211D01*
X02919D01*
X029096Y008199D01*
X029009Y008163D01*
X028934Y008105D01*
X028877Y00803D01*
X02884Y007943D01*
X028828Y007849D01*
X02884Y007755D01*
X028877Y007668D01*
X028934Y007593D01*
X029009Y007536D01*
X029096Y007499D01*
X02914Y007494D01*
X029137Y007444D01*
X028894D01*
X028859Y007437D01*
X02883Y007417D01*
X028574Y007161D01*
X028571Y007163D01*
X028484Y007199D01*
X02839Y007211D01*
X02819D01*
X028096Y007199D01*
X028009Y007163D01*
X027934Y007105D01*
X027877Y00703D01*
X02784Y006943D01*
X027828Y006849D01*
X02784Y006755D01*
X027877Y006668D01*
X027934Y006593D01*
X028009Y006536D01*
X028096Y006499D01*
X02819Y006487D01*
X02839D01*
X028484Y006499D01*
X028571Y006536D01*
X028646Y006593D01*
X028704Y006668D01*
X02874Y006755D01*
X028752Y006849D01*
X02874Y006943D01*
X028704Y00703D01*
X028702Y007033D01*
X028931Y007262D01*
X030319D01*
X030353Y007269D01*
X030383Y007289D01*
X030458Y007364D01*
X030504Y007345D01*
Y00694D01*
X02974D01*
X02974Y006943D01*
X029704Y00703D01*
X029646Y007105D01*
X029571Y007163D01*
X029484Y007199D01*
X02939Y007211D01*
X02919D01*
X029096Y007199D01*
X029009Y007163D01*
X028934Y007105D01*
X028877Y00703D01*
X02884Y006943D01*
X028828Y006849D01*
X02884Y006755D01*
X028877Y006668D01*
X028934Y006593D01*
X029009Y006536D01*
X029096Y006499D01*
X02919Y006487D01*
X02939D01*
X029484Y006499D01*
X029571Y006536D01*
X029646Y006593D01*
X029704Y006668D01*
X02974Y006755D01*
X02974Y006758D01*
X03056D01*
X030573Y006761D01*
X030623Y006729D01*
Y006504D01*
X030513Y006394D01*
X028844D01*
X028809Y006387D01*
X02878Y006367D01*
X028574Y006161D01*
X028571Y006163D01*
X028484Y006199D01*
X02839Y006211D01*
X02819D01*
X028096Y006199D01*
X028009Y006163D01*
X027934Y006105D01*
X027877Y00603D01*
X02784Y005943D01*
X027828Y005849D01*
X02784Y005755D01*
X027877Y005668D01*
X027934Y005593D01*
X028009Y005536D01*
X028096Y005499D01*
X02814Y005494D01*
X028137Y005444D01*
X02175D01*
X021715Y005437D01*
X021686Y005417D01*
X020391Y004122D01*
X01952D01*
X019499Y004172D01*
X019527Y0042D01*
X019575Y004281D01*
X019599Y004373D01*
Y004467D01*
X019575Y004559D01*
X01955Y004601D01*
X019914Y004966D01*
X019934Y004995D01*
X019941Y00503D01*
Y006403D01*
X019934Y006438D01*
X019914Y006467D01*
X019341Y00704D01*
Y007953D01*
X019344Y007953D01*
X019431Y007989D01*
X019506Y008047D01*
X019564Y008122D01*
X0196Y008209D01*
X019612Y008303D01*
Y008503D01*
X0196Y008597D01*
X019564Y008684D01*
X019506Y008759D01*
X019431Y008816D01*
X019344Y008853D01*
X01925Y008865D01*
X019156Y008853D01*
X019069Y008816D01*
X018994Y008759D01*
X018937Y008684D01*
X0189Y008597D01*
X018888Y008503D01*
Y008303D01*
X0189Y008209D01*
X018937Y008122D01*
X018994Y008047D01*
X019069Y007989D01*
X019156Y007953D01*
X019159Y007953D01*
Y007003D01*
X019166Y006968D01*
X019186Y006939D01*
X019759Y006365D01*
Y005068D01*
X019421Y00473D01*
X019379Y004755D01*
X019287Y004779D01*
X019193D01*
X019101Y004755D01*
X019019Y004707D01*
X018953Y00464D01*
X018905Y004559D01*
X018891Y004505D01*
X018841Y004511D01*
Y00491D01*
X018834Y004945D01*
X018814Y004974D01*
X01855Y005239D01*
X018575Y005281D01*
X018599Y005373D01*
Y005467D01*
X018575Y005559D01*
X018527Y00564D01*
X01846Y005707D01*
X018379Y005755D01*
X018287Y005779D01*
X018193D01*
X018101Y005755D01*
X018019Y005707D01*
X017953Y00564D01*
X017905Y005559D01*
X017881Y005467D01*
Y005373D01*
X017905Y005281D01*
X017953Y0052D01*
X018019Y005133D01*
X018101Y005085D01*
X018193Y005061D01*
X018287D01*
X018379Y005085D01*
X018421Y00511D01*
X018659Y004872D01*
Y004153D01*
X018666Y004118D01*
X018686Y004089D01*
X018808Y003967D01*
X018837Y003947D01*
X018855Y003944D01*
X01885Y003894D01*
X018438D01*
X018331Y004001D01*
Y004073D01*
X018379Y004085D01*
X01846Y004133D01*
X018527Y0042D01*
X018575Y004281D01*
X018599Y004373D01*
Y004467D01*
X018575Y004559D01*
X018527Y00464D01*
X01846Y004707D01*
X018379Y004755D01*
X018287Y004779D01*
X018193D01*
X018101Y004755D01*
X018019Y004707D01*
X017953Y00464D01*
X017905Y004559D01*
X017881Y004467D01*
Y004373D01*
X017905Y004281D01*
X017953Y0042D01*
X018019Y004133D01*
X018101Y004085D01*
X018149Y004073D01*
Y003963D01*
X018156Y003928D01*
X018176Y003899D01*
X018336Y003739D01*
X018365Y003719D01*
X0184Y003712D01*
X0207D01*
X020735Y003719D01*
X020764Y003739D01*
X021784Y004758D01*
X024453D01*
X024463Y004708D01*
X02445Y004703D01*
X0244Y004653D01*
X024373Y004588D01*
Y004518D01*
X0244Y004452D01*
X024413Y004439D01*
Y003087D01*
X023058D01*
X023037Y003137D01*
X02305Y00315D01*
X023077Y003215D01*
Y003285D01*
X02305Y00335D01*
X023Y0034D01*
X022935Y003427D01*
X022865D01*
X0228Y0034D01*
X02275Y00335D01*
X022746Y003341D01*
X014563D01*
X014331Y003573D01*
Y004073D01*
X014379Y004085D01*
X01446Y004133D01*
X014527Y0042D01*
X014575Y004281D01*
X014599Y004373D01*
Y004467D01*
X014575Y004559D01*
X014527Y00464D01*
X01446Y004707D01*
X014379Y004755D01*
X014287Y004779D01*
X014193D01*
X014101Y004755D01*
X014019Y004707D01*
X013953Y00464D01*
X013905Y004559D01*
X013881Y004467D01*
Y004373D01*
X013905Y004281D01*
X013953Y0042D01*
X014019Y004133D01*
X014101Y004085D01*
X014149Y004073D01*
Y003535D01*
X014156Y0035D01*
X014176Y003471D01*
X014461Y003186D01*
X01449Y003166D01*
X014525Y003159D01*
X02272D01*
X022735Y003137D01*
X022709Y003087D01*
X013457D01*
X013377Y003167D01*
Y004085D01*
X013379Y004085D01*
X01346Y004133D01*
X013527Y0042D01*
X013575Y004281D01*
X013599Y004373D01*
Y004467D01*
X013575Y004559D01*
X013527Y00464D01*
X01346Y004707D01*
X013379Y004755D01*
X013287Y004779D01*
X013193D01*
X013101Y004755D01*
X013019Y004707D01*
X012953Y00464D01*
X012905Y004559D01*
X012891Y004504D01*
X012841Y004511D01*
Y004892D01*
X013059Y00511D01*
X013101Y005085D01*
X013193Y005061D01*
X013287D01*
X013379Y005085D01*
X01346Y005133D01*
X013527Y0052D01*
X013575Y005281D01*
X013599Y005373D01*
Y005467D01*
X013575Y005559D01*
X013527Y00564D01*
X01346Y005707D01*
X013379Y005755D01*
X013287Y005779D01*
X013193D01*
X013101Y005755D01*
X013019Y005707D01*
X012953Y00564D01*
X012905Y005559D01*
X012881Y005467D01*
Y005373D01*
X012905Y005281D01*
X01293Y005239D01*
X012686Y004994D01*
X012666Y004965D01*
X012659Y00493D01*
Y0022D01*
X012666Y002165D01*
X012686Y002136D01*
X013211Y001611D01*
X01324Y001591D01*
X013275Y001584D01*
X015425D01*
X01546Y001591D01*
X015489Y001611D01*
X016158Y002279D01*
X01664D01*
X01664Y002276D01*
X016676Y002189D01*
X016734Y002114D01*
X016809Y002056D01*
X016896Y00202D01*
X01699Y002008D01*
X01719D01*
X017284Y00202D01*
X017371Y002056D01*
X017446Y002114D01*
X017504Y002189D01*
X01754Y002276D01*
X017552Y00237D01*
X01754Y002464D01*
X017504Y002551D01*
X017446Y002626D01*
X017371Y002684D01*
X017284Y00272D01*
X01719Y002732D01*
X01699D01*
X016896Y00272D01*
X016809Y002684D01*
X016734Y002626D01*
X016676Y002551D01*
X01664Y002464D01*
X01664Y002461D01*
X01612D01*
X016085Y002454D01*
X016056Y002434D01*
X015387Y001766D01*
X013313D01*
X012841Y002238D01*
Y004329D01*
X012891Y004336D01*
X012905Y004281D01*
X012953Y0042D01*
X013019Y004133D01*
X013101Y004085D01*
X013103Y004085D01*
Y00311D01*
X013114Y003058D01*
X013143Y003013D01*
X013303Y002853D01*
X013348Y002824D01*
X0134Y002813D01*
X024413D01*
Y002543D01*
X024424Y002491D01*
X024454Y002446D01*
X024644Y002256D01*
X024688Y002227D01*
X02474Y002216D01*
X03203D01*
X032082Y002227D01*
X032127Y002256D01*
X032317Y002446D01*
X032346Y002491D01*
X032357Y002543D01*
Y008116D01*
X032447Y008206D01*
X032641D01*
X032658Y008156D01*
X032629Y008134D01*
X032565Y008051D01*
X032525Y007954D01*
X032518Y007899D01*
X033015D01*
Y007849D01*
X033065D01*
Y007446D01*
X033115D01*
X033219Y007459D01*
X033316Y0075D01*
X0334Y007564D01*
X033464Y007647D01*
X033504Y007745D01*
X03351Y007788D01*
X03356D01*
X033565Y007755D01*
X033601Y007668D01*
X033658Y007593D01*
X033733Y007536D01*
X033821Y007499D01*
X033915Y007487D01*
X034115D01*
X034208Y007499D01*
X034296Y007536D01*
X034371Y007593D01*
X034428Y007668D01*
X034464Y007755D01*
X034477Y007849D01*
X034464Y007943D01*
X034428Y00803D01*
X034371Y008105D01*
X034296Y008163D01*
X034208Y008199D01*
X034115Y008211D01*
X033915D01*
X033821Y008199D01*
X033733Y008163D01*
X033658Y008105D01*
X033601Y00803D01*
X033565Y007943D01*
X03356Y00791D01*
X03351D01*
X033504Y007954D01*
X033464Y008051D01*
X0334Y008134D01*
X033372Y008156D01*
X033389Y008206D01*
X033508D01*
X033561Y008217D01*
X033605Y008246D01*
X033854Y008495D01*
X033915Y008487D01*
X034115D01*
X034208Y008499D01*
X034296Y008536D01*
X034371Y008593D01*
X034428Y008668D01*
X034464Y008755D01*
X034477Y008849D01*
X034464Y008943D01*
X034428Y00903D01*
X034371Y009105D01*
X034296Y009163D01*
X034208Y009199D01*
X034115Y009211D01*
X033915D01*
X033821Y009199D01*
X033733Y009163D01*
X033658Y009105D01*
X033601Y00903D01*
X033565Y008943D01*
X033552Y008849D01*
X033565Y008755D01*
X033601Y008668D01*
X033618Y008646D01*
X033452Y00848D01*
X033291D01*
X033281Y00853D01*
X033296Y008536D01*
X033371Y008593D01*
X033428Y008668D01*
X033464Y008755D01*
X033477Y008849D01*
X033464Y008943D01*
X033428Y00903D01*
X033371Y009105D01*
X033296Y009163D01*
X033208Y009199D01*
X033115Y009211D01*
X032915D01*
X032821Y009199D01*
X032733Y009163D01*
X032658Y009105D01*
X032601Y00903D01*
X032565Y008943D01*
X032552Y008849D01*
X032565Y008755D01*
X032601Y008668D01*
X032658Y008593D01*
X032733Y008536D01*
X032748Y00853D01*
X032738Y00848D01*
X03239D01*
X032338Y008469D01*
X032294Y008439D01*
X032124Y008269D01*
X032094Y008225D01*
X032083Y008173D01*
Y002599D01*
X031974Y00249D01*
X029591D01*
X029577Y002522D01*
X029576Y00254D01*
X029646Y002593D01*
X029704Y002668D01*
X02974Y002755D01*
X029752Y002849D01*
X02974Y002943D01*
X029704Y00303D01*
X029646Y003105D01*
X029571Y003163D01*
X029484Y003199D01*
X02939Y003211D01*
X02919D01*
X029096Y003199D01*
X029009Y003163D01*
X028934Y003105D01*
X028877Y00303D01*
X02884Y002943D01*
X028828Y002849D01*
X02884Y002755D01*
X028877Y002668D01*
X028934Y002593D01*
X029004Y00254D01*
X029003Y002522D01*
X02899Y00249D01*
X028591D01*
X028577Y002522D01*
X028576Y00254D01*
X028646Y002593D01*
X028704Y002668D01*
X02874Y002755D01*
X028752Y002849D01*
X02874Y002943D01*
X028704Y00303D01*
X028646Y003105D01*
X028571Y003163D01*
X028484Y003199D01*
X02839Y003211D01*
X02819D01*
X028096Y003199D01*
X028009Y003163D01*
X027934Y003105D01*
X027877Y00303D01*
X02784Y002943D01*
X027828Y002849D01*
X02784Y002755D01*
X027877Y002668D01*
X027934Y002593D01*
X028004Y00254D01*
X028003Y002522D01*
X02799Y00249D01*
X024797D01*
X024687Y002599D01*
Y00295D01*
Y004439D01*
X0247Y004452D01*
X024727Y004518D01*
Y004588D01*
X0247Y004653D01*
X024651Y004703D01*
X024638Y004708D01*
X024648Y004758D01*
X02784D01*
X02784Y004755D01*
X027877Y004668D01*
X027934Y004593D01*
X028009Y004536D01*
X028096Y004499D01*
X02819Y004487D01*
X02839D01*
X028484Y004499D01*
X028571Y004536D01*
X028646Y004593D01*
X028704Y004668D01*
X02874Y004755D01*
X028752Y004849D01*
X02874Y004943D01*
X028704Y00503D01*
X028646Y005105D01*
X028571Y005163D01*
X028484Y005199D01*
X02839Y005211D01*
X02819D01*
X028096Y005199D01*
X028009Y005163D01*
X027934Y005105D01*
X027877Y00503D01*
X02784Y004943D01*
X02784Y00494D01*
X021747D01*
X021712Y004933D01*
X021682Y004913D01*
X020663Y003894D01*
X020451D01*
X020446Y003944D01*
X020463Y003947D01*
X020492Y003967D01*
X021788Y005262D01*
X028649D01*
X028878Y005033D01*
X028877Y00503D01*
X02884Y004943D01*
X028828Y004849D01*
X02884Y004755D01*
X028877Y004668D01*
X028934Y004593D01*
X029009Y004536D01*
X029096Y004499D01*
X02919Y004487D01*
X02939D01*
X029484Y004499D01*
X029571Y004536D01*
X029646Y004593D01*
X029704Y004668D01*
X02974Y004755D01*
X029752Y004849D01*
X02974Y004943D01*
X029704Y00503D01*
X029646Y005105D01*
X029571Y005163D01*
X029484Y005199D01*
X02939Y005211D01*
X02919D01*
X029096Y005199D01*
X029009Y005163D01*
X029007Y005161D01*
X028751Y005417D01*
X028721Y005437D01*
X028687Y005444D01*
X028444D01*
X02844Y005494D01*
X028484Y005499D01*
X028571Y005536D01*
X028646Y005593D01*
X028704Y005668D01*
X02874Y005755D01*
X028752Y005849D01*
X02874Y005943D01*
X028704Y00603D01*
X028702Y006033D01*
X028881Y006212D01*
X028997D01*
X029008Y006165D01*
X029008Y006162D01*
X028934Y006105D01*
X028877Y00603D01*
X02884Y005943D01*
X028828Y005849D01*
X02884Y005755D01*
X028877Y005668D01*
X028934Y005593D01*
X029009Y005536D01*
X029096Y005499D01*
X02919Y005487D01*
X02939D01*
X029484Y005499D01*
X029571Y005536D01*
X029646Y005593D01*
X029704Y005668D01*
X02974Y005755D01*
X02974Y005758D01*
X030647D01*
X030681Y005765D01*
X030711Y005785D01*
X030897Y005971D01*
X030917Y006001D01*
X030924Y006036D01*
Y013365D01*
X03097Y013385D01*
X031056Y013299D01*
X031085Y013279D01*
X03112Y013272D01*
X033405D01*
X033439Y013279D01*
X033469Y013299D01*
X033731Y013561D01*
X033733Y013559D01*
X033821Y013523D01*
X033915Y013511D01*
X034115D01*
X034208Y013523D01*
X034296Y013559D01*
X034371Y013617D01*
X034428Y013692D01*
X034464Y013779D01*
X034477Y013873D01*
X034464Y013967D01*
X034428Y014054D01*
X034371Y014129D01*
X034296Y014186D01*
X034208Y014223D01*
X034115Y014235D01*
X033915D01*
X033821Y014223D01*
X033733Y014186D01*
X033658Y014129D01*
X033601Y014054D01*
X033565Y013967D01*
X033552Y013873D01*
X033565Y013779D01*
X033601Y013692D01*
X033603Y013689D01*
X033367Y013454D01*
X031158D01*
X031043Y013569D01*
Y013856D01*
X031089Y013876D01*
X031156Y013809D01*
X031185Y013789D01*
X03122Y013782D01*
X032564D01*
X032565Y013779D01*
X032601Y013692D01*
X032658Y013617D01*
X032733Y013559D01*
X032821Y013523D01*
X032915Y013511D01*
X033115D01*
X033208Y013523D01*
X033296Y013559D01*
X033371Y013617D01*
X033428Y013692D01*
X033464Y013779D01*
X033477Y013873D01*
X033464Y013967D01*
X033428Y014054D01*
X033371Y014129D01*
X033296Y014186D01*
X033208Y014223D01*
X033115Y014235D01*
X032915D01*
X032821Y014223D01*
X032733Y014186D01*
X032658Y014129D01*
X032601Y014054D01*
X032565Y013967D01*
X032564Y013964D01*
X031258D01*
X031162Y014059D01*
Y014397D01*
X031208Y014416D01*
X031286Y014339D01*
X031315Y014319D01*
X03135Y014312D01*
X033445D01*
X033479Y014319D01*
X033509Y014339D01*
X033731Y014561D01*
X033733Y014559D01*
X033821Y014523D01*
X033915Y014511D01*
X034115D01*
X034208Y014523D01*
X034296Y014559D01*
X034371Y014617D01*
X034428Y014692D01*
X034464Y014779D01*
X034477Y014873D01*
X034464Y014967D01*
X034428Y015054D01*
X034371Y015129D01*
X034296Y015186D01*
X034208Y015223D01*
X034115Y015235D01*
X033915D01*
X033821Y015223D01*
X033733Y015186D01*
X033658Y015129D01*
X033601Y015054D01*
X033565Y014967D01*
X033552Y014873D01*
X033565Y014779D01*
X033601Y014692D01*
X033603Y014689D01*
X033407Y014494D01*
X033268D01*
X033258Y014544D01*
X033296Y014559D01*
X033371Y014617D01*
X033428Y014692D01*
X033464Y014779D01*
X033477Y014873D01*
X033464Y014967D01*
X033428Y015054D01*
X033371Y015129D01*
X033296Y015186D01*
X033208Y015223D01*
X033115Y015235D01*
X032915D01*
X032821Y015223D01*
X032733Y015186D01*
X032658Y015129D01*
X032601Y015054D01*
X032565Y014967D01*
X032552Y014873D01*
X032565Y014779D01*
X032601Y014692D01*
X032658Y014617D01*
X032733Y014559D01*
X032771Y014544D01*
X032761Y014494D01*
X031388D01*
X031281Y0146D01*
Y021283D01*
X031274Y021318D01*
X031254Y021347D01*
X030084Y022517D01*
X030055Y022537D01*
X03002Y022544D01*
D02*
G37*
G36*
X034115Y017235D02*
X033915D01*
X033821Y017223D01*
X033733Y017186D01*
X033658Y017129D01*
X033601Y017054D01*
X033565Y016967D01*
X033552Y016873D01*
X033565Y016779D01*
X033601Y016692D01*
X033658Y016617D01*
X033733Y016559D01*
X033821Y016523D01*
X033915Y016511D01*
X034115D01*
X034208Y016523D01*
X034296Y016559D01*
X034371Y016617D01*
X034428Y016692D01*
X034464Y016779D01*
X034477Y016873D01*
X034464Y016967D01*
X034428Y017054D01*
X034371Y017129D01*
X034296Y017186D01*
X034208Y017223D01*
X034115Y017235D01*
D02*
G37*
G36*
X033115D02*
X032915D01*
X032821Y017223D01*
X032733Y017186D01*
X032658Y017129D01*
X032601Y017054D01*
X032565Y016967D01*
X032552Y016873D01*
X032565Y016779D01*
X032601Y016692D01*
X032658Y016617D01*
X032733Y016559D01*
X032821Y016523D01*
X032915Y016511D01*
X033115D01*
X033208Y016523D01*
X033296Y016559D01*
X033371Y016617D01*
X033428Y016692D01*
X033464Y016779D01*
X033477Y016873D01*
X033464Y016967D01*
X033428Y017054D01*
X033371Y017129D01*
X033296Y017186D01*
X033208Y017223D01*
X033115Y017235D01*
D02*
G37*
G36*
X004889Y016992D02*
X003811D01*
X00373Y016975D01*
X00366Y016929D01*
X003614Y01686D01*
X003598Y016778D01*
Y016478D01*
X003614Y016397D01*
X00366Y016328D01*
X00373Y016281D01*
X003811Y016265D01*
X004889D01*
X004971Y016281D01*
X00504Y016328D01*
X005086Y016397D01*
X005102Y016478D01*
Y016778D01*
X005086Y01686D01*
X00504Y016929D01*
X004971Y016975D01*
X004889Y016992D01*
D02*
G37*
G36*
X002188Y016365D02*
X002107Y016354D01*
X002032Y016323D01*
X001967Y016273D01*
X001918Y016209D01*
X001886Y016134D01*
X001876Y016053D01*
Y015853D01*
X001886Y015772D01*
X001918Y015697D01*
X001967Y015632D01*
X002032Y015583D01*
X002107Y015552D01*
X002188Y015541D01*
X002268Y015552D01*
X002343Y015583D01*
X002408Y015632D01*
X002458Y015697D01*
X002489Y015772D01*
X002499Y015853D01*
Y016053D01*
X002489Y016134D01*
X002458Y016209D01*
X002408Y016273D01*
X002343Y016323D01*
X002268Y016354D01*
X002188Y016365D01*
D02*
G37*
G36*
X0014D02*
X001319Y016354D01*
X001244Y016323D01*
X00118Y016273D01*
X00113Y016209D01*
X001099Y016134D01*
X001088Y016053D01*
Y015853D01*
X001099Y015772D01*
X00113Y015697D01*
X00118Y015632D01*
X001244Y015583D01*
X001319Y015552D01*
X0014Y015541D01*
X001481Y015552D01*
X001556Y015583D01*
X001621Y015632D01*
X00167Y015697D01*
X001701Y015772D01*
X001712Y015853D01*
Y016053D01*
X001701Y016134D01*
X00167Y016209D01*
X001621Y016273D01*
X001556Y016323D01*
X001481Y016354D01*
X0014Y016365D01*
D02*
G37*
G36*
X000613D02*
X000532Y016354D01*
X000457Y016323D01*
X000392Y016273D01*
X000343Y016209D01*
X000312Y016134D01*
X000301Y016053D01*
Y015853D01*
X000312Y015772D01*
X000343Y015697D01*
X000392Y015632D01*
X000457Y015583D01*
X000532Y015552D01*
X000613Y015541D01*
X000693Y015552D01*
X000769Y015583D01*
X000833Y015632D01*
X000883Y015697D01*
X000914Y015772D01*
X000924Y015853D01*
Y016053D01*
X000914Y016134D01*
X000883Y016209D01*
X000833Y016273D01*
X000769Y016323D01*
X000693Y016354D01*
X000613Y016365D01*
D02*
G37*
G36*
X034115Y016235D02*
X033915D01*
X033821Y016223D01*
X033733Y016186D01*
X033658Y016129D01*
X033601Y016054D01*
X033565Y015967D01*
X033552Y015873D01*
X033565Y015779D01*
X033601Y015692D01*
X033658Y015617D01*
X033733Y015559D01*
X033821Y015523D01*
X033915Y015511D01*
X034115D01*
X034208Y015523D01*
X034296Y015559D01*
X034371Y015617D01*
X034428Y015692D01*
X034464Y015779D01*
X034477Y015873D01*
X034464Y015967D01*
X034428Y016054D01*
X034371Y016129D01*
X034296Y016186D01*
X034208Y016223D01*
X034115Y016235D01*
D02*
G37*
G36*
X033115D02*
X032915D01*
X032821Y016223D01*
X032733Y016186D01*
X032658Y016129D01*
X032601Y016054D01*
X032565Y015967D01*
X032552Y015873D01*
X032565Y015779D01*
X032601Y015692D01*
X032658Y015617D01*
X032733Y015559D01*
X032821Y015523D01*
X032915Y015511D01*
X033115D01*
X033208Y015523D01*
X033296Y015559D01*
X033371Y015617D01*
X033428Y015692D01*
X033464Y015779D01*
X033477Y015873D01*
X033464Y015967D01*
X033428Y016054D01*
X033371Y016129D01*
X033296Y016186D01*
X033208Y016223D01*
X033115Y016235D01*
D02*
G37*
G36*
X0183Y0159D02*
Y015453D01*
X018654D01*
Y015503D01*
X01864Y015607D01*
X0186Y015705D01*
X018535Y015788D01*
X018452Y015852D01*
X018355Y015893D01*
X0183Y0159D01*
D02*
G37*
G36*
X0182D02*
X018146Y015893D01*
X018048Y015852D01*
X017965Y015788D01*
X017901Y015705D01*
X01786Y015607D01*
X017847Y015503D01*
Y015453D01*
X0182D01*
Y0159D01*
D02*
G37*
G36*
X022125Y016287D02*
X017393D01*
X017341Y016276D01*
X017296Y016247D01*
X017046Y015997D01*
X017017Y015952D01*
X017006Y0159D01*
Y01159D01*
X01699Y011573D01*
X016963Y011508D01*
Y011438D01*
X01699Y011372D01*
X017006Y011356D01*
Y00653D01*
X017017Y006478D01*
X017046Y006433D01*
X017174Y006306D01*
X017218Y006277D01*
X01727Y006266D01*
X019014D01*
X019103Y006176D01*
Y005755D01*
X019101Y005755D01*
X019019Y005707D01*
X018953Y00564D01*
X018905Y005559D01*
X018881Y005467D01*
Y005373D01*
X018905Y005281D01*
X018953Y0052D01*
X019019Y005133D01*
X019101Y005085D01*
X019193Y005061D01*
X019287D01*
X019379Y005085D01*
X01946Y005133D01*
X019527Y0052D01*
X019575Y005281D01*
X019599Y005373D01*
Y005467D01*
X019575Y005559D01*
X019527Y00564D01*
X01946Y005707D01*
X019379Y005755D01*
X019377Y005755D01*
Y006233D01*
X019366Y006285D01*
X019337Y00633D01*
X019167Y006499D01*
X019122Y006529D01*
X01907Y00654D01*
X017327D01*
X01728Y006586D01*
Y011362D01*
X01729Y011372D01*
X017317Y011438D01*
Y011508D01*
X01729Y011573D01*
X01728Y011584D01*
Y015843D01*
X01745Y016013D01*
X022068D01*
X022103Y015978D01*
Y015755D01*
X022101Y015755D01*
X02202Y015707D01*
X021953Y01564D01*
X021905Y015559D01*
X021881Y015467D01*
Y015373D01*
X021905Y015281D01*
X021953Y015199D01*
X02202Y015133D01*
X022101Y015085D01*
X022193Y015061D01*
X022287D01*
X022379Y015085D01*
X02246Y015133D01*
X022527Y015199D01*
X022575Y015281D01*
X022599Y015373D01*
Y015467D01*
X022575Y015559D01*
X022527Y01564D01*
X02246Y015707D01*
X022379Y015755D01*
X022377Y015755D01*
Y016035D01*
X022366Y016087D01*
X022337Y016132D01*
X022222Y016247D01*
X022177Y016276D01*
X022125Y016287D01*
D02*
G37*
G36*
X018654Y015353D02*
X0183D01*
Y014906D01*
X018355Y014913D01*
X018452Y014953D01*
X018535Y015018D01*
X0186Y015101D01*
X01864Y015198D01*
X018654Y015303D01*
Y015353D01*
D02*
G37*
G36*
X0182D02*
X017847D01*
Y015303D01*
X01786Y015198D01*
X017901Y015101D01*
X017965Y015018D01*
X018048Y014953D01*
X018146Y014913D01*
X0182Y014906D01*
Y015353D01*
D02*
G37*
G36*
X0204Y015866D02*
X0201D01*
X020019Y01585D01*
X019949Y015804D01*
X019903Y015734D01*
X019887Y015653D01*
Y015153D01*
X019903Y015071D01*
X019949Y015002D01*
X020019Y014956D01*
X02008Y014944D01*
X020075Y014894D01*
X019788D01*
X019562Y015119D01*
X019564Y015122D01*
X0196Y015209D01*
X019612Y015303D01*
Y015503D01*
X0196Y015597D01*
X019564Y015684D01*
X019506Y015759D01*
X019431Y015816D01*
X019344Y015853D01*
X01925Y015865D01*
X019156Y015853D01*
X019069Y015816D01*
X018994Y015759D01*
X018937Y015684D01*
X0189Y015597D01*
X018888Y015503D01*
Y015303D01*
X0189Y015209D01*
X018937Y015122D01*
X018994Y015047D01*
X019069Y014989D01*
X019156Y014953D01*
X01925Y014941D01*
X019344Y014953D01*
X019431Y014989D01*
X019434Y014991D01*
X019686Y014739D01*
X019715Y014719D01*
X01975Y014712D01*
X02105D01*
X021085Y014719D01*
X021114Y014739D01*
X021188Y014812D01*
X022123D01*
X022129Y014762D01*
X022101Y014755D01*
X02202Y014707D01*
X021953Y01464D01*
X021905Y014559D01*
X021881Y014467D01*
Y014373D01*
X021905Y014281D01*
X021953Y014199D01*
X02202Y014133D01*
X022101Y014085D01*
X022193Y014061D01*
X022287D01*
X022379Y014085D01*
X02246Y014133D01*
X022527Y014199D01*
X022575Y014281D01*
X022599Y014373D01*
Y014467D01*
X022575Y014559D01*
X022527Y01464D01*
X02246Y014707D01*
X022379Y014755D01*
X022351Y014762D01*
X022357Y014812D01*
X022723D01*
X022758Y014819D01*
X022787Y014839D01*
X023059Y01511D01*
X023101Y015085D01*
X023193Y015061D01*
X023287D01*
X023379Y015085D01*
X02346Y015133D01*
X023527Y015199D01*
X023575Y015281D01*
X023599Y015373D01*
Y015467D01*
X023575Y015559D01*
X023527Y01564D01*
X02346Y015707D01*
X023379Y015755D01*
X023287Y015779D01*
X023193D01*
X023101Y015755D01*
X023019Y015707D01*
X022953Y01564D01*
X022905Y015559D01*
X022881Y015467D01*
Y015373D01*
X022905Y015281D01*
X02293Y015239D01*
X022685Y014994D01*
X02115D01*
X021115Y014987D01*
X021086Y014967D01*
X021013Y014894D01*
X020425D01*
X02042Y014944D01*
X020482Y014956D01*
X020551Y015002D01*
X020597Y015071D01*
X020613Y015153D01*
Y015653D01*
X020597Y015734D01*
X020551Y015804D01*
X020482Y01585D01*
X0204Y015866D01*
D02*
G37*
G36*
X000613Y014593D02*
X000532Y014582D01*
X000457Y014551D01*
X000392Y014502D01*
X000343Y014437D01*
X000312Y014362D01*
X000301Y014281D01*
Y014081D01*
X000312Y014001D01*
X000343Y013925D01*
X000392Y013861D01*
X000457Y013811D01*
X000532Y01378D01*
X000613Y013769D01*
X000693Y01378D01*
X000769Y013811D01*
X000833Y013861D01*
X000883Y013925D01*
X000914Y014001D01*
X000924Y014081D01*
Y014281D01*
X000914Y014362D01*
X000883Y014437D01*
X000833Y014502D01*
X000769Y014551D01*
X000693Y014582D01*
X000613Y014593D01*
D02*
G37*
G36*
X023287Y012779D02*
X023193D01*
X023101Y012755D01*
X023019Y012707D01*
X022953Y01264D01*
X022905Y012559D01*
X022881Y012467D01*
Y012373D01*
X022905Y012281D01*
X022953Y012199D01*
X023019Y012133D01*
X023101Y012085D01*
X023193Y012061D01*
X023287D01*
X023379Y012085D01*
X02346Y012133D01*
X023527Y012199D01*
X023575Y012281D01*
X023599Y012373D01*
Y012467D01*
X023575Y012559D01*
X023527Y01264D01*
X02346Y012707D01*
X023379Y012755D01*
X023287Y012779D01*
D02*
G37*
G36*
X022287D02*
X022193D01*
X022101Y012755D01*
X02202Y012707D01*
X021953Y01264D01*
X021905Y012559D01*
X021881Y012467D01*
Y012373D01*
X021905Y012281D01*
X021953Y012199D01*
X02202Y012133D01*
X022101Y012085D01*
X022193Y012061D01*
X022287D01*
X022379Y012085D01*
X02246Y012133D01*
X022527Y012199D01*
X022575Y012281D01*
X022599Y012373D01*
Y012467D01*
X022575Y012559D01*
X022527Y01264D01*
X02246Y012707D01*
X022379Y012755D01*
X022287Y012779D01*
D02*
G37*
G36*
X019096Y012399D02*
X018753D01*
Y011953D01*
X019396D01*
Y0121D01*
X019386Y012177D01*
X019356Y012249D01*
X019308Y012311D01*
X019246Y012359D01*
X019174Y012389D01*
X019096Y012399D01*
D02*
G37*
G36*
X018653D02*
X018309D01*
X018231Y012389D01*
X018159Y012359D01*
X018097Y012311D01*
X01805Y012249D01*
X01802Y012177D01*
X018009Y0121D01*
Y011953D01*
X018653D01*
Y012399D01*
D02*
G37*
G36*
X019396Y011853D02*
X018753D01*
Y011407D01*
X019096D01*
X019174Y011417D01*
X019246Y011447D01*
X019308Y011494D01*
X019356Y011556D01*
X019386Y011629D01*
X019396Y011706D01*
Y011853D01*
D02*
G37*
G36*
X018653D02*
X018009D01*
Y011706D01*
X01802Y011629D01*
X01805Y011556D01*
X018097Y011494D01*
X018159Y011447D01*
X018231Y011417D01*
X018309Y011407D01*
X018653D01*
Y011853D01*
D02*
G37*
G36*
X009287Y011779D02*
X009193D01*
X009101Y011755D01*
X00902Y011707D01*
X008953Y01164D01*
X008905Y011559D01*
X008881Y011467D01*
Y011373D01*
X008905Y011281D01*
X008953Y0112D01*
X00902Y011133D01*
X009101Y011085D01*
X009193Y011061D01*
X009287D01*
X009379Y011085D01*
X00946Y011133D01*
X009527Y0112D01*
X009575Y011281D01*
X009599Y011373D01*
Y011467D01*
X009575Y011559D01*
X009527Y01164D01*
X00946Y011707D01*
X009379Y011755D01*
X009287Y011779D01*
D02*
G37*
G36*
X008287D02*
X008193D01*
X008101Y011755D01*
X00802Y011707D01*
X007953Y01164D01*
X007905Y011559D01*
X007881Y011467D01*
Y011373D01*
X007905Y011281D01*
X007953Y0112D01*
X00802Y011133D01*
X008101Y011085D01*
X008193Y011061D01*
X008287D01*
X008379Y011085D01*
X00846Y011133D01*
X008527Y0112D01*
X008575Y011281D01*
X008599Y011373D01*
Y011467D01*
X008575Y011559D01*
X008527Y01164D01*
X00846Y011707D01*
X008379Y011755D01*
X008287Y011779D01*
D02*
G37*
G36*
X023287Y011779D02*
X023193D01*
X023101Y011755D01*
X023019Y011707D01*
X022953Y01164D01*
X022905Y011559D01*
X022881Y011467D01*
Y011373D01*
X022905Y011281D01*
X022953Y011199D01*
X023019Y011133D01*
X023101Y011085D01*
X023193Y011061D01*
X023287D01*
X023379Y011085D01*
X02346Y011133D01*
X023527Y011199D01*
X023575Y011281D01*
X023599Y011373D01*
Y011467D01*
X023575Y011559D01*
X023527Y01164D01*
X02346Y011707D01*
X023379Y011755D01*
X023287Y011779D01*
D02*
G37*
G36*
X022287D02*
X022193D01*
X022101Y011755D01*
X02202Y011707D01*
X021953Y01164D01*
X021905Y011559D01*
X021881Y011467D01*
Y011373D01*
X021905Y011281D01*
X021953Y011199D01*
X02202Y011133D01*
X022101Y011085D01*
X022193Y011061D01*
X022287D01*
X022379Y011085D01*
X02246Y011133D01*
X022527Y011199D01*
X022575Y011281D01*
X022599Y011373D01*
Y011467D01*
X022575Y011559D01*
X022527Y01164D01*
X02246Y011707D01*
X022379Y011755D01*
X022287Y011779D01*
D02*
G37*
G36*
X009293Y01082D02*
X00929D01*
Y01047D01*
X00964D01*
Y010473D01*
X009613Y010574D01*
X00956Y010666D01*
X009486Y01074D01*
X009394Y010793D01*
X009293Y01082D01*
D02*
G37*
G36*
X00919D02*
X009187D01*
X009086Y010793D01*
X008994Y01074D01*
X00892Y010666D01*
X008867Y010574D01*
X00884Y010473D01*
Y01047D01*
X00919D01*
Y01082D01*
D02*
G37*
G36*
X008287Y010779D02*
X008193D01*
X008101Y010755D01*
X00802Y010707D01*
X007953Y01064D01*
X007905Y010559D01*
X007881Y010467D01*
Y010373D01*
X007905Y010281D01*
X007953Y0102D01*
X00802Y010133D01*
X008101Y010085D01*
X008193Y010061D01*
X008287D01*
X008379Y010085D01*
X00846Y010133D01*
X008527Y0102D01*
X008575Y010281D01*
X008599Y010373D01*
Y010467D01*
X008575Y010559D01*
X008527Y01064D01*
X00846Y010707D01*
X008379Y010755D01*
X008287Y010779D01*
D02*
G37*
G36*
X023287Y010779D02*
X023193D01*
X023101Y010755D01*
X023019Y010707D01*
X022953Y01064D01*
X022905Y010559D01*
X022881Y010467D01*
Y010373D01*
X022905Y010281D01*
X022953Y010199D01*
X023019Y010133D01*
X023101Y010085D01*
X023193Y010061D01*
X023287D01*
X023379Y010085D01*
X02346Y010133D01*
X023527Y010199D01*
X023575Y010281D01*
X023599Y010373D01*
Y010467D01*
X023575Y010559D01*
X023527Y01064D01*
X02346Y010707D01*
X023379Y010755D01*
X023287Y010779D01*
D02*
G37*
G36*
X022287D02*
X022193D01*
X022101Y010755D01*
X02202Y010707D01*
X021953Y01064D01*
X021905Y010559D01*
X021881Y010467D01*
Y010373D01*
X021905Y010281D01*
X021953Y010199D01*
X02202Y010133D01*
X022101Y010085D01*
X022193Y010061D01*
X022287D01*
X022379Y010085D01*
X02246Y010133D01*
X022527Y010199D01*
X022575Y010281D01*
X022599Y010373D01*
Y010467D01*
X022575Y010559D01*
X022527Y01064D01*
X02246Y010707D01*
X022379Y010755D01*
X022287Y010779D01*
D02*
G37*
G36*
X00964Y01037D02*
X00929D01*
Y01002D01*
X009293D01*
X009394Y010047D01*
X009486Y0101D01*
X00956Y010174D01*
X009613Y010266D01*
X00964Y010367D01*
Y01037D01*
D02*
G37*
G36*
X00919D02*
X00884D01*
Y010367D01*
X008867Y010266D01*
X00892Y010174D01*
X008994Y0101D01*
X009086Y010047D01*
X009187Y01002D01*
X00919D01*
Y01037D01*
D02*
G37*
G36*
X034115Y010211D02*
X033915D01*
X033821Y010199D01*
X033733Y010163D01*
X033658Y010105D01*
X033601Y01003D01*
X033565Y009943D01*
X033552Y009849D01*
X033565Y009755D01*
X033601Y009668D01*
X033658Y009593D01*
X033733Y009536D01*
X033821Y009499D01*
X033915Y009487D01*
X034115D01*
X034208Y009499D01*
X034296Y009536D01*
X034371Y009593D01*
X034428Y009668D01*
X034464Y009755D01*
X034477Y009849D01*
X034464Y009943D01*
X034428Y01003D01*
X034371Y010105D01*
X034296Y010163D01*
X034208Y010199D01*
X034115Y010211D01*
D02*
G37*
G36*
X033265Y010212D02*
X032765D01*
X032683Y010196D01*
X032614Y01015D01*
X032568Y010081D01*
X032551Y009999D01*
Y009699D01*
X032568Y009618D01*
X032614Y009548D01*
X032683Y009502D01*
X032765Y009486D01*
X033265D01*
X033346Y009502D01*
X033415Y009548D01*
X033461Y009618D01*
X033478Y009699D01*
Y009999D01*
X033461Y010081D01*
X033415Y01015D01*
X033346Y010196D01*
X033265Y010212D01*
D02*
G37*
G36*
X009287Y009779D02*
X009193D01*
X009101Y009755D01*
X00902Y009707D01*
X008953Y00964D01*
X008905Y009559D01*
X008881Y009467D01*
Y009373D01*
X008905Y009281D01*
X008953Y0092D01*
X00902Y009133D01*
X009101Y009085D01*
X009193Y009061D01*
X009287D01*
X009379Y009085D01*
X00946Y009133D01*
X009527Y0092D01*
X009575Y009281D01*
X009599Y009373D01*
Y009467D01*
X009575Y009559D01*
X009527Y00964D01*
X00946Y009707D01*
X009379Y009755D01*
X009287Y009779D01*
D02*
G37*
G36*
X0026Y01536D02*
X00157D01*
X001518Y015349D01*
X001474Y015319D01*
X001303Y015149D01*
X001274Y015105D01*
X001263Y015053D01*
Y014559D01*
X001244Y014551D01*
X00118Y014502D01*
X00113Y014437D01*
X001099Y014362D01*
X001088Y014281D01*
Y014081D01*
X001099Y014001D01*
X00113Y013925D01*
X00118Y013861D01*
X001244Y013811D01*
X001319Y01378D01*
X0014Y013769D01*
X001481Y01378D01*
X001556Y013811D01*
X001621Y013861D01*
X00167Y013925D01*
X001701Y014001D01*
X001712Y014081D01*
Y014281D01*
X001701Y014362D01*
X00167Y014437D01*
X001621Y014502D01*
X001556Y014551D01*
X001537Y014559D01*
Y014996D01*
X001627Y015086D01*
X002544D01*
X002683Y014946D01*
Y009683D01*
X002694Y009631D01*
X002724Y009586D01*
X002986Y009323D01*
X003031Y009294D01*
X003083Y009283D01*
X007905D01*
X007905Y009281D01*
X007953Y0092D01*
X00802Y009133D01*
X008101Y009085D01*
X008193Y009061D01*
X008287D01*
X008379Y009085D01*
X00846Y009133D01*
X008527Y0092D01*
X008575Y009281D01*
X008599Y009373D01*
Y009467D01*
X008575Y009559D01*
X008527Y00964D01*
X00846Y009707D01*
X008379Y009755D01*
X008287Y009779D01*
X008193D01*
X008101Y009755D01*
X00802Y009707D01*
X007953Y00964D01*
X007905Y009559D01*
X007905Y009557D01*
X00314D01*
X002957Y009739D01*
Y015003D01*
X002946Y015055D01*
X002917Y015099D01*
X002697Y015319D01*
X002652Y015349D01*
X0026Y01536D01*
D02*
G37*
G36*
X023287Y009779D02*
X023193D01*
X023101Y009755D01*
X023019Y009707D01*
X022953Y00964D01*
X022905Y009559D01*
X022881Y009467D01*
Y009373D01*
X022905Y009281D01*
X022953Y009199D01*
X023019Y009133D01*
X023101Y009085D01*
X023193Y009061D01*
X023287D01*
X023379Y009085D01*
X02346Y009133D01*
X023527Y009199D01*
X023575Y009281D01*
X023599Y009373D01*
Y009467D01*
X023575Y009559D01*
X023527Y00964D01*
X02346Y009707D01*
X023379Y009755D01*
X023287Y009779D01*
D02*
G37*
G36*
X022287D02*
X022193D01*
X022101Y009755D01*
X02202Y009707D01*
X021953Y00964D01*
X021905Y009559D01*
X021881Y009467D01*
Y009373D01*
X021905Y009281D01*
X021953Y009199D01*
X02202Y009133D01*
X022101Y009085D01*
X022193Y009061D01*
X022287D01*
X022379Y009085D01*
X02246Y009133D01*
X022527Y009199D01*
X022575Y009281D01*
X022599Y009373D01*
Y009467D01*
X022575Y009559D01*
X022527Y00964D01*
X02246Y009707D01*
X022379Y009755D01*
X022287Y009779D01*
D02*
G37*
G36*
X02839Y009211D02*
X02819D01*
X028096Y009199D01*
X028009Y009163D01*
X027934Y009105D01*
X027877Y00903D01*
X02784Y008943D01*
X027828Y008849D01*
X02784Y008755D01*
X027877Y008668D01*
X027934Y008593D01*
X028009Y008536D01*
X028096Y008499D01*
X02819Y008487D01*
X02839D01*
X028484Y008499D01*
X028571Y008536D01*
X028646Y008593D01*
X028704Y008668D01*
X02874Y008755D01*
X028752Y008849D01*
X02874Y008943D01*
X028704Y00903D01*
X028646Y009105D01*
X028571Y009163D01*
X028484Y009199D01*
X02839Y009211D01*
D02*
G37*
G36*
X0183Y0089D02*
Y008453D01*
X018654D01*
Y008503D01*
X01864Y008607D01*
X0186Y008705D01*
X018535Y008788D01*
X018452Y008852D01*
X018355Y008893D01*
X0183Y0089D01*
D02*
G37*
G36*
X0182D02*
X018146Y008893D01*
X018048Y008852D01*
X017965Y008788D01*
X017901Y008705D01*
X01786Y008607D01*
X017847Y008503D01*
Y008453D01*
X0182D01*
Y0089D01*
D02*
G37*
G36*
X001768Y008791D02*
X001268D01*
X001187Y008775D01*
X001118Y008729D01*
X001072Y008659D01*
X001055Y008578D01*
Y008278D01*
X001072Y008196D01*
X001118Y008127D01*
X001187Y008081D01*
X001268Y008065D01*
X001768D01*
X00185Y008081D01*
X001919Y008127D01*
X001965Y008196D01*
X001982Y008278D01*
Y008578D01*
X001965Y008659D01*
X001919Y008729D01*
X00185Y008775D01*
X001768Y008791D01*
D02*
G37*
G36*
X023287Y008779D02*
X023193D01*
X023101Y008755D01*
X02302Y008707D01*
X022953Y00864D01*
X022905Y008559D01*
X022881Y008467D01*
Y008373D01*
X022905Y008281D01*
X022953Y0082D01*
X02302Y008133D01*
X023101Y008085D01*
X023193Y008061D01*
X023287D01*
X023379Y008085D01*
X02346Y008133D01*
X023527Y0082D01*
X023575Y008281D01*
X023599Y008373D01*
Y008467D01*
X023575Y008559D01*
X023527Y00864D01*
X02346Y008707D01*
X023379Y008755D01*
X023287Y008779D01*
D02*
G37*
G36*
X022287D02*
X022193D01*
X022101Y008755D01*
X02202Y008707D01*
X021953Y00864D01*
X021905Y008559D01*
X021881Y008467D01*
Y008373D01*
X021905Y008281D01*
X021953Y0082D01*
X02202Y008133D01*
X022101Y008085D01*
X022193Y008061D01*
X022287D01*
X022379Y008085D01*
X02246Y008133D01*
X022527Y0082D01*
X022575Y008281D01*
X022599Y008373D01*
Y008467D01*
X022575Y008559D01*
X022527Y00864D01*
X02246Y008707D01*
X022379Y008755D01*
X022287Y008779D01*
D02*
G37*
G36*
X009287D02*
X009193D01*
X009101Y008755D01*
X00902Y008707D01*
X008953Y00864D01*
X008905Y008559D01*
X008881Y008467D01*
Y008373D01*
X008905Y008281D01*
X008953Y0082D01*
X00902Y008133D01*
X009101Y008085D01*
X009193Y008061D01*
X009287D01*
X009379Y008085D01*
X00946Y008133D01*
X009527Y0082D01*
X009575Y008281D01*
X009599Y008373D01*
Y008467D01*
X009575Y008559D01*
X009527Y00864D01*
X00946Y008707D01*
X009379Y008755D01*
X009287Y008779D01*
D02*
G37*
G36*
X008287D02*
X008193D01*
X008101Y008755D01*
X00802Y008707D01*
X007953Y00864D01*
X007905Y008559D01*
X007881Y008467D01*
Y008373D01*
X007905Y008281D01*
X007953Y0082D01*
X00802Y008133D01*
X008101Y008085D01*
X008193Y008061D01*
X008287D01*
X008379Y008085D01*
X00846Y008133D01*
X008527Y0082D01*
X008575Y008281D01*
X008599Y008373D01*
Y008467D01*
X008575Y008559D01*
X008527Y00864D01*
X00846Y008707D01*
X008379Y008755D01*
X008287Y008779D01*
D02*
G37*
G36*
X0204Y008866D02*
X0201D01*
X020019Y00885D01*
X019949Y008804D01*
X019903Y008734D01*
X019887Y008653D01*
Y008153D01*
X019903Y008071D01*
X019949Y008002D01*
X020019Y007956D01*
X0201Y00794D01*
X0204D01*
X020482Y007956D01*
X020551Y008002D01*
X020597Y008071D01*
X020613Y008153D01*
Y008653D01*
X020597Y008734D01*
X020551Y008804D01*
X020482Y00885D01*
X0204Y008866D01*
D02*
G37*
G36*
X018654Y008353D02*
X0183D01*
Y007906D01*
X018355Y007913D01*
X018452Y007953D01*
X018535Y008018D01*
X0186Y008101D01*
X01864Y008198D01*
X018654Y008303D01*
Y008353D01*
D02*
G37*
G36*
X0182D02*
X017847D01*
Y008303D01*
X01786Y008198D01*
X017901Y008101D01*
X017965Y008018D01*
X018048Y007953D01*
X018146Y007913D01*
X0182Y007906D01*
Y008353D01*
D02*
G37*
G36*
X032965Y007799D02*
X032518D01*
X032525Y007745D01*
X032565Y007647D01*
X032629Y007564D01*
X032713Y0075D01*
X03281Y007459D01*
X032915Y007446D01*
X032965D01*
Y007799D01*
D02*
G37*
G36*
X001619Y00779D02*
X001419D01*
X001325Y007778D01*
X001237Y007742D01*
X001162Y007684D01*
X001105Y007609D01*
X001069Y007522D01*
X001056Y007428D01*
X001069Y007334D01*
X001105Y007247D01*
X001162Y007172D01*
X001237Y007114D01*
X001325Y007078D01*
X001419Y007066D01*
X001619D01*
X001712Y007078D01*
X0018Y007114D01*
X001875Y007172D01*
X001932Y007247D01*
X001968Y007334D01*
X001981Y007428D01*
X001968Y007522D01*
X001932Y007609D01*
X001875Y007684D01*
X0018Y007742D01*
X001712Y007778D01*
X001619Y00779D01*
D02*
G37*
G36*
X032965Y007253D02*
X032915D01*
X03281Y007239D01*
X032713Y007199D01*
X032629Y007134D01*
X032565Y007051D01*
X032525Y006954D01*
X032518Y006899D01*
X032965D01*
Y007253D01*
D02*
G37*
G36*
X002469Y006831D02*
X002419D01*
X002314Y006818D01*
X002217Y006777D01*
X002133Y006713D01*
X002069Y00663D01*
X002046Y006573D01*
X001991D01*
X001968Y00663D01*
X001904Y006713D01*
X00182Y006777D01*
X001723Y006818D01*
X001619Y006831D01*
X001569D01*
Y006428D01*
Y006025D01*
X001619D01*
X001723Y006038D01*
X00182Y006079D01*
X001904Y006143D01*
X001968Y006226D01*
X001991Y006283D01*
X002046D01*
X002069Y006226D01*
X002133Y006143D01*
X002217Y006079D01*
X002314Y006038D01*
X002419Y006025D01*
X002469D01*
Y006428D01*
Y006831D01*
D02*
G37*
G36*
X033115Y007253D02*
X033065D01*
Y006849D01*
Y006446D01*
X033115D01*
X033219Y006459D01*
X033316Y0065D01*
X0334Y006564D01*
X033464Y006647D01*
X033504Y006745D01*
X03351Y006788D01*
X03356D01*
X033565Y006755D01*
X033601Y006668D01*
X033658Y006593D01*
X033733Y006536D01*
X033821Y006499D01*
X033915Y006487D01*
X034115D01*
X034208Y006499D01*
X034296Y006536D01*
X034371Y006593D01*
X034428Y006668D01*
X034464Y006755D01*
X034477Y006849D01*
X034464Y006943D01*
X034428Y00703D01*
X034371Y007105D01*
X034296Y007163D01*
X034208Y007199D01*
X034115Y007211D01*
X033915D01*
X033821Y007199D01*
X033733Y007163D01*
X033658Y007105D01*
X033601Y00703D01*
X033565Y006943D01*
X03356Y00691D01*
X03351D01*
X033504Y006954D01*
X033464Y007051D01*
X0334Y007134D01*
X033316Y007199D01*
X033219Y007239D01*
X033115Y007253D01*
D02*
G37*
G36*
X002619Y006831D02*
X002569D01*
Y006478D01*
X003015D01*
X003008Y006532D01*
X002968Y00663D01*
X002904Y006713D01*
X00282Y006777D01*
X002723Y006818D01*
X002619Y006831D01*
D02*
G37*
G36*
X001469D02*
X001419D01*
X001314Y006818D01*
X001217Y006777D01*
X001133Y006713D01*
X001069Y00663D01*
X001029Y006532D01*
X001022Y006478D01*
X001469D01*
Y006831D01*
D02*
G37*
G36*
X032965Y006799D02*
X032518D01*
X032525Y006745D01*
X032565Y006647D01*
X032629Y006564D01*
X032713Y0065D01*
X03281Y006459D01*
X032915Y006446D01*
X032965D01*
Y006799D01*
D02*
G37*
G36*
X003015Y006378D02*
X002569D01*
Y006025D01*
X002619D01*
X002723Y006038D01*
X00282Y006079D01*
X002904Y006143D01*
X002968Y006226D01*
X003008Y006324D01*
X003015Y006378D01*
D02*
G37*
G36*
X001469D02*
X001022D01*
X001029Y006324D01*
X001069Y006226D01*
X001133Y006143D01*
X001217Y006079D01*
X001314Y006038D01*
X001419Y006025D01*
X001469D01*
Y006378D01*
D02*
G37*
G36*
X032965Y006253D02*
X032915D01*
X03281Y006239D01*
X032713Y006199D01*
X032629Y006134D01*
X032565Y006051D01*
X032525Y005954D01*
X032518Y005899D01*
X032965D01*
Y006253D01*
D02*
G37*
G36*
X033115D02*
X033065D01*
Y005849D01*
Y005446D01*
X033115D01*
X033219Y005459D01*
X033316Y0055D01*
X0334Y005564D01*
X033464Y005647D01*
X033504Y005745D01*
X03351Y005788D01*
X03356D01*
X033565Y005755D01*
X033601Y005668D01*
X033658Y005593D01*
X033733Y005536D01*
X033821Y005499D01*
X033915Y005487D01*
X034115D01*
X034208Y005499D01*
X034296Y005536D01*
X034371Y005593D01*
X034428Y005668D01*
X034464Y005755D01*
X034477Y005849D01*
X034464Y005943D01*
X034428Y00603D01*
X034371Y006105D01*
X034296Y006163D01*
X034208Y006199D01*
X034115Y006211D01*
X033915D01*
X033821Y006199D01*
X033733Y006163D01*
X033658Y006105D01*
X033601Y00603D01*
X033565Y005943D01*
X03356Y00591D01*
X03351D01*
X033504Y005954D01*
X033464Y006051D01*
X0334Y006134D01*
X033316Y006199D01*
X033219Y006239D01*
X033115Y006253D01*
D02*
G37*
G36*
X012293Y00582D02*
X01229D01*
Y00547D01*
X01264D01*
Y005473D01*
X012613Y005574D01*
X01256Y005666D01*
X012486Y00574D01*
X012394Y005793D01*
X012293Y00582D01*
D02*
G37*
G36*
X01219D02*
X012187D01*
X012086Y005793D01*
X011994Y00574D01*
X01192Y005666D01*
X011867Y005574D01*
X01184Y005473D01*
Y00547D01*
X01219D01*
Y00582D01*
D02*
G37*
G36*
X032965Y005799D02*
X032518D01*
X032525Y005745D01*
X032565Y005647D01*
X032629Y005564D01*
X032713Y0055D01*
X03281Y005459D01*
X032915Y005446D01*
X032965D01*
Y005799D01*
D02*
G37*
G36*
X00685Y0058D02*
Y005353D01*
X007204D01*
Y005403D01*
X00719Y005507D01*
X00715Y005605D01*
X007085Y005688D01*
X007002Y005752D01*
X006905Y005793D01*
X00685Y0058D01*
D02*
G37*
G36*
X00675D02*
X006696Y005793D01*
X006598Y005752D01*
X006515Y005688D01*
X006451Y005605D01*
X00641Y005507D01*
X006397Y005403D01*
Y005353D01*
X00675D01*
Y0058D01*
D02*
G37*
G36*
X002619Y00579D02*
X002419D01*
X002325Y005778D01*
X002237Y005742D01*
X002162Y005684D01*
X002105Y005609D01*
X002069Y005522D01*
X002056Y005428D01*
X002069Y005334D01*
X002105Y005247D01*
X002162Y005172D01*
X002237Y005114D01*
X002325Y005078D01*
X002419Y005066D01*
X002619D01*
X002712Y005078D01*
X0028Y005114D01*
X002875Y005172D01*
X002932Y005247D01*
X002968Y005334D01*
X002981Y005428D01*
X002968Y005522D01*
X002932Y005609D01*
X002875Y005684D01*
X0028Y005742D01*
X002712Y005778D01*
X002619Y00579D01*
D02*
G37*
G36*
X002313Y014594D02*
X002063D01*
X001991Y01458D01*
X00193Y014539D01*
X001889Y014478D01*
X001875Y014406D01*
Y013956D01*
X001889Y013884D01*
X00193Y013823D01*
X001991Y013783D01*
X002051Y013771D01*
Y011617D01*
X000654Y010219D01*
X000624Y010175D01*
X000613Y010123D01*
Y005573D01*
X000624Y005521D01*
X000654Y005476D01*
X000798Y005331D01*
X000843Y005302D01*
X000895Y005291D01*
X001086D01*
X001105Y005247D01*
X001162Y005172D01*
X001237Y005114D01*
X001325Y005078D01*
X001419Y005066D01*
X001619D01*
X001712Y005078D01*
X0018Y005114D01*
X001875Y005172D01*
X001932Y005247D01*
X001968Y005334D01*
X001981Y005428D01*
X001968Y005522D01*
X001932Y005609D01*
X001875Y005684D01*
X0018Y005742D01*
X001712Y005778D01*
X001619Y00579D01*
X001419D01*
X001325Y005778D01*
X001237Y005742D01*
X001162Y005684D01*
X001105Y005609D01*
X001086Y005565D01*
X000952D01*
X000887Y005629D01*
Y010066D01*
X002284Y011464D01*
X002314Y011508D01*
X002324Y01156D01*
Y013771D01*
X002384Y013783D01*
X002445Y013823D01*
X002486Y013884D01*
X0025Y013956D01*
Y014406D01*
X002486Y014478D01*
X002445Y014539D01*
X002384Y01458D01*
X002313Y014594D01*
D02*
G37*
G36*
X016557Y006194D02*
X00913D01*
X009095Y006187D01*
X009066Y006167D01*
X008736Y005837D01*
X008716Y005808D01*
X008709Y005773D01*
Y004457D01*
X0087Y004453D01*
X00865Y004403D01*
X008623Y004338D01*
Y004268D01*
X00865Y004202D01*
X0087Y004153D01*
X008765Y004126D01*
X008835D01*
X008901Y004153D01*
X00895Y004202D01*
X008977Y004268D01*
Y004338D01*
X00895Y004403D01*
X008901Y004453D01*
X008891Y004457D01*
Y005735D01*
X009168Y006012D01*
X01652D01*
X01693Y005601D01*
X016905Y005559D01*
X016881Y005467D01*
Y005373D01*
X016905Y005281D01*
X016953Y0052D01*
X017019Y005133D01*
X017101Y005085D01*
X017193Y005061D01*
X017287D01*
X017379Y005085D01*
X01746Y005133D01*
X017527Y0052D01*
X017575Y005281D01*
X017599Y005373D01*
Y005467D01*
X017575Y005559D01*
X017527Y00564D01*
X01746Y005707D01*
X017379Y005755D01*
X017287Y005779D01*
X017193D01*
X017101Y005755D01*
X017059Y00573D01*
X016621Y006167D01*
X016592Y006187D01*
X016557Y006194D01*
D02*
G37*
G36*
X016287Y005779D02*
X016193D01*
X016101Y005755D01*
X016019Y005707D01*
X015953Y00564D01*
X015905Y005559D01*
X015881Y005467D01*
Y005373D01*
X015905Y005281D01*
X015953Y0052D01*
X016019Y005133D01*
X016101Y005085D01*
X016193Y005061D01*
X016287D01*
X016379Y005085D01*
X01646Y005133D01*
X016527Y0052D01*
X016575Y005281D01*
X016599Y005373D01*
Y005467D01*
X016575Y005559D01*
X016527Y00564D01*
X01646Y005707D01*
X016379Y005755D01*
X016287Y005779D01*
D02*
G37*
G36*
X015287D02*
X015193D01*
X015101Y005755D01*
X015019Y005707D01*
X014953Y00564D01*
X014905Y005559D01*
X014881Y005467D01*
Y005373D01*
X014905Y005281D01*
X014953Y0052D01*
X015019Y005133D01*
X015101Y005085D01*
X015193Y005061D01*
X015287D01*
X015379Y005085D01*
X01546Y005133D01*
X015527Y0052D01*
X015575Y005281D01*
X015599Y005373D01*
Y005467D01*
X015575Y005559D01*
X015527Y00564D01*
X01546Y005707D01*
X015379Y005755D01*
X015287Y005779D01*
D02*
G37*
G36*
X014287D02*
X014193D01*
X014101Y005755D01*
X014019Y005707D01*
X013953Y00564D01*
X013905Y005559D01*
X013881Y005467D01*
Y005373D01*
X013905Y005281D01*
X013953Y0052D01*
X014019Y005133D01*
X014101Y005085D01*
X014193Y005061D01*
X014287D01*
X014379Y005085D01*
X01446Y005133D01*
X014527Y0052D01*
X014575Y005281D01*
X014599Y005373D01*
Y005467D01*
X014575Y005559D01*
X014527Y00564D01*
X01446Y005707D01*
X014379Y005755D01*
X014287Y005779D01*
D02*
G37*
G36*
X01264Y00537D02*
X01229D01*
Y00502D01*
X012293D01*
X012394Y005047D01*
X012486Y0051D01*
X01256Y005174D01*
X012613Y005266D01*
X01264Y005367D01*
Y00537D01*
D02*
G37*
G36*
X01219D02*
X01184D01*
Y005367D01*
X011867Y005266D01*
X01192Y005174D01*
X011994Y0051D01*
X012086Y005047D01*
X012187Y00502D01*
X01219D01*
Y00537D01*
D02*
G37*
G36*
X032965Y005253D02*
X032915D01*
X03281Y005239D01*
X032713Y005199D01*
X032629Y005134D01*
X032565Y005051D01*
X032525Y004954D01*
X032518Y004899D01*
X032965D01*
Y005253D01*
D02*
G37*
G36*
X0058Y005765D02*
X005706Y005753D01*
X005619Y005716D01*
X005544Y005659D01*
X005487Y005584D01*
X00545Y005497D01*
X005438Y005403D01*
Y005203D01*
X00545Y005109D01*
X005487Y005022D01*
X005544Y004947D01*
X005619Y004889D01*
X005706Y004853D01*
X0058Y004841D01*
X005894Y004853D01*
X005981Y004889D01*
X006056Y004947D01*
X006114Y005022D01*
X00615Y005109D01*
X006162Y005203D01*
Y005403D01*
X00615Y005497D01*
X006114Y005584D01*
X006056Y005659D01*
X005981Y005716D01*
X005894Y005753D01*
X0058Y005765D01*
D02*
G37*
G36*
X00495Y005766D02*
X00465D01*
X004569Y00575D01*
X004499Y005704D01*
X004453Y005634D01*
X004437Y005553D01*
Y005053D01*
X004453Y004971D01*
X004499Y004902D01*
X004569Y004856D01*
X00465Y00484D01*
X00495D01*
X005032Y004856D01*
X005101Y004902D01*
X005147Y004971D01*
X005163Y005053D01*
Y005553D01*
X005147Y005634D01*
X005101Y005704D01*
X005032Y00575D01*
X00495Y005766D01*
D02*
G37*
G36*
X007204Y005253D02*
X00685D01*
Y004806D01*
X006905Y004813D01*
X007002Y004853D01*
X007085Y004918D01*
X00715Y005001D01*
X00719Y005098D01*
X007204Y005203D01*
Y005253D01*
D02*
G37*
G36*
X00675D02*
X006397D01*
Y005203D01*
X00641Y005098D01*
X006451Y005001D01*
X006515Y004918D01*
X006598Y004853D01*
X006696Y004813D01*
X00675Y004806D01*
Y005253D01*
D02*
G37*
G36*
X033115Y005253D02*
X033065D01*
Y004849D01*
Y004446D01*
X033115D01*
X033219Y00446D01*
X033316Y0045D01*
X0334Y004564D01*
X033464Y004647D01*
X033504Y004745D01*
X03351Y004788D01*
X03356D01*
X033565Y004755D01*
X033601Y004668D01*
X033658Y004593D01*
X033733Y004536D01*
X033821Y004499D01*
X033915Y004487D01*
X034115D01*
X034208Y004499D01*
X034296Y004536D01*
X034371Y004593D01*
X034428Y004668D01*
X034464Y004755D01*
X034477Y004849D01*
X034464Y004943D01*
X034428Y00503D01*
X034371Y005105D01*
X034296Y005163D01*
X034208Y005199D01*
X034115Y005211D01*
X033915D01*
X033821Y005199D01*
X033733Y005163D01*
X033658Y005105D01*
X033601Y00503D01*
X033565Y004943D01*
X03356Y00491D01*
X03351D01*
X033504Y004954D01*
X033464Y005051D01*
X0334Y005134D01*
X033316Y005199D01*
X033219Y005239D01*
X033115Y005253D01*
D02*
G37*
G36*
X032965Y004799D02*
X032518D01*
X032525Y004745D01*
X032565Y004647D01*
X032629Y004564D01*
X032713Y0045D01*
X03281Y00446D01*
X032915Y004446D01*
X032965D01*
Y004799D01*
D02*
G37*
G36*
X002619Y00479D02*
X002419D01*
X002325Y004778D01*
X002237Y004742D01*
X002162Y004684D01*
X002105Y004609D01*
X002069Y004522D01*
X002056Y004428D01*
X002069Y004334D01*
X002105Y004247D01*
X002162Y004172D01*
X002237Y004114D01*
X002325Y004078D01*
X002419Y004066D01*
X002619D01*
X002712Y004078D01*
X0028Y004114D01*
X002875Y004172D01*
X002932Y004247D01*
X002968Y004334D01*
X002981Y004428D01*
X002968Y004522D01*
X002932Y004609D01*
X002875Y004684D01*
X0028Y004742D01*
X002712Y004778D01*
X002619Y00479D01*
D02*
G37*
G36*
X001619D02*
X001419D01*
X001325Y004778D01*
X001237Y004742D01*
X001162Y004684D01*
X001105Y004609D01*
X001069Y004522D01*
X001056Y004428D01*
X001069Y004334D01*
X001105Y004247D01*
X001162Y004172D01*
X001237Y004114D01*
X001325Y004078D01*
X001419Y004066D01*
X001619D01*
X001712Y004078D01*
X0018Y004114D01*
X001875Y004172D01*
X001932Y004247D01*
X001968Y004334D01*
X001981Y004428D01*
X001968Y004522D01*
X001932Y004609D01*
X001875Y004684D01*
X0018Y004742D01*
X001712Y004778D01*
X001619Y00479D01*
D02*
G37*
G36*
X017287Y004779D02*
X017193D01*
X017101Y004755D01*
X017019Y004707D01*
X016953Y00464D01*
X016905Y004559D01*
X016881Y004467D01*
Y004373D01*
X016905Y004281D01*
X016953Y0042D01*
X017019Y004133D01*
X017101Y004085D01*
X017193Y004061D01*
X017287D01*
X017379Y004085D01*
X01746Y004133D01*
X017527Y0042D01*
X017575Y004281D01*
X017599Y004373D01*
Y004467D01*
X017575Y004559D01*
X017527Y00464D01*
X01746Y004707D01*
X017379Y004755D01*
X017287Y004779D01*
D02*
G37*
G36*
X016287D02*
X016193D01*
X016101Y004755D01*
X016019Y004707D01*
X015953Y00464D01*
X015905Y004559D01*
X015881Y004467D01*
Y004373D01*
X015905Y004281D01*
X015953Y0042D01*
X016019Y004133D01*
X016101Y004085D01*
X016193Y004061D01*
X016287D01*
X016379Y004085D01*
X01646Y004133D01*
X016527Y0042D01*
X016575Y004281D01*
X016599Y004373D01*
Y004467D01*
X016575Y004559D01*
X016527Y00464D01*
X01646Y004707D01*
X016379Y004755D01*
X016287Y004779D01*
D02*
G37*
G36*
X015287D02*
X015193D01*
X015101Y004755D01*
X015019Y004707D01*
X014953Y00464D01*
X014905Y004559D01*
X014881Y004467D01*
Y004373D01*
X014905Y004281D01*
X014953Y0042D01*
X015019Y004133D01*
X015101Y004085D01*
X015193Y004061D01*
X015287D01*
X015379Y004085D01*
X01546Y004133D01*
X015527Y0042D01*
X015575Y004281D01*
X015599Y004373D01*
Y004467D01*
X015575Y004559D01*
X015527Y00464D01*
X01546Y004707D01*
X015379Y004755D01*
X015287Y004779D01*
D02*
G37*
G36*
X012287Y004779D02*
X012193D01*
X012101Y004755D01*
X01202Y004707D01*
X011953Y00464D01*
X011905Y004559D01*
X011893Y004511D01*
X01092D01*
X010885Y004504D01*
X010856Y004484D01*
X010705Y004334D01*
X010686Y004304D01*
X010679Y00427D01*
Y002732D01*
X01067D01*
X010576Y00272D01*
X010489Y002684D01*
X010414Y002626D01*
X010356Y002551D01*
X01032Y002464D01*
X010308Y00237D01*
X01032Y002276D01*
X010356Y002189D01*
X010414Y002114D01*
X010489Y002056D01*
X010576Y00202D01*
X01067Y002008D01*
X01087D01*
X010963Y00202D01*
X011051Y002056D01*
X011126Y002114D01*
X011183Y002189D01*
X01122Y002276D01*
X011232Y00237D01*
X01122Y002464D01*
X011183Y002551D01*
X011126Y002626D01*
X011051Y002684D01*
X010963Y00272D01*
X01087Y002732D01*
X010861D01*
Y004232D01*
X010958Y004329D01*
X011893D01*
X011905Y004281D01*
X011953Y0042D01*
X01202Y004133D01*
X012101Y004085D01*
X012193Y004061D01*
X012287D01*
X012379Y004085D01*
X01246Y004133D01*
X012527Y0042D01*
X012575Y004281D01*
X012599Y004373D01*
Y004467D01*
X012575Y004559D01*
X012527Y00464D01*
X01246Y004707D01*
X012379Y004755D01*
X012287Y004779D01*
D02*
G37*
G36*
X032965Y004253D02*
X032915D01*
X03281Y004239D01*
X032713Y004199D01*
X032629Y004134D01*
X032565Y004051D01*
X032525Y003954D01*
X032518Y003899D01*
X032965D01*
Y004253D01*
D02*
G37*
G36*
X033115D02*
X033065D01*
Y003849D01*
Y003446D01*
X033115D01*
X033219Y00346D01*
X033316Y0035D01*
X0334Y003564D01*
X033464Y003647D01*
X033504Y003745D01*
X03351Y003788D01*
X03356D01*
X033565Y003755D01*
X033601Y003668D01*
X033658Y003593D01*
X033733Y003536D01*
X033821Y003499D01*
X033915Y003487D01*
X034115D01*
X034208Y003499D01*
X034296Y003536D01*
X034371Y003593D01*
X034428Y003668D01*
X034464Y003755D01*
X034477Y003849D01*
X034464Y003943D01*
X034428Y00403D01*
X034371Y004105D01*
X034296Y004163D01*
X034208Y004199D01*
X034115Y004211D01*
X033915D01*
X033821Y004199D01*
X033733Y004163D01*
X033658Y004105D01*
X033601Y00403D01*
X033565Y003943D01*
X03356Y00391D01*
X03351D01*
X033504Y003954D01*
X033464Y004051D01*
X0334Y004134D01*
X033316Y004199D01*
X033219Y004239D01*
X033115Y004253D01*
D02*
G37*
G36*
X02939Y004211D02*
X02919D01*
X029096Y004199D01*
X029009Y004163D01*
X028934Y004105D01*
X028877Y00403D01*
X02884Y003943D01*
X028828Y003849D01*
X02884Y003755D01*
X028877Y003668D01*
X028934Y003593D01*
X029009Y003536D01*
X029096Y003499D01*
X02919Y003487D01*
X02939D01*
X029484Y003499D01*
X029571Y003536D01*
X029646Y003593D01*
X029704Y003668D01*
X02974Y003755D01*
X029752Y003849D01*
X02974Y003943D01*
X029704Y00403D01*
X029646Y004105D01*
X029571Y004163D01*
X029484Y004199D01*
X02939Y004211D01*
D02*
G37*
G36*
X02839D02*
X02819D01*
X028096Y004199D01*
X028009Y004163D01*
X027934Y004105D01*
X027877Y00403D01*
X02784Y003943D01*
X027828Y003849D01*
X02784Y003755D01*
X027877Y003668D01*
X027934Y003593D01*
X028009Y003536D01*
X028096Y003499D01*
X02819Y003487D01*
X02839D01*
X028484Y003499D01*
X028571Y003536D01*
X028646Y003593D01*
X028704Y003668D01*
X02874Y003755D01*
X028752Y003849D01*
X02874Y003943D01*
X028704Y00403D01*
X028646Y004105D01*
X028571Y004163D01*
X028484Y004199D01*
X02839Y004211D01*
D02*
G37*
G36*
X032965Y003799D02*
X032518D01*
X032525Y003745D01*
X032565Y003647D01*
X032629Y003564D01*
X032713Y0035D01*
X03281Y00346D01*
X032915Y003446D01*
X032965D01*
Y003799D01*
D02*
G37*
G36*
X00685Y0038D02*
Y003353D01*
X007204D01*
Y003403D01*
X00719Y003507D01*
X00715Y003605D01*
X007085Y003688D01*
X007002Y003752D01*
X006905Y003793D01*
X00685Y0038D01*
D02*
G37*
G36*
X00675D02*
X006696Y003793D01*
X006598Y003752D01*
X006515Y003688D01*
X006451Y003605D01*
X00641Y003507D01*
X006397Y003403D01*
Y003353D01*
X00675D01*
Y0038D01*
D02*
G37*
G36*
X032965Y003253D02*
X032915D01*
X03281Y003239D01*
X032713Y003199D01*
X032629Y003134D01*
X032565Y003051D01*
X032525Y002954D01*
X032518Y002899D01*
X032965D01*
Y003253D01*
D02*
G37*
G36*
X0058Y003765D02*
X005706Y003753D01*
X005619Y003716D01*
X005544Y003659D01*
X005487Y003584D01*
X00545Y003497D01*
X005438Y003403D01*
Y003203D01*
X00545Y003109D01*
X005487Y003022D01*
X005544Y002947D01*
X005619Y002889D01*
X005706Y002853D01*
X0058Y002841D01*
X005894Y002853D01*
X005981Y002889D01*
X006056Y002947D01*
X006114Y003022D01*
X00615Y003109D01*
X006162Y003203D01*
Y003403D01*
X00615Y003497D01*
X006114Y003584D01*
X006056Y003659D01*
X005981Y003716D01*
X005894Y003753D01*
X0058Y003765D01*
D02*
G37*
G36*
X00495Y003766D02*
X00465D01*
X004569Y00375D01*
X004499Y003704D01*
X004453Y003634D01*
X004437Y003553D01*
Y003053D01*
X004453Y002971D01*
X004499Y002902D01*
X004569Y002856D01*
X00465Y00284D01*
X00495D01*
X005032Y002856D01*
X005101Y002902D01*
X005147Y002971D01*
X005163Y003053D01*
Y003553D01*
X005147Y003634D01*
X005101Y003704D01*
X005032Y00375D01*
X00495Y003766D01*
D02*
G37*
G36*
X007204Y003253D02*
X00685D01*
Y002806D01*
X006905Y002813D01*
X007002Y002853D01*
X007085Y002918D01*
X00715Y003001D01*
X00719Y003098D01*
X007204Y003203D01*
Y003253D01*
D02*
G37*
G36*
X00675D02*
X006397D01*
Y003203D01*
X00641Y003098D01*
X006451Y003001D01*
X006515Y002918D01*
X006598Y002853D01*
X006696Y002813D01*
X00675Y002806D01*
Y003253D01*
D02*
G37*
G36*
X033115Y003253D02*
X033065D01*
Y002849D01*
Y002446D01*
X033115D01*
X033219Y002459D01*
X033316Y0025D01*
X0334Y002564D01*
X033464Y002647D01*
X033504Y002745D01*
X03351Y002788D01*
X03356D01*
X033565Y002755D01*
X033601Y002668D01*
X033658Y002593D01*
X033733Y002536D01*
X033821Y002499D01*
X033915Y002487D01*
X034115D01*
X034208Y002499D01*
X034296Y002536D01*
X034371Y002593D01*
X034428Y002668D01*
X034464Y002755D01*
X034477Y002849D01*
X034464Y002943D01*
X034428Y00303D01*
X034371Y003105D01*
X034296Y003163D01*
X034208Y003199D01*
X034115Y003211D01*
X033915D01*
X033821Y003199D01*
X033733Y003163D01*
X033658Y003105D01*
X033601Y00303D01*
X033565Y002943D01*
X03356Y00291D01*
X03351D01*
X033504Y002954D01*
X033464Y003051D01*
X0334Y003134D01*
X033316Y003199D01*
X033219Y003239D01*
X033115Y003253D01*
D02*
G37*
G36*
X032965Y002799D02*
X032518D01*
X032525Y002745D01*
X032565Y002647D01*
X032629Y002564D01*
X032713Y0025D01*
X03281Y002459D01*
X032915Y002446D01*
X032965D01*
Y002799D01*
D02*
G37*
G36*
X02344Y002732D02*
X02324D01*
X023146Y00272D01*
X023059Y002684D01*
X022984Y002626D01*
X022926Y002551D01*
X02289Y002464D01*
X022878Y00237D01*
X02289Y002276D01*
X022926Y002189D01*
X022984Y002114D01*
X023059Y002056D01*
X023146Y00202D01*
X02324Y002008D01*
X02344D01*
X023534Y00202D01*
X023621Y002056D01*
X023696Y002114D01*
X023754Y002189D01*
X02379Y002276D01*
X023802Y00237D01*
X02379Y002464D01*
X023754Y002551D01*
X023696Y002626D01*
X023621Y002684D01*
X023534Y00272D01*
X02344Y002732D01*
D02*
G37*
G36*
X021031Y002733D02*
X020531D01*
X020449Y002717D01*
X02038Y002671D01*
X020334Y002602D01*
X020318Y00252D01*
Y00222D01*
X020334Y002138D01*
X02038Y002069D01*
X020449Y002023D01*
X020531Y002007D01*
X021031D01*
X021113Y002023D01*
X021182Y002069D01*
X021228Y002138D01*
X021244Y00222D01*
Y00252D01*
X021228Y002602D01*
X021182Y002671D01*
X021113Y002717D01*
X021031Y002733D01*
D02*
G37*
G36*
X014781D02*
X014281D01*
X014199Y002717D01*
X01413Y002671D01*
X014084Y002602D01*
X014068Y00252D01*
Y00222D01*
X014084Y002138D01*
X01413Y002069D01*
X014199Y002023D01*
X014281Y002007D01*
X014781D01*
X014863Y002023D01*
X014932Y002069D01*
X014978Y002138D01*
X014994Y00222D01*
Y00252D01*
X014978Y002602D01*
X014932Y002671D01*
X014863Y002717D01*
X014781Y002733D01*
D02*
G37*
G36*
X008461D02*
X007961D01*
X007879Y002717D01*
X00781Y002671D01*
X007764Y002602D01*
X007747Y00252D01*
Y00222D01*
X007764Y002138D01*
X00781Y002069D01*
X007879Y002023D01*
X007961Y002007D01*
X008461D01*
X008542Y002023D01*
X008611Y002069D01*
X008658Y002138D01*
X008674Y00222D01*
Y00252D01*
X008658Y002602D01*
X008611Y002671D01*
X008542Y002717D01*
X008461Y002733D01*
D02*
G37*
G36*
X02344Y001002D02*
X02339D01*
Y000648D01*
X023837D01*
X02383Y000703D01*
X023789Y0008D01*
X023725Y000884D01*
X023642Y000948D01*
X023544Y000988D01*
X02344Y001002D01*
D02*
G37*
G36*
X02329D02*
X02324D01*
X023136Y000988D01*
X023038Y000948D01*
X022955Y000884D01*
X022891Y0008D01*
X02285Y000703D01*
X022843Y000648D01*
X02329D01*
Y001002D01*
D02*
G37*
G36*
X01719D02*
X01714D01*
Y000648D01*
X017587D01*
X01758Y000703D01*
X017539Y0008D01*
X017475Y000884D01*
X017392Y000948D01*
X017294Y000988D01*
X01719Y001002D01*
D02*
G37*
G36*
X01704D02*
X01699D01*
X016886Y000988D01*
X016788Y000948D01*
X016705Y000884D01*
X016641Y0008D01*
X0166Y000703D01*
X016593Y000648D01*
X01704D01*
Y001002D01*
D02*
G37*
G36*
X01087D02*
X01082D01*
Y000648D01*
X011267D01*
X011259Y000703D01*
X011219Y0008D01*
X011155Y000884D01*
X011071Y000948D01*
X010974Y000988D01*
X01087Y001002D01*
D02*
G37*
G36*
X01072D02*
X01067D01*
X010565Y000988D01*
X010468Y000948D01*
X010384Y000884D01*
X01032Y0008D01*
X01028Y000703D01*
X010273Y000648D01*
X01072D01*
Y001002D01*
D02*
G37*
G36*
X03627Y001934D02*
X036133Y001921D01*
X036001Y001881D01*
X03588Y001816D01*
X035773Y001728D01*
X035686Y001622D01*
X035621Y0015D01*
X035581Y001368D01*
X035567Y001231D01*
X035581Y001094D01*
X035621Y000962D01*
X035686Y000841D01*
X035773Y000734D01*
X03588Y000647D01*
X036001Y000582D01*
X036133Y000542D01*
X03627Y000528D01*
X036408Y000542D01*
X036539Y000582D01*
X036661Y000647D01*
X036768Y000734D01*
X036855Y000841D01*
X03692Y000962D01*
X03696Y001094D01*
X036973Y001231D01*
X03696Y001368D01*
X03692Y0015D01*
X036855Y001622D01*
X036768Y001728D01*
X036661Y001816D01*
X036539Y001881D01*
X036408Y001921D01*
X03627Y001934D01*
D02*
G37*
G36*
X026034D02*
X025897Y001921D01*
X025765Y001881D01*
X025644Y001816D01*
X025537Y001728D01*
X02545Y001622D01*
X025385Y0015D01*
X025345Y001368D01*
X025331Y001231D01*
X025345Y001094D01*
X025385Y000962D01*
X02545Y000841D01*
X025537Y000734D01*
X025644Y000647D01*
X025765Y000582D01*
X025897Y000542D01*
X026034Y000528D01*
X026171Y000542D01*
X026303Y000582D01*
X026425Y000647D01*
X026531Y000734D01*
X026619Y000841D01*
X026684Y000962D01*
X026724Y001094D01*
X026737Y001231D01*
X026724Y001368D01*
X026684Y0015D01*
X026619Y001622D01*
X026531Y001728D01*
X026425Y001816D01*
X026303Y001881D01*
X026171Y001921D01*
X026034Y001934D01*
D02*
G37*
G36*
X001231D02*
X001094Y001921D01*
X000962Y001881D01*
X000841Y001816D01*
X000734Y001728D01*
X000647Y001622D01*
X000582Y0015D01*
X000542Y001368D01*
X000528Y001231D01*
X000542Y001094D01*
X000582Y000962D01*
X000647Y000841D01*
X000734Y000734D01*
X000841Y000647D01*
X000962Y000582D01*
X001094Y000542D01*
X001231Y000528D01*
X001368Y000542D01*
X0015Y000582D01*
X001622Y000647D01*
X001728Y000734D01*
X001816Y000841D01*
X001881Y000962D01*
X001921Y001094D01*
X001934Y001231D01*
X001921Y001368D01*
X001881Y0015D01*
X001816Y001622D01*
X001728Y001728D01*
X001622Y001816D01*
X0015Y001881D01*
X001368Y001921D01*
X001231Y001934D01*
D02*
G37*
G36*
X020881Y00096D02*
X020681D01*
X020587Y000948D01*
X0205Y000912D01*
X020425Y000854D01*
X020367Y000779D01*
X020331Y000692D01*
X020319Y000598D01*
X020331Y000505D01*
X020367Y000417D01*
X020425Y000342D01*
X0205Y000285D01*
X020587Y000249D01*
X020681Y000236D01*
X020881D01*
X020975Y000249D01*
X021062Y000285D01*
X021137Y000342D01*
X021195Y000417D01*
X021231Y000505D01*
X021243Y000598D01*
X021231Y000692D01*
X021195Y000779D01*
X021137Y000854D01*
X021062Y000912D01*
X020975Y000948D01*
X020881Y00096D01*
D02*
G37*
G36*
X014631D02*
X014431D01*
X014337Y000948D01*
X01425Y000912D01*
X014175Y000854D01*
X014117Y000779D01*
X014081Y000692D01*
X014069Y000598D01*
X014081Y000505D01*
X014117Y000417D01*
X014175Y000342D01*
X01425Y000285D01*
X014337Y000249D01*
X014431Y000236D01*
X014631D01*
X014725Y000249D01*
X014812Y000285D01*
X014887Y000342D01*
X014945Y000417D01*
X014981Y000505D01*
X014993Y000598D01*
X014981Y000692D01*
X014945Y000779D01*
X014887Y000854D01*
X014812Y000912D01*
X014725Y000948D01*
X014631Y00096D01*
D02*
G37*
G36*
X008311D02*
X008111D01*
X008017Y000948D01*
X00793Y000912D01*
X007855Y000854D01*
X007797Y000779D01*
X007761Y000692D01*
X007748Y000598D01*
X007761Y000505D01*
X007797Y000417D01*
X007855Y000342D01*
X00793Y000285D01*
X008017Y000249D01*
X008111Y000236D01*
X008311D01*
X008404Y000249D01*
X008492Y000285D01*
X008567Y000342D01*
X008624Y000417D01*
X00866Y000505D01*
X008673Y000598D01*
X00866Y000692D01*
X008624Y000779D01*
X008567Y000854D01*
X008492Y000912D01*
X008404Y000948D01*
X008311Y00096D01*
D02*
G37*
%LPD*%
G36*
X036395Y022955D02*
X036511Y022907D01*
X03661Y022831D01*
X036687Y022731D01*
X036735Y022615D01*
X036751Y022491D01*
X036735Y022367D01*
X036687Y022251D01*
X03661Y022151D01*
X036511Y022075D01*
X036395Y022027D01*
X03627Y02201D01*
X036146Y022027D01*
X03603Y022075D01*
X035931Y022151D01*
X035854Y022251D01*
X035806Y022367D01*
X03579Y022491D01*
X035806Y022615D01*
X035854Y022731D01*
X035931Y022831D01*
X03603Y022907D01*
X036146Y022955D01*
X03627Y022972D01*
X036395Y022955D01*
D02*
G37*
G36*
X026159D02*
X026275Y022907D01*
X026374Y022831D01*
X02645Y022731D01*
X026498Y022615D01*
X026515Y022491D01*
X026498Y022367D01*
X02645Y022251D01*
X026374Y022151D01*
X026275Y022075D01*
X026159Y022027D01*
X026034Y02201D01*
X02591Y022027D01*
X025794Y022075D01*
X025694Y022151D01*
X025618Y022251D01*
X02557Y022367D01*
X025554Y022491D01*
X02557Y022615D01*
X025618Y022731D01*
X025694Y022831D01*
X025794Y022907D01*
X02591Y022955D01*
X026034Y022972D01*
X026159Y022955D01*
D02*
G37*
G36*
X001355D02*
X001471Y022907D01*
X001571Y022831D01*
X001647Y022731D01*
X001695Y022615D01*
X001712Y022491D01*
X001695Y022367D01*
X001647Y022251D01*
X001571Y022151D01*
X001471Y022075D01*
X001355Y022027D01*
X001231Y02201D01*
X001107Y022027D01*
X000991Y022075D01*
X000891Y022151D01*
X000815Y022251D01*
X000767Y022367D01*
X00075Y022491D01*
X000767Y022615D01*
X000815Y022731D01*
X000891Y022831D01*
X000991Y022907D01*
X001107Y022955D01*
X001231Y022972D01*
X001355Y022955D01*
D02*
G37*
G36*
X029608Y021221D02*
X029575Y021184D01*
X029571Y021186D01*
X029484Y021223D01*
X02939Y021235D01*
X02919D01*
X029096Y021223D01*
X029009Y021186D01*
X028934Y021129D01*
X028877Y021054D01*
X02884Y020967D01*
X028828Y020873D01*
X02884Y020779D01*
X028877Y020692D01*
X028934Y020617D01*
X029009Y020559D01*
X029096Y020523D01*
X02919Y020511D01*
X02939D01*
X029484Y020523D01*
X029571Y020559D01*
X029646Y020617D01*
X029704Y020692D01*
X02974Y020779D01*
X029752Y020873D01*
X02974Y020967D01*
X029704Y021054D01*
X029701Y021058D01*
X029739Y021091D01*
X030028Y020801D01*
Y014429D01*
X029982Y01441D01*
X029702Y014689D01*
X029704Y014692D01*
X02974Y014779D01*
X029752Y014873D01*
X02974Y014967D01*
X029704Y015054D01*
X029646Y015129D01*
X029571Y015186D01*
X029484Y015223D01*
X02939Y015235D01*
X02919D01*
X029096Y015223D01*
X029009Y015186D01*
X028934Y015129D01*
X028877Y015054D01*
X02884Y014967D01*
X028828Y014873D01*
X02884Y014779D01*
X028877Y014692D01*
X028934Y014617D01*
X029009Y014559D01*
X029096Y014523D01*
X02919Y014511D01*
X02939D01*
X029484Y014523D01*
X029571Y014559D01*
X029574Y014561D01*
X029648Y014486D01*
X029624Y01444D01*
X029607Y014444D01*
X02887D01*
X028835Y014437D01*
X028806Y014417D01*
X028574Y014185D01*
X028571Y014186D01*
X028484Y014223D01*
X02839Y014235D01*
X02819D01*
X028096Y014223D01*
X028009Y014186D01*
X027934Y014129D01*
X027877Y014054D01*
X02784Y013967D01*
X02784Y013964D01*
X026938D01*
X026791Y01411D01*
Y019163D01*
X026784Y019198D01*
X026764Y019227D01*
X026507Y019484D01*
X026478Y019504D01*
X026443Y019511D01*
X019587D01*
X019575Y019559D01*
X019527Y01964D01*
X01946Y019707D01*
X019379Y019755D01*
X019287Y019779D01*
X019193D01*
X019101Y019755D01*
X019019Y019707D01*
X018953Y01964D01*
X018905Y019559D01*
X018881Y019467D01*
Y019373D01*
X018905Y019281D01*
X018953Y0192D01*
X019019Y019133D01*
X019101Y019085D01*
X019193Y019061D01*
X019287D01*
X019379Y019085D01*
X01946Y019133D01*
X019527Y0192D01*
X019575Y019281D01*
X019587Y019329D01*
X026405D01*
X026609Y019125D01*
Y018337D01*
X026563Y018318D01*
X026397Y018484D01*
X026368Y018504D01*
X026333Y018511D01*
X019587D01*
X019575Y018559D01*
X019527Y01864D01*
X01946Y018707D01*
X019379Y018755D01*
X019287Y018779D01*
X019193D01*
X019101Y018755D01*
X019019Y018707D01*
X018953Y01864D01*
X018905Y018559D01*
X018881Y018467D01*
Y018373D01*
X018905Y018281D01*
X018953Y0182D01*
X019019Y018133D01*
X019101Y018085D01*
X019193Y018061D01*
X019287D01*
X019379Y018085D01*
X01946Y018133D01*
X019527Y0182D01*
X019575Y018281D01*
X019587Y018329D01*
X026295D01*
X026459Y018165D01*
Y013603D01*
X026466Y013568D01*
X026486Y013539D01*
X026686Y013339D01*
X026715Y013319D01*
X02675Y013312D01*
X02872D01*
X028755Y013319D01*
X028784Y013339D01*
X029007Y013561D01*
X029009Y013559D01*
X029096Y013523D01*
X02919Y013511D01*
X02939D01*
X029484Y013523D01*
X029571Y013559D01*
X029646Y013617D01*
X029704Y013692D01*
X02973Y013756D01*
X02978Y013746D01*
Y010611D01*
X029722Y010553D01*
X028216D01*
X028197Y010599D01*
X0282Y010602D01*
X028227Y010668D01*
Y010706D01*
X028264Y010743D01*
X028274Y010745D01*
X028335D01*
X028401Y010772D01*
X02845Y010822D01*
X028477Y010887D01*
Y010937D01*
X028509Y01097D01*
X028524Y010976D01*
X028585D01*
X028651Y011003D01*
X0287Y011052D01*
X028727Y011118D01*
Y011188D01*
X0287Y011253D01*
X028651Y011303D01*
X028585Y01133D01*
X028515D01*
X02845Y011303D01*
X0284Y011253D01*
X028396Y011244D01*
X026168D01*
X026077Y011334D01*
Y01687D01*
X02607Y016905D01*
X026051Y016934D01*
X025542Y017443D01*
X025512Y017463D01*
X025477Y01747D01*
X017462D01*
X017331Y017601D01*
Y018073D01*
X017379Y018085D01*
X01746Y018133D01*
X017527Y018199D01*
X017575Y018281D01*
X017599Y018373D01*
Y018467D01*
X017575Y018559D01*
X017527Y01864D01*
X01746Y018707D01*
X017379Y018755D01*
X017287Y018779D01*
X017193D01*
X017101Y018755D01*
X01702Y018707D01*
X016953Y01864D01*
X016905Y018559D01*
X016881Y018467D01*
Y018373D01*
X016905Y018281D01*
X016953Y018199D01*
X01702Y018133D01*
X017101Y018085D01*
X017149Y018073D01*
Y017563D01*
X017156Y017528D01*
X017176Y017499D01*
X017278Y017397D01*
X017258Y017351D01*
X014307D01*
X014273Y017344D01*
X014243Y017324D01*
X01371Y016791D01*
X01369Y016761D01*
X013683Y016727D01*
Y013084D01*
X013603Y013004D01*
X01197D01*
X01197Y013007D01*
X011934Y013094D01*
X011876Y013169D01*
X011801Y013226D01*
X011714Y013263D01*
X01162Y013275D01*
X01142D01*
X011326Y013263D01*
X011239Y013226D01*
X011237Y013225D01*
X010977Y013484D01*
X010948Y013504D01*
X010913Y013511D01*
X009587D01*
X009575Y013559D01*
X009527Y01364D01*
X00946Y013707D01*
X009379Y013755D01*
X009351Y013762D01*
X009357Y013812D01*
X0132D01*
X013235Y013819D01*
X013264Y013839D01*
X013425Y014D01*
X013445Y014029D01*
X013452Y014064D01*
Y016042D01*
X013445Y016077D01*
X013425Y016106D01*
X013339Y016193D01*
X013309Y016212D01*
X013275Y016219D01*
X012993D01*
X012976Y016259D01*
X012935Y016313D01*
X012881Y016355D01*
X012818Y016381D01*
X01275Y01639D01*
X01255D01*
X012483Y016381D01*
X01242Y016355D01*
X012365Y016313D01*
X012324Y016259D01*
X012298Y016196D01*
X012289Y016128D01*
X012298Y016061D01*
X012324Y015998D01*
X012365Y015944D01*
X01242Y015902D01*
X012476Y015879D01*
X01248Y015853D01*
X012476Y015827D01*
X01242Y015804D01*
X012365Y015762D01*
X012324Y015708D01*
X012307Y015668D01*
X011679D01*
Y020807D01*
X011818Y020945D01*
X012779D01*
X012798Y020899D01*
X012686Y020787D01*
X012666Y020758D01*
X012659Y020723D01*
Y019612D01*
X012652Y019607D01*
X012586Y019621D01*
X01256Y019666D01*
X012486Y01974D01*
X012394Y019793D01*
X012293Y01982D01*
X01229D01*
Y01942D01*
Y01902D01*
X012293D01*
X012394Y019047D01*
X012486Y0191D01*
X01256Y019174D01*
X012586Y019219D01*
X012652Y019233D01*
X012659Y019228D01*
Y01891D01*
X012666Y018875D01*
X012686Y018846D01*
X01293Y018601D01*
X012905Y018559D01*
X012881Y018467D01*
Y018373D01*
X012905Y018281D01*
X012953Y018199D01*
X01302Y018133D01*
X013101Y018085D01*
X013193Y018061D01*
X013287D01*
X013379Y018085D01*
X01346Y018133D01*
X013527Y018199D01*
X013575Y018281D01*
X013599Y018373D01*
Y018467D01*
X013575Y018559D01*
X013527Y01864D01*
X01346Y018707D01*
X013379Y018755D01*
X013287Y018779D01*
X013193D01*
X013101Y018755D01*
X013059Y01873D01*
X012841Y018947D01*
Y019329D01*
X012891Y019335D01*
X012905Y019281D01*
X012953Y019199D01*
X01302Y019133D01*
X013101Y019085D01*
X013193Y019061D01*
X013287D01*
X013379Y019085D01*
X01346Y019133D01*
X013527Y019199D01*
X013575Y019281D01*
X013599Y019373D01*
Y019467D01*
X013575Y019559D01*
X013527Y01964D01*
X01346Y019707D01*
X013379Y019755D01*
X013331Y019767D01*
Y020555D01*
X013483Y020707D01*
X014231D01*
X01425Y020661D01*
X014176Y020587D01*
X014156Y020557D01*
X014149Y020523D01*
Y019767D01*
X014101Y019755D01*
X01402Y019707D01*
X013953Y01964D01*
X013905Y019559D01*
X013881Y019467D01*
Y019373D01*
X013905Y019281D01*
X013953Y019199D01*
X01402Y019133D01*
X014101Y019085D01*
X014193Y019061D01*
X014287D01*
X014379Y019085D01*
X01446Y019133D01*
X014527Y019199D01*
X014575Y019281D01*
X014599Y019373D01*
Y019467D01*
X014575Y019559D01*
X014527Y01964D01*
X01446Y019707D01*
X014379Y019755D01*
X014331Y019767D01*
Y020485D01*
X014434Y020588D01*
X014741D01*
X01476Y020542D01*
X014686Y020468D01*
X014666Y020438D01*
X014659Y020403D01*
Y01891D01*
X014666Y018875D01*
X014686Y018846D01*
X01493Y018601D01*
X014905Y018559D01*
X014881Y018467D01*
Y018373D01*
X014905Y018281D01*
X014953Y018199D01*
X01502Y018133D01*
X015101Y018085D01*
X015193Y018061D01*
X015287D01*
X015379Y018085D01*
X01546Y018133D01*
X015527Y018199D01*
X015575Y018281D01*
X015599Y018373D01*
Y018467D01*
X015575Y018559D01*
X015527Y01864D01*
X01546Y018707D01*
X015379Y018755D01*
X015287Y018779D01*
X015193D01*
X015101Y018755D01*
X015059Y01873D01*
X014841Y018947D01*
Y019329D01*
X014891Y019335D01*
X014905Y019281D01*
X014953Y019199D01*
X01502Y019133D01*
X015101Y019085D01*
X015193Y019061D01*
X015287D01*
X015379Y019085D01*
X01546Y019133D01*
X015527Y019199D01*
X015575Y019281D01*
X015599Y019373D01*
Y019467D01*
X015575Y019559D01*
X015527Y01964D01*
X01546Y019707D01*
X015379Y019755D01*
X015331Y019767D01*
Y020235D01*
X015446Y02035D01*
X015741D01*
X01576Y020304D01*
X015686Y020229D01*
X015666Y0202D01*
X015659Y020165D01*
Y01891D01*
X015666Y018875D01*
X015686Y018846D01*
X01593Y018601D01*
X015905Y018559D01*
X015881Y018467D01*
Y018373D01*
X015905Y018281D01*
X015953Y018199D01*
X01602Y018133D01*
X016101Y018085D01*
X016193Y018061D01*
X016287D01*
X016379Y018085D01*
X01646Y018133D01*
X016527Y018199D01*
X016575Y018281D01*
X016599Y018373D01*
Y018467D01*
X016575Y018559D01*
X016527Y01864D01*
X01646Y018707D01*
X016379Y018755D01*
X016287Y018779D01*
X016193D01*
X016101Y018755D01*
X016059Y01873D01*
X015841Y018947D01*
Y019329D01*
X015891Y019335D01*
X015905Y019281D01*
X015953Y019199D01*
X01602Y019133D01*
X016101Y019085D01*
X016193Y019061D01*
X016287D01*
X016379Y019085D01*
X01646Y019133D01*
X016527Y019199D01*
X016575Y019281D01*
X016599Y019373D01*
Y019467D01*
X016575Y019559D01*
X016527Y01964D01*
X01646Y019707D01*
X016379Y019755D01*
X016331Y019767D01*
Y020005D01*
X016438Y020112D01*
X02676D01*
X026795Y020119D01*
X026825Y020139D01*
X027793Y021107D01*
X027839Y021082D01*
X027827Y021023D01*
Y020723D01*
X027843Y020641D01*
X027889Y020572D01*
X027959Y020526D01*
X02804Y02051D01*
X02854D01*
X028622Y020526D01*
X028691Y020572D01*
X028737Y020641D01*
X028753Y020723D01*
Y021023D01*
X028737Y021104D01*
X028691Y021174D01*
X028622Y02122D01*
X02854Y021236D01*
X02804D01*
X028024Y021233D01*
X027994Y021278D01*
X028002Y021291D01*
X029539D01*
X029608Y021221D01*
D02*
G37*
G36*
X015262Y020423D02*
X015176Y020337D01*
X015156Y020307D01*
X015149Y020273D01*
Y019767D01*
X015101Y019755D01*
X01502Y019707D01*
X014953Y01964D01*
X014905Y019559D01*
X014891Y019505D01*
X014841Y019511D01*
Y020366D01*
X014944Y020469D01*
X015243D01*
X015262Y020423D01*
D02*
G37*
G36*
X013299Y02078D02*
X013176Y020657D01*
X013156Y020627D01*
X013149Y020593D01*
Y019767D01*
X013101Y019755D01*
X01302Y019707D01*
X012953Y01964D01*
X012905Y019559D01*
X012891Y019505D01*
X012841Y019511D01*
Y020685D01*
X012982Y020826D01*
X01328D01*
X013299Y02078D01*
D02*
G37*
G36*
X017066Y016766D02*
X016463Y016163D01*
X016341D01*
X016331Y016213D01*
X016353Y016222D01*
X016403Y016272D01*
X01643Y016337D01*
Y016407D01*
X016403Y016472D01*
X016353Y016522D01*
X016288Y016549D01*
X016217D01*
X016152Y016522D01*
X016102Y016472D01*
X016097Y016459D01*
X014575D01*
X01454Y016452D01*
X014511Y016432D01*
X014268Y016189D01*
X014222Y016208D01*
Y016541D01*
X014493Y016812D01*
X017047D01*
X017066Y016766D01*
D02*
G37*
G36*
X01327Y016004D02*
Y014101D01*
X013163Y013994D01*
X008795D01*
X00855Y014239D01*
X008575Y014281D01*
X008599Y014373D01*
Y014467D01*
X008575Y014559D01*
X00855Y014601D01*
X00876Y014812D01*
X009123D01*
X009129Y014762D01*
X009101Y014755D01*
X00902Y014707D01*
X008953Y01464D01*
X008905Y014559D01*
X008881Y014467D01*
Y014373D01*
X008905Y014281D01*
X008953Y0142D01*
X00902Y014133D01*
X009101Y014085D01*
X009193Y014061D01*
X009287D01*
X009379Y014085D01*
X00946Y014133D01*
X009527Y0142D01*
X009575Y014281D01*
X009587Y014329D01*
X011517D01*
X011552Y014336D01*
X011582Y014356D01*
X011652Y014427D01*
X011672Y014456D01*
X011679Y014491D01*
Y015486D01*
X012307D01*
X012324Y015447D01*
X012365Y015392D01*
X01242Y015351D01*
X012483Y015325D01*
X01255Y015316D01*
X01275D01*
X012818Y015325D01*
X012881Y015351D01*
X012935Y015392D01*
X012976Y015447D01*
X013003Y01551D01*
X013011Y015577D01*
X013003Y015645D01*
X012976Y015708D01*
X012935Y015762D01*
X012881Y015804D01*
X012825Y015827D01*
X01282Y015853D01*
X012825Y015879D01*
X012881Y015902D01*
X012935Y015944D01*
X012976Y015998D01*
X012993Y016038D01*
X013237D01*
X01327Y016004D01*
D02*
G37*
G36*
X011497Y014856D02*
Y014529D01*
X01148Y014511D01*
X009587D01*
X009575Y014559D01*
X009527Y01464D01*
X00946Y014707D01*
X009379Y014755D01*
X009351Y014762D01*
X009357Y014812D01*
X01135D01*
X011385Y014819D01*
X011414Y014839D01*
X011451Y014876D01*
X011497Y014856D01*
D02*
G37*
G36*
X026836Y013809D02*
X026865Y013789D01*
X0269Y013782D01*
X02784D01*
X02784Y013779D01*
X027877Y013692D01*
X027934Y013617D01*
X028009Y013559D01*
X028047Y013544D01*
X028037Y013494D01*
X026788D01*
X026641Y01364D01*
Y013938D01*
X026687Y013957D01*
X026836Y013809D01*
D02*
G37*
G36*
X013802Y012881D02*
Y01265D01*
X013685Y012534D01*
X011774D01*
X011764Y012584D01*
X011801Y012599D01*
X011876Y012657D01*
X011934Y012732D01*
X01197Y012819D01*
X01197Y012822D01*
X01364D01*
X013675Y012829D01*
X013704Y012849D01*
X013756Y0129D01*
X013802Y012881D01*
D02*
G37*
G36*
X011108Y013096D02*
X011107Y013094D01*
X01107Y013007D01*
X011058Y012913D01*
X01107Y012819D01*
X011107Y012732D01*
X011164Y012657D01*
X011239Y012599D01*
X011277Y012584D01*
X011267Y012534D01*
X010958D01*
X010396Y013095D01*
X010367Y013115D01*
X010332Y013122D01*
X00952D01*
X0095Y013172D01*
X009527Y0132D01*
X009575Y013281D01*
X009587Y013329D01*
X010875D01*
X011108Y013096D01*
D02*
G37*
G36*
X010856Y012379D02*
X010885Y012359D01*
X01092Y012352D01*
X011429D01*
Y011336D01*
X01142D01*
X011326Y011324D01*
X011239Y011288D01*
X011164Y01123D01*
X011107Y011155D01*
X01107Y011068D01*
X011058Y010974D01*
X01107Y01088D01*
X011107Y010793D01*
X011164Y010718D01*
X011239Y01066D01*
X011326Y010624D01*
X01142Y010612D01*
X01162D01*
X011714Y010624D01*
X011801Y01066D01*
X011876Y010718D01*
X011934Y010793D01*
X01197Y01088D01*
X011982Y010974D01*
X01197Y011068D01*
X011934Y011155D01*
X011876Y01123D01*
X011801Y011288D01*
X011714Y011324D01*
X01162Y011336D01*
X011611D01*
Y012352D01*
X012053D01*
X01207Y012302D01*
X012044Y012282D01*
X012003Y012229D01*
X011977Y012167D01*
X011968Y0121D01*
Y011706D01*
X011977Y011639D01*
X012003Y011577D01*
X012044Y011523D01*
X012097Y011482D01*
X012159Y011457D01*
X012226Y011448D01*
X012509D01*
Y010559D01*
X012464Y010514D01*
X010596D01*
X010521Y010589D01*
Y012643D01*
X010571Y012663D01*
X010856Y012379D01*
D02*
G37*
G36*
X030742Y006301D02*
Y006073D01*
X030609Y00594D01*
X02974D01*
X02974Y005943D01*
X029704Y00603D01*
X029646Y006105D01*
X029572Y006162D01*
X029572Y006165D01*
X029583Y006212D01*
X03055D01*
X030585Y006219D01*
X030614Y006239D01*
X030696Y00632D01*
X030742Y006301D01*
D02*
G37*
%LPC*%
G36*
X02939Y020235D02*
X02919D01*
X029096Y020223D01*
X029009Y020186D01*
X028934Y020129D01*
X028877Y020054D01*
X02884Y019967D01*
X028828Y019873D01*
X02884Y019779D01*
X028877Y019692D01*
X028934Y019617D01*
X029009Y019559D01*
X029096Y019523D01*
X02919Y019511D01*
X02939D01*
X029484Y019523D01*
X029571Y019559D01*
X029646Y019617D01*
X029704Y019692D01*
X02974Y019779D01*
X029752Y019873D01*
X02974Y019967D01*
X029704Y020054D01*
X029646Y020129D01*
X029571Y020186D01*
X029484Y020223D01*
X02939Y020235D01*
D02*
G37*
G36*
X02839D02*
X02819D01*
X028096Y020223D01*
X028009Y020186D01*
X027934Y020129D01*
X027877Y020054D01*
X02784Y019967D01*
X027828Y019873D01*
X02784Y019779D01*
X027877Y019692D01*
X027934Y019617D01*
X028009Y019559D01*
X028096Y019523D01*
X02819Y019511D01*
X02839D01*
X028484Y019523D01*
X028571Y019559D01*
X028646Y019617D01*
X028704Y019692D01*
X02874Y019779D01*
X028752Y019873D01*
X02874Y019967D01*
X028704Y020054D01*
X028646Y020129D01*
X028571Y020186D01*
X028484Y020223D01*
X02839Y020235D01*
D02*
G37*
G36*
X01219Y01982D02*
X012187D01*
X012086Y019793D01*
X011994Y01974D01*
X01192Y019666D01*
X011867Y019574D01*
X01184Y019473D01*
Y01947D01*
X01219D01*
Y01982D01*
D02*
G37*
G36*
X018287Y019779D02*
X018193D01*
X018101Y019755D01*
X01802Y019707D01*
X017953Y01964D01*
X017905Y019559D01*
X017881Y019467D01*
Y019373D01*
X017905Y019281D01*
X017953Y019199D01*
X01802Y019133D01*
X018101Y019085D01*
X018193Y019061D01*
X018287D01*
X018379Y019085D01*
X01846Y019133D01*
X018527Y019199D01*
X018575Y019281D01*
X018599Y019373D01*
Y019467D01*
X018575Y019559D01*
X018527Y01964D01*
X01846Y019707D01*
X018379Y019755D01*
X018287Y019779D01*
D02*
G37*
G36*
X017287D02*
X017193D01*
X017101Y019755D01*
X01702Y019707D01*
X016953Y01964D01*
X016905Y019559D01*
X016881Y019467D01*
Y019373D01*
X016905Y019281D01*
X016953Y019199D01*
X01702Y019133D01*
X017101Y019085D01*
X017193Y019061D01*
X017287D01*
X017379Y019085D01*
X01746Y019133D01*
X017527Y019199D01*
X017575Y019281D01*
X017599Y019373D01*
Y019467D01*
X017575Y019559D01*
X017527Y01964D01*
X01746Y019707D01*
X017379Y019755D01*
X017287Y019779D01*
D02*
G37*
G36*
X01219Y01937D02*
X01184D01*
Y019367D01*
X011867Y019266D01*
X01192Y019174D01*
X011994Y0191D01*
X012086Y019047D01*
X012187Y01902D01*
X01219D01*
Y01937D01*
D02*
G37*
G36*
X02939Y019235D02*
X02919D01*
X029096Y019223D01*
X029009Y019186D01*
X028934Y019129D01*
X028877Y019054D01*
X02884Y018967D01*
X028828Y018873D01*
X02884Y018779D01*
X028877Y018692D01*
X028934Y018617D01*
X029009Y018559D01*
X029096Y018523D01*
X02919Y018511D01*
X02939D01*
X029484Y018523D01*
X029571Y018559D01*
X029646Y018617D01*
X029704Y018692D01*
X02974Y018779D01*
X029752Y018873D01*
X02974Y018967D01*
X029704Y019054D01*
X029646Y019129D01*
X029571Y019186D01*
X029484Y019223D01*
X02939Y019235D01*
D02*
G37*
G36*
X02839D02*
X02819D01*
X028096Y019223D01*
X028009Y019186D01*
X027934Y019129D01*
X027877Y019054D01*
X02784Y018967D01*
X027828Y018873D01*
X02784Y018779D01*
X027877Y018692D01*
X027934Y018617D01*
X028009Y018559D01*
X028096Y018523D01*
X02819Y018511D01*
X02839D01*
X028484Y018523D01*
X028571Y018559D01*
X028646Y018617D01*
X028704Y018692D01*
X02874Y018779D01*
X028752Y018873D01*
X02874Y018967D01*
X028704Y019054D01*
X028646Y019129D01*
X028571Y019186D01*
X028484Y019223D01*
X02839Y019235D01*
D02*
G37*
G36*
X018287Y018779D02*
X018193D01*
X018101Y018755D01*
X01802Y018707D01*
X017953Y01864D01*
X017905Y018559D01*
X017881Y018467D01*
Y018373D01*
X017905Y018281D01*
X017953Y018199D01*
X01802Y018133D01*
X018101Y018085D01*
X018193Y018061D01*
X018287D01*
X018379Y018085D01*
X01846Y018133D01*
X018527Y018199D01*
X018575Y018281D01*
X018599Y018373D01*
Y018467D01*
X018575Y018559D01*
X018527Y01864D01*
X01846Y018707D01*
X018379Y018755D01*
X018287Y018779D01*
D02*
G37*
G36*
X014287D02*
X014193D01*
X014101Y018755D01*
X01402Y018707D01*
X013953Y01864D01*
X013905Y018559D01*
X013881Y018467D01*
Y018373D01*
X013905Y018281D01*
X013953Y018199D01*
X01402Y018133D01*
X014101Y018085D01*
X014193Y018061D01*
X014287D01*
X014379Y018085D01*
X01446Y018133D01*
X014527Y018199D01*
X014575Y018281D01*
X014599Y018373D01*
Y018467D01*
X014575Y018559D01*
X014527Y01864D01*
X01446Y018707D01*
X014379Y018755D01*
X014287Y018779D01*
D02*
G37*
G36*
X012287D02*
X012193D01*
X012101Y018755D01*
X01202Y018707D01*
X011953Y01864D01*
X011905Y018559D01*
X011881Y018467D01*
Y018373D01*
X011905Y018281D01*
X011953Y018199D01*
X01202Y018133D01*
X012101Y018085D01*
X012193Y018061D01*
X012287D01*
X012379Y018085D01*
X01246Y018133D01*
X012527Y018199D01*
X012575Y018281D01*
X012599Y018373D01*
Y018467D01*
X012575Y018559D01*
X012527Y01864D01*
X01246Y018707D01*
X012379Y018755D01*
X012287Y018779D01*
D02*
G37*
G36*
X02939Y018235D02*
X02919D01*
X029096Y018223D01*
X029009Y018186D01*
X028934Y018129D01*
X028877Y018054D01*
X02884Y017967D01*
X028828Y017873D01*
X02884Y017779D01*
X028877Y017692D01*
X028934Y017617D01*
X029009Y017559D01*
X029096Y017523D01*
X02919Y017511D01*
X02939D01*
X029484Y017523D01*
X029571Y017559D01*
X029646Y017617D01*
X029704Y017692D01*
X02974Y017779D01*
X029752Y017873D01*
X02974Y017967D01*
X029704Y018054D01*
X029646Y018129D01*
X029571Y018186D01*
X029484Y018223D01*
X02939Y018235D01*
D02*
G37*
G36*
X02839D02*
X02819D01*
X028096Y018223D01*
X028009Y018186D01*
X027934Y018129D01*
X027877Y018054D01*
X02784Y017967D01*
X027828Y017873D01*
X02784Y017779D01*
X027877Y017692D01*
X027934Y017617D01*
X028009Y017559D01*
X028096Y017523D01*
X02819Y017511D01*
X02839D01*
X028484Y017523D01*
X028571Y017559D01*
X028646Y017617D01*
X028704Y017692D01*
X02874Y017779D01*
X028752Y017873D01*
X02874Y017967D01*
X028704Y018054D01*
X028646Y018129D01*
X028571Y018186D01*
X028484Y018223D01*
X02839Y018235D01*
D02*
G37*
G36*
X02939Y017235D02*
X02919D01*
X029096Y017223D01*
X029009Y017186D01*
X028934Y017129D01*
X028877Y017054D01*
X02884Y016967D01*
X028828Y016873D01*
X02884Y016779D01*
X028877Y016692D01*
X028934Y016617D01*
X029009Y016559D01*
X029096Y016523D01*
X02919Y016511D01*
X02939D01*
X029484Y016523D01*
X029571Y016559D01*
X029646Y016617D01*
X029704Y016692D01*
X02974Y016779D01*
X029752Y016873D01*
X02974Y016967D01*
X029704Y017054D01*
X029646Y017129D01*
X029571Y017186D01*
X029484Y017223D01*
X02939Y017235D01*
D02*
G37*
G36*
X02839D02*
X02819D01*
X028096Y017223D01*
X028009Y017186D01*
X027934Y017129D01*
X027877Y017054D01*
X02784Y016967D01*
X027828Y016873D01*
X02784Y016779D01*
X027877Y016692D01*
X027934Y016617D01*
X028009Y016559D01*
X028096Y016523D01*
X02819Y016511D01*
X02839D01*
X028484Y016523D01*
X028571Y016559D01*
X028646Y016617D01*
X028704Y016692D01*
X02874Y016779D01*
X028752Y016873D01*
X02874Y016967D01*
X028704Y017054D01*
X028646Y017129D01*
X028571Y017186D01*
X028484Y017223D01*
X02839Y017235D01*
D02*
G37*
G36*
X02939Y016235D02*
X02919D01*
X029096Y016223D01*
X029009Y016186D01*
X028934Y016129D01*
X028877Y016054D01*
X02884Y015967D01*
X028828Y015873D01*
X02884Y015779D01*
X028877Y015692D01*
X028934Y015617D01*
X029009Y015559D01*
X029096Y015523D01*
X02919Y015511D01*
X02939D01*
X029484Y015523D01*
X029571Y015559D01*
X029646Y015617D01*
X029704Y015692D01*
X02974Y015779D01*
X029752Y015873D01*
X02974Y015967D01*
X029704Y016054D01*
X029646Y016129D01*
X029571Y016186D01*
X029484Y016223D01*
X02939Y016235D01*
D02*
G37*
G36*
X02839D02*
X02819D01*
X028096Y016223D01*
X028009Y016186D01*
X027934Y016129D01*
X027877Y016054D01*
X02784Y015967D01*
X027828Y015873D01*
X02784Y015779D01*
X027877Y015692D01*
X027934Y015617D01*
X028009Y015559D01*
X028096Y015523D01*
X02819Y015511D01*
X02839D01*
X028484Y015523D01*
X028571Y015559D01*
X028646Y015617D01*
X028704Y015692D01*
X02874Y015779D01*
X028752Y015873D01*
X02874Y015967D01*
X028704Y016054D01*
X028646Y016129D01*
X028571Y016186D01*
X028484Y016223D01*
X02839Y016235D01*
D02*
G37*
G36*
Y015235D02*
X02819D01*
X028096Y015223D01*
X028009Y015186D01*
X027934Y015129D01*
X027877Y015054D01*
X02784Y014967D01*
X027828Y014873D01*
X02784Y014779D01*
X027877Y014692D01*
X027934Y014617D01*
X028009Y014559D01*
X028096Y014523D01*
X02819Y014511D01*
X02839D01*
X028484Y014523D01*
X028571Y014559D01*
X028646Y014617D01*
X028704Y014692D01*
X02874Y014779D01*
X028752Y014873D01*
X02874Y014967D01*
X028704Y015054D01*
X028646Y015129D01*
X028571Y015186D01*
X028484Y015223D01*
X02839Y015235D01*
D02*
G37*
%LPD*%
G36*
X036395Y001695D02*
X036511Y001647D01*
X03661Y001571D01*
X036687Y001471D01*
X036735Y001355D01*
X036751Y001231D01*
X036735Y001107D01*
X036687Y000991D01*
X03661Y000891D01*
X036511Y000815D01*
X036395Y000767D01*
X03627Y00075D01*
X036146Y000767D01*
X03603Y000815D01*
X035931Y000891D01*
X035854Y000991D01*
X035806Y001107D01*
X03579Y001231D01*
X035806Y001355D01*
X035854Y001471D01*
X035931Y001571D01*
X03603Y001647D01*
X036146Y001695D01*
X03627Y001712D01*
X036395Y001695D01*
D02*
G37*
G36*
X026159D02*
X026275Y001647D01*
X026374Y001571D01*
X02645Y001471D01*
X026498Y001355D01*
X026515Y001231D01*
X026498Y001107D01*
X02645Y000991D01*
X026374Y000891D01*
X026275Y000815D01*
X026159Y000767D01*
X026034Y00075D01*
X02591Y000767D01*
X025794Y000815D01*
X025694Y000891D01*
X025618Y000991D01*
X02557Y001107D01*
X025554Y001231D01*
X02557Y001355D01*
X025618Y001471D01*
X025694Y001571D01*
X025794Y001647D01*
X02591Y001695D01*
X026034Y001712D01*
X026159Y001695D01*
D02*
G37*
G36*
X001355D02*
X001471Y001647D01*
X001571Y001571D01*
X001647Y001471D01*
X001695Y001355D01*
X001712Y001231D01*
X001695Y001107D01*
X001647Y000991D01*
X001571Y000891D01*
X001471Y000815D01*
X001355Y000767D01*
X001231Y00075D01*
X001107Y000767D01*
X000991Y000815D01*
X000891Y000891D01*
X000815Y000991D01*
X000767Y001107D01*
X00075Y001231D01*
X000767Y001355D01*
X000815Y001471D01*
X000891Y001571D01*
X000991Y001647D01*
X001107Y001695D01*
X001231Y001712D01*
X001355Y001695D01*
D02*
G37*
D10*
X01055Y010403D02*
X01251D01*
X01262Y010513D02*
Y011903D01*
X01251Y010403D02*
X01262Y010513D01*
X01041Y010543D02*
Y012683D01*
Y010543D02*
X01055Y010403D01*
X0079Y012853D02*
X01024D01*
X01041Y012683D01*
X00765Y01483D02*
X00824Y01542D01*
X00765Y013103D02*
Y01483D01*
Y013103D02*
X0079Y012853D01*
D41*
X01424Y003535D02*
X014525Y00325D01*
X0229D01*
X01424Y003535D02*
Y00442D01*
X01275Y00493D02*
X01324Y00542D01*
X01275Y0022D02*
Y00493D01*
Y0022D02*
X013275Y001675D01*
X015425D01*
X01612Y00237D01*
X01709D01*
X01077Y00427D02*
X01092Y00442D01*
X01077Y00237D02*
Y00427D01*
X00913Y006103D02*
X016557D01*
X0088Y005773D02*
X00913Y006103D01*
X016557D02*
X01724Y00542D01*
X01092Y00442D02*
X01224D01*
X025219Y014022D02*
Y016542D01*
X022723Y013903D02*
X0251D01*
X02224Y01342D02*
X022723Y013903D01*
X0251D02*
X025219Y014022D01*
X02115Y014903D02*
X022723D01*
X01925Y015303D02*
X01975Y014803D01*
X022723Y014903D02*
X02324Y01542D01*
X01975Y014803D02*
X02105D01*
X02115Y014903D01*
X01985Y00503D02*
Y006403D01*
X01924Y00442D02*
X01985Y00503D01*
X01925Y007003D02*
X01985Y006403D01*
X01092Y012443D02*
X01151D01*
X008629Y013031D02*
X010332D01*
X01092Y012443D01*
X00824Y01342D02*
X008629Y013031D01*
X01151Y012443D02*
X013723D01*
X01151D02*
X01152Y012433D01*
Y010974D02*
Y012433D01*
X013893Y012613D02*
Y016677D01*
X013723Y012443D02*
X013893Y012613D01*
X00924Y01342D02*
X010913D01*
X01142Y012913D02*
X01152D01*
X010913Y01342D02*
X01142Y012913D01*
X01152D02*
X01364D01*
X013774Y013047D01*
X01925Y015303D02*
Y015403D01*
X014381Y013553D02*
X014643Y013291D01*
Y01196D02*
Y013291D01*
X0145Y015853D02*
X0146Y015953D01*
X01655D01*
X014551Y016072D02*
X016501D01*
X014381Y013553D02*
Y015902D01*
X0145Y013603D02*
Y015853D01*
X014381Y015902D02*
X014551Y016072D01*
X020428Y004031D02*
X02175Y005353D01*
X018872Y004031D02*
X020428D01*
X02175Y005353D02*
X028687D01*
X00715Y007675D02*
X013889D01*
X00705Y007575D02*
X00715Y007675D01*
X00705Y006803D02*
Y007575D01*
X013889Y007675D02*
X01425Y008036D01*
Y016043D01*
X014575Y016368D01*
X00835Y017353D02*
Y020253D01*
X00924Y01542D02*
X011217D01*
X01135Y015553D01*
Y020943D01*
X011469Y015022D02*
Y020894D01*
X008723Y014903D02*
X01135D01*
X011469Y015022D01*
X011588Y014491D02*
Y015577D01*
X01265D01*
X011517Y01442D02*
X011588Y014491D01*
Y015577D02*
Y020844D01*
X01178Y021036D01*
X00924Y01442D02*
X011517D01*
X01135Y020943D02*
X011682Y021274D01*
X011469Y020894D02*
X011731Y021155D01*
X014643Y01196D02*
X01465Y011953D01*
X0145Y013603D02*
X01485Y013253D01*
Y012203D02*
Y013253D01*
X0251Y014603D02*
Y016493D01*
X02324Y01442D02*
X024917D01*
X0251Y014603D01*
X016501Y016072D02*
X017201Y016772D01*
X01655Y015953D02*
X01725Y016653D01*
X017201Y016772D02*
X02499Y016772D01*
X01725Y016653D02*
X02494Y016653D01*
X02499Y016772D02*
X025219Y016542D01*
X02494Y016653D02*
X0251Y016493D01*
X0079Y017903D02*
Y019303D01*
X006161Y019483D02*
X00772D01*
X0079Y019303D01*
X00815Y020453D02*
X00835Y020253D01*
X0056Y020453D02*
X00815D01*
X005374Y020226D02*
X0056Y020453D01*
X005374Y019483D02*
Y020226D01*
X0054Y012053D02*
X005767Y01242D01*
X00824D01*
X029809Y010343D02*
X02999Y010524D01*
Y011213D01*
X029759Y010462D02*
X029871Y010574D01*
X026316Y010462D02*
X029759D01*
X029871Y010574D02*
Y014088D01*
X02912Y010343D02*
X029809D01*
X03135Y014403D02*
X033445D01*
X03119Y014563D02*
X03135Y014403D01*
X03119Y014563D02*
Y021283D01*
X03122Y013873D02*
X033015D01*
X031071Y014022D02*
Y021234D01*
Y014022D02*
X03122Y013873D01*
X030952Y013531D02*
X03112Y013363D01*
X030952Y013531D02*
Y021184D01*
X03112Y013363D02*
X033405D01*
X029576Y021381D02*
X030119Y020839D01*
X03015Y008353D02*
X030238Y00844D01*
X030357Y007884D02*
Y020938D01*
X030119Y008921D02*
Y020839D01*
X029626Y0215D02*
X030238Y020888D01*
X029823Y021977D02*
X030714Y021086D01*
X03055Y006303D02*
X030714Y006467D01*
X030647Y005849D02*
X030833Y006036D01*
X030238Y00844D02*
Y020888D01*
X029872Y022096D02*
X030833Y021135D01*
X030476Y00751D02*
Y020987D01*
X03002Y022453D02*
X03119Y021283D01*
X030319Y007353D02*
X030476Y00751D01*
X029724Y021739D02*
X030476Y020987D01*
X029971Y022334D02*
X031071Y021234D01*
X02929Y006849D02*
X03056D01*
X030833Y006036D02*
Y021135D01*
X02929Y007849D02*
X030322D01*
X030357Y007884D01*
X03056Y006849D02*
X030595Y006884D01*
X030047Y008849D02*
X030119Y008921D01*
X029922Y022215D02*
X030952Y021184D01*
X030595Y006884D02*
Y021036D01*
X029774Y021858D02*
X030595Y021036D01*
X029675Y021619D02*
X030357Y020938D01*
X030714Y006467D02*
Y021086D01*
X02929Y008849D02*
X030047D01*
X028894Y008353D02*
X03015D01*
X027791Y021739D02*
X029724D01*
X027594Y022215D02*
X029922D01*
X027643Y022096D02*
X029872D01*
X02784Y021619D02*
X029675D01*
X02789Y0215D02*
X029626D01*
X027742Y021858D02*
X029774D01*
X027544Y022334D02*
X029971D01*
X02745Y022453D02*
X03002D01*
X027692Y021977D02*
X029823D01*
X027939Y021381D02*
X029576D01*
X02655Y013603D02*
X02675Y013403D01*
X02872D01*
X02655Y013603D02*
Y018203D01*
X0267Y014073D02*
Y019163D01*
X0269Y013873D02*
X02829D01*
X0267Y014073D02*
X0269Y013873D01*
X01924Y01942D02*
X026443D01*
X0267Y019163D01*
X01624Y01942D02*
Y020043D01*
X0164Y020203D02*
X02676D01*
X01624Y020043D02*
X0164Y020203D01*
X01524Y020273D02*
X015408Y020441D01*
X026662D01*
X01524Y01942D02*
Y020273D01*
X014396Y020679D02*
X026563D01*
X01424Y01942D02*
Y020523D01*
X014396Y020679D01*
X01275Y01891D02*
Y020723D01*
X012944Y020917D02*
X026464D01*
X01275Y020723D02*
X012944Y020917D01*
X01178Y021036D02*
X026415D01*
X011731Y021155D02*
X026366D01*
X011682Y021274D02*
X026272D01*
X013774Y013047D02*
Y016727D01*
X014131Y008085D02*
Y016579D01*
X014012Y016628D02*
X014406Y017022D01*
X013774Y016727D02*
X014307Y01726D01*
X013893Y016677D02*
X014357Y017141D01*
X013839Y007794D02*
X014131Y008085D01*
X01379Y007913D02*
X014012Y008135D01*
Y016628D01*
X014131Y016579D02*
X014455Y016903D01*
X014575Y016368D02*
X016255D01*
X016259Y016372D01*
X016253D02*
X016259D01*
X014357Y017141D02*
X025379D01*
X014307Y01726D02*
X025428D01*
X014406Y017022D02*
X025329D01*
X014455Y016903D02*
X02528D01*
X0088Y004303D02*
Y005773D01*
X026193Y010922D02*
X0283D01*
X025748Y011198D02*
X026243Y010703D01*
X025629Y011149D02*
X026316Y010462D01*
X025986Y011297D02*
Y01687D01*
X025867Y011247D02*
Y016821D01*
X02551Y011099D02*
Y016673D01*
X025867Y011247D02*
X026193Y010922D01*
X025629Y011149D02*
Y016722D01*
X025986Y011297D02*
X02613Y011153D01*
X025748Y011198D02*
Y016771D01*
X02613Y011153D02*
X02855D01*
X026267Y010343D02*
X02912D01*
X026243Y010703D02*
X02805D01*
X02551Y011099D02*
X026267Y010343D01*
X025477Y017379D02*
X025986Y01687D01*
X025428Y01726D02*
X025867Y016821D01*
X025329Y017022D02*
X025629Y016722D01*
X01724Y017563D02*
X017424Y017379D01*
X025477D01*
X02528Y016903D02*
X02551Y016673D01*
X025379Y017141D02*
X025748Y016771D01*
X00421Y007913D02*
X01379D01*
X004211Y007794D02*
X013839D01*
X002533Y007443D02*
X00386D01*
X002519Y007428D02*
X002533Y007443D01*
X00386D02*
X004211Y007794D01*
X003695Y008428D02*
X00421Y007913D01*
X002518Y008428D02*
X003695D01*
X02999Y011213D02*
Y014273D01*
X02929Y014873D02*
X02939D01*
X029607Y014353D02*
X029871Y014088D01*
X02887Y014353D02*
X029607D01*
X02939Y014873D02*
X02999Y014273D01*
X02829Y013873D02*
X02839D01*
X02887Y014353D01*
X01875Y004153D02*
X018872Y004031D01*
X01875Y004153D02*
Y00491D01*
X01824Y003963D02*
Y00442D01*
X0184Y003803D02*
X0207D01*
X01824Y003963D02*
X0184Y003803D01*
X01824Y00542D02*
X01875Y00491D01*
X02929Y005849D02*
X030647D01*
X028844Y006303D02*
X03055D01*
X028894Y007353D02*
X030319D01*
X01925Y007003D02*
Y008403D01*
X013361Y014064D02*
Y016042D01*
X008757Y013903D02*
X0132D01*
X013361Y014064D01*
X01265Y016128D02*
X013275D01*
X013361Y016042D01*
X00824Y01442D02*
X008757Y013903D01*
X01724Y017563D02*
Y01842D01*
X014907Y02056D02*
X026612D01*
X013445Y020798D02*
X026514D01*
X026563Y020679D02*
X027742Y021858D01*
X026612Y02056D02*
X027791Y021739D01*
X026464Y020917D02*
X027643Y022096D01*
X026366Y021155D02*
X027544Y022334D01*
X02676Y020203D02*
X027939Y021381D01*
X026514Y020798D02*
X027692Y021977D01*
X026662Y020441D02*
X02784Y021619D01*
X015907Y020322D02*
X026711D01*
X01475Y020403D02*
X014907Y02056D01*
X01324Y020593D02*
X013445Y020798D01*
X026711Y020322D02*
X02789Y0215D01*
X026415Y021036D02*
X027594Y022215D01*
X026272Y021274D02*
X02745Y022453D01*
X01575Y020165D02*
X015907Y020322D01*
X01475Y01891D02*
Y020403D01*
X01575Y01891D02*
Y020165D01*
X033405Y013363D02*
X033915Y013873D01*
X033445Y014403D02*
X033915Y014873D01*
X034015D01*
X033915Y013873D02*
X034015D01*
X00824Y01442D02*
X008723Y014903D01*
X02872Y013403D02*
X02919Y013873D01*
X02929D01*
X026333Y01842D02*
X02655Y018203D01*
X01924Y01842D02*
X026333D01*
X021747Y004849D02*
X02829D01*
X0207Y003803D02*
X021747Y004849D01*
X02919D02*
X02929D01*
X028687Y005353D02*
X02919Y004849D01*
X01275Y01891D02*
X01324Y01842D01*
Y01942D02*
Y020593D01*
X01475Y01891D02*
X01524Y01842D01*
X02829Y005849D02*
X02839D01*
X028844Y006303D01*
X02829Y006849D02*
X02839D01*
X028894Y007353D01*
X02839Y007849D02*
X028894Y008353D01*
X02829Y007849D02*
X02839D01*
X01575Y01891D02*
X01624Y01842D01*
D42*
X01324Y00311D02*
X0134Y00295D01*
X02455D01*
X01324Y00311D02*
Y00442D01*
X02455Y002543D02*
Y00295D01*
Y004553D01*
X010427Y00542D02*
X01224D01*
X017143Y00653D02*
Y0159D01*
X02224Y01542D02*
Y016035D01*
X017393Y01615D02*
X022125D01*
X017143Y0159D02*
X017393Y01615D01*
X022125D02*
X02224Y016035D01*
X017143Y00653D02*
X01727Y006403D01*
X02334Y000598D02*
X024396D01*
X02455Y000753D02*
Y001928D01*
X024396Y000598D02*
X02455Y000753D01*
X033Y002363D02*
Y002849D01*
Y004849D02*
Y005849D01*
Y003849D02*
Y004849D01*
Y006849D02*
Y007835D01*
X024745Y002123D02*
X03276D01*
X033Y005849D02*
Y006849D01*
Y002849D02*
Y003849D01*
X02455Y001928D02*
X024745Y002123D01*
X0031Y018803D02*
Y022603D01*
X003506Y023009D01*
X014125Y022518D02*
X020365D01*
X02037Y022513D02*
X0235D01*
X01825Y013163D02*
Y015403D01*
Y013163D02*
X018703Y01271D01*
Y011903D02*
Y01271D01*
X01727Y006403D02*
X01907D01*
X01924Y006233D01*
Y00542D02*
Y006233D01*
X007Y016703D02*
X01105D01*
X002188Y01156D02*
Y014181D01*
X00075Y010123D02*
X002188Y01156D01*
X003506Y023009D02*
X008211D01*
X0031Y018803D02*
X003404Y018499D01*
X005374D01*
X02455Y002543D02*
X02474Y002353D01*
X03203D01*
X03239Y008343D02*
X033508D01*
X034015Y008849D01*
X03222Y008173D02*
X03239Y008343D01*
X03222Y002543D02*
Y008173D01*
X03203Y002353D02*
X03222Y002543D01*
X033Y007835D02*
X033015Y007849D01*
X03276Y002123D02*
X033Y002363D01*
X034015Y007849D02*
X034115D01*
X0102Y005193D02*
X010427Y00542D01*
X0102Y001068D02*
Y005193D01*
X00282Y009683D02*
Y015003D01*
Y009683D02*
X003083Y00942D01*
X00824D01*
X0014Y015053D02*
X00157Y015223D01*
X0014Y014514D02*
Y015053D01*
X0026Y015223D02*
X00282Y015003D01*
X00157Y015223D02*
X0026D01*
X000895Y005428D02*
X001519D01*
X00075Y005573D02*
X000895Y005428D01*
X00075Y005573D02*
Y010123D01*
X009094Y023009D02*
X00958Y022523D01*
X008211Y023009D02*
X009094D01*
X00958Y022523D02*
X01412D01*
X020365Y022518D02*
X02037Y022513D01*
X01412Y022523D02*
X014125Y022518D01*
X0068Y005303D02*
Y006153D01*
X006525Y006428D02*
X0068Y006153D01*
X002519Y006428D02*
X006525D01*
X01067Y000598D02*
X01077D01*
X0102Y001068D02*
X01067Y000598D01*
X0068Y003303D02*
Y005303D01*
D43*
X01265Y015577D02*
D03*
Y016128D02*
D03*
D44*
X01424Y01942D02*
D03*
X01524D02*
D03*
Y01842D02*
D03*
X01624D02*
D03*
Y01942D02*
D03*
X01924Y01842D02*
D03*
Y01942D02*
D03*
X01824Y01842D02*
D03*
Y01942D02*
D03*
X01724D02*
D03*
Y01842D02*
D03*
X01324Y01942D02*
D03*
Y01842D02*
D03*
X01424D02*
D03*
X01224D02*
D03*
Y01942D02*
D03*
X02324Y01342D02*
D03*
Y01242D02*
D03*
X02224D02*
D03*
Y01142D02*
D03*
X02324D02*
D03*
X02224Y00842D02*
D03*
X02324D02*
D03*
X02224Y00942D02*
D03*
X02324D02*
D03*
Y01042D02*
D03*
X02224D02*
D03*
X02324Y01442D02*
D03*
X02224D02*
D03*
Y01342D02*
D03*
Y01542D02*
D03*
X02324D02*
D03*
X01724Y00442D02*
D03*
X01624D02*
D03*
Y00542D02*
D03*
X01524D02*
D03*
Y00442D02*
D03*
X01224Y00542D02*
D03*
Y00442D02*
D03*
X01324Y00542D02*
D03*
Y00442D02*
D03*
X01424D02*
D03*
Y00542D02*
D03*
X01824Y00442D02*
D03*
Y00542D02*
D03*
X01724D02*
D03*
X01924D02*
D03*
Y00442D02*
D03*
X00824Y01042D02*
D03*
Y01142D02*
D03*
X00924D02*
D03*
Y01242D02*
D03*
X00824D02*
D03*
X00924Y01542D02*
D03*
X00924Y01442D02*
D03*
X00824D02*
D03*
Y01342D02*
D03*
X00924D02*
D03*
X00824Y00942D02*
D03*
X00924D02*
D03*
Y01042D02*
D03*
Y00842D02*
D03*
X00824D02*
D03*
D45*
X00824Y01542D02*
D03*
D46*
X001519Y004428D02*
D03*
X002519D02*
D03*
Y005428D02*
D03*
X001519D02*
D03*
X002518Y008428D02*
D03*
X002519Y007428D02*
D03*
X001519D02*
D03*
Y006428D02*
D03*
X002519D02*
D03*
X01152Y010974D02*
D03*
Y012913D02*
D03*
D47*
X001518Y008428D02*
D03*
D48*
X006161Y018499D02*
D03*
D49*
X005374Y019483D02*
D03*
Y018499D02*
D03*
X006161Y019483D02*
D03*
D50*
X00435Y021353D02*
D03*
Y016628D02*
D03*
D51*
X01077Y023009D02*
D03*
X008211D02*
D03*
Y021237D02*
D03*
X02929Y002849D02*
D03*
X02829D02*
D03*
X02929Y003849D02*
D03*
X02829D02*
D03*
X02929Y004849D02*
D03*
X02829D02*
D03*
X02929Y005849D02*
D03*
X02829D02*
D03*
X02929Y006849D02*
D03*
X02829D02*
D03*
X02929Y007849D02*
D03*
X02829D02*
D03*
X02929Y008849D02*
D03*
X02829D02*
D03*
X02929Y009849D02*
D03*
X008211Y000598D02*
D03*
X01077D02*
D03*
Y00237D02*
D03*
X014531Y000598D02*
D03*
X01709D02*
D03*
Y00237D02*
D03*
X020781Y000598D02*
D03*
X02334D02*
D03*
Y00237D02*
D03*
X034015Y009849D02*
D03*
X033015Y008849D02*
D03*
X034015D02*
D03*
X033015Y007849D02*
D03*
X034015D02*
D03*
X033015Y006849D02*
D03*
X034015D02*
D03*
X033015Y005849D02*
D03*
X034015D02*
D03*
X033015Y004849D02*
D03*
X034015D02*
D03*
X033015Y003849D02*
D03*
X034015D02*
D03*
X033015Y002849D02*
D03*
X034015D02*
D03*
X02929Y013873D02*
D03*
X02829D02*
D03*
X02929Y014873D02*
D03*
X02829D02*
D03*
X02929Y015873D02*
D03*
X02829D02*
D03*
X02929Y016873D02*
D03*
X02829D02*
D03*
X02929Y017873D02*
D03*
X02829D02*
D03*
X02929Y018873D02*
D03*
X02829D02*
D03*
X02929Y019873D02*
D03*
X02829D02*
D03*
X02929Y020873D02*
D03*
X034015Y014873D02*
D03*
Y013873D02*
D03*
X033015D02*
D03*
Y014873D02*
D03*
X034015Y015873D02*
D03*
X033015D02*
D03*
X034015Y016873D02*
D03*
X033015D02*
D03*
X034015Y017873D02*
D03*
X033015D02*
D03*
X034015Y018873D02*
D03*
X033015D02*
D03*
X034015Y019873D02*
D03*
X033015D02*
D03*
X034015Y020873D02*
D03*
D52*
X01077Y021237D02*
D03*
X02829Y009849D02*
D03*
X008211Y00237D02*
D03*
X014531D02*
D03*
X020781D02*
D03*
X033015Y009849D02*
D03*
X02829Y020873D02*
D03*
X033015D02*
D03*
D53*
X002188Y015953D02*
D03*
X0014D02*
D03*
X000613D02*
D03*
Y014181D02*
D03*
X0014D02*
D03*
D54*
X002188D02*
D03*
D55*
X0068Y003303D02*
D03*
X0058D02*
D03*
X0068Y005303D02*
D03*
X0058D02*
D03*
X01825Y008403D02*
D03*
X01925D02*
D03*
X01825Y015403D02*
D03*
X01925D02*
D03*
D56*
X0048Y003303D02*
D03*
Y005303D02*
D03*
X02025Y008403D02*
D03*
Y015403D02*
D03*
D57*
X0229Y00325D02*
D03*
X0235Y022513D02*
D03*
X01714Y011473D02*
D03*
X00705Y006803D02*
D03*
X01105Y016703D02*
D03*
X00835Y017353D02*
D03*
X007Y016703D02*
D03*
X01465Y011953D02*
D03*
X01485Y012203D02*
D03*
X0079Y017903D02*
D03*
X016253Y016372D02*
D03*
X01719Y022513D02*
D03*
X02037D02*
D03*
X01412Y022523D02*
D03*
X0054Y012053D02*
D03*
X02455Y004553D02*
D03*
X0088Y004303D02*
D03*
X02805Y010703D02*
D03*
X0283Y010922D02*
D03*
X02855Y011153D02*
D03*
D58*
X018703Y011903D02*
D03*
X01262D02*
D03*
M02*
