G04*
G04 #@! TF.GenerationSoftware,Altium Limited,Altium Designer,21.6.1 (37)*
G04*
G04 Layer_Color=128*
%FSTAX24Y24*%
%MOIN*%
G70*
G04*
G04 #@! TF.SameCoordinates,B7BCD236-E72C-41E6-AEDC-B20C2DB60F4C*
G04*
G04*
G04 #@! TF.FilePolarity,Positive*
G04*
G01*
G75*
%ADD60C,0.0020*%
D60*
X01255Y015577D02*
X01275D01*
X01265Y015477D02*
Y015677D01*
X01255Y016128D02*
X01275D01*
X01265Y016028D02*
Y016228D01*
X014065Y01942D02*
X014415D01*
X01424Y019245D02*
Y019595D01*
X015065Y01942D02*
X015415D01*
X01524Y019245D02*
Y019595D01*
X015065Y01842D02*
X015415D01*
X01524Y018245D02*
Y018595D01*
X016065Y01842D02*
X016415D01*
X01624Y018245D02*
Y018595D01*
X016065Y01942D02*
X016415D01*
X01624Y019245D02*
Y019595D01*
X019065Y01842D02*
X019415D01*
X01924Y018245D02*
Y018595D01*
X019065Y01942D02*
X019415D01*
X01924Y019245D02*
Y019595D01*
X018065Y01842D02*
X018415D01*
X01824Y018245D02*
Y018595D01*
X018065Y01942D02*
X018415D01*
X01824Y019245D02*
Y019595D01*
X017065Y01942D02*
X017415D01*
X01724Y019245D02*
Y019595D01*
X017065Y01842D02*
X017415D01*
X01724Y018245D02*
Y018595D01*
X013065Y01942D02*
X013415D01*
X01324Y019245D02*
Y019595D01*
X013065Y01842D02*
X013415D01*
X01324Y018245D02*
Y018595D01*
X014065Y01842D02*
X014415D01*
X01424Y018245D02*
Y018595D01*
X012065Y01842D02*
X012415D01*
X01224Y018245D02*
Y018595D01*
X012065Y01942D02*
X012415D01*
X01224Y019245D02*
Y019595D01*
X023065Y01342D02*
X023415D01*
X02324Y013245D02*
Y013595D01*
X023065Y01242D02*
X023415D01*
X02324Y012245D02*
Y012595D01*
X022065Y01242D02*
X022415D01*
X02224Y012245D02*
Y012595D01*
X022065Y01142D02*
X022415D01*
X02224Y011245D02*
Y011595D01*
X023065Y01142D02*
X023415D01*
X02324Y011245D02*
Y011595D01*
X022065Y00842D02*
X022415D01*
X02224Y008245D02*
Y008595D01*
X023065Y00842D02*
X023415D01*
X02324Y008245D02*
Y008595D01*
X022065Y00942D02*
X022415D01*
X02224Y009245D02*
Y009595D01*
X023065Y00942D02*
X023415D01*
X02324Y009245D02*
Y009595D01*
X023065Y01042D02*
X023415D01*
X02324Y010245D02*
Y010595D01*
X022065Y01042D02*
X022415D01*
X02224Y010245D02*
Y010595D01*
X023065Y01442D02*
X023415D01*
X02324Y014245D02*
Y014595D01*
X022065Y01442D02*
X022415D01*
X02224Y014245D02*
Y014595D01*
X022065Y01342D02*
X022415D01*
X02224Y013245D02*
Y013595D01*
X022065Y01542D02*
X022415D01*
X02224Y015245D02*
Y015595D01*
X023065Y01542D02*
X023415D01*
X02324Y015245D02*
Y015595D01*
X017065Y00442D02*
X017415D01*
X01724Y004245D02*
Y004595D01*
X016065Y00442D02*
X016415D01*
X01624Y004245D02*
Y004595D01*
X016065Y00542D02*
X016415D01*
X01624Y005245D02*
Y005595D01*
X015065Y00542D02*
X015415D01*
X01524Y005245D02*
Y005595D01*
X015065Y00442D02*
X015415D01*
X01524Y004245D02*
Y004595D01*
X012065Y00542D02*
X012415D01*
X01224Y005245D02*
Y005595D01*
X012065Y00442D02*
X012415D01*
X01224Y004245D02*
Y004595D01*
X013065Y00542D02*
X013415D01*
X01324Y005245D02*
Y005595D01*
X013065Y00442D02*
X013415D01*
X01324Y004245D02*
Y004595D01*
X014065Y00442D02*
X014415D01*
X01424Y004245D02*
Y004595D01*
X014065Y00542D02*
X014415D01*
X01424Y005245D02*
Y005595D01*
X018065Y00442D02*
X018415D01*
X01824Y004245D02*
Y004595D01*
X018065Y00542D02*
X018415D01*
X01824Y005245D02*
Y005595D01*
X017065Y00542D02*
X017415D01*
X01724Y005245D02*
Y005595D01*
X019065Y00542D02*
X019415D01*
X01924Y005245D02*
Y005595D01*
X019065Y00442D02*
X019415D01*
X01924Y004245D02*
Y004595D01*
X008065Y01042D02*
X008415D01*
X00824Y010245D02*
Y010595D01*
X008065Y01142D02*
X008415D01*
X00824Y011245D02*
Y011595D01*
X009065Y01142D02*
X009415D01*
X00924Y011245D02*
Y011595D01*
X009065Y01242D02*
X009415D01*
X00924Y012245D02*
Y012595D01*
X008065Y01242D02*
X008415D01*
X00824Y012245D02*
Y012595D01*
X009065Y01542D02*
X009415D01*
X00924Y015245D02*
Y015595D01*
X008065Y01542D02*
X008415D01*
X00824Y015245D02*
Y015595D01*
X009065Y01442D02*
X009415D01*
X00924Y014245D02*
Y014595D01*
X008065Y01442D02*
X008415D01*
X00824Y014245D02*
Y014595D01*
X008065Y01342D02*
X008415D01*
X00824Y013245D02*
Y013595D01*
X009065Y01342D02*
X009415D01*
X00924Y013245D02*
Y013595D01*
X008065Y00942D02*
X008415D01*
X00824Y009245D02*
Y009595D01*
X009065Y00942D02*
X009415D01*
X00924Y009245D02*
Y009595D01*
X009065Y01042D02*
X009415D01*
X00924Y010245D02*
Y010595D01*
X009065Y00842D02*
X009415D01*
X00924Y008245D02*
Y008595D01*
X008065Y00842D02*
X008415D01*
X00824Y008245D02*
Y008595D01*
X001344Y004428D02*
X001694D01*
X001519Y004253D02*
Y004603D01*
X002344Y004428D02*
X002694D01*
X002519Y004253D02*
Y004603D01*
X002344Y005428D02*
X002694D01*
X002519Y005253D02*
Y005603D01*
X001344Y005428D02*
X001694D01*
X001519Y005253D02*
Y005603D01*
X002343Y008428D02*
X002693D01*
X002518Y008253D02*
Y008603D01*
X001343Y008428D02*
X001693D01*
X001518Y008253D02*
Y008603D01*
X002344Y007428D02*
X002694D01*
X002519Y007253D02*
Y007603D01*
X001344Y007428D02*
X001694D01*
X001519Y007253D02*
Y007603D01*
X001344Y006428D02*
X001694D01*
X001519Y006253D02*
Y006603D01*
X002344Y006428D02*
X002694D01*
X002519Y006253D02*
Y006603D01*
X005986Y018499D02*
X006336D01*
X006161Y018324D02*
Y018674D01*
X005199Y019483D02*
X005549D01*
X005374Y019308D02*
Y019658D01*
X005199Y018499D02*
X005549D01*
X005374Y018324D02*
Y018674D01*
X005986Y019483D02*
X006336D01*
X006161Y019308D02*
Y019658D01*
X004193Y021353D02*
X004508D01*
X00435Y021195D02*
Y02151D01*
X004193Y016628D02*
X004508D01*
X00435Y016471D02*
Y016786D01*
X010595Y023009D02*
X010945D01*
X01077Y022834D02*
Y023184D01*
X010595Y021237D02*
X010945D01*
X01077Y021062D02*
Y021412D01*
X008036Y023009D02*
X008386D01*
X008211Y022834D02*
Y023184D01*
X008036Y021237D02*
X008386D01*
X008211Y021062D02*
Y021412D01*
X011395Y010974D02*
X011645D01*
X01152Y010849D02*
Y011099D01*
X011395Y012913D02*
X011645D01*
X01152Y012788D02*
Y013038D01*
X002063Y015953D02*
X002313D01*
X002188Y015828D02*
Y016078D01*
X001275Y015953D02*
X001525D01*
X0014Y015828D02*
Y016078D01*
X000488Y015953D02*
X000738D01*
X000613Y015828D02*
Y016078D01*
X000488Y014181D02*
X000738D01*
X000613Y014056D02*
Y014306D01*
X001275Y014181D02*
X001525D01*
X0014Y014056D02*
Y014306D01*
X002063Y014181D02*
X002313D01*
X002188Y014056D02*
Y014306D01*
X029115Y002849D02*
X029465D01*
X02929Y002674D02*
Y003024D01*
X028115Y002849D02*
X028465D01*
X02829Y002674D02*
Y003024D01*
X029115Y003849D02*
X029465D01*
X02929Y003674D02*
Y004024D01*
X028115Y003849D02*
X028465D01*
X02829Y003674D02*
Y004024D01*
X029115Y004849D02*
X029465D01*
X02929Y004674D02*
Y005024D01*
X028115Y004849D02*
X028465D01*
X02829Y004674D02*
Y005024D01*
X029115Y005849D02*
X029465D01*
X02929Y005674D02*
Y006024D01*
X028115Y005849D02*
X028465D01*
X02829Y005674D02*
Y006024D01*
X029115Y006849D02*
X029465D01*
X02929Y006674D02*
Y007024D01*
X028115Y006849D02*
X028465D01*
X02829Y006674D02*
Y007024D01*
X029115Y007849D02*
X029465D01*
X02929Y007674D02*
Y008024D01*
X028115Y007849D02*
X028465D01*
X02829Y007674D02*
Y008024D01*
X029115Y008849D02*
X029465D01*
X02929Y008674D02*
Y009024D01*
X028115Y008849D02*
X028465D01*
X02829Y008674D02*
Y009024D01*
X029115Y009849D02*
X029465D01*
X02929Y009674D02*
Y010024D01*
X028115Y009849D02*
X028465D01*
X02829Y009674D02*
Y010024D01*
X006625Y003303D02*
X006975D01*
X0068Y003128D02*
Y003478D01*
X005625Y003303D02*
X005975D01*
X0058Y003128D02*
Y003478D01*
X004625Y003303D02*
X004975D01*
X0048Y003128D02*
Y003478D01*
X006625Y005303D02*
X006975D01*
X0068Y005128D02*
Y005478D01*
X005625Y005303D02*
X005975D01*
X0058Y005128D02*
Y005478D01*
X004625Y005303D02*
X004975D01*
X0048Y005128D02*
Y005478D01*
X018075Y008403D02*
X018425D01*
X01825Y008228D02*
Y008578D01*
X019075Y008403D02*
X019425D01*
X01925Y008228D02*
Y008578D01*
X020075Y008403D02*
X020425D01*
X02025Y008228D02*
Y008578D01*
X018075Y015403D02*
X018425D01*
X01825Y015228D02*
Y015578D01*
X019075Y015403D02*
X019425D01*
X01925Y015228D02*
Y015578D01*
X020075Y015403D02*
X020425D01*
X02025Y015228D02*
Y015578D01*
X008036Y000598D02*
X008386D01*
X008211Y000423D02*
Y000773D01*
X008036Y00237D02*
X008386D01*
X008211Y002195D02*
Y002545D01*
X010595Y000598D02*
X010945D01*
X01077Y000423D02*
Y000773D01*
X010595Y00237D02*
X010945D01*
X01077Y002195D02*
Y002545D01*
X014356Y000598D02*
X014706D01*
X014531Y000423D02*
Y000773D01*
X014356Y00237D02*
X014706D01*
X014531Y002195D02*
Y002545D01*
X016915Y000598D02*
X017265D01*
X01709Y000423D02*
Y000773D01*
X016915Y00237D02*
X017265D01*
X01709Y002195D02*
Y002545D01*
X020606Y000598D02*
X020956D01*
X020781Y000423D02*
Y000773D01*
X020606Y00237D02*
X020956D01*
X020781Y002195D02*
Y002545D01*
X023165Y000598D02*
X023515D01*
X02334Y000423D02*
Y000773D01*
X023165Y00237D02*
X023515D01*
X02334Y002195D02*
Y002545D01*
X03384Y009849D02*
X03419D01*
X034015Y009674D02*
Y010024D01*
X03284Y009849D02*
X03319D01*
X033015Y009674D02*
Y010024D01*
X03284Y008849D02*
X03319D01*
X033015Y008674D02*
Y009024D01*
X03384Y008849D02*
X03419D01*
X034015Y008674D02*
Y009024D01*
X03284Y007849D02*
X03319D01*
X033015Y007674D02*
Y008024D01*
X03384Y007849D02*
X03419D01*
X034015Y007674D02*
Y008024D01*
X03284Y006849D02*
X03319D01*
X033015Y006674D02*
Y007024D01*
X03384Y006849D02*
X03419D01*
X034015Y006674D02*
Y007024D01*
X03284Y005849D02*
X03319D01*
X033015Y005674D02*
Y006024D01*
X03384Y005849D02*
X03419D01*
X034015Y005674D02*
Y006024D01*
X03284Y004849D02*
X03319D01*
X033015Y004674D02*
Y005024D01*
X03384Y004849D02*
X03419D01*
X034015Y004674D02*
Y005024D01*
X03284Y003849D02*
X03319D01*
X033015Y003674D02*
Y004024D01*
X03384Y003849D02*
X03419D01*
X034015Y003674D02*
Y004024D01*
X03284Y002849D02*
X03319D01*
X033015Y002674D02*
Y003024D01*
X03384Y002849D02*
X03419D01*
X034015Y002674D02*
Y003024D01*
X028115Y020873D02*
X028465D01*
X02829Y020698D02*
Y021048D01*
X029115Y013873D02*
X029465D01*
X02929Y013698D02*
Y014048D01*
X028115Y013873D02*
X028465D01*
X02829Y013698D02*
Y014048D01*
X029115Y014873D02*
X029465D01*
X02929Y014698D02*
Y015048D01*
X028115Y014873D02*
X028465D01*
X02829Y014698D02*
Y015048D01*
X029115Y015873D02*
X029465D01*
X02929Y015698D02*
Y016048D01*
X028115Y015873D02*
X028465D01*
X02829Y015698D02*
Y016048D01*
X029115Y016873D02*
X029465D01*
X02929Y016698D02*
Y017048D01*
X028115Y016873D02*
X028465D01*
X02829Y016698D02*
Y017048D01*
X029115Y017873D02*
X029465D01*
X02929Y017698D02*
Y018048D01*
X028115Y017873D02*
X028465D01*
X02829Y017698D02*
Y018048D01*
X029115Y018873D02*
X029465D01*
X02929Y018698D02*
Y019048D01*
X028115Y018873D02*
X028465D01*
X02829Y018698D02*
Y019048D01*
X029115Y019873D02*
X029465D01*
X02929Y019698D02*
Y020048D01*
X028115Y019873D02*
X028465D01*
X02829Y019698D02*
Y020048D01*
X029115Y020873D02*
X029465D01*
X02929Y020698D02*
Y021048D01*
X03284Y020873D02*
X03319D01*
X033015Y020698D02*
Y021048D01*
X03384Y014873D02*
X03419D01*
X034015Y014698D02*
Y015048D01*
X03384Y013873D02*
X03419D01*
X034015Y013698D02*
Y014048D01*
X03284Y013873D02*
X03319D01*
X033015Y013698D02*
Y014048D01*
X03284Y014873D02*
X03319D01*
X033015Y014698D02*
Y015048D01*
X03384Y015873D02*
X03419D01*
X034015Y015698D02*
Y016048D01*
X03284Y015873D02*
X03319D01*
X033015Y015698D02*
Y016048D01*
X03384Y016873D02*
X03419D01*
X034015Y016698D02*
Y017048D01*
X03284Y016873D02*
X03319D01*
X033015Y016698D02*
Y017048D01*
X03384Y017873D02*
X03419D01*
X034015Y017698D02*
Y018048D01*
X03284Y017873D02*
X03319D01*
X033015Y017698D02*
Y018048D01*
X03384Y018873D02*
X03419D01*
X034015Y018698D02*
Y019048D01*
X03284Y018873D02*
X03319D01*
X033015Y018698D02*
Y019048D01*
X03384Y019873D02*
X03419D01*
X034015Y019698D02*
Y020048D01*
X03284Y019873D02*
X03319D01*
X033015Y019698D02*
Y020048D01*
X03384Y020873D02*
X03419D01*
X034015Y020698D02*
Y021048D01*
X022841Y00325D02*
X022959D01*
X0229Y003191D02*
Y003309D01*
X023441Y022513D02*
X023559D01*
X0235Y022454D02*
Y022572D01*
X017081Y011473D02*
X017199D01*
X01714Y011414D02*
Y011532D01*
X006991Y006803D02*
X007109D01*
X00705Y006744D02*
Y006862D01*
X010991Y016703D02*
X011109D01*
X01105Y016644D02*
Y016762D01*
X008291Y017353D02*
X008409D01*
X00835Y017294D02*
Y017412D01*
X006941Y016703D02*
X007059D01*
X007Y016644D02*
Y016762D01*
X014591Y011953D02*
X014709D01*
X01465Y011894D02*
Y012012D01*
X014791Y012203D02*
X014909D01*
X01485Y012144D02*
Y012262D01*
X007841Y017903D02*
X007959D01*
X0079Y017844D02*
Y017962D01*
X016194Y016372D02*
X016312D01*
X016253Y016313D02*
Y016431D01*
X017131Y022513D02*
X017249D01*
X01719Y022454D02*
Y022572D01*
X020311Y022513D02*
X020429D01*
X02037Y022454D02*
Y022572D01*
X014061Y022523D02*
X014179D01*
X01412Y022464D02*
Y022582D01*
X005341Y012053D02*
X005459D01*
X0054Y011994D02*
Y012112D01*
X024491Y004553D02*
X024609D01*
X02455Y004494D02*
Y004612D01*
X008741Y004303D02*
X008859D01*
X0088Y004244D02*
Y004362D01*
X027991Y010703D02*
X028109D01*
X02805Y010644D02*
Y010762D01*
X028241Y010922D02*
X028359D01*
X0283Y010863D02*
Y010981D01*
X028491Y011153D02*
X028609D01*
X02855Y011094D02*
Y011212D01*
M02*
