G04*
G04 #@! TF.GenerationSoftware,Altium Limited,Altium Designer,21.6.1 (37)*
G04*
G04 Layer_Color=32896*
%FSTAX24Y24*%
%MOIN*%
G70*
G04*
G04 #@! TF.SameCoordinates,B7BCD236-E72C-41E6-AEDC-B20C2DB60F4C*
G04*
G04*
G04 #@! TF.FilePolarity,Positive*
G04*
G01*
G75*
%ADD10C,0.0100*%
G36*
X019709Y013448D02*
X019717Y013446D01*
X019731Y013441D01*
X019744Y013436D01*
X019749Y013432D01*
X019754Y013429D01*
X019758Y013426D01*
X019762Y013423D01*
X019765Y01342D01*
X019768Y013418D01*
X01977Y013416D01*
X019772Y013414D01*
X019773Y013413D01*
X019773Y013413D01*
X019778Y013406D01*
X019782Y0134D01*
X019786Y013394D01*
X019789Y013387D01*
X019794Y013373D01*
X019797Y013361D01*
X019798Y013355D01*
X019799Y01335D01*
X0198Y013345D01*
X0198Y013341D01*
X019801Y013338D01*
Y013333D01*
X0198Y013324D01*
X019799Y013315D01*
X019798Y013307D01*
X019796Y013299D01*
X019793Y013291D01*
X01979Y013284D01*
X019787Y013278D01*
X019784Y013272D01*
X019781Y013267D01*
X019778Y013262D01*
X019776Y013258D01*
X019773Y013255D01*
X019771Y013252D01*
X01977Y01325D01*
X019769Y013249D01*
X019768Y013249D01*
X019762Y013243D01*
X019755Y013238D01*
X019749Y013233D01*
X019742Y013229D01*
X019735Y013226D01*
X019728Y013223D01*
X019716Y013219D01*
X019711Y013218D01*
X019705Y013217D01*
X0197Y013216D01*
X019696Y013215D01*
X019693Y013215D01*
X019691D01*
X019689D01*
X019689D01*
X019677Y013216D01*
X019667Y013218D01*
X019657Y01322D01*
X019649Y013224D01*
X019643Y013227D01*
X019638Y01323D01*
X019635Y013232D01*
X019634Y013233D01*
X019627Y01324D01*
X01962Y013248D01*
X019615Y013256D01*
X019611Y013264D01*
X019608Y013271D01*
X019606Y013276D01*
X019605Y013278D01*
Y01328D01*
X019605Y013281D01*
Y013281D01*
X019599Y013272D01*
X019593Y013264D01*
X019587Y013258D01*
X019581Y013252D01*
X019575Y013247D01*
X019569Y013243D01*
X019563Y01324D01*
X019557Y013236D01*
X019552Y013234D01*
X019547Y013233D01*
X019542Y013232D01*
X019538Y013231D01*
X019535Y013231D01*
X019532Y01323D01*
X019531D01*
X01953D01*
X019524Y013231D01*
X019519Y013231D01*
X019507Y013234D01*
X019497Y013238D01*
X019489Y013243D01*
X019481Y013247D01*
X019476Y013251D01*
X019474Y013253D01*
X019473Y013254D01*
X019472Y013255D01*
X019472Y013255D01*
X019466Y013261D01*
X019461Y013268D01*
X019457Y013274D01*
X019453Y01328D01*
X01945Y013287D01*
X019447Y013294D01*
X019444Y013307D01*
X019442Y013312D01*
X019441Y013318D01*
X019441Y013323D01*
X01944Y013327D01*
X01944Y013331D01*
Y013335D01*
X01944Y013346D01*
X019441Y013356D01*
X019443Y013365D01*
X019445Y013372D01*
X019447Y013379D01*
X019449Y013384D01*
X01945Y013387D01*
X019451Y013387D01*
Y013388D01*
X019455Y013396D01*
X019461Y013403D01*
X019466Y01341D01*
X01947Y013415D01*
X019475Y013419D01*
X019478Y013422D01*
X01948Y013424D01*
X019481Y013424D01*
X019489Y013429D01*
X019497Y013433D01*
X019506Y013436D01*
X019514Y013439D01*
X019522Y013441D01*
X019527Y013443D01*
X01953Y013443D01*
X019531D01*
X019532Y013444D01*
X019533D01*
X019543Y013382D01*
X019535Y01338D01*
X019528Y013378D01*
X019522Y013376D01*
X019517Y013373D01*
X019513Y013371D01*
X01951Y013369D01*
X019508Y013367D01*
X019508Y013367D01*
X019504Y013362D01*
X019501Y013357D01*
X019499Y013352D01*
X019497Y013347D01*
X019496Y013343D01*
X019496Y01334D01*
Y013337D01*
X019496Y013331D01*
X019497Y013325D01*
X019499Y01332D01*
X019501Y013316D01*
X019503Y013313D01*
X019505Y013311D01*
X019506Y013309D01*
X019506Y013309D01*
X01951Y013305D01*
X019516Y013303D01*
X01952Y013301D01*
X019525Y0133D01*
X019529Y013299D01*
X019532Y013298D01*
X019534D01*
X019535D01*
X019543Y013299D01*
X019549Y0133D01*
X019555Y013303D01*
X019559Y013305D01*
X019563Y013308D01*
X019566Y01331D01*
X019568Y013312D01*
X019569Y013313D01*
X019573Y013319D01*
X019576Y013326D01*
X019578Y013333D01*
X019579Y013339D01*
X01958Y013345D01*
X01958Y013351D01*
Y013355D01*
X019635Y013362D01*
X019633Y013356D01*
X019632Y01335D01*
X019631Y013344D01*
X01963Y01334D01*
X01963Y013336D01*
Y013331D01*
X01963Y013324D01*
X019632Y013318D01*
X019634Y013312D01*
X019637Y013307D01*
X01964Y013304D01*
X019642Y013301D01*
X019644Y013299D01*
X019645Y013298D01*
X019651Y013293D01*
X019658Y01329D01*
X019664Y013287D01*
X019671Y013285D01*
X019677Y013284D01*
X019681Y013284D01*
X019685D01*
X019685D01*
X019686D01*
X019695Y013284D01*
X019704Y013286D01*
X019712Y013288D01*
X019718Y013291D01*
X019722Y013294D01*
X019726Y013296D01*
X019728Y013298D01*
X019729Y013299D01*
X019734Y013304D01*
X019738Y01331D01*
X019741Y013316D01*
X019743Y013321D01*
X019744Y013327D01*
X019744Y01333D01*
X019745Y013333D01*
Y013334D01*
X019744Y013341D01*
X019743Y013347D01*
X019741Y013353D01*
X019738Y013358D01*
X019736Y013361D01*
X019734Y013364D01*
X019732Y013366D01*
X019732Y013367D01*
X019726Y013371D01*
X01972Y013375D01*
X019714Y013378D01*
X019707Y013381D01*
X019702Y013382D01*
X019697Y013383D01*
X019694Y013384D01*
X019694D01*
X019693D01*
X019701Y013449D01*
X019709Y013448D01*
D02*
G37*
G36*
X019794Y013067D02*
Y01299D01*
X019442Y012865D01*
Y012941D01*
X019702Y013027D01*
X019442Y013116D01*
Y013193D01*
X019794Y013067D01*
D02*
G37*
G36*
X0197Y012705D02*
X019632D01*
Y012837D01*
X0197D01*
Y012705D01*
D02*
G37*
G36*
X019794Y012512D02*
X019793Y012504D01*
Y012488D01*
X019793Y012482D01*
Y012472D01*
X019792Y012469D01*
Y012464D01*
X019792Y012462D01*
Y01246D01*
X01979Y01245D01*
X019788Y01244D01*
X019785Y012432D01*
X019782Y012425D01*
X01978Y01242D01*
X019777Y012415D01*
X019776Y012413D01*
X019775Y012412D01*
X01977Y012405D01*
X019763Y012399D01*
X019758Y012394D01*
X019752Y01239D01*
X019747Y012386D01*
X019743Y012383D01*
X01974Y012382D01*
X019739Y012381D01*
X01973Y012378D01*
X019722Y012375D01*
X019714Y012373D01*
X019707Y012372D01*
X019701Y012371D01*
X019696Y01237D01*
X019693D01*
X019693D01*
X019692D01*
X019681Y012371D01*
X019671Y012373D01*
X019662Y012376D01*
X019654Y012379D01*
X019648Y012382D01*
X019643Y012385D01*
X01964Y012387D01*
X019639Y012387D01*
X019631Y012395D01*
X019624Y012402D01*
X019619Y012411D01*
X019615Y012419D01*
X019611Y012426D01*
X019609Y012432D01*
X019608Y012434D01*
X019608Y012435D01*
X019607Y012436D01*
Y012437D01*
X019603Y012429D01*
X019598Y012422D01*
X019592Y012415D01*
X019588Y01241D01*
X019583Y012407D01*
X01958Y012404D01*
X019577Y012402D01*
X019576Y012401D01*
X019568Y012397D01*
X01956Y012393D01*
X019553Y012391D01*
X019546Y012389D01*
X019539Y012388D01*
X019535Y012387D01*
X019532D01*
X019531D01*
X019531D01*
X019523Y012388D01*
X019515Y012389D01*
X019508Y012391D01*
X019502Y012393D01*
X019497Y012395D01*
X019493Y012397D01*
X019491Y012398D01*
X01949Y012399D01*
X019483Y012403D01*
X019477Y012407D01*
X019472Y012412D01*
X019468Y012416D01*
X019465Y01242D01*
X019462Y012423D01*
X019461Y012425D01*
X01946Y012426D01*
X019456Y012432D01*
X019453Y012438D01*
X01945Y012444D01*
X019448Y01245D01*
X019447Y012455D01*
X019446Y012459D01*
X019445Y012461D01*
Y012462D01*
X019444Y012471D01*
X019443Y012481D01*
X019443Y012491D01*
X019442Y012501D01*
X019442Y01251D01*
Y012665D01*
X019794D01*
Y012512D01*
D02*
G37*
G36*
Y01227D02*
X019714Y012241D01*
Y0121D01*
X019794Y012069D01*
Y011992D01*
X019442Y012134D01*
Y012209D01*
X019794Y012346D01*
Y01227D01*
D02*
G37*
G36*
X019501Y011875D02*
X019794D01*
Y011804D01*
X019501D01*
Y0117D01*
X019442D01*
Y011979D01*
X019501D01*
Y011875D01*
D02*
G37*
G36*
Y011574D02*
X019794D01*
Y011503D01*
X019501D01*
Y011399D01*
X019442D01*
Y011678D01*
X019501D01*
Y011574D01*
D02*
G37*
G36*
X019794Y011085D02*
X019734D01*
Y011281D01*
X019639D01*
Y011105D01*
X019579D01*
Y011281D01*
X019501D01*
Y011092D01*
X019442D01*
Y011353D01*
X019794D01*
Y011085D01*
D02*
G37*
G36*
Y010953D02*
X019647D01*
Y01093D01*
X019647Y010923D01*
X019648Y010917D01*
X019649Y010912D01*
X019649Y010908D01*
X01965Y010905D01*
X019651Y010904D01*
Y010903D01*
X019653Y010899D01*
X019655Y010895D01*
X019658Y010892D01*
X01966Y010888D01*
X019662Y010885D01*
X019664Y010883D01*
X019665Y010882D01*
X019666Y010882D01*
X019668Y01088D01*
X019671Y010877D01*
X019678Y010872D01*
X019687Y010866D01*
X019696Y010859D01*
X019704Y010853D01*
X019708Y010851D01*
X019711Y010849D01*
X019714Y010847D01*
X019716Y010845D01*
X019717Y010845D01*
X019718Y010844D01*
X019794Y010793D01*
Y010708D01*
X019725Y010751D01*
X019718Y010756D01*
X019711Y01076D01*
X019705Y010764D01*
X019699Y010768D01*
X019694Y010772D01*
X019689Y010775D01*
X019681Y010781D01*
X019675Y010786D01*
X019671Y010789D01*
X019669Y010791D01*
X019668Y010792D01*
X019662Y010797D01*
X019657Y010804D01*
X019652Y01081D01*
X019647Y010816D01*
X019644Y010821D01*
X019641Y010825D01*
X019639Y010828D01*
X019639Y010829D01*
Y010829D01*
X019637Y010821D01*
X019635Y010813D01*
X019633Y010806D01*
X019631Y010799D01*
X019628Y010793D01*
X019626Y010787D01*
X019623Y010782D01*
X01962Y010777D01*
X019617Y010773D01*
X019615Y010769D01*
X019612Y010766D01*
X01961Y010764D01*
X019609Y010762D01*
X019607Y010761D01*
X019607Y01076D01*
X019606Y01076D01*
X019601Y010756D01*
X019596Y010752D01*
X019585Y010746D01*
X019574Y010742D01*
X019563Y010739D01*
X019554Y010737D01*
X019551Y010737D01*
X019547D01*
X019545Y010736D01*
X019542D01*
X019541D01*
X01954D01*
X019529Y010737D01*
X019519Y010739D01*
X019509Y010741D01*
X019501Y010744D01*
X019495Y010747D01*
X01949Y01075D01*
X019488Y010751D01*
X019487Y010752D01*
X019486Y010752D01*
X019486D01*
X019477Y010758D01*
X01947Y010765D01*
X019464Y010771D01*
X019459Y010778D01*
X019456Y010784D01*
X019453Y010789D01*
X019452Y010792D01*
X019451Y010792D01*
Y010793D01*
X01945Y010798D01*
X019448Y010803D01*
X019446Y010816D01*
X019444Y01083D01*
X019443Y010843D01*
Y01085D01*
X019442Y010855D01*
Y010861D01*
X019442Y010866D01*
Y011024D01*
X019794D01*
Y010953D01*
D02*
G37*
G36*
X019646Y010577D02*
X019794D01*
Y010506D01*
X019646D01*
X019442Y010377D01*
Y010459D01*
X019581Y01054D01*
X019442Y010623D01*
Y010706D01*
X019646Y010577D01*
D02*
G37*
%LPC*%
G36*
X019582Y012594D02*
X0195D01*
Y012523D01*
X019501Y012517D01*
Y012504D01*
X019501Y012501D01*
Y012495D01*
X019502Y012493D01*
Y012493D01*
X019503Y012487D01*
X019504Y012481D01*
X019506Y012477D01*
X019508Y012472D01*
X01951Y01247D01*
X019513Y012467D01*
X019514Y012466D01*
X019514Y012466D01*
X019518Y012463D01*
X019523Y012461D01*
X019527Y012459D01*
X019531Y012458D01*
X019535Y012457D01*
X019538Y012457D01*
X01954D01*
X01954D01*
X019547Y012457D01*
X019552Y012458D01*
X019557Y01246D01*
X019561Y012462D01*
X019564Y012464D01*
X019566Y012466D01*
X019568Y012467D01*
X019569Y012467D01*
X019572Y012471D01*
X019575Y012476D01*
X019577Y012481D01*
X019578Y012485D01*
X01958Y01249D01*
X01958Y012493D01*
X019581Y012495D01*
Y012498D01*
X019581Y012501D01*
Y012517D01*
X019582Y012525D01*
Y012594D01*
D02*
G37*
G36*
X019734D02*
X01964D01*
Y01252D01*
X019641Y012513D01*
X019641Y012507D01*
Y0125D01*
X019642Y012495D01*
X019642Y012491D01*
X019643Y012487D01*
X019643Y012484D01*
X019644Y012481D01*
X019644Y012477D01*
X019645Y012475D01*
Y012474D01*
X019647Y012469D01*
X01965Y012464D01*
X019652Y01246D01*
X019656Y012457D01*
X019658Y012455D01*
X01966Y012453D01*
X019661Y012452D01*
X019662Y012452D01*
X019666Y012449D01*
X019671Y012447D01*
X019675Y012446D01*
X019679Y012444D01*
X019683Y012444D01*
X019686Y012443D01*
X019688D01*
X019689D01*
X019695Y012444D01*
X019701Y012445D01*
X019706Y012447D01*
X019711Y012449D01*
X019714Y012451D01*
X019717Y012452D01*
X019718Y012453D01*
X019719Y012454D01*
X019722Y012458D01*
X019725Y012462D01*
X019728Y012466D01*
X01973Y01247D01*
X019731Y012474D01*
X019732Y012477D01*
X019732Y012479D01*
Y01248D01*
X019733Y012482D01*
Y012485D01*
X019733Y012491D01*
X019734Y012499D01*
Y012508D01*
X019734Y012515D01*
Y012594D01*
D02*
G37*
G36*
X019655Y01222D02*
X019524Y012172D01*
X019655Y012123D01*
Y01222D01*
D02*
G37*
G36*
X019591Y010953D02*
X019501D01*
Y010872D01*
X019502Y010867D01*
Y010856D01*
X019502Y010851D01*
Y010848D01*
X019503Y010847D01*
Y010846D01*
X019504Y01084D01*
X019506Y010835D01*
X019508Y01083D01*
X019511Y010826D01*
X019514Y010823D01*
X019515Y010821D01*
X019517Y01082D01*
X019517Y010819D01*
X019521Y010816D01*
X019526Y010814D01*
X019531Y010812D01*
X019535Y010811D01*
X019539Y01081D01*
X019543Y01081D01*
X019545D01*
X019546D01*
X019551Y01081D01*
X019556Y010811D01*
X019561Y010812D01*
X019565Y010813D01*
X019568Y010815D01*
X01957Y010816D01*
X019572Y010817D01*
X019572Y010817D01*
X019576Y01082D01*
X019579Y010823D01*
X019583Y01083D01*
X019585Y010832D01*
X019586Y010835D01*
X019587Y010837D01*
Y010837D01*
X019587Y01084D01*
X019588Y010844D01*
X019589Y010848D01*
X019589Y010852D01*
X01959Y010863D01*
X01959Y010874D01*
X019591Y010884D01*
Y010953D01*
D02*
G37*
%LPD*%
D10*
X017454Y011903D02*
G03*
X017454Y011903I-000234J0D01*
G01*
X014564D02*
G03*
X014564Y011903I-000294J0D01*
G01*
X01358Y014334D02*
G03*
X012645Y014334I-000468J0D01*
G01*
Y009462D02*
G03*
X01358Y009462I000468J0D01*
G01*
X01865Y01234D02*
G03*
X013589Y013936I-00292J-000438D01*
G01*
X013584Y009875D02*
G03*
X018653Y011487I002146J002028D01*
G01*
X012645Y009462D02*
Y011425D01*
Y012361D02*
Y014334D01*
X01358Y013945D02*
Y014334D01*
Y009462D02*
Y009871D01*
M02*
