M48
;Layer_Color=9474304
;FILE_FORMAT=2:4
INCH,LZ
;TYPE=PLATED
T1F00S00C0.0118
T2F00S00C0.0200
T3F00S00C0.0250
T5F00S00C0.0350
%
T01
X0088Y004303
X00705Y006803
X0054Y012053
X01465Y011953
X01485Y012203
X01714Y011473
X02805Y010703
X0283Y010922
X02855Y011153
X02455Y004553
X0229Y00325
X016253Y016372
X01719Y022513
X02037
X0235
X01412Y022523
X01105Y016703
X00835Y017353
X0079Y017903
X007Y016703
T02
X01265Y015577
Y016128
T03
X000613Y014181
X0014
X002188
X01152Y012913
Y010974
X002188Y015953
X0014
X000613
T05
X001519Y004428
X002519
Y005428
X001519
Y006428
Y007428
X001518Y008428
X002518
X002519Y007428
Y006428
X0048Y005303
X0058
X0068
Y003303
X0058
X0048
X008211Y00237
Y000598
X01077
Y00237
X01224Y00442
Y00542
X01324Y00542
Y00442
X01424
X01524
Y00542
X01424
X014531Y00237
Y000598
X00924Y00842
Y00942
X00824
Y01042
Y01142
X00924
Y01242
X00824
Y01342
Y01442
X00824Y01542
X00924
X00924Y01442
Y01342
Y01042
X00824Y00842
X01825Y008403
X01925
X02025
X02224Y00842
X02324
X02324Y00942
X02224
Y01042
Y01142
Y01242
X02324
Y01342
Y01442
X02224
Y01342
Y01542
X02324
X02025Y015403
X01925
X01825
X02324Y01142
Y01042
X02829Y009849
Y008849
Y007849
Y006849
Y005849
Y004849
Y003849
Y002849
X02929
Y003849
Y004849
Y005849
Y006849
Y007849
Y008849
Y009849
Y013873
X02829
Y014873
X02929
X02334Y00237
Y000598
X020781
Y00237
X01924Y00442
X01824
X01724
X01624
Y00542
X01724
X01824
X01924
X01709Y00237
Y000598
X033015Y002849
Y003849
Y004849
Y005849
Y006849
Y007849
Y008849
Y009849
X034015
Y008849
Y007849
Y006849
Y005849
Y004849
Y003849
Y002849
Y013873
Y014873
X033015
Y013873
Y015873
X034015
Y016873
X033015
Y017873
X034015
Y018873
X033015
Y019873
Y020873
X034015
Y019873
X02929
Y018873
Y017873
Y016873
Y015873
X02829
Y016873
Y017873
Y018873
Y019873
Y020873
X02929
X01924Y01942
Y01842
X01824Y01842
Y01942
X01724
X01624
Y01842
X01724
X01524
Y01942
X01424
X01324
Y01842
X01424
X01224
Y01942
X01077Y021237
Y023009
X008211
Y021237
X006161Y019483
X005374
Y018499
X006161
M30
