G04*
G04 #@! TF.GenerationSoftware,Altium Limited,Altium Designer,21.6.1 (37)*
G04*
G04 Layer_Color=8388736*
%FSTAX24Y24*%
%MOIN*%
G70*
G04*
G04 #@! TF.SameCoordinates,B7BCD236-E72C-41E6-AEDC-B20C2DB60F4C*
G04*
G04*
G04 #@! TF.FilePolarity,Negative*
G04*
G01*
G75*
G04:AMPARAMS|DCode=20|XSize=108mil|YSize=88mil|CornerRadius=24mil|HoleSize=0mil|Usage=FLASHONLY|Rotation=180.000|XOffset=0mil|YOffset=0mil|HoleType=Round|Shape=RoundedRectangle|*
%AMROUNDEDRECTD20*
21,1,0.1080,0.0400,0,0,180.0*
21,1,0.0600,0.0880,0,0,180.0*
1,1,0.0480,-0.0300,0.0200*
1,1,0.0480,0.0300,0.0200*
1,1,0.0480,0.0300,-0.0200*
1,1,0.0480,-0.0300,-0.0200*
%
%ADD20ROUNDEDRECTD20*%
%ADD21R,0.0380X0.0568*%
%ADD22R,0.0671X0.1261*%
%ADD23R,0.0474X0.0356*%
%ADD24R,0.0395X0.0277*%
%ADD25R,0.0671X0.1340*%
%ADD26R,0.0568X0.0380*%
%ADD27O,0.0680X0.0480*%
%ADD28C,0.0680*%
G04:AMPARAMS|DCode=29|XSize=68mil|YSize=68mil|CornerRadius=19mil|HoleSize=0mil|Usage=FLASHONLY|Rotation=90.000|XOffset=0mil|YOffset=0mil|HoleType=Round|Shape=RoundedRectangle|*
%AMROUNDEDRECTD29*
21,1,0.0680,0.0300,0,0,90.0*
21,1,0.0300,0.0680,0,0,90.0*
1,1,0.0380,0.0150,0.0150*
1,1,0.0380,0.0150,-0.0150*
1,1,0.0380,-0.0150,-0.0150*
1,1,0.0380,-0.0150,0.0150*
%
%ADD29ROUNDEDRECTD29*%
%ADD30O,0.0880X0.0680*%
G04:AMPARAMS|DCode=31|XSize=68mil|YSize=88mil|CornerRadius=19mil|HoleSize=0mil|Usage=FLASHONLY|Rotation=90.000|XOffset=0mil|YOffset=0mil|HoleType=Round|Shape=RoundedRectangle|*
%AMROUNDEDRECTD31*
21,1,0.0680,0.0500,0,0,90.0*
21,1,0.0300,0.0880,0,0,90.0*
1,1,0.0380,0.0250,0.0150*
1,1,0.0380,0.0250,-0.0150*
1,1,0.0380,-0.0250,-0.0150*
1,1,0.0380,-0.0250,0.0150*
%
%ADD31ROUNDEDRECTD31*%
G04:AMPARAMS|DCode=32|XSize=78mil|YSize=68mil|CornerRadius=19mil|HoleSize=0mil|Usage=FLASHONLY|Rotation=90.000|XOffset=0mil|YOffset=0mil|HoleType=Round|Shape=RoundedRectangle|*
%AMROUNDEDRECTD32*
21,1,0.0780,0.0300,0,0,90.0*
21,1,0.0400,0.0680,0,0,90.0*
1,1,0.0380,0.0150,0.0200*
1,1,0.0380,0.0150,-0.0200*
1,1,0.0380,-0.0150,-0.0200*
1,1,0.0380,-0.0150,0.0200*
%
%ADD32ROUNDEDRECTD32*%
%ADD33O,0.0680X0.0780*%
G04:AMPARAMS|DCode=34|XSize=68mil|YSize=145.8mil|CornerRadius=19mil|HoleSize=0mil|Usage=FLASHONLY|Rotation=90.000|XOffset=0mil|YOffset=0mil|HoleType=Round|Shape=RoundedRectangle|*
%AMROUNDEDRECTD34*
21,1,0.0680,0.1078,0,0,90.0*
21,1,0.0300,0.1458,0,0,90.0*
1,1,0.0380,0.0539,0.0150*
1,1,0.0380,0.0539,-0.0150*
1,1,0.0380,-0.0539,-0.0150*
1,1,0.0380,-0.0539,0.0150*
%
%ADD34ROUNDEDRECTD34*%
%ADD35O,0.0880X0.0680*%
G04:AMPARAMS|DCode=36|XSize=88mil|YSize=68mil|CornerRadius=19mil|HoleSize=0mil|Usage=FLASHONLY|Rotation=180.000|XOffset=0mil|YOffset=0mil|HoleType=Round|Shape=RoundedRectangle|*
%AMROUNDEDRECTD36*
21,1,0.0880,0.0300,0,0,180.0*
21,1,0.0500,0.0680,0,0,180.0*
1,1,0.0380,-0.0250,0.0150*
1,1,0.0380,0.0250,0.0150*
1,1,0.0380,0.0250,-0.0150*
1,1,0.0380,-0.0250,-0.0150*
%
%ADD36ROUNDEDRECTD36*%
%ADD37O,0.0580X0.0780*%
G04:AMPARAMS|DCode=38|XSize=58mil|YSize=78mil|CornerRadius=16.5mil|HoleSize=0mil|Usage=FLASHONLY|Rotation=180.000|XOffset=0mil|YOffset=0mil|HoleType=Round|Shape=RoundedRectangle|*
%AMROUNDEDRECTD38*
21,1,0.0580,0.0450,0,0,180.0*
21,1,0.0250,0.0780,0,0,180.0*
1,1,0.0330,-0.0125,0.0225*
1,1,0.0330,0.0125,0.0225*
1,1,0.0330,0.0125,-0.0225*
1,1,0.0330,-0.0125,-0.0225*
%
%ADD38ROUNDEDRECTD38*%
%ADD39O,0.0680X0.0880*%
G04:AMPARAMS|DCode=40|XSize=88mil|YSize=68mil|CornerRadius=19mil|HoleSize=0mil|Usage=FLASHONLY|Rotation=270.000|XOffset=0mil|YOffset=0mil|HoleType=Round|Shape=RoundedRectangle|*
%AMROUNDEDRECTD40*
21,1,0.0880,0.0300,0,0,270.0*
21,1,0.0500,0.0680,0,0,270.0*
1,1,0.0380,-0.0150,-0.0250*
1,1,0.0380,-0.0150,0.0250*
1,1,0.0380,0.0150,0.0250*
1,1,0.0380,0.0150,-0.0250*
%
%ADD40ROUNDEDRECTD40*%
D20*
X0154Y015853D02*
D03*
D21*
X01221Y014721D02*
D03*
X01311D02*
D03*
X01529Y012373D02*
D03*
X01619D02*
D03*
X01915Y014053D02*
D03*
X01825D02*
D03*
X0095Y017353D02*
D03*
X0104D02*
D03*
X00615Y004303D02*
D03*
X00705D02*
D03*
X00615Y006303D02*
D03*
X00705D02*
D03*
X01314Y016683D02*
D03*
X01224D02*
D03*
X01225Y017353D02*
D03*
X01315D02*
D03*
X0095Y016553D02*
D03*
X0104D02*
D03*
X01915Y009853D02*
D03*
X01825D02*
D03*
X00585Y010303D02*
D03*
X00495D02*
D03*
X01529Y011473D02*
D03*
X01619D02*
D03*
X0154Y014853D02*
D03*
X0145D02*
D03*
X01225Y009003D02*
D03*
X01315D02*
D03*
X00495Y008053D02*
D03*
X00585D02*
D03*
X00495Y007178D02*
D03*
X00585D02*
D03*
X02334Y003261D02*
D03*
X02244D02*
D03*
X01709Y00327D02*
D03*
X01619D02*
D03*
X00987D02*
D03*
X01077D02*
D03*
X00495Y011178D02*
D03*
X00585D02*
D03*
X00585Y0142D02*
D03*
X00495D02*
D03*
X00585Y0133D02*
D03*
X00495D02*
D03*
X01155Y009003D02*
D03*
X01065D02*
D03*
X0145Y016853D02*
D03*
X0154D02*
D03*
X00585Y012053D02*
D03*
X00495D02*
D03*
D22*
X00065Y01225D02*
D03*
D23*
X003337Y013165D02*
D03*
Y01225D02*
D03*
X003347Y011344D02*
D03*
D24*
X004748Y009177D02*
D03*
X00585Y008803D02*
D03*
Y009551D02*
D03*
D25*
X006722Y015403D02*
D03*
X00495D02*
D03*
D26*
X02025Y009853D02*
D03*
Y010753D02*
D03*
Y014053D02*
D03*
Y013153D02*
D03*
X022737Y021301D02*
D03*
Y022201D02*
D03*
X0235Y021301D02*
D03*
Y022201D02*
D03*
X01184Y00237D02*
D03*
Y00147D02*
D03*
X01814Y00237D02*
D03*
Y00147D02*
D03*
X02439Y00237D02*
D03*
Y00147D02*
D03*
X01961Y021286D02*
D03*
Y022186D02*
D03*
X016484Y021276D02*
D03*
Y022176D02*
D03*
X013357Y021256D02*
D03*
Y022156D02*
D03*
X02037Y021291D02*
D03*
Y022191D02*
D03*
X01719Y021273D02*
D03*
Y022173D02*
D03*
X01412Y021251D02*
D03*
Y022151D02*
D03*
D27*
X01265Y015577D02*
D03*
Y016128D02*
D03*
D28*
X01424Y01942D02*
D03*
X01524D02*
D03*
Y01842D02*
D03*
X01624D02*
D03*
Y01942D02*
D03*
X01924Y01842D02*
D03*
Y01942D02*
D03*
X01824Y01842D02*
D03*
Y01942D02*
D03*
X01724D02*
D03*
Y01842D02*
D03*
X01324Y01942D02*
D03*
Y01842D02*
D03*
X01424D02*
D03*
X01224D02*
D03*
Y01942D02*
D03*
X02324Y01342D02*
D03*
Y01242D02*
D03*
X02224D02*
D03*
Y01142D02*
D03*
X02324D02*
D03*
X02224Y00842D02*
D03*
X02324D02*
D03*
X02224Y00942D02*
D03*
X02324D02*
D03*
Y01042D02*
D03*
X02224D02*
D03*
X02324Y01442D02*
D03*
X02224D02*
D03*
Y01342D02*
D03*
Y01542D02*
D03*
X02324D02*
D03*
X01724Y00442D02*
D03*
X01624D02*
D03*
Y00542D02*
D03*
X01524D02*
D03*
Y00442D02*
D03*
X01224Y00542D02*
D03*
Y00442D02*
D03*
X01324Y00542D02*
D03*
Y00442D02*
D03*
X01424D02*
D03*
Y00542D02*
D03*
X01824Y00442D02*
D03*
Y00542D02*
D03*
X01724D02*
D03*
X01924D02*
D03*
Y00442D02*
D03*
X00824Y01042D02*
D03*
Y01142D02*
D03*
X00924D02*
D03*
Y01242D02*
D03*
X00824D02*
D03*
X00924Y01542D02*
D03*
X00924Y01442D02*
D03*
X00824D02*
D03*
Y01342D02*
D03*
X00924D02*
D03*
X00824Y00942D02*
D03*
X00924D02*
D03*
Y01042D02*
D03*
Y00842D02*
D03*
X00824D02*
D03*
D29*
X00824Y01542D02*
D03*
D30*
X001519Y004428D02*
D03*
X002519D02*
D03*
Y005428D02*
D03*
X001519D02*
D03*
X002518Y008428D02*
D03*
X002519Y007428D02*
D03*
X001519D02*
D03*
Y006428D02*
D03*
X002519D02*
D03*
X01152Y010974D02*
D03*
Y012913D02*
D03*
D31*
X001518Y008428D02*
D03*
D32*
X006161Y018499D02*
D03*
D33*
X005374Y019483D02*
D03*
Y018499D02*
D03*
X006161Y019483D02*
D03*
D34*
X00435Y021353D02*
D03*
Y016628D02*
D03*
D35*
X01077Y023009D02*
D03*
X008211D02*
D03*
Y021237D02*
D03*
X02929Y002849D02*
D03*
X02829D02*
D03*
X02929Y003849D02*
D03*
X02829D02*
D03*
X02929Y004849D02*
D03*
X02829D02*
D03*
X02929Y005849D02*
D03*
X02829D02*
D03*
X02929Y006849D02*
D03*
X02829D02*
D03*
X02929Y007849D02*
D03*
X02829D02*
D03*
X02929Y008849D02*
D03*
X02829D02*
D03*
X02929Y009849D02*
D03*
X008211Y000598D02*
D03*
X01077D02*
D03*
Y00237D02*
D03*
X014531Y000598D02*
D03*
X01709D02*
D03*
Y00237D02*
D03*
X020781Y000598D02*
D03*
X02334D02*
D03*
Y00237D02*
D03*
X034015Y009849D02*
D03*
X033015Y008849D02*
D03*
X034015D02*
D03*
X033015Y007849D02*
D03*
X034015D02*
D03*
X033015Y006849D02*
D03*
X034015D02*
D03*
X033015Y005849D02*
D03*
X034015D02*
D03*
X033015Y004849D02*
D03*
X034015D02*
D03*
X033015Y003849D02*
D03*
X034015D02*
D03*
X033015Y002849D02*
D03*
X034015D02*
D03*
X02929Y013873D02*
D03*
X02829D02*
D03*
X02929Y014873D02*
D03*
X02829D02*
D03*
X02929Y015873D02*
D03*
X02829D02*
D03*
X02929Y016873D02*
D03*
X02829D02*
D03*
X02929Y017873D02*
D03*
X02829D02*
D03*
X02929Y018873D02*
D03*
X02829D02*
D03*
X02929Y019873D02*
D03*
X02829D02*
D03*
X02929Y020873D02*
D03*
X034015Y014873D02*
D03*
Y013873D02*
D03*
X033015D02*
D03*
Y014873D02*
D03*
X034015Y015873D02*
D03*
X033015D02*
D03*
X034015Y016873D02*
D03*
X033015D02*
D03*
X034015Y017873D02*
D03*
X033015D02*
D03*
X034015Y018873D02*
D03*
X033015D02*
D03*
X034015Y019873D02*
D03*
X033015D02*
D03*
X034015Y020873D02*
D03*
D36*
X01077Y021237D02*
D03*
X02829Y009849D02*
D03*
X008211Y00237D02*
D03*
X014531D02*
D03*
X020781D02*
D03*
X033015Y009849D02*
D03*
X02829Y020873D02*
D03*
X033015D02*
D03*
D37*
X002188Y015953D02*
D03*
X0014D02*
D03*
X000613D02*
D03*
Y014181D02*
D03*
X0014D02*
D03*
D38*
X002188D02*
D03*
D39*
X0068Y003303D02*
D03*
X0058D02*
D03*
X0068Y005303D02*
D03*
X0058D02*
D03*
X01825Y008403D02*
D03*
X01925D02*
D03*
X01825Y015403D02*
D03*
X01925D02*
D03*
D40*
X0048Y003303D02*
D03*
Y005303D02*
D03*
X02025Y008403D02*
D03*
Y015403D02*
D03*
M02*
