G04*
G04 #@! TF.GenerationSoftware,Altium Limited,Altium Designer,21.6.1 (37)*
G04*
G04 Layer_Color=8421504*
%FSTAX24Y24*%
%MOIN*%
G70*
G04*
G04 #@! TF.SameCoordinates,B7BCD236-E72C-41E6-AEDC-B20C2DB60F4C*
G04*
G04*
G04 #@! TF.FilePolarity,Positive*
G04*
G01*
G75*
G04:AMPARAMS|DCode=13|XSize=100mil|YSize=80mil|CornerRadius=20mil|HoleSize=0mil|Usage=FLASHONLY|Rotation=180.000|XOffset=0mil|YOffset=0mil|HoleType=Round|Shape=RoundedRectangle|*
%AMROUNDEDRECTD13*
21,1,0.1000,0.0400,0,0,180.0*
21,1,0.0600,0.0800,0,0,180.0*
1,1,0.0400,-0.0300,0.0200*
1,1,0.0400,0.0300,0.0200*
1,1,0.0400,0.0300,-0.0200*
1,1,0.0400,-0.0300,-0.0200*
%
%ADD13ROUNDEDRECTD13*%
%ADD14R,0.0300X0.0488*%
%ADD15R,0.0591X0.1181*%
%ADD16R,0.0394X0.0276*%
%ADD17R,0.0315X0.0197*%
%ADD18R,0.0591X0.1260*%
%ADD19R,0.0488X0.0300*%
D13*
X0154Y015853D02*
D03*
D14*
X01221Y014721D02*
D03*
X01311D02*
D03*
X01529Y012373D02*
D03*
X01619D02*
D03*
X01915Y014053D02*
D03*
X01825D02*
D03*
X0095Y017353D02*
D03*
X0104D02*
D03*
X00615Y004303D02*
D03*
X00705D02*
D03*
X00615Y006303D02*
D03*
X00705D02*
D03*
X01314Y016683D02*
D03*
X01224D02*
D03*
X01225Y017353D02*
D03*
X01315D02*
D03*
X0095Y016553D02*
D03*
X0104D02*
D03*
X01915Y009853D02*
D03*
X01825D02*
D03*
X00585Y010303D02*
D03*
X00495D02*
D03*
X01529Y011473D02*
D03*
X01619D02*
D03*
X0154Y014853D02*
D03*
X0145D02*
D03*
X01225Y009003D02*
D03*
X01315D02*
D03*
X00495Y008053D02*
D03*
X00585D02*
D03*
X00495Y007178D02*
D03*
X00585D02*
D03*
X02334Y003261D02*
D03*
X02244D02*
D03*
X01709Y00327D02*
D03*
X01619D02*
D03*
X00987D02*
D03*
X01077D02*
D03*
X00495Y011178D02*
D03*
X00585D02*
D03*
X00585Y0142D02*
D03*
X00495D02*
D03*
X00585Y0133D02*
D03*
X00495D02*
D03*
X01155Y009003D02*
D03*
X01065D02*
D03*
X0145Y016853D02*
D03*
X0154D02*
D03*
X00585Y012053D02*
D03*
X00495D02*
D03*
D15*
X00065Y01225D02*
D03*
D16*
X003337Y013165D02*
D03*
Y01225D02*
D03*
X003347Y011344D02*
D03*
D17*
X004748Y009177D02*
D03*
X00585Y008803D02*
D03*
Y009551D02*
D03*
D18*
X006722Y015403D02*
D03*
X00495D02*
D03*
D19*
X02025Y009853D02*
D03*
Y010753D02*
D03*
Y014053D02*
D03*
Y013153D02*
D03*
X022737Y021301D02*
D03*
Y022201D02*
D03*
X0235Y021301D02*
D03*
Y022201D02*
D03*
X01184Y00237D02*
D03*
Y00147D02*
D03*
X01814Y00237D02*
D03*
Y00147D02*
D03*
X02439Y00237D02*
D03*
Y00147D02*
D03*
X01961Y021286D02*
D03*
Y022186D02*
D03*
X016484Y021276D02*
D03*
Y022176D02*
D03*
X013357Y021256D02*
D03*
Y022156D02*
D03*
X02037Y021291D02*
D03*
Y022191D02*
D03*
X01719Y021273D02*
D03*
Y022173D02*
D03*
X01412Y021251D02*
D03*
Y022151D02*
D03*
M02*
