M48
;Layer_Color=9474304
;FILE_FORMAT=2:4
INCH,LZ
;TYPE=PLATED
T2F00S00C0.0236
T3F00S00C0.0236
%
G90
G05
T02
G00X007111Y040932
M15
G01Y039987
M16
G00X009522Y03915
M15
G01X008578
M16
G00X014111Y040932
M15
G01Y039987
M16
G00X016522Y03915
M15
G01X015578
M16
G00X021111Y040932
M15
G01Y039987
M16
G00X023522Y03915
M15
G01X022578
M16
G00X028111Y040932
M15
G01Y039987
M16
G00X030522Y03915
M15
G01X029578
M16
G00X035111Y040932
M15
G01Y039987
M16
G00X037522Y03915
M15
G01X036578
M16
G00X042111Y040932
M15
G01Y039987
M16
G00X044522Y03915
M15
G01X043578
M16
G00X049111Y040932
M15
G01Y039987
M16
G00X051522Y03915
M15
G01X050578
M16
G00X056111Y040932
M15
G01Y039987
M16
G00X058522Y03915
M15
G01X057578
M16
T03
G00X009522Y041522
M15
G01X008578
M16
G00X016522Y041522
M15
G01X015578
M16
G00X023522Y041522
M15
G01X022578
M16
G00X030522Y041522
M15
G01X029578
M16
G00X037522Y041522
M15
G01X036578
M16
G00X044522Y041522
M15
G01X043578
M16
G00X051522Y041522
M15
G01X050578
M16
G00X058522Y041522
M15
G01X057578
M16
M17
M30
