G04*
G04 #@! TF.GenerationSoftware,Altium Limited,Altium Designer,21.6.1 (37)*
G04*
G04 Layer_Color=8388736*
%FSTAX24Y24*%
%MOIN*%
G70*
G04*
G04 #@! TF.SameCoordinates,59C10F7D-216A-4877-8410-82FF31B31C47*
G04*
G04*
G04 #@! TF.FilePolarity,Negative*
G04*
G01*
G75*
%ADD19R,0.0568X0.0380*%
%ADD20R,0.0380X0.0568*%
%ADD21R,0.0680X0.0480*%
%ADD22R,0.0277X0.0395*%
%ADD23O,0.0680X0.0880*%
G04:AMPARAMS|DCode=24|XSize=88mil|YSize=68mil|CornerRadius=19mil|HoleSize=0mil|Usage=FLASHONLY|Rotation=270.000|XOffset=0mil|YOffset=0mil|HoleType=Round|Shape=RoundedRectangle|*
%AMROUNDEDRECTD24*
21,1,0.0880,0.0300,0,0,270.0*
21,1,0.0500,0.0680,0,0,270.0*
1,1,0.0380,-0.0150,-0.0250*
1,1,0.0380,-0.0150,0.0250*
1,1,0.0380,0.0150,0.0250*
1,1,0.0380,0.0150,-0.0250*
%
%ADD24ROUNDEDRECTD24*%
%ADD25C,0.1280*%
G04:AMPARAMS|DCode=26|XSize=165.5mil|YSize=67.1mil|CornerRadius=18.8mil|HoleSize=0mil|Usage=FLASHONLY|Rotation=270.000|XOffset=0mil|YOffset=0mil|HoleType=Round|Shape=RoundedRectangle|*
%AMROUNDEDRECTD26*
21,1,0.1655,0.0295,0,0,270.0*
21,1,0.1280,0.0671,0,0,270.0*
1,1,0.0375,-0.0148,-0.0640*
1,1,0.0375,-0.0148,0.0640*
1,1,0.0375,0.0148,0.0640*
1,1,0.0375,0.0148,-0.0640*
%
%ADD26ROUNDEDRECTD26*%
G04:AMPARAMS|DCode=27|XSize=165.5mil|YSize=67.1mil|CornerRadius=18.8mil|HoleSize=0mil|Usage=FLASHONLY|Rotation=180.000|XOffset=0mil|YOffset=0mil|HoleType=Round|Shape=RoundedRectangle|*
%AMROUNDEDRECTD27*
21,1,0.1655,0.0295,0,0,180.0*
21,1,0.1280,0.0671,0,0,180.0*
1,1,0.0375,-0.0640,0.0148*
1,1,0.0375,0.0640,0.0148*
1,1,0.0375,0.0640,-0.0148*
1,1,0.0375,-0.0640,-0.0148*
%
%ADD27ROUNDEDRECTD27*%
%ADD28O,0.0880X0.0680*%
G04:AMPARAMS|DCode=29|XSize=88mil|YSize=68mil|CornerRadius=19mil|HoleSize=0mil|Usage=FLASHONLY|Rotation=180.000|XOffset=0mil|YOffset=0mil|HoleType=Round|Shape=RoundedRectangle|*
%AMROUNDEDRECTD29*
21,1,0.0880,0.0300,0,0,180.0*
21,1,0.0500,0.0680,0,0,180.0*
1,1,0.0380,-0.0250,0.0150*
1,1,0.0380,0.0250,0.0150*
1,1,0.0380,0.0250,-0.0150*
1,1,0.0380,-0.0250,-0.0150*
%
%ADD29ROUNDEDRECTD29*%
%ADD30C,0.0780*%
%ADD31C,0.0980*%
D19*
X06205Y0336D02*
D03*
Y0327D02*
D03*
Y0307D02*
D03*
Y0316D02*
D03*
X01255Y03765D02*
D03*
Y03675D02*
D03*
X04055Y03765D02*
D03*
Y03675D02*
D03*
X01955Y03765D02*
D03*
Y03675D02*
D03*
X04755Y03765D02*
D03*
Y03675D02*
D03*
X02655Y03765D02*
D03*
Y03675D02*
D03*
X05455Y03765D02*
D03*
Y03675D02*
D03*
X03355Y03765D02*
D03*
Y03675D02*
D03*
X06155Y03765D02*
D03*
Y03675D02*
D03*
D20*
X0086Y03765D02*
D03*
X0095D02*
D03*
X0366D02*
D03*
X0375D02*
D03*
X0086Y02465D02*
D03*
X0095D02*
D03*
X0366D02*
D03*
X0375D02*
D03*
X0156Y03765D02*
D03*
X0165D02*
D03*
X0436D02*
D03*
X0445D02*
D03*
X0156Y02465D02*
D03*
X0165D02*
D03*
X0436D02*
D03*
X0445D02*
D03*
X0226Y03765D02*
D03*
X0235D02*
D03*
X0506D02*
D03*
X0515D02*
D03*
X0226Y02465D02*
D03*
X0235D02*
D03*
X0506D02*
D03*
X0515D02*
D03*
X0296Y03765D02*
D03*
X0305D02*
D03*
X0576D02*
D03*
X0585D02*
D03*
X0296Y02465D02*
D03*
X0305D02*
D03*
X0576D02*
D03*
X0585D02*
D03*
X0086Y03665D02*
D03*
X0095D02*
D03*
X0366D02*
D03*
X0375D02*
D03*
X0086Y02565D02*
D03*
X0095D02*
D03*
X0366D02*
D03*
X0375D02*
D03*
X0156Y03665D02*
D03*
X0165D02*
D03*
X0436D02*
D03*
X0445D02*
D03*
X0156Y02565D02*
D03*
X0165D02*
D03*
X0436D02*
D03*
X0445D02*
D03*
X0226Y03665D02*
D03*
X0235D02*
D03*
X0506D02*
D03*
X0515D02*
D03*
X0226Y02565D02*
D03*
X0235D02*
D03*
X0506D02*
D03*
X0515D02*
D03*
X0296Y03665D02*
D03*
X0305D02*
D03*
X0576D02*
D03*
X0585D02*
D03*
X0296Y02565D02*
D03*
X0305D02*
D03*
X0576D02*
D03*
X0585D02*
D03*
D21*
X0103Y03765D02*
D03*
Y036233D02*
D03*
X0383Y03765D02*
D03*
Y036233D02*
D03*
X0173Y03765D02*
D03*
Y036233D02*
D03*
X0453Y03765D02*
D03*
Y036233D02*
D03*
X0243Y03765D02*
D03*
Y036233D02*
D03*
X0523Y03765D02*
D03*
Y036233D02*
D03*
X0313Y03765D02*
D03*
Y036233D02*
D03*
X0593Y03765D02*
D03*
Y036233D02*
D03*
D22*
X011038Y03765D02*
D03*
X011786D02*
D03*
X011412Y03665D02*
D03*
X039038Y03765D02*
D03*
X039786D02*
D03*
X039412Y03665D02*
D03*
X018038Y03765D02*
D03*
X018786D02*
D03*
X018412Y03665D02*
D03*
X046038Y03765D02*
D03*
X046786D02*
D03*
X046412Y03665D02*
D03*
X025038Y03765D02*
D03*
X025786D02*
D03*
X025412Y03665D02*
D03*
X053038Y03765D02*
D03*
X053786D02*
D03*
X053412Y03665D02*
D03*
X032038Y03765D02*
D03*
X032786D02*
D03*
X032412Y03665D02*
D03*
X060038Y03765D02*
D03*
X060786D02*
D03*
X060412Y03665D02*
D03*
D23*
X01005Y02665D02*
D03*
X00905D02*
D03*
X03805D02*
D03*
X03705D02*
D03*
X01705D02*
D03*
X01605D02*
D03*
X04505D02*
D03*
X04405D02*
D03*
X02405D02*
D03*
X02305D02*
D03*
X05205D02*
D03*
X05105D02*
D03*
X03105D02*
D03*
X03005D02*
D03*
X05905D02*
D03*
X05805D02*
D03*
D24*
X00805D02*
D03*
X03605D02*
D03*
X01505D02*
D03*
X04305D02*
D03*
X02205D02*
D03*
X05005D02*
D03*
X02905D02*
D03*
X05705D02*
D03*
D25*
X008066Y02215D02*
D03*
X010034D02*
D03*
X036066D02*
D03*
X038034D02*
D03*
X015066D02*
D03*
X017034D02*
D03*
X043066D02*
D03*
X045034D02*
D03*
X022066D02*
D03*
X024034D02*
D03*
X050066D02*
D03*
X052034D02*
D03*
X029066D02*
D03*
X031034D02*
D03*
X057066D02*
D03*
X059034D02*
D03*
D26*
X007111Y040459D02*
D03*
X035111D02*
D03*
X014111D02*
D03*
X042111D02*
D03*
X021111D02*
D03*
X049111D02*
D03*
X028111D02*
D03*
X056111D02*
D03*
D27*
X00905Y03915D02*
D03*
Y041522D02*
D03*
X03705Y03915D02*
D03*
Y041522D02*
D03*
X01605Y03915D02*
D03*
Y041522D02*
D03*
X04405D02*
D03*
Y03915D02*
D03*
X02305D02*
D03*
Y041522D02*
D03*
X05105Y03915D02*
D03*
Y041522D02*
D03*
X03005Y03915D02*
D03*
Y041522D02*
D03*
X05805Y03915D02*
D03*
Y041522D02*
D03*
D28*
X01255Y04215D02*
D03*
Y04315D02*
D03*
X04055Y04215D02*
D03*
Y04315D02*
D03*
X01955Y04215D02*
D03*
Y04315D02*
D03*
X04755Y04215D02*
D03*
Y04315D02*
D03*
X02655Y04215D02*
D03*
Y04315D02*
D03*
X05455Y04215D02*
D03*
Y04315D02*
D03*
X03355Y04215D02*
D03*
Y04315D02*
D03*
X06155Y02215D02*
D03*
Y02315D02*
D03*
Y02415D02*
D03*
Y03915D02*
D03*
Y04015D02*
D03*
Y04115D02*
D03*
D29*
X01255Y04415D02*
D03*
X04055D02*
D03*
X01955D02*
D03*
X04755D02*
D03*
X02655D02*
D03*
X05455D02*
D03*
X03355D02*
D03*
X06155Y02515D02*
D03*
Y04215D02*
D03*
D30*
X011412Y034363D02*
D03*
X006688D02*
D03*
X039412D02*
D03*
X034688D02*
D03*
X018412D02*
D03*
X013688D02*
D03*
X046412D02*
D03*
X041688D02*
D03*
X025412D02*
D03*
X020688D02*
D03*
X053412D02*
D03*
X048688D02*
D03*
X032412D02*
D03*
X027688D02*
D03*
X060412D02*
D03*
X055688D02*
D03*
D31*
X00905Y03515D02*
D03*
X006688Y029559D02*
D03*
X011412D02*
D03*
X03705Y03515D02*
D03*
X034688Y029559D02*
D03*
X039412D02*
D03*
X01605Y03515D02*
D03*
X013688Y029559D02*
D03*
X018412D02*
D03*
X04405Y03515D02*
D03*
X041688Y029559D02*
D03*
X046412D02*
D03*
X02305Y03515D02*
D03*
X020688Y029559D02*
D03*
X025412D02*
D03*
X05105Y03515D02*
D03*
X048688Y029559D02*
D03*
X053412D02*
D03*
X03005Y03515D02*
D03*
X027688Y029559D02*
D03*
X032412D02*
D03*
X05805Y03515D02*
D03*
X055688Y029559D02*
D03*
X060412D02*
D03*
M02*
