G04*
G04 #@! TF.GenerationSoftware,Altium Limited,Altium Designer,21.6.1 (37)*
G04*
G04 Layer_Color=32896*
%FSTAX24Y24*%
%MOIN*%
G70*
G04*
G04 #@! TF.SameCoordinates,59C10F7D-216A-4877-8410-82FF31B31C47*
G04*
G04*
G04 #@! TF.FilePolarity,Positive*
G04*
G01*
G75*
%ADD10C,0.0100*%
%ADD11C,0.0150*%
D10*
X05305Y026115D02*
Y026785D01*
X05445D01*
X05305Y026115D02*
X05445D01*
Y026785D01*
X0547Y026115D02*
Y026785D01*
X0561D01*
X0547Y026115D02*
X0561D01*
Y026785D01*
X057762Y03031D02*
X058332D01*
Y030185D02*
Y03031D01*
X057762Y03012D02*
Y03031D01*
X056567Y03012D02*
Y03418D01*
X059537D01*
Y03012D02*
Y03418D01*
X056567Y03012D02*
X059537D01*
X053176Y021712D02*
X055735D01*
Y024902D01*
X053176D02*
X055735D01*
X053176Y021712D02*
Y024902D01*
X053875Y0273D02*
X05395Y027375D01*
X0541D01*
X054175Y0273D01*
Y027D01*
X0541Y026925D01*
X05395D01*
X053875Y027D01*
X053725Y027375D02*
X053425D01*
Y0273D01*
X053725Y027D01*
Y026925D01*
X055625Y0273D02*
X0557Y027375D01*
X05585D01*
X055925Y0273D01*
Y027D01*
X05585Y026925D01*
X0557D01*
X055625Y027D01*
X055475Y0273D02*
X0554Y027375D01*
X05525D01*
X055175Y0273D01*
Y027225D01*
X05525Y02715D01*
X055175Y027075D01*
Y027D01*
X05525Y026925D01*
X0554D01*
X055475Y027D01*
Y027075D01*
X0554Y02715D01*
X055475Y027225D01*
Y0273D01*
X0554Y02715D02*
X05525D01*
X055825Y032525D02*
X0562D01*
X056275Y03245D01*
Y0323D01*
X0562Y032225D01*
X055825D01*
X056275Y031775D02*
Y032075D01*
X055975Y031775D01*
X0559D01*
X055825Y03185D01*
Y032D01*
X0559Y032075D01*
X053968Y020915D02*
X053668D01*
Y02114D01*
X053818Y021065D01*
X053893D01*
X053968Y02114D01*
Y02129D01*
X053893Y021365D01*
X053743D01*
X053668Y02129D01*
X054118Y021365D02*
Y02129D01*
X054193D01*
Y021365D01*
X054118D01*
X054493Y02099D02*
X054568Y020915D01*
X054718D01*
X054793Y02099D01*
Y02129D01*
X054718Y021365D01*
X054568D01*
X054493Y02129D01*
Y02099D01*
X054943Y020915D02*
Y021215D01*
X055093Y021365D01*
X055243Y021215D01*
Y020915D01*
D11*
X03865Y033359D02*
Y033759D01*
X03845Y033959D01*
X03825Y033759D01*
Y033359D01*
Y033659D01*
X03865D01*
X03805Y033759D02*
Y033459D01*
X03795Y033359D01*
X03765D01*
Y033759D01*
X03735Y033859D02*
Y033759D01*
X03745D01*
X03725D01*
X03735D01*
Y033459D01*
X03725Y033359D01*
X036951Y033959D02*
Y033359D01*
Y033659D01*
X036851Y033759D01*
X036651D01*
X036551Y033659D01*
Y033359D01*
X036251D02*
X036051D01*
X035951Y033459D01*
Y033659D01*
X036051Y033759D01*
X036251D01*
X036351Y033659D01*
Y033459D01*
X036251Y033359D01*
X035751Y033759D02*
Y033359D01*
Y033559D01*
X035651Y033659D01*
X035551Y033759D01*
X035451D01*
X035151D02*
X035051D01*
Y033659D01*
X035151D01*
Y033759D01*
Y033459D02*
X035051D01*
Y033359D01*
X035151D01*
Y033459D01*
X034051Y033959D02*
Y033359D01*
X033652D01*
X033352Y033759D02*
X033152D01*
X033052Y033659D01*
Y033359D01*
X033352D01*
X033452Y033459D01*
X033352Y033559D01*
X033052D01*
X032852Y033159D02*
Y033759D01*
X032552D01*
X032452Y033659D01*
Y033459D01*
X032552Y033359D01*
X032852D01*
X032252D02*
Y033959D01*
X031952D01*
X031852Y033859D01*
Y033659D01*
X031952Y033559D01*
X032252D01*
X031652Y033959D02*
Y033559D01*
X031452Y033359D01*
X031252Y033559D01*
Y033959D01*
X03865Y03268D02*
Y03208D01*
X03835D01*
X03825Y03218D01*
Y03258D01*
X03835Y03268D01*
X03865D01*
X03795Y03248D02*
X03775D01*
X03765Y03238D01*
Y03208D01*
X03795D01*
X03805Y03218D01*
X03795Y03228D01*
X03765D01*
X03735Y03258D02*
Y03248D01*
X03745D01*
X03725D01*
X03735D01*
Y03218D01*
X03725Y03208D01*
X036651D02*
X036851D01*
X036951Y03218D01*
Y03238D01*
X036851Y03248D01*
X036651D01*
X036551Y03238D01*
Y03228D01*
X036951D01*
X036351Y03248D02*
X036251D01*
Y03238D01*
X036351D01*
Y03248D01*
Y03218D02*
X036251D01*
Y03208D01*
X036351D01*
Y03218D01*
X034851Y03208D02*
X035251D01*
X034851Y03248D01*
Y03258D01*
X034951Y03268D01*
X035151D01*
X035251Y03258D01*
X034351Y03208D02*
Y03268D01*
X034651Y03238D01*
X034251D01*
X034051Y03208D02*
X033652Y03248D01*
X033452Y03258D02*
X033352Y03268D01*
X033152D01*
X033052Y03258D01*
Y03218D01*
X033152Y03208D01*
X033352D01*
X033452Y03218D01*
Y03258D01*
X032452Y03268D02*
X032852D01*
Y03238D01*
X032652Y03248D01*
X032552D01*
X032452Y03238D01*
Y03218D01*
X032552Y03208D01*
X032752D01*
X032852Y03218D01*
X032252Y03208D02*
X031852Y03248D01*
X031252Y03208D02*
X031652D01*
X031252Y03248D01*
Y03258D01*
X031352Y03268D01*
X031552D01*
X031652Y03258D01*
X031052D02*
X030952Y03268D01*
X030753D01*
X030653Y03258D01*
Y03218D01*
X030753Y03208D01*
X030952D01*
X031052Y03218D01*
Y03258D01*
X030053Y03208D02*
X030453D01*
X030053Y03248D01*
Y03258D01*
X030153Y03268D01*
X030353D01*
X030453Y03258D01*
X029453Y03208D02*
X029853D01*
X029453Y03248D01*
Y03258D01*
X029553Y03268D01*
X029753D01*
X029853Y03258D01*
X03825Y0315D02*
X03835Y0316D01*
X03855D01*
X03865Y0315D01*
Y0311D01*
X03855Y031D01*
X03835D01*
X03825Y0311D01*
X03795Y031D02*
X03775D01*
X03765Y0311D01*
Y0313D01*
X03775Y0314D01*
X03795D01*
X03805Y0313D01*
Y0311D01*
X03795Y031D01*
X03745Y0308D02*
Y0314D01*
X03715D01*
X037051Y0313D01*
Y0311D01*
X03715Y031D01*
X03745D01*
X036851Y0314D02*
Y0311D01*
X036751Y031D01*
X036451D01*
Y0309D01*
X036551Y0308D01*
X036651D01*
X036451Y031D02*
Y0314D01*
X036251D02*
Y031D01*
Y0312D01*
X036151Y0313D01*
X036051Y0314D01*
X035951D01*
X035651Y031D02*
X035451D01*
X035551D01*
Y0314D01*
X035651D01*
X034951Y0308D02*
X034851D01*
X034751Y0309D01*
Y0314D01*
X035051D01*
X035151Y0313D01*
Y0311D01*
X035051Y031D01*
X034751D01*
X034551Y0316D02*
Y031D01*
Y0313D01*
X034451Y0314D01*
X034251D01*
X034151Y0313D01*
Y031D01*
X033852Y0315D02*
Y0314D01*
X033952D01*
X033752D01*
X033852D01*
Y0311D01*
X033752Y031D01*
X032852Y0316D02*
Y031D01*
X032552D01*
X032452Y0311D01*
Y0312D01*
Y0313D01*
X032552Y0314D01*
X032852D01*
X032252D02*
Y0311D01*
X032152Y031D01*
X031852D01*
Y0309D01*
X031952Y0308D01*
X032052D01*
X031852Y031D02*
Y0314D01*
X030653Y0316D02*
X031052D01*
Y0313D01*
X030853D01*
X031052D01*
Y031D01*
X030453D02*
Y0316D01*
X030153D01*
X030053Y0315D01*
Y0313D01*
X030153Y0312D01*
X030453D01*
X029853Y0316D02*
X029453D01*
X029653D01*
Y031D01*
X029253D02*
Y0311D01*
X029153D01*
Y031D01*
X029253D01*
X028353Y0315D02*
X028453Y0316D01*
X028653D01*
X028753Y0315D01*
Y0311D01*
X028653Y031D01*
X028453D01*
X028353Y0311D01*
Y0313D01*
X028553D01*
X028153Y031D02*
Y0314D01*
X027953Y0316D01*
X027754Y0314D01*
Y031D01*
Y0313D01*
X028153D01*
X027554Y031D02*
Y0316D01*
X027354Y0314D01*
X027154Y0316D01*
Y031D01*
X026954D02*
Y0311D01*
X026854D01*
Y031D01*
X026954D01*
X026454Y0316D02*
Y031D01*
X026154D01*
X026054Y0311D01*
Y0315D01*
X026154Y0316D01*
X026454D01*
X025854Y031D02*
Y0314D01*
X025654Y0316D01*
X025454Y0314D01*
Y031D01*
Y0313D01*
X025854D01*
X025254Y031D02*
Y0316D01*
X024954D01*
X024854Y0315D01*
Y0313D01*
X024954Y0312D01*
X025254D01*
M02*
