G04*
G04 #@! TF.GenerationSoftware,Altium Limited,Altium Designer,21.6.1 (37)*
G04*
G04 Layer_Color=2752767*
%FSTAX24Y24*%
%MOIN*%
G70*
G04*
G04 #@! TF.SameCoordinates,59C10F7D-216A-4877-8410-82FF31B31C47*
G04*
G04*
G04 #@! TF.FilePolarity,Positive*
G04*
G01*
G75*
%ADD50C,0.0020*%
%ADD51C,0.0027*%
D50*
X00997Y02657D02*
Y02673D01*
X01013D01*
Y02657D01*
X00997D01*
X00897D02*
Y02673D01*
X00913D01*
Y02657D01*
X00897D01*
X00797D02*
Y02673D01*
X00813D01*
Y02657D01*
X00797D01*
X03797D02*
Y02673D01*
X03813D01*
Y02657D01*
X03797D01*
X03697D02*
Y02673D01*
X03713D01*
Y02657D01*
X03697D01*
X03597D02*
Y02673D01*
X03613D01*
Y02657D01*
X03597D01*
X007111Y040379D02*
X007031Y040539D01*
X007191D01*
X007111Y040379D01*
X00905Y03907D02*
X00897Y03923D01*
X00913D01*
X00905Y03907D01*
Y041442D02*
X00897Y041602D01*
X00913D01*
X00905Y041442D01*
X035111Y040379D02*
X035031Y040539D01*
X035191D01*
X035111Y040379D01*
X03705Y03907D02*
X03697Y03923D01*
X03713D01*
X03705Y03907D01*
Y041442D02*
X03697Y041602D01*
X03713D01*
X03705Y041442D01*
X01247Y04207D02*
Y04223D01*
X01263D01*
Y04207D01*
X01247D01*
Y04307D02*
Y04323D01*
X01263D01*
Y04307D01*
X01247D01*
Y04407D02*
Y04423D01*
X01263D01*
Y04407D01*
X01247D01*
X04047Y04207D02*
Y04223D01*
X04063D01*
Y04207D01*
X04047D01*
Y04307D02*
Y04323D01*
X04063D01*
Y04307D01*
X04047D01*
Y04407D02*
Y04423D01*
X04063D01*
Y04407D01*
X04047D01*
X01697Y02657D02*
Y02673D01*
X01713D01*
Y02657D01*
X01697D01*
X01597D02*
Y02673D01*
X01613D01*
Y02657D01*
X01597D01*
X01497D02*
Y02673D01*
X01513D01*
Y02657D01*
X01497D01*
X04497D02*
Y02673D01*
X04513D01*
Y02657D01*
X04497D01*
X04397D02*
Y02673D01*
X04413D01*
Y02657D01*
X04397D01*
X04297D02*
Y02673D01*
X04313D01*
Y02657D01*
X04297D01*
X014111Y040379D02*
X014031Y040539D01*
X014191D01*
X014111Y040379D01*
X01605Y03907D02*
X01597Y03923D01*
X01613D01*
X01605Y03907D01*
Y041442D02*
X01597Y041602D01*
X01613D01*
X01605Y041442D01*
X04405D02*
X04397Y041602D01*
X04413D01*
X04405Y041442D01*
Y03907D02*
X04397Y03923D01*
X04413D01*
X04405Y03907D01*
X042111Y040379D02*
X042031Y040539D01*
X042191D01*
X042111Y040379D01*
X01947Y04207D02*
Y04223D01*
X01963D01*
Y04207D01*
X01947D01*
Y04307D02*
Y04323D01*
X01963D01*
Y04307D01*
X01947D01*
Y04407D02*
Y04423D01*
X01963D01*
Y04407D01*
X01947D01*
X04747Y04207D02*
Y04223D01*
X04763D01*
Y04207D01*
X04747D01*
Y04307D02*
Y04323D01*
X04763D01*
Y04307D01*
X04747D01*
Y04407D02*
Y04423D01*
X04763D01*
Y04407D01*
X04747D01*
X02397Y02657D02*
Y02673D01*
X02413D01*
Y02657D01*
X02397D01*
X02297D02*
Y02673D01*
X02313D01*
Y02657D01*
X02297D01*
X02197D02*
Y02673D01*
X02213D01*
Y02657D01*
X02197D01*
X05197D02*
Y02673D01*
X05213D01*
Y02657D01*
X05197D01*
X05097D02*
Y02673D01*
X05113D01*
Y02657D01*
X05097D01*
X04997D02*
Y02673D01*
X05013D01*
Y02657D01*
X04997D01*
X021111Y040379D02*
X021031Y040539D01*
X021191D01*
X021111Y040379D01*
X02305Y03907D02*
X02297Y03923D01*
X02313D01*
X02305Y03907D01*
Y041442D02*
X02297Y041602D01*
X02313D01*
X02305Y041442D01*
X049111Y040379D02*
X049031Y040539D01*
X049191D01*
X049111Y040379D01*
X05105Y03907D02*
X05097Y03923D01*
X05113D01*
X05105Y03907D01*
Y041442D02*
X05097Y041602D01*
X05113D01*
X05105Y041442D01*
X02647Y04207D02*
Y04223D01*
X02663D01*
Y04207D01*
X02647D01*
Y04307D02*
Y04323D01*
X02663D01*
Y04307D01*
X02647D01*
Y04407D02*
Y04423D01*
X02663D01*
Y04407D01*
X02647D01*
X05447Y04207D02*
Y04223D01*
X05463D01*
Y04207D01*
X05447D01*
Y04307D02*
Y04323D01*
X05463D01*
Y04307D01*
X05447D01*
Y04407D02*
Y04423D01*
X05463D01*
Y04407D01*
X05447D01*
X03097Y02657D02*
Y02673D01*
X03113D01*
Y02657D01*
X03097D01*
X02997D02*
Y02673D01*
X03013D01*
Y02657D01*
X02997D01*
X02897D02*
Y02673D01*
X02913D01*
Y02657D01*
X02897D01*
X05897D02*
Y02673D01*
X05913D01*
Y02657D01*
X05897D01*
X05797D02*
Y02673D01*
X05813D01*
Y02657D01*
X05797D01*
X05697D02*
Y02673D01*
X05713D01*
Y02657D01*
X05697D01*
X028111Y040379D02*
X028031Y040539D01*
X028191D01*
X028111Y040379D01*
X03005Y03907D02*
X02997Y03923D01*
X03013D01*
X03005Y03907D01*
Y041442D02*
X02997Y041602D01*
X03013D01*
X03005Y041442D01*
X056111Y040379D02*
X056031Y040539D01*
X056191D01*
X056111Y040379D01*
X05805Y03907D02*
X05797Y03923D01*
X05813D01*
X05805Y03907D01*
Y041442D02*
X05797Y041602D01*
X05813D01*
X05805Y041442D01*
X03347Y04207D02*
Y04223D01*
X03363D01*
Y04207D01*
X03347D01*
Y04307D02*
Y04323D01*
X03363D01*
Y04307D01*
X03347D01*
Y04407D02*
Y04423D01*
X03363D01*
Y04407D01*
X03347D01*
X011332Y034283D02*
Y034443D01*
X011492D01*
Y034283D01*
X011332D01*
X00905Y03507D02*
X00909Y03511D01*
X00913D01*
X00909Y03515D01*
X00913Y03519D01*
X00909D01*
X00905Y03523D01*
X00901Y03519D01*
X00897D01*
X00901Y03515D01*
X00897Y03511D01*
X00901D01*
X00905Y03507D01*
X006608Y034283D02*
Y034443D01*
X006768D01*
Y034283D01*
X006608D01*
X006688Y029479D02*
X006728Y029519D01*
X006768D01*
X006728Y029559D01*
X006768Y029599D01*
X006728D01*
X006688Y029639D01*
X006648Y029599D01*
X006608D01*
X006648Y029559D01*
X006608Y029519D01*
X006648D01*
X006688Y029479D01*
X011412D02*
X011452Y029519D01*
X011492D01*
X011452Y029559D01*
X011492Y029599D01*
X011452D01*
X011412Y029639D01*
X011372Y029599D01*
X011332D01*
X011372Y029559D01*
X011332Y029519D01*
X011372D01*
X011412Y029479D01*
X039332Y034283D02*
Y034443D01*
X039492D01*
Y034283D01*
X039332D01*
X03705Y03507D02*
X03709Y03511D01*
X03713D01*
X03709Y03515D01*
X03713Y03519D01*
X03709D01*
X03705Y03523D01*
X03701Y03519D01*
X03697D01*
X03701Y03515D01*
X03697Y03511D01*
X03701D01*
X03705Y03507D01*
X034608Y034283D02*
Y034443D01*
X034768D01*
Y034283D01*
X034608D01*
X034688Y029479D02*
X034728Y029519D01*
X034768D01*
X034728Y029559D01*
X034768Y029599D01*
X034728D01*
X034688Y029639D01*
X034648Y029599D01*
X034608D01*
X034648Y029559D01*
X034608Y029519D01*
X034648D01*
X034688Y029479D01*
X039412D02*
X039452Y029519D01*
X039492D01*
X039452Y029559D01*
X039492Y029599D01*
X039452D01*
X039412Y029639D01*
X039372Y029599D01*
X039332D01*
X039372Y029559D01*
X039332Y029519D01*
X039372D01*
X039412Y029479D01*
X018332Y034283D02*
Y034443D01*
X018492D01*
Y034283D01*
X018332D01*
X01605Y03507D02*
X01609Y03511D01*
X01613D01*
X01609Y03515D01*
X01613Y03519D01*
X01609D01*
X01605Y03523D01*
X01601Y03519D01*
X01597D01*
X01601Y03515D01*
X01597Y03511D01*
X01601D01*
X01605Y03507D01*
X013608Y034283D02*
Y034443D01*
X013768D01*
Y034283D01*
X013608D01*
X013688Y029479D02*
X013728Y029519D01*
X013768D01*
X013728Y029559D01*
X013768Y029599D01*
X013728D01*
X013688Y029639D01*
X013648Y029599D01*
X013608D01*
X013648Y029559D01*
X013608Y029519D01*
X013648D01*
X013688Y029479D01*
X018412D02*
X018452Y029519D01*
X018492D01*
X018452Y029559D01*
X018492Y029599D01*
X018452D01*
X018412Y029639D01*
X018372Y029599D01*
X018332D01*
X018372Y029559D01*
X018332Y029519D01*
X018372D01*
X018412Y029479D01*
X046332Y034283D02*
Y034443D01*
X046492D01*
Y034283D01*
X046332D01*
X04405Y03507D02*
X04409Y03511D01*
X04413D01*
X04409Y03515D01*
X04413Y03519D01*
X04409D01*
X04405Y03523D01*
X04401Y03519D01*
X04397D01*
X04401Y03515D01*
X04397Y03511D01*
X04401D01*
X04405Y03507D01*
X041608Y034283D02*
Y034443D01*
X041768D01*
Y034283D01*
X041608D01*
X041688Y029479D02*
X041728Y029519D01*
X041768D01*
X041728Y029559D01*
X041768Y029599D01*
X041728D01*
X041688Y029639D01*
X041648Y029599D01*
X041608D01*
X041648Y029559D01*
X041608Y029519D01*
X041648D01*
X041688Y029479D01*
X046412D02*
X046452Y029519D01*
X046492D01*
X046452Y029559D01*
X046492Y029599D01*
X046452D01*
X046412Y029639D01*
X046372Y029599D01*
X046332D01*
X046372Y029559D01*
X046332Y029519D01*
X046372D01*
X046412Y029479D01*
X025332Y034283D02*
Y034443D01*
X025492D01*
Y034283D01*
X025332D01*
X02305Y03507D02*
X02309Y03511D01*
X02313D01*
X02309Y03515D01*
X02313Y03519D01*
X02309D01*
X02305Y03523D01*
X02301Y03519D01*
X02297D01*
X02301Y03515D01*
X02297Y03511D01*
X02301D01*
X02305Y03507D01*
X020608Y034283D02*
Y034443D01*
X020768D01*
Y034283D01*
X020608D01*
X020688Y029479D02*
X020728Y029519D01*
X020768D01*
X020728Y029559D01*
X020768Y029599D01*
X020728D01*
X020688Y029639D01*
X020648Y029599D01*
X020608D01*
X020648Y029559D01*
X020608Y029519D01*
X020648D01*
X020688Y029479D01*
X025412D02*
X025452Y029519D01*
X025492D01*
X025452Y029559D01*
X025492Y029599D01*
X025452D01*
X025412Y029639D01*
X025372Y029599D01*
X025332D01*
X025372Y029559D01*
X025332Y029519D01*
X025372D01*
X025412Y029479D01*
X053332Y034283D02*
Y034443D01*
X053492D01*
Y034283D01*
X053332D01*
X05105Y03507D02*
X05109Y03511D01*
X05113D01*
X05109Y03515D01*
X05113Y03519D01*
X05109D01*
X05105Y03523D01*
X05101Y03519D01*
X05097D01*
X05101Y03515D01*
X05097Y03511D01*
X05101D01*
X05105Y03507D01*
X048608Y034283D02*
Y034443D01*
X048768D01*
Y034283D01*
X048608D01*
X048688Y029479D02*
X048728Y029519D01*
X048768D01*
X048728Y029559D01*
X048768Y029599D01*
X048728D01*
X048688Y029639D01*
X048648Y029599D01*
X048608D01*
X048648Y029559D01*
X048608Y029519D01*
X048648D01*
X048688Y029479D01*
X053412D02*
X053452Y029519D01*
X053492D01*
X053452Y029559D01*
X053492Y029599D01*
X053452D01*
X053412Y029639D01*
X053372Y029599D01*
X053332D01*
X053372Y029559D01*
X053332Y029519D01*
X053372D01*
X053412Y029479D01*
X032332Y034283D02*
Y034443D01*
X032492D01*
Y034283D01*
X032332D01*
X03005Y03507D02*
X03009Y03511D01*
X03013D01*
X03009Y03515D01*
X03013Y03519D01*
X03009D01*
X03005Y03523D01*
X03001Y03519D01*
X02997D01*
X03001Y03515D01*
X02997Y03511D01*
X03001D01*
X03005Y03507D01*
X027608Y034283D02*
Y034443D01*
X027768D01*
Y034283D01*
X027608D01*
X027688Y029479D02*
X027728Y029519D01*
X027768D01*
X027728Y029559D01*
X027768Y029599D01*
X027728D01*
X027688Y029639D01*
X027648Y029599D01*
X027608D01*
X027648Y029559D01*
X027608Y029519D01*
X027648D01*
X027688Y029479D01*
X032412D02*
X032452Y029519D01*
X032492D01*
X032452Y029559D01*
X032492Y029599D01*
X032452D01*
X032412Y029639D01*
X032372Y029599D01*
X032332D01*
X032372Y029559D01*
X032332Y029519D01*
X032372D01*
X032412Y029479D01*
X060332Y034283D02*
Y034443D01*
X060492D01*
Y034283D01*
X060332D01*
X05805Y03507D02*
X05809Y03511D01*
X05813D01*
X05809Y03515D01*
X05813Y03519D01*
X05809D01*
X05805Y03523D01*
X05801Y03519D01*
X05797D01*
X05801Y03515D01*
X05797Y03511D01*
X05801D01*
X05805Y03507D01*
X055608Y034283D02*
Y034443D01*
X055768D01*
Y034283D01*
X055608D01*
X055688Y029479D02*
X055728Y029519D01*
X055768D01*
X055728Y029559D01*
X055768Y029599D01*
X055728D01*
X055688Y029639D01*
X055648Y029599D01*
X055608D01*
X055648Y029559D01*
X055608Y029519D01*
X055648D01*
X055688Y029479D01*
X060412D02*
X060452Y029519D01*
X060492D01*
X060452Y029559D01*
X060492Y029599D01*
X060452D01*
X060412Y029639D01*
X060372Y029599D01*
X060332D01*
X060372Y029559D01*
X060332Y029519D01*
X060372D01*
X060412Y029479D01*
X06147Y02207D02*
Y02223D01*
X06163D01*
Y02207D01*
X06147D01*
Y02307D02*
Y02323D01*
X06163D01*
Y02307D01*
X06147D01*
Y02407D02*
Y02423D01*
X06163D01*
Y02407D01*
X06147D01*
Y02507D02*
Y02523D01*
X06163D01*
Y02507D01*
X06147D01*
Y03907D02*
Y03923D01*
X06163D01*
Y03907D01*
X06147D01*
Y04007D02*
Y04023D01*
X06163D01*
Y04007D01*
X06147D01*
Y04107D02*
Y04123D01*
X06163D01*
Y04107D01*
X06147D01*
Y04207D02*
Y04223D01*
X06163D01*
Y04207D01*
X06147D01*
X05437Y02342D02*
X05441Y0235D01*
X05437Y02358D01*
X05445Y02354D01*
X05453Y02358D01*
X05449Y0235D01*
X05453Y02342D01*
X05445Y02346D01*
X05437Y02342D01*
X05447Y02982D02*
X05451Y0299D01*
X05447Y02998D01*
X05455Y02994D01*
X05463Y02998D01*
X05459Y0299D01*
X05463Y02982D01*
X05455Y02986D01*
X05447Y02982D01*
X05247Y02457D02*
X05251Y02465D01*
X05247Y02473D01*
X05255Y02469D01*
X05263Y02473D01*
X05259Y02465D01*
X05263Y02457D01*
X05255Y02461D01*
X05247Y02457D01*
X05447Y03582D02*
X05451Y0359D01*
X05447Y03598D01*
X05455Y03594D01*
X05463Y03598D01*
X05459Y0359D01*
X05463Y03582D01*
X05455Y03586D01*
X05447Y03582D01*
X04747D02*
X04751Y0359D01*
X04747Y03598D01*
X04755Y03594D01*
X04763Y03598D01*
X04759Y0359D01*
X04763Y03582D01*
X04755Y03586D01*
X04747Y03582D01*
X04047D02*
X04051Y0359D01*
X04047Y03598D01*
X04055Y03594D01*
X04063Y03598D01*
X04059Y0359D01*
X04063Y03582D01*
X04055Y03586D01*
X04047Y03582D01*
X02647D02*
X02651Y0359D01*
X02647Y03598D01*
X02655Y03594D01*
X02663Y03598D01*
X02659Y0359D01*
X02663Y03582D01*
X02655Y03586D01*
X02647Y03582D01*
X01947D02*
X01951Y0359D01*
X01947Y03598D01*
X01955Y03594D01*
X01963Y03598D01*
X01959Y0359D01*
X01963Y03582D01*
X01955Y03586D01*
X01947Y03582D01*
X01247D02*
X01251Y0359D01*
X01247Y03598D01*
X01255Y03594D01*
X01263Y03598D01*
X01259Y0359D01*
X01263Y03582D01*
X01255Y03586D01*
X01247Y03582D01*
X03347D02*
X03351Y0359D01*
X03347Y03598D01*
X03355Y03594D01*
X03363Y03598D01*
X03359Y0359D01*
X03363Y03582D01*
X03355Y03586D01*
X03347Y03582D01*
X05747Y03332D02*
X05751Y0334D01*
X05747Y03348D01*
X05755Y03344D01*
X05763Y03348D01*
X05759Y0334D01*
X05763Y03332D01*
X05755Y03336D01*
X05747Y03332D01*
X06072Y03232D02*
X06076Y0324D01*
X06072Y03248D01*
X0608Y03244D01*
X06088Y03248D01*
X06084Y0324D01*
X06088Y03232D01*
X0608Y03236D01*
X06072Y03232D01*
Y03282D02*
X06076Y0329D01*
X06072Y03298D01*
X0608Y03294D01*
X06088Y03298D01*
X06084Y0329D01*
X06088Y03282D01*
X0608Y03286D01*
X06072Y03282D01*
X05996Y03331D02*
X06Y03339D01*
X05996Y03347D01*
X06004Y03343D01*
X06012Y03347D01*
X06008Y03339D01*
X06012Y03331D01*
X06004Y03335D01*
X05996Y03331D01*
D51*
X008146Y02215D02*
G03*
X008146Y02215I-00008J0D01*
G01*
X010114D02*
G03*
X010114Y02215I-00008J0D01*
G01*
X036146D02*
G03*
X036146Y02215I-00008J0D01*
G01*
X038114D02*
G03*
X038114Y02215I-00008J0D01*
G01*
X015146D02*
G03*
X015146Y02215I-00008J0D01*
G01*
X017114D02*
G03*
X017114Y02215I-00008J0D01*
G01*
X043146D02*
G03*
X043146Y02215I-00008J0D01*
G01*
X045114D02*
G03*
X045114Y02215I-00008J0D01*
G01*
X022146D02*
G03*
X022146Y02215I-00008J0D01*
G01*
X024114D02*
G03*
X024114Y02215I-00008J0D01*
G01*
X050146D02*
G03*
X050146Y02215I-00008J0D01*
G01*
X052114D02*
G03*
X052114Y02215I-00008J0D01*
G01*
X029146D02*
G03*
X029146Y02215I-00008J0D01*
G01*
X031114D02*
G03*
X031114Y02215I-00008J0D01*
G01*
X057146D02*
G03*
X057146Y02215I-00008J0D01*
G01*
X059114D02*
G03*
X059114Y02215I-00008J0D01*
G01*
M02*
