G04*
G04 #@! TF.GenerationSoftware,Altium Limited,Altium Designer,21.6.1 (37)*
G04*
G04 Layer_Color=65535*
%FSTAX24Y24*%
%MOIN*%
G70*
G04*
G04 #@! TF.SameCoordinates,59C10F7D-216A-4877-8410-82FF31B31C47*
G04*
G04*
G04 #@! TF.FilePolarity,Positive*
G04*
G01*
G75*
%ADD10C,0.0100*%
%ADD11C,0.0150*%
%ADD12R,0.0700X0.0150*%
%ADD13R,0.0150X0.0700*%
%ADD14R,0.0723X0.0274*%
D10*
X009191Y031255D02*
G03*
X009191Y031255I-000141J0D01*
G01*
X010691Y029555D02*
G03*
X010691Y029555I-000141J0D01*
G01*
X007691D02*
G03*
X007691Y029555I-000141J0D01*
G01*
X037191Y031255D02*
G03*
X037191Y031255I-000141J0D01*
G01*
X038691Y029555D02*
G03*
X038691Y029555I-000141J0D01*
G01*
X035691D02*
G03*
X035691Y029555I-000141J0D01*
G01*
X016191Y031255D02*
G03*
X016191Y031255I-000141J0D01*
G01*
X017691Y029555D02*
G03*
X017691Y029555I-000141J0D01*
G01*
X014691D02*
G03*
X014691Y029555I-000141J0D01*
G01*
X044191Y031255D02*
G03*
X044191Y031255I-000141J0D01*
G01*
X045691Y029555D02*
G03*
X045691Y029555I-000141J0D01*
G01*
X042691D02*
G03*
X042691Y029555I-000141J0D01*
G01*
X023191Y031255D02*
G03*
X023191Y031255I-000141J0D01*
G01*
X024691Y029555D02*
G03*
X024691Y029555I-000141J0D01*
G01*
X021691D02*
G03*
X021691Y029555I-000141J0D01*
G01*
X051191Y031255D02*
G03*
X051191Y031255I-000141J0D01*
G01*
X052691Y029555D02*
G03*
X052691Y029555I-000141J0D01*
G01*
X049691D02*
G03*
X049691Y029555I-000141J0D01*
G01*
X030191Y031255D02*
G03*
X030191Y031255I-000141J0D01*
G01*
X031691Y029555D02*
G03*
X031691Y029555I-000141J0D01*
G01*
X028691D02*
G03*
X028691Y029555I-000141J0D01*
G01*
X058191Y031255D02*
G03*
X058191Y031255I-000141J0D01*
G01*
X059691Y029555D02*
G03*
X059691Y029555I-000141J0D01*
G01*
X056691D02*
G03*
X056691Y029555I-000141J0D01*
G01*
X061715Y03245D02*
X062385D01*
Y03385D01*
X061715Y03245D02*
Y03385D01*
X062385D01*
X061715Y03185D02*
X062385D01*
X061715Y03045D02*
Y03185D01*
X062385Y03045D02*
Y03185D01*
X061715Y03045D02*
X062385D01*
X00975Y037315D02*
Y037985D01*
X00835D02*
X00975D01*
X00835Y037315D02*
X00975D01*
X00835D02*
Y037985D01*
X03775Y037315D02*
Y037985D01*
X03635D02*
X03775D01*
X03635Y037315D02*
X03775D01*
X03635D02*
Y037985D01*
X00975Y024315D02*
Y024985D01*
X00835D02*
X00975D01*
X00835Y024315D02*
X00975D01*
X00835D02*
Y024985D01*
X03775Y024315D02*
Y024985D01*
X03635D02*
X03775D01*
X03635Y024315D02*
X03775D01*
X03635D02*
Y024985D01*
X01065Y035991D02*
Y037891D01*
X00995Y035991D02*
X01065D01*
X00995D02*
Y037891D01*
X01065D01*
X03865Y035991D02*
Y037891D01*
X03795Y035991D02*
X03865D01*
X03795D02*
Y037891D01*
X03865D01*
X01675Y037315D02*
Y037985D01*
X01535D02*
X01675D01*
X01535Y037315D02*
X01675D01*
X01535D02*
Y037985D01*
X04475Y037315D02*
Y037985D01*
X04335D02*
X04475D01*
X04335Y037315D02*
X04475D01*
X04335D02*
Y037985D01*
X01675Y024315D02*
Y024985D01*
X01535D02*
X01675D01*
X01535Y024315D02*
X01675D01*
X01535D02*
Y024985D01*
X04475Y024315D02*
Y024985D01*
X04335D02*
X04475D01*
X04335Y024315D02*
X04475D01*
X04335D02*
Y024985D01*
X01765Y035991D02*
Y037891D01*
X01695Y035991D02*
X01765D01*
X01695D02*
Y037891D01*
X01765D01*
X04565Y035991D02*
Y037891D01*
X04495Y035991D02*
X04565D01*
X04495D02*
Y037891D01*
X04565D01*
X02375Y037315D02*
Y037985D01*
X02235D02*
X02375D01*
X02235Y037315D02*
X02375D01*
X02235D02*
Y037985D01*
X05175Y037315D02*
Y037985D01*
X05035D02*
X05175D01*
X05035Y037315D02*
X05175D01*
X05035D02*
Y037985D01*
X02375Y024315D02*
Y024985D01*
X02235D02*
X02375D01*
X02235Y024315D02*
X02375D01*
X02235D02*
Y024985D01*
X05175Y024315D02*
Y024985D01*
X05035D02*
X05175D01*
X05035Y024315D02*
X05175D01*
X05035D02*
Y024985D01*
X02465Y035991D02*
Y037891D01*
X02395Y035991D02*
X02465D01*
X02395D02*
Y037891D01*
X02465D01*
X05265Y035991D02*
Y037891D01*
X05195Y035991D02*
X05265D01*
X05195D02*
Y037891D01*
X05265D01*
X03075Y037315D02*
Y037985D01*
X02935D02*
X03075D01*
X02935Y037315D02*
X03075D01*
X02935D02*
Y037985D01*
X05875Y037315D02*
Y037985D01*
X05735D02*
X05875D01*
X05735Y037315D02*
X05875D01*
X05735D02*
Y037985D01*
X03075Y024315D02*
Y024985D01*
X02935D02*
X03075D01*
X02935Y024315D02*
X03075D01*
X02935D02*
Y024985D01*
X05875Y024315D02*
Y024985D01*
X05735D02*
X05875D01*
X05735Y024315D02*
X05875D01*
X05735D02*
Y024985D01*
X03165Y035991D02*
Y037891D01*
X03095Y035991D02*
X03165D01*
X03095D02*
Y037891D01*
X03165D01*
X05965Y035991D02*
Y037891D01*
X05895Y035991D02*
X05965D01*
X05895D02*
Y037891D01*
X05965D01*
X00755Y02615D02*
Y02715D01*
Y02615D02*
X01055D01*
Y02715D01*
X00755D02*
X01055D01*
X03555Y02615D02*
Y02715D01*
Y02615D02*
X03855D01*
Y02715D01*
X03555D02*
X03855D01*
X006836Y02319D02*
Y02376D01*
X007066Y02353D02*
Y02393D01*
Y02094D02*
Y02342D01*
X006836Y02376D02*
X007066Y02353D01*
X006836Y02319D02*
X007066Y02342D01*
Y02094D02*
X011016D01*
Y02393D01*
X007066D02*
X011016D01*
X008056Y0211D02*
Y0214D01*
X010026Y0211D02*
Y0214D01*
X034836Y02319D02*
Y02376D01*
X035066Y02353D02*
Y02393D01*
Y02094D02*
Y02342D01*
X034836Y02376D02*
X035066Y02353D01*
X034836Y02319D02*
X035066Y02342D01*
Y02094D02*
X039016D01*
Y02393D01*
X035066D02*
X039016D01*
X036056Y0211D02*
Y0214D01*
X038026Y0211D02*
Y0214D01*
X0109Y038993D02*
Y044701D01*
X007042Y038993D02*
Y044701D01*
Y038993D02*
X0109D01*
X007042Y044701D02*
X0109D01*
X0389Y038993D02*
Y044701D01*
X035042Y038993D02*
Y044701D01*
Y038993D02*
X0389D01*
X035042Y044701D02*
X0389D01*
X01205Y04465D02*
X01305D01*
X01205Y04165D02*
Y04465D01*
Y04165D02*
X01305D01*
Y04465D01*
X04005D02*
X04105D01*
X04005Y04165D02*
Y04465D01*
Y04165D02*
X04105D01*
Y04465D01*
X01455Y02615D02*
Y02715D01*
Y02615D02*
X01755D01*
Y02715D01*
X01455D02*
X01755D01*
X04255Y02615D02*
Y02715D01*
Y02615D02*
X04555D01*
Y02715D01*
X04255D02*
X04555D01*
X013836Y02319D02*
Y02376D01*
X014066Y02353D02*
Y02393D01*
Y02094D02*
Y02342D01*
X013836Y02376D02*
X014066Y02353D01*
X013836Y02319D02*
X014066Y02342D01*
Y02094D02*
X018016D01*
Y02393D01*
X014066D02*
X018016D01*
X015056Y0211D02*
Y0214D01*
X017026Y0211D02*
Y0214D01*
X041836Y02319D02*
Y02376D01*
X042066Y02353D02*
Y02393D01*
Y02094D02*
Y02342D01*
X041836Y02376D02*
X042066Y02353D01*
X041836Y02319D02*
X042066Y02342D01*
Y02094D02*
X046016D01*
Y02393D01*
X042066D02*
X046016D01*
X043056Y0211D02*
Y0214D01*
X045026Y0211D02*
Y0214D01*
X0179Y038993D02*
Y044701D01*
X014042Y038993D02*
Y044701D01*
Y038993D02*
X0179D01*
X014042Y044701D02*
X0179D01*
X042042D02*
X0459D01*
X042042Y038993D02*
X0459D01*
X042042D02*
Y044701D01*
X0459Y038993D02*
Y044701D01*
X01905Y04465D02*
X02005D01*
X01905Y04165D02*
Y04465D01*
Y04165D02*
X02005D01*
Y04465D01*
X04705D02*
X04805D01*
X04705Y04165D02*
Y04465D01*
Y04165D02*
X04805D01*
Y04465D01*
X02155Y02615D02*
Y02715D01*
Y02615D02*
X02455D01*
Y02715D01*
X02155D02*
X02455D01*
X04955Y02615D02*
Y02715D01*
Y02615D02*
X05255D01*
Y02715D01*
X04955D02*
X05255D01*
X020836Y02319D02*
Y02376D01*
X021066Y02353D02*
Y02393D01*
Y02094D02*
Y02342D01*
X020836Y02376D02*
X021066Y02353D01*
X020836Y02319D02*
X021066Y02342D01*
Y02094D02*
X025016D01*
Y02393D01*
X021066D02*
X025016D01*
X022056Y0211D02*
Y0214D01*
X024026Y0211D02*
Y0214D01*
X048836Y02319D02*
Y02376D01*
X049066Y02353D02*
Y02393D01*
Y02094D02*
Y02342D01*
X048836Y02376D02*
X049066Y02353D01*
X048836Y02319D02*
X049066Y02342D01*
Y02094D02*
X053016D01*
Y02393D01*
X049066D02*
X053016D01*
X050056Y0211D02*
Y0214D01*
X052026Y0211D02*
Y0214D01*
X0249Y038993D02*
Y044701D01*
X021042Y038993D02*
Y044701D01*
Y038993D02*
X0249D01*
X021042Y044701D02*
X0249D01*
X0529Y038993D02*
Y044701D01*
X049042Y038993D02*
Y044701D01*
Y038993D02*
X0529D01*
X049042Y044701D02*
X0529D01*
X02605Y04465D02*
X02705D01*
X02605Y04165D02*
Y04465D01*
Y04165D02*
X02705D01*
Y04465D01*
X05405D02*
X05505D01*
X05405Y04165D02*
Y04465D01*
Y04165D02*
X05505D01*
Y04465D01*
X02855Y02615D02*
Y02715D01*
Y02615D02*
X03155D01*
Y02715D01*
X02855D02*
X03155D01*
X05655Y02615D02*
Y02715D01*
Y02615D02*
X05955D01*
Y02715D01*
X05655D02*
X05955D01*
X027836Y02319D02*
Y02376D01*
X028066Y02353D02*
Y02393D01*
Y02094D02*
Y02342D01*
X027836Y02376D02*
X028066Y02353D01*
X027836Y02319D02*
X028066Y02342D01*
Y02094D02*
X032016D01*
Y02393D01*
X028066D02*
X032016D01*
X029056Y0211D02*
Y0214D01*
X031026Y0211D02*
Y0214D01*
X055836Y02319D02*
Y02376D01*
X056066Y02353D02*
Y02393D01*
Y02094D02*
Y02342D01*
X055836Y02376D02*
X056066Y02353D01*
X055836Y02319D02*
X056066Y02342D01*
Y02094D02*
X060016D01*
Y02393D01*
X056066D02*
X060016D01*
X057056Y0211D02*
Y0214D01*
X059026Y0211D02*
Y0214D01*
X0319Y038993D02*
Y044701D01*
X028042Y038993D02*
Y044701D01*
Y038993D02*
X0319D01*
X028042Y044701D02*
X0319D01*
X0599Y038993D02*
Y044701D01*
X056042Y038993D02*
Y044701D01*
Y038993D02*
X0599D01*
X056042Y044701D02*
X0599D01*
X03305Y04465D02*
X03405D01*
X03305Y04165D02*
Y04465D01*
Y04165D02*
X03405D01*
Y04465D01*
X010841Y037937D02*
X011983D01*
X010841Y036363D02*
Y037937D01*
Y036363D02*
X011983D01*
Y037937D01*
X038841D02*
X039983D01*
X038841Y036363D02*
Y037937D01*
Y036363D02*
X039983D01*
Y037937D01*
X017841D02*
X018983D01*
X017841Y036363D02*
Y037937D01*
Y036363D02*
X018983D01*
Y037937D01*
X045841D02*
X046983D01*
X045841Y036363D02*
Y037937D01*
Y036363D02*
X046983D01*
Y037937D01*
X024841D02*
X025983D01*
X024841Y036363D02*
Y037937D01*
Y036363D02*
X025983D01*
Y037937D01*
X052841D02*
X053983D01*
X052841Y036363D02*
Y037937D01*
Y036363D02*
X053983D01*
Y037937D01*
X031841D02*
X032983D01*
X031841Y036363D02*
Y037937D01*
Y036363D02*
X032983D01*
Y037937D01*
X059841D02*
X060983D01*
X059841Y036363D02*
Y037937D01*
Y036363D02*
X060983D01*
Y037937D01*
X00975Y036315D02*
Y036985D01*
X00835D02*
X00975D01*
X00835Y036315D02*
X00975D01*
X00835D02*
Y036985D01*
X03775Y036315D02*
Y036985D01*
X03635D02*
X03775D01*
X03635Y036315D02*
X03775D01*
X03635D02*
Y036985D01*
X00975Y025315D02*
Y025985D01*
X00835D02*
X00975D01*
X00835Y025315D02*
X00975D01*
X00835D02*
Y025985D01*
X03775Y025315D02*
Y025985D01*
X03635D02*
X03775D01*
X03635Y025315D02*
X03775D01*
X03635D02*
Y025985D01*
X012215Y0365D02*
X012885D01*
Y0379D01*
X012215Y0365D02*
Y0379D01*
X012885D01*
X040215Y0365D02*
X040885D01*
Y0379D01*
X040215Y0365D02*
Y0379D01*
X040885D01*
X01675Y036315D02*
Y036985D01*
X01535D02*
X01675D01*
X01535Y036315D02*
X01675D01*
X01535D02*
Y036985D01*
X04475Y036315D02*
Y036985D01*
X04335D02*
X04475D01*
X04335Y036315D02*
X04475D01*
X04335D02*
Y036985D01*
X01675Y025315D02*
Y025985D01*
X01535D02*
X01675D01*
X01535Y025315D02*
X01675D01*
X01535D02*
Y025985D01*
X04475Y025315D02*
Y025985D01*
X04335D02*
X04475D01*
X04335Y025315D02*
X04475D01*
X04335D02*
Y025985D01*
X019215Y0365D02*
X019885D01*
Y0379D01*
X019215Y0365D02*
Y0379D01*
X019885D01*
X047215Y0365D02*
X047885D01*
Y0379D01*
X047215Y0365D02*
Y0379D01*
X047885D01*
X02375Y036315D02*
Y036985D01*
X02235D02*
X02375D01*
X02235Y036315D02*
X02375D01*
X02235D02*
Y036985D01*
X05175Y036315D02*
Y036985D01*
X05035D02*
X05175D01*
X05035Y036315D02*
X05175D01*
X05035D02*
Y036985D01*
X02375Y025315D02*
Y025985D01*
X02235D02*
X02375D01*
X02235Y025315D02*
X02375D01*
X02235D02*
Y025985D01*
X05175Y025315D02*
Y025985D01*
X05035D02*
X05175D01*
X05035Y025315D02*
X05175D01*
X05035D02*
Y025985D01*
X026215Y0365D02*
X026885D01*
Y0379D01*
X026215Y0365D02*
Y0379D01*
X026885D01*
X054215Y0365D02*
X054885D01*
Y0379D01*
X054215Y0365D02*
Y0379D01*
X054885D01*
X03075Y036315D02*
Y036985D01*
X02935D02*
X03075D01*
X02935Y036315D02*
X03075D01*
X02935D02*
Y036985D01*
X05875Y036315D02*
Y036985D01*
X05735D02*
X05875D01*
X05735Y036315D02*
X05875D01*
X05735D02*
Y036985D01*
X03075Y025315D02*
Y025985D01*
X02935D02*
X03075D01*
X02935Y025315D02*
X03075D01*
X02935D02*
Y025985D01*
X05875Y025315D02*
Y025985D01*
X05735D02*
X05875D01*
X05735Y025315D02*
X05875D01*
X05735D02*
Y025985D01*
X033215Y0365D02*
X033885D01*
Y0379D01*
X033215Y0365D02*
Y0379D01*
X033885D01*
X061215Y0365D02*
X061885D01*
Y0379D01*
X061215Y0365D02*
Y0379D01*
X061885D01*
X007123Y033928D02*
X007946Y033105D01*
X00805D01*
X010154D02*
X010977Y033928D01*
X01005Y033105D02*
X010154D01*
X005989Y035711D02*
X012189D01*
X005989Y028162D02*
Y035711D01*
Y028162D02*
X012189D01*
Y035711D01*
X00905Y033605D02*
Y034355D01*
Y031555D02*
Y032605D01*
Y030655D02*
Y031113D01*
Y030655D02*
X01035Y029355D01*
X00805Y033355D02*
X01005D01*
X00805Y032855D02*
X01005D01*
Y033355D01*
X00805Y032855D02*
Y033355D01*
X035123Y033928D02*
X035946Y033105D01*
X03605D01*
X038154D02*
X038977Y033928D01*
X03805Y033105D02*
X038154D01*
X033989Y035711D02*
X040189D01*
X033989Y028162D02*
Y035711D01*
Y028162D02*
X040189D01*
Y035711D01*
X03705Y033605D02*
Y034355D01*
Y031555D02*
Y032605D01*
Y030655D02*
Y031113D01*
Y030655D02*
X03835Y029355D01*
X03605Y033355D02*
X03805D01*
X03605Y032855D02*
X03805D01*
Y033355D01*
X03605Y032855D02*
Y033355D01*
X014123Y033928D02*
X014946Y033105D01*
X01505D01*
X017154D02*
X017977Y033928D01*
X01705Y033105D02*
X017154D01*
X012989Y035711D02*
X019189D01*
X012989Y028162D02*
Y035711D01*
Y028162D02*
X019189D01*
Y035711D01*
X01605Y033605D02*
Y034355D01*
Y031555D02*
Y032605D01*
Y030655D02*
Y031113D01*
Y030655D02*
X01735Y029355D01*
X01505Y033355D02*
X01705D01*
X01505Y032855D02*
X01705D01*
Y033355D01*
X01505Y032855D02*
Y033355D01*
X042123Y033928D02*
X042946Y033105D01*
X04305D01*
X045154D02*
X045977Y033928D01*
X04505Y033105D02*
X045154D01*
X040989Y035711D02*
X047189D01*
X040989Y028162D02*
Y035711D01*
Y028162D02*
X047189D01*
Y035711D01*
X04405Y033605D02*
Y034355D01*
Y031555D02*
Y032605D01*
Y030655D02*
Y031113D01*
Y030655D02*
X04535Y029355D01*
X04305Y033355D02*
X04505D01*
X04305Y032855D02*
X04505D01*
Y033355D01*
X04305Y032855D02*
Y033355D01*
X021123Y033928D02*
X021946Y033105D01*
X02205D01*
X024154D02*
X024977Y033928D01*
X02405Y033105D02*
X024154D01*
X019989Y035711D02*
X026189D01*
X019989Y028162D02*
Y035711D01*
Y028162D02*
X026189D01*
Y035711D01*
X02305Y033605D02*
Y034355D01*
Y031555D02*
Y032605D01*
Y030655D02*
Y031113D01*
Y030655D02*
X02435Y029355D01*
X02205Y033355D02*
X02405D01*
X02205Y032855D02*
X02405D01*
Y033355D01*
X02205Y032855D02*
Y033355D01*
X049123Y033928D02*
X049946Y033105D01*
X05005D01*
X052154D02*
X052977Y033928D01*
X05205Y033105D02*
X052154D01*
X047989Y035711D02*
X054189D01*
X047989Y028162D02*
Y035711D01*
Y028162D02*
X054189D01*
Y035711D01*
X05105Y033605D02*
Y034355D01*
Y031555D02*
Y032605D01*
Y030655D02*
Y031113D01*
Y030655D02*
X05235Y029355D01*
X05005Y033355D02*
X05205D01*
X05005Y032855D02*
X05205D01*
Y033355D01*
X05005Y032855D02*
Y033355D01*
X028123Y033928D02*
X028946Y033105D01*
X02905D01*
X031154D02*
X031977Y033928D01*
X03105Y033105D02*
X031154D01*
X026989Y035711D02*
X033189D01*
X026989Y028162D02*
Y035711D01*
Y028162D02*
X033189D01*
Y035711D01*
X03005Y033605D02*
Y034355D01*
Y031555D02*
Y032605D01*
Y030655D02*
Y031113D01*
Y030655D02*
X03135Y029355D01*
X02905Y033355D02*
X03105D01*
X02905Y032855D02*
X03105D01*
Y033355D01*
X02905Y032855D02*
Y033355D01*
X056123Y033928D02*
X056946Y033105D01*
X05705D01*
X059154D02*
X059977Y033928D01*
X05905Y033105D02*
X059154D01*
X054989Y035711D02*
X061189D01*
X054989Y028162D02*
Y035711D01*
Y028162D02*
X061189D01*
Y035711D01*
X05805Y033605D02*
Y034355D01*
Y031555D02*
Y032605D01*
Y030655D02*
Y031113D01*
Y030655D02*
X05935Y029355D01*
X05705Y033355D02*
X05905D01*
X05705Y032855D02*
X05905D01*
Y033355D01*
X05705Y032855D02*
Y033355D01*
X06105Y02565D02*
X06205D01*
X06105Y02165D02*
Y02565D01*
Y02165D02*
X06205D01*
Y02565D01*
X06105Y04265D02*
X06205D01*
X06105Y03865D02*
Y04265D01*
Y03865D02*
X06205D01*
Y04265D01*
X061825Y034D02*
X062275D01*
Y034225D01*
X0622Y0343D01*
X0619D01*
X061825Y034225D01*
Y034D01*
X062275Y03475D02*
Y03445D01*
X061975Y03475D01*
X0619D01*
X061825Y034675D01*
Y034525D01*
X0619Y03445D01*
X061825Y0352D02*
Y0349D01*
X06205D01*
X061975Y03505D01*
Y035125D01*
X06205Y0352D01*
X0622D01*
X062275Y035125D01*
Y034975D01*
X0622Y0349D01*
X062275Y029D02*
X061825D01*
Y029225D01*
X0619Y0293D01*
X06205D01*
X062125Y029225D01*
Y029D01*
Y02915D02*
X062275Y0293D01*
Y02975D02*
Y02945D01*
X061975Y02975D01*
X0619D01*
X061825Y029675D01*
Y029525D01*
X0619Y02945D01*
X061825Y0302D02*
Y0299D01*
X06205D01*
X061975Y03005D01*
Y030125D01*
X06205Y0302D01*
X0622D01*
X062275Y030125D01*
Y029975D01*
X0622Y0299D01*
X0076Y037925D02*
Y037475D01*
X007825D01*
X0079Y03755D01*
Y03785D01*
X007825Y037925D01*
X0076D01*
X00805Y037475D02*
X0082D01*
X008125D01*
Y037925D01*
X00805Y03785D01*
X034988Y037875D02*
Y037425D01*
X035213D01*
X035288Y0375D01*
Y0378D01*
X035213Y037875D01*
X034988D01*
X035438Y037425D02*
X035587D01*
X035513D01*
Y037875D01*
X035438Y0378D01*
X035812D02*
X035887Y037875D01*
X036037D01*
X036112Y0378D01*
Y037725D01*
X036037Y03765D01*
X035962D01*
X036037D01*
X036112Y037575D01*
Y0375D01*
X036037Y037425D01*
X035887D01*
X035812Y0375D01*
X010025Y024875D02*
Y024425D01*
X01025D01*
X010325Y0245D01*
Y0248D01*
X01025Y024875D01*
X010025D01*
X010475Y0245D02*
X01055Y024425D01*
X0107D01*
X010775Y0245D01*
Y0248D01*
X0107Y024875D01*
X01055D01*
X010475Y0248D01*
Y024725D01*
X01055Y02465D01*
X010775D01*
X037975Y024875D02*
Y024425D01*
X0382D01*
X038275Y0245D01*
Y0248D01*
X0382Y024875D01*
X037975D01*
X038725Y024425D02*
X038425D01*
X038725Y024725D01*
Y0248D01*
X03865Y024875D01*
X0385D01*
X038425Y0248D01*
X038875Y024425D02*
X039025D01*
X03895D01*
Y024875D01*
X038875Y0248D01*
X010075Y038025D02*
X010525D01*
Y03825D01*
X01045Y038325D01*
X01015D01*
X010075Y03825D01*
Y038025D01*
Y038775D02*
Y038475D01*
X0103D01*
X010225Y038625D01*
Y0387D01*
X0103Y038775D01*
X01045D01*
X010525Y0387D01*
Y03855D01*
X01045Y038475D01*
X038075Y038088D02*
X038525D01*
Y038313D01*
X03845Y038388D01*
X03815D01*
X038075Y038313D01*
Y038088D01*
X038525Y038538D02*
Y038687D01*
Y038613D01*
X038075D01*
X03815Y038538D01*
X038075Y038912D02*
Y039212D01*
X03815D01*
X03845Y038912D01*
X038525D01*
X014425Y037875D02*
Y037425D01*
X01465D01*
X014725Y0375D01*
Y0378D01*
X01465Y037875D01*
X014425D01*
X015175Y037425D02*
X014875D01*
X015175Y037725D01*
Y0378D01*
X0151Y037875D01*
X01495D01*
X014875Y0378D01*
X041988Y037875D02*
Y037425D01*
X042213D01*
X042288Y0375D01*
Y0378D01*
X042213Y037875D01*
X041988D01*
X042438Y037425D02*
X042587D01*
X042513D01*
Y037875D01*
X042438Y0378D01*
X043037Y037425D02*
Y037875D01*
X042812Y03765D01*
X043112D01*
X017038Y024875D02*
Y024425D01*
X017263D01*
X017338Y0245D01*
Y0248D01*
X017263Y024875D01*
X017038D01*
X017488Y024425D02*
X017637D01*
X017563D01*
Y024875D01*
X017488Y0248D01*
X017862D02*
X017937Y024875D01*
X018087D01*
X018162Y0248D01*
Y0245D01*
X018087Y024425D01*
X017937D01*
X017862Y0245D01*
Y0248D01*
X04495Y024875D02*
Y024425D01*
X045175D01*
X04525Y0245D01*
Y0248D01*
X045175Y024875D01*
X04495D01*
X0457Y024425D02*
X0454D01*
X0457Y024725D01*
Y0248D01*
X045625Y024875D01*
X045475D01*
X0454Y0248D01*
X04615Y024425D02*
X04585D01*
X04615Y024725D01*
Y0248D01*
X046075Y024875D01*
X045925D01*
X04585Y0248D01*
X017075Y038025D02*
X017525D01*
Y03825D01*
X01745Y038325D01*
X01715D01*
X017075Y03825D01*
Y038025D01*
Y038775D02*
X01715Y038625D01*
X0173Y038475D01*
X01745D01*
X017525Y03855D01*
Y0387D01*
X01745Y038775D01*
X017375D01*
X0173Y0387D01*
Y038475D01*
X045075Y038088D02*
X045525D01*
Y038313D01*
X04545Y038388D01*
X04515D01*
X045075Y038313D01*
Y038088D01*
X045525Y038538D02*
Y038687D01*
Y038613D01*
X045075D01*
X04515Y038538D01*
Y038912D02*
X045075Y038987D01*
Y039137D01*
X04515Y039212D01*
X045225D01*
X0453Y039137D01*
X045375Y039212D01*
X04545D01*
X045525Y039137D01*
Y038987D01*
X04545Y038912D01*
X045375D01*
X0453Y038987D01*
X045225Y038912D01*
X04515D01*
X0453Y038987D02*
Y039137D01*
X021425Y037875D02*
Y037425D01*
X02165D01*
X021725Y0375D01*
Y0378D01*
X02165Y037875D01*
X021425D01*
X021875Y0378D02*
X02195Y037875D01*
X0221D01*
X022175Y0378D01*
Y037725D01*
X0221Y03765D01*
X022025D01*
X0221D01*
X022175Y037575D01*
Y0375D01*
X0221Y037425D01*
X02195D01*
X021875Y0375D01*
X048988Y037875D02*
Y037425D01*
X049213D01*
X049288Y0375D01*
Y0378D01*
X049213Y037875D01*
X048988D01*
X049438Y037425D02*
X049587D01*
X049513D01*
Y037875D01*
X049438Y0378D01*
X050112Y037875D02*
X049812D01*
Y03765D01*
X049962Y037725D01*
X050037D01*
X050112Y03765D01*
Y0375D01*
X050037Y037425D01*
X049887D01*
X049812Y0375D01*
X024013Y024875D02*
Y024425D01*
X024238D01*
X024313Y0245D01*
Y0248D01*
X024238Y024875D01*
X024013D01*
X024463Y024425D02*
X024612D01*
X024537D01*
Y024875D01*
X024463Y0248D01*
X024837Y024425D02*
X024987D01*
X024912D01*
Y024875D01*
X024837Y0248D01*
X052Y024875D02*
Y024425D01*
X052225D01*
X0523Y0245D01*
Y0248D01*
X052225Y024875D01*
X052D01*
X05275Y024425D02*
X05245D01*
X05275Y024725D01*
Y0248D01*
X052675Y024875D01*
X052525D01*
X05245Y0248D01*
X0529D02*
X052975Y024875D01*
X053125D01*
X0532Y0248D01*
Y024725D01*
X053125Y02465D01*
X05305D01*
X053125D01*
X0532Y024575D01*
Y0245D01*
X053125Y024425D01*
X052975D01*
X0529Y0245D01*
X02415Y03809D02*
X0246D01*
Y038315D01*
X024525Y03839D01*
X024225D01*
X02415Y038315D01*
Y03809D01*
Y03854D02*
Y03884D01*
X024225D01*
X024525Y03854D01*
X0246D01*
X052075Y038088D02*
X052525D01*
Y038313D01*
X05245Y038388D01*
X05215D01*
X052075Y038313D01*
Y038088D01*
X052525Y038538D02*
Y038687D01*
Y038613D01*
X052075D01*
X05215Y038538D01*
X05245Y038912D02*
X052525Y038987D01*
Y039137D01*
X05245Y039212D01*
X05215D01*
X052075Y039137D01*
Y038987D01*
X05215Y038912D01*
X052225D01*
X0523Y038987D01*
Y039212D01*
X028425Y037875D02*
Y037425D01*
X02865D01*
X028725Y0375D01*
Y0378D01*
X02865Y037875D01*
X028425D01*
X0291Y037425D02*
Y037875D01*
X028875Y03765D01*
X029175D01*
X055988Y037875D02*
Y037425D01*
X056213D01*
X056288Y0375D01*
Y0378D01*
X056213Y037875D01*
X055988D01*
X056438Y037425D02*
X056587D01*
X056513D01*
Y037875D01*
X056438Y0378D01*
X057112Y037875D02*
X056962Y0378D01*
X056812Y03765D01*
Y0375D01*
X056887Y037425D01*
X057037D01*
X057112Y0375D01*
Y037575D01*
X057037Y03765D01*
X056812D01*
X031038Y024875D02*
Y024425D01*
X031263D01*
X031338Y0245D01*
Y0248D01*
X031263Y024875D01*
X031038D01*
X031488Y024425D02*
X031637D01*
X031563D01*
Y024875D01*
X031488Y0248D01*
X032162Y024425D02*
X031862D01*
X032162Y024725D01*
Y0248D01*
X032087Y024875D01*
X031937D01*
X031862Y0248D01*
X05895Y024875D02*
Y024425D01*
X059175D01*
X05925Y0245D01*
Y0248D01*
X059175Y024875D01*
X05895D01*
X0597Y024425D02*
X0594D01*
X0597Y024725D01*
Y0248D01*
X059625Y024875D01*
X059475D01*
X0594Y0248D01*
X060075Y024425D02*
Y024875D01*
X05985Y02465D01*
X06015D01*
X031075Y038025D02*
X031525D01*
Y03825D01*
X03145Y038325D01*
X03115D01*
X031075Y03825D01*
Y038025D01*
X03115Y038475D02*
X031075Y03855D01*
Y0387D01*
X03115Y038775D01*
X031225D01*
X0313Y0387D01*
X031375Y038775D01*
X03145D01*
X031525Y0387D01*
Y03855D01*
X03145Y038475D01*
X031375D01*
X0313Y03855D01*
X031225Y038475D01*
X03115D01*
X0313Y03855D02*
Y0387D01*
X059075Y03805D02*
X059525D01*
Y038275D01*
X05945Y03835D01*
X05915D01*
X059075Y038275D01*
Y03805D01*
X059525Y0388D02*
Y0385D01*
X059225Y0388D01*
X05915D01*
X059075Y038725D01*
Y038575D01*
X05915Y0385D01*
Y03895D02*
X059075Y039025D01*
Y039175D01*
X05915Y03925D01*
X05945D01*
X059525Y039175D01*
Y039025D01*
X05945Y03895D01*
X05915D01*
X008975Y027825D02*
X008825D01*
X0089D01*
Y02745D01*
X008825Y027375D01*
X00875D01*
X008675Y02745D01*
X009125D02*
X0092Y027375D01*
X00935D01*
X009425Y02745D01*
Y02775D01*
X00935Y027825D01*
X0092D01*
X009125Y02775D01*
Y027675D01*
X0092Y0276D01*
X009425D01*
X03675Y027825D02*
X0366D01*
X036675D01*
Y02745D01*
X0366Y027375D01*
X036525D01*
X03645Y02745D01*
X0372Y027375D02*
X0369D01*
X0372Y027675D01*
Y02775D01*
X037125Y027825D01*
X036975D01*
X0369Y02775D01*
X037575Y027375D02*
Y027825D01*
X03735Y0276D01*
X03765D01*
X007288Y024625D02*
X007138D01*
X007213D01*
Y02425D01*
X007138Y024175D01*
X007063D01*
X006988Y02425D01*
X007438Y024175D02*
X007587D01*
X007513D01*
Y024625D01*
X007438Y02455D01*
X007812D02*
X007887Y024625D01*
X008037D01*
X008112Y02455D01*
Y024475D01*
X008037Y0244D01*
X007962D01*
X008037D01*
X008112Y024325D01*
Y02425D01*
X008037Y024175D01*
X007887D01*
X007812Y02425D01*
X03525Y024625D02*
X0351D01*
X035175D01*
Y02425D01*
X0351Y024175D01*
X035025D01*
X03495Y02425D01*
X0357Y024175D02*
X0354D01*
X0357Y024475D01*
Y02455D01*
X035625Y024625D01*
X035475D01*
X0354Y02455D01*
X03585D02*
X035925Y024625D01*
X036075D01*
X03615Y02455D01*
Y024475D01*
X036075Y0244D01*
X03615Y024325D01*
Y02425D01*
X036075Y024175D01*
X035925D01*
X03585Y02425D01*
Y024325D01*
X035925Y0244D01*
X03585Y024475D01*
Y02455D01*
X035925Y0244D02*
X036075D01*
X006425Y0444D02*
Y04425D01*
Y044325D01*
X0068D01*
X006875Y04425D01*
Y044175D01*
X0068Y0441D01*
X006875Y04455D02*
Y0447D01*
Y044625D01*
X006425D01*
X0065Y04455D01*
X034425Y043838D02*
Y043688D01*
Y043763D01*
X0348D01*
X034875Y043688D01*
Y043613D01*
X0348Y043538D01*
X034875Y043988D02*
Y044137D01*
Y044063D01*
X034425D01*
X0345Y043988D01*
X034425Y044362D02*
Y044662D01*
X0345D01*
X0348Y044362D01*
X034875D01*
X011425Y041925D02*
Y041775D01*
Y04185D01*
X0118D01*
X011875Y041775D01*
Y0417D01*
X0118Y041625D01*
X011425Y042375D02*
Y042075D01*
X01165D01*
X011575Y042225D01*
Y0423D01*
X01165Y042375D01*
X0118D01*
X011875Y0423D01*
Y04215D01*
X0118Y042075D01*
X039425Y041925D02*
Y041775D01*
Y04185D01*
X0398D01*
X039875Y041775D01*
Y0417D01*
X0398Y041625D01*
X039875Y042375D02*
Y042075D01*
X039575Y042375D01*
X0395D01*
X039425Y0423D01*
Y04215D01*
X0395Y042075D01*
X039875Y042525D02*
Y042675D01*
Y0426D01*
X039425D01*
X0395Y042525D01*
X015788Y027825D02*
X015638D01*
X015713D01*
Y02745D01*
X015638Y027375D01*
X015563D01*
X015488Y02745D01*
X015938Y027375D02*
X016087D01*
X016013D01*
Y027825D01*
X015938Y02775D01*
X016312D02*
X016387Y027825D01*
X016537D01*
X016612Y02775D01*
Y02745D01*
X016537Y027375D01*
X016387D01*
X016312Y02745D01*
Y02775D01*
X04375Y027825D02*
X0436D01*
X043675D01*
Y02745D01*
X0436Y027375D01*
X043525D01*
X04345Y02745D01*
X0442Y027375D02*
X0439D01*
X0442Y027675D01*
Y02775D01*
X044125Y027825D01*
X043975D01*
X0439Y02775D01*
X04465Y027825D02*
X04435D01*
Y0276D01*
X0445Y027675D01*
X044575D01*
X04465Y0276D01*
Y02745D01*
X044575Y027375D01*
X044425D01*
X04435Y02745D01*
X014288Y024625D02*
X014138D01*
X014213D01*
Y02425D01*
X014138Y024175D01*
X014063D01*
X013988Y02425D01*
X014438Y024175D02*
X014587D01*
X014513D01*
Y024625D01*
X014438Y02455D01*
X015037Y024175D02*
Y024625D01*
X014812Y0244D01*
X015112D01*
X04225Y024625D02*
X0421D01*
X042175D01*
Y02425D01*
X0421Y024175D01*
X042025D01*
X04195Y02425D01*
X0427Y024175D02*
X0424D01*
X0427Y024475D01*
Y02455D01*
X042625Y024625D01*
X042475D01*
X0424Y02455D01*
X04285Y02425D02*
X042925Y024175D01*
X043075D01*
X04315Y02425D01*
Y02455D01*
X043075Y024625D01*
X042925D01*
X04285Y02455D01*
Y024475D01*
X042925Y0244D01*
X04315D01*
X013425Y044225D02*
Y044075D01*
Y04415D01*
X0138D01*
X013875Y044075D01*
Y044D01*
X0138Y043925D01*
X013875Y044675D02*
Y044375D01*
X013575Y044675D01*
X0135D01*
X013425Y0446D01*
Y04445D01*
X0135Y044375D01*
X041425Y043888D02*
Y043738D01*
Y043813D01*
X0418D01*
X041875Y043738D01*
Y043663D01*
X0418Y043588D01*
X041875Y044038D02*
Y044187D01*
Y044113D01*
X041425D01*
X0415Y044038D01*
Y044412D02*
X041425Y044487D01*
Y044637D01*
X0415Y044712D01*
X041575D01*
X04165Y044637D01*
X041725Y044712D01*
X0418D01*
X041875Y044637D01*
Y044487D01*
X0418Y044412D01*
X041725D01*
X04165Y044487D01*
X041575Y044412D01*
X0415D01*
X04165Y044487D02*
Y044637D01*
X019325Y040975D02*
Y040825D01*
Y0409D01*
X0197D01*
X019775Y040825D01*
Y04075D01*
X0197Y040675D01*
X019325Y041425D02*
X0194Y041275D01*
X01955Y041125D01*
X0197D01*
X019775Y0412D01*
Y04135D01*
X0197Y041425D01*
X019625D01*
X01955Y04135D01*
Y041125D01*
X046425Y0419D02*
Y04175D01*
Y041825D01*
X0468D01*
X046875Y04175D01*
Y041675D01*
X0468Y0416D01*
X046875Y04235D02*
Y04205D01*
X046575Y04235D01*
X0465D01*
X046425Y042275D01*
Y042125D01*
X0465Y04205D01*
X046875Y0428D02*
Y0425D01*
X046575Y0428D01*
X0465D01*
X046425Y042725D01*
Y042575D01*
X0465Y0425D01*
X022913Y027825D02*
X022763D01*
X022838D01*
Y02745D01*
X022763Y027375D01*
X022688D01*
X022613Y02745D01*
X023063Y027375D02*
X023212D01*
X023137D01*
Y027825D01*
X023063Y02775D01*
X023437Y027375D02*
X023587D01*
X023512D01*
Y027825D01*
X023437Y02775D01*
X05075Y027825D02*
X0506D01*
X050675D01*
Y02745D01*
X0506Y027375D01*
X050525D01*
X05045Y02745D01*
X0512Y027375D02*
X0509D01*
X0512Y027675D01*
Y02775D01*
X051125Y027825D01*
X050975D01*
X0509Y02775D01*
X05165Y027825D02*
X0515Y02775D01*
X05135Y0276D01*
Y02745D01*
X051425Y027375D01*
X051575D01*
X05165Y02745D01*
Y027525D01*
X051575Y0276D01*
X05135D01*
X021288Y024625D02*
X021138D01*
X021213D01*
Y02425D01*
X021138Y024175D01*
X021063D01*
X020988Y02425D01*
X021438Y024175D02*
X021587D01*
X021513D01*
Y024625D01*
X021438Y02455D01*
X022112Y024625D02*
X021812D01*
Y0244D01*
X021962Y024475D01*
X022037D01*
X022112Y0244D01*
Y02425D01*
X022037Y024175D01*
X021887D01*
X021812Y02425D01*
X04925Y024625D02*
X0491D01*
X049175D01*
Y02425D01*
X0491Y024175D01*
X049025D01*
X04895Y02425D01*
X0494Y02455D02*
X049475Y024625D01*
X049625D01*
X0497Y02455D01*
Y024475D01*
X049625Y0244D01*
X04955D01*
X049625D01*
X0497Y024325D01*
Y02425D01*
X049625Y024175D01*
X049475D01*
X0494Y02425D01*
X04985Y02455D02*
X049925Y024625D01*
X050075D01*
X05015Y02455D01*
Y02425D01*
X050075Y024175D01*
X049925D01*
X04985Y02425D01*
Y02455D01*
X020375Y044225D02*
Y044075D01*
Y04415D01*
X02075D01*
X020825Y044075D01*
Y044D01*
X02075Y043925D01*
X02045Y044375D02*
X020375Y04445D01*
Y0446D01*
X02045Y044675D01*
X020525D01*
X0206Y0446D01*
Y044525D01*
Y0446D01*
X020675Y044675D01*
X02075D01*
X020825Y0446D01*
Y04445D01*
X02075Y044375D01*
X048425Y043838D02*
Y043688D01*
Y043763D01*
X0488D01*
X048875Y043688D01*
Y043613D01*
X0488Y043538D01*
X048875Y043988D02*
Y044137D01*
Y044063D01*
X048425D01*
X0485Y043988D01*
X0488Y044362D02*
X048875Y044437D01*
Y044587D01*
X0488Y044662D01*
X0485D01*
X048425Y044587D01*
Y044437D01*
X0485Y044362D01*
X048575D01*
X04865Y044437D01*
Y044662D01*
X025425Y042075D02*
Y041925D01*
Y042D01*
X0258D01*
X025875Y041925D01*
Y04185D01*
X0258Y041775D01*
X025425Y042225D02*
Y042525D01*
X0255D01*
X0258Y042225D01*
X025875D01*
X053425Y04185D02*
Y0417D01*
Y041775D01*
X0538D01*
X053875Y0417D01*
Y041625D01*
X0538Y04155D01*
X053875Y0423D02*
Y042D01*
X053575Y0423D01*
X0535D01*
X053425Y042225D01*
Y042075D01*
X0535Y042D01*
Y04245D02*
X053425Y042525D01*
Y042675D01*
X0535Y04275D01*
X053575D01*
X05365Y042675D01*
Y0426D01*
Y042675D01*
X053725Y04275D01*
X0538D01*
X053875Y042675D01*
Y042525D01*
X0538Y04245D01*
X029788Y027825D02*
X029638D01*
X029713D01*
Y02745D01*
X029638Y027375D01*
X029563D01*
X029488Y02745D01*
X029938Y027375D02*
X030087D01*
X030013D01*
Y027825D01*
X029938Y02775D01*
X030612Y027375D02*
X030312D01*
X030612Y027675D01*
Y02775D01*
X030537Y027825D01*
X030387D01*
X030312Y02775D01*
X0569Y02795D02*
X05675D01*
X056825D01*
Y027575D01*
X05675Y0275D01*
X056675D01*
X0566Y027575D01*
X05735Y0275D02*
X05705D01*
X05735Y0278D01*
Y027875D01*
X057275Y02795D01*
X057125D01*
X05705Y027875D01*
X0575Y02795D02*
X0578D01*
Y027875D01*
X0575Y027575D01*
Y0275D01*
X028288Y024625D02*
X028138D01*
X028213D01*
Y02425D01*
X028138Y024175D01*
X028063D01*
X027988Y02425D01*
X028438Y024175D02*
X028587D01*
X028513D01*
Y024625D01*
X028438Y02455D01*
X029112Y024625D02*
X028962Y02455D01*
X028812Y0244D01*
Y02425D01*
X028887Y024175D01*
X029037D01*
X029112Y02425D01*
Y024325D01*
X029037Y0244D01*
X028812D01*
X056325Y024625D02*
X056175D01*
X05625D01*
Y02425D01*
X056175Y024175D01*
X0561D01*
X056025Y02425D01*
X056475Y02455D02*
X05655Y024625D01*
X0567D01*
X056775Y02455D01*
Y024475D01*
X0567Y0244D01*
X056625D01*
X0567D01*
X056775Y024325D01*
Y02425D01*
X0567Y024175D01*
X05655D01*
X056475Y02425D01*
X056925Y024175D02*
X057075D01*
X057D01*
Y024625D01*
X056925Y02455D01*
X027425Y044175D02*
Y044025D01*
Y0441D01*
X0278D01*
X027875Y044025D01*
Y04395D01*
X0278Y043875D01*
X027875Y04455D02*
X027425D01*
X02765Y044325D01*
Y044625D01*
X055425Y0438D02*
Y04365D01*
Y043725D01*
X0558D01*
X055875Y04365D01*
Y043575D01*
X0558Y0435D01*
X055875Y04425D02*
Y04395D01*
X055575Y04425D01*
X0555D01*
X055425Y044175D01*
Y044025D01*
X0555Y04395D01*
Y0444D02*
X055425Y044475D01*
Y044625D01*
X0555Y0447D01*
X0558D01*
X055875Y044625D01*
Y044475D01*
X0558Y0444D01*
X0555D01*
X032425Y042075D02*
Y041925D01*
Y042D01*
X0328D01*
X032875Y041925D01*
Y04185D01*
X0328Y041775D01*
X0325Y042225D02*
X032425Y0423D01*
Y04245D01*
X0325Y042525D01*
X032575D01*
X03265Y04245D01*
X032725Y042525D01*
X0328D01*
X032875Y04245D01*
Y0423D01*
X0328Y042225D01*
X032725D01*
X03265Y0423D01*
X032575Y042225D01*
X0325D01*
X03265Y0423D02*
Y04245D01*
X01155Y03845D02*
X01125D01*
X011175Y038375D01*
Y038225D01*
X01125Y03815D01*
X01155D01*
X011625Y038225D01*
Y038375D01*
X011475Y0383D02*
X011625Y03845D01*
Y038375D02*
X01155Y03845D01*
X011625Y0386D02*
Y03875D01*
Y038675D01*
X011175D01*
X01125Y0386D01*
X03919Y038365D02*
Y038665D01*
X039115Y03874D01*
X038965D01*
X03889Y038665D01*
Y038365D01*
X038965Y03829D01*
X039115D01*
X03904Y03844D02*
X03919Y03829D01*
X039115D02*
X03919Y038365D01*
X03964Y03874D02*
X03934D01*
Y038515D01*
X03949Y03859D01*
X039565D01*
X03964Y038515D01*
Y038365D01*
X039565Y03829D01*
X039415D01*
X03934Y038365D01*
X01845Y038325D02*
X01815D01*
X018075Y03825D01*
Y0381D01*
X01815Y038025D01*
X01845D01*
X018525Y0381D01*
Y03825D01*
X018375Y038175D02*
X018525Y038325D01*
Y03825D02*
X01845Y038325D01*
X018525Y038775D02*
Y038475D01*
X018225Y038775D01*
X01815D01*
X018075Y0387D01*
Y03855D01*
X01815Y038475D01*
X046225Y03825D02*
Y03855D01*
X04615Y038625D01*
X046D01*
X045925Y03855D01*
Y03825D01*
X046Y038175D01*
X04615D01*
X046075Y038325D02*
X046225Y038175D01*
X04615D02*
X046225Y03825D01*
X046675Y038625D02*
X046525Y03855D01*
X046375Y0384D01*
Y03825D01*
X04645Y038175D01*
X0466D01*
X046675Y03825D01*
Y038325D01*
X0466Y0384D01*
X046375D01*
X02545Y038325D02*
X02515D01*
X025075Y03825D01*
Y0381D01*
X02515Y038025D01*
X02545D01*
X025525Y0381D01*
Y03825D01*
X025375Y038175D02*
X025525Y038325D01*
Y03825D02*
X02545Y038325D01*
X02515Y038475D02*
X025075Y03855D01*
Y0387D01*
X02515Y038775D01*
X025225D01*
X0253Y0387D01*
Y038625D01*
Y0387D01*
X025375Y038775D01*
X02545D01*
X025525Y0387D01*
Y03855D01*
X02545Y038475D01*
X053225Y03825D02*
Y03855D01*
X05315Y038625D01*
X053D01*
X052925Y03855D01*
Y03825D01*
X053Y038175D01*
X05315D01*
X053075Y038325D02*
X053225Y038175D01*
X05315D02*
X053225Y03825D01*
X053375Y038625D02*
X053675D01*
Y03855D01*
X053375Y03825D01*
Y038175D01*
X03245Y038325D02*
X03215D01*
X032075Y03825D01*
Y0381D01*
X03215Y038025D01*
X03245D01*
X032525Y0381D01*
Y03825D01*
X032375Y038175D02*
X032525Y038325D01*
Y03825D02*
X03245Y038325D01*
X032525Y0387D02*
X032075D01*
X0323Y038475D01*
Y038775D01*
X060225Y03825D02*
Y03855D01*
X06015Y038625D01*
X06D01*
X059925Y03855D01*
Y03825D01*
X06Y038175D01*
X06015D01*
X060075Y038325D02*
X060225Y038175D01*
X06015D02*
X060225Y03825D01*
X060375Y03855D02*
X06045Y038625D01*
X0606D01*
X060675Y03855D01*
Y038475D01*
X0606Y0384D01*
X060675Y038325D01*
Y03825D01*
X0606Y038175D01*
X06045D01*
X060375Y03825D01*
Y038325D01*
X06045Y0384D01*
X060375Y038475D01*
Y03855D01*
X06045Y0384D02*
X0606D01*
X007425Y036425D02*
Y036875D01*
X00765D01*
X007725Y0368D01*
Y03665D01*
X00765Y036575D01*
X007425D01*
X007575D02*
X007725Y036425D01*
X008175Y036875D02*
X007875D01*
Y03665D01*
X008025Y036725D01*
X0081D01*
X008175Y03665D01*
Y0365D01*
X0081Y036425D01*
X00795D01*
X007875Y0365D01*
X034988Y036425D02*
Y036875D01*
X035213D01*
X035288Y0368D01*
Y03665D01*
X035213Y036575D01*
X034988D01*
X035138D02*
X035288Y036425D01*
X035438D02*
X035587D01*
X035513D01*
Y036875D01*
X035438Y0368D01*
X035812Y036875D02*
X036112D01*
Y0368D01*
X035812Y0365D01*
Y036425D01*
X010025Y025425D02*
Y025875D01*
X01025D01*
X010325Y0258D01*
Y02565D01*
X01025Y025575D01*
X010025D01*
X010175D02*
X010325Y025425D01*
X010475Y0255D02*
X01055Y025425D01*
X0107D01*
X010775Y0255D01*
Y0258D01*
X0107Y025875D01*
X01055D01*
X010475Y0258D01*
Y025725D01*
X01055Y02565D01*
X010775D01*
X037975Y025425D02*
Y025875D01*
X0382D01*
X038275Y0258D01*
Y02565D01*
X0382Y025575D01*
X037975D01*
X038125D02*
X038275Y025425D01*
X038725D02*
X038425D01*
X038725Y025725D01*
Y0258D01*
X03865Y025875D01*
X0385D01*
X038425Y0258D01*
X038875Y025425D02*
X039025D01*
X03895D01*
Y025875D01*
X038875Y0258D01*
X012775Y03805D02*
X012325D01*
Y038275D01*
X0124Y03835D01*
X01255D01*
X012625Y038275D01*
Y03805D01*
Y0382D02*
X012775Y03835D01*
Y0385D02*
Y03865D01*
Y038575D01*
X012325D01*
X0124Y0385D01*
X040775Y038088D02*
X040325D01*
Y038313D01*
X0404Y038388D01*
X04055D01*
X040625Y038313D01*
Y038088D01*
Y038238D02*
X040775Y038388D01*
Y038538D02*
Y038687D01*
Y038613D01*
X040325D01*
X0404Y038538D01*
Y038912D02*
X040325Y038987D01*
Y039137D01*
X0404Y039212D01*
X040475D01*
X04055Y039137D01*
Y039062D01*
Y039137D01*
X040625Y039212D01*
X0407D01*
X040775Y039137D01*
Y038987D01*
X0407Y038912D01*
X014425Y036425D02*
Y036875D01*
X01465D01*
X014725Y0368D01*
Y03665D01*
X01465Y036575D01*
X014425D01*
X014575D02*
X014725Y036425D01*
X015175Y036875D02*
X015025Y0368D01*
X014875Y03665D01*
Y0365D01*
X01495Y036425D01*
X0151D01*
X015175Y0365D01*
Y036575D01*
X0151Y03665D01*
X014875D01*
X041988Y036425D02*
Y036875D01*
X042213D01*
X042288Y0368D01*
Y03665D01*
X042213Y036575D01*
X041988D01*
X042138D02*
X042288Y036425D01*
X042438D02*
X042587D01*
X042513D01*
Y036875D01*
X042438Y0368D01*
X042812D02*
X042887Y036875D01*
X043037D01*
X043112Y0368D01*
Y036725D01*
X043037Y03665D01*
X043112Y036575D01*
Y0365D01*
X043037Y036425D01*
X042887D01*
X042812Y0365D01*
Y036575D01*
X042887Y03665D01*
X042812Y036725D01*
Y0368D01*
X042887Y03665D02*
X043037D01*
X016988Y025425D02*
Y025875D01*
X017213D01*
X017288Y0258D01*
Y02565D01*
X017213Y025575D01*
X016988D01*
X017138D02*
X017288Y025425D01*
X017438D02*
X017587D01*
X017513D01*
Y025875D01*
X017438Y0258D01*
X017812D02*
X017887Y025875D01*
X018037D01*
X018112Y0258D01*
Y0255D01*
X018037Y025425D01*
X017887D01*
X017812Y0255D01*
Y0258D01*
X04495Y025425D02*
Y025875D01*
X045175D01*
X04525Y0258D01*
Y02565D01*
X045175Y025575D01*
X04495D01*
X0451D02*
X04525Y025425D01*
X0457D02*
X0454D01*
X0457Y025725D01*
Y0258D01*
X045625Y025875D01*
X045475D01*
X0454Y0258D01*
X04615Y025425D02*
X04585D01*
X04615Y025725D01*
Y0258D01*
X046075Y025875D01*
X045925D01*
X04585Y0258D01*
X019775Y038025D02*
X019325D01*
Y03825D01*
X0194Y038325D01*
X01955D01*
X019625Y03825D01*
Y038025D01*
Y038175D02*
X019775Y038325D01*
Y038775D02*
Y038475D01*
X019475Y038775D01*
X0194D01*
X019325Y0387D01*
Y03855D01*
X0194Y038475D01*
X047775Y038088D02*
X047325D01*
Y038313D01*
X0474Y038388D01*
X04755D01*
X047625Y038313D01*
Y038088D01*
Y038238D02*
X047775Y038388D01*
Y038538D02*
Y038687D01*
Y038613D01*
X047325D01*
X0474Y038538D01*
X047775Y039137D02*
X047325D01*
X04755Y038912D01*
Y039212D01*
X021425Y036425D02*
Y036875D01*
X02165D01*
X021725Y0368D01*
Y03665D01*
X02165Y036575D01*
X021425D01*
X021575D02*
X021725Y036425D01*
X021875Y036875D02*
X022175D01*
Y0368D01*
X021875Y0365D01*
Y036425D01*
X048988D02*
Y036875D01*
X049213D01*
X049288Y0368D01*
Y03665D01*
X049213Y036575D01*
X048988D01*
X049138D02*
X049288Y036425D01*
X049438D02*
X049587D01*
X049513D01*
Y036875D01*
X049438Y0368D01*
X049812Y0365D02*
X049887Y036425D01*
X050037D01*
X050112Y0365D01*
Y0368D01*
X050037Y036875D01*
X049887D01*
X049812Y0368D01*
Y036725D01*
X049887Y03665D01*
X050112D01*
X024013Y025425D02*
Y025875D01*
X024238D01*
X024313Y0258D01*
Y02565D01*
X024238Y025575D01*
X024013D01*
X024163D02*
X024313Y025425D01*
X024463D02*
X024612D01*
X024537D01*
Y025875D01*
X024463Y0258D01*
X024837Y025425D02*
X024987D01*
X024912D01*
Y025875D01*
X024837Y0258D01*
X052Y025425D02*
Y025875D01*
X052225D01*
X0523Y0258D01*
Y02565D01*
X052225Y025575D01*
X052D01*
X05215D02*
X0523Y025425D01*
X05275D02*
X05245D01*
X05275Y025725D01*
Y0258D01*
X052675Y025875D01*
X052525D01*
X05245Y0258D01*
X0529D02*
X052975Y025875D01*
X053125D01*
X0532Y0258D01*
Y025725D01*
X053125Y02565D01*
X05305D01*
X053125D01*
X0532Y025575D01*
Y0255D01*
X053125Y025425D01*
X052975D01*
X0529Y0255D01*
X026775Y038025D02*
X026325D01*
Y03825D01*
X0264Y038325D01*
X02655D01*
X026625Y03825D01*
Y038025D01*
Y038175D02*
X026775Y038325D01*
X0264Y038475D02*
X026325Y03855D01*
Y0387D01*
X0264Y038775D01*
X026475D01*
X02655Y0387D01*
Y038625D01*
Y0387D01*
X026625Y038775D01*
X0267D01*
X026775Y0387D01*
Y03855D01*
X0267Y038475D01*
X054775Y038088D02*
X054325D01*
Y038313D01*
X0544Y038388D01*
X05455D01*
X054625Y038313D01*
Y038088D01*
Y038238D02*
X054775Y038388D01*
Y038538D02*
Y038687D01*
Y038613D01*
X054325D01*
X0544Y038538D01*
X054325Y039212D02*
Y038912D01*
X05455D01*
X054475Y039062D01*
Y039137D01*
X05455Y039212D01*
X0547D01*
X054775Y039137D01*
Y038987D01*
X0547Y038912D01*
X028425Y036425D02*
Y036875D01*
X02865D01*
X028725Y0368D01*
Y03665D01*
X02865Y036575D01*
X028425D01*
X028575D02*
X028725Y036425D01*
X028875Y0368D02*
X02895Y036875D01*
X0291D01*
X029175Y0368D01*
Y036725D01*
X0291Y03665D01*
X029175Y036575D01*
Y0365D01*
X0291Y036425D01*
X02895D01*
X028875Y0365D01*
Y036575D01*
X02895Y03665D01*
X028875Y036725D01*
Y0368D01*
X02895Y03665D02*
X0291D01*
X05595Y036425D02*
Y036875D01*
X056175D01*
X05625Y0368D01*
Y03665D01*
X056175Y036575D01*
X05595D01*
X0561D02*
X05625Y036425D01*
X0567D02*
X0564D01*
X0567Y036725D01*
Y0368D01*
X056625Y036875D01*
X056475D01*
X0564Y0368D01*
X05685D02*
X056925Y036875D01*
X057075D01*
X05715Y0368D01*
Y0365D01*
X057075Y036425D01*
X056925D01*
X05685Y0365D01*
Y0368D01*
X031038Y025425D02*
Y025875D01*
X031263D01*
X031338Y0258D01*
Y02565D01*
X031263Y025575D01*
X031038D01*
X031188D02*
X031338Y025425D01*
X031488D02*
X031637D01*
X031563D01*
Y025875D01*
X031488Y0258D01*
X032162Y025425D02*
X031862D01*
X032162Y025725D01*
Y0258D01*
X032087Y025875D01*
X031937D01*
X031862Y0258D01*
X05895Y025425D02*
Y025875D01*
X059175D01*
X05925Y0258D01*
Y02565D01*
X059175Y025575D01*
X05895D01*
X0591D02*
X05925Y025425D01*
X0597D02*
X0594D01*
X0597Y025725D01*
Y0258D01*
X059625Y025875D01*
X059475D01*
X0594Y0258D01*
X060075Y025425D02*
Y025875D01*
X05985Y02565D01*
X06015D01*
X033775Y038025D02*
X033325D01*
Y03825D01*
X0334Y038325D01*
X03355D01*
X033625Y03825D01*
Y038025D01*
Y038175D02*
X033775Y038325D01*
Y0387D02*
X033325D01*
X03355Y038475D01*
Y038775D01*
X061775Y035088D02*
X061325D01*
Y035313D01*
X0614Y035388D01*
X06155D01*
X061625Y035313D01*
Y035088D01*
Y035238D02*
X061775Y035388D01*
Y035538D02*
Y035687D01*
Y035613D01*
X061325D01*
X0614Y035538D01*
X061325Y036212D02*
X0614Y036062D01*
X06155Y035912D01*
X0617D01*
X061775Y035987D01*
Y036137D01*
X0617Y036212D01*
X061625D01*
X06155Y036137D01*
Y035912D01*
X011025Y027425D02*
Y027875D01*
X01125D01*
X011325Y0278D01*
Y02765D01*
X01125Y027575D01*
X011025D01*
X011175D02*
X011325Y027425D01*
X011475Y027875D02*
Y027425D01*
X011775D01*
X011925D02*
X012075D01*
X012D01*
Y027875D01*
X011925Y0278D01*
X03895Y027425D02*
Y027875D01*
X039175D01*
X03925Y0278D01*
Y02765D01*
X039175Y027575D01*
X03895D01*
X0391D02*
X03925Y027425D01*
X0394Y027875D02*
Y027425D01*
X0397D01*
X04015Y027875D02*
X03985D01*
Y02765D01*
X04Y027725D01*
X040075D01*
X04015Y02765D01*
Y0275D01*
X040075Y027425D01*
X039925D01*
X03985Y0275D01*
X01795Y027425D02*
Y027875D01*
X018175D01*
X01825Y0278D01*
Y02765D01*
X018175Y027575D01*
X01795D01*
X0181D02*
X01825Y027425D01*
X0184Y027875D02*
Y027425D01*
X0187D01*
X01915D02*
X01885D01*
X01915Y027725D01*
Y0278D01*
X019075Y027875D01*
X018925D01*
X01885Y0278D01*
X04595Y027425D02*
Y027875D01*
X046175D01*
X04625Y0278D01*
Y02765D01*
X046175Y027575D01*
X04595D01*
X0461D02*
X04625Y027425D01*
X0464Y027875D02*
Y027425D01*
X0467D01*
X04715Y027875D02*
X047Y0278D01*
X04685Y02765D01*
Y0275D01*
X046925Y027425D01*
X047075D01*
X04715Y0275D01*
Y027575D01*
X047075Y02765D01*
X04685D01*
X02495Y027425D02*
Y027875D01*
X025175D01*
X02525Y0278D01*
Y02765D01*
X025175Y027575D01*
X02495D01*
X0251D02*
X02525Y027425D01*
X0254Y027875D02*
Y027425D01*
X0257D01*
X02585Y0278D02*
X025925Y027875D01*
X026075D01*
X02615Y0278D01*
Y027725D01*
X026075Y02765D01*
X026D01*
X026075D01*
X02615Y027575D01*
Y0275D01*
X026075Y027425D01*
X025925D01*
X02585Y0275D01*
X05295Y027425D02*
Y027875D01*
X053175D01*
X05325Y0278D01*
Y02765D01*
X053175Y027575D01*
X05295D01*
X0531D02*
X05325Y027425D01*
X0534Y027875D02*
Y027425D01*
X0537D01*
X05385Y027875D02*
X05415D01*
Y0278D01*
X05385Y0275D01*
Y027425D01*
X03195D02*
Y027875D01*
X032175D01*
X03225Y0278D01*
Y02765D01*
X032175Y027575D01*
X03195D01*
X0321D02*
X03225Y027425D01*
X0324Y027875D02*
Y027425D01*
X0327D01*
X033075D02*
Y027875D01*
X03285Y02765D01*
X03315D01*
X05995Y027425D02*
Y027875D01*
X060175D01*
X06025Y0278D01*
Y02765D01*
X060175Y027575D01*
X05995D01*
X0601D02*
X06025Y027425D01*
X0604Y027875D02*
Y027425D01*
X0607D01*
X06085Y0278D02*
X060925Y027875D01*
X061075D01*
X06115Y0278D01*
Y027725D01*
X061075Y02765D01*
X06115Y027575D01*
Y0275D01*
X061075Y027425D01*
X060925D01*
X06085Y0275D01*
Y027575D01*
X060925Y02765D01*
X06085Y027725D01*
Y0278D01*
X060925Y02765D02*
X061075D01*
X061325Y025813D02*
Y025963D01*
Y025888D01*
X061775D01*
Y025813D01*
Y025963D01*
Y026187D02*
X061325D01*
X061775Y026487D01*
X061325D01*
X060425Y02475D02*
Y0246D01*
Y024675D01*
X0608D01*
X060875Y0246D01*
Y024525D01*
X0608Y02445D01*
X0605Y0249D02*
X060425Y024975D01*
Y025125D01*
X0605Y0252D01*
X060575D01*
X06065Y025125D01*
Y02505D01*
Y025125D01*
X060725Y0252D01*
X0608D01*
X060875Y025125D01*
Y024975D01*
X0608Y0249D01*
X060875Y02565D02*
Y02535D01*
X060575Y02565D01*
X0605D01*
X060425Y025575D01*
Y025425D01*
X0605Y02535D01*
X060375Y041625D02*
Y041475D01*
X06045Y0414D01*
X06075D01*
X060825Y041475D01*
Y041625D01*
X06075Y0417D01*
X06045D01*
X060375Y041625D01*
Y04185D02*
X06075D01*
X060825Y041925D01*
Y042075D01*
X06075Y04215D01*
X060375D01*
Y0423D02*
Y0426D01*
Y04245D01*
X060825D01*
X06125Y043375D02*
X0611D01*
X061175D01*
Y043D01*
X0611Y042925D01*
X061025D01*
X06095Y043D01*
X0614Y0433D02*
X061475Y043375D01*
X061625D01*
X0617Y0433D01*
Y043225D01*
X061625Y04315D01*
X06155D01*
X061625D01*
X0617Y043075D01*
Y043D01*
X061625Y042925D01*
X061475D01*
X0614Y043D01*
X06185Y0433D02*
X061925Y043375D01*
X062075D01*
X06215Y0433D01*
Y043225D01*
X062075Y04315D01*
X062D01*
X062075D01*
X06215Y043075D01*
Y043D01*
X062075Y042925D01*
X061925D01*
X06185Y043D01*
D11*
X0432Y04565D02*
X0434D01*
X0433D01*
Y04505D01*
X0432D01*
X0434D01*
X0437D02*
Y04565D01*
X0441Y04505D01*
Y04565D01*
X0447D02*
X0445Y04555D01*
X0443Y04535D01*
Y04515D01*
X0444Y04505D01*
X0446D01*
X0447Y04515D01*
Y04525D01*
X0446Y04535D01*
X0443D01*
X02245Y04565D02*
X02265D01*
X02255D01*
Y04505D01*
X02245D01*
X02265D01*
X02295D02*
Y04565D01*
X02335Y04505D01*
Y04565D01*
X02355Y04555D02*
X02365Y04565D01*
X02385D01*
X02395Y04555D01*
Y04545D01*
X02385Y04535D01*
X02375D01*
X02385D01*
X02395Y04525D01*
Y04515D01*
X02385Y04505D01*
X02365D01*
X02355Y04515D01*
X02945Y04565D02*
X02965D01*
X02955D01*
Y04505D01*
X02945D01*
X02965D01*
X02995D02*
Y04565D01*
X03035Y04505D01*
Y04565D01*
X03085Y04505D02*
Y04565D01*
X03055Y04535D01*
X03095D01*
X03645Y04565D02*
X03665D01*
X03655D01*
Y04505D01*
X03645D01*
X03665D01*
X03695D02*
Y04565D01*
X03735Y04505D01*
Y04565D01*
X03795D02*
X03755D01*
Y04535D01*
X03775Y04545D01*
X03785D01*
X03795Y04535D01*
Y04515D01*
X03785Y04505D01*
X03765D01*
X03755Y04515D01*
X05045Y04565D02*
X05065D01*
X05055D01*
Y04505D01*
X05045D01*
X05065D01*
X05095D02*
Y04565D01*
X05135Y04505D01*
Y04565D01*
X05155D02*
X05195D01*
Y04555D01*
X05155Y04515D01*
Y04505D01*
X01545Y04565D02*
X01565D01*
X01555D01*
Y04505D01*
X01545D01*
X01565D01*
X01595D02*
Y04565D01*
X01635Y04505D01*
Y04565D01*
X01695Y04505D02*
X01655D01*
X01695Y04545D01*
Y04555D01*
X01685Y04565D01*
X01665D01*
X01655Y04555D01*
X05745Y04565D02*
X05765D01*
X05755D01*
Y04505D01*
X05745D01*
X05765D01*
X05795D02*
Y04565D01*
X05835Y04505D01*
Y04565D01*
X05855Y04555D02*
X05865Y04565D01*
X05885D01*
X05895Y04555D01*
Y04545D01*
X05885Y04535D01*
X05895Y04525D01*
Y04515D01*
X05885Y04505D01*
X05865D01*
X05855Y04515D01*
Y04525D01*
X05865Y04535D01*
X05855Y04545D01*
Y04555D01*
X05865Y04535D02*
X05885D01*
X0077Y04555D02*
X0081Y04515D01*
X0077D02*
X0081Y04555D01*
X0077Y04535D02*
X0081D01*
X0079Y04515D02*
Y04555D01*
X0083Y04565D02*
X0085D01*
X0084D01*
Y04505D01*
X0083D01*
X0085D01*
X0088D02*
Y04565D01*
X0092Y04505D01*
Y04565D01*
X009399Y04505D02*
X009599D01*
X009499D01*
Y04565D01*
X009399Y04555D01*
X009899D02*
X010299Y04515D01*
X009899D02*
X010299Y04555D01*
X009899Y04535D02*
X010299D01*
X010099Y04515D02*
Y04555D01*
D12*
X06205Y033325D02*
D03*
D13*
X009225Y03765D02*
D03*
X037225D02*
D03*
X009225Y02465D02*
D03*
X037225D02*
D03*
X016225Y03765D02*
D03*
X044225D02*
D03*
X016225Y02465D02*
D03*
X044225D02*
D03*
X023225Y03765D02*
D03*
X051225D02*
D03*
X023225Y02465D02*
D03*
X051225D02*
D03*
X030225Y03765D02*
D03*
X058225D02*
D03*
X030225Y02465D02*
D03*
X058225D02*
D03*
D14*
X010312Y036629D02*
D03*
X038312D02*
D03*
X017312D02*
D03*
X045312D02*
D03*
X024312D02*
D03*
X052312Y036629D02*
D03*
X031312D02*
D03*
X059312Y036629D02*
D03*
M02*
