G04*
G04 #@! TF.GenerationSoftware,Altium Limited,Altium Designer,21.6.1 (37)*
G04*
G04 Layer_Color=255*
%FSTAX24Y24*%
%MOIN*%
G70*
G04*
G04 #@! TF.SameCoordinates,59C10F7D-216A-4877-8410-82FF31B31C47*
G04*
G04*
G04 #@! TF.FilePolarity,Positive*
G04*
G01*
G75*
%ADD16R,0.0300X0.0488*%
%ADD34O,0.0600X0.0800*%
G04:AMPARAMS|DCode=35|XSize=80mil|YSize=60mil|CornerRadius=15mil|HoleSize=0mil|Usage=FLASHONLY|Rotation=270.000|XOffset=0mil|YOffset=0mil|HoleType=Round|Shape=RoundedRectangle|*
%AMROUNDEDRECTD35*
21,1,0.0800,0.0300,0,0,270.0*
21,1,0.0500,0.0600,0,0,270.0*
1,1,0.0300,-0.0150,-0.0250*
1,1,0.0300,-0.0150,0.0250*
1,1,0.0300,0.0150,0.0250*
1,1,0.0300,0.0150,-0.0250*
%
%ADD35ROUNDEDRECTD35*%
%ADD36C,0.1200*%
G04:AMPARAMS|DCode=37|XSize=157.5mil|YSize=59.1mil|CornerRadius=14.8mil|HoleSize=0mil|Usage=FLASHONLY|Rotation=270.000|XOffset=0mil|YOffset=0mil|HoleType=Round|Shape=RoundedRectangle|*
%AMROUNDEDRECTD37*
21,1,0.1575,0.0295,0,0,270.0*
21,1,0.1280,0.0591,0,0,270.0*
1,1,0.0295,-0.0148,-0.0640*
1,1,0.0295,-0.0148,0.0640*
1,1,0.0295,0.0148,0.0640*
1,1,0.0295,0.0148,-0.0640*
%
%ADD37ROUNDEDRECTD37*%
G04:AMPARAMS|DCode=38|XSize=157.5mil|YSize=59.1mil|CornerRadius=14.8mil|HoleSize=0mil|Usage=FLASHONLY|Rotation=180.000|XOffset=0mil|YOffset=0mil|HoleType=Round|Shape=RoundedRectangle|*
%AMROUNDEDRECTD38*
21,1,0.1575,0.0295,0,0,180.0*
21,1,0.1280,0.0591,0,0,180.0*
1,1,0.0295,-0.0640,0.0148*
1,1,0.0295,0.0640,0.0148*
1,1,0.0295,0.0640,-0.0148*
1,1,0.0295,-0.0640,-0.0148*
%
%ADD38ROUNDEDRECTD38*%
%ADD39O,0.0800X0.0600*%
G04:AMPARAMS|DCode=40|XSize=80mil|YSize=60mil|CornerRadius=15mil|HoleSize=0mil|Usage=FLASHONLY|Rotation=180.000|XOffset=0mil|YOffset=0mil|HoleType=Round|Shape=RoundedRectangle|*
%AMROUNDEDRECTD40*
21,1,0.0800,0.0300,0,0,180.0*
21,1,0.0500,0.0600,0,0,180.0*
1,1,0.0300,-0.0250,0.0150*
1,1,0.0300,0.0250,0.0150*
1,1,0.0300,0.0250,-0.0150*
1,1,0.0300,-0.0250,-0.0150*
%
%ADD40ROUNDEDRECTD40*%
%ADD41C,0.0700*%
%ADD42C,0.0900*%
%ADD44R,0.0500X0.0180*%
G04:AMPARAMS|DCode=45|XSize=39.4mil|YSize=27.6mil|CornerRadius=6.9mil|HoleSize=0mil|Usage=FLASHONLY|Rotation=90.000|XOffset=0mil|YOffset=0mil|HoleType=Round|Shape=RoundedRectangle|*
%AMROUNDEDRECTD45*
21,1,0.0394,0.0138,0,0,90.0*
21,1,0.0256,0.0276,0,0,90.0*
1,1,0.0138,0.0069,0.0128*
1,1,0.0138,0.0069,-0.0128*
1,1,0.0138,-0.0069,-0.0128*
1,1,0.0138,-0.0069,0.0128*
%
%ADD45ROUNDEDRECTD45*%
G04:AMPARAMS|DCode=46|XSize=59.1mil|YSize=118.1mil|CornerRadius=14.8mil|HoleSize=0mil|Usage=FLASHONLY|Rotation=90.000|XOffset=0mil|YOffset=0mil|HoleType=Round|Shape=RoundedRectangle|*
%AMROUNDEDRECTD46*
21,1,0.0591,0.0886,0,0,90.0*
21,1,0.0295,0.1181,0,0,90.0*
1,1,0.0295,0.0443,0.0148*
1,1,0.0295,0.0443,-0.0148*
1,1,0.0295,-0.0443,-0.0148*
1,1,0.0295,-0.0443,0.0148*
%
%ADD46ROUNDEDRECTD46*%
D16*
X0542Y02645D02*
D03*
X0533D02*
D03*
X05585D02*
D03*
X05495D02*
D03*
D34*
X01005Y02665D02*
D03*
X00905D02*
D03*
X03805D02*
D03*
X03705D02*
D03*
X01705D02*
D03*
X01605D02*
D03*
X04505D02*
D03*
X04405D02*
D03*
X02405D02*
D03*
X02305D02*
D03*
X05205D02*
D03*
X05105D02*
D03*
X03105D02*
D03*
X03005D02*
D03*
X05905D02*
D03*
X05805D02*
D03*
D35*
X00805D02*
D03*
X03605D02*
D03*
X01505D02*
D03*
X04305D02*
D03*
X02205D02*
D03*
X05005D02*
D03*
X02905D02*
D03*
X05705D02*
D03*
D36*
X008066Y02215D02*
D03*
X010034D02*
D03*
X036066D02*
D03*
X038034D02*
D03*
X015066D02*
D03*
X017034D02*
D03*
X043066D02*
D03*
X045034D02*
D03*
X022066D02*
D03*
X024034D02*
D03*
X050066D02*
D03*
X052034D02*
D03*
X029066D02*
D03*
X031034D02*
D03*
X057066D02*
D03*
X059034D02*
D03*
D37*
X007111Y040459D02*
D03*
X035111D02*
D03*
X014111D02*
D03*
X042111D02*
D03*
X021111D02*
D03*
X049111D02*
D03*
X028111D02*
D03*
X056111D02*
D03*
D38*
X00905Y03915D02*
D03*
Y041522D02*
D03*
X03705Y03915D02*
D03*
Y041522D02*
D03*
X01605Y03915D02*
D03*
Y041522D02*
D03*
X04405D02*
D03*
Y03915D02*
D03*
X02305D02*
D03*
Y041522D02*
D03*
X05105Y03915D02*
D03*
Y041522D02*
D03*
X03005Y03915D02*
D03*
Y041522D02*
D03*
X05805Y03915D02*
D03*
Y041522D02*
D03*
D39*
X01255Y04215D02*
D03*
Y04315D02*
D03*
X04055Y04215D02*
D03*
Y04315D02*
D03*
X01955Y04215D02*
D03*
Y04315D02*
D03*
X04755Y04215D02*
D03*
Y04315D02*
D03*
X02655Y04215D02*
D03*
Y04315D02*
D03*
X05455Y04215D02*
D03*
Y04315D02*
D03*
X03355Y04215D02*
D03*
Y04315D02*
D03*
X06155Y02215D02*
D03*
Y02315D02*
D03*
Y02415D02*
D03*
Y03915D02*
D03*
Y04015D02*
D03*
Y04115D02*
D03*
D40*
X01255Y04415D02*
D03*
X04055D02*
D03*
X01955D02*
D03*
X04755D02*
D03*
X02655D02*
D03*
X05455D02*
D03*
X03355D02*
D03*
X06155Y02515D02*
D03*
Y04215D02*
D03*
D41*
X011412Y034363D02*
D03*
X006688D02*
D03*
X039412D02*
D03*
X034688D02*
D03*
X018412D02*
D03*
X013688D02*
D03*
X046412D02*
D03*
X041688D02*
D03*
X025412D02*
D03*
X020688D02*
D03*
X053412D02*
D03*
X048688D02*
D03*
X032412D02*
D03*
X027688D02*
D03*
X060412D02*
D03*
X055688D02*
D03*
D42*
X00905Y03515D02*
D03*
X006688Y029559D02*
D03*
X011412D02*
D03*
X03705Y03515D02*
D03*
X034688Y029559D02*
D03*
X039412D02*
D03*
X01605Y03515D02*
D03*
X013688Y029559D02*
D03*
X018412D02*
D03*
X04405Y03515D02*
D03*
X041688Y029559D02*
D03*
X046412D02*
D03*
X02305Y03515D02*
D03*
X020688Y029559D02*
D03*
X025412D02*
D03*
X05105Y03515D02*
D03*
X048688Y029559D02*
D03*
X053412D02*
D03*
X03005Y03515D02*
D03*
X027688Y029559D02*
D03*
X032412D02*
D03*
X05805Y03515D02*
D03*
X055688Y029559D02*
D03*
X060412D02*
D03*
D44*
X059198Y0304D02*
D03*
Y0309D02*
D03*
Y0314D02*
D03*
Y0319D02*
D03*
Y0324D02*
D03*
Y0329D02*
D03*
Y0334D02*
D03*
Y0339D02*
D03*
X056902Y0339D02*
D03*
Y0334D02*
D03*
Y0329D02*
D03*
Y0324D02*
D03*
Y0319D02*
D03*
Y0314D02*
D03*
Y0309D02*
D03*
Y0304D02*
D03*
D45*
X05355Y02465D02*
D03*
X054456Y02464D02*
D03*
X055371D02*
D03*
D46*
X054456Y022082D02*
D03*
M02*
