M48
;Layer_Color=9474304
;FILE_FORMAT=2:4
INCH,LZ
;TYPE=PLATED
T1F00S00C0.0118
T4F00S00C0.0350
T5F00S00C0.0450
T6F00S00C0.0500
%
T01
X05255Y02465
X05445Y0235
X05455Y0299
X01255Y0359
X01955
X02655
X03355
X04055
X04755
X05455
X05755Y0334
X06004Y03339
X0608Y0329
Y0324
T04
X05005Y02665
X05105
X05205
X05705
X05805
X05905
X06155Y02515
Y02415
Y02315
Y02215
X04505Y02665
X04405
X04305
X03805
X03705
X03605
X03105
X03005
X02905
X02405
X02305
X02205
X01705
X01605
X01505
X01005
X00905
X00805
X006688Y034363
X011412
X013688
X01255Y04215
Y04315
Y04415
X01955
Y04315
Y04215
X02655
Y04315
Y04415
X025412Y034363
X027688
X020688
X018412
X032412
X034688
X039412
X041688
X046412
X04055Y04215
Y04315
Y04415
X03355
Y04315
Y04215
X04755
Y04315
Y04415
X05455
Y04315
Y04215
X06155
Y04115
Y04015
Y03915
X060412Y034363
X055688
X053412
X048688
T05
X048688Y029559
X053412
X055688
X060412
X046412
X041688
X039412
X034688
X032412
X027688
X025412
X020688
X018412
X013688
X011412
X006688
X00905Y03515
X01605
X02305
X03005
X03705
X04405
X05105
X05805
T06
X050066Y02215
X052034
X057066
X059034
X045034
X043066
X038034
X036066
X031034
X029066
X024034
X022066
X017034
X015066
X010034
X008066
M30
