G04*
G04 #@! TF.GenerationSoftware,Altium Limited,Altium Designer,21.6.1 (37)*
G04*
G04 Layer_Physical_Order=1*
G04 Layer_Color=255*
%FSTAX24Y24*%
%MOIN*%
G70*
G04*
G04 #@! TF.SameCoordinates,59C10F7D-216A-4877-8410-82FF31B31C47*
G04*
G04*
G04 #@! TF.FilePolarity,Positive*
G04*
G01*
G75*
%ADD10C,0.0100*%
%ADD11C,0.0150*%
%ADD15R,0.0488X0.0300*%
%ADD16R,0.0300X0.0488*%
%ADD17R,0.0600X0.0400*%
%ADD18R,0.0197X0.0315*%
%ADD32C,0.0070*%
%ADD33C,0.0600*%
%ADD34O,0.0600X0.0800*%
G04:AMPARAMS|DCode=35|XSize=80mil|YSize=60mil|CornerRadius=15mil|HoleSize=0mil|Usage=FLASHONLY|Rotation=270.000|XOffset=0mil|YOffset=0mil|HoleType=Round|Shape=RoundedRectangle|*
%AMROUNDEDRECTD35*
21,1,0.0800,0.0300,0,0,270.0*
21,1,0.0500,0.0600,0,0,270.0*
1,1,0.0300,-0.0150,-0.0250*
1,1,0.0300,-0.0150,0.0250*
1,1,0.0300,0.0150,0.0250*
1,1,0.0300,0.0150,-0.0250*
%
%ADD35ROUNDEDRECTD35*%
%ADD36C,0.1200*%
G04:AMPARAMS|DCode=37|XSize=157.5mil|YSize=59.1mil|CornerRadius=14.8mil|HoleSize=0mil|Usage=FLASHONLY|Rotation=270.000|XOffset=0mil|YOffset=0mil|HoleType=Round|Shape=RoundedRectangle|*
%AMROUNDEDRECTD37*
21,1,0.1575,0.0295,0,0,270.0*
21,1,0.1280,0.0591,0,0,270.0*
1,1,0.0295,-0.0148,-0.0640*
1,1,0.0295,-0.0148,0.0640*
1,1,0.0295,0.0148,0.0640*
1,1,0.0295,0.0148,-0.0640*
%
%ADD37ROUNDEDRECTD37*%
G04:AMPARAMS|DCode=38|XSize=157.5mil|YSize=59.1mil|CornerRadius=14.8mil|HoleSize=0mil|Usage=FLASHONLY|Rotation=180.000|XOffset=0mil|YOffset=0mil|HoleType=Round|Shape=RoundedRectangle|*
%AMROUNDEDRECTD38*
21,1,0.1575,0.0295,0,0,180.0*
21,1,0.1280,0.0591,0,0,180.0*
1,1,0.0295,-0.0640,0.0148*
1,1,0.0295,0.0640,0.0148*
1,1,0.0295,0.0640,-0.0148*
1,1,0.0295,-0.0640,-0.0148*
%
%ADD38ROUNDEDRECTD38*%
%ADD39O,0.0800X0.0600*%
G04:AMPARAMS|DCode=40|XSize=80mil|YSize=60mil|CornerRadius=15mil|HoleSize=0mil|Usage=FLASHONLY|Rotation=180.000|XOffset=0mil|YOffset=0mil|HoleType=Round|Shape=RoundedRectangle|*
%AMROUNDEDRECTD40*
21,1,0.0800,0.0300,0,0,180.0*
21,1,0.0500,0.0600,0,0,180.0*
1,1,0.0300,-0.0250,0.0150*
1,1,0.0300,0.0250,0.0150*
1,1,0.0300,0.0250,-0.0150*
1,1,0.0300,-0.0250,-0.0150*
%
%ADD40ROUNDEDRECTD40*%
%ADD41C,0.0700*%
%ADD42C,0.0900*%
%ADD43C,0.0236*%
G36*
X062688Y018512D02*
X004412D01*
X004412Y045788D01*
X062688D01*
Y018512D01*
D02*
G37*
%LPC*%
G36*
X0548Y044514D02*
X0543D01*
X054295Y044513D01*
X0522D01*
X0522Y044513D01*
X052106Y044501D01*
X052018Y044464D01*
X051943Y044407D01*
X051943Y044407D01*
X05105Y043513D01*
X04745D01*
X047356Y043501D01*
X047268Y043464D01*
X047193Y043407D01*
X047136Y043332D01*
X047099Y043244D01*
X047087Y04315D01*
X047099Y043056D01*
X047136Y042968D01*
X047193Y042893D01*
X047268Y042836D01*
X047356Y042799D01*
X04745Y042787D01*
X049437D01*
Y041289D01*
X049387Y041263D01*
X04934Y041294D01*
X049259Y041311D01*
X048963D01*
X048882Y041294D01*
X048814Y041249D01*
X048768Y04118D01*
X048752Y041099D01*
Y039819D01*
X048768Y039738D01*
X048814Y03967D01*
X048882Y039624D01*
X048963Y039608D01*
X049259D01*
X04934Y039624D01*
X049387Y039655D01*
X049437Y039629D01*
Y03915D01*
Y035557D01*
X049449Y035463D01*
X049486Y035376D01*
X049543Y035301D01*
X049893Y034951D01*
X049968Y034893D01*
X050056Y034857D01*
X05015Y034844D01*
X05015Y034844D01*
X050638D01*
X050642Y034837D01*
X050737Y034742D01*
X050853Y034675D01*
X050983Y03464D01*
X051117D01*
X051247Y034675D01*
X051363Y034742D01*
X051458Y034837D01*
X051525Y034953D01*
X05156Y035083D01*
Y035217D01*
X051525Y035347D01*
X051481Y035423D01*
X051579Y035521D01*
X051579Y035521D01*
X051604Y035557D01*
X051612Y0356D01*
X051612Y0356D01*
Y036346D01*
X05171D01*
Y036954D01*
X05129D01*
Y036346D01*
X051388D01*
Y035646D01*
X051323Y035581D01*
X051247Y035625D01*
X051117Y03566D01*
X050983D01*
X050853Y035625D01*
X050758Y035571D01*
X0503D01*
X050163Y035708D01*
Y038787D01*
X05105D01*
X051079Y038791D01*
X05169D01*
X051771Y038807D01*
X051839Y038853D01*
X051885Y038921D01*
X051901Y039002D01*
Y039298D01*
X051885Y039379D01*
X051839Y039447D01*
X051771Y039493D01*
X05169Y039509D01*
X051079D01*
X05105Y039513D01*
X050163D01*
Y041209D01*
X050213Y041224D01*
X050232Y041196D01*
X050314Y041141D01*
X05041Y041122D01*
X051D01*
Y041522D01*
Y041922D01*
X05041D01*
X050314Y041903D01*
X050232Y041848D01*
X050213Y04182D01*
X050163Y041836D01*
Y042787D01*
X0512D01*
X051294Y042799D01*
X051382Y042836D01*
X051457Y042893D01*
X05235Y043787D01*
X054295D01*
X0543Y043786D01*
X0548D01*
X054882Y043802D01*
X054951Y043849D01*
X054998Y043918D01*
X055014Y044D01*
Y0443D01*
X054998Y044382D01*
X054951Y044451D01*
X054882Y044498D01*
X0548Y044514D01*
D02*
G37*
G36*
X0478D02*
X0473D01*
X047295Y044513D01*
X04525D01*
X04525Y044513D01*
X045156Y044501D01*
X045068Y044464D01*
X044993Y044407D01*
X044993Y044407D01*
X0441Y043513D01*
X04045D01*
X040356Y043501D01*
X040268Y043464D01*
X040193Y043407D01*
X040136Y043332D01*
X040099Y043244D01*
X040087Y04315D01*
X040099Y043056D01*
X040136Y042968D01*
X040193Y042893D01*
X040268Y042836D01*
X040356Y042799D01*
X04045Y042787D01*
X042437D01*
Y041289D01*
X042387Y041263D01*
X04234Y041294D01*
X042259Y041311D01*
X041963D01*
X041882Y041294D01*
X041814Y041249D01*
X041768Y04118D01*
X041752Y041099D01*
Y039819D01*
X041768Y039738D01*
X041814Y03967D01*
X041882Y039624D01*
X041963Y039608D01*
X042259D01*
X04234Y039624D01*
X042387Y039655D01*
X042437Y039629D01*
Y03915D01*
Y0355D01*
X042449Y035406D01*
X042486Y035318D01*
X042543Y035243D01*
X042893Y034893D01*
X042968Y034836D01*
X043056Y034799D01*
X04315Y034787D01*
X04315Y034787D01*
X043692D01*
X043737Y034742D01*
X043853Y034675D01*
X043983Y03464D01*
X044117D01*
X044247Y034675D01*
X044363Y034742D01*
X044458Y034837D01*
X044525Y034953D01*
X04456Y035083D01*
Y035217D01*
X044525Y035347D01*
X044481Y035423D01*
X044579Y035521D01*
X044579Y035521D01*
X044604Y035557D01*
X044612Y0356D01*
X044612Y0356D01*
Y036346D01*
X04471D01*
Y036954D01*
X04429D01*
Y036346D01*
X044388D01*
Y035646D01*
X044323Y035581D01*
X044247Y035625D01*
X044117Y03566D01*
X043983D01*
X043853Y035625D01*
X043737Y035558D01*
X043692Y035513D01*
X0433D01*
X043163Y03565D01*
Y038787D01*
X04405D01*
X044079Y038791D01*
X04469D01*
X044771Y038807D01*
X044839Y038853D01*
X044885Y038921D01*
X044901Y039002D01*
Y039298D01*
X044885Y039379D01*
X044839Y039447D01*
X044771Y039493D01*
X04469Y039509D01*
X044079D01*
X04405Y039513D01*
X043163D01*
Y041209D01*
X043213Y041224D01*
X043232Y041196D01*
X043314Y041141D01*
X04341Y041122D01*
X044D01*
Y041522D01*
Y041922D01*
X04341D01*
X043314Y041903D01*
X043232Y041848D01*
X043213Y04182D01*
X043163Y041836D01*
Y042787D01*
X04425D01*
X044344Y042799D01*
X044432Y042836D01*
X044507Y042893D01*
X0454Y043787D01*
X047295D01*
X0473Y043786D01*
X0478D01*
X047882Y043802D01*
X047951Y043849D01*
X047998Y043918D01*
X048014Y044D01*
Y0443D01*
X047998Y044382D01*
X047951Y044451D01*
X047882Y044498D01*
X0478Y044514D01*
D02*
G37*
G36*
X0408D02*
X0403D01*
X040295Y044513D01*
X0384D01*
X0384Y044513D01*
X038306Y044501D01*
X038218Y044464D01*
X038143Y044407D01*
X038143Y044407D01*
X03725Y043513D01*
X03345D01*
X033356Y043501D01*
X033268Y043464D01*
X033193Y043407D01*
X033136Y043332D01*
X033099Y043244D01*
X033087Y04315D01*
X033099Y043056D01*
X033136Y042968D01*
X033193Y042893D01*
X033268Y042836D01*
X033356Y042799D01*
X03345Y042787D01*
X035437D01*
Y041289D01*
X035387Y041263D01*
X03534Y041294D01*
X035259Y041311D01*
X034963D01*
X034882Y041294D01*
X034814Y041249D01*
X034768Y04118D01*
X034752Y041099D01*
Y039819D01*
X034768Y039738D01*
X034814Y03967D01*
X034882Y039624D01*
X034963Y039608D01*
X035259D01*
X03534Y039624D01*
X035387Y039655D01*
X035437Y039629D01*
Y03915D01*
Y03546D01*
X035449Y035366D01*
X035486Y035278D01*
X035543Y035203D01*
X035843Y034903D01*
X035918Y034846D01*
X036006Y034809D01*
X0361Y034797D01*
X036682D01*
X036737Y034742D01*
X036853Y034675D01*
X036983Y03464D01*
X037117D01*
X037247Y034675D01*
X037363Y034742D01*
X037458Y034837D01*
X037525Y034953D01*
X03756Y035083D01*
Y035217D01*
X037525Y035347D01*
X037481Y035423D01*
X037579Y035521D01*
X037579Y035521D01*
X037604Y035557D01*
X037612Y0356D01*
X037612Y0356D01*
Y036346D01*
X03771D01*
Y036954D01*
X03729D01*
Y036346D01*
X037388D01*
Y035646D01*
X037323Y035581D01*
X037247Y035625D01*
X037117Y03566D01*
X036983D01*
X036853Y035625D01*
X036737Y035558D01*
X036702Y035523D01*
X03625D01*
X036163Y03561D01*
Y038787D01*
X03705D01*
X037079Y038791D01*
X03769D01*
X037771Y038807D01*
X037839Y038853D01*
X037885Y038921D01*
X037901Y039002D01*
Y039298D01*
X037885Y039379D01*
X037839Y039447D01*
X037771Y039493D01*
X03769Y039509D01*
X037079D01*
X03705Y039513D01*
X036163D01*
Y041209D01*
X036213Y041224D01*
X036232Y041196D01*
X036314Y041141D01*
X03641Y041122D01*
X037D01*
Y041522D01*
Y041922D01*
X03641D01*
X036314Y041903D01*
X036232Y041848D01*
X036213Y04182D01*
X036163Y041836D01*
Y042787D01*
X0374D01*
X037494Y042799D01*
X037582Y042836D01*
X037657Y042893D01*
X03855Y043787D01*
X040295D01*
X0403Y043786D01*
X0408D01*
X040882Y043802D01*
X040951Y043849D01*
X040998Y043918D01*
X041014Y044D01*
Y0443D01*
X040998Y044382D01*
X040951Y044451D01*
X040882Y044498D01*
X0408Y044514D01*
D02*
G37*
G36*
X0338D02*
X0333D01*
X033295Y044513D01*
X0313D01*
X0313Y044513D01*
X031206Y044501D01*
X031118Y044464D01*
X031043Y044407D01*
X031043Y044407D01*
X03015Y043513D01*
X02645D01*
X026356Y043501D01*
X026268Y043464D01*
X026193Y043407D01*
X026136Y043332D01*
X026099Y043244D01*
X026087Y04315D01*
X026099Y043056D01*
X026136Y042968D01*
X026193Y042893D01*
X026268Y042836D01*
X026356Y042799D01*
X02645Y042787D01*
X028487D01*
Y041221D01*
X028437Y041206D01*
X028408Y041249D01*
X02834Y041294D01*
X028259Y041311D01*
X027963D01*
X027882Y041294D01*
X027814Y041249D01*
X027768Y04118D01*
X027752Y041099D01*
Y039819D01*
X027768Y039738D01*
X027814Y03967D01*
X027882Y039624D01*
X027963Y039608D01*
X028259D01*
X02834Y039624D01*
X028408Y03967D01*
X028437Y039712D01*
X028487Y039697D01*
Y03915D01*
Y035507D01*
X028499Y035413D01*
X028536Y035326D01*
X028593Y035251D01*
X028893Y034951D01*
X028968Y034893D01*
X029056Y034857D01*
X02915Y034844D01*
X029638D01*
X029642Y034837D01*
X029737Y034742D01*
X029853Y034675D01*
X029983Y03464D01*
X030117D01*
X030247Y034675D01*
X030363Y034742D01*
X030458Y034837D01*
X030525Y034953D01*
X03056Y035083D01*
Y035217D01*
X030525Y035347D01*
X030481Y035423D01*
X030579Y035521D01*
X030579Y035521D01*
X030604Y035557D01*
X030612Y0356D01*
X030612Y0356D01*
Y036346D01*
X03071D01*
Y036954D01*
X03029D01*
Y036346D01*
X030388D01*
Y035646D01*
X030323Y035581D01*
X030247Y035625D01*
X030117Y03566D01*
X029983D01*
X029853Y035625D01*
X029758Y035571D01*
X0293D01*
X029213Y035658D01*
Y038787D01*
X03005D01*
X030079Y038791D01*
X03069D01*
X030771Y038807D01*
X030839Y038853D01*
X030885Y038921D01*
X030901Y039002D01*
Y039298D01*
X030885Y039379D01*
X030839Y039447D01*
X030771Y039493D01*
X03069Y039509D01*
X030079D01*
X03005Y039513D01*
X029213D01*
Y041148D01*
X029263Y041175D01*
X029314Y041141D01*
X02941Y041122D01*
X03D01*
Y041522D01*
Y041922D01*
X02941D01*
X029314Y041903D01*
X029263Y041869D01*
X029213Y041896D01*
Y042787D01*
X0303D01*
X030394Y042799D01*
X030482Y042836D01*
X030557Y042893D01*
X03145Y043787D01*
X033295D01*
X0333Y043786D01*
X0338D01*
X033882Y043802D01*
X033951Y043849D01*
X033998Y043918D01*
X034014Y044D01*
Y0443D01*
X033998Y044382D01*
X033951Y044451D01*
X033882Y044498D01*
X0338Y044514D01*
D02*
G37*
G36*
X0268D02*
X0263D01*
X026295Y044513D01*
X02405D01*
X02405Y044513D01*
X023956Y044501D01*
X023868Y044464D01*
X023793Y044407D01*
X023793Y044407D01*
X0229Y043513D01*
X01945D01*
X019356Y043501D01*
X019268Y043464D01*
X019193Y043407D01*
X019136Y043332D01*
X019099Y043244D01*
X019087Y04315D01*
X019099Y043056D01*
X019136Y042968D01*
X019193Y042893D01*
X019268Y042836D01*
X019356Y042799D01*
X01945Y042787D01*
X021487D01*
Y041221D01*
X021437Y041206D01*
X021408Y041249D01*
X02134Y041294D01*
X021259Y041311D01*
X020963D01*
X020882Y041294D01*
X020814Y041249D01*
X020768Y04118D01*
X020752Y041099D01*
Y039819D01*
X020768Y039738D01*
X020814Y03967D01*
X020882Y039624D01*
X020963Y039608D01*
X021259D01*
X02134Y039624D01*
X021408Y03967D01*
X021437Y039712D01*
X021487Y039697D01*
Y03915D01*
Y035635D01*
X021499Y035541D01*
X021536Y035453D01*
X021593Y035378D01*
X022078Y034893D01*
X022078Y034893D01*
X022153Y034836D01*
X022241Y034799D01*
X022335Y034787D01*
X022335Y034787D01*
X022692D01*
X022737Y034742D01*
X022853Y034675D01*
X022983Y03464D01*
X023117D01*
X023247Y034675D01*
X023363Y034742D01*
X023458Y034837D01*
X023525Y034953D01*
X02356Y035083D01*
Y035217D01*
X023525Y035347D01*
X023481Y035423D01*
X023579Y035521D01*
X023579Y035521D01*
X023604Y035557D01*
X023612Y0356D01*
X023612Y0356D01*
Y036346D01*
X02371D01*
Y036954D01*
X02329D01*
Y036346D01*
X023388D01*
Y035646D01*
X023323Y035581D01*
X023247Y035625D01*
X023117Y03566D01*
X022983D01*
X022853Y035625D01*
X022737Y035558D01*
X022692Y035513D01*
X022485D01*
X022213Y035785D01*
Y038787D01*
X02305D01*
X023079Y038791D01*
X02369D01*
X023771Y038807D01*
X023839Y038853D01*
X023885Y038921D01*
X023901Y039002D01*
Y039298D01*
X023885Y039379D01*
X023839Y039447D01*
X023771Y039493D01*
X02369Y039509D01*
X023079D01*
X02305Y039513D01*
X022213D01*
Y041148D01*
X022263Y041175D01*
X022314Y041141D01*
X02241Y041122D01*
X023D01*
Y041522D01*
Y041922D01*
X02241D01*
X022314Y041903D01*
X022263Y041869D01*
X022213Y041896D01*
Y042787D01*
X02305D01*
X023144Y042799D01*
X023232Y042836D01*
X023307Y042893D01*
X0242Y043787D01*
X026295D01*
X0263Y043786D01*
X0268D01*
X026882Y043802D01*
X026951Y043849D01*
X026998Y043918D01*
X027014Y044D01*
Y0443D01*
X026998Y044382D01*
X026951Y044451D01*
X026882Y044498D01*
X0268Y044514D01*
D02*
G37*
G36*
X0198D02*
X0193D01*
X019295Y044513D01*
X01725D01*
X01725Y044513D01*
X017156Y044501D01*
X017068Y044464D01*
X016993Y044407D01*
X016993Y044407D01*
X0161Y043513D01*
X01245D01*
X012356Y043501D01*
X012268Y043464D01*
X012193Y043407D01*
X012136Y043332D01*
X012099Y043244D01*
X012087Y04315D01*
X012099Y043056D01*
X012136Y042968D01*
X012193Y042893D01*
X012268Y042836D01*
X012356Y042799D01*
X01245Y042787D01*
X014437D01*
Y041289D01*
X014387Y041263D01*
X01434Y041294D01*
X014259Y041311D01*
X013963D01*
X013882Y041294D01*
X013814Y041249D01*
X013768Y04118D01*
X013752Y041099D01*
Y039819D01*
X013768Y039738D01*
X013814Y03967D01*
X013882Y039624D01*
X013963Y039608D01*
X014259D01*
X01434Y039624D01*
X014387Y039655D01*
X014437Y039629D01*
Y03915D01*
Y03549D01*
X014449Y035396D01*
X014486Y035308D01*
X014543Y035233D01*
X014843Y034933D01*
X014918Y034876D01*
X015006Y034839D01*
X0151Y034827D01*
X015652D01*
X015737Y034742D01*
X015853Y034675D01*
X015983Y03464D01*
X016117D01*
X016247Y034675D01*
X016363Y034742D01*
X016458Y034837D01*
X016525Y034953D01*
X01656Y035083D01*
Y035217D01*
X016525Y035347D01*
X016481Y035423D01*
X016579Y035521D01*
X016579Y035521D01*
X016604Y035557D01*
X016612Y0356D01*
X016612Y0356D01*
Y036346D01*
X01671D01*
Y036954D01*
X01629D01*
Y036346D01*
X016388D01*
Y035646D01*
X016323Y035581D01*
X016247Y035625D01*
X016117Y03566D01*
X015983D01*
X015853Y035625D01*
X015737Y035558D01*
X015732Y035553D01*
X01525D01*
X015163Y03564D01*
Y038787D01*
X01605D01*
X016079Y038791D01*
X01669D01*
X016771Y038807D01*
X016839Y038853D01*
X016885Y038921D01*
X016901Y039002D01*
Y039298D01*
X016885Y039379D01*
X016839Y039447D01*
X016771Y039493D01*
X01669Y039509D01*
X016079D01*
X01605Y039513D01*
X015163D01*
Y041209D01*
X015213Y041224D01*
X015232Y041196D01*
X015314Y041141D01*
X01541Y041122D01*
X016D01*
Y041522D01*
Y041922D01*
X01541D01*
X015314Y041903D01*
X015232Y041848D01*
X015213Y04182D01*
X015163Y041836D01*
Y042787D01*
X01625D01*
X016344Y042799D01*
X016432Y042836D01*
X016507Y042893D01*
X0174Y043787D01*
X019295D01*
X0193Y043786D01*
X0198D01*
X019882Y043802D01*
X019951Y043849D01*
X019998Y043918D01*
X020014Y044D01*
Y0443D01*
X019998Y044382D01*
X019951Y044451D01*
X019882Y044498D01*
X0198Y044514D01*
D02*
G37*
G36*
X06155Y045354D02*
X061413Y04534D01*
X061281Y0453D01*
X061159Y045235D01*
X061052Y045148D01*
X060965Y045041D01*
X0609Y044919D01*
X06086Y044787D01*
X060846Y04465D01*
X06086Y044513D01*
X0609Y044381D01*
X060965Y044259D01*
X061052Y044152D01*
X061159Y044065D01*
X061281Y044D01*
X061413Y04396D01*
X06155Y043946D01*
X061687Y04396D01*
X061819Y044D01*
X061941Y044065D01*
X062048Y044152D01*
X062135Y044259D01*
X0622Y044381D01*
X06224Y044513D01*
X062254Y04465D01*
X06224Y044787D01*
X0622Y044919D01*
X062135Y045041D01*
X062048Y045148D01*
X061941Y045235D01*
X061819Y0453D01*
X061687Y04534D01*
X06155Y045354D01*
D02*
G37*
G36*
X00555D02*
X005413Y04534D01*
X005281Y0453D01*
X005159Y045235D01*
X005052Y045148D01*
X004965Y045041D01*
X0049Y044919D01*
X00486Y044787D01*
X004846Y04465D01*
X00486Y044513D01*
X0049Y044381D01*
X004965Y044259D01*
X005052Y044152D01*
X005159Y044065D01*
X005281Y044D01*
X005413Y04396D01*
X00555Y043946D01*
X005687Y04396D01*
X005819Y044D01*
X005941Y044065D01*
X006048Y044152D01*
X006135Y044259D01*
X0062Y044381D01*
X00624Y044513D01*
X006254Y04465D01*
X00624Y044787D01*
X0062Y044919D01*
X006135Y045041D01*
X006048Y045148D01*
X005941Y045235D01*
X005819Y0453D01*
X005687Y04534D01*
X00555Y045354D01*
D02*
G37*
G36*
X0128Y044514D02*
X0123D01*
X012295Y044513D01*
X01105D01*
X010956Y044501D01*
X010868Y044464D01*
X010793Y044407D01*
X00965Y043263D01*
X0083D01*
X0083Y043263D01*
X008206Y043251D01*
X008118Y043214D01*
X008043Y043157D01*
X007543Y042657D01*
X007486Y042582D01*
X007449Y042494D01*
X007437Y0424D01*
Y041289D01*
X007387Y041263D01*
X00734Y041294D01*
X007259Y041311D01*
X006963D01*
X006882Y041294D01*
X006814Y041249D01*
X006768Y04118D01*
X006752Y041099D01*
Y039819D01*
X006768Y039738D01*
X006814Y03967D01*
X006882Y039624D01*
X006963Y039608D01*
X007259D01*
X00734Y039624D01*
X007387Y039655D01*
X007437Y039629D01*
Y03915D01*
Y035557D01*
X007449Y035463D01*
X007486Y035376D01*
X007543Y035301D01*
X007893Y034951D01*
X007968Y034893D01*
X008056Y034857D01*
X00815Y034844D01*
X00815Y034844D01*
X008638D01*
X008642Y034837D01*
X008737Y034742D01*
X008853Y034675D01*
X008983Y03464D01*
X009117D01*
X009247Y034675D01*
X009363Y034742D01*
X009458Y034837D01*
X009525Y034953D01*
X00956Y035083D01*
Y035217D01*
X009525Y035347D01*
X009481Y035423D01*
X009579Y035521D01*
X009579Y035521D01*
X009604Y035557D01*
X009612Y0356D01*
X009612Y0356D01*
Y036346D01*
X00971D01*
Y036954D01*
X00929D01*
Y036346D01*
X009388D01*
Y035646D01*
X009323Y035581D01*
X009247Y035625D01*
X009117Y03566D01*
X008983D01*
X008853Y035625D01*
X008758Y035571D01*
X0083D01*
X008163Y035708D01*
Y038787D01*
X00905D01*
X009079Y038791D01*
X00969D01*
X009771Y038807D01*
X009839Y038853D01*
X009885Y038921D01*
X009901Y039002D01*
Y039298D01*
X009885Y039379D01*
X009839Y039447D01*
X009771Y039493D01*
X00969Y039509D01*
X009079D01*
X00905Y039513D01*
X008163D01*
Y041209D01*
X008213Y041224D01*
X008232Y041196D01*
X008314Y041141D01*
X00841Y041122D01*
X009D01*
Y041522D01*
Y041922D01*
X00841D01*
X008314Y041903D01*
X008232Y041848D01*
X008213Y04182D01*
X008163Y041836D01*
Y04225D01*
X00845Y042537D01*
X0098D01*
X009894Y042549D01*
X009982Y042586D01*
X010057Y042643D01*
X0112Y043787D01*
X012295D01*
X0123Y043786D01*
X0128D01*
X012882Y043802D01*
X012951Y043849D01*
X012998Y043918D01*
X013014Y044D01*
Y0443D01*
X012998Y044382D01*
X012951Y044451D01*
X012882Y044498D01*
X0128Y044514D01*
D02*
G37*
G36*
X05465Y042513D02*
X05445D01*
X054356Y042501D01*
X054268Y042464D01*
X054193Y042407D01*
X054136Y042332D01*
X054099Y042244D01*
X054087Y04215D01*
X054099Y042056D01*
X054136Y041968D01*
X054193Y041893D01*
X054268Y041836D01*
X054356Y041799D01*
X05445Y041787D01*
X05465D01*
X054744Y041799D01*
X054832Y041836D01*
X054907Y041893D01*
X054964Y041968D01*
X055001Y042056D01*
X055013Y04215D01*
X055001Y042244D01*
X054964Y042332D01*
X054907Y042407D01*
X054832Y042464D01*
X054744Y042501D01*
X05465Y042513D01*
D02*
G37*
G36*
X04765D02*
X04745D01*
X047356Y042501D01*
X047268Y042464D01*
X047193Y042407D01*
X047136Y042332D01*
X047099Y042244D01*
X047087Y04215D01*
X047099Y042056D01*
X047136Y041968D01*
X047193Y041893D01*
X047268Y041836D01*
X047356Y041799D01*
X04745Y041787D01*
X04765D01*
X047744Y041799D01*
X047832Y041836D01*
X047907Y041893D01*
X047964Y041968D01*
X048001Y042056D01*
X048013Y04215D01*
X048001Y042244D01*
X047964Y042332D01*
X047907Y042407D01*
X047832Y042464D01*
X047744Y042501D01*
X04765Y042513D01*
D02*
G37*
G36*
X04065D02*
X04045D01*
X040356Y042501D01*
X040268Y042464D01*
X040193Y042407D01*
X040136Y042332D01*
X040099Y042244D01*
X040087Y04215D01*
X040099Y042056D01*
X040136Y041968D01*
X040193Y041893D01*
X040268Y041836D01*
X040356Y041799D01*
X04045Y041787D01*
X04065D01*
X040744Y041799D01*
X040832Y041836D01*
X040907Y041893D01*
X040964Y041968D01*
X041001Y042056D01*
X041013Y04215D01*
X041001Y042244D01*
X040964Y042332D01*
X040907Y042407D01*
X040832Y042464D01*
X040744Y042501D01*
X04065Y042513D01*
D02*
G37*
G36*
X03365D02*
X03345D01*
X033356Y042501D01*
X033268Y042464D01*
X033193Y042407D01*
X033136Y042332D01*
X033099Y042244D01*
X033087Y04215D01*
X033099Y042056D01*
X033136Y041968D01*
X033193Y041893D01*
X033268Y041836D01*
X033356Y041799D01*
X03345Y041787D01*
X03365D01*
X033744Y041799D01*
X033832Y041836D01*
X033907Y041893D01*
X033964Y041968D01*
X034001Y042056D01*
X034013Y04215D01*
X034001Y042244D01*
X033964Y042332D01*
X033907Y042407D01*
X033832Y042464D01*
X033744Y042501D01*
X03365Y042513D01*
D02*
G37*
G36*
X02665D02*
X02645D01*
X026356Y042501D01*
X026268Y042464D01*
X026193Y042407D01*
X026136Y042332D01*
X026099Y042244D01*
X026087Y04215D01*
X026099Y042056D01*
X026136Y041968D01*
X026193Y041893D01*
X026268Y041836D01*
X026356Y041799D01*
X02645Y041787D01*
X02665D01*
X026744Y041799D01*
X026832Y041836D01*
X026907Y041893D01*
X026964Y041968D01*
X027001Y042056D01*
X027013Y04215D01*
X027001Y042244D01*
X026964Y042332D01*
X026907Y042407D01*
X026832Y042464D01*
X026744Y042501D01*
X02665Y042513D01*
D02*
G37*
G36*
X01965D02*
X01945D01*
X019356Y042501D01*
X019268Y042464D01*
X019193Y042407D01*
X019136Y042332D01*
X019099Y042244D01*
X019087Y04215D01*
X019099Y042056D01*
X019136Y041968D01*
X019193Y041893D01*
X019268Y041836D01*
X019356Y041799D01*
X01945Y041787D01*
X01965D01*
X019744Y041799D01*
X019832Y041836D01*
X019907Y041893D01*
X019964Y041968D01*
X020001Y042056D01*
X020013Y04215D01*
X020001Y042244D01*
X019964Y042332D01*
X019907Y042407D01*
X019832Y042464D01*
X019744Y042501D01*
X01965Y042513D01*
D02*
G37*
G36*
X01265D02*
X01245D01*
X012356Y042501D01*
X012268Y042464D01*
X012193Y042407D01*
X012136Y042332D01*
X012099Y042244D01*
X012087Y04215D01*
X012099Y042056D01*
X012136Y041968D01*
X012193Y041893D01*
X012268Y041836D01*
X012356Y041799D01*
X01245Y041787D01*
X01265D01*
X012744Y041799D01*
X012832Y041836D01*
X012907Y041893D01*
X012964Y041968D01*
X013001Y042056D01*
X013013Y04215D01*
X013001Y042244D01*
X012964Y042332D01*
X012907Y042407D01*
X012832Y042464D01*
X012744Y042501D01*
X01265Y042513D01*
D02*
G37*
G36*
X0618Y042514D02*
X0613D01*
X061218Y042498D01*
X061149Y042451D01*
X061102Y042382D01*
X061086Y0423D01*
Y042D01*
X061102Y041918D01*
X061149Y041849D01*
X061218Y041802D01*
X0613Y041786D01*
X0618D01*
X061882Y041802D01*
X061951Y041849D01*
X061998Y041918D01*
X062014Y042D01*
Y0423D01*
X061998Y042382D01*
X061951Y042451D01*
X061882Y042498D01*
X0618Y042514D01*
D02*
G37*
G36*
X03769Y041922D02*
X0371D01*
Y041572D01*
X037942D01*
Y04167D01*
X037923Y041766D01*
X037868Y041848D01*
X037786Y041903D01*
X03769Y041922D01*
D02*
G37*
G36*
X01669D02*
X0161D01*
Y041572D01*
X016942D01*
Y04167D01*
X016923Y041766D01*
X016868Y041848D01*
X016786Y041903D01*
X01669Y041922D01*
D02*
G37*
G36*
X05869D02*
X0581D01*
Y041572D01*
X058942D01*
Y04167D01*
X058923Y041766D01*
X058868Y041848D01*
X058786Y041903D01*
X05869Y041922D01*
D02*
G37*
G36*
X04469D02*
X0441D01*
Y041572D01*
X044942D01*
Y04167D01*
X044923Y041766D01*
X044868Y041848D01*
X044786Y041903D01*
X04469Y041922D01*
D02*
G37*
G36*
X03069D02*
X0301D01*
Y041572D01*
X030942D01*
Y04167D01*
X030923Y041766D01*
X030868Y041848D01*
X030786Y041903D01*
X03069Y041922D01*
D02*
G37*
G36*
X00969D02*
X0091D01*
Y041572D01*
X009942D01*
Y04167D01*
X009923Y041766D01*
X009868Y041848D01*
X009786Y041903D01*
X00969Y041922D01*
D02*
G37*
G36*
X05169D02*
X0511D01*
Y041572D01*
X051942D01*
Y04167D01*
X051923Y041766D01*
X051868Y041848D01*
X051786Y041903D01*
X05169Y041922D01*
D02*
G37*
G36*
X02369D02*
X0231D01*
Y041572D01*
X023942D01*
Y04167D01*
X023923Y041766D01*
X023868Y041848D01*
X023786Y041903D01*
X02369Y041922D01*
D02*
G37*
G36*
X056449Y043513D02*
X05445D01*
X054356Y043501D01*
X054268Y043464D01*
X054193Y043407D01*
X054136Y043332D01*
X054099Y043244D01*
X054087Y04315D01*
X054099Y043056D01*
X054136Y042968D01*
X054193Y042893D01*
X054268Y042836D01*
X054356Y042799D01*
X05445Y042787D01*
X056298D01*
X056437Y042648D01*
Y041289D01*
X056387Y041263D01*
X05634Y041294D01*
X056259Y041311D01*
X055963D01*
X055882Y041294D01*
X055814Y041249D01*
X055768Y04118D01*
X055752Y041099D01*
Y039819D01*
X055768Y039738D01*
X055814Y03967D01*
X055882Y039624D01*
X055963Y039608D01*
X056259D01*
X05634Y039624D01*
X056387Y039655D01*
X056437Y039629D01*
Y03915D01*
Y0355D01*
X056449Y035406D01*
X056486Y035318D01*
X056543Y035243D01*
X056893Y034893D01*
X056968Y034836D01*
X057056Y034799D01*
X05715Y034787D01*
X05715Y034787D01*
X057692D01*
X057737Y034742D01*
X057853Y034675D01*
X057983Y03464D01*
X058117D01*
X058247Y034675D01*
X058363Y034742D01*
X058458Y034837D01*
X058525Y034953D01*
X05856Y035083D01*
Y035217D01*
X058525Y035347D01*
X058481Y035423D01*
X058579Y035521D01*
X058579Y035521D01*
X058604Y035557D01*
X058612Y0356D01*
X058612Y0356D01*
Y036346D01*
X058688D01*
Y033571D01*
X058629Y033512D01*
X05769D01*
X057651Y033551D01*
X057585Y033578D01*
X057515D01*
X057449Y033551D01*
X057399Y033501D01*
X057372Y033435D01*
Y033365D01*
X057399Y033299D01*
X057449Y033249D01*
X057515Y033222D01*
X057585D01*
X057651Y033249D01*
X05769Y033288D01*
X058675D01*
X058675Y033288D01*
X058718Y033296D01*
X058754Y033321D01*
X058879Y033446D01*
X058879Y033446D01*
X058904Y033482D01*
X058912Y033525D01*
X058912Y033525D01*
Y035934D01*
X05894Y035973D01*
X058962Y035973D01*
X05966D01*
Y036121D01*
X0603D01*
Y034757D01*
X060254Y034745D01*
X06016Y034691D01*
X060084Y034614D01*
X06003Y034521D01*
X060002Y034417D01*
Y034309D01*
X06003Y034204D01*
X060084Y034111D01*
X06016Y034035D01*
X060254Y033981D01*
X060358Y033953D01*
X060466D01*
X06057Y033981D01*
X060664Y034035D01*
X06074Y034111D01*
X060794Y034204D01*
X060822Y034309D01*
Y034417D01*
X060794Y034521D01*
X06074Y034614D01*
X060664Y034691D01*
X06057Y034745D01*
X060524Y034757D01*
Y036233D01*
Y036433D01*
X060571D01*
Y036867D01*
X060254D01*
Y036433D01*
X0603D01*
Y036345D01*
X05966D01*
Y036493D01*
X058962D01*
X05894Y036493D01*
X058912Y036531D01*
Y036979D01*
X058971Y037038D01*
X061009D01*
X061246Y036801D01*
Y03654D01*
X061854D01*
Y03696D01*
X061405D01*
X061135Y037229D01*
X061099Y037254D01*
X061056Y037262D01*
X061056Y037262D01*
X058925D01*
X058925Y037262D01*
X058882Y037254D01*
X058846Y037229D01*
X058846Y037229D01*
X058721Y037104D01*
X058696Y037068D01*
X058688Y037025D01*
X058688Y037025D01*
Y036954D01*
X05829D01*
Y036346D01*
X058388D01*
Y035646D01*
X058323Y035581D01*
X058247Y035625D01*
X058117Y03566D01*
X057983D01*
X057853Y035625D01*
X057737Y035558D01*
X057692Y035513D01*
X0573D01*
X057163Y03565D01*
Y038787D01*
X05805D01*
X058079Y038791D01*
X05869D01*
X058771Y038807D01*
X058839Y038853D01*
X058885Y038921D01*
X058901Y039002D01*
Y039298D01*
X058885Y039379D01*
X058839Y039447D01*
X058771Y039493D01*
X05869Y039509D01*
X058079D01*
X05805Y039513D01*
X057163D01*
Y041209D01*
X057213Y041224D01*
X057232Y041196D01*
X057314Y041141D01*
X05741Y041122D01*
X058D01*
Y041522D01*
Y041922D01*
X05741D01*
X057314Y041903D01*
X057232Y041848D01*
X057213Y04182D01*
X057163Y041836D01*
Y042799D01*
X057151Y042893D01*
X057114Y04298D01*
X057057Y043055D01*
X057057Y043055D01*
X056705Y043407D01*
X05663Y043464D01*
X056543Y043501D01*
X056449Y043513D01*
D02*
G37*
G36*
X058942Y041472D02*
X0581D01*
Y041122D01*
X05869D01*
X058786Y041141D01*
X058868Y041196D01*
X058923Y041278D01*
X058942Y041374D01*
Y041472D01*
D02*
G37*
G36*
X051942D02*
X0511D01*
Y041122D01*
X05169D01*
X051786Y041141D01*
X051868Y041196D01*
X051923Y041278D01*
X051942Y041374D01*
Y041472D01*
D02*
G37*
G36*
X044942D02*
X0441D01*
Y041122D01*
X04469D01*
X044786Y041141D01*
X044868Y041196D01*
X044923Y041278D01*
X044942Y041374D01*
Y041472D01*
D02*
G37*
G36*
X037942D02*
X0371D01*
Y041122D01*
X03769D01*
X037786Y041141D01*
X037868Y041196D01*
X037923Y041278D01*
X037942Y041374D01*
Y041472D01*
D02*
G37*
G36*
X030942D02*
X0301D01*
Y041122D01*
X03069D01*
X030786Y041141D01*
X030868Y041196D01*
X030923Y041278D01*
X030942Y041374D01*
Y041472D01*
D02*
G37*
G36*
X023942D02*
X0231D01*
Y041122D01*
X02369D01*
X023786Y041141D01*
X023868Y041196D01*
X023923Y041278D01*
X023942Y041374D01*
Y041472D01*
D02*
G37*
G36*
X016942D02*
X0161D01*
Y041122D01*
X01669D01*
X016786Y041141D01*
X016868Y041196D01*
X016923Y041278D01*
X016942Y041374D01*
Y041472D01*
D02*
G37*
G36*
X009942D02*
X0091D01*
Y041122D01*
X00969D01*
X009786Y041141D01*
X009868Y041196D01*
X009923Y041278D01*
X009942Y041374D01*
Y041472D01*
D02*
G37*
G36*
X06165Y041513D02*
X06145D01*
X061356Y041501D01*
X061268Y041464D01*
X061193Y041407D01*
X061136Y041332D01*
X061099Y041244D01*
X061087Y04115D01*
X061099Y041056D01*
X061136Y040968D01*
X061193Y040893D01*
X061268Y040836D01*
X061356Y040799D01*
X06145Y040787D01*
X06165D01*
X061744Y040799D01*
X061832Y040836D01*
X061907Y040893D01*
X061964Y040968D01*
X062001Y041056D01*
X062013Y04115D01*
X062001Y041244D01*
X061964Y041332D01*
X061907Y041407D01*
X061832Y041464D01*
X061744Y041501D01*
X06165Y041513D01*
D02*
G37*
G36*
Y040513D02*
X06145D01*
X061356Y040501D01*
X061268Y040464D01*
X061193Y040407D01*
X061136Y040332D01*
X061099Y040244D01*
X061087Y04015D01*
X061099Y040056D01*
X061136Y039968D01*
X061193Y039893D01*
X061268Y039836D01*
X061356Y039799D01*
X06145Y039787D01*
X06165D01*
X061744Y039799D01*
X061832Y039836D01*
X061907Y039893D01*
X061964Y039968D01*
X062001Y040056D01*
X062013Y04015D01*
X062001Y040244D01*
X061964Y040332D01*
X061907Y040407D01*
X061832Y040464D01*
X061744Y040501D01*
X06165Y040513D01*
D02*
G37*
G36*
Y039553D02*
X0616D01*
Y0392D01*
X062047D01*
X06204Y039254D01*
X061999Y039352D01*
X061935Y039435D01*
X061852Y039499D01*
X061754Y03954D01*
X06165Y039553D01*
D02*
G37*
G36*
X0615D02*
X06145D01*
X061346Y03954D01*
X061248Y039499D01*
X061165Y039435D01*
X061101Y039352D01*
X06106Y039254D01*
X061053Y0392D01*
X0615D01*
Y039553D01*
D02*
G37*
G36*
X062047Y0391D02*
X0616D01*
Y038747D01*
X06165D01*
X061754Y03876D01*
X061852Y038801D01*
X061935Y038865D01*
X061999Y038948D01*
X06204Y039046D01*
X062047Y0391D01*
D02*
G37*
G36*
X0615D02*
X061053D01*
X06106Y039046D01*
X061101Y038948D01*
X061165Y038865D01*
X061248Y038801D01*
X061346Y03876D01*
X06145Y038747D01*
X0615D01*
Y0391D01*
D02*
G37*
G36*
X0597Y03795D02*
X05935D01*
Y0377D01*
X0597D01*
Y03795D01*
D02*
G37*
G36*
X0527D02*
X05235D01*
Y0377D01*
X0527D01*
Y03795D01*
D02*
G37*
G36*
X0457D02*
X04535D01*
Y0377D01*
X0457D01*
Y03795D01*
D02*
G37*
G36*
X0387D02*
X03835D01*
Y0377D01*
X0387D01*
Y03795D01*
D02*
G37*
G36*
X0317D02*
X03135D01*
Y0377D01*
X0317D01*
Y03795D01*
D02*
G37*
G36*
X0247D02*
X02435D01*
Y0377D01*
X0247D01*
Y03795D01*
D02*
G37*
G36*
X0177D02*
X01735D01*
Y0377D01*
X0177D01*
Y03795D01*
D02*
G37*
G36*
X0107D02*
X01035D01*
Y0377D01*
X0107D01*
Y03795D01*
D02*
G37*
G36*
X060237Y037907D02*
X060088D01*
Y0377D01*
X060237D01*
Y037907D01*
D02*
G37*
G36*
X059988D02*
X05984D01*
Y0377D01*
X059988D01*
Y037907D01*
D02*
G37*
G36*
X05875Y037994D02*
X05855D01*
Y0377D01*
X05875D01*
Y037994D01*
D02*
G37*
G36*
X05845D02*
X05825D01*
Y0377D01*
X05845D01*
Y037994D01*
D02*
G37*
G36*
X053237Y037907D02*
X053088D01*
Y0377D01*
X053237D01*
Y037907D01*
D02*
G37*
G36*
X052988D02*
X05284D01*
Y0377D01*
X052988D01*
Y037907D01*
D02*
G37*
G36*
X05175Y037994D02*
X05155D01*
Y0377D01*
X05175D01*
Y037994D01*
D02*
G37*
G36*
X05145D02*
X05125D01*
Y0377D01*
X05145D01*
Y037994D01*
D02*
G37*
G36*
X046237Y037907D02*
X046088D01*
Y0377D01*
X046237D01*
Y037907D01*
D02*
G37*
G36*
X045988D02*
X04584D01*
Y0377D01*
X045988D01*
Y037907D01*
D02*
G37*
G36*
X04475Y037994D02*
X04455D01*
Y0377D01*
X04475D01*
Y037994D01*
D02*
G37*
G36*
X04445D02*
X04425D01*
Y0377D01*
X04445D01*
Y037994D01*
D02*
G37*
G36*
X039237Y037907D02*
X039088D01*
Y0377D01*
X039237D01*
Y037907D01*
D02*
G37*
G36*
X038988D02*
X03884D01*
Y0377D01*
X038988D01*
Y037907D01*
D02*
G37*
G36*
X03775Y037994D02*
X03755D01*
Y0377D01*
X03775D01*
Y037994D01*
D02*
G37*
G36*
X03745D02*
X03725D01*
Y0377D01*
X03745D01*
Y037994D01*
D02*
G37*
G36*
X032237Y037907D02*
X032088D01*
Y0377D01*
X032237D01*
Y037907D01*
D02*
G37*
G36*
X031988D02*
X03184D01*
Y0377D01*
X031988D01*
Y037907D01*
D02*
G37*
G36*
X03075Y037994D02*
X03055D01*
Y0377D01*
X03075D01*
Y037994D01*
D02*
G37*
G36*
X03045D02*
X03025D01*
Y0377D01*
X03045D01*
Y037994D01*
D02*
G37*
G36*
X025237Y037907D02*
X025088D01*
Y0377D01*
X025237D01*
Y037907D01*
D02*
G37*
G36*
X024988D02*
X02484D01*
Y0377D01*
X024988D01*
Y037907D01*
D02*
G37*
G36*
X02375Y037994D02*
X02355D01*
Y0377D01*
X02375D01*
Y037994D01*
D02*
G37*
G36*
X02345D02*
X02325D01*
Y0377D01*
X02345D01*
Y037994D01*
D02*
G37*
G36*
X018237Y037907D02*
X018088D01*
Y0377D01*
X018237D01*
Y037907D01*
D02*
G37*
G36*
X017988D02*
X01784D01*
Y0377D01*
X017988D01*
Y037907D01*
D02*
G37*
G36*
X01675Y037994D02*
X01655D01*
Y0377D01*
X01675D01*
Y037994D01*
D02*
G37*
G36*
X01645D02*
X01625D01*
Y0377D01*
X01645D01*
Y037994D01*
D02*
G37*
G36*
X011237Y037907D02*
X011088D01*
Y0377D01*
X011237D01*
Y037907D01*
D02*
G37*
G36*
X010988D02*
X01084D01*
Y0377D01*
X010988D01*
Y037907D01*
D02*
G37*
G36*
X00975Y037994D02*
X00955D01*
Y0377D01*
X00975D01*
Y037994D01*
D02*
G37*
G36*
X00945D02*
X00925D01*
Y0377D01*
X00945D01*
Y037994D01*
D02*
G37*
G36*
X05925Y03795D02*
X0589D01*
Y0377D01*
X05925D01*
Y03795D01*
D02*
G37*
G36*
X05225D02*
X0519D01*
Y0377D01*
X05225D01*
Y03795D01*
D02*
G37*
G36*
X04525D02*
X0449D01*
Y0377D01*
X04525D01*
Y03795D01*
D02*
G37*
G36*
X03825D02*
X0379D01*
Y0377D01*
X03825D01*
Y03795D01*
D02*
G37*
G36*
X03125D02*
X0309D01*
Y0377D01*
X03125D01*
Y03795D01*
D02*
G37*
G36*
X02425D02*
X0239D01*
Y0377D01*
X02425D01*
Y03795D01*
D02*
G37*
G36*
X01725D02*
X0169D01*
Y0377D01*
X01725D01*
Y03795D01*
D02*
G37*
G36*
X01025D02*
X0099D01*
Y0377D01*
X01025D01*
Y03795D01*
D02*
G37*
G36*
X060945Y037867D02*
X060628D01*
Y037433D01*
X060945D01*
Y037538D01*
X061246D01*
Y03744D01*
X061854D01*
Y03786D01*
X061246D01*
Y037762D01*
X060945D01*
Y037867D01*
D02*
G37*
G36*
X053945D02*
X053628D01*
Y037433D01*
X053945D01*
Y037538D01*
X054246D01*
Y03744D01*
X054854D01*
Y03786D01*
X054246D01*
Y037762D01*
X053945D01*
Y037867D01*
D02*
G37*
G36*
X046945D02*
X046628D01*
Y037433D01*
X046945D01*
Y037538D01*
X047246D01*
Y03744D01*
X047854D01*
Y03786D01*
X047246D01*
Y037762D01*
X046945D01*
Y037867D01*
D02*
G37*
G36*
X039945D02*
X039628D01*
Y037433D01*
X039945D01*
Y037538D01*
X040246D01*
Y03744D01*
X040854D01*
Y03786D01*
X040246D01*
Y037762D01*
X039945D01*
Y037867D01*
D02*
G37*
G36*
X032945D02*
X032628D01*
Y037433D01*
X032945D01*
Y037538D01*
X033246D01*
Y03744D01*
X033854D01*
Y03786D01*
X033246D01*
Y037762D01*
X032945D01*
Y037867D01*
D02*
G37*
G36*
X025945D02*
X025628D01*
Y037433D01*
X025945D01*
Y037538D01*
X026246D01*
Y03744D01*
X026854D01*
Y03786D01*
X026246D01*
Y037762D01*
X025945D01*
Y037867D01*
D02*
G37*
G36*
X018945D02*
X018628D01*
Y037433D01*
X018945D01*
Y037538D01*
X019246D01*
Y03744D01*
X019854D01*
Y03786D01*
X019246D01*
Y037762D01*
X018945D01*
Y037867D01*
D02*
G37*
G36*
X011945D02*
X011628D01*
Y037433D01*
X011945D01*
Y037538D01*
X012246D01*
Y03744D01*
X012854D01*
Y03786D01*
X012246D01*
Y037762D01*
X011945D01*
Y037867D01*
D02*
G37*
G36*
X060237Y0376D02*
X060088D01*
Y037393D01*
X060237D01*
Y0376D01*
D02*
G37*
G36*
X059988D02*
X05984D01*
Y037393D01*
X059988D01*
Y0376D01*
D02*
G37*
G36*
X053237D02*
X053088D01*
Y037393D01*
X053237D01*
Y0376D01*
D02*
G37*
G36*
X052988D02*
X05284D01*
Y037393D01*
X052988D01*
Y0376D01*
D02*
G37*
G36*
X046237D02*
X046088D01*
Y037393D01*
X046237D01*
Y0376D01*
D02*
G37*
G36*
X045988D02*
X04584D01*
Y037393D01*
X045988D01*
Y0376D01*
D02*
G37*
G36*
X039237D02*
X039088D01*
Y037393D01*
X039237D01*
Y0376D01*
D02*
G37*
G36*
X038988D02*
X03884D01*
Y037393D01*
X038988D01*
Y0376D01*
D02*
G37*
G36*
X032237D02*
X032088D01*
Y037393D01*
X032237D01*
Y0376D01*
D02*
G37*
G36*
X031988D02*
X03184D01*
Y037393D01*
X031988D01*
Y0376D01*
D02*
G37*
G36*
X025237D02*
X025088D01*
Y037393D01*
X025237D01*
Y0376D01*
D02*
G37*
G36*
X024988D02*
X02484D01*
Y037393D01*
X024988D01*
Y0376D01*
D02*
G37*
G36*
X018237D02*
X018088D01*
Y037393D01*
X018237D01*
Y0376D01*
D02*
G37*
G36*
X017988D02*
X01784D01*
Y037393D01*
X017988D01*
Y0376D01*
D02*
G37*
G36*
X011237D02*
X011088D01*
Y037393D01*
X011237D01*
Y0376D01*
D02*
G37*
G36*
X010988D02*
X01084D01*
Y037393D01*
X010988D01*
Y0376D01*
D02*
G37*
G36*
X0597D02*
X05935D01*
Y03735D01*
X0597D01*
Y0376D01*
D02*
G37*
G36*
X05925D02*
X0589D01*
Y03735D01*
X05925D01*
Y0376D01*
D02*
G37*
G36*
X0527D02*
X05235D01*
Y03735D01*
X0527D01*
Y0376D01*
D02*
G37*
G36*
X05225D02*
X0519D01*
Y03735D01*
X05225D01*
Y0376D01*
D02*
G37*
G36*
X0457D02*
X04535D01*
Y03735D01*
X0457D01*
Y0376D01*
D02*
G37*
G36*
X04525D02*
X0449D01*
Y03735D01*
X04525D01*
Y0376D01*
D02*
G37*
G36*
X0387D02*
X03835D01*
Y03735D01*
X0387D01*
Y0376D01*
D02*
G37*
G36*
X03825D02*
X0379D01*
Y03735D01*
X03825D01*
Y0376D01*
D02*
G37*
G36*
X0317D02*
X03135D01*
Y03735D01*
X0317D01*
Y0376D01*
D02*
G37*
G36*
X03125D02*
X0309D01*
Y03735D01*
X03125D01*
Y0376D01*
D02*
G37*
G36*
X0247D02*
X02435D01*
Y03735D01*
X0247D01*
Y0376D01*
D02*
G37*
G36*
X02425D02*
X0239D01*
Y03735D01*
X02425D01*
Y0376D01*
D02*
G37*
G36*
X0177D02*
X01735D01*
Y03735D01*
X0177D01*
Y0376D01*
D02*
G37*
G36*
X01725D02*
X0169D01*
Y03735D01*
X01725D01*
Y0376D01*
D02*
G37*
G36*
X0107D02*
X01035D01*
Y03735D01*
X0107D01*
Y0376D01*
D02*
G37*
G36*
X01025D02*
X0099D01*
Y03735D01*
X01025D01*
Y0376D01*
D02*
G37*
G36*
X05875D02*
X05855D01*
Y037306D01*
X05875D01*
Y0376D01*
D02*
G37*
G36*
X05845D02*
X05825D01*
Y037306D01*
X05845D01*
Y0376D01*
D02*
G37*
G36*
X05175D02*
X05155D01*
Y037306D01*
X05175D01*
Y0376D01*
D02*
G37*
G36*
X05145D02*
X05125D01*
Y037306D01*
X05145D01*
Y0376D01*
D02*
G37*
G36*
X04475D02*
X04455D01*
Y037306D01*
X04475D01*
Y0376D01*
D02*
G37*
G36*
X04445D02*
X04425D01*
Y037306D01*
X04445D01*
Y0376D01*
D02*
G37*
G36*
X03775D02*
X03755D01*
Y037306D01*
X03775D01*
Y0376D01*
D02*
G37*
G36*
X03745D02*
X03725D01*
Y037306D01*
X03745D01*
Y0376D01*
D02*
G37*
G36*
X03075D02*
X03055D01*
Y037306D01*
X03075D01*
Y0376D01*
D02*
G37*
G36*
X03045D02*
X03025D01*
Y037306D01*
X03045D01*
Y0376D01*
D02*
G37*
G36*
X02375D02*
X02355D01*
Y037306D01*
X02375D01*
Y0376D01*
D02*
G37*
G36*
X02345D02*
X02325D01*
Y037306D01*
X02345D01*
Y0376D01*
D02*
G37*
G36*
X01675D02*
X01655D01*
Y037306D01*
X01675D01*
Y0376D01*
D02*
G37*
G36*
X01645D02*
X01625D01*
Y037306D01*
X01645D01*
Y0376D01*
D02*
G37*
G36*
X00975D02*
X00955D01*
Y037306D01*
X00975D01*
Y0376D01*
D02*
G37*
G36*
X00945D02*
X00925D01*
Y037306D01*
X00945D01*
Y0376D01*
D02*
G37*
G36*
X05781Y037954D02*
X05739D01*
Y037346D01*
X057488D01*
Y036954D01*
X05739D01*
Y036346D01*
X05781D01*
Y036954D01*
X057712D01*
Y037346D01*
X05781D01*
Y037954D01*
D02*
G37*
G36*
X05081D02*
X05039D01*
Y037346D01*
X050488D01*
Y036954D01*
X05039D01*
Y036346D01*
X05081D01*
Y036954D01*
X050712D01*
Y037346D01*
X05081D01*
Y037954D01*
D02*
G37*
G36*
X04381D02*
X04339D01*
Y037346D01*
X043488D01*
Y036954D01*
X04339D01*
Y036346D01*
X04381D01*
Y036954D01*
X043712D01*
Y037346D01*
X04381D01*
Y037954D01*
D02*
G37*
G36*
X03681D02*
X03639D01*
Y037346D01*
X036488D01*
Y036954D01*
X03639D01*
Y036346D01*
X03681D01*
Y036954D01*
X036712D01*
Y037346D01*
X03681D01*
Y037954D01*
D02*
G37*
G36*
X02981D02*
X02939D01*
Y037346D01*
X029488D01*
Y036954D01*
X02939D01*
Y036346D01*
X02981D01*
Y036954D01*
X029712D01*
Y037346D01*
X02981D01*
Y037954D01*
D02*
G37*
G36*
X02281D02*
X02239D01*
Y037346D01*
X022488D01*
Y036954D01*
X02239D01*
Y036346D01*
X02281D01*
Y036954D01*
X022712D01*
Y037346D01*
X02281D01*
Y037954D01*
D02*
G37*
G36*
X01581D02*
X01539D01*
Y037346D01*
X015488D01*
Y036954D01*
X01539D01*
Y036346D01*
X01581D01*
Y036954D01*
X015712D01*
Y037346D01*
X01581D01*
Y037954D01*
D02*
G37*
G36*
X00881D02*
X00839D01*
Y037346D01*
X008488D01*
Y036954D01*
X00839D01*
Y036346D01*
X00881D01*
Y036954D01*
X008712D01*
Y037346D01*
X00881D01*
Y037954D01*
D02*
G37*
G36*
X053571Y036867D02*
X053254D01*
Y036433D01*
X053275D01*
Y036345D01*
X05266D01*
Y036493D01*
X05194D01*
Y035973D01*
X05266D01*
Y036121D01*
X053275D01*
Y03475D01*
X053254Y034745D01*
X05316Y034691D01*
X053084Y034614D01*
X05303Y034521D01*
X053002Y034417D01*
Y034309D01*
X05303Y034204D01*
X053084Y034111D01*
X05316Y034035D01*
X053254Y033981D01*
X053358Y033953D01*
X053466D01*
X05357Y033981D01*
X053664Y034035D01*
X05374Y034111D01*
X053794Y034204D01*
X053822Y034309D01*
Y034417D01*
X053794Y034521D01*
X05374Y034614D01*
X053664Y034691D01*
X05357Y034745D01*
X05355Y03475D01*
Y036233D01*
Y036433D01*
X053571D01*
Y036867D01*
D02*
G37*
G36*
X046571D02*
X046254D01*
Y036433D01*
X0463D01*
Y036345D01*
X04566D01*
Y036493D01*
X04494D01*
Y035973D01*
X04566D01*
Y036121D01*
X0463D01*
Y034757D01*
X046254Y034745D01*
X04616Y034691D01*
X046084Y034614D01*
X04603Y034521D01*
X046002Y034417D01*
Y034309D01*
X04603Y034204D01*
X046084Y034111D01*
X04616Y034035D01*
X046254Y033981D01*
X046358Y033953D01*
X046466D01*
X04657Y033981D01*
X046664Y034035D01*
X04674Y034111D01*
X046794Y034204D01*
X046822Y034309D01*
Y034417D01*
X046794Y034521D01*
X04674Y034614D01*
X046664Y034691D01*
X04657Y034745D01*
X046524Y034757D01*
Y036233D01*
Y036433D01*
X046571D01*
Y036867D01*
D02*
G37*
G36*
X039571D02*
X039254D01*
Y036433D01*
X0393D01*
Y036345D01*
X03866D01*
Y036493D01*
X03794D01*
Y035973D01*
X03866D01*
Y036121D01*
X0393D01*
Y034757D01*
X039254Y034745D01*
X03916Y034691D01*
X039084Y034614D01*
X03903Y034521D01*
X039002Y034417D01*
Y034309D01*
X03903Y034204D01*
X039084Y034111D01*
X03916Y034035D01*
X039254Y033981D01*
X039358Y033953D01*
X039466D01*
X03957Y033981D01*
X039664Y034035D01*
X03974Y034111D01*
X039794Y034204D01*
X039822Y034309D01*
Y034417D01*
X039794Y034521D01*
X03974Y034614D01*
X039664Y034691D01*
X03957Y034745D01*
X039524Y034757D01*
Y036233D01*
Y036433D01*
X039571D01*
Y036867D01*
D02*
G37*
G36*
X032571D02*
X032254D01*
Y036433D01*
X0323D01*
Y036345D01*
X03166D01*
Y036493D01*
X03094D01*
Y035973D01*
X03166D01*
Y036121D01*
X0323D01*
Y034757D01*
X032254Y034745D01*
X03216Y034691D01*
X032084Y034614D01*
X03203Y034521D01*
X032002Y034417D01*
Y034309D01*
X03203Y034204D01*
X032084Y034111D01*
X03216Y034035D01*
X032254Y033981D01*
X032358Y033953D01*
X032466D01*
X03257Y033981D01*
X032664Y034035D01*
X03274Y034111D01*
X032794Y034204D01*
X032822Y034309D01*
Y034417D01*
X032794Y034521D01*
X03274Y034614D01*
X032664Y034691D01*
X03257Y034745D01*
X032524Y034757D01*
Y036233D01*
Y036433D01*
X032571D01*
Y036867D01*
D02*
G37*
G36*
X025571D02*
X025254D01*
Y036433D01*
X0253D01*
Y036345D01*
X02466D01*
Y036493D01*
X02394D01*
Y035973D01*
X02466D01*
Y036121D01*
X0253D01*
Y034757D01*
X025254Y034745D01*
X02516Y034691D01*
X025084Y034614D01*
X02503Y034521D01*
X025002Y034417D01*
Y034309D01*
X02503Y034204D01*
X025084Y034111D01*
X02516Y034035D01*
X025254Y033981D01*
X025358Y033953D01*
X025466D01*
X02557Y033981D01*
X025664Y034035D01*
X02574Y034111D01*
X025794Y034204D01*
X025822Y034309D01*
Y034417D01*
X025794Y034521D01*
X02574Y034614D01*
X025664Y034691D01*
X02557Y034745D01*
X025524Y034757D01*
Y036233D01*
Y036433D01*
X025571D01*
Y036867D01*
D02*
G37*
G36*
X018571D02*
X018254D01*
Y036433D01*
X0183D01*
Y036345D01*
X01766D01*
Y036493D01*
X01694D01*
Y035973D01*
X01766D01*
Y036121D01*
X0183D01*
Y034757D01*
X018254Y034745D01*
X01816Y034691D01*
X018084Y034614D01*
X01803Y034521D01*
X018002Y034417D01*
Y034309D01*
X01803Y034204D01*
X018084Y034111D01*
X01816Y034035D01*
X018254Y033981D01*
X018358Y033953D01*
X018466D01*
X01857Y033981D01*
X018664Y034035D01*
X01874Y034111D01*
X018794Y034204D01*
X018822Y034309D01*
Y034417D01*
X018794Y034521D01*
X01874Y034614D01*
X018664Y034691D01*
X01857Y034745D01*
X018524Y034757D01*
Y036233D01*
Y036433D01*
X018571D01*
Y036867D01*
D02*
G37*
G36*
X011571D02*
X011254D01*
Y036433D01*
X0113D01*
Y036345D01*
X01066D01*
Y036493D01*
X00994D01*
Y035973D01*
X01066D01*
Y036121D01*
X0113D01*
Y034757D01*
X011254Y034745D01*
X01116Y034691D01*
X011084Y034614D01*
X01103Y034521D01*
X011002Y034417D01*
Y034309D01*
X01103Y034204D01*
X011084Y034111D01*
X01116Y034035D01*
X011254Y033981D01*
X011358Y033953D01*
X011466D01*
X01157Y033981D01*
X011664Y034035D01*
X01174Y034111D01*
X011794Y034204D01*
X011822Y034309D01*
Y034417D01*
X011794Y034521D01*
X01174Y034614D01*
X011664Y034691D01*
X01157Y034745D01*
X011524Y034757D01*
Y036233D01*
Y036433D01*
X011571D01*
Y036867D01*
D02*
G37*
G36*
X054854Y03696D02*
X054246D01*
Y03654D01*
X054453D01*
Y036053D01*
X054449Y036051D01*
X054399Y036001D01*
X054372Y035935D01*
Y035865D01*
X054399Y035799D01*
X054449Y035749D01*
X054515Y035722D01*
X054585D01*
X054651Y035749D01*
X054701Y035799D01*
X054728Y035865D01*
Y035935D01*
X054701Y036001D01*
X054651Y036051D01*
X054647Y036053D01*
Y03654D01*
X054854D01*
Y03696D01*
D02*
G37*
G36*
X047854D02*
X047246D01*
Y03654D01*
X047453D01*
Y036053D01*
X047449Y036051D01*
X047399Y036001D01*
X047372Y035935D01*
Y035865D01*
X047399Y035799D01*
X047449Y035749D01*
X047515Y035722D01*
X047585D01*
X047651Y035749D01*
X047701Y035799D01*
X047728Y035865D01*
Y035935D01*
X047701Y036001D01*
X047651Y036051D01*
X047647Y036053D01*
Y03654D01*
X047854D01*
Y03696D01*
D02*
G37*
G36*
X040854D02*
X040246D01*
Y03654D01*
X040453D01*
Y036053D01*
X040449Y036051D01*
X040399Y036001D01*
X040372Y035935D01*
Y035865D01*
X040399Y035799D01*
X040449Y035749D01*
X040515Y035722D01*
X040585D01*
X040651Y035749D01*
X040701Y035799D01*
X040728Y035865D01*
Y035935D01*
X040701Y036001D01*
X040651Y036051D01*
X040647Y036053D01*
Y03654D01*
X040854D01*
Y03696D01*
D02*
G37*
G36*
X033854D02*
X033246D01*
Y03654D01*
X033453D01*
Y036053D01*
X033449Y036051D01*
X033399Y036001D01*
X033372Y035935D01*
Y035865D01*
X033399Y035799D01*
X033449Y035749D01*
X033515Y035722D01*
X033585D01*
X033651Y035749D01*
X033701Y035799D01*
X033728Y035865D01*
Y035935D01*
X033701Y036001D01*
X033651Y036051D01*
X033647Y036053D01*
Y03654D01*
X033854D01*
Y03696D01*
D02*
G37*
G36*
X026854D02*
X026246D01*
Y03654D01*
X026453D01*
Y036053D01*
X026449Y036051D01*
X026399Y036001D01*
X026372Y035935D01*
Y035865D01*
X026399Y035799D01*
X026449Y035749D01*
X026515Y035722D01*
X026585D01*
X026651Y035749D01*
X026701Y035799D01*
X026728Y035865D01*
Y035935D01*
X026701Y036001D01*
X026651Y036051D01*
X026647Y036053D01*
Y03654D01*
X026854D01*
Y03696D01*
D02*
G37*
G36*
X019854D02*
X019246D01*
Y03654D01*
X019453D01*
Y036053D01*
X019449Y036051D01*
X019399Y036001D01*
X019372Y035935D01*
Y035865D01*
X019399Y035799D01*
X019449Y035749D01*
X019515Y035722D01*
X019585D01*
X019651Y035749D01*
X019701Y035799D01*
X019728Y035865D01*
Y035935D01*
X019701Y036001D01*
X019651Y036051D01*
X019647Y036053D01*
Y03654D01*
X019854D01*
Y03696D01*
D02*
G37*
G36*
X012854D02*
X012246D01*
Y03654D01*
X012453D01*
Y036053D01*
X012449Y036051D01*
X012399Y036001D01*
X012372Y035935D01*
Y035865D01*
X012399Y035799D01*
X012449Y035749D01*
X012515Y035722D01*
X012585D01*
X012651Y035749D01*
X012701Y035799D01*
X012728Y035865D01*
Y035935D01*
X012701Y036001D01*
X012651Y036051D01*
X012647Y036053D01*
Y03654D01*
X012854D01*
Y03696D01*
D02*
G37*
G36*
X055742Y034773D02*
X055634D01*
X05553Y034745D01*
X055436Y034691D01*
X05536Y034614D01*
X055306Y034521D01*
X055303Y034512D01*
X0548D01*
X054757Y034504D01*
X054721Y034479D01*
X054721Y034479D01*
X054471Y034229D01*
X054446Y034193D01*
X054438Y03415D01*
X054438Y03415D01*
Y03004D01*
X054399Y030001D01*
X054372Y029935D01*
Y029865D01*
X054399Y029799D01*
X054449Y029749D01*
X054515Y029722D01*
X054585D01*
X054651Y029749D01*
X054701Y029799D01*
X054728Y029865D01*
Y029935D01*
X054701Y030001D01*
X054662Y03004D01*
Y034104D01*
X054846Y034288D01*
X055283D01*
X055306Y034204D01*
X05536Y034111D01*
X055436Y034035D01*
X05553Y033981D01*
X055634Y033953D01*
X055742D01*
X055846Y033981D01*
X05594Y034035D01*
X056016Y034111D01*
X05607Y034204D01*
X056098Y034309D01*
Y034417D01*
X05607Y034521D01*
X056016Y034614D01*
X05594Y034691D01*
X055846Y034745D01*
X055742Y034773D01*
D02*
G37*
G36*
X048742D02*
X048634D01*
X04853Y034745D01*
X048436Y034691D01*
X04836Y034614D01*
X048306Y034521D01*
X048278Y034417D01*
Y034309D01*
X048306Y034204D01*
X04836Y034111D01*
X048436Y034035D01*
X04853Y033981D01*
X048634Y033953D01*
X048742D01*
X048846Y033981D01*
X04894Y034035D01*
X049016Y034111D01*
X04907Y034204D01*
X049098Y034309D01*
Y034417D01*
X04907Y034521D01*
X049016Y034614D01*
X04894Y034691D01*
X048846Y034745D01*
X048742Y034773D01*
D02*
G37*
G36*
X041742D02*
X041634D01*
X04153Y034745D01*
X041436Y034691D01*
X04136Y034614D01*
X041306Y034521D01*
X041278Y034417D01*
Y034309D01*
X041306Y034204D01*
X04136Y034111D01*
X041436Y034035D01*
X04153Y033981D01*
X041634Y033953D01*
X041742D01*
X041846Y033981D01*
X04194Y034035D01*
X042016Y034111D01*
X04207Y034204D01*
X042098Y034309D01*
Y034417D01*
X04207Y034521D01*
X042016Y034614D01*
X04194Y034691D01*
X041846Y034745D01*
X041742Y034773D01*
D02*
G37*
G36*
X034742D02*
X034634D01*
X03453Y034745D01*
X034436Y034691D01*
X03436Y034614D01*
X034306Y034521D01*
X034278Y034417D01*
Y034309D01*
X034306Y034204D01*
X03436Y034111D01*
X034436Y034035D01*
X03453Y033981D01*
X034634Y033953D01*
X034742D01*
X034846Y033981D01*
X03494Y034035D01*
X035016Y034111D01*
X03507Y034204D01*
X035098Y034309D01*
Y034417D01*
X03507Y034521D01*
X035016Y034614D01*
X03494Y034691D01*
X034846Y034745D01*
X034742Y034773D01*
D02*
G37*
G36*
X027742D02*
X027634D01*
X02753Y034745D01*
X027436Y034691D01*
X02736Y034614D01*
X027306Y034521D01*
X027278Y034417D01*
Y034309D01*
X027306Y034204D01*
X02736Y034111D01*
X027436Y034035D01*
X02753Y033981D01*
X027634Y033953D01*
X027742D01*
X027846Y033981D01*
X02794Y034035D01*
X028016Y034111D01*
X02807Y034204D01*
X028098Y034309D01*
Y034417D01*
X02807Y034521D01*
X028016Y034614D01*
X02794Y034691D01*
X027846Y034745D01*
X027742Y034773D01*
D02*
G37*
G36*
X020742D02*
X020634D01*
X02053Y034745D01*
X020436Y034691D01*
X02036Y034614D01*
X020306Y034521D01*
X020278Y034417D01*
Y034309D01*
X020306Y034204D01*
X02036Y034111D01*
X020436Y034035D01*
X02053Y033981D01*
X020634Y033953D01*
X020742D01*
X020846Y033981D01*
X02094Y034035D01*
X021016Y034111D01*
X02107Y034204D01*
X021098Y034309D01*
Y034417D01*
X02107Y034521D01*
X021016Y034614D01*
X02094Y034691D01*
X020846Y034745D01*
X020742Y034773D01*
D02*
G37*
G36*
X013742D02*
X013634D01*
X01353Y034745D01*
X013436Y034691D01*
X01336Y034614D01*
X013306Y034521D01*
X013278Y034417D01*
Y034309D01*
X013306Y034204D01*
X01336Y034111D01*
X013436Y034035D01*
X01353Y033981D01*
X013634Y033953D01*
X013742D01*
X013846Y033981D01*
X01394Y034035D01*
X014016Y034111D01*
X01407Y034204D01*
X014098Y034309D01*
Y034417D01*
X01407Y034521D01*
X014016Y034614D01*
X01394Y034691D01*
X013846Y034745D01*
X013742Y034773D01*
D02*
G37*
G36*
X006742D02*
X006634D01*
X00653Y034745D01*
X006436Y034691D01*
X00636Y034614D01*
X006306Y034521D01*
X006278Y034417D01*
Y034309D01*
X006306Y034204D01*
X00636Y034111D01*
X006436Y034035D01*
X00653Y033981D01*
X006634Y033953D01*
X006742D01*
X006846Y033981D01*
X00694Y034035D01*
X007016Y034111D01*
X00707Y034204D01*
X007098Y034309D01*
Y034417D01*
X00707Y034521D01*
X007016Y034614D01*
X00694Y034691D01*
X006846Y034745D01*
X006742Y034773D01*
D02*
G37*
G36*
X062394Y03385D02*
X0621D01*
Y03365D01*
X062394D01*
Y03385D01*
D02*
G37*
G36*
X062D02*
X061706D01*
Y03365D01*
X062D01*
Y03385D01*
D02*
G37*
G36*
X062394Y03355D02*
X0621D01*
Y03335D01*
X062394D01*
Y03355D01*
D02*
G37*
G36*
X062D02*
X061706D01*
Y03335D01*
X062D01*
Y03355D01*
D02*
G37*
G36*
X060075Y033568D02*
X060005D01*
X059939Y033541D01*
X059889Y033491D01*
X059862Y033425D01*
Y033355D01*
X059889Y033289D01*
X059939Y033239D01*
X060005Y033212D01*
X060075D01*
X060141Y033239D01*
X06018Y033278D01*
X061314D01*
X061388Y033204D01*
Y0329D01*
X061338Y032879D01*
X061248Y032968D01*
X061217Y032989D01*
X06118Y032997D01*
X060953D01*
X060951Y033001D01*
X060901Y033051D01*
X060835Y033078D01*
X060765D01*
X060699Y033051D01*
X060649Y033001D01*
X060622Y032935D01*
Y032865D01*
X060649Y032799D01*
X060699Y032749D01*
X060765Y032722D01*
X060835D01*
X060901Y032749D01*
X060951Y032799D01*
X060953Y032803D01*
X06114D01*
X061203Y03274D01*
Y03163D01*
X061153Y031609D01*
X060897Y031865D01*
Y032247D01*
X060901Y032249D01*
X060951Y032299D01*
X060978Y032365D01*
Y032435D01*
X060951Y032501D01*
X060901Y032551D01*
X060835Y032578D01*
X060765D01*
X060699Y032551D01*
X060649Y032501D01*
X060622Y032435D01*
Y032365D01*
X060649Y032299D01*
X060699Y032249D01*
X060703Y032247D01*
Y031825D01*
X060711Y031788D01*
X060732Y031757D01*
X061003Y031485D01*
Y027773D01*
X059732Y026501D01*
X059711Y02647D01*
X059703Y026433D01*
Y023275D01*
X059711Y023238D01*
X059732Y023207D01*
X059857Y023082D01*
X059888Y023061D01*
X059925Y023053D01*
X0611D01*
X061136Y022968D01*
X061193Y022893D01*
X061268Y022836D01*
X061356Y022799D01*
X06145Y022787D01*
X06165D01*
X061744Y022799D01*
X061832Y022836D01*
X061907Y022893D01*
X061964Y022968D01*
X062001Y023056D01*
X062013Y02315D01*
X062001Y023244D01*
X061964Y023332D01*
X061907Y023407D01*
X061832Y023464D01*
X061744Y023501D01*
X06165Y023513D01*
X06145D01*
X061356Y023501D01*
X061268Y023464D01*
X061193Y023407D01*
X061136Y023332D01*
X0611Y023247D01*
X059965D01*
X059897Y023315D01*
Y02422D01*
X059947Y024241D01*
X060107Y024082D01*
X060138Y024061D01*
X060175Y024053D01*
X0611D01*
X061136Y023968D01*
X061193Y023893D01*
X061268Y023836D01*
X061356Y023799D01*
X06145Y023787D01*
X06165D01*
X061744Y023799D01*
X061832Y023836D01*
X061907Y023893D01*
X061964Y023968D01*
X062001Y024056D01*
X062013Y02415D01*
X062001Y024244D01*
X061964Y024332D01*
X061907Y024407D01*
X061832Y024464D01*
X061744Y024501D01*
X06165Y024513D01*
X06145D01*
X061356Y024501D01*
X061268Y024464D01*
X061193Y024407D01*
X061136Y024332D01*
X0611Y024247D01*
X060215D01*
X060097Y024365D01*
Y02631D01*
X061368Y027582D01*
X061389Y027613D01*
X061397Y02765D01*
Y030724D01*
X061447Y030745D01*
X061571Y030621D01*
X061607Y030596D01*
X06165Y030588D01*
X06165Y030588D01*
X061746D01*
Y03049D01*
X061938D01*
Y0261D01*
X061938Y0261D01*
X061946Y026057D01*
X061971Y026021D01*
X062188Y025804D01*
Y021596D01*
X061954Y021362D01*
X056096D01*
X055962Y021496D01*
Y02335D01*
X055962Y02335D01*
X055954Y023393D01*
X055929Y023429D01*
X055779Y023579D01*
X055743Y023604D01*
X0557Y023612D01*
X0557Y023612D01*
X05459D01*
X054551Y023651D01*
X054485Y023678D01*
X054415D01*
X054349Y023651D01*
X054299Y023601D01*
X054272Y023535D01*
Y023465D01*
X054299Y023399D01*
X054349Y023349D01*
X054415Y023322D01*
X054485D01*
X054551Y023349D01*
X05459Y023388D01*
X055654D01*
X055738Y023304D01*
Y02145D01*
X055738Y02145D01*
X055746Y021407D01*
X055771Y021371D01*
X055971Y021171D01*
X055971Y021171D01*
X056007Y021146D01*
X05605Y021138D01*
X05605Y021138D01*
X062D01*
X062Y021138D01*
X062043Y021146D01*
X062079Y021171D01*
X062379Y021471D01*
X062404Y021507D01*
X062412Y02155D01*
X062412Y02155D01*
Y02585D01*
X062404Y025893D01*
X062379Y025929D01*
X062379Y025929D01*
X062162Y026146D01*
Y03049D01*
X062354D01*
Y03091D01*
X061746D01*
Y030813D01*
X061696Y030813D01*
X061612Y030896D01*
Y03325D01*
X061612Y03325D01*
X061604Y033293D01*
X061579Y033329D01*
X061579Y033329D01*
X061439Y033469D01*
X061403Y033494D01*
X06136Y033502D01*
X06136Y033502D01*
X06018D01*
X060141Y033541D01*
X060075Y033568D01*
D02*
G37*
G36*
X062354Y03291D02*
X061746D01*
Y03249D01*
X061938D01*
Y03181D01*
X061746D01*
Y03139D01*
X062354D01*
Y03181D01*
X062162D01*
Y03249D01*
X062354D01*
Y03291D01*
D02*
G37*
G36*
X060479Y030069D02*
X060345D01*
X060215Y030035D01*
X060099Y029968D01*
X060004Y029873D01*
X059937Y029756D01*
X059902Y029627D01*
Y029563D01*
X058793Y028454D01*
X058736Y028379D01*
X058699Y028291D01*
X058687Y028197D01*
Y02675D01*
Y02655D01*
X058699Y026456D01*
X058736Y026368D01*
X058793Y026293D01*
X058868Y026236D01*
X058956Y026199D01*
X05905Y026187D01*
X059144Y026199D01*
X059232Y026236D01*
X059307Y026293D01*
X059364Y026368D01*
X059401Y026456D01*
X059413Y02655D01*
Y02675D01*
Y028047D01*
X060416Y029049D01*
X060479D01*
X060609Y029084D01*
X060725Y029151D01*
X06082Y029246D01*
X060887Y029363D01*
X060922Y029492D01*
Y029627D01*
X060887Y029756D01*
X06082Y029873D01*
X060725Y029968D01*
X060609Y030035D01*
X060479Y030069D01*
D02*
G37*
G36*
X053479D02*
X053345D01*
X053215Y030035D01*
X053099Y029968D01*
X053004Y029873D01*
X052937Y029756D01*
X052902Y029627D01*
Y029563D01*
X051793Y028454D01*
X051736Y028379D01*
X051699Y028291D01*
X051687Y028197D01*
Y02675D01*
Y02655D01*
X051699Y026456D01*
X051736Y026368D01*
X051793Y026293D01*
X051868Y026236D01*
X051956Y026199D01*
X05205Y026187D01*
X052144Y026199D01*
X052232Y026236D01*
X052307Y026293D01*
X052364Y026368D01*
X052401Y026456D01*
X052413Y02655D01*
Y02675D01*
Y028047D01*
X053416Y029049D01*
X053479D01*
X053609Y029084D01*
X053725Y029151D01*
X05382Y029246D01*
X053887Y029363D01*
X053922Y029492D01*
Y029627D01*
X053887Y029756D01*
X05382Y029873D01*
X053725Y029968D01*
X053609Y030035D01*
X053479Y030069D01*
D02*
G37*
G36*
X046479D02*
X046345D01*
X046215Y030035D01*
X046099Y029968D01*
X046004Y029873D01*
X045937Y029756D01*
X045902Y029627D01*
Y029563D01*
X044793Y028454D01*
X044736Y028379D01*
X044699Y028291D01*
X044687Y028197D01*
Y02675D01*
Y02655D01*
X044699Y026456D01*
X044736Y026368D01*
X044793Y026293D01*
X044868Y026236D01*
X044956Y026199D01*
X04505Y026187D01*
X045144Y026199D01*
X045232Y026236D01*
X045307Y026293D01*
X045364Y026368D01*
X045401Y026456D01*
X045413Y02655D01*
Y02675D01*
Y028047D01*
X046416Y029049D01*
X046479D01*
X046609Y029084D01*
X046725Y029151D01*
X04682Y029246D01*
X046887Y029363D01*
X046922Y029492D01*
Y029627D01*
X046887Y029756D01*
X04682Y029873D01*
X046725Y029968D01*
X046609Y030035D01*
X046479Y030069D01*
D02*
G37*
G36*
X039479D02*
X039345D01*
X039215Y030035D01*
X039099Y029968D01*
X039004Y029873D01*
X038937Y029756D01*
X038902Y029627D01*
Y029563D01*
X037793Y028454D01*
X037736Y028379D01*
X037699Y028291D01*
X037687Y028197D01*
Y02675D01*
Y02655D01*
X037699Y026456D01*
X037736Y026368D01*
X037793Y026293D01*
X037868Y026236D01*
X037956Y026199D01*
X03805Y026187D01*
X038144Y026199D01*
X038232Y026236D01*
X038307Y026293D01*
X038364Y026368D01*
X038401Y026456D01*
X038413Y02655D01*
Y02675D01*
Y028047D01*
X039416Y029049D01*
X039479D01*
X039609Y029084D01*
X039725Y029151D01*
X03982Y029246D01*
X039887Y029363D01*
X039922Y029492D01*
Y029627D01*
X039887Y029756D01*
X03982Y029873D01*
X039725Y029968D01*
X039609Y030035D01*
X039479Y030069D01*
D02*
G37*
G36*
X032479D02*
X032345D01*
X032215Y030035D01*
X032099Y029968D01*
X032004Y029873D01*
X031937Y029756D01*
X031902Y029627D01*
Y029563D01*
X030793Y028454D01*
X030736Y028379D01*
X030699Y028291D01*
X030687Y028197D01*
Y02675D01*
Y02655D01*
X030699Y026456D01*
X030736Y026368D01*
X030793Y026293D01*
X030868Y026236D01*
X030956Y026199D01*
X03105Y026187D01*
X031144Y026199D01*
X031232Y026236D01*
X031307Y026293D01*
X031364Y026368D01*
X031401Y026456D01*
X031413Y02655D01*
Y02675D01*
Y028047D01*
X032416Y029049D01*
X032479D01*
X032609Y029084D01*
X032725Y029151D01*
X03282Y029246D01*
X032887Y029363D01*
X032922Y029492D01*
Y029627D01*
X032887Y029756D01*
X03282Y029873D01*
X032725Y029968D01*
X032609Y030035D01*
X032479Y030069D01*
D02*
G37*
G36*
X025479D02*
X025345D01*
X025215Y030035D01*
X025099Y029968D01*
X025004Y029873D01*
X024937Y029756D01*
X024902Y029627D01*
Y029563D01*
X023793Y028454D01*
X023736Y028379D01*
X023699Y028291D01*
X023687Y028197D01*
Y02675D01*
Y02655D01*
X023699Y026456D01*
X023736Y026368D01*
X023793Y026293D01*
X023868Y026236D01*
X023956Y026199D01*
X02405Y026187D01*
X024144Y026199D01*
X024232Y026236D01*
X024307Y026293D01*
X024364Y026368D01*
X024401Y026456D01*
X024413Y02655D01*
Y02675D01*
Y028047D01*
X025416Y029049D01*
X025479D01*
X025609Y029084D01*
X025725Y029151D01*
X02582Y029246D01*
X025887Y029363D01*
X025922Y029492D01*
Y029627D01*
X025887Y029756D01*
X02582Y029873D01*
X025725Y029968D01*
X025609Y030035D01*
X025479Y030069D01*
D02*
G37*
G36*
X018479D02*
X018345D01*
X018215Y030035D01*
X018099Y029968D01*
X018004Y029873D01*
X017937Y029756D01*
X017902Y029627D01*
Y029563D01*
X016793Y028454D01*
X016736Y028379D01*
X016699Y028291D01*
X016687Y028197D01*
Y02675D01*
Y02655D01*
X016699Y026456D01*
X016736Y026368D01*
X016793Y026293D01*
X016868Y026236D01*
X016956Y026199D01*
X01705Y026187D01*
X017144Y026199D01*
X017232Y026236D01*
X017307Y026293D01*
X017364Y026368D01*
X017401Y026456D01*
X017413Y02655D01*
Y02675D01*
Y028047D01*
X018416Y029049D01*
X018479D01*
X018609Y029084D01*
X018725Y029151D01*
X01882Y029246D01*
X018887Y029363D01*
X018922Y029492D01*
Y029627D01*
X018887Y029756D01*
X01882Y029873D01*
X018725Y029968D01*
X018609Y030035D01*
X018479Y030069D01*
D02*
G37*
G36*
X011479D02*
X011345D01*
X011215Y030035D01*
X011099Y029968D01*
X011004Y029873D01*
X010937Y029756D01*
X010902Y029627D01*
Y029563D01*
X009793Y028454D01*
X009736Y028379D01*
X009699Y028291D01*
X009687Y028197D01*
Y02675D01*
Y02655D01*
X009699Y026456D01*
X009736Y026368D01*
X009793Y026293D01*
X009868Y026236D01*
X009956Y026199D01*
X01005Y026187D01*
X010144Y026199D01*
X010232Y026236D01*
X010307Y026293D01*
X010364Y026368D01*
X010401Y026456D01*
X010413Y02655D01*
Y02675D01*
Y028047D01*
X011416Y029049D01*
X011479D01*
X011609Y029084D01*
X011725Y029151D01*
X01182Y029246D01*
X011887Y029363D01*
X011922Y029492D01*
Y029627D01*
X011887Y029756D01*
X01182Y029873D01*
X011725Y029968D01*
X011609Y030035D01*
X011479Y030069D01*
D02*
G37*
G36*
X055755D02*
X055621D01*
X055491Y030035D01*
X055375Y029968D01*
X05528Y029873D01*
X055213Y029756D01*
X055178Y029627D01*
Y029492D01*
X055213Y029363D01*
X05528Y029246D01*
X055375Y029151D01*
X055491Y029084D01*
X055621Y029049D01*
X055684D01*
X056687Y028047D01*
Y026905D01*
X056686Y0269D01*
Y0264D01*
X056702Y026318D01*
X056749Y026249D01*
X056818Y026202D01*
X0569Y026186D01*
X0572D01*
X057282Y026202D01*
X057351Y026249D01*
X057398Y026318D01*
X057414Y0264D01*
Y0269D01*
X057413Y026905D01*
Y028197D01*
X057401Y028291D01*
X057364Y028379D01*
X057307Y028454D01*
X057307Y028454D01*
X056198Y029563D01*
Y029627D01*
X056163Y029756D01*
X056096Y029873D01*
X056001Y029968D01*
X055885Y030035D01*
X055755Y030069D01*
D02*
G37*
G36*
X048755D02*
X048621D01*
X048491Y030035D01*
X048375Y029968D01*
X04828Y029873D01*
X048213Y029756D01*
X048178Y029627D01*
Y029492D01*
X048213Y029363D01*
X04828Y029246D01*
X048375Y029151D01*
X048491Y029084D01*
X048621Y029049D01*
X048684D01*
X049687Y028047D01*
Y026905D01*
X049686Y0269D01*
Y0264D01*
X049702Y026318D01*
X049749Y026249D01*
X049818Y026202D01*
X0499Y026186D01*
X0502D01*
X050282Y026202D01*
X050351Y026249D01*
X050398Y026318D01*
X050414Y0264D01*
Y0269D01*
X050413Y026905D01*
Y028197D01*
X050401Y028291D01*
X050364Y028379D01*
X050307Y028454D01*
X050307Y028454D01*
X049198Y029563D01*
Y029627D01*
X049163Y029756D01*
X049096Y029873D01*
X049001Y029968D01*
X048885Y030035D01*
X048755Y030069D01*
D02*
G37*
G36*
X041755D02*
X041621D01*
X041491Y030035D01*
X041375Y029968D01*
X04128Y029873D01*
X041213Y029756D01*
X041178Y029627D01*
Y029492D01*
X041213Y029363D01*
X04128Y029246D01*
X041375Y029151D01*
X041491Y029084D01*
X041621Y029049D01*
X041684D01*
X042687Y028047D01*
Y026905D01*
X042686Y0269D01*
Y0264D01*
X042702Y026318D01*
X042749Y026249D01*
X042818Y026202D01*
X0429Y026186D01*
X0432D01*
X043282Y026202D01*
X043351Y026249D01*
X043398Y026318D01*
X043414Y0264D01*
Y0269D01*
X043413Y026905D01*
Y028197D01*
X043401Y028291D01*
X043364Y028379D01*
X043307Y028454D01*
X043307Y028454D01*
X042198Y029563D01*
Y029627D01*
X042163Y029756D01*
X042096Y029873D01*
X042001Y029968D01*
X041885Y030035D01*
X041755Y030069D01*
D02*
G37*
G36*
X034755D02*
X034621D01*
X034491Y030035D01*
X034375Y029968D01*
X03428Y029873D01*
X034213Y029756D01*
X034178Y029627D01*
Y029492D01*
X034213Y029363D01*
X03428Y029246D01*
X034375Y029151D01*
X034491Y029084D01*
X034621Y029049D01*
X034684D01*
X035687Y028047D01*
Y026905D01*
X035686Y0269D01*
Y0264D01*
X035702Y026318D01*
X035749Y026249D01*
X035818Y026202D01*
X0359Y026186D01*
X0362D01*
X036282Y026202D01*
X036351Y026249D01*
X036398Y026318D01*
X036414Y0264D01*
Y0269D01*
X036413Y026905D01*
Y028197D01*
X036401Y028291D01*
X036364Y028379D01*
X036307Y028454D01*
X036307Y028454D01*
X035198Y029563D01*
Y029627D01*
X035163Y029756D01*
X035096Y029873D01*
X035001Y029968D01*
X034885Y030035D01*
X034755Y030069D01*
D02*
G37*
G36*
X027755D02*
X027621D01*
X027491Y030035D01*
X027375Y029968D01*
X02728Y029873D01*
X027213Y029756D01*
X027178Y029627D01*
Y029492D01*
X027213Y029363D01*
X02728Y029246D01*
X027375Y029151D01*
X027491Y029084D01*
X027621Y029049D01*
X027684D01*
X028687Y028047D01*
Y026905D01*
X028686Y0269D01*
Y0264D01*
X028702Y026318D01*
X028749Y026249D01*
X028818Y026202D01*
X0289Y026186D01*
X0292D01*
X029282Y026202D01*
X029351Y026249D01*
X029398Y026318D01*
X029414Y0264D01*
Y0269D01*
X029413Y026905D01*
Y028197D01*
X029401Y028291D01*
X029364Y028379D01*
X029307Y028454D01*
X029307Y028454D01*
X028198Y029563D01*
Y029627D01*
X028163Y029756D01*
X028096Y029873D01*
X028001Y029968D01*
X027885Y030035D01*
X027755Y030069D01*
D02*
G37*
G36*
X020755D02*
X020621D01*
X020491Y030035D01*
X020375Y029968D01*
X02028Y029873D01*
X020213Y029756D01*
X020178Y029627D01*
Y029492D01*
X020213Y029363D01*
X02028Y029246D01*
X020375Y029151D01*
X020491Y029084D01*
X020621Y029049D01*
X020684D01*
X021687Y028047D01*
Y026905D01*
X021686Y0269D01*
Y0264D01*
X021702Y026318D01*
X021749Y026249D01*
X021818Y026202D01*
X0219Y026186D01*
X0222D01*
X022282Y026202D01*
X022351Y026249D01*
X022398Y026318D01*
X022414Y0264D01*
Y0269D01*
X022413Y026905D01*
Y028197D01*
X022401Y028291D01*
X022364Y028379D01*
X022307Y028454D01*
X022307Y028454D01*
X021198Y029563D01*
Y029627D01*
X021163Y029756D01*
X021096Y029873D01*
X021001Y029968D01*
X020885Y030035D01*
X020755Y030069D01*
D02*
G37*
G36*
X013755D02*
X013621D01*
X013491Y030035D01*
X013375Y029968D01*
X01328Y029873D01*
X013213Y029756D01*
X013178Y029627D01*
Y029492D01*
X013213Y029363D01*
X01328Y029246D01*
X013375Y029151D01*
X013491Y029084D01*
X013621Y029049D01*
X013684D01*
X014687Y028047D01*
Y026905D01*
X014686Y0269D01*
Y0264D01*
X014702Y026318D01*
X014749Y026249D01*
X014818Y026202D01*
X0149Y026186D01*
X0152D01*
X015282Y026202D01*
X015351Y026249D01*
X015398Y026318D01*
X015414Y0264D01*
Y0269D01*
X015413Y026905D01*
Y028197D01*
X015401Y028291D01*
X015364Y028379D01*
X015307Y028454D01*
X015307Y028454D01*
X014198Y029563D01*
Y029627D01*
X014163Y029756D01*
X014096Y029873D01*
X014001Y029968D01*
X013885Y030035D01*
X013755Y030069D01*
D02*
G37*
G36*
X006755D02*
X006621D01*
X006491Y030035D01*
X006375Y029968D01*
X00628Y029873D01*
X006213Y029756D01*
X006178Y029627D01*
Y029492D01*
X006213Y029363D01*
X00628Y029246D01*
X006375Y029151D01*
X006491Y029084D01*
X006621Y029049D01*
X006684D01*
X007687Y028047D01*
Y026905D01*
X007686Y0269D01*
Y0264D01*
X007702Y026318D01*
X007749Y026249D01*
X007818Y026202D01*
X0079Y026186D01*
X0082D01*
X008282Y026202D01*
X008351Y026249D01*
X008398Y026318D01*
X008414Y0264D01*
Y0269D01*
X008413Y026905D01*
Y028197D01*
X008401Y028291D01*
X008364Y028379D01*
X008307Y028454D01*
X008307Y028454D01*
X007198Y029563D01*
Y029627D01*
X007163Y029756D01*
X007096Y029873D01*
X007001Y029968D01*
X006885Y030035D01*
X006755Y030069D01*
D02*
G37*
G36*
X05805Y027113D02*
X057956Y027101D01*
X057868Y027064D01*
X057793Y027007D01*
X057736Y026932D01*
X057699Y026844D01*
X057687Y02675D01*
Y02655D01*
X057699Y026456D01*
X057736Y026368D01*
X057793Y026293D01*
X057868Y026236D01*
X057938Y026207D01*
Y0258D01*
X057938Y0258D01*
X057946Y025757D01*
X057971Y025721D01*
X058121Y025571D01*
X058157Y025546D01*
X0582Y025538D01*
X0582Y025538D01*
X05829D01*
Y025346D01*
X05871D01*
Y025954D01*
X05829D01*
Y025778D01*
X05824Y025769D01*
X058162Y025846D01*
Y026207D01*
X058232Y026236D01*
X058307Y026293D01*
X058364Y026368D01*
X058401Y026456D01*
X058413Y02655D01*
Y02675D01*
X058401Y026844D01*
X058364Y026932D01*
X058307Y027007D01*
X058232Y027064D01*
X058144Y027101D01*
X05805Y027113D01*
D02*
G37*
G36*
X05105D02*
X050956Y027101D01*
X050868Y027064D01*
X050793Y027007D01*
X050736Y026932D01*
X050699Y026844D01*
X050687Y02675D01*
Y02655D01*
X050699Y026456D01*
X050736Y026368D01*
X050793Y026293D01*
X050868Y026236D01*
X050938Y026207D01*
Y025709D01*
X050938Y025709D01*
X050946Y025666D01*
X050971Y025629D01*
X051029Y025571D01*
X051029Y025571D01*
X051066Y025546D01*
X051109Y025538D01*
X05129D01*
Y025346D01*
X05171D01*
Y025954D01*
X05129D01*
Y025762D01*
X051162D01*
Y026207D01*
X051232Y026236D01*
X051307Y026293D01*
X051364Y026368D01*
X051401Y026456D01*
X051413Y02655D01*
Y02675D01*
X051401Y026844D01*
X051364Y026932D01*
X051307Y027007D01*
X051232Y027064D01*
X051144Y027101D01*
X05105Y027113D01*
D02*
G37*
G36*
X04405D02*
X043956Y027101D01*
X043868Y027064D01*
X043793Y027007D01*
X043736Y026932D01*
X043699Y026844D01*
X043687Y02675D01*
Y02655D01*
X043699Y026456D01*
X043736Y026368D01*
X043793Y026293D01*
X043868Y026236D01*
X043938Y026207D01*
Y025709D01*
X043938Y025709D01*
X043946Y025666D01*
X043971Y025629D01*
X044029Y025571D01*
X044029Y025571D01*
X044066Y025546D01*
X044109Y025538D01*
X04429D01*
Y025346D01*
X04471D01*
Y025954D01*
X04429D01*
Y025762D01*
X044162D01*
Y026207D01*
X044232Y026236D01*
X044307Y026293D01*
X044364Y026368D01*
X044401Y026456D01*
X044413Y02655D01*
Y02675D01*
X044401Y026844D01*
X044364Y026932D01*
X044307Y027007D01*
X044232Y027064D01*
X044144Y027101D01*
X04405Y027113D01*
D02*
G37*
G36*
X03705D02*
X036956Y027101D01*
X036868Y027064D01*
X036793Y027007D01*
X036736Y026932D01*
X036699Y026844D01*
X036687Y02675D01*
Y02655D01*
X036699Y026456D01*
X036736Y026368D01*
X036793Y026293D01*
X036868Y026236D01*
X036938Y026207D01*
Y025709D01*
X036938Y025709D01*
X036946Y025666D01*
X036971Y025629D01*
X037029Y025571D01*
X037029Y025571D01*
X037066Y025546D01*
X037109Y025538D01*
X03729D01*
Y025346D01*
X03771D01*
Y025954D01*
X03729D01*
Y025762D01*
X037162D01*
Y026207D01*
X037232Y026236D01*
X037307Y026293D01*
X037364Y026368D01*
X037401Y026456D01*
X037413Y02655D01*
Y02675D01*
X037401Y026844D01*
X037364Y026932D01*
X037307Y027007D01*
X037232Y027064D01*
X037144Y027101D01*
X03705Y027113D01*
D02*
G37*
G36*
X03005D02*
X029956Y027101D01*
X029868Y027064D01*
X029793Y027007D01*
X029736Y026932D01*
X029699Y026844D01*
X029687Y02675D01*
Y02655D01*
X029699Y026456D01*
X029736Y026368D01*
X029793Y026293D01*
X029868Y026236D01*
X029938Y026207D01*
Y025709D01*
X029938Y025709D01*
X029946Y025666D01*
X029971Y025629D01*
X030029Y025571D01*
X030029Y025571D01*
X030066Y025546D01*
X030109Y025538D01*
X03029D01*
Y025346D01*
X03071D01*
Y025954D01*
X03029D01*
Y025762D01*
X030162D01*
Y026207D01*
X030232Y026236D01*
X030307Y026293D01*
X030364Y026368D01*
X030401Y026456D01*
X030413Y02655D01*
Y02675D01*
X030401Y026844D01*
X030364Y026932D01*
X030307Y027007D01*
X030232Y027064D01*
X030144Y027101D01*
X03005Y027113D01*
D02*
G37*
G36*
X02305D02*
X022956Y027101D01*
X022868Y027064D01*
X022793Y027007D01*
X022736Y026932D01*
X022699Y026844D01*
X022687Y02675D01*
Y02655D01*
X022699Y026456D01*
X022736Y026368D01*
X022793Y026293D01*
X022868Y026236D01*
X022938Y026207D01*
Y025709D01*
X022938Y025709D01*
X022946Y025666D01*
X022971Y025629D01*
X023029Y025571D01*
X023029Y025571D01*
X023066Y025546D01*
X023109Y025538D01*
X02329D01*
Y025346D01*
X02371D01*
Y025954D01*
X02329D01*
Y025762D01*
X023162D01*
Y026207D01*
X023232Y026236D01*
X023307Y026293D01*
X023364Y026368D01*
X023401Y026456D01*
X023413Y02655D01*
Y02675D01*
X023401Y026844D01*
X023364Y026932D01*
X023307Y027007D01*
X023232Y027064D01*
X023144Y027101D01*
X02305Y027113D01*
D02*
G37*
G36*
X01605D02*
X015956Y027101D01*
X015868Y027064D01*
X015793Y027007D01*
X015736Y026932D01*
X015699Y026844D01*
X015687Y02675D01*
Y02655D01*
X015699Y026456D01*
X015736Y026368D01*
X015793Y026293D01*
X015868Y026236D01*
X015938Y026207D01*
Y025709D01*
X015938Y025709D01*
X015946Y025666D01*
X015971Y025629D01*
X016029Y025571D01*
X016029Y025571D01*
X016066Y025546D01*
X016109Y025538D01*
X01629D01*
Y025346D01*
X01671D01*
Y025954D01*
X01629D01*
Y025762D01*
X016162D01*
Y026207D01*
X016232Y026236D01*
X016307Y026293D01*
X016364Y026368D01*
X016401Y026456D01*
X016413Y02655D01*
Y02675D01*
X016401Y026844D01*
X016364Y026932D01*
X016307Y027007D01*
X016232Y027064D01*
X016144Y027101D01*
X01605Y027113D01*
D02*
G37*
G36*
X00905D02*
X008956Y027101D01*
X008868Y027064D01*
X008793Y027007D01*
X008736Y026932D01*
X008699Y026844D01*
X008687Y02675D01*
Y02655D01*
X008699Y026456D01*
X008736Y026368D01*
X008793Y026293D01*
X008868Y026236D01*
X008938Y026207D01*
Y025709D01*
X008938Y025709D01*
X008946Y025666D01*
X008971Y025629D01*
X009029Y025571D01*
X009029Y025571D01*
X009066Y025546D01*
X009109Y025538D01*
X00929D01*
Y025346D01*
X00971D01*
Y025954D01*
X00929D01*
Y025762D01*
X009162D01*
Y026207D01*
X009232Y026236D01*
X009307Y026293D01*
X009364Y026368D01*
X009401Y026456D01*
X009413Y02655D01*
Y02675D01*
X009401Y026844D01*
X009364Y026932D01*
X009307Y027007D01*
X009232Y027064D01*
X009144Y027101D01*
X00905Y027113D01*
D02*
G37*
G36*
X0618Y025514D02*
X0613D01*
X061218Y025498D01*
X061149Y025451D01*
X061102Y025382D01*
X061086Y0253D01*
Y025D01*
X061102Y024918D01*
X061149Y024849D01*
X061218Y024802D01*
X0613Y024786D01*
X0618D01*
X061882Y024802D01*
X061951Y024849D01*
X061998Y024918D01*
X062014Y025D01*
Y0253D01*
X061998Y025382D01*
X061951Y025451D01*
X061882Y025498D01*
X0618Y025514D01*
D02*
G37*
G36*
X05875Y024994D02*
X05855D01*
Y0247D01*
X05875D01*
Y024994D01*
D02*
G37*
G36*
X05845D02*
X05825D01*
Y0247D01*
X05845D01*
Y024994D01*
D02*
G37*
G36*
X0526Y024865D02*
Y0247D01*
X052765D01*
X052735Y024774D01*
X052674Y024835D01*
X0526Y024865D01*
D02*
G37*
G36*
X0525D02*
X052426Y024835D01*
X052365Y024774D01*
X052335Y0247D01*
X0525D01*
Y024865D01*
D02*
G37*
G36*
X05175Y024994D02*
X05155D01*
Y0247D01*
X05175D01*
Y024994D01*
D02*
G37*
G36*
X05145D02*
X05125D01*
Y0247D01*
X05145D01*
Y024994D01*
D02*
G37*
G36*
X04475D02*
X04455D01*
Y0247D01*
X04475D01*
Y024994D01*
D02*
G37*
G36*
X04445D02*
X04425D01*
Y0247D01*
X04445D01*
Y024994D01*
D02*
G37*
G36*
X03775D02*
X03755D01*
Y0247D01*
X03775D01*
Y024994D01*
D02*
G37*
G36*
X03745D02*
X03725D01*
Y0247D01*
X03745D01*
Y024994D01*
D02*
G37*
G36*
X03075D02*
X03055D01*
Y0247D01*
X03075D01*
Y024994D01*
D02*
G37*
G36*
X03045D02*
X03025D01*
Y0247D01*
X03045D01*
Y024994D01*
D02*
G37*
G36*
X02375D02*
X02355D01*
Y0247D01*
X02375D01*
Y024994D01*
D02*
G37*
G36*
X02345D02*
X02325D01*
Y0247D01*
X02345D01*
Y024994D01*
D02*
G37*
G36*
X01675D02*
X01655D01*
Y0247D01*
X01675D01*
Y024994D01*
D02*
G37*
G36*
X01645D02*
X01625D01*
Y0247D01*
X01645D01*
Y024994D01*
D02*
G37*
G36*
X00975D02*
X00955D01*
Y0247D01*
X00975D01*
Y024994D01*
D02*
G37*
G36*
X00945D02*
X00925D01*
Y0247D01*
X00945D01*
Y024994D01*
D02*
G37*
G36*
X052765Y0246D02*
X0526D01*
Y024435D01*
X052674Y024465D01*
X052735Y024526D01*
X052765Y0246D01*
D02*
G37*
G36*
X0525D02*
X052335D01*
X052365Y024526D01*
X052426Y024465D01*
X0525Y024435D01*
Y0246D01*
D02*
G37*
G36*
X05781Y025954D02*
X05739D01*
Y025346D01*
X057488D01*
Y024954D01*
X05739D01*
Y024346D01*
X05781D01*
Y024954D01*
X057712D01*
Y025346D01*
X05781D01*
Y025954D01*
D02*
G37*
G36*
X05081D02*
X05039D01*
Y025346D01*
X050488D01*
Y024954D01*
X05039D01*
Y024346D01*
X05081D01*
Y024954D01*
X050712D01*
Y025346D01*
X05081D01*
Y025954D01*
D02*
G37*
G36*
X04381D02*
X04339D01*
Y025346D01*
X043488D01*
Y024954D01*
X04339D01*
Y024346D01*
X04381D01*
Y024954D01*
X043712D01*
Y025346D01*
X04381D01*
Y025954D01*
D02*
G37*
G36*
X03681D02*
X03639D01*
Y025346D01*
X036488D01*
Y024954D01*
X03639D01*
Y024346D01*
X03681D01*
Y024954D01*
X036712D01*
Y025346D01*
X03681D01*
Y025954D01*
D02*
G37*
G36*
X02981D02*
X02939D01*
Y025346D01*
X029488D01*
Y024954D01*
X02939D01*
Y024346D01*
X02981D01*
Y024954D01*
X029712D01*
Y025346D01*
X02981D01*
Y025954D01*
D02*
G37*
G36*
X02281D02*
X02239D01*
Y025346D01*
X022488D01*
Y024954D01*
X02239D01*
Y024346D01*
X02281D01*
Y024954D01*
X022712D01*
Y025346D01*
X02281D01*
Y025954D01*
D02*
G37*
G36*
X01581D02*
X01539D01*
Y025346D01*
X015488D01*
Y024954D01*
X01539D01*
Y024346D01*
X01581D01*
Y024954D01*
X015712D01*
Y025346D01*
X01581D01*
Y025954D01*
D02*
G37*
G36*
X00881D02*
X00839D01*
Y025346D01*
X008462D01*
Y024954D01*
X00839D01*
Y024346D01*
X00881D01*
Y024954D01*
X008738D01*
Y025346D01*
X00881D01*
Y025954D01*
D02*
G37*
G36*
X05875Y0246D02*
X05855D01*
Y024306D01*
X05875D01*
Y0246D01*
D02*
G37*
G36*
X05845D02*
X05825D01*
Y024306D01*
X05845D01*
Y0246D01*
D02*
G37*
G36*
X05175D02*
X05155D01*
Y024306D01*
X05175D01*
Y0246D01*
D02*
G37*
G36*
X05145D02*
X05125D01*
Y024306D01*
X05145D01*
Y0246D01*
D02*
G37*
G36*
X04475D02*
X04455D01*
Y024306D01*
X04475D01*
Y0246D01*
D02*
G37*
G36*
X04445D02*
X04425D01*
Y024306D01*
X04445D01*
Y0246D01*
D02*
G37*
G36*
X03775D02*
X03755D01*
Y024306D01*
X03775D01*
Y0246D01*
D02*
G37*
G36*
X03745D02*
X03725D01*
Y024306D01*
X03745D01*
Y0246D01*
D02*
G37*
G36*
X03075D02*
X03055D01*
Y024306D01*
X03075D01*
Y0246D01*
D02*
G37*
G36*
X03045D02*
X03025D01*
Y024306D01*
X03045D01*
Y0246D01*
D02*
G37*
G36*
X02375D02*
X02355D01*
Y024306D01*
X02375D01*
Y0246D01*
D02*
G37*
G36*
X02345D02*
X02325D01*
Y024306D01*
X02345D01*
Y0246D01*
D02*
G37*
G36*
X01675D02*
X01655D01*
Y024306D01*
X01675D01*
Y0246D01*
D02*
G37*
G36*
X01645D02*
X01625D01*
Y024306D01*
X01645D01*
Y0246D01*
D02*
G37*
G36*
X00975D02*
X00955D01*
Y024306D01*
X00975D01*
Y0246D01*
D02*
G37*
G36*
X00945D02*
X00925D01*
Y024306D01*
X00945D01*
Y0246D01*
D02*
G37*
G36*
X043135Y02285D02*
X043116D01*
Y0222D01*
X043766D01*
Y022219D01*
X043739Y022354D01*
X043686Y022482D01*
X043609Y022596D01*
X043512Y022694D01*
X043397Y02277D01*
X04327Y022823D01*
X043135Y02285D01*
D02*
G37*
G36*
X029135D02*
X029116D01*
Y0222D01*
X029766D01*
Y022219D01*
X029739Y022354D01*
X029686Y022482D01*
X029609Y022596D01*
X029512Y022694D01*
X029397Y02277D01*
X02927Y022823D01*
X029135Y02285D01*
D02*
G37*
G36*
X06165Y022553D02*
X0616D01*
Y0222D01*
X062047D01*
X06204Y022254D01*
X061999Y022352D01*
X061935Y022435D01*
X061852Y022499D01*
X061754Y02254D01*
X06165Y022553D01*
D02*
G37*
G36*
X057135Y02285D02*
X057116D01*
Y0222D01*
X057766D01*
Y022219D01*
X057739Y022354D01*
X057686Y022482D01*
X057609Y022596D01*
X057512Y022694D01*
X057397Y02277D01*
X05727Y022823D01*
X057135Y02285D01*
D02*
G37*
G36*
X050135D02*
X050116D01*
Y0222D01*
X050766D01*
Y022219D01*
X050739Y022354D01*
X050686Y022482D01*
X050609Y022596D01*
X050512Y022694D01*
X050397Y02277D01*
X05027Y022823D01*
X050135Y02285D01*
D02*
G37*
G36*
X015135D02*
X015116D01*
Y0222D01*
X015766D01*
Y022219D01*
X015739Y022354D01*
X015686Y022482D01*
X015609Y022596D01*
X015512Y022694D01*
X015397Y02277D01*
X01527Y022823D01*
X015135Y02285D01*
D02*
G37*
G36*
X008135D02*
X008116D01*
Y0222D01*
X008766D01*
Y022219D01*
X008739Y022354D01*
X008686Y022482D01*
X008609Y022596D01*
X008512Y022694D01*
X008397Y02277D01*
X00827Y022823D01*
X008135Y02285D01*
D02*
G37*
G36*
X036135D02*
X036116D01*
Y0222D01*
X036766D01*
Y022219D01*
X036739Y022354D01*
X036686Y022482D01*
X036609Y022596D01*
X036512Y022694D01*
X036397Y02277D01*
X03627Y022823D01*
X036135Y02285D01*
D02*
G37*
G36*
X022135D02*
X022116D01*
Y0222D01*
X022766D01*
Y022219D01*
X022739Y022354D01*
X022686Y022482D01*
X022609Y022596D01*
X022512Y022694D01*
X022397Y02277D01*
X02227Y022823D01*
X022135Y02285D01*
D02*
G37*
G36*
X0615Y022553D02*
X06145D01*
X061346Y02254D01*
X061248Y022499D01*
X061165Y022435D01*
X061101Y022352D01*
X06106Y022254D01*
X061053Y0222D01*
X0615D01*
Y022553D01*
D02*
G37*
G36*
X029016Y02285D02*
X028997D01*
X028862Y022823D01*
X028734Y02277D01*
X02862Y022694D01*
X028522Y022596D01*
X028445Y022482D01*
X028393Y022354D01*
X028366Y022219D01*
Y0222D01*
X029016D01*
Y02285D01*
D02*
G37*
G36*
X057016D02*
X056997D01*
X056862Y022823D01*
X056734Y02277D01*
X05662Y022694D01*
X056522Y022596D01*
X056445Y022482D01*
X056393Y022354D01*
X056366Y022219D01*
Y0222D01*
X057016D01*
Y02285D01*
D02*
G37*
G36*
X050016D02*
X049997D01*
X049862Y022823D01*
X049734Y02277D01*
X04962Y022694D01*
X049522Y022596D01*
X049445Y022482D01*
X049393Y022354D01*
X049366Y022219D01*
Y0222D01*
X050016D01*
Y02285D01*
D02*
G37*
G36*
X043016D02*
X042997D01*
X042862Y022823D01*
X042734Y02277D01*
X04262Y022694D01*
X042522Y022596D01*
X042445Y022482D01*
X042393Y022354D01*
X042366Y022219D01*
Y0222D01*
X043016D01*
Y02285D01*
D02*
G37*
G36*
X008016D02*
X007997D01*
X007862Y022823D01*
X007734Y02277D01*
X00762Y022694D01*
X007522Y022596D01*
X007445Y022482D01*
X007393Y022354D01*
X007366Y022219D01*
Y0222D01*
X008016D01*
Y02285D01*
D02*
G37*
G36*
X036016D02*
X035997D01*
X035862Y022823D01*
X035734Y02277D01*
X03562Y022694D01*
X035522Y022596D01*
X035445Y022482D01*
X035393Y022354D01*
X035366Y022219D01*
Y0222D01*
X036016D01*
Y02285D01*
D02*
G37*
G36*
X022016D02*
X021997D01*
X021862Y022823D01*
X021734Y02277D01*
X02162Y022694D01*
X021522Y022596D01*
X021445Y022482D01*
X021393Y022354D01*
X021366Y022219D01*
Y0222D01*
X022016D01*
Y02285D01*
D02*
G37*
G36*
X015016D02*
X014997D01*
X014862Y022823D01*
X014734Y02277D01*
X01462Y022694D01*
X014522Y022596D01*
X014445Y022482D01*
X014393Y022354D01*
X014366Y022219D01*
Y0222D01*
X015016D01*
Y02285D01*
D02*
G37*
G36*
X062047Y0221D02*
X0616D01*
Y021747D01*
X06165D01*
X061754Y02176D01*
X061852Y021801D01*
X061935Y021865D01*
X061999Y021948D01*
X06204Y022046D01*
X062047Y0221D01*
D02*
G37*
G36*
X0615D02*
X061053D01*
X06106Y022046D01*
X061101Y021948D01*
X061165Y021865D01*
X061248Y021801D01*
X061346Y02176D01*
X06145Y021747D01*
X0615D01*
Y0221D01*
D02*
G37*
G36*
X059099Y02281D02*
X058969D01*
X058842Y022785D01*
X058722Y022735D01*
X058614Y022663D01*
X058522Y022571D01*
X058449Y022463D01*
X0584Y022343D01*
X058374Y022215D01*
Y022085D01*
X0584Y021957D01*
X058449Y021837D01*
X058522Y021729D01*
X058614Y021637D01*
X058722Y021565D01*
X058842Y021515D01*
X058969Y02149D01*
X059099D01*
X059227Y021515D01*
X059347Y021565D01*
X059455Y021637D01*
X059547Y021729D01*
X059619Y021837D01*
X059669Y021957D01*
X059694Y022085D01*
Y022215D01*
X059669Y022343D01*
X059619Y022463D01*
X059547Y022571D01*
X059455Y022663D01*
X059347Y022735D01*
X059227Y022785D01*
X059099Y02281D01*
D02*
G37*
G36*
X052099D02*
X051969D01*
X051842Y022785D01*
X051722Y022735D01*
X051614Y022663D01*
X051522Y022571D01*
X051449Y022463D01*
X0514Y022343D01*
X051374Y022215D01*
Y022085D01*
X0514Y021957D01*
X051449Y021837D01*
X051522Y021729D01*
X051614Y021637D01*
X051722Y021565D01*
X051842Y021515D01*
X051969Y02149D01*
X052099D01*
X052227Y021515D01*
X052347Y021565D01*
X052455Y021637D01*
X052547Y021729D01*
X052619Y021837D01*
X052669Y021957D01*
X052694Y022085D01*
Y022215D01*
X052669Y022343D01*
X052619Y022463D01*
X052547Y022571D01*
X052455Y022663D01*
X052347Y022735D01*
X052227Y022785D01*
X052099Y02281D01*
D02*
G37*
G36*
X045099D02*
X044969D01*
X044842Y022785D01*
X044722Y022735D01*
X044614Y022663D01*
X044522Y022571D01*
X044449Y022463D01*
X0444Y022343D01*
X044374Y022215D01*
Y022085D01*
X0444Y021957D01*
X044449Y021837D01*
X044522Y021729D01*
X044614Y021637D01*
X044722Y021565D01*
X044842Y021515D01*
X044969Y02149D01*
X045099D01*
X045227Y021515D01*
X045347Y021565D01*
X045455Y021637D01*
X045547Y021729D01*
X045619Y021837D01*
X045669Y021957D01*
X045694Y022085D01*
Y022215D01*
X045669Y022343D01*
X045619Y022463D01*
X045547Y022571D01*
X045455Y022663D01*
X045347Y022735D01*
X045227Y022785D01*
X045099Y02281D01*
D02*
G37*
G36*
X038099D02*
X037969D01*
X037842Y022785D01*
X037722Y022735D01*
X037614Y022663D01*
X037522Y022571D01*
X037449Y022463D01*
X0374Y022343D01*
X037374Y022215D01*
Y022085D01*
X0374Y021957D01*
X037449Y021837D01*
X037522Y021729D01*
X037614Y021637D01*
X037722Y021565D01*
X037842Y021515D01*
X037969Y02149D01*
X038099D01*
X038227Y021515D01*
X038347Y021565D01*
X038455Y021637D01*
X038547Y021729D01*
X038619Y021837D01*
X038669Y021957D01*
X038694Y022085D01*
Y022215D01*
X038669Y022343D01*
X038619Y022463D01*
X038547Y022571D01*
X038455Y022663D01*
X038347Y022735D01*
X038227Y022785D01*
X038099Y02281D01*
D02*
G37*
G36*
X031099D02*
X030969D01*
X030842Y022785D01*
X030722Y022735D01*
X030614Y022663D01*
X030522Y022571D01*
X030449Y022463D01*
X0304Y022343D01*
X030374Y022215D01*
Y022085D01*
X0304Y021957D01*
X030449Y021837D01*
X030522Y021729D01*
X030614Y021637D01*
X030722Y021565D01*
X030842Y021515D01*
X030969Y02149D01*
X031099D01*
X031227Y021515D01*
X031347Y021565D01*
X031455Y021637D01*
X031547Y021729D01*
X031619Y021837D01*
X031669Y021957D01*
X031694Y022085D01*
Y022215D01*
X031669Y022343D01*
X031619Y022463D01*
X031547Y022571D01*
X031455Y022663D01*
X031347Y022735D01*
X031227Y022785D01*
X031099Y02281D01*
D02*
G37*
G36*
X024099D02*
X023969D01*
X023842Y022785D01*
X023722Y022735D01*
X023614Y022663D01*
X023522Y022571D01*
X023449Y022463D01*
X0234Y022343D01*
X023374Y022215D01*
Y022085D01*
X0234Y021957D01*
X023449Y021837D01*
X023522Y021729D01*
X023614Y021637D01*
X023722Y021565D01*
X023842Y021515D01*
X023969Y02149D01*
X024099D01*
X024227Y021515D01*
X024347Y021565D01*
X024455Y021637D01*
X024547Y021729D01*
X024619Y021837D01*
X024669Y021957D01*
X024694Y022085D01*
Y022215D01*
X024669Y022343D01*
X024619Y022463D01*
X024547Y022571D01*
X024455Y022663D01*
X024347Y022735D01*
X024227Y022785D01*
X024099Y02281D01*
D02*
G37*
G36*
X017099D02*
X016969D01*
X016842Y022785D01*
X016722Y022735D01*
X016614Y022663D01*
X016522Y022571D01*
X016449Y022463D01*
X0164Y022343D01*
X016374Y022215D01*
Y022085D01*
X0164Y021957D01*
X016449Y021837D01*
X016522Y021729D01*
X016614Y021637D01*
X016722Y021565D01*
X016842Y021515D01*
X016969Y02149D01*
X017099D01*
X017227Y021515D01*
X017347Y021565D01*
X017455Y021637D01*
X017547Y021729D01*
X017619Y021837D01*
X017669Y021957D01*
X017694Y022085D01*
Y022215D01*
X017669Y022343D01*
X017619Y022463D01*
X017547Y022571D01*
X017455Y022663D01*
X017347Y022735D01*
X017227Y022785D01*
X017099Y02281D01*
D02*
G37*
G36*
X010099D02*
X009969D01*
X009842Y022785D01*
X009722Y022735D01*
X009614Y022663D01*
X009522Y022571D01*
X009449Y022463D01*
X0094Y022343D01*
X009374Y022215D01*
Y022085D01*
X0094Y021957D01*
X009449Y021837D01*
X009522Y021729D01*
X009614Y021637D01*
X009722Y021565D01*
X009842Y021515D01*
X009969Y02149D01*
X010099D01*
X010227Y021515D01*
X010347Y021565D01*
X010455Y021637D01*
X010547Y021729D01*
X010619Y021837D01*
X010669Y021957D01*
X010694Y022085D01*
Y022215D01*
X010669Y022343D01*
X010619Y022463D01*
X010547Y022571D01*
X010455Y022663D01*
X010347Y022735D01*
X010227Y022785D01*
X010099Y02281D01*
D02*
G37*
G36*
X057766Y0221D02*
X057116D01*
Y02145D01*
X057135D01*
X05727Y021477D01*
X057397Y02153D01*
X057512Y021606D01*
X057609Y021704D01*
X057686Y021818D01*
X057739Y021946D01*
X057766Y022081D01*
Y0221D01*
D02*
G37*
G36*
X057016D02*
X056366D01*
Y022081D01*
X056393Y021946D01*
X056445Y021818D01*
X056522Y021704D01*
X05662Y021606D01*
X056734Y02153D01*
X056862Y021477D01*
X056997Y02145D01*
X057016D01*
Y0221D01*
D02*
G37*
G36*
X050766D02*
X050116D01*
Y02145D01*
X050135D01*
X05027Y021477D01*
X050397Y02153D01*
X050512Y021606D01*
X050609Y021704D01*
X050686Y021818D01*
X050739Y021946D01*
X050766Y022081D01*
Y0221D01*
D02*
G37*
G36*
X050016D02*
X049366D01*
Y022081D01*
X049393Y021946D01*
X049445Y021818D01*
X049522Y021704D01*
X04962Y021606D01*
X049734Y02153D01*
X049862Y021477D01*
X049997Y02145D01*
X050016D01*
Y0221D01*
D02*
G37*
G36*
X043766D02*
X043116D01*
Y02145D01*
X043135D01*
X04327Y021477D01*
X043397Y02153D01*
X043512Y021606D01*
X043609Y021704D01*
X043686Y021818D01*
X043739Y021946D01*
X043766Y022081D01*
Y0221D01*
D02*
G37*
G36*
X043016D02*
X042366D01*
Y022081D01*
X042393Y021946D01*
X042445Y021818D01*
X042522Y021704D01*
X04262Y021606D01*
X042734Y02153D01*
X042862Y021477D01*
X042997Y02145D01*
X043016D01*
Y0221D01*
D02*
G37*
G36*
X036766D02*
X036116D01*
Y02145D01*
X036135D01*
X03627Y021477D01*
X036397Y02153D01*
X036512Y021606D01*
X036609Y021704D01*
X036686Y021818D01*
X036739Y021946D01*
X036766Y022081D01*
Y0221D01*
D02*
G37*
G36*
X036016D02*
X035366D01*
Y022081D01*
X035393Y021946D01*
X035445Y021818D01*
X035522Y021704D01*
X03562Y021606D01*
X035734Y02153D01*
X035862Y021477D01*
X035997Y02145D01*
X036016D01*
Y0221D01*
D02*
G37*
G36*
X029766D02*
X029116D01*
Y02145D01*
X029135D01*
X02927Y021477D01*
X029397Y02153D01*
X029512Y021606D01*
X029609Y021704D01*
X029686Y021818D01*
X029739Y021946D01*
X029766Y022081D01*
Y0221D01*
D02*
G37*
G36*
X029016D02*
X028366D01*
Y022081D01*
X028393Y021946D01*
X028445Y021818D01*
X028522Y021704D01*
X02862Y021606D01*
X028734Y02153D01*
X028862Y021477D01*
X028997Y02145D01*
X029016D01*
Y0221D01*
D02*
G37*
G36*
X022766D02*
X022116D01*
Y02145D01*
X022135D01*
X02227Y021477D01*
X022397Y02153D01*
X022512Y021606D01*
X022609Y021704D01*
X022686Y021818D01*
X022739Y021946D01*
X022766Y022081D01*
Y0221D01*
D02*
G37*
G36*
X022016D02*
X021366D01*
Y022081D01*
X021393Y021946D01*
X021445Y021818D01*
X021522Y021704D01*
X02162Y021606D01*
X021734Y02153D01*
X021862Y021477D01*
X021997Y02145D01*
X022016D01*
Y0221D01*
D02*
G37*
G36*
X015766D02*
X015116D01*
Y02145D01*
X015135D01*
X01527Y021477D01*
X015397Y02153D01*
X015512Y021606D01*
X015609Y021704D01*
X015686Y021818D01*
X015739Y021946D01*
X015766Y022081D01*
Y0221D01*
D02*
G37*
G36*
X015016D02*
X014366D01*
Y022081D01*
X014393Y021946D01*
X014445Y021818D01*
X014522Y021704D01*
X01462Y021606D01*
X014734Y02153D01*
X014862Y021477D01*
X014997Y02145D01*
X015016D01*
Y0221D01*
D02*
G37*
G36*
X008766D02*
X008116D01*
Y02145D01*
X008135D01*
X00827Y021477D01*
X008397Y02153D01*
X008512Y021606D01*
X008609Y021704D01*
X008686Y021818D01*
X008739Y021946D01*
X008766Y022081D01*
Y0221D01*
D02*
G37*
G36*
X008016D02*
X007366D01*
Y022081D01*
X007393Y021946D01*
X007445Y021818D01*
X007522Y021704D01*
X00762Y021606D01*
X007734Y02153D01*
X007862Y021477D01*
X007997Y02145D01*
X008016D01*
Y0221D01*
D02*
G37*
G36*
X06155Y020354D02*
X061413Y02034D01*
X061281Y0203D01*
X061159Y020235D01*
X061052Y020148D01*
X060965Y020041D01*
X0609Y019919D01*
X06086Y019787D01*
X060846Y01965D01*
X06086Y019513D01*
X0609Y019381D01*
X060965Y019259D01*
X061052Y019152D01*
X061159Y019065D01*
X061281Y019D01*
X061413Y01896D01*
X06155Y018946D01*
X061687Y01896D01*
X061819Y019D01*
X061941Y019065D01*
X062048Y019152D01*
X062135Y019259D01*
X0622Y019381D01*
X06224Y019513D01*
X062254Y01965D01*
X06224Y019787D01*
X0622Y019919D01*
X062135Y020041D01*
X062048Y020148D01*
X061941Y020235D01*
X061819Y0203D01*
X061687Y02034D01*
X06155Y020354D01*
D02*
G37*
G36*
X00555D02*
X005413Y02034D01*
X005281Y0203D01*
X005159Y020235D01*
X005052Y020148D01*
X004965Y020041D01*
X0049Y019919D01*
X00486Y019787D01*
X004846Y01965D01*
X00486Y019513D01*
X0049Y019381D01*
X004965Y019259D01*
X005052Y019152D01*
X005159Y019065D01*
X005281Y019D01*
X005413Y01896D01*
X00555Y018946D01*
X005687Y01896D01*
X005819Y019D01*
X005941Y019065D01*
X006048Y019152D01*
X006135Y019259D01*
X0062Y019381D01*
X00624Y019513D01*
X006254Y01965D01*
X00624Y019787D01*
X0062Y019919D01*
X006135Y020041D01*
X006048Y020148D01*
X005941Y020235D01*
X005819Y0203D01*
X005687Y02034D01*
X00555Y020354D01*
D02*
G37*
%LPD*%
G36*
X061674Y045113D02*
X06179Y045065D01*
X061889Y044989D01*
X061965Y04489D01*
X062013Y044774D01*
X06203Y04465D01*
X062013Y044526D01*
X061965Y04441D01*
X061889Y044311D01*
X06179Y044235D01*
X061674Y044187D01*
X06155Y04417D01*
X061426Y044187D01*
X06131Y044235D01*
X061211Y044311D01*
X061135Y04441D01*
X061087Y044526D01*
X06107Y04465D01*
X061087Y044774D01*
X061135Y04489D01*
X061211Y044989D01*
X06131Y045065D01*
X061426Y045113D01*
X06155Y04513D01*
X061674Y045113D01*
D02*
G37*
G36*
X005674D02*
X00579Y045065D01*
X005889Y044989D01*
X005965Y04489D01*
X006013Y044774D01*
X00603Y04465D01*
X006013Y044526D01*
X005965Y04441D01*
X005889Y044311D01*
X00579Y044235D01*
X005674Y044187D01*
X00555Y04417D01*
X005426Y044187D01*
X00531Y044235D01*
X005211Y044311D01*
X005135Y04441D01*
X005087Y044526D01*
X00507Y04465D01*
X005087Y044774D01*
X005135Y04489D01*
X005211Y044989D01*
X00531Y045065D01*
X005426Y045113D01*
X00555Y04513D01*
X005674Y045113D01*
D02*
G37*
G36*
X061674Y020113D02*
X06179Y020065D01*
X061889Y019989D01*
X061965Y01989D01*
X062013Y019774D01*
X06203Y01965D01*
X062013Y019526D01*
X061965Y01941D01*
X061889Y019311D01*
X06179Y019235D01*
X061674Y019187D01*
X06155Y01917D01*
X061426Y019187D01*
X06131Y019235D01*
X061211Y019311D01*
X061135Y01941D01*
X061087Y019526D01*
X06107Y01965D01*
X061087Y019774D01*
X061135Y01989D01*
X061211Y019989D01*
X06131Y020065D01*
X061426Y020113D01*
X06155Y02013D01*
X061674Y020113D01*
D02*
G37*
G36*
X005674D02*
X00579Y020065D01*
X005889Y019989D01*
X005965Y01989D01*
X006013Y019774D01*
X00603Y01965D01*
X006013Y019526D01*
X005965Y01941D01*
X005889Y019311D01*
X00579Y019235D01*
X005674Y019187D01*
X00555Y01917D01*
X005426Y019187D01*
X00531Y019235D01*
X005211Y019311D01*
X005135Y01941D01*
X005087Y019526D01*
X00507Y01965D01*
X005087Y019774D01*
X005135Y01989D01*
X005211Y019989D01*
X00531Y020065D01*
X005426Y020113D01*
X00555Y02013D01*
X005674Y020113D01*
D02*
G37*
D10*
X05445Y0235D02*
X0557D01*
X05585Y02145D02*
Y02335D01*
X0557Y0235D02*
X05585Y02335D01*
Y02145D02*
X05605Y02125D01*
X062D01*
X0623Y02155D02*
Y02585D01*
X062Y02125D02*
X0623Y02155D01*
X06155Y03915D02*
X06165D01*
X06205Y0336D02*
Y03875D01*
X06165Y03915D02*
X06205Y03875D01*
X06136Y03339D02*
X0615Y03325D01*
X06004Y03339D02*
X06136D01*
X0615Y03085D02*
Y03325D01*
Y03085D02*
X06165Y0307D01*
X06205D01*
Y0316D02*
Y0327D01*
Y0261D02*
Y0307D01*
Y0261D02*
X0623Y02585D01*
X0548Y0344D02*
X05565D01*
X055688Y034363D01*
X05455Y03415D02*
X0548Y0344D01*
X05455Y0299D02*
Y03415D01*
X0515Y02465D02*
X05255D01*
X060786Y03765D02*
X06155D01*
X053786D02*
X05455D01*
X046412Y03665D02*
X046412Y03665D01*
X046412Y034363D02*
X046412Y034363D01*
X039412Y03665D02*
X039412Y03665D01*
X039412Y034363D02*
X039412Y034363D01*
X053412Y03665D02*
X053412Y03665D01*
X053412Y034363D02*
X053412Y034363D01*
X032412Y03665D02*
X032412Y03665D01*
X032412Y034363D02*
X032412Y034363D01*
X025412Y034363D02*
X025412Y034363D01*
Y03665D02*
X025412Y03665D01*
X025412Y036233D02*
Y03665D01*
X0243Y036233D02*
X025412D01*
Y034363D02*
Y036233D01*
X018412Y03665D02*
X018412Y03665D01*
X018412Y034363D02*
X018412Y034363D01*
X0173Y036233D02*
X018412D01*
Y034363D02*
Y036233D01*
Y03665D01*
X011412Y03665D02*
X011412Y03665D01*
X011412Y034363D02*
X011412Y034363D01*
X0103Y036233D02*
X011412D01*
Y034363D02*
Y036233D01*
Y03665D01*
X011786Y03765D02*
X01255D01*
X0086Y03665D02*
Y03765D01*
X0226Y03665D02*
Y03765D01*
X0156Y03665D02*
Y03765D01*
X0296Y03665D02*
Y03765D01*
X0366Y03665D02*
Y03765D01*
X0436Y03665D02*
Y03765D01*
X0313Y036233D02*
X032412D01*
Y034363D02*
Y036233D01*
Y03665D01*
X0383Y036233D02*
X039412D01*
Y034363D02*
Y036233D01*
Y03665D01*
X032786Y03765D02*
X03355D01*
X039786D02*
X04055D01*
X046786D02*
X04755D01*
X0506Y03665D02*
Y03765D01*
X025786D02*
X02655D01*
X018786D02*
X01955D01*
X0453Y036233D02*
X046412D01*
Y034363D02*
Y036233D01*
Y03665D01*
X0523Y036233D02*
X053412D01*
X061056Y03715D02*
X061456Y03675D01*
X06155D01*
X058925Y03715D02*
X061056D01*
X05755Y0334D02*
X058675D01*
X0576Y03665D02*
Y03765D01*
X060412Y034363D02*
Y036233D01*
Y03665D01*
X0593Y036233D02*
X060412D01*
X0593D02*
X05932Y036253D01*
X05805Y03515D02*
X0585Y0356D01*
Y03665D01*
X0515Y0356D02*
Y03665D01*
X05105Y03515D02*
X0515Y0356D01*
X04405Y03515D02*
X0445Y0356D01*
Y03665D01*
X03705Y03515D02*
X0375Y0356D01*
Y03665D01*
X03005Y03515D02*
X0305Y0356D01*
Y03665D01*
X0235Y0356D02*
Y03665D01*
X02305Y03515D02*
X0235Y0356D01*
X0165D02*
Y03665D01*
X01605Y03515D02*
X0165Y0356D01*
X0095D02*
Y03665D01*
X00905Y03515D02*
X0095Y0356D01*
X058675Y0334D02*
X0588Y033525D01*
Y037025D01*
X058925Y03715D01*
X05805Y0258D02*
X0582Y02565D01*
X0585D01*
X05805Y0258D02*
Y02665D01*
X0576Y02465D02*
Y02565D01*
X057066Y02215D02*
X0585Y023584D01*
Y02465D01*
X0506D02*
Y02565D01*
X050066Y02215D02*
X0515Y023584D01*
Y02465D01*
X043066Y02215D02*
X0445Y023584D01*
Y02465D01*
X0375Y023584D02*
Y02465D01*
X036066Y02215D02*
X0375Y023584D01*
X029066Y02215D02*
X0305Y023584D01*
Y02465D01*
X022066Y02215D02*
X0235Y023584D01*
Y02465D01*
X0165Y023584D02*
Y02465D01*
X015066Y02215D02*
X0165Y023584D01*
X0156Y02465D02*
Y02565D01*
X0226Y02465D02*
Y02565D01*
X0296Y02465D02*
Y02565D01*
X0366Y02465D02*
Y02565D01*
X0436Y02465D02*
Y02565D01*
X04405Y025709D02*
Y02665D01*
X044109Y02565D02*
X0445D01*
X04405Y025709D02*
X044109Y02565D01*
X05105Y025709D02*
X051109Y02565D01*
X0515D01*
X05105Y025709D02*
Y02665D01*
X03705Y025709D02*
X037109Y02565D01*
X0375D01*
X03705Y025709D02*
Y02665D01*
X030109Y02565D02*
X0305D01*
X03005Y025709D02*
Y02665D01*
Y025709D02*
X030109Y02565D01*
X02305Y025709D02*
X023109Y02565D01*
X02305Y025709D02*
Y02665D01*
X023109Y02565D02*
X0235D01*
X01605Y025709D02*
Y02665D01*
X016109Y02565D02*
X0165D01*
X01605Y025709D02*
X016109Y02565D01*
X00905Y025709D02*
Y02665D01*
Y025709D02*
X009109Y02565D01*
X0095D01*
D11*
X0585Y03765D02*
X0593D01*
Y03915D02*
X06155D01*
X0593Y03765D02*
X060038D01*
X0515D02*
X0523D01*
X053038D01*
X0095D02*
X0103D01*
X011038D01*
X0173D02*
Y0414D01*
X017178Y041522D02*
X0173Y0414D01*
X01605Y041522D02*
X017178D01*
X024175Y041525D02*
X0243Y0414D01*
Y03765D02*
Y0414D01*
X02305Y041522D02*
X023053Y041525D01*
X024175D01*
X03005Y041522D02*
X031178D01*
X0313Y0414D01*
Y03765D02*
Y0414D01*
X038178Y041522D02*
X0383Y0414D01*
X03705Y041522D02*
X038178D01*
X0383Y03765D02*
Y0414D01*
X04405Y041522D02*
X045178D01*
X0453Y0414D01*
Y03765D02*
Y0414D01*
X05105Y041522D02*
X052178D01*
X0523Y0414D01*
Y03765D02*
Y0414D01*
X05805Y041522D02*
X059172D01*
X0593Y041394D01*
X0305Y03765D02*
X0313D01*
X032038D01*
X0375D02*
X0383D01*
X039038D01*
X0445D02*
X0453D01*
X046038D01*
X0235D02*
X0243D01*
X025038D01*
X0165D02*
X0173D01*
X018038D01*
X053412Y034363D02*
Y036233D01*
Y03665D01*
X00905Y041522D02*
X010178D01*
X0103Y0414D01*
Y03765D02*
Y0414D01*
X0593Y03765D02*
Y03915D01*
Y041394D01*
X008066Y02215D02*
X0095Y023584D01*
Y02465D01*
X0086D02*
Y02565D01*
D15*
X06205Y0336D02*
D03*
Y0327D02*
D03*
Y0307D02*
D03*
Y0316D02*
D03*
X01255Y03765D02*
D03*
Y03675D02*
D03*
X04055Y03765D02*
D03*
Y03675D02*
D03*
X01955Y03765D02*
D03*
Y03675D02*
D03*
X04755Y03765D02*
D03*
Y03675D02*
D03*
X02655Y03765D02*
D03*
Y03675D02*
D03*
X05455Y03765D02*
D03*
Y03675D02*
D03*
X03355Y03765D02*
D03*
Y03675D02*
D03*
X06155Y03765D02*
D03*
Y03675D02*
D03*
D16*
X0086Y03765D02*
D03*
X0095D02*
D03*
X0366D02*
D03*
X0375D02*
D03*
X0086Y02465D02*
D03*
X0095D02*
D03*
X0366D02*
D03*
X0375D02*
D03*
X0156Y03765D02*
D03*
X0165D02*
D03*
X0436D02*
D03*
X0445D02*
D03*
X0156Y02465D02*
D03*
X0165D02*
D03*
X0436D02*
D03*
X0445D02*
D03*
X0226Y03765D02*
D03*
X0235D02*
D03*
X0506D02*
D03*
X0515D02*
D03*
X0226Y02465D02*
D03*
X0235D02*
D03*
X0506D02*
D03*
X0515D02*
D03*
X0296Y03765D02*
D03*
X0305D02*
D03*
X0576D02*
D03*
X0585D02*
D03*
X0296Y02465D02*
D03*
X0305D02*
D03*
X0576D02*
D03*
X0585D02*
D03*
X0086Y03665D02*
D03*
X0095D02*
D03*
X0366D02*
D03*
X0375D02*
D03*
X0086Y02565D02*
D03*
X0095D02*
D03*
X0366D02*
D03*
X0375D02*
D03*
X0156Y03665D02*
D03*
X0165D02*
D03*
X0436D02*
D03*
X0445D02*
D03*
X0156Y02565D02*
D03*
X0165D02*
D03*
X0436D02*
D03*
X0445D02*
D03*
X0226Y03665D02*
D03*
X0235D02*
D03*
X0506D02*
D03*
X0515D02*
D03*
X0226Y02565D02*
D03*
X0235D02*
D03*
X0506D02*
D03*
X0515D02*
D03*
X0296Y03665D02*
D03*
X0305D02*
D03*
X0576D02*
D03*
X0585D02*
D03*
X0296Y02565D02*
D03*
X0305D02*
D03*
X0576D02*
D03*
X0585D02*
D03*
D17*
X0103Y03765D02*
D03*
Y036233D02*
D03*
X0383Y03765D02*
D03*
Y036233D02*
D03*
X0173Y03765D02*
D03*
Y036233D02*
D03*
X0453Y03765D02*
D03*
Y036233D02*
D03*
X0243Y03765D02*
D03*
Y036233D02*
D03*
X0523Y03765D02*
D03*
Y036233D02*
D03*
X0313Y03765D02*
D03*
Y036233D02*
D03*
X0593Y03765D02*
D03*
Y036233D02*
D03*
D18*
X011038Y03765D02*
D03*
X011786D02*
D03*
X011412Y03665D02*
D03*
X039038Y03765D02*
D03*
X039786D02*
D03*
X039412Y03665D02*
D03*
X018038Y03765D02*
D03*
X018786D02*
D03*
X018412Y03665D02*
D03*
X046038Y03765D02*
D03*
X046786D02*
D03*
X046412Y03665D02*
D03*
X025038Y03765D02*
D03*
X025786D02*
D03*
X025412Y03665D02*
D03*
X053038Y03765D02*
D03*
X053786D02*
D03*
X053412Y03665D02*
D03*
X032038Y03765D02*
D03*
X032786D02*
D03*
X032412Y03665D02*
D03*
X060038Y03765D02*
D03*
X060786D02*
D03*
X060412Y03665D02*
D03*
D32*
X05455Y0359D02*
Y03675D01*
X04755Y0359D02*
Y03675D01*
X04055Y0359D02*
Y03675D01*
X02655Y0359D02*
Y03675D01*
X01955Y0359D02*
Y03675D01*
X01255Y0359D02*
Y03675D01*
X03355Y0359D02*
Y03675D01*
X0598Y023275D02*
X059925Y02315D01*
X06155D01*
X0598Y023275D02*
Y026433D01*
X06Y024325D02*
X060175Y02415D01*
X06155D01*
X06Y024325D02*
Y02635D01*
X0611Y027733D02*
Y031525D01*
X0598Y026433D02*
X0611Y027733D01*
X0608Y031825D02*
Y0324D01*
Y031825D02*
X0611Y031525D01*
X06Y02635D02*
X0613Y02765D01*
X0608Y0329D02*
X06118D01*
X0613Y02765D02*
Y03278D01*
X06118Y0329D02*
X0613Y03278D01*
D33*
X01005Y02665D02*
Y028197D01*
X011412Y029559D01*
X013688D02*
X01505Y028197D01*
Y02665D02*
Y028197D01*
X01705Y02665D02*
Y028197D01*
X018412Y029559D01*
X020688D02*
X02205Y028197D01*
Y02665D02*
Y028197D01*
X02405Y02665D02*
Y028197D01*
X025412Y029559D01*
X02905Y02665D02*
Y028197D01*
X027688Y029559D02*
X02905Y028197D01*
X03105Y02665D02*
Y028197D01*
X032412Y029559D01*
X03605Y02665D02*
Y028197D01*
X034688Y029559D02*
X03605Y028197D01*
X03805Y028197D02*
X039412Y029559D01*
X03805Y02665D02*
Y028197D01*
X04305Y02665D02*
Y028197D01*
X041688Y029559D02*
X04305Y028197D01*
X04505Y02665D02*
Y028197D01*
X046412Y029559D01*
X05005Y02665D02*
Y028197D01*
X048688Y029559D02*
X05005Y028197D01*
X05205Y02665D02*
Y028197D01*
X053412Y029559D01*
X05705Y02665D02*
Y028197D01*
X055688Y029559D02*
X05705Y028197D01*
X05905Y028197D02*
X060412Y029559D01*
X05905Y02665D02*
Y028197D01*
X050993Y035207D02*
X05105Y03515D01*
X03704Y03516D02*
X03705Y03515D01*
X029993Y035207D02*
X03005Y03515D01*
X01601Y03519D02*
X01605Y03515D01*
X006688Y029559D02*
X00805Y028197D01*
Y02665D02*
Y028197D01*
X008993Y035207D02*
X00905Y03515D01*
X0078Y03915D02*
X00905D01*
X0078Y035557D02*
X00815Y035207D01*
X0078Y035557D02*
Y03915D01*
X00815Y035207D02*
X008993D01*
X0148Y03549D02*
X0151Y03519D01*
X0148Y03549D02*
Y03915D01*
X0151Y03519D02*
X01601D01*
X0148Y03915D02*
X01605D01*
X0148D02*
Y04315D01*
X01625D02*
X01725Y04415D01*
X01255Y04315D02*
X0148D01*
X01625D01*
X01725Y04415D02*
X01955D01*
X0078Y0424D02*
X0083Y0429D01*
X0078Y03915D02*
Y0424D01*
X0098Y0429D02*
X01105Y04415D01*
X01255D01*
X0083Y0429D02*
X0098D01*
X02185Y035635D02*
X022335Y03515D01*
X02185Y035635D02*
Y03915D01*
Y04315D01*
X022335Y03515D02*
X02305D01*
X02185Y03915D02*
X02305D01*
Y04315D02*
X02405Y04415D01*
X01955Y04315D02*
X02185D01*
X02305D01*
X02405Y04415D02*
X02655D01*
X0313D02*
X03355D01*
X0303Y04315D02*
X0313Y04415D01*
X02885Y035507D02*
X02915Y035207D01*
X02885Y035507D02*
Y03915D01*
Y04315D01*
X02915Y035207D02*
X029993D01*
X02885Y03915D02*
X03005D01*
X02655Y04315D02*
X02885D01*
X0303D01*
X0384Y04415D02*
X04055D01*
X0358Y03546D02*
X0361Y03516D01*
X0358Y03546D02*
Y03915D01*
Y04315D01*
X0361Y03516D02*
X03704D01*
X0358Y03915D02*
X03705D01*
X03355Y04315D02*
X0358D01*
X0374D01*
X0384Y04415D01*
X04425Y04315D02*
X04525Y04415D01*
X04755D01*
X0428Y0355D02*
X04315Y03515D01*
X0428Y0355D02*
Y03915D01*
Y04315D01*
X04315Y03515D02*
X04405D01*
X0428Y03915D02*
X04405D01*
X04055Y04315D02*
X0428D01*
X04425D01*
X0522Y04415D02*
X05455D01*
X0498Y035557D02*
X05015Y035207D01*
X0498Y035557D02*
Y03915D01*
Y04315D01*
X05015Y035207D02*
X050993D01*
X0498Y03915D02*
X05105D01*
X04755Y04315D02*
X0498D01*
X0512D01*
X0522Y04415D01*
X0568Y0355D02*
X05715Y03515D01*
X0568Y0355D02*
Y03915D01*
X05715Y03515D02*
X05805D01*
X0568Y03915D02*
X05805D01*
X056449Y04315D02*
X0568Y042799D01*
Y03915D02*
Y042799D01*
X05455Y04315D02*
X056449D01*
D34*
X01005Y02665D02*
D03*
X00905D02*
D03*
X03805D02*
D03*
X03705D02*
D03*
X01705D02*
D03*
X01605D02*
D03*
X04505D02*
D03*
X04405D02*
D03*
X02405D02*
D03*
X02305D02*
D03*
X05205D02*
D03*
X05105D02*
D03*
X03105D02*
D03*
X03005D02*
D03*
X05905D02*
D03*
X05805D02*
D03*
D35*
X00805D02*
D03*
X03605D02*
D03*
X01505D02*
D03*
X04305D02*
D03*
X02205D02*
D03*
X05005D02*
D03*
X02905D02*
D03*
X05705D02*
D03*
D36*
X008066Y02215D02*
D03*
X010034D02*
D03*
X036066D02*
D03*
X038034D02*
D03*
X015066D02*
D03*
X017034D02*
D03*
X043066D02*
D03*
X045034D02*
D03*
X022066D02*
D03*
X024034D02*
D03*
X050066D02*
D03*
X052034D02*
D03*
X029066D02*
D03*
X031034D02*
D03*
X057066D02*
D03*
X059034D02*
D03*
D37*
X007111Y040459D02*
D03*
X035111D02*
D03*
X014111D02*
D03*
X042111D02*
D03*
X021111D02*
D03*
X049111D02*
D03*
X028111D02*
D03*
X056111D02*
D03*
D38*
X00905Y03915D02*
D03*
Y041522D02*
D03*
X03705Y03915D02*
D03*
Y041522D02*
D03*
X01605Y03915D02*
D03*
Y041522D02*
D03*
X04405D02*
D03*
Y03915D02*
D03*
X02305D02*
D03*
Y041522D02*
D03*
X05105Y03915D02*
D03*
Y041522D02*
D03*
X03005Y03915D02*
D03*
Y041522D02*
D03*
X05805Y03915D02*
D03*
Y041522D02*
D03*
D39*
X01255Y04215D02*
D03*
Y04315D02*
D03*
X04055Y04215D02*
D03*
Y04315D02*
D03*
X01955Y04215D02*
D03*
Y04315D02*
D03*
X04755Y04215D02*
D03*
Y04315D02*
D03*
X02655Y04215D02*
D03*
Y04315D02*
D03*
X05455Y04215D02*
D03*
Y04315D02*
D03*
X03355Y04215D02*
D03*
Y04315D02*
D03*
X06155Y02215D02*
D03*
Y02315D02*
D03*
Y02415D02*
D03*
Y03915D02*
D03*
Y04015D02*
D03*
Y04115D02*
D03*
D40*
X01255Y04415D02*
D03*
X04055D02*
D03*
X01955D02*
D03*
X04755D02*
D03*
X02655D02*
D03*
X05455D02*
D03*
X03355D02*
D03*
X06155Y02515D02*
D03*
Y04215D02*
D03*
D41*
X011412Y034363D02*
D03*
X006688D02*
D03*
X039412D02*
D03*
X034688D02*
D03*
X018412D02*
D03*
X013688D02*
D03*
X046412D02*
D03*
X041688D02*
D03*
X025412D02*
D03*
X020688D02*
D03*
X053412D02*
D03*
X048688D02*
D03*
X032412D02*
D03*
X027688D02*
D03*
X060412D02*
D03*
X055688D02*
D03*
D42*
X00905Y03515D02*
D03*
X006688Y029559D02*
D03*
X011412D02*
D03*
X03705Y03515D02*
D03*
X034688Y029559D02*
D03*
X039412D02*
D03*
X01605Y03515D02*
D03*
X013688Y029559D02*
D03*
X018412D02*
D03*
X04405Y03515D02*
D03*
X041688Y029559D02*
D03*
X046412D02*
D03*
X02305Y03515D02*
D03*
X020688Y029559D02*
D03*
X025412D02*
D03*
X05105Y03515D02*
D03*
X048688Y029559D02*
D03*
X053412D02*
D03*
X03005Y03515D02*
D03*
X027688Y029559D02*
D03*
X032412D02*
D03*
X05805Y03515D02*
D03*
X055688Y029559D02*
D03*
X060412D02*
D03*
D43*
X05445Y0235D02*
D03*
X05455Y0299D02*
D03*
X05255Y02465D02*
D03*
X05455Y0359D02*
D03*
X04755D02*
D03*
X04055D02*
D03*
X02655D02*
D03*
X01955D02*
D03*
X01255D02*
D03*
X03355D02*
D03*
X05755Y0334D02*
D03*
X0608Y0324D02*
D03*
Y0329D02*
D03*
X06004Y03339D02*
D03*
M02*
