M48
;Layer_Color=9474304
;FILE_FORMAT=2:4
INCH,LZ
;TYPE=PLATED
T2F00S00C0.0236
T3F00S00C0.0236
%
G90
G05
T02
G00X013061Y042782
M15
G01Y041837
M16
G00X015472Y041
M15
G01X014528
M16
G00X020061Y042782
M15
G01Y041837
M16
G00X022472Y041
M15
G01X021528
M16
G00X027061Y042782
M15
G01Y041837
M16
G00X029472Y041
M15
G01X028528
M16
G00X034061Y042782
M15
G01Y041837
M16
G00X036472Y041
M15
G01X035528
M16
G00X041061Y042782
M15
G01Y041837
M16
G00X043472Y041
M15
G01X042528
M16
G00X048061Y042782
M15
G01Y041837
M16
G00X050472Y041
M15
G01X049528
M16
G00X055061Y042782
M15
G01Y041837
M16
G00X057472Y041
M15
G01X056528
M16
G00X062061Y042782
M15
G01Y041837
M16
G00X064472Y041
M15
G01X063528
M16
T03
G00X015472Y043372
M15
G01X014528
M16
G00X022472Y043372
M15
G01X021528
M16
G00X029472Y043372
M15
G01X028528
M16
G00X036472Y043372
M15
G01X035528
M16
G00X043472Y043372
M15
G01X042528
M16
G00X050472Y043372
M15
G01X049528
M16
G00X057472Y043372
M15
G01X056528
M16
G00X064472Y043372
M15
G01X063528
M16
M17
M30
