G04*
G04 #@! TF.GenerationSoftware,Altium Limited,Altium Designer,21.6.1 (37)*
G04*
G04 Layer_Color=8388736*
%FSTAX24Y24*%
%MOIN*%
G70*
G04*
G04 #@! TF.SameCoordinates,81F21C5A-03A8-4AE1-96E5-B6EC8A9FC791*
G04*
G04*
G04 #@! TF.FilePolarity,Negative*
G04*
G01*
G75*
%ADD24R,0.0568X0.0380*%
%ADD25R,0.0277X0.0395*%
%ADD26R,0.0380X0.0568*%
%ADD27R,0.0867X0.0671*%
%ADD28R,0.0380X0.0180*%
G04:AMPARAMS|DCode=29|XSize=67.1mil|YSize=126.1mil|CornerRadius=18.8mil|HoleSize=0mil|Usage=FLASHONLY|Rotation=270.000|XOffset=0mil|YOffset=0mil|HoleType=Round|Shape=RoundedRectangle|*
%AMROUNDEDRECTD29*
21,1,0.0671,0.0886,0,0,270.0*
21,1,0.0295,0.1261,0,0,270.0*
1,1,0.0375,-0.0443,-0.0148*
1,1,0.0375,-0.0443,0.0148*
1,1,0.0375,0.0443,0.0148*
1,1,0.0375,0.0443,-0.0148*
%
%ADD29ROUNDEDRECTD29*%
G04:AMPARAMS|DCode=30|XSize=47.4mil|YSize=35.6mil|CornerRadius=10.9mil|HoleSize=0mil|Usage=FLASHONLY|Rotation=270.000|XOffset=0mil|YOffset=0mil|HoleType=Round|Shape=RoundedRectangle|*
%AMROUNDEDRECTD30*
21,1,0.0474,0.0138,0,0,270.0*
21,1,0.0256,0.0356,0,0,270.0*
1,1,0.0218,-0.0069,-0.0128*
1,1,0.0218,-0.0069,0.0128*
1,1,0.0218,0.0069,0.0128*
1,1,0.0218,0.0069,-0.0128*
%
%ADD30ROUNDEDRECTD30*%
%ADD31R,0.0680X0.0480*%
G04:AMPARAMS|DCode=32|XSize=88mil|YSize=68mil|CornerRadius=19mil|HoleSize=0mil|Usage=FLASHONLY|Rotation=0.000|XOffset=0mil|YOffset=0mil|HoleType=Round|Shape=RoundedRectangle|*
%AMROUNDEDRECTD32*
21,1,0.0880,0.0300,0,0,0.0*
21,1,0.0500,0.0680,0,0,0.0*
1,1,0.0380,0.0250,-0.0150*
1,1,0.0380,-0.0250,-0.0150*
1,1,0.0380,-0.0250,0.0150*
1,1,0.0380,0.0250,0.0150*
%
%ADD32ROUNDEDRECTD32*%
%ADD33O,0.0880X0.0680*%
%ADD34O,0.0680X0.0867*%
G04:AMPARAMS|DCode=35|XSize=86.7mil|YSize=68mil|CornerRadius=19mil|HoleSize=0mil|Usage=FLASHONLY|Rotation=90.000|XOffset=0mil|YOffset=0mil|HoleType=Round|Shape=RoundedRectangle|*
%AMROUNDEDRECTD35*
21,1,0.0867,0.0300,0,0,90.0*
21,1,0.0487,0.0680,0,0,90.0*
1,1,0.0380,0.0150,0.0244*
1,1,0.0380,0.0150,-0.0244*
1,1,0.0380,-0.0150,-0.0244*
1,1,0.0380,-0.0150,0.0244*
%
%ADD35ROUNDEDRECTD35*%
%ADD36O,0.0680X0.0880*%
G04:AMPARAMS|DCode=37|XSize=88mil|YSize=68mil|CornerRadius=19mil|HoleSize=0mil|Usage=FLASHONLY|Rotation=270.000|XOffset=0mil|YOffset=0mil|HoleType=Round|Shape=RoundedRectangle|*
%AMROUNDEDRECTD37*
21,1,0.0880,0.0300,0,0,270.0*
21,1,0.0500,0.0680,0,0,270.0*
1,1,0.0380,-0.0150,-0.0250*
1,1,0.0380,-0.0150,0.0250*
1,1,0.0380,0.0150,0.0250*
1,1,0.0380,0.0150,-0.0250*
%
%ADD37ROUNDEDRECTD37*%
%ADD38O,0.0630X0.0830*%
%ADD39C,0.0780*%
%ADD40C,0.0980*%
G04:AMPARAMS|DCode=41|XSize=165.5mil|YSize=67.1mil|CornerRadius=18.8mil|HoleSize=0mil|Usage=FLASHONLY|Rotation=270.000|XOffset=0mil|YOffset=0mil|HoleType=Round|Shape=RoundedRectangle|*
%AMROUNDEDRECTD41*
21,1,0.1655,0.0295,0,0,270.0*
21,1,0.1280,0.0671,0,0,270.0*
1,1,0.0375,-0.0148,-0.0640*
1,1,0.0375,-0.0148,0.0640*
1,1,0.0375,0.0148,0.0640*
1,1,0.0375,0.0148,-0.0640*
%
%ADD41ROUNDEDRECTD41*%
G04:AMPARAMS|DCode=42|XSize=165.5mil|YSize=67.1mil|CornerRadius=18.8mil|HoleSize=0mil|Usage=FLASHONLY|Rotation=180.000|XOffset=0mil|YOffset=0mil|HoleType=Round|Shape=RoundedRectangle|*
%AMROUNDEDRECTD42*
21,1,0.1655,0.0295,0,0,180.0*
21,1,0.1280,0.0671,0,0,180.0*
1,1,0.0375,-0.0640,0.0148*
1,1,0.0375,0.0640,0.0148*
1,1,0.0375,0.0640,-0.0148*
1,1,0.0375,-0.0640,-0.0148*
%
%ADD42ROUNDEDRECTD42*%
%ADD43C,0.1280*%
D24*
X0735Y03615D02*
D03*
Y03525D02*
D03*
X07625Y02285D02*
D03*
Y02375D02*
D03*
X0785Y02285D02*
D03*
Y02375D02*
D03*
X08125Y03D02*
D03*
Y0309D02*
D03*
X08D02*
D03*
Y03D02*
D03*
X0765Y0375D02*
D03*
Y0366D02*
D03*
X0755Y0375D02*
D03*
Y0366D02*
D03*
X0785Y0211D02*
D03*
Y022D02*
D03*
X0775D02*
D03*
Y0211D02*
D03*
X0185Y0386D02*
D03*
Y0395D02*
D03*
X0255Y0386D02*
D03*
Y0395D02*
D03*
X0325Y0386D02*
D03*
Y0395D02*
D03*
X0395Y0386D02*
D03*
Y0395D02*
D03*
X0465Y0386D02*
D03*
Y0395D02*
D03*
X0535Y0386D02*
D03*
Y0395D02*
D03*
X0605Y0386D02*
D03*
Y0395D02*
D03*
X0675Y0386D02*
D03*
Y0395D02*
D03*
D25*
X077376Y02275D02*
D03*
X07775Y02375D02*
D03*
X077002D02*
D03*
X065988Y0395D02*
D03*
X066736D02*
D03*
X066362Y0385D02*
D03*
X058988Y0395D02*
D03*
X059736D02*
D03*
X059362Y0385D02*
D03*
X051988Y0395D02*
D03*
X052736D02*
D03*
X052362Y0385D02*
D03*
X037988Y0395D02*
D03*
X038736D02*
D03*
X038362Y0385D02*
D03*
X030988Y0395D02*
D03*
X031736D02*
D03*
X031362Y0385D02*
D03*
X023988Y0395D02*
D03*
X024736D02*
D03*
X024362Y0385D02*
D03*
X016988Y0395D02*
D03*
X017736D02*
D03*
X017362Y0385D02*
D03*
X045362D02*
D03*
X045736Y0395D02*
D03*
X044988D02*
D03*
D26*
X07Y03D02*
D03*
X0709D02*
D03*
X07Y03135D02*
D03*
X0709D02*
D03*
X07Y03325D02*
D03*
X0709D02*
D03*
X06355Y0385D02*
D03*
X06445D02*
D03*
X06355Y0395D02*
D03*
X06445D02*
D03*
X05655Y0385D02*
D03*
X05745D02*
D03*
X05655Y0395D02*
D03*
X05745D02*
D03*
X04955Y0385D02*
D03*
X05045D02*
D03*
X04955Y0395D02*
D03*
X05045D02*
D03*
X04255Y0385D02*
D03*
X04345D02*
D03*
X04255Y0395D02*
D03*
X04345D02*
D03*
X03555Y0385D02*
D03*
X03645D02*
D03*
X03555Y0395D02*
D03*
X03645D02*
D03*
X02855Y0385D02*
D03*
X02945D02*
D03*
X02855Y0395D02*
D03*
X02945D02*
D03*
X02155Y0385D02*
D03*
X02245D02*
D03*
X02155Y0395D02*
D03*
X02245D02*
D03*
X01455Y0385D02*
D03*
X01545D02*
D03*
X01455Y0395D02*
D03*
X01545D02*
D03*
X06355Y0265D02*
D03*
X06445D02*
D03*
X06355Y0275D02*
D03*
X06445D02*
D03*
X05655Y0265D02*
D03*
X05745D02*
D03*
X05655Y0275D02*
D03*
X05745D02*
D03*
X04955Y0265D02*
D03*
X05045D02*
D03*
X04955Y0275D02*
D03*
X05045D02*
D03*
X04255Y0265D02*
D03*
X04345D02*
D03*
X04255Y0275D02*
D03*
X04345D02*
D03*
X03555Y0265D02*
D03*
X03645D02*
D03*
X03555Y0275D02*
D03*
X03645D02*
D03*
X02855Y0265D02*
D03*
X02945D02*
D03*
X02855Y0275D02*
D03*
X02945D02*
D03*
X02155Y0265D02*
D03*
X02245D02*
D03*
X02155Y0275D02*
D03*
X02245D02*
D03*
X01455Y0265D02*
D03*
X01545D02*
D03*
X01455Y0275D02*
D03*
X01545D02*
D03*
D27*
X07215Y03325D02*
D03*
Y03135D02*
D03*
D28*
X07475Y034652D02*
D03*
Y034396D02*
D03*
Y03414D02*
D03*
Y033884D02*
D03*
Y033628D02*
D03*
Y033372D02*
D03*
Y033116D02*
D03*
Y03286D02*
D03*
Y032604D02*
D03*
Y032348D02*
D03*
X07725D02*
D03*
Y032604D02*
D03*
Y033116D02*
D03*
Y033628D02*
D03*
Y033884D02*
D03*
Y03414D02*
D03*
Y034396D02*
D03*
Y034652D02*
D03*
Y03286D02*
D03*
Y033372D02*
D03*
D29*
X0805Y039058D02*
D03*
X0705D02*
D03*
D30*
X081415Y0365D02*
D03*
X0805D02*
D03*
X079594Y03649D02*
D03*
X069594D02*
D03*
X0705Y0365D02*
D03*
X071415D02*
D03*
D31*
X06525Y0395D02*
D03*
Y038083D02*
D03*
X05825Y0395D02*
D03*
Y038083D02*
D03*
X05125Y0395D02*
D03*
Y038083D02*
D03*
X04425Y0395D02*
D03*
Y038083D02*
D03*
X03725Y0395D02*
D03*
Y038083D02*
D03*
X03025Y0395D02*
D03*
Y038083D02*
D03*
X02325Y0395D02*
D03*
Y038083D02*
D03*
X01625Y0395D02*
D03*
Y038083D02*
D03*
D32*
X08125Y032D02*
D03*
X0605Y046D02*
D03*
X0535D02*
D03*
X0465D02*
D03*
X0395D02*
D03*
X0325D02*
D03*
X0255D02*
D03*
X0185D02*
D03*
X0675Y027D02*
D03*
Y044D02*
D03*
D33*
X08125Y033D02*
D03*
Y034D02*
D03*
Y035D02*
D03*
X0605Y044D02*
D03*
Y045D02*
D03*
X0535Y044D02*
D03*
Y045D02*
D03*
X0465Y044D02*
D03*
Y045D02*
D03*
X0395Y044D02*
D03*
Y045D02*
D03*
X0325Y044D02*
D03*
Y045D02*
D03*
X0255Y044D02*
D03*
Y045D02*
D03*
X0185Y044D02*
D03*
Y045D02*
D03*
X0675Y026D02*
D03*
Y025D02*
D03*
Y024D02*
D03*
Y043D02*
D03*
Y042D02*
D03*
Y041D02*
D03*
D34*
X0765Y025D02*
D03*
X0755D02*
D03*
X0745D02*
D03*
X0735D02*
D03*
X0765Y026D02*
D03*
X0775D02*
D03*
X0755D02*
D03*
X0745D02*
D03*
X0735D02*
D03*
D35*
X0775Y025D02*
D03*
D36*
X07425Y02175D02*
D03*
X07325D02*
D03*
X07225D02*
D03*
X07125D02*
D03*
X051Y0285D02*
D03*
X05D02*
D03*
X058D02*
D03*
X057D02*
D03*
X044D02*
D03*
X043D02*
D03*
X037D02*
D03*
X036D02*
D03*
X03D02*
D03*
X029D02*
D03*
X023D02*
D03*
X022D02*
D03*
X016D02*
D03*
X015D02*
D03*
X064D02*
D03*
X065D02*
D03*
D37*
X07025Y02175D02*
D03*
X049Y0285D02*
D03*
X056D02*
D03*
X042D02*
D03*
X035D02*
D03*
X028D02*
D03*
X021D02*
D03*
X014D02*
D03*
X063D02*
D03*
D38*
X0808Y028D02*
D03*
X08D02*
D03*
X07D02*
D03*
X0708D02*
D03*
D39*
X066362Y036213D02*
D03*
X061638D02*
D03*
X059362D02*
D03*
X054638D02*
D03*
X052362D02*
D03*
X047638D02*
D03*
X045362D02*
D03*
X040638D02*
D03*
X038362D02*
D03*
X033638D02*
D03*
X031362D02*
D03*
X026638D02*
D03*
X024362D02*
D03*
X019638D02*
D03*
X017362D02*
D03*
X012638D02*
D03*
D40*
X064Y037D02*
D03*
X061638Y031409D02*
D03*
X066362D02*
D03*
X057Y037D02*
D03*
X054638Y031409D02*
D03*
X059362D02*
D03*
X05Y037D02*
D03*
X047638Y031409D02*
D03*
X052362D02*
D03*
X043Y037D02*
D03*
X040638Y031409D02*
D03*
X045362D02*
D03*
X036Y037D02*
D03*
X033638Y031409D02*
D03*
X038362D02*
D03*
X029Y037D02*
D03*
X026638Y031409D02*
D03*
X031362D02*
D03*
X022Y037D02*
D03*
X019638Y031409D02*
D03*
X024362D02*
D03*
X015Y037D02*
D03*
X012638Y031409D02*
D03*
X017362D02*
D03*
D41*
X027061Y042309D02*
D03*
X034061D02*
D03*
X041061D02*
D03*
X048061D02*
D03*
X020061D02*
D03*
X013061D02*
D03*
X055061D02*
D03*
X062061D02*
D03*
D42*
X029Y041D02*
D03*
Y043372D02*
D03*
X036Y041D02*
D03*
Y043372D02*
D03*
X043Y041D02*
D03*
Y043372D02*
D03*
X05D02*
D03*
Y041D02*
D03*
X022D02*
D03*
Y043372D02*
D03*
X015Y041D02*
D03*
Y043372D02*
D03*
X057D02*
D03*
Y041D02*
D03*
X064Y043372D02*
D03*
Y041D02*
D03*
D43*
X063016Y024D02*
D03*
X064984D02*
D03*
X056016D02*
D03*
X057984D02*
D03*
X049016D02*
D03*
X050984D02*
D03*
X042016D02*
D03*
X043984D02*
D03*
X035016D02*
D03*
X036984D02*
D03*
X028016D02*
D03*
X029984D02*
D03*
X021016D02*
D03*
X022984D02*
D03*
X014016D02*
D03*
X015984D02*
D03*
M02*
