G04*
G04 #@! TF.GenerationSoftware,Altium Limited,Altium Designer,21.6.1 (37)*
G04*
G04 Layer_Color=128*
%FSTAX24Y24*%
%MOIN*%
G70*
G04*
G04 #@! TF.SameCoordinates,81F21C5A-03A8-4AE1-96E5-B6EC8A9FC791*
G04*
G04*
G04 #@! TF.FilePolarity,Positive*
G04*
G01*
G75*
%ADD62C,0.0020*%
D62*
X081075Y032D02*
X081425D01*
X08125Y031825D02*
Y032175D01*
X081075Y033D02*
X081425D01*
X08125Y032825D02*
Y033175D01*
X081075Y034D02*
X081425D01*
X08125Y033825D02*
Y034175D01*
X081075Y035D02*
X081425D01*
X08125Y034825D02*
Y035175D01*
X076303Y025D02*
X076697D01*
X0765Y024803D02*
Y025197D01*
X075303Y025D02*
X075697D01*
X0755Y024803D02*
Y025197D01*
X074303Y025D02*
X074697D01*
X0745Y024803D02*
Y025197D01*
X073303Y025D02*
X073697D01*
X0735Y024803D02*
Y025197D01*
X077303Y025D02*
X077697D01*
X0775Y024803D02*
Y025197D01*
X076303Y026D02*
X076697D01*
X0765Y025803D02*
Y026197D01*
X077303Y026D02*
X077697D01*
X0775Y025803D02*
Y026197D01*
X075303Y026D02*
X075697D01*
X0755Y025803D02*
Y026197D01*
X074303Y026D02*
X074697D01*
X0745Y025803D02*
Y026197D01*
X073303Y026D02*
X073697D01*
X0735Y025803D02*
Y026197D01*
X074075Y02175D02*
X074425D01*
X07425Y021575D02*
Y021925D01*
X073075Y02175D02*
X073425D01*
X07325Y021575D02*
Y021925D01*
X072075Y02175D02*
X072425D01*
X07225Y021575D02*
Y021925D01*
X071075Y02175D02*
X071425D01*
X07125Y021575D02*
Y021925D01*
X070075Y02175D02*
X070425D01*
X07025Y021575D02*
Y021925D01*
X080675Y028D02*
X080925D01*
X0808Y027875D02*
Y028125D01*
X079875Y028D02*
X080125D01*
X08Y027875D02*
Y028125D01*
X069875Y028D02*
X070125D01*
X07Y027875D02*
Y028125D01*
X070675Y028D02*
X070925D01*
X0708Y027875D02*
Y028125D01*
X066187Y036213D02*
X066537D01*
X066362Y036038D02*
Y036388D01*
X063775Y037D02*
X064225D01*
X064Y036775D02*
Y037225D01*
X061463Y036213D02*
X061813D01*
X061638Y036038D02*
Y036388D01*
X061413Y031409D02*
X061863D01*
X061638Y031184D02*
Y031634D01*
X066137Y031409D02*
X066587D01*
X066362Y031184D02*
Y031634D01*
X059187Y036213D02*
X059537D01*
X059362Y036038D02*
Y036388D01*
X056775Y037D02*
X057225D01*
X057Y036775D02*
Y037225D01*
X054463Y036213D02*
X054813D01*
X054638Y036038D02*
Y036388D01*
X054413Y031409D02*
X054863D01*
X054638Y031184D02*
Y031634D01*
X059137Y031409D02*
X059587D01*
X059362Y031184D02*
Y031634D01*
X052187Y036213D02*
X052537D01*
X052362Y036038D02*
Y036388D01*
X049775Y037D02*
X050225D01*
X05Y036775D02*
Y037225D01*
X047463Y036213D02*
X047813D01*
X047638Y036038D02*
Y036388D01*
X047413Y031409D02*
X047863D01*
X047638Y031184D02*
Y031634D01*
X052137Y031409D02*
X052587D01*
X052362Y031184D02*
Y031634D01*
X045187Y036213D02*
X045537D01*
X045362Y036038D02*
Y036388D01*
X042775Y037D02*
X043225D01*
X043Y036775D02*
Y037225D01*
X040463Y036213D02*
X040813D01*
X040638Y036038D02*
Y036388D01*
X040413Y031409D02*
X040863D01*
X040638Y031184D02*
Y031634D01*
X045137Y031409D02*
X045587D01*
X045362Y031184D02*
Y031634D01*
X038187Y036213D02*
X038537D01*
X038362Y036038D02*
Y036388D01*
X035775Y037D02*
X036225D01*
X036Y036775D02*
Y037225D01*
X033463Y036213D02*
X033813D01*
X033638Y036038D02*
Y036388D01*
X033413Y031409D02*
X033863D01*
X033638Y031184D02*
Y031634D01*
X038137Y031409D02*
X038587D01*
X038362Y031184D02*
Y031634D01*
X031187Y036213D02*
X031537D01*
X031362Y036038D02*
Y036388D01*
X028775Y037D02*
X029225D01*
X029Y036775D02*
Y037225D01*
X026463Y036213D02*
X026813D01*
X026638Y036038D02*
Y036388D01*
X026413Y031409D02*
X026863D01*
X026638Y031184D02*
Y031634D01*
X031137Y031409D02*
X031587D01*
X031362Y031184D02*
Y031634D01*
X024187Y036213D02*
X024537D01*
X024362Y036038D02*
Y036388D01*
X021775Y037D02*
X022225D01*
X022Y036775D02*
Y037225D01*
X019463Y036213D02*
X019813D01*
X019638Y036038D02*
Y036388D01*
X019413Y031409D02*
X019863D01*
X019638Y031184D02*
Y031634D01*
X024137Y031409D02*
X024587D01*
X024362Y031184D02*
Y031634D01*
X017187Y036213D02*
X017537D01*
X017362Y036038D02*
Y036388D01*
X014775Y037D02*
X015225D01*
X015Y036775D02*
Y037225D01*
X012463Y036213D02*
X012813D01*
X012638Y036038D02*
Y036388D01*
X012413Y031409D02*
X012863D01*
X012638Y031184D02*
Y031634D01*
X017137Y031409D02*
X017587D01*
X017362Y031184D02*
Y031634D01*
X026943Y042309D02*
X027179D01*
X027061Y042191D02*
Y042427D01*
X028882Y041D02*
X029118D01*
X029Y040882D02*
Y041118D01*
X028882Y043372D02*
X029118D01*
X029Y043254D02*
Y04349D01*
X033943Y042309D02*
X034179D01*
X034061Y042191D02*
Y042427D01*
X035882Y041D02*
X036118D01*
X036Y040882D02*
Y041118D01*
X035882Y043372D02*
X036118D01*
X036Y043254D02*
Y04349D01*
X040943Y042309D02*
X041179D01*
X041061Y042191D02*
Y042427D01*
X042882Y041D02*
X043118D01*
X043Y040882D02*
Y041118D01*
X042882Y043372D02*
X043118D01*
X043Y043254D02*
Y04349D01*
X060325Y044D02*
X060675D01*
X0605Y043825D02*
Y044175D01*
X060325Y045D02*
X060675D01*
X0605Y044825D02*
Y045175D01*
X060325Y046D02*
X060675D01*
X0605Y045825D02*
Y046175D01*
X053325Y044D02*
X053675D01*
X0535Y043825D02*
Y044175D01*
X053325Y045D02*
X053675D01*
X0535Y044825D02*
Y045175D01*
X053325Y046D02*
X053675D01*
X0535Y045825D02*
Y046175D01*
X049882Y043372D02*
X050118D01*
X05Y043254D02*
Y04349D01*
X049882Y041D02*
X050118D01*
X05Y040882D02*
Y041118D01*
X047943Y042309D02*
X048179D01*
X048061Y042191D02*
Y042427D01*
X046325Y044D02*
X046675D01*
X0465Y043825D02*
Y044175D01*
X046325Y045D02*
X046675D01*
X0465Y044825D02*
Y045175D01*
X046325Y046D02*
X046675D01*
X0465Y045825D02*
Y046175D01*
X039325Y044D02*
X039675D01*
X0395Y043825D02*
Y044175D01*
X039325Y045D02*
X039675D01*
X0395Y044825D02*
Y045175D01*
X039325Y046D02*
X039675D01*
X0395Y045825D02*
Y046175D01*
X032325Y044D02*
X032675D01*
X0325Y043825D02*
Y044175D01*
X032325Y045D02*
X032675D01*
X0325Y044825D02*
Y045175D01*
X032325Y046D02*
X032675D01*
X0325Y045825D02*
Y046175D01*
X025325Y044D02*
X025675D01*
X0255Y043825D02*
Y044175D01*
X025325Y045D02*
X025675D01*
X0255Y044825D02*
Y045175D01*
X025325Y046D02*
X025675D01*
X0255Y045825D02*
Y046175D01*
X019943Y042309D02*
X020179D01*
X020061Y042191D02*
Y042427D01*
X021882Y041D02*
X022118D01*
X022Y040882D02*
Y041118D01*
X021882Y043372D02*
X022118D01*
X022Y043254D02*
Y04349D01*
X018325Y044D02*
X018675D01*
X0185Y043825D02*
Y044175D01*
X018325Y045D02*
X018675D01*
X0185Y044825D02*
Y045175D01*
X018325Y046D02*
X018675D01*
X0185Y045825D02*
Y046175D01*
X012943Y042309D02*
X013179D01*
X013061Y042191D02*
Y042427D01*
X014882Y041D02*
X015118D01*
X015Y040882D02*
Y041118D01*
X014882Y043372D02*
X015118D01*
X015Y043254D02*
Y04349D01*
X062766Y024D02*
X063266D01*
X063016Y02375D02*
Y02425D01*
X064734Y024D02*
X065234D01*
X064984Y02375D02*
Y02425D01*
X055766Y024D02*
X056266D01*
X056016Y02375D02*
Y02425D01*
X057734Y024D02*
X058234D01*
X057984Y02375D02*
Y02425D01*
X048766Y024D02*
X049266D01*
X049016Y02375D02*
Y02425D01*
X050734Y024D02*
X051234D01*
X050984Y02375D02*
Y02425D01*
X050825Y0285D02*
X051175D01*
X051Y028325D02*
Y028675D01*
X049825Y0285D02*
X050175D01*
X05Y028325D02*
Y028675D01*
X048825Y0285D02*
X049175D01*
X049Y028325D02*
Y028675D01*
X057825Y0285D02*
X058175D01*
X058Y028325D02*
Y028675D01*
X056825Y0285D02*
X057175D01*
X057Y028325D02*
Y028675D01*
X055825Y0285D02*
X056175D01*
X056Y028325D02*
Y028675D01*
X041766Y024D02*
X042266D01*
X042016Y02375D02*
Y02425D01*
X043734Y024D02*
X044234D01*
X043984Y02375D02*
Y02425D01*
X043825Y0285D02*
X044175D01*
X044Y028325D02*
Y028675D01*
X042825Y0285D02*
X043175D01*
X043Y028325D02*
Y028675D01*
X041825Y0285D02*
X042175D01*
X042Y028325D02*
Y028675D01*
X034766Y024D02*
X035266D01*
X035016Y02375D02*
Y02425D01*
X036734Y024D02*
X037234D01*
X036984Y02375D02*
Y02425D01*
X036825Y0285D02*
X037175D01*
X037Y028325D02*
Y028675D01*
X035825Y0285D02*
X036175D01*
X036Y028325D02*
Y028675D01*
X034825Y0285D02*
X035175D01*
X035Y028325D02*
Y028675D01*
X027766Y024D02*
X028266D01*
X028016Y02375D02*
Y02425D01*
X029734Y024D02*
X030234D01*
X029984Y02375D02*
Y02425D01*
X029825Y0285D02*
X030175D01*
X03Y028325D02*
Y028675D01*
X028825Y0285D02*
X029175D01*
X029Y028325D02*
Y028675D01*
X027825Y0285D02*
X028175D01*
X028Y028325D02*
Y028675D01*
X022825Y0285D02*
X023175D01*
X023Y028325D02*
Y028675D01*
X021825Y0285D02*
X022175D01*
X022Y028325D02*
Y028675D01*
X020825Y0285D02*
X021175D01*
X021Y028325D02*
Y028675D01*
X020766Y024D02*
X021266D01*
X021016Y02375D02*
Y02425D01*
X022734Y024D02*
X023234D01*
X022984Y02375D02*
Y02425D01*
X013766Y024D02*
X014266D01*
X014016Y02375D02*
Y02425D01*
X015734Y024D02*
X016234D01*
X015984Y02375D02*
Y02425D01*
X015825Y0285D02*
X016175D01*
X016Y028325D02*
Y028675D01*
X014825Y0285D02*
X015175D01*
X015Y028325D02*
Y028675D01*
X013825Y0285D02*
X014175D01*
X014Y028325D02*
Y028675D01*
X056882Y043372D02*
X057118D01*
X057Y043254D02*
Y04349D01*
X056882Y041D02*
X057118D01*
X057Y040882D02*
Y041118D01*
X054943Y042309D02*
X055179D01*
X055061Y042191D02*
Y042427D01*
X067325Y027D02*
X067675D01*
X0675Y026825D02*
Y027175D01*
X067325Y026D02*
X067675D01*
X0675Y025825D02*
Y026175D01*
X067325Y025D02*
X067675D01*
X0675Y024825D02*
Y025175D01*
X067325Y024D02*
X067675D01*
X0675Y023825D02*
Y024175D01*
X067325Y044D02*
X067675D01*
X0675Y043825D02*
Y044175D01*
X067325Y043D02*
X067675D01*
X0675Y042825D02*
Y043175D01*
X067325Y042D02*
X067675D01*
X0675Y041825D02*
Y042175D01*
X067325Y041D02*
X067675D01*
X0675Y040825D02*
Y041175D01*
X063882Y043372D02*
X064118D01*
X064Y043254D02*
Y04349D01*
X063882Y041D02*
X064118D01*
X064Y040882D02*
Y041118D01*
X061943Y042309D02*
X062179D01*
X062061Y042191D02*
Y042427D01*
X062825Y0285D02*
X063175D01*
X063Y028325D02*
Y028675D01*
X063825Y0285D02*
X064175D01*
X064Y028325D02*
Y028675D01*
X064825Y0285D02*
X065175D01*
X065Y028325D02*
Y028675D01*
X077886Y03286D02*
X078004D01*
X077945Y032801D02*
Y032919D01*
X077721Y03259D02*
X077839D01*
X07778Y032531D02*
Y032649D01*
X079471Y03433D02*
X079589D01*
X07953Y034271D02*
Y034389D01*
X080441Y03595D02*
X080559D01*
X0805Y035891D02*
Y036009D01*
X076541Y03265D02*
X076659D01*
X0766Y032591D02*
Y032709D01*
X076291Y0329D02*
X076409D01*
X07635Y032841D02*
Y032959D01*
X069531Y03734D02*
X069649D01*
X06959Y037281D02*
Y037399D01*
X075711Y03433D02*
X075829D01*
X07577Y034271D02*
Y034389D01*
X065931Y03524D02*
X066049D01*
X06599Y035181D02*
Y035299D01*
X066691Y03475D02*
X066809D01*
X06675Y034691D02*
Y034809D01*
X073331Y03388D02*
X073449D01*
X07339Y033821D02*
Y033939D01*
X066691Y03425D02*
X066809D01*
X06675Y034191D02*
Y034309D01*
X073331Y0345D02*
X073449D01*
X07339Y034441D02*
Y034559D01*
X073951Y03439D02*
X074069D01*
X07401Y034331D02*
Y034449D01*
X063441Y03525D02*
X063559D01*
X0635Y035191D02*
Y035309D01*
X039441Y03775D02*
X039559D01*
X0395Y037691D02*
Y037809D01*
X018441Y03775D02*
X018559D01*
X0185Y037691D02*
Y037809D01*
X025441Y03775D02*
X025559D01*
X0255Y037691D02*
Y037809D01*
X032441Y03775D02*
X032559D01*
X0325Y037691D02*
Y037809D01*
X046441Y03775D02*
X046559D01*
X0465Y037691D02*
Y037809D01*
X053441Y03775D02*
X053559D01*
X0535Y037691D02*
Y037809D01*
X060441Y03775D02*
X060559D01*
X0605Y037691D02*
Y037809D01*
M02*
