G04*
G04 #@! TF.GenerationSoftware,Altium Limited,Altium Designer,21.6.1 (37)*
G04*
G04 Layer_Color=2752767*
%FSTAX24Y24*%
%MOIN*%
G70*
G04*
G04 #@! TF.SameCoordinates,81F21C5A-03A8-4AE1-96E5-B6EC8A9FC791*
G04*
G04*
G04 #@! TF.FilePolarity,Positive*
G04*
G01*
G75*
%ADD62C,0.0020*%
%ADD63C,0.0027*%
D62*
X08117Y03192D02*
Y03208D01*
X08133D01*
Y03192D01*
X08117D01*
Y03292D02*
Y03308D01*
X08133D01*
Y03292D01*
X08117D01*
Y03392D02*
Y03408D01*
X08133D01*
Y03392D01*
X08117D01*
Y03492D02*
Y03508D01*
X08133D01*
Y03492D01*
X08117D01*
X07417Y02167D02*
Y02183D01*
X07433D01*
Y02167D01*
X07417D01*
X07317D02*
Y02183D01*
X07333D01*
Y02167D01*
X07317D01*
X07217D02*
Y02183D01*
X07233D01*
Y02167D01*
X07217D01*
X07117D02*
Y02183D01*
X07133D01*
Y02167D01*
X07117D01*
X07017D02*
Y02183D01*
X07033D01*
Y02167D01*
X07017D01*
X0808Y02792D02*
X08072Y02808D01*
X08088D01*
X0808Y02792D01*
X08D02*
X07992Y02808D01*
X08008D01*
X08Y02792D01*
X07D02*
X06992Y02808D01*
X07008D01*
X07Y02792D01*
X0708D02*
X07072Y02808D01*
X07088D01*
X0708Y02792D01*
X066282Y036133D02*
Y036293D01*
X066442D01*
Y036133D01*
X066282D01*
X064Y03692D02*
X06404Y03696D01*
X06408D01*
X06404Y037D01*
X06408Y03704D01*
X06404D01*
X064Y03708D01*
X06396Y03704D01*
X06392D01*
X06396Y037D01*
X06392Y03696D01*
X06396D01*
X064Y03692D01*
X061558Y036133D02*
Y036293D01*
X061718D01*
Y036133D01*
X061558D01*
X061638Y031329D02*
X061678Y031369D01*
X061718D01*
X061678Y031409D01*
X061718Y031449D01*
X061678D01*
X061638Y031489D01*
X061598Y031449D01*
X061558D01*
X061598Y031409D01*
X061558Y031369D01*
X061598D01*
X061638Y031329D01*
X066362D02*
X066402Y031369D01*
X066442D01*
X066402Y031409D01*
X066442Y031449D01*
X066402D01*
X066362Y031489D01*
X066322Y031449D01*
X066282D01*
X066322Y031409D01*
X066282Y031369D01*
X066322D01*
X066362Y031329D01*
X059282Y036133D02*
Y036293D01*
X059442D01*
Y036133D01*
X059282D01*
X057Y03692D02*
X05704Y03696D01*
X05708D01*
X05704Y037D01*
X05708Y03704D01*
X05704D01*
X057Y03708D01*
X05696Y03704D01*
X05692D01*
X05696Y037D01*
X05692Y03696D01*
X05696D01*
X057Y03692D01*
X054558Y036133D02*
Y036293D01*
X054718D01*
Y036133D01*
X054558D01*
X054638Y031329D02*
X054678Y031369D01*
X054718D01*
X054678Y031409D01*
X054718Y031449D01*
X054678D01*
X054638Y031489D01*
X054598Y031449D01*
X054558D01*
X054598Y031409D01*
X054558Y031369D01*
X054598D01*
X054638Y031329D01*
X059362D02*
X059402Y031369D01*
X059442D01*
X059402Y031409D01*
X059442Y031449D01*
X059402D01*
X059362Y031489D01*
X059322Y031449D01*
X059282D01*
X059322Y031409D01*
X059282Y031369D01*
X059322D01*
X059362Y031329D01*
X052282Y036133D02*
Y036293D01*
X052442D01*
Y036133D01*
X052282D01*
X05Y03692D02*
X05004Y03696D01*
X05008D01*
X05004Y037D01*
X05008Y03704D01*
X05004D01*
X05Y03708D01*
X04996Y03704D01*
X04992D01*
X04996Y037D01*
X04992Y03696D01*
X04996D01*
X05Y03692D01*
X047558Y036133D02*
Y036293D01*
X047718D01*
Y036133D01*
X047558D01*
X047638Y031329D02*
X047678Y031369D01*
X047718D01*
X047678Y031409D01*
X047718Y031449D01*
X047678D01*
X047638Y031489D01*
X047598Y031449D01*
X047558D01*
X047598Y031409D01*
X047558Y031369D01*
X047598D01*
X047638Y031329D01*
X052362D02*
X052402Y031369D01*
X052442D01*
X052402Y031409D01*
X052442Y031449D01*
X052402D01*
X052362Y031489D01*
X052322Y031449D01*
X052282D01*
X052322Y031409D01*
X052282Y031369D01*
X052322D01*
X052362Y031329D01*
X045282Y036133D02*
Y036293D01*
X045442D01*
Y036133D01*
X045282D01*
X043Y03692D02*
X04304Y03696D01*
X04308D01*
X04304Y037D01*
X04308Y03704D01*
X04304D01*
X043Y03708D01*
X04296Y03704D01*
X04292D01*
X04296Y037D01*
X04292Y03696D01*
X04296D01*
X043Y03692D01*
X040558Y036133D02*
Y036293D01*
X040718D01*
Y036133D01*
X040558D01*
X040638Y031329D02*
X040678Y031369D01*
X040718D01*
X040678Y031409D01*
X040718Y031449D01*
X040678D01*
X040638Y031489D01*
X040598Y031449D01*
X040558D01*
X040598Y031409D01*
X040558Y031369D01*
X040598D01*
X040638Y031329D01*
X045362D02*
X045402Y031369D01*
X045442D01*
X045402Y031409D01*
X045442Y031449D01*
X045402D01*
X045362Y031489D01*
X045322Y031449D01*
X045282D01*
X045322Y031409D01*
X045282Y031369D01*
X045322D01*
X045362Y031329D01*
X038282Y036133D02*
Y036293D01*
X038442D01*
Y036133D01*
X038282D01*
X036Y03692D02*
X03604Y03696D01*
X03608D01*
X03604Y037D01*
X03608Y03704D01*
X03604D01*
X036Y03708D01*
X03596Y03704D01*
X03592D01*
X03596Y037D01*
X03592Y03696D01*
X03596D01*
X036Y03692D01*
X033558Y036133D02*
Y036293D01*
X033718D01*
Y036133D01*
X033558D01*
X033638Y031329D02*
X033678Y031369D01*
X033718D01*
X033678Y031409D01*
X033718Y031449D01*
X033678D01*
X033638Y031489D01*
X033598Y031449D01*
X033558D01*
X033598Y031409D01*
X033558Y031369D01*
X033598D01*
X033638Y031329D01*
X038362D02*
X038402Y031369D01*
X038442D01*
X038402Y031409D01*
X038442Y031449D01*
X038402D01*
X038362Y031489D01*
X038322Y031449D01*
X038282D01*
X038322Y031409D01*
X038282Y031369D01*
X038322D01*
X038362Y031329D01*
X031282Y036133D02*
Y036293D01*
X031442D01*
Y036133D01*
X031282D01*
X029Y03692D02*
X02904Y03696D01*
X02908D01*
X02904Y037D01*
X02908Y03704D01*
X02904D01*
X029Y03708D01*
X02896Y03704D01*
X02892D01*
X02896Y037D01*
X02892Y03696D01*
X02896D01*
X029Y03692D01*
X026558Y036133D02*
Y036293D01*
X026718D01*
Y036133D01*
X026558D01*
X026638Y031329D02*
X026678Y031369D01*
X026718D01*
X026678Y031409D01*
X026718Y031449D01*
X026678D01*
X026638Y031489D01*
X026598Y031449D01*
X026558D01*
X026598Y031409D01*
X026558Y031369D01*
X026598D01*
X026638Y031329D01*
X031362D02*
X031402Y031369D01*
X031442D01*
X031402Y031409D01*
X031442Y031449D01*
X031402D01*
X031362Y031489D01*
X031322Y031449D01*
X031282D01*
X031322Y031409D01*
X031282Y031369D01*
X031322D01*
X031362Y031329D01*
X024282Y036133D02*
Y036293D01*
X024442D01*
Y036133D01*
X024282D01*
X022Y03692D02*
X02204Y03696D01*
X02208D01*
X02204Y037D01*
X02208Y03704D01*
X02204D01*
X022Y03708D01*
X02196Y03704D01*
X02192D01*
X02196Y037D01*
X02192Y03696D01*
X02196D01*
X022Y03692D01*
X019558Y036133D02*
Y036293D01*
X019718D01*
Y036133D01*
X019558D01*
X019638Y031329D02*
X019678Y031369D01*
X019718D01*
X019678Y031409D01*
X019718Y031449D01*
X019678D01*
X019638Y031489D01*
X019598Y031449D01*
X019558D01*
X019598Y031409D01*
X019558Y031369D01*
X019598D01*
X019638Y031329D01*
X024362D02*
X024402Y031369D01*
X024442D01*
X024402Y031409D01*
X024442Y031449D01*
X024402D01*
X024362Y031489D01*
X024322Y031449D01*
X024282D01*
X024322Y031409D01*
X024282Y031369D01*
X024322D01*
X024362Y031329D01*
X017282Y036133D02*
Y036293D01*
X017442D01*
Y036133D01*
X017282D01*
X015Y03692D02*
X01504Y03696D01*
X01508D01*
X01504Y037D01*
X01508Y03704D01*
X01504D01*
X015Y03708D01*
X01496Y03704D01*
X01492D01*
X01496Y037D01*
X01492Y03696D01*
X01496D01*
X015Y03692D01*
X012558Y036133D02*
Y036293D01*
X012718D01*
Y036133D01*
X012558D01*
X012638Y031329D02*
X012678Y031369D01*
X012718D01*
X012678Y031409D01*
X012718Y031449D01*
X012678D01*
X012638Y031489D01*
X012598Y031449D01*
X012558D01*
X012598Y031409D01*
X012558Y031369D01*
X012598D01*
X012638Y031329D01*
X017362D02*
X017402Y031369D01*
X017442D01*
X017402Y031409D01*
X017442Y031449D01*
X017402D01*
X017362Y031489D01*
X017322Y031449D01*
X017282D01*
X017322Y031409D01*
X017282Y031369D01*
X017322D01*
X017362Y031329D01*
X026981Y042229D02*
X027021Y042309D01*
X026981Y042389D01*
X027061Y042349D01*
X027141Y042389D01*
X027101Y042309D01*
X027141Y042229D01*
X027061Y042269D01*
X026981Y042229D01*
X02892Y04092D02*
X02896Y041D01*
X02892Y04108D01*
X029Y04104D01*
X02908Y04108D01*
X02904Y041D01*
X02908Y04092D01*
X029Y04096D01*
X02892Y04092D01*
Y043292D02*
X02896Y043372D01*
X02892Y043452D01*
X029Y043412D01*
X02908Y043452D01*
X02904Y043372D01*
X02908Y043292D01*
X029Y043332D01*
X02892Y043292D01*
X033981Y042229D02*
X034021Y042309D01*
X033981Y042389D01*
X034061Y042349D01*
X034141Y042389D01*
X034101Y042309D01*
X034141Y042229D01*
X034061Y042269D01*
X033981Y042229D01*
X03592Y04092D02*
X03596Y041D01*
X03592Y04108D01*
X036Y04104D01*
X03608Y04108D01*
X03604Y041D01*
X03608Y04092D01*
X036Y04096D01*
X03592Y04092D01*
Y043292D02*
X03596Y043372D01*
X03592Y043452D01*
X036Y043412D01*
X03608Y043452D01*
X03604Y043372D01*
X03608Y043292D01*
X036Y043332D01*
X03592Y043292D01*
X040981Y042229D02*
X041021Y042309D01*
X040981Y042389D01*
X041061Y042349D01*
X041141Y042389D01*
X041101Y042309D01*
X041141Y042229D01*
X041061Y042269D01*
X040981Y042229D01*
X04292Y04092D02*
X04296Y041D01*
X04292Y04108D01*
X043Y04104D01*
X04308Y04108D01*
X04304Y041D01*
X04308Y04092D01*
X043Y04096D01*
X04292Y04092D01*
Y043292D02*
X04296Y043372D01*
X04292Y043452D01*
X043Y043412D01*
X04308Y043452D01*
X04304Y043372D01*
X04308Y043292D01*
X043Y043332D01*
X04292Y043292D01*
X06042Y04392D02*
Y04408D01*
X06058D01*
Y04392D01*
X06042D01*
Y04492D02*
Y04508D01*
X06058D01*
Y04492D01*
X06042D01*
Y04592D02*
Y04608D01*
X06058D01*
Y04592D01*
X06042D01*
X05342Y04392D02*
Y04408D01*
X05358D01*
Y04392D01*
X05342D01*
Y04492D02*
Y04508D01*
X05358D01*
Y04492D01*
X05342D01*
Y04592D02*
Y04608D01*
X05358D01*
Y04592D01*
X05342D01*
X04992Y043292D02*
X04996Y043372D01*
X04992Y043452D01*
X05Y043412D01*
X05008Y043452D01*
X05004Y043372D01*
X05008Y043292D01*
X05Y043332D01*
X04992Y043292D01*
Y04092D02*
X04996Y041D01*
X04992Y04108D01*
X05Y04104D01*
X05008Y04108D01*
X05004Y041D01*
X05008Y04092D01*
X05Y04096D01*
X04992Y04092D01*
X047981Y042229D02*
X048021Y042309D01*
X047981Y042389D01*
X048061Y042349D01*
X048141Y042389D01*
X048101Y042309D01*
X048141Y042229D01*
X048061Y042269D01*
X047981Y042229D01*
X04642Y04392D02*
Y04408D01*
X04658D01*
Y04392D01*
X04642D01*
Y04492D02*
Y04508D01*
X04658D01*
Y04492D01*
X04642D01*
Y04592D02*
Y04608D01*
X04658D01*
Y04592D01*
X04642D01*
X03942Y04392D02*
Y04408D01*
X03958D01*
Y04392D01*
X03942D01*
Y04492D02*
Y04508D01*
X03958D01*
Y04492D01*
X03942D01*
Y04592D02*
Y04608D01*
X03958D01*
Y04592D01*
X03942D01*
X03242Y04392D02*
Y04408D01*
X03258D01*
Y04392D01*
X03242D01*
Y04492D02*
Y04508D01*
X03258D01*
Y04492D01*
X03242D01*
Y04592D02*
Y04608D01*
X03258D01*
Y04592D01*
X03242D01*
X02542Y04392D02*
Y04408D01*
X02558D01*
Y04392D01*
X02542D01*
Y04492D02*
Y04508D01*
X02558D01*
Y04492D01*
X02542D01*
Y04592D02*
Y04608D01*
X02558D01*
Y04592D01*
X02542D01*
X019981Y042229D02*
X020021Y042309D01*
X019981Y042389D01*
X020061Y042349D01*
X020141Y042389D01*
X020101Y042309D01*
X020141Y042229D01*
X020061Y042269D01*
X019981Y042229D01*
X02192Y04092D02*
X02196Y041D01*
X02192Y04108D01*
X022Y04104D01*
X02208Y04108D01*
X02204Y041D01*
X02208Y04092D01*
X022Y04096D01*
X02192Y04092D01*
Y043292D02*
X02196Y043372D01*
X02192Y043452D01*
X022Y043412D01*
X02208Y043452D01*
X02204Y043372D01*
X02208Y043292D01*
X022Y043332D01*
X02192Y043292D01*
X01842Y04392D02*
Y04408D01*
X01858D01*
Y04392D01*
X01842D01*
Y04492D02*
Y04508D01*
X01858D01*
Y04492D01*
X01842D01*
Y04592D02*
Y04608D01*
X01858D01*
Y04592D01*
X01842D01*
X012981Y042229D02*
X013021Y042309D01*
X012981Y042389D01*
X013061Y042349D01*
X013141Y042389D01*
X013101Y042309D01*
X013141Y042229D01*
X013061Y042269D01*
X012981Y042229D01*
X01492Y04092D02*
X01496Y041D01*
X01492Y04108D01*
X015Y04104D01*
X01508Y04108D01*
X01504Y041D01*
X01508Y04092D01*
X015Y04096D01*
X01492Y04092D01*
Y043292D02*
X01496Y043372D01*
X01492Y043452D01*
X015Y043412D01*
X01508Y043452D01*
X01504Y043372D01*
X01508Y043292D01*
X015Y043332D01*
X01492Y043292D01*
X062976Y02396D02*
Y02392D01*
X063056D01*
Y02396D01*
X063096D01*
Y02404D01*
X063056D01*
Y02408D01*
X062976D01*
Y02404D01*
X062936D01*
Y02396D01*
X062976D01*
X064944D02*
Y02392D01*
X065024D01*
Y02396D01*
X065064D01*
Y02404D01*
X065024D01*
Y02408D01*
X064944D01*
Y02404D01*
X064904D01*
Y02396D01*
X064944D01*
X055976D02*
Y02392D01*
X056056D01*
Y02396D01*
X056096D01*
Y02404D01*
X056056D01*
Y02408D01*
X055976D01*
Y02404D01*
X055936D01*
Y02396D01*
X055976D01*
X057944D02*
Y02392D01*
X058024D01*
Y02396D01*
X058064D01*
Y02404D01*
X058024D01*
Y02408D01*
X057944D01*
Y02404D01*
X057904D01*
Y02396D01*
X057944D01*
X048976D02*
Y02392D01*
X049056D01*
Y02396D01*
X049096D01*
Y02404D01*
X049056D01*
Y02408D01*
X048976D01*
Y02404D01*
X048936D01*
Y02396D01*
X048976D01*
X050944D02*
Y02392D01*
X051024D01*
Y02396D01*
X051064D01*
Y02404D01*
X051024D01*
Y02408D01*
X050944D01*
Y02404D01*
X050904D01*
Y02396D01*
X050944D01*
X05092Y02842D02*
Y02858D01*
X05108D01*
Y02842D01*
X05092D01*
X04992D02*
Y02858D01*
X05008D01*
Y02842D01*
X04992D01*
X04892D02*
Y02858D01*
X04908D01*
Y02842D01*
X04892D01*
X05792D02*
Y02858D01*
X05808D01*
Y02842D01*
X05792D01*
X05692D02*
Y02858D01*
X05708D01*
Y02842D01*
X05692D01*
X05592D02*
Y02858D01*
X05608D01*
Y02842D01*
X05592D01*
X041976Y02396D02*
Y02392D01*
X042056D01*
Y02396D01*
X042096D01*
Y02404D01*
X042056D01*
Y02408D01*
X041976D01*
Y02404D01*
X041936D01*
Y02396D01*
X041976D01*
X043944D02*
Y02392D01*
X044024D01*
Y02396D01*
X044064D01*
Y02404D01*
X044024D01*
Y02408D01*
X043944D01*
Y02404D01*
X043904D01*
Y02396D01*
X043944D01*
X04392Y02842D02*
Y02858D01*
X04408D01*
Y02842D01*
X04392D01*
X04292D02*
Y02858D01*
X04308D01*
Y02842D01*
X04292D01*
X04192D02*
Y02858D01*
X04208D01*
Y02842D01*
X04192D01*
X034976Y02396D02*
Y02392D01*
X035056D01*
Y02396D01*
X035096D01*
Y02404D01*
X035056D01*
Y02408D01*
X034976D01*
Y02404D01*
X034936D01*
Y02396D01*
X034976D01*
X036944D02*
Y02392D01*
X037024D01*
Y02396D01*
X037064D01*
Y02404D01*
X037024D01*
Y02408D01*
X036944D01*
Y02404D01*
X036904D01*
Y02396D01*
X036944D01*
X03692Y02842D02*
Y02858D01*
X03708D01*
Y02842D01*
X03692D01*
X03592D02*
Y02858D01*
X03608D01*
Y02842D01*
X03592D01*
X03492D02*
Y02858D01*
X03508D01*
Y02842D01*
X03492D01*
X027976Y02396D02*
Y02392D01*
X028056D01*
Y02396D01*
X028096D01*
Y02404D01*
X028056D01*
Y02408D01*
X027976D01*
Y02404D01*
X027936D01*
Y02396D01*
X027976D01*
X029944D02*
Y02392D01*
X030024D01*
Y02396D01*
X030064D01*
Y02404D01*
X030024D01*
Y02408D01*
X029944D01*
Y02404D01*
X029904D01*
Y02396D01*
X029944D01*
X02992Y02842D02*
Y02858D01*
X03008D01*
Y02842D01*
X02992D01*
X02892D02*
Y02858D01*
X02908D01*
Y02842D01*
X02892D01*
X02792D02*
Y02858D01*
X02808D01*
Y02842D01*
X02792D01*
X02292D02*
Y02858D01*
X02308D01*
Y02842D01*
X02292D01*
X02192D02*
Y02858D01*
X02208D01*
Y02842D01*
X02192D01*
X02092D02*
Y02858D01*
X02108D01*
Y02842D01*
X02092D01*
X020976Y02396D02*
Y02392D01*
X021056D01*
Y02396D01*
X021096D01*
Y02404D01*
X021056D01*
Y02408D01*
X020976D01*
Y02404D01*
X020936D01*
Y02396D01*
X020976D01*
X022944D02*
Y02392D01*
X023024D01*
Y02396D01*
X023064D01*
Y02404D01*
X023024D01*
Y02408D01*
X022944D01*
Y02404D01*
X022904D01*
Y02396D01*
X022944D01*
X013976D02*
Y02392D01*
X014056D01*
Y02396D01*
X014096D01*
Y02404D01*
X014056D01*
Y02408D01*
X013976D01*
Y02404D01*
X013936D01*
Y02396D01*
X013976D01*
X015944D02*
Y02392D01*
X016024D01*
Y02396D01*
X016064D01*
Y02404D01*
X016024D01*
Y02408D01*
X015944D01*
Y02404D01*
X015904D01*
Y02396D01*
X015944D01*
X01592Y02842D02*
Y02858D01*
X01608D01*
Y02842D01*
X01592D01*
X01492D02*
Y02858D01*
X01508D01*
Y02842D01*
X01492D01*
X01392D02*
Y02858D01*
X01408D01*
Y02842D01*
X01392D01*
X05692Y043292D02*
X05696Y043372D01*
X05692Y043452D01*
X057Y043412D01*
X05708Y043452D01*
X05704Y043372D01*
X05708Y043292D01*
X057Y043332D01*
X05692Y043292D01*
Y04092D02*
X05696Y041D01*
X05692Y04108D01*
X057Y04104D01*
X05708Y04108D01*
X05704Y041D01*
X05708Y04092D01*
X057Y04096D01*
X05692Y04092D01*
X054981Y042229D02*
X055021Y042309D01*
X054981Y042389D01*
X055061Y042349D01*
X055141Y042389D01*
X055101Y042309D01*
X055141Y042229D01*
X055061Y042269D01*
X054981Y042229D01*
X06742Y02692D02*
Y02708D01*
X06758D01*
Y02692D01*
X06742D01*
Y02592D02*
Y02608D01*
X06758D01*
Y02592D01*
X06742D01*
Y02492D02*
Y02508D01*
X06758D01*
Y02492D01*
X06742D01*
Y02392D02*
Y02408D01*
X06758D01*
Y02392D01*
X06742D01*
Y04392D02*
Y04408D01*
X06758D01*
Y04392D01*
X06742D01*
Y04292D02*
Y04308D01*
X06758D01*
Y04292D01*
X06742D01*
Y04192D02*
Y04208D01*
X06758D01*
Y04192D01*
X06742D01*
Y04092D02*
Y04108D01*
X06758D01*
Y04092D01*
X06742D01*
X06392Y043292D02*
X06396Y043372D01*
X06392Y043452D01*
X064Y043412D01*
X06408Y043452D01*
X06404Y043372D01*
X06408Y043292D01*
X064Y043332D01*
X06392Y043292D01*
Y04092D02*
X06396Y041D01*
X06392Y04108D01*
X064Y04104D01*
X06408Y04108D01*
X06404Y041D01*
X06408Y04092D01*
X064Y04096D01*
X06392Y04092D01*
X061981Y042229D02*
X062021Y042309D01*
X061981Y042389D01*
X062061Y042349D01*
X062141Y042389D01*
X062101Y042309D01*
X062141Y042229D01*
X062061Y042269D01*
X061981Y042229D01*
X06292Y02842D02*
Y02858D01*
X06308D01*
Y02842D01*
X06292D01*
X06392D02*
Y02858D01*
X06408D01*
Y02842D01*
X06392D01*
X06492D02*
Y02858D01*
X06508D01*
Y02842D01*
X06492D01*
X077865Y03278D02*
X077905D01*
X077945Y03282D01*
X077985Y03278D01*
X078025D01*
Y03282D01*
X077985Y03286D01*
X078025Y0329D01*
Y03294D01*
X077985D01*
X077945Y0329D01*
X077905Y03294D01*
X077865D01*
Y0329D01*
X077905Y03286D01*
X077865Y03282D01*
Y03278D01*
X0777Y03251D02*
X07774D01*
X07778Y03255D01*
X07782Y03251D01*
X07786D01*
Y03255D01*
X07782Y03259D01*
X07786Y03263D01*
Y03267D01*
X07782D01*
X07778Y03263D01*
X07774Y03267D01*
X0777D01*
Y03263D01*
X07774Y03259D01*
X0777Y03255D01*
Y03251D01*
X07945Y03425D02*
X07949D01*
X07953Y03429D01*
X07957Y03425D01*
X07961D01*
Y03429D01*
X07957Y03433D01*
X07961Y03437D01*
Y03441D01*
X07957D01*
X07953Y03437D01*
X07949Y03441D01*
X07945D01*
Y03437D01*
X07949Y03433D01*
X07945Y03429D01*
Y03425D01*
X08042Y03587D02*
X08046D01*
X0805Y03591D01*
X08054Y03587D01*
X08058D01*
Y03591D01*
X08054Y03595D01*
X08058Y03599D01*
Y03603D01*
X08054D01*
X0805Y03599D01*
X08046Y03603D01*
X08042D01*
Y03599D01*
X08046Y03595D01*
X08042Y03591D01*
Y03587D01*
X07652Y03257D02*
X07656D01*
X0766Y03261D01*
X07664Y03257D01*
X07668D01*
Y03261D01*
X07664Y03265D01*
X07668Y03269D01*
Y03273D01*
X07664D01*
X0766Y03269D01*
X07656Y03273D01*
X07652D01*
Y03269D01*
X07656Y03265D01*
X07652Y03261D01*
Y03257D01*
X07627Y03282D02*
X07631D01*
X07635Y03286D01*
X07639Y03282D01*
X07643D01*
Y03286D01*
X07639Y0329D01*
X07643Y03294D01*
Y03298D01*
X07639D01*
X07635Y03294D01*
X07631Y03298D01*
X07627D01*
Y03294D01*
X07631Y0329D01*
X07627Y03286D01*
Y03282D01*
X06951Y03726D02*
X06955D01*
X06959Y0373D01*
X06963Y03726D01*
X06967D01*
Y0373D01*
X06963Y03734D01*
X06967Y03738D01*
Y03742D01*
X06963D01*
X06959Y03738D01*
X06955Y03742D01*
X06951D01*
Y03738D01*
X06955Y03734D01*
X06951Y0373D01*
Y03726D01*
X07569Y03425D02*
X07573D01*
X07577Y03429D01*
X07581Y03425D01*
X07585D01*
Y03429D01*
X07581Y03433D01*
X07585Y03437D01*
Y03441D01*
X07581D01*
X07577Y03437D01*
X07573Y03441D01*
X07569D01*
Y03437D01*
X07573Y03433D01*
X07569Y03429D01*
Y03425D01*
X06591Y03516D02*
X06595D01*
X06599Y0352D01*
X06603Y03516D01*
X06607D01*
Y0352D01*
X06603Y03524D01*
X06607Y03528D01*
Y03532D01*
X06603D01*
X06599Y03528D01*
X06595Y03532D01*
X06591D01*
Y03528D01*
X06595Y03524D01*
X06591Y0352D01*
Y03516D01*
X06667Y03467D02*
X06671D01*
X06675Y03471D01*
X06679Y03467D01*
X06683D01*
Y03471D01*
X06679Y03475D01*
X06683Y03479D01*
Y03483D01*
X06679D01*
X06675Y03479D01*
X06671Y03483D01*
X06667D01*
Y03479D01*
X06671Y03475D01*
X06667Y03471D01*
Y03467D01*
X07331Y0338D02*
X07335D01*
X07339Y03384D01*
X07343Y0338D01*
X07347D01*
Y03384D01*
X07343Y03388D01*
X07347Y03392D01*
Y03396D01*
X07343D01*
X07339Y03392D01*
X07335Y03396D01*
X07331D01*
Y03392D01*
X07335Y03388D01*
X07331Y03384D01*
Y0338D01*
X06667Y03417D02*
X06671D01*
X06675Y03421D01*
X06679Y03417D01*
X06683D01*
Y03421D01*
X06679Y03425D01*
X06683Y03429D01*
Y03433D01*
X06679D01*
X06675Y03429D01*
X06671Y03433D01*
X06667D01*
Y03429D01*
X06671Y03425D01*
X06667Y03421D01*
Y03417D01*
X07331Y03442D02*
X07335D01*
X07339Y03446D01*
X07343Y03442D01*
X07347D01*
Y03446D01*
X07343Y0345D01*
X07347Y03454D01*
Y03458D01*
X07343D01*
X07339Y03454D01*
X07335Y03458D01*
X07331D01*
Y03454D01*
X07335Y0345D01*
X07331Y03446D01*
Y03442D01*
X07393Y03431D02*
X07397D01*
X07401Y03435D01*
X07405Y03431D01*
X07409D01*
Y03435D01*
X07405Y03439D01*
X07409Y03443D01*
Y03447D01*
X07405D01*
X07401Y03443D01*
X07397Y03447D01*
X07393D01*
Y03443D01*
X07397Y03439D01*
X07393Y03435D01*
Y03431D01*
X06342Y03517D02*
X06346D01*
X0635Y03521D01*
X06354Y03517D01*
X06358D01*
Y03521D01*
X06354Y03525D01*
X06358Y03529D01*
Y03533D01*
X06354D01*
X0635Y03529D01*
X06346Y03533D01*
X06342D01*
Y03529D01*
X06346Y03525D01*
X06342Y03521D01*
Y03517D01*
X03942Y03767D02*
X03946D01*
X0395Y03771D01*
X03954Y03767D01*
X03958D01*
Y03771D01*
X03954Y03775D01*
X03958Y03779D01*
Y03783D01*
X03954D01*
X0395Y03779D01*
X03946Y03783D01*
X03942D01*
Y03779D01*
X03946Y03775D01*
X03942Y03771D01*
Y03767D01*
X01842D02*
X01846D01*
X0185Y03771D01*
X01854Y03767D01*
X01858D01*
Y03771D01*
X01854Y03775D01*
X01858Y03779D01*
Y03783D01*
X01854D01*
X0185Y03779D01*
X01846Y03783D01*
X01842D01*
Y03779D01*
X01846Y03775D01*
X01842Y03771D01*
Y03767D01*
X02542D02*
X02546D01*
X0255Y03771D01*
X02554Y03767D01*
X02558D01*
Y03771D01*
X02554Y03775D01*
X02558Y03779D01*
Y03783D01*
X02554D01*
X0255Y03779D01*
X02546Y03783D01*
X02542D01*
Y03779D01*
X02546Y03775D01*
X02542Y03771D01*
Y03767D01*
X03242D02*
X03246D01*
X0325Y03771D01*
X03254Y03767D01*
X03258D01*
Y03771D01*
X03254Y03775D01*
X03258Y03779D01*
Y03783D01*
X03254D01*
X0325Y03779D01*
X03246Y03783D01*
X03242D01*
Y03779D01*
X03246Y03775D01*
X03242Y03771D01*
Y03767D01*
X04642D02*
X04646D01*
X0465Y03771D01*
X04654Y03767D01*
X04658D01*
Y03771D01*
X04654Y03775D01*
X04658Y03779D01*
Y03783D01*
X04654D01*
X0465Y03779D01*
X04646Y03783D01*
X04642D01*
Y03779D01*
X04646Y03775D01*
X04642Y03771D01*
Y03767D01*
X05342D02*
X05346D01*
X0535Y03771D01*
X05354Y03767D01*
X05358D01*
Y03771D01*
X05354Y03775D01*
X05358Y03779D01*
Y03783D01*
X05354D01*
X0535Y03779D01*
X05346Y03783D01*
X05342D01*
Y03779D01*
X05346Y03775D01*
X05342Y03771D01*
Y03767D01*
X06042D02*
X06046D01*
X0605Y03771D01*
X06054Y03767D01*
X06058D01*
Y03771D01*
X06054Y03775D01*
X06058Y03779D01*
Y03783D01*
X06054D01*
X0605Y03779D01*
X06046Y03783D01*
X06042D01*
Y03779D01*
X06046Y03775D01*
X06042Y03771D01*
Y03767D01*
D63*
X07658Y025D02*
G03*
X07658Y025I-00008J0D01*
G01*
X07558D02*
G03*
X07558Y025I-00008J0D01*
G01*
X07458D02*
G03*
X07458Y025I-00008J0D01*
G01*
X07358D02*
G03*
X07358Y025I-00008J0D01*
G01*
X07758D02*
G03*
X07758Y025I-00008J0D01*
G01*
X07658Y026D02*
G03*
X07658Y026I-00008J0D01*
G01*
X07758D02*
G03*
X07758Y026I-00008J0D01*
G01*
X07558D02*
G03*
X07558Y026I-00008J0D01*
G01*
X07458D02*
G03*
X07458Y026I-00008J0D01*
G01*
X07358D02*
G03*
X07358Y026I-00008J0D01*
G01*
M02*
