M48
;Layer_Color=9474304
;FILE_FORMAT=2:4
INCH,LZ
;TYPE=PLATED
T1F00S00C0.0118
T4F00S00C0.0250
T5F00S00C0.0350
T6F00S00C0.0394
T7F00S00C0.0450
T8F00S00C0.0500
%
T01
X0185Y03775
X0255
X0325
X0395
X0465
X0535
X0605
X0635Y03525
X06599Y03524
X06675Y03475
Y03425
X06959Y03734
X07339Y0345
Y03388
X07401Y03439
X07577Y03433
X07635Y0329
X0766Y03265
X07778Y03259
X077945Y03286
X07953Y03433
X0805Y03595
T04
X08Y028
X0808
X0708
X07
T05
X0675Y024
Y025
Y026
Y027
X065Y0285
X064
X063
X07025Y02175
X07125
X07225
X07325
X07425
X058Y0285
X057
X056
X051
X05
X049
X044
X043
X042
X037
X036
X035
X03
X029
X028
X023
X022
X021
X016
X015
X014
X012638Y036213
X017362
X019638
X024362
X026638
X0255Y044
Y045
Y046
X0185
Y045
Y044
X0325
Y045
Y046
X0395
Y045
Y044
X0465
Y045
Y046
X045362Y036213
X040638
X038362
X033638
X031362
X047638
X052362
X054638
X059362
X061638
X0605Y044
Y045
Y046
X0535
Y045
Y044
X0675
Y043
Y042
Y041
X066362Y036213
X08125Y035
Y034
Y033
Y032
T06
X0735Y025
X0745
X0755
X0765
X0775
Y026
X0765
X0755
X0745
X0735
T07
X012638Y031409
X015Y037
X022
X029
X026638Y031409
X024362
X019638
X017362
X031362
X033638
X038362
X040638
X045362
X043Y037
X036
X05
X057
X054638Y031409
X052362
X047638
X059362
X061638
X066362
X064Y037
T08
X063016Y024
X064984
X057984
X056016
X050984
X049016
X043984
X042016
X036984
X035016
X029984
X028016
X022984
X021016
X015984
X014016
M30
