G04*
G04 #@! TF.GenerationSoftware,Altium Limited,Altium Designer,21.6.1 (37)*
G04*
G04 Layer_Color=255*
%FSTAX24Y24*%
%MOIN*%
G70*
G04*
G04 #@! TF.SameCoordinates,81F21C5A-03A8-4AE1-96E5-B6EC8A9FC791*
G04*
G04*
G04 #@! TF.FilePolarity,Positive*
G04*
G01*
G75*
%ADD16R,0.0488X0.0300*%
%ADD17R,0.0197X0.0315*%
%ADD18R,0.0300X0.0488*%
%ADD19R,0.0787X0.0591*%
%ADD20R,0.0300X0.0100*%
G04:AMPARAMS|DCode=21|XSize=59.1mil|YSize=118.1mil|CornerRadius=14.8mil|HoleSize=0mil|Usage=FLASHONLY|Rotation=270.000|XOffset=0mil|YOffset=0mil|HoleType=Round|Shape=RoundedRectangle|*
%AMROUNDEDRECTD21*
21,1,0.0591,0.0886,0,0,270.0*
21,1,0.0295,0.1181,0,0,270.0*
1,1,0.0295,-0.0443,-0.0148*
1,1,0.0295,-0.0443,0.0148*
1,1,0.0295,0.0443,0.0148*
1,1,0.0295,0.0443,-0.0148*
%
%ADD21ROUNDEDRECTD21*%
G04:AMPARAMS|DCode=22|XSize=39.4mil|YSize=27.6mil|CornerRadius=6.9mil|HoleSize=0mil|Usage=FLASHONLY|Rotation=270.000|XOffset=0mil|YOffset=0mil|HoleType=Round|Shape=RoundedRectangle|*
%AMROUNDEDRECTD22*
21,1,0.0394,0.0138,0,0,270.0*
21,1,0.0256,0.0276,0,0,270.0*
1,1,0.0138,-0.0069,-0.0128*
1,1,0.0138,-0.0069,0.0128*
1,1,0.0138,0.0069,0.0128*
1,1,0.0138,0.0069,-0.0128*
%
%ADD22ROUNDEDRECTD22*%
%ADD23R,0.0600X0.0400*%
G04:AMPARAMS|DCode=46|XSize=80mil|YSize=60mil|CornerRadius=15mil|HoleSize=0mil|Usage=FLASHONLY|Rotation=0.000|XOffset=0mil|YOffset=0mil|HoleType=Round|Shape=RoundedRectangle|*
%AMROUNDEDRECTD46*
21,1,0.0800,0.0300,0,0,0.0*
21,1,0.0500,0.0600,0,0,0.0*
1,1,0.0300,0.0250,-0.0150*
1,1,0.0300,-0.0250,-0.0150*
1,1,0.0300,-0.0250,0.0150*
1,1,0.0300,0.0250,0.0150*
%
%ADD46ROUNDEDRECTD46*%
%ADD47O,0.0800X0.0600*%
%ADD48O,0.0600X0.0787*%
G04:AMPARAMS|DCode=49|XSize=78.7mil|YSize=60mil|CornerRadius=15mil|HoleSize=0mil|Usage=FLASHONLY|Rotation=90.000|XOffset=0mil|YOffset=0mil|HoleType=Round|Shape=RoundedRectangle|*
%AMROUNDEDRECTD49*
21,1,0.0787,0.0300,0,0,90.0*
21,1,0.0487,0.0600,0,0,90.0*
1,1,0.0300,0.0150,0.0244*
1,1,0.0300,0.0150,-0.0244*
1,1,0.0300,-0.0150,-0.0244*
1,1,0.0300,-0.0150,0.0244*
%
%ADD49ROUNDEDRECTD49*%
%ADD50O,0.0600X0.0800*%
G04:AMPARAMS|DCode=51|XSize=80mil|YSize=60mil|CornerRadius=15mil|HoleSize=0mil|Usage=FLASHONLY|Rotation=270.000|XOffset=0mil|YOffset=0mil|HoleType=Round|Shape=RoundedRectangle|*
%AMROUNDEDRECTD51*
21,1,0.0800,0.0300,0,0,270.0*
21,1,0.0500,0.0600,0,0,270.0*
1,1,0.0300,-0.0150,-0.0250*
1,1,0.0300,-0.0150,0.0250*
1,1,0.0300,0.0150,0.0250*
1,1,0.0300,0.0150,-0.0250*
%
%ADD51ROUNDEDRECTD51*%
%ADD52O,0.0550X0.0750*%
%ADD53C,0.0700*%
%ADD54C,0.0900*%
G04:AMPARAMS|DCode=55|XSize=157.5mil|YSize=59.1mil|CornerRadius=14.8mil|HoleSize=0mil|Usage=FLASHONLY|Rotation=270.000|XOffset=0mil|YOffset=0mil|HoleType=Round|Shape=RoundedRectangle|*
%AMROUNDEDRECTD55*
21,1,0.1575,0.0295,0,0,270.0*
21,1,0.1280,0.0591,0,0,270.0*
1,1,0.0295,-0.0148,-0.0640*
1,1,0.0295,-0.0148,0.0640*
1,1,0.0295,0.0148,0.0640*
1,1,0.0295,0.0148,-0.0640*
%
%ADD55ROUNDEDRECTD55*%
G04:AMPARAMS|DCode=56|XSize=157.5mil|YSize=59.1mil|CornerRadius=14.8mil|HoleSize=0mil|Usage=FLASHONLY|Rotation=180.000|XOffset=0mil|YOffset=0mil|HoleType=Round|Shape=RoundedRectangle|*
%AMROUNDEDRECTD56*
21,1,0.1575,0.0295,0,0,180.0*
21,1,0.1280,0.0591,0,0,180.0*
1,1,0.0295,-0.0640,0.0148*
1,1,0.0295,0.0640,0.0148*
1,1,0.0295,0.0640,-0.0148*
1,1,0.0295,-0.0640,-0.0148*
%
%ADD56ROUNDEDRECTD56*%
%ADD57C,0.1200*%
D16*
X0735Y03615D02*
D03*
Y03525D02*
D03*
X07625Y02285D02*
D03*
Y02375D02*
D03*
X0785Y02285D02*
D03*
Y02375D02*
D03*
X08125Y03D02*
D03*
Y0309D02*
D03*
X08D02*
D03*
Y03D02*
D03*
X0765Y0375D02*
D03*
Y0366D02*
D03*
X0755Y0375D02*
D03*
Y0366D02*
D03*
X0785Y0211D02*
D03*
Y022D02*
D03*
X0775D02*
D03*
Y0211D02*
D03*
X0185Y0386D02*
D03*
Y0395D02*
D03*
X0255Y0386D02*
D03*
Y0395D02*
D03*
X0325Y0386D02*
D03*
Y0395D02*
D03*
X0395Y0386D02*
D03*
Y0395D02*
D03*
X0465Y0386D02*
D03*
Y0395D02*
D03*
X0535Y0386D02*
D03*
Y0395D02*
D03*
X0605Y0386D02*
D03*
Y0395D02*
D03*
X0675Y0386D02*
D03*
Y0395D02*
D03*
D17*
X077376Y02275D02*
D03*
X07775Y02375D02*
D03*
X077002D02*
D03*
X065988Y0395D02*
D03*
X066736D02*
D03*
X066362Y0385D02*
D03*
X058988Y0395D02*
D03*
X059736D02*
D03*
X059362Y0385D02*
D03*
X051988Y0395D02*
D03*
X052736D02*
D03*
X052362Y0385D02*
D03*
X037988Y0395D02*
D03*
X038736D02*
D03*
X038362Y0385D02*
D03*
X030988Y0395D02*
D03*
X031736D02*
D03*
X031362Y0385D02*
D03*
X023988Y0395D02*
D03*
X024736D02*
D03*
X024362Y0385D02*
D03*
X016988Y0395D02*
D03*
X017736D02*
D03*
X017362Y0385D02*
D03*
X045362D02*
D03*
X045736Y0395D02*
D03*
X044988D02*
D03*
D18*
X07Y03D02*
D03*
X0709D02*
D03*
X07Y03135D02*
D03*
X0709D02*
D03*
X07Y03325D02*
D03*
X0709D02*
D03*
X06355Y0385D02*
D03*
X06445D02*
D03*
X06355Y0395D02*
D03*
X06445D02*
D03*
X05655Y0385D02*
D03*
X05745D02*
D03*
X05655Y0395D02*
D03*
X05745D02*
D03*
X04955Y0385D02*
D03*
X05045D02*
D03*
X04955Y0395D02*
D03*
X05045D02*
D03*
X04255Y0385D02*
D03*
X04345D02*
D03*
X04255Y0395D02*
D03*
X04345D02*
D03*
X03555Y0385D02*
D03*
X03645D02*
D03*
X03555Y0395D02*
D03*
X03645D02*
D03*
X02855Y0385D02*
D03*
X02945D02*
D03*
X02855Y0395D02*
D03*
X02945D02*
D03*
X02155Y0385D02*
D03*
X02245D02*
D03*
X02155Y0395D02*
D03*
X02245D02*
D03*
X01455Y0385D02*
D03*
X01545D02*
D03*
X01455Y0395D02*
D03*
X01545D02*
D03*
X06355Y0265D02*
D03*
X06445D02*
D03*
X06355Y0275D02*
D03*
X06445D02*
D03*
X05655Y0265D02*
D03*
X05745D02*
D03*
X05655Y0275D02*
D03*
X05745D02*
D03*
X04955Y0265D02*
D03*
X05045D02*
D03*
X04955Y0275D02*
D03*
X05045D02*
D03*
X04255Y0265D02*
D03*
X04345D02*
D03*
X04255Y0275D02*
D03*
X04345D02*
D03*
X03555Y0265D02*
D03*
X03645D02*
D03*
X03555Y0275D02*
D03*
X03645D02*
D03*
X02855Y0265D02*
D03*
X02945D02*
D03*
X02855Y0275D02*
D03*
X02945D02*
D03*
X02155Y0265D02*
D03*
X02245D02*
D03*
X02155Y0275D02*
D03*
X02245D02*
D03*
X01455Y0265D02*
D03*
X01545D02*
D03*
X01455Y0275D02*
D03*
X01545D02*
D03*
D19*
X07215Y03325D02*
D03*
Y03135D02*
D03*
D20*
X07475Y034652D02*
D03*
Y034396D02*
D03*
Y03414D02*
D03*
Y033884D02*
D03*
Y033628D02*
D03*
Y033372D02*
D03*
Y033116D02*
D03*
Y03286D02*
D03*
Y032604D02*
D03*
Y032348D02*
D03*
X07725D02*
D03*
Y032604D02*
D03*
Y033116D02*
D03*
Y033628D02*
D03*
Y033884D02*
D03*
Y03414D02*
D03*
Y034396D02*
D03*
Y034652D02*
D03*
Y03286D02*
D03*
Y033372D02*
D03*
D21*
X0805Y039058D02*
D03*
X0705D02*
D03*
D22*
X081415Y0365D02*
D03*
X0805D02*
D03*
X079594Y03649D02*
D03*
X069594D02*
D03*
X0705Y0365D02*
D03*
X071415D02*
D03*
D23*
X06525Y0395D02*
D03*
Y038083D02*
D03*
X05825Y0395D02*
D03*
Y038083D02*
D03*
X05125Y0395D02*
D03*
Y038083D02*
D03*
X04425Y0395D02*
D03*
Y038083D02*
D03*
X03725Y0395D02*
D03*
Y038083D02*
D03*
X03025Y0395D02*
D03*
Y038083D02*
D03*
X02325Y0395D02*
D03*
Y038083D02*
D03*
X01625Y0395D02*
D03*
Y038083D02*
D03*
D46*
X08125Y032D02*
D03*
X0605Y046D02*
D03*
X0535D02*
D03*
X0465D02*
D03*
X0395D02*
D03*
X0325D02*
D03*
X0255D02*
D03*
X0185D02*
D03*
X0675Y027D02*
D03*
Y044D02*
D03*
D47*
X08125Y033D02*
D03*
Y034D02*
D03*
Y035D02*
D03*
X0605Y044D02*
D03*
Y045D02*
D03*
X0535Y044D02*
D03*
Y045D02*
D03*
X0465Y044D02*
D03*
Y045D02*
D03*
X0395Y044D02*
D03*
Y045D02*
D03*
X0325Y044D02*
D03*
Y045D02*
D03*
X0255Y044D02*
D03*
Y045D02*
D03*
X0185Y044D02*
D03*
Y045D02*
D03*
X0675Y026D02*
D03*
Y025D02*
D03*
Y024D02*
D03*
Y043D02*
D03*
Y042D02*
D03*
Y041D02*
D03*
D48*
X0765Y025D02*
D03*
X0755D02*
D03*
X0745D02*
D03*
X0735D02*
D03*
X0765Y026D02*
D03*
X0775D02*
D03*
X0755D02*
D03*
X0745D02*
D03*
X0735D02*
D03*
D49*
X0775Y025D02*
D03*
D50*
X07425Y02175D02*
D03*
X07325D02*
D03*
X07225D02*
D03*
X07125D02*
D03*
X051Y0285D02*
D03*
X05D02*
D03*
X058D02*
D03*
X057D02*
D03*
X044D02*
D03*
X043D02*
D03*
X037D02*
D03*
X036D02*
D03*
X03D02*
D03*
X029D02*
D03*
X023D02*
D03*
X022D02*
D03*
X016D02*
D03*
X015D02*
D03*
X064D02*
D03*
X065D02*
D03*
D51*
X07025Y02175D02*
D03*
X049Y0285D02*
D03*
X056D02*
D03*
X042D02*
D03*
X035D02*
D03*
X028D02*
D03*
X021D02*
D03*
X014D02*
D03*
X063D02*
D03*
D52*
X0808Y028D02*
D03*
X08D02*
D03*
X07D02*
D03*
X0708D02*
D03*
D53*
X066362Y036213D02*
D03*
X061638D02*
D03*
X059362D02*
D03*
X054638D02*
D03*
X052362D02*
D03*
X047638D02*
D03*
X045362D02*
D03*
X040638D02*
D03*
X038362D02*
D03*
X033638D02*
D03*
X031362D02*
D03*
X026638D02*
D03*
X024362D02*
D03*
X019638D02*
D03*
X017362D02*
D03*
X012638D02*
D03*
D54*
X064Y037D02*
D03*
X061638Y031409D02*
D03*
X066362D02*
D03*
X057Y037D02*
D03*
X054638Y031409D02*
D03*
X059362D02*
D03*
X05Y037D02*
D03*
X047638Y031409D02*
D03*
X052362D02*
D03*
X043Y037D02*
D03*
X040638Y031409D02*
D03*
X045362D02*
D03*
X036Y037D02*
D03*
X033638Y031409D02*
D03*
X038362D02*
D03*
X029Y037D02*
D03*
X026638Y031409D02*
D03*
X031362D02*
D03*
X022Y037D02*
D03*
X019638Y031409D02*
D03*
X024362D02*
D03*
X015Y037D02*
D03*
X012638Y031409D02*
D03*
X017362D02*
D03*
D55*
X027061Y042309D02*
D03*
X034061D02*
D03*
X041061D02*
D03*
X048061D02*
D03*
X020061D02*
D03*
X013061D02*
D03*
X055061D02*
D03*
X062061D02*
D03*
D56*
X029Y041D02*
D03*
Y043372D02*
D03*
X036Y041D02*
D03*
Y043372D02*
D03*
X043Y041D02*
D03*
Y043372D02*
D03*
X05D02*
D03*
Y041D02*
D03*
X022D02*
D03*
Y043372D02*
D03*
X015Y041D02*
D03*
Y043372D02*
D03*
X057D02*
D03*
Y041D02*
D03*
X064Y043372D02*
D03*
Y041D02*
D03*
D57*
X063016Y024D02*
D03*
X064984D02*
D03*
X056016D02*
D03*
X057984D02*
D03*
X049016D02*
D03*
X050984D02*
D03*
X042016D02*
D03*
X043984D02*
D03*
X035016D02*
D03*
X036984D02*
D03*
X028016D02*
D03*
X029984D02*
D03*
X021016D02*
D03*
X022984D02*
D03*
X014016D02*
D03*
X015984D02*
D03*
M02*
